<svg width="142" height="128" viewBox="0 0 142 128" fill="none" xmlns="http://www.w3.org/2000/svg">
<path fill-rule="evenodd" clip-rule="evenodd" d="M107.675 118.079H0V121.225H107.675V118.079ZM140.582 124.854H32.9074V128H140.582V124.854Z" fill="white"/>
<path d="M6.26683 95.625C6.55718 94.8991 7.01692 94.3245 7.64603 93.901C8.28724 93.4655 9.00104 93.2477 9.78743 93.2477H24.3235L20.6759 102.213C20.3855 102.938 19.9198 103.519 19.2785 103.955C18.6494 104.378 17.9417 104.59 17.1553 104.59H7.53715L6.13979 108.038C6.00671 108.365 5.78894 108.631 5.48648 108.836C5.19613 109.03 4.87552 109.127 4.52467 109.127H0.804443L6.26683 95.625ZM16.2479 99.9804C16.381 99.9804 16.502 99.9441 16.6109 99.8715C16.7319 99.7989 16.8165 99.7022 16.8649 99.5812L17.5727 97.839H10.7311C10.4407 97.839 10.2351 97.9782 10.1141 98.2564L9.40633 99.9804H16.2479ZM19.7675 109.127L25.2481 95.625C25.5384 94.8991 26.0042 94.3245 26.6454 93.901C27.2867 93.4655 27.9944 93.2477 28.7687 93.2477H31.0916L26.5003 104.535H38.7135L37.8243 106.749C37.5339 107.475 37.0681 108.056 36.4269 108.492C35.7857 108.915 35.0719 109.127 34.2855 109.127H19.7675ZM38.7829 109.127L44.2998 95.5887C44.5901 94.8749 45.0499 94.3063 45.679 93.8829C46.3081 93.4594 47.0098 93.2477 47.7841 93.2477H62.302L56.8215 106.749C56.5311 107.475 56.0654 108.056 55.4242 108.492C54.7829 108.915 54.0752 109.127 53.3009 109.127H50.9962L53.4642 103.065H46.1145L44.082 108.038C43.9489 108.365 43.7311 108.631 43.4287 108.836C43.1383 109.03 42.8117 109.127 42.4487 109.127H38.7829ZM54.6438 99.309C54.8616 99.309 55.0128 99.2061 55.0975 99.0005L55.5875 97.8209H48.5826C48.3648 97.8209 48.2136 97.9237 48.1289 98.1294L47.6389 99.309H54.6438ZM63.8557 94.264C63.9888 93.9252 64.2065 93.6591 64.509 93.4655C64.8115 93.2598 65.1442 93.157 65.5071 93.157H69.191L66.9408 98.692H73.5646C73.7944 98.692 74.0001 98.6315 74.1816 98.5105C74.3631 98.3895 74.4961 98.2262 74.5808 98.0205L76.1234 94.2458C76.2565 93.9071 76.4682 93.6409 76.7585 93.4473C77.061 93.2538 77.3876 93.157 77.7385 93.157H81.368L78.3555 100.579C78.0651 101.305 77.5994 101.886 76.9581 102.321C76.3169 102.745 75.6092 102.957 74.8349 102.957H71.6591L69.6266 107.929C69.4935 108.268 69.2757 108.54 68.9733 108.746C68.6829 108.939 68.3623 109.036 68.0115 109.036H64.3094L66.7774 102.957H60.3169L63.8557 94.264Z" fill="white"/>
<path d="M82.7616 95.6249C83.052 94.899 83.5178 94.3243 84.159 93.9009C84.8002 93.4653 85.5079 93.2476 86.2822 93.2476H100.836L97.1888 102.212C96.8985 102.938 96.4327 103.519 95.7915 103.955C95.1503 104.378 94.4425 104.59 93.6682 104.59H92.7246L94.5756 109.127H89.6758L87.8429 104.59H84.0501L82.6346 108.038C82.5015 108.364 82.2837 108.631 81.9813 108.836C81.6909 109.03 81.3703 109.127 81.0195 109.127H77.3174L82.7616 95.6249ZM85.9193 99.9803H92.7609C92.8939 99.9803 93.0149 99.944 93.1238 99.8714C93.2448 99.7988 93.3295 99.702 93.3779 99.581L94.0856 97.8389H87.244C86.9416 97.8389 86.7299 97.978 86.6089 98.2563L85.9193 99.9803ZM96.7879 109.127C96.7879 109.127 96.8665 108.933 97.0238 108.546C97.1811 108.147 97.3928 107.626 97.659 106.985C97.913 106.344 98.2095 105.618 98.5482 104.807C98.8749 103.985 99.2136 103.144 99.5645 102.285C99.9153 101.426 100.254 100.591 100.581 99.7806C100.919 98.958 101.216 98.226 101.47 97.5848C101.736 96.9315 101.948 96.4113 102.105 96.0241C102.274 95.6249 102.359 95.4253 102.359 95.4253C102.674 94.7598 103.133 94.2336 103.738 93.8464C104.355 93.4472 105.033 93.2476 105.771 93.2476H120.307L119.4 95.4615C119.109 96.1753 118.643 96.75 118.002 97.1856C117.361 97.609 116.653 97.8207 115.879 97.8207H106.823C106.412 97.8207 106.122 98.0143 105.952 98.4014L105.571 99.3088H113.32L112.231 101.958C112.098 102.297 111.881 102.569 111.578 102.775C111.288 102.969 110.961 103.065 110.598 103.065H104.682C104.271 103.065 103.98 103.259 103.811 103.646L103.448 104.553H115.679L114.79 106.749C114.5 107.475 114.034 108.056 113.393 108.491C112.752 108.915 112.044 109.127 111.27 109.127H96.7879ZM117.027 109.127L125.937 100.869L120.947 93.2476H125.012C125.665 93.2476 126.276 93.4048 126.845 93.7194C127.425 94.0219 127.891 94.4453 128.242 94.9897L129.766 97.3307L134.158 93.2476H140.855L132.289 101.178L137.479 109.127H131.327L128.46 104.735L123.723 109.127H117.027Z" fill="#BFE603"/>
<path fill-rule="evenodd" clip-rule="evenodd" d="M69.9282 76.9451H67.9924V80.5746H69.9282V76.9451ZM74.7675 76.9451H72.8318V80.5746H74.7675V76.9451Z" fill="#F2003A"/>
<path fill-rule="evenodd" clip-rule="evenodd" d="M51.5388 74.6464H60.5267C58.9742 74.2348 57.83 72.8201 57.83 71.1379C57.83 69.1335 59.455 67.5084 61.4594 67.5084C63.4639 67.5084 65.0889 69.1335 65.0889 71.1379C65.0889 72.8201 63.9447 74.2348 62.3922 74.6464H65.8148L68.7184 67.6294L40.8923 43.9167L51.5388 74.6464ZM91.7052 74.6464H82.7174C84.2698 74.2348 85.4141 72.8201 85.4141 71.1379C85.4141 69.1335 83.789 67.5084 81.7846 67.5084C79.7801 67.5084 78.1551 69.1335 78.1551 71.1379C78.1551 72.8201 79.2993 74.2348 80.8518 74.6464H77.4292L74.5256 67.6294L102.352 43.9167L91.7052 74.6464Z" fill="#BFE603"/>
<path fill-rule="evenodd" clip-rule="evenodd" d="M105.771 26.692C112.164 17.69 112.861 11.8145 109.369 0C106.063 5.44755 103.49 7.94304 97.5122 11.3724L95.8185 0.362949C85.1531 7.85857 80.3788 10.1324 74.5908 10.2779C73.5302 10.2014 72.4595 10.1626 71.3799 10.1626C51.9653 10.1626 35.485 22.726 29.6255 40.1664H18.6313V69.2023H32.4234V58.7977H32.4481L32.4234 58.5804V49.8203C34.6011 30.2332 51.2118 15.0019 71.3799 15.0019C91.548 15.0019 108.159 30.2332 110.336 49.8203V58.5804L110.312 58.7977H110.336V69.2023H124.128V40.1664H113.134C111.474 35.2252 108.962 30.6755 105.771 26.692ZM125.096 43.7958H128.968V65.0888H125.096V43.7958ZM13.792 43.7958H17.6634V65.0888H13.792V43.7958Z" fill="#F2003A"/>
</svg>
