<svg width="252" height="70" viewBox="0 0 252 70" fill="none" xmlns="http://www.w3.org/2000/svg">
<g clip-path="url(#clip0_156_9)">
<path fill-rule="evenodd" clip-rule="evenodd" d="M248.063 22.2926H77.3182V24.7983H248.063V22.2926ZM248.063 57.0142H89.1307V59.5199H248.063V57.0142Z" fill="#F2003A"/>
<path d="M109.514 34.9327C109.812 34.1882 110.283 33.5987 110.929 33.1644C111.586 32.7177 112.319 32.4943 113.125 32.4943H128.035L124.293 41.6895C123.995 42.434 123.518 43.0296 122.86 43.4764C122.215 43.9106 121.489 44.1278 120.682 44.1278H110.817L109.384 47.6644C109.247 47.9995 109.024 48.2726 108.714 48.4834C108.416 48.6821 108.087 48.7812 107.727 48.7812H103.911L109.514 34.9327ZM119.752 39.4C119.888 39.4 120.012 39.3627 120.124 39.2883C120.248 39.2138 120.335 39.1147 120.384 38.9905L121.11 37.2036H114.093C113.795 37.2036 113.584 37.3464 113.46 37.6317L112.734 39.4H119.752ZM123.362 48.7812L128.983 34.9327C129.281 34.1882 129.759 33.5987 130.416 33.1644C131.074 32.7177 131.8 32.4943 132.594 32.4943H134.976L130.267 44.072H142.794L141.882 46.3429C141.584 47.0874 141.106 47.683 140.449 48.1298C139.791 48.564 139.059 48.7812 138.252 48.7812H123.362ZM142.865 48.7812L148.524 34.8955C148.822 34.1633 149.294 33.5801 149.939 33.1458C150.584 32.7115 151.304 32.4943 152.098 32.4943H166.989L161.367 46.3429C161.07 47.0874 160.592 47.683 159.934 48.1298C159.277 48.564 158.551 48.7812 157.756 48.7812H155.392L157.924 42.5643H150.385L148.301 47.6644C148.164 47.9995 147.941 48.2726 147.631 48.4834C147.333 48.6821 146.998 48.7812 146.625 48.7812H142.865ZM159.134 38.7113C159.357 38.7113 159.512 38.6057 159.599 38.3948L160.102 37.1849H152.917C152.693 37.1849 152.538 37.2905 152.451 37.5014L151.949 38.7113H159.134ZM168.582 33.5367C168.719 33.1892 168.942 32.9162 169.252 32.7177C169.563 32.5067 169.904 32.4012 170.276 32.4012H174.055L171.747 38.0784H178.541C178.777 38.0784 178.987 38.0165 179.173 37.8923C179.36 37.7681 179.496 37.6005 179.583 37.3897L181.165 33.5181C181.302 33.1706 181.519 32.8976 181.817 32.6991C182.127 32.5005 182.462 32.4012 182.822 32.4012H186.544L183.455 40.0142C183.157 40.7588 182.679 41.3544 182.021 41.8011C181.364 42.2353 180.638 42.4526 179.844 42.4526H176.586L174.501 47.5527C174.365 47.9003 174.142 48.1795 173.831 48.3904C173.534 48.589 173.205 48.6882 172.845 48.6882H169.048L171.579 42.4526H164.953L168.582 33.5367Z" fill="#1A1A1A"/>
<path d="M187.974 34.9326C188.272 34.1881 188.749 33.5987 189.407 33.1644C190.065 32.7176 190.79 32.4943 191.585 32.4943H206.513L202.772 41.6894C202.474 42.4339 201.996 43.0296 201.338 43.4763C200.681 43.9105 199.955 44.1278 199.161 44.1278H198.193L200.091 48.7812H195.066L193.186 44.1278H189.295L187.843 47.6644C187.707 47.9994 187.484 48.2725 187.173 48.4834C186.876 48.682 186.547 48.7812 186.187 48.7812H182.39L187.974 34.9326ZM191.213 39.3999H198.23C198.366 39.3999 198.49 39.3627 198.602 39.2882C198.726 39.2138 198.813 39.1146 198.863 38.9904L199.589 37.2035H192.571C192.261 37.2035 192.044 37.3463 191.92 37.6316L191.213 39.3999ZM202.36 48.7812C202.36 48.7812 202.441 48.5825 202.602 48.1856C202.764 47.7761 202.981 47.2423 203.254 46.5848C203.514 45.9272 203.819 45.1827 204.166 44.3511C204.501 43.5075 204.848 42.6448 205.208 41.7639C205.568 40.8829 205.916 40.0267 206.251 39.1952C206.598 38.3515 206.902 37.6005 207.163 36.9429C207.436 36.2728 207.653 35.7392 207.814 35.3421C207.988 34.9326 208.075 34.7279 208.075 34.7279C208.398 34.0454 208.869 33.5056 209.489 33.1085C210.122 32.699 210.817 32.4943 211.574 32.4943H226.484L225.553 34.7651C225.255 35.4973 224.778 36.0867 224.12 36.5334C223.462 36.9676 222.736 37.1849 221.942 37.1849H212.654C212.232 37.1849 211.934 37.3836 211.76 37.7805L211.369 38.7112H219.317L218.2 41.4288C218.064 41.7764 217.841 42.0556 217.53 42.2664C217.233 42.4651 216.898 42.5642 216.525 42.5642H210.457C210.036 42.5642 209.738 42.7629 209.564 43.1599L209.192 44.0906H221.737L220.825 46.3428C220.527 47.0874 220.05 47.683 219.392 48.1297C218.734 48.5639 218.008 48.7812 217.214 48.7812H202.36ZM223.119 48.7812L232.258 40.312L227.14 32.4943H231.309C231.979 32.4943 232.606 32.6556 233.189 32.9782C233.785 33.2885 234.263 33.7228 234.622 34.2812L236.186 36.6823L240.69 32.4943H247.559L238.773 40.6284L244.097 48.7812H237.787L234.846 44.2767L229.988 48.7812H223.119Z" fill="#BFE603"/>
<path fill-rule="evenodd" clip-rule="evenodd" d="M47.7852 66.0145H46.145V69.0897H47.7852V66.0145ZM51.8859 66.0145H50.2458V69.0897H51.8859V66.0145Z" fill="#F2003A"/>
<path fill-rule="evenodd" clip-rule="evenodd" d="M32.203 64.0666H39.8188C38.5034 63.718 37.5337 62.5192 37.5337 61.0938C37.5337 59.3953 38.9107 58.0183 40.6092 58.0183C42.3077 58.0183 43.6848 59.3953 43.6848 61.0938C43.6848 62.5192 42.7151 63.718 41.3996 64.0666H44.2997L46.7599 58.121L23.1818 38.028L32.203 64.0666ZM66.2377 64.0666H58.6218C59.9373 63.718 60.907 62.5192 60.907 61.0938C60.907 59.3953 59.5303 58.0183 57.8315 58.0183C56.133 58.0183 54.7563 59.3953 54.7563 61.0938C54.7563 62.5192 55.726 63.718 57.0415 64.0666H54.141L51.6807 58.121L75.2592 38.028L66.2377 64.0666Z" fill="#BFE603"/>
<path fill-rule="evenodd" clip-rule="evenodd" d="M78.1569 23.4327C83.5731 15.8048 84.1644 10.8263 81.2049 0.815308C78.4039 5.43131 76.2239 7.54582 71.1585 10.4517L69.7235 1.12285C60.6862 7.47419 56.6406 9.40099 51.7359 9.5242C50.8378 9.45944 49.9304 9.42651 49.0154 9.42651C32.5646 9.42651 18.6001 20.072 13.635 34.8501H4.31915V59.4536H16.0058V50.6372H16.0268C16.0196 50.576 16.0126 50.5148 16.0058 50.4532V43.0303C17.8511 26.4333 31.9261 13.5271 49.0154 13.5271C66.1049 13.5271 80.1797 26.4333 82.0249 43.0303V50.4532C82.0206 50.4919 82.0163 50.5305 82.012 50.5692L82.0042 50.6372H82.0249V59.4536H93.7118V34.8501H84.3957C82.9893 30.6632 80.8601 26.808 78.1569 23.4327ZM94.5319 37.9255H97.8121V55.9679H94.5319V37.9255ZM0.218567 37.9255H3.49903V55.9679H0.218567V37.9255Z" fill="#F2003A"/>
</g>
<defs>
<clipPath id="clip0_156_9">
<rect width="252" height="68.3693" fill="white" transform="translate(0 0.815308)"/>
</clipPath>
</defs>
</svg>
