<svg width="252" height="69" viewBox="0 0 252 69" fill="none" xmlns="http://www.w3.org/2000/svg">
<g clip-path="url(#clip0_127_2)">
<path fill-rule="evenodd" clip-rule="evenodd" d="M248.062 21.4773H77.3181V23.983H248.062V21.4773ZM248.062 56.1989H89.1306V58.7046H248.062V56.1989Z" fill="#F2003A"/>
<path d="M109.514 34.1174C109.812 33.3728 110.283 32.7834 110.929 32.3491C111.586 31.9024 112.319 31.679 113.125 31.679H128.035L124.293 40.8741C123.995 41.6187 123.518 42.2143 122.86 42.6611C122.215 43.0953 121.489 43.3125 120.682 43.3125H110.817L109.384 46.8491C109.247 47.1842 109.024 47.4573 108.714 47.6681C108.416 47.8668 108.087 47.9659 107.727 47.9659H103.911L109.514 34.1174ZM119.752 38.5847C119.888 38.5847 120.012 38.5474 120.124 38.473C120.248 38.3985 120.335 38.2994 120.384 38.1752L121.11 36.3883H114.093C113.795 36.3883 113.584 36.5311 113.46 36.8164L112.734 38.5847H119.752ZM123.362 47.9659L128.983 34.1174C129.281 33.3728 129.759 32.7834 130.416 32.3491C131.074 31.9024 131.8 31.679 132.594 31.679H134.976L130.267 43.2567H142.794L141.882 45.5276C141.584 46.2721 141.106 46.8677 140.449 47.3145C139.791 47.7487 139.059 47.9659 138.252 47.9659H123.362ZM142.865 47.9659L148.524 34.0802C148.822 33.348 149.294 32.7648 149.939 32.3305C150.584 31.8962 151.304 31.679 152.098 31.679H166.989L161.367 45.5276C161.07 46.2721 160.592 46.8677 159.934 47.3145C159.277 47.7487 158.551 47.9659 157.756 47.9659H155.392L157.924 41.749H150.385L148.301 46.8491C148.164 47.1842 147.941 47.4573 147.631 47.6681C147.333 47.8668 146.998 47.9659 146.625 47.9659H142.865ZM159.134 37.896C159.357 37.896 159.512 37.7904 159.599 37.5795L160.102 36.3696H152.917C152.693 36.3696 152.538 36.4752 152.451 36.6861L151.949 37.896H159.134ZM168.582 32.7214C168.719 32.3739 168.942 32.1009 169.252 31.9024C169.563 31.6914 169.904 31.5859 170.276 31.5859H174.055L171.747 37.2631H178.541C178.777 37.2631 178.987 37.2012 179.173 37.077C179.36 36.9528 179.496 36.7852 179.583 36.5744L181.165 32.7028C181.302 32.3553 181.519 32.0823 181.817 31.8838C182.127 31.6852 182.462 31.5859 182.822 31.5859H186.544L183.455 39.1989C183.157 39.9435 182.679 40.5391 182.021 40.9858C181.364 41.42 180.638 41.6373 179.844 41.6373H176.586L174.501 46.7374C174.365 47.085 174.142 47.3642 173.831 47.5751C173.534 47.7737 173.205 47.8729 172.845 47.8729H169.048L171.579 41.6373H164.953L168.582 32.7214Z" fill="white"/>
<path d="M187.974 34.1173C188.272 33.3728 188.749 32.7834 189.407 32.349C190.065 31.9023 190.79 31.679 191.585 31.679H206.513L202.772 40.8741C202.474 41.6186 201.996 42.2143 201.338 42.661C200.681 43.0952 199.955 43.3125 199.161 43.3125H198.193L200.091 47.9659H195.066L193.186 43.3125H189.295L187.843 46.8491C187.707 47.1841 187.484 47.4572 187.173 47.6681C186.876 47.8667 186.547 47.9659 186.187 47.9659H182.39L187.974 34.1173ZM191.213 38.5846H198.23C198.366 38.5846 198.49 38.5474 198.602 38.4729C198.726 38.3985 198.813 38.2993 198.863 38.1751L199.589 36.3882H192.571C192.261 36.3882 192.044 36.531 191.92 36.8163L191.213 38.5846ZM202.36 47.9659C202.36 47.9659 202.441 47.7672 202.602 47.3703C202.764 46.9608 202.981 46.427 203.254 45.7695C203.514 45.1119 203.819 44.3674 204.166 43.5358C204.501 42.6921 204.848 41.8295 205.208 40.9485C205.568 40.0676 205.916 39.2114 206.251 38.3799C206.598 37.5362 206.902 36.7852 207.163 36.1276C207.436 35.4575 207.653 34.9239 207.814 34.5268C207.988 34.1173 208.075 33.9126 208.075 33.9126C208.398 33.2301 208.869 32.6903 209.489 32.2932C210.122 31.8837 210.817 31.679 211.574 31.679H226.484L225.553 33.9498C225.255 34.6819 224.778 35.2714 224.12 35.7181C223.462 36.1523 222.736 36.3696 221.942 36.3696H212.654C212.232 36.3696 211.934 36.5683 211.76 36.9652L211.369 37.8959H219.317L218.2 40.6135C218.064 40.9611 217.841 41.2403 217.53 41.4511C217.233 41.6498 216.898 41.7489 216.525 41.7489H210.457C210.036 41.7489 209.738 41.9476 209.564 42.3446L209.192 43.2753H221.737L220.825 45.5275C220.527 46.272 220.05 46.8677 219.392 47.3144C218.734 47.7486 218.008 47.9659 217.214 47.9659H202.36ZM223.119 47.9659L232.258 39.4967L227.14 31.679H231.309C231.979 31.679 232.606 31.8403 233.189 32.1629C233.785 32.4731 234.263 32.9075 234.622 33.4659L236.186 35.867L240.69 31.679H247.559L238.773 39.8131L244.097 47.9659H237.787L234.846 43.4614L229.988 47.9659H223.119Z" fill="#BFE603"/>
<path fill-rule="evenodd" clip-rule="evenodd" d="M47.7852 65.1992H46.145V68.2744H47.7852V65.1992ZM51.8859 65.1992H50.2458V68.2744H51.8859V65.1992Z" fill="#F2003A"/>
<path fill-rule="evenodd" clip-rule="evenodd" d="M32.2032 63.2513H39.819C38.5035 62.9027 37.5338 61.7039 37.5338 60.2785C37.5338 58.58 38.9108 57.203 40.6093 57.203C42.3078 57.203 43.6849 58.58 43.6849 60.2785C43.6849 61.7039 42.7152 62.9027 41.3997 63.2513H44.2998L46.7601 57.3057L23.1819 37.2126L32.2032 63.2513ZM66.2378 63.2513H58.622C59.9374 62.9027 60.9071 61.7039 60.9071 60.2785C60.9071 58.58 59.5305 57.203 57.8316 57.203C56.1331 57.203 54.7564 58.58 54.7564 60.2785C54.7564 61.7039 55.7261 62.9027 57.0416 63.2513H54.1411L51.6809 57.3057L75.2593 37.2126L66.2378 63.2513Z" fill="#BFE603"/>
<path fill-rule="evenodd" clip-rule="evenodd" d="M78.1568 22.6174C83.573 14.9895 84.1644 10.011 81.2048 0C78.4038 4.616 76.2239 6.73051 71.1584 9.63635L69.7234 0.307543C60.6861 6.65888 56.6405 8.58568 51.7358 8.70889C50.8377 8.64414 49.9303 8.6112 49.0154 8.6112C32.5645 8.6112 18.6 19.2567 13.635 34.0348H4.31909V58.6383H16.0057V49.8219H16.0267C16.0196 49.7607 16.0125 49.6995 16.0057 49.6379V42.215C17.8511 25.6179 31.926 12.7118 49.0154 12.7118C66.1048 12.7118 80.1796 25.618 82.0249 42.215V49.6379C82.0206 49.6766 82.0163 49.7152 82.012 49.7539L82.0041 49.8219H82.0249V58.6383H93.7117V34.0348H84.3956C82.9892 29.8479 80.8601 25.9927 78.1568 22.6174ZM94.5318 37.1102H97.8121V55.1526H94.5318V37.1102ZM0.218506 37.1102H3.49897V55.1526H0.218506V37.1102Z" fill="#F2003A"/>
</g>
<defs>
<clipPath id="clip0_127_2">
<rect width="252" height="68.3693" fill="white"/>
</clipPath>
</defs>
</svg>
