<svg width="142" height="110" viewBox="0 0 142 110" fill="none" xmlns="http://www.w3.org/2000/svg">
<mask id="mask0_297_4" style="mask-type:alpha" maskUnits="userSpaceOnUse" x="0" y="0" width="142" height="110">
<rect y="0.5" width="141.55" height="109.127" fill="black"/>
</mask>
<g mask="url(#mask0_297_4)">
<path d="M6.26695 96.1249C6.55731 95.399 7.01704 94.8243 7.64615 94.4009C8.28736 93.9654 9.00116 93.7476 9.78755 93.7476H24.3237L20.676 102.712C20.3857 103.438 19.9199 104.019 19.2787 104.455C18.6496 104.878 17.9418 105.09 17.1554 105.09H7.53727L6.13992 108.538C6.00683 108.864 5.78906 109.131 5.48661 109.336C5.19625 109.53 4.87564 109.627 4.52479 109.627H0.804565L6.26695 96.1249ZM16.248 100.48C16.3811 100.48 16.5021 100.444 16.611 100.371C16.732 100.299 16.8167 100.202 16.8651 100.081L17.5728 98.3389H10.7312C10.4409 98.3389 10.2352 98.478 10.1142 98.7563L9.40646 100.48H16.248ZM19.7677 109.627L25.2482 96.1249C25.5386 95.399 26.0044 94.8243 26.6456 94.4009C27.2868 93.9654 27.9945 93.7476 28.7688 93.7476H31.0917L26.5004 105.035H38.7136L37.8244 107.249C37.534 107.975 37.0683 108.556 36.427 108.991C35.7858 109.415 35.072 109.627 34.2856 109.627H19.7677ZM38.7831 109.627L44.2999 96.0886C44.5902 95.3748 45.05 94.8062 45.6791 94.3828C46.3082 93.9593 47.0099 93.7476 47.7842 93.7476H62.3022L56.8216 107.249C56.5313 107.975 56.0655 108.556 55.4243 108.991C54.7831 109.415 54.0753 109.627 53.301 109.627H50.9963L53.4643 103.565H46.1146L44.0821 108.538C43.949 108.864 43.7313 109.131 43.4288 109.336C43.1385 109.53 42.8118 109.627 42.4488 109.627H38.7831ZM54.6439 99.8088C54.8617 99.8088 55.0129 99.706 55.0976 99.5003L55.5876 98.3208H48.5827C48.3649 98.3208 48.2137 98.4236 48.129 98.6293L47.639 99.8088H54.6439ZM63.8558 94.7639C63.9889 94.4251 64.2067 94.1589 64.5091 93.9654C64.8116 93.7597 65.1443 93.6569 65.5072 93.6569H69.1912L66.9409 99.1918H73.5647C73.7946 99.1918 74.0002 99.1313 74.1817 99.0104C74.3632 98.8894 74.4963 98.726 74.581 98.5204L76.1235 94.7457C76.2566 94.407 76.4683 94.1408 76.7587 93.9472C77.0611 93.7536 77.3878 93.6569 77.7386 93.6569H81.3681L78.3556 101.079C78.0653 101.805 77.5995 102.386 76.9583 102.821C76.3171 103.245 75.6093 103.456 74.835 103.456H71.6592L69.6267 108.429C69.4936 108.768 69.2758 109.04 68.9734 109.246C68.683 109.439 68.3624 109.536 68.0116 109.536H64.3095L66.7776 103.456H60.3171L63.8558 94.7639Z" fill="white"/>
<path d="M82.7616 96.125C83.0519 95.3991 83.5177 94.8244 84.1589 94.401C84.8001 93.9655 85.5079 93.7477 86.2822 93.7477H100.836L97.1888 102.713C96.8984 103.438 96.4326 104.019 95.7914 104.455C95.1502 104.878 94.4425 105.09 93.6682 105.09H92.7245L94.5755 109.627H89.6757L87.8428 105.09H84.05L82.6345 108.538C82.5014 108.865 82.2837 109.131 81.9812 109.336C81.6909 109.53 81.3703 109.627 81.0194 109.627H77.3173L82.7616 96.125ZM85.9192 100.48H92.7608C92.8939 100.48 93.0149 100.444 93.1238 100.371C93.2447 100.299 93.3294 100.202 93.3778 100.081L94.0856 98.339H87.244C86.9415 98.339 86.7298 98.4781 86.6088 98.7564L85.9192 100.48ZM96.7878 109.627C96.7878 109.627 96.8665 109.433 97.0238 109.046C97.181 108.647 97.3928 108.127 97.6589 107.485C97.913 106.844 98.2094 106.118 98.5481 105.308C98.8748 104.485 99.2135 103.644 99.5644 102.785C99.9152 101.926 100.254 101.091 100.581 100.281C100.919 99.4581 101.216 98.7261 101.47 98.0849C101.736 97.4316 101.948 96.9114 102.105 96.5242C102.274 96.125 102.359 95.9254 102.359 95.9254C102.674 95.26 103.133 94.7337 103.738 94.3465C104.355 93.9473 105.033 93.7477 105.771 93.7477H120.307L119.4 95.9617C119.109 96.6755 118.643 97.2501 118.002 97.6857C117.361 98.1091 116.653 98.3208 115.879 98.3208H106.823C106.412 98.3208 106.122 98.5144 105.952 98.9016L105.571 99.8089H113.32L112.231 102.458C112.098 102.797 111.88 103.069 111.578 103.275C111.288 103.469 110.961 103.565 110.598 103.565H104.682C104.271 103.565 103.98 103.759 103.811 104.146L103.448 105.054H115.679L114.79 107.249C114.5 107.975 114.034 108.556 113.393 108.992C112.752 109.415 112.044 109.627 111.27 109.627H96.7878ZM117.027 109.627L125.937 101.37L120.947 93.7477H125.012C125.665 93.7477 126.276 93.905 126.845 94.2195C127.425 94.522 127.891 94.9454 128.242 95.4898L129.766 97.8309L134.158 93.7477H140.854L132.289 101.678L137.479 109.627H131.327L128.46 105.235L123.723 109.627H117.027Z" fill="#BFE603"/>
<path fill-rule="evenodd" clip-rule="evenodd" d="M69.9282 77.4452H67.9924V81.0747H69.9282V77.4452ZM74.7675 77.4452H72.8318V81.0747H74.7675V77.4452Z" fill="#F2003A"/>
<path fill-rule="evenodd" clip-rule="evenodd" d="M51.5388 75.1465H60.5266C58.9741 74.735 57.8299 73.3202 57.8299 71.638C57.8299 69.6336 59.4549 68.0086 61.4594 68.0086C63.4638 68.0086 65.0889 69.6336 65.0889 71.638C65.0889 73.3202 63.9446 74.735 62.3922 75.1465H65.8148L68.7184 68.1295L40.8923 44.4169L51.5388 75.1465ZM91.7051 75.1465H82.7173C84.2698 74.735 85.414 73.3202 85.414 71.638C85.414 69.6336 83.789 68.0086 81.7845 68.0086C79.7801 68.0086 78.155 69.6336 78.155 71.638C78.155 73.3202 79.2993 74.735 80.8517 75.1465H77.4291L74.5255 68.1295L102.352 44.4169L91.7051 75.1465Z" fill="#BFE603"/>
<path fill-rule="evenodd" clip-rule="evenodd" d="M105.771 27.192C112.164 18.19 112.861 12.3145 109.369 0.5C106.063 5.94755 103.49 8.44304 97.5123 11.8724L95.8185 0.862949C85.1531 8.35857 80.3789 10.6324 74.5908 10.7779C73.5303 10.7014 72.4596 10.6626 71.38 10.6626C51.9653 10.6626 35.485 23.226 29.6256 40.6664H18.6314V69.7023H32.4234V59.2977H32.4481L32.4234 59.0804V50.3203C34.6011 30.7332 51.2119 15.5019 71.38 15.5019C91.5481 15.5019 108.159 30.7332 110.336 50.3203V59.0804L110.312 59.2977H110.336V69.7023H124.129V40.6664H113.134C111.474 35.7252 108.962 31.1755 105.771 27.192ZM125.096 44.2958H128.968V65.5888H125.096V44.2958ZM13.7921 44.2958H17.6635V65.5888H13.7921V44.2958Z" fill="#F2003A"/>
</g>
</svg>
