<svg width="98" height="120" viewBox="0 0 98 120" fill="none" xmlns="http://www.w3.org/2000/svg">
<g clip-path="url(#clip0_128_264)">
<path d="M69.541 102.78C66.8027 105.677 63.9089 108.421 60.8727 111C57.7543 113.665 54.5025 116.168 51.1301 118.5L48.7579 120L46.3707 118.38C43.0138 116.07 39.7464 113.595 36.6282 110.88C33.5931 108.315 30.6994 105.586 27.9599 102.705C26.08 100.71 24.2598 98.655 22.544 96.51C16.005 88.8711 10.8675 80.1253 7.37075 70.68C6.3761 68.18 5.4859 65.64 4.70013 63.06C3.53888 59.2799 2.58261 55.4393 1.83555 51.555C1.17909 48.06 0.67182 44.535 0.343588 41.055L0.0302734 37.5V37.11L0.209311 36.99L1.86539 30.855C3.11865 26.28 4.41666 21.735 5.69975 17.16C6.98284 12.585 8.23609 8.025 9.51918 3.465L10.4442 0H21.2311L22.0666 0.33L22.2904 0.42L23.2751 0.81L24.4388 0H31.0184L31.7644 0.27L32.0777 0.375L32.8834 0.66L33.1221 0.87L33.7338 0.45L34.4947 0.255H34.6737L35.3302 0H40.8505L41.0593 0.075H80.3876L81.1634 0.36H81.3723L82.0884 0.6L82.7001 1.05L85.2215 3L86.43 3.93L86.8627 5.43C87.4446 7.395 87.9817 9.345 88.5337 11.31C89.0857 13.275 89.6527 15.21 90.2047 17.16L90.9209 19.635L90.1301 20.475L91.5176 23.715C92.4725 25.905 93.4124 28.11 94.3673 30.285L97.2319 36.87L97.5004 37.05V37.395L97.1424 41.37C96.8042 44.79 96.3068 48.185 95.6504 51.555C94.8963 55.4194 93.9351 59.2399 92.7709 63C91.9801 65.565 91.085 68.115 90.1003 70.605C88.3324 75.3606 86.1089 79.9321 83.461 84.255C82.9836 85.08 82.4912 85.875 81.9691 86.67C78.4261 92.4817 74.2584 97.8841 69.541 102.78V102.78Z" fill="#FF0000"/>
<path d="M46.7731 28.275C46.7731 28.275 39.9996 27.81 27.6759 30.855C22.9263 32.0574 18.3231 33.7828 13.9498 36C11.4742 37.2372 9.07294 38.6196 6.75856 40.14C7.43298 47.3881 8.85296 54.5464 10.9957 61.5C13.1049 68.3082 15.9833 74.8509 19.5746 81C23.1783 87.1418 27.4628 92.8532 32.3458 98.025C37.3342 103.273 42.8321 108.007 48.7574 112.155C54.6832 108.007 60.1811 103.274 65.169 98.025C70.0468 92.8524 74.3262 87.141 77.9254 81C81.496 74.8482 84.3543 68.3056 86.4445 61.5C88.6035 54.568 90.0434 47.43 90.7413 40.2C88.432 38.6617 86.0359 37.2593 83.565 36C79.1877 33.7651 74.5798 32.0197 69.824 30.795C57.5003 27.795 50.8014 28.215 50.7268 28.215H50.4135L48.7574 28.095L47.0864 28.215H46.7731V28.275ZM26.6166 26.49C31.3252 25.2912 36.1187 24.4588 40.9544 24C42.9373 23.8034 44.9303 23.7283 46.9223 23.775L48.6231 23.655H48.9663L50.6671 23.775C52.6492 23.7295 54.6321 23.8046 56.6052 24C61.4457 24.4598 66.244 25.2922 70.9579 26.49C79.3362 28.7162 87.2772 32.358 94.4414 37.26V37.26L95.4858 38.01L95.3814 39.285C94.7181 47.1536 93.2175 54.9281 90.9055 62.475C88.6879 69.7331 85.6335 76.7055 81.8045 83.25C77.9602 89.8095 73.3743 95.8999 68.1381 101.4C62.6509 107.139 56.5745 112.278 50.0107 116.73L48.7574 117.585L47.4892 116.73C40.9358 112.276 34.8695 107.137 29.3917 101.4C24.1555 95.8999 19.5696 89.8095 15.7253 83.25C11.8963 76.7055 8.84186 69.7331 6.62428 62.475C4.31222 54.9281 2.81168 47.1536 2.14838 39.285L2.04395 38.01L3.08832 37.26C10.2659 32.3529 18.2225 28.7108 26.6166 26.49Z" fill="#041B42"/>
<path d="M46.9227 26.0399C46.9227 26.0399 39.8508 25.4999 27.1392 28.6799C19.0206 30.8215 11.3257 34.3422 4.38672 39.0899C7.37065 72.6149 23.5883 97.6499 48.7578 114.87C73.9124 97.6499 90.2046 72.6149 93.0841 39.0899C86.1542 34.3453 78.4697 30.8247 70.3615 28.6799C57.6499 25.4999 50.6377 26.0399 50.6377 26.0399L48.8175 25.8899L46.9227 26.0399Z" fill="#AAB7D1"/>
<path d="M44.0133 26.04C41.1129 26.1758 38.2233 26.4863 35.3599 26.97L5.35645 46.875C5.61008 48.555 5.90847 50.205 6.23671 51.825L44.0133 26.04ZM12.503 72C13.9999 75.4557 15.7038 78.8168 17.6055 82.065L86.0271 34.815C83.0431 33.2268 79.958 31.8388 76.7918 30.66L12.503 72ZM20.9177 87.345C21.3951 88.05 21.8874 88.755 22.4096 89.445L93.0691 39.255C93.0691 39.255 93.0691 39.15 93.0691 39.09C93.0691 39.03 92.4127 38.55 90.9207 37.695L20.9177 87.345ZM34.3453 103.245C36.0164 104.85 37.7619 106.41 39.5523 107.925L85.9525 69.69C87.4383 65.9839 88.7038 62.1922 89.7421 58.335L34.3453 103.245Z" fill="white"/>
<path d="M10.9961 42.45C14.0994 69.585 26.9601 91.38 48.7578 107.355C70.5405 91.38 83.4609 69.585 86.4448 42.45C85.3109 41.76 84.1472 41.1 83.0282 40.5C78.4519 37.9985 73.5862 36.074 68.5412 34.77C64.1352 33.6346 59.6444 32.8621 55.1135 32.46C53.7059 32.3179 52.2902 32.2728 50.8764 32.325H50.4884L48.7279 32.175L46.9525 32.325H46.5646C45.1508 32.2728 43.7351 32.3179 42.3274 32.46C37.7967 32.8633 33.306 33.6359 28.8997 34.77C23.8547 36.074 18.989 37.9985 14.4127 40.5C13.3385 41.1 12.13 41.76 10.9961 42.45Z" fill="#0D0F47"/>
<path d="M70.0336 2.13023H79.9999L80.4176 2.28023L80.7011 2.38523L81.089 2.50523L81.4322 2.76023L83.9238 4.63523L84.5802 5.14523L84.819 5.94023C85.3859 7.89023 85.9379 9.85523 86.4899 11.8052C87.042 13.7552 87.6089 15.7052 88.161 17.6552L88.5489 19.0502L87.6238 20.0252L89.5634 24.5252L92.4131 31.1402L95.397 38.0102L89.1606 34.5002C87.4597 33.8102 85.744 33.1352 84.0282 32.4752L82.2826 31.8752C80.6862 31.3202 79.0749 30.8102 77.4636 30.3752L76.0014 30.0002C73.3756 29.3402 70.7348 28.7252 68.0791 28.2152L67.542 28.1102L67.348 27.9752L64.2447 27.5852C62.7528 27.4052 61.2608 27.2102 59.7688 27.0602L58.6349 26.9702C57.143 26.8652 55.651 26.7452 54.2486 26.7002L51.936 26.6102H50.2352L45.7593 26.7152H43.9838C29.3924 25.8452 17.7252 31.6352 2.05957 37.9952L3.86485 31.3502C5.14795 26.7902 6.42109 22.2302 7.68428 17.6702C8.96738 13.1702 10.2355 8.53523 11.5186 3.97523L12.0408 2.11523H20.7987L21.2463 2.29523L21.4999 2.40023L22.037 2.61023L22.4398 3.03023L22.9919 3.60023L24.4838 2.58023L25.1403 2.11523H30.6904L31.0932 2.25023L31.4066 2.37023L31.8392 2.52023L32.1973 2.82023L33.0179 3.51023L34.2264 2.65523L34.5844 2.41523L35.0022 2.31023L35.2558 2.23523L35.7183 2.13023H40.5821L40.9701 2.25023L41.2386 2.34023L41.6564 2.46023L41.9846 2.70023L42.1935 2.85023L42.5217 2.13023H64.2746V2.25023L64.4238 2.13023H70.0336V2.13023Z" fill="#0D0F47"/>
<path d="M14.1292 19.5L12.7864 24.96C12.3239 26.775 11.8763 28.605 11.4436 30.42L6.32617 32.055C7.59434 27.555 8.86252 22.92 10.1456 18.36C11.4287 13.8 12.6819 9.23998 13.965 4.67998H20.3357L20.6341 4.79998C21.1563 5.35498 21.6934 5.87998 22.2305 6.40498C21.8725 8.08498 21.5144 9.76498 21.1712 11.43L20.1418 16.5L19.918 16.815L17.3369 18.855L14.1292 19.5ZM17.9486 8.14498H16.9341C16.6058 9.44998 16.2925 10.755 15.9643 12.06C15.636 13.365 15.3227 14.67 14.9945 15.975L16.0986 15.795C16.4119 14.52 16.7252 13.23 17.0236 11.94C17.322 10.65 17.6353 9.35998 17.9486 8.06998V8.14498ZM25.125 20.25C24.9459 21.39 24.752 22.515 24.558 23.64C24.364 24.765 24.1999 25.905 24.006 27.03L19.2317 28.2C19.9478 24.57 20.7237 20.955 21.3652 17.325L23.5136 6.46498L25.9157 4.75498H30.2275L30.5408 4.85998L32.2715 6.28498L31.063 16.095C30.6552 19.345 30.2474 22.61 29.8396 25.89C28.3476 26.16 26.7512 26.475 25.1846 26.805C25.3637 25.68 25.5278 24.57 25.7068 23.445C25.8859 22.32 26.05 21.21 26.2439 20.085L25.125 20.25ZM27.1839 7.73998C26.9302 9.32998 26.6617 10.92 26.3931 12.495C26.1246 14.07 25.8709 15.675 25.6173 17.25L26.6915 17.115C26.9451 15.615 27.1839 13.98 27.4375 12.42C27.6911 10.86 27.9298 9.28498 28.1835 7.70998L27.1839 7.73998ZM36.0163 4.73998H40.1043L40.4325 4.82998L42.3273 6.16498C42.193 9.16498 42.0737 12.255 41.9394 15.285C41.8051 18.315 41.6858 21.285 41.5515 24.405C40.0595 24.51 38.5676 24.66 37.0756 24.84C37.2944 21.95 37.5083 19.05 37.7171 16.14C37.926 13.23 38.1448 10.335 38.3736 7.45498H37.374L36.6579 16.2C36.4191 19.2 36.1655 22.035 35.9417 24.96C34.4497 25.125 32.9578 25.365 31.3763 25.605C31.7493 22.38 32.1074 19.155 32.4803 15.93L33.5993 6.23998L35.7179 4.78498L36.0163 4.73998ZM51.8162 4.97998L52.9352 7.36498H49.8468C49.8468 10.155 49.9662 12.93 50.011 15.72C50.0557 18.51 50.1154 21.285 50.1751 24.06L45.6992 24.165L45.7887 15.765C45.7887 12.975 45.8782 10.17 45.908 7.37998H42.8793C43.2673 6.49498 43.685 5.62498 44.0878 4.73998H51.7118C51.7118 4.73998 51.7864 4.82998 51.8162 4.91998V4.97998ZM58.0974 15.855C58.2168 17.28 58.3361 18.69 58.4406 20.115L58.7986 24.375C57.3067 24.255 55.8147 24.15 54.3227 24.09C54.1586 20.85 54.0094 17.625 53.8453 14.385C53.6812 11.145 53.6215 7.91998 53.4126 4.67998H57.247C57.3663 6.17998 57.4708 7.52998 57.5901 8.93998C57.7095 10.35 57.8289 11.79 57.9333 13.2H58.9627C58.8285 11.7 58.724 10.35 58.5898 8.90998C58.4555 7.46998 58.3361 6.05998 58.2018 4.63498H62.0362C62.4539 8.02498 62.8618 11.41 63.2596 14.79C63.6575 18.17 64.0702 21.56 64.4979 24.96C63.006 24.765 61.514 24.57 60.022 24.42C59.8878 22.995 59.7684 21.57 59.6341 20.145C59.4999 18.72 59.3954 17.28 59.2611 15.855H58.0974ZM72.6441 10.17L69.0783 10.68C68.8992 9.64498 68.7351 8.62498 68.5561 7.58998H67.5416C67.7206 8.62498 67.8847 9.67498 68.0488 10.71C68.2129 11.745 68.392 12.78 68.5561 13.815L72.7933 14.28L73.3751 17.28L69.0186 16.65C69.1976 17.745 69.3767 18.825 69.5408 19.92C69.7049 21.015 69.9138 22.095 70.0928 23.175L71.2416 23.415C71.0775 22.38 70.8985 21.36 70.7194 20.325C72.2114 20.88 73.8227 21.435 75.4042 22.035C75.7772 23.85 76.1502 25.665 76.5083 27.48C73.778 26.79 71.0775 26.16 68.4367 25.665C67.5863 25.065 66.7657 24.45 65.9302 23.85L65.7363 23.58C65.3633 20.685 64.9754 17.775 64.6024 14.88C64.2294 11.985 63.8266 9.08998 63.4536 6.17998C64.0802 5.69998 64.7068 5.20498 65.3185 4.67998H71.8832C72.2562 6.49498 72.6292 8.30998 72.9872 10.125L72.6441 10.17ZM85.5645 18.45C85.2214 18.705 84.8484 18.945 84.4903 19.2C85.3855 21.3 86.2807 23.43 87.2057 25.575L90.0553 32.16C88.2948 31.455 86.5343 30.75 84.8185 30.09C84.177 28.5 83.4608 26.82 82.8342 25.2C82.2076 23.58 81.5213 22.005 80.8947 20.415C81.2527 21.915 81.6257 23.415 81.9987 24.915C82.3717 26.415 82.7447 27.915 83.1028 29.415C81.4318 28.83 79.7757 28.32 78.1494 27.84L75.6877 16.23C74.8671 12.36 74.0316 8.47498 73.1812 4.60498H79.5519L79.9249 4.72498L82.4015 6.58498C82.9685 8.53498 83.5205 10.485 84.0725 12.435C84.6246 14.385 85.1915 16.335 85.7286 18.27L85.5645 18.45ZM78.8656 8.06998H77.851C78.1494 9.32998 78.4627 10.605 78.7761 11.865C79.0894 13.125 79.3878 14.37 79.7011 15.645L80.8051 15.84C80.4769 14.49 80.1636 13.215 79.8354 12C79.5071 10.785 79.1938 9.35998 78.8656 8.06998Z" fill="white"/>
<path d="M11.5184 16.71C12.533 13.065 13.5475 9.43504 14.5024 5.79004V5.56504H20.0077L20.0972 5.65504L20.5448 6.12004C20.709 6.27004 20.8581 6.43504 21.0073 6.58504L21.1267 6.70504V6.87004C20.9775 7.60504 20.8134 8.37004 20.6642 9.06004C20.515 9.75004 20.3509 10.56 20.2166 11.25V11.535C19.9033 13.035 19.59 14.535 19.2916 16.035L19.1722 16.215L18.0831 17.085L16.979 17.97H16.8448L15.3528 18.24L13.8608 18.525L13.3088 18.63L13.1745 19.185C12.9358 20.145 12.712 21.045 12.5031 21.915C12.2943 22.785 12.0257 23.835 11.8318 24.645C11.6378 25.455 11.3991 26.385 11.235 27.06C11.0708 27.735 10.8172 28.695 10.6382 29.46V29.64L7.5498 30.66L11.5184 16.71ZM18.3666 10.11C18.5158 9.46504 18.6799 8.80504 18.7992 8.28004L19.0827 7.14004H17.9041H17.3968H16.8895H16.233L16.0689 7.78504C15.8899 8.52004 15.7407 9.15004 15.5915 9.73504C15.4423 10.32 15.2782 11.04 15.1141 11.7L14.6366 13.65L14.1443 15.6L13.8161 16.92L15.1439 16.695L15.681 16.605L16.233 16.515L16.8149 16.425L16.9492 15.855C17.1879 14.91 17.3819 14.115 17.5758 13.305L17.8891 12C18.0682 11.4 18.2174 10.755 18.3666 10.11V10.11ZM23.3497 25.575L23.2304 26.235H23.0364L21.9324 26.505L20.8432 26.775L20.3658 26.88L22.2904 17.43L22.9618 13.98C23.4243 11.67 23.8868 9.34504 24.3344 7.02004L24.4687 6.82504L25.5578 6.00004L26.1099 5.59504H26.3038H29.9741H30.168L30.6902 6.01504L31.2124 6.43504L31.3467 6.55504V6.72004C31.1527 8.22004 30.9588 9.72004 30.7797 11.295C30.6007 12.87 30.3918 14.295 30.2128 15.795L29.6458 20.295C29.5563 21.045 29.3922 22.365 29.0938 24.795V25.02H28.87L27.7958 25.23L26.7663 25.5L26.3187 25.59L26.5276 24.315L26.647 23.49L26.826 22.38C26.9454 21.615 27.0647 20.88 27.1841 20.145L27.378 18.945L26.1845 19.125L25.0655 19.29L24.4389 19.38L24.3344 20.025L24.051 21.72C23.9614 22.275 23.8719 22.845 23.7675 23.415C23.663 23.985 23.4542 24.885 23.3497 25.575V25.575ZM26.2591 18L26.8111 17.925H27.4676L27.572 17.28C27.7212 16.32 27.8555 15.435 27.9897 14.535C28.124 13.635 28.2583 13.065 28.2583 12.48L28.4075 11.535C28.6014 10.275 28.7954 9.03004 29.0043 7.78504L29.1684 6.73504H28.1091H27.6168H27.1244H26.3933L26.3187 7.50004C26.1695 8.40004 26.0353 9.18004 25.901 9.97504C25.7667 10.77 25.6474 11.58 25.528 12.255C25.2147 14.22 24.8865 16.2 24.5582 18.165L25.722 18H26.2591ZM33.7935 24.315L32.764 24.465H32.3612V24.06C32.5552 22.365 32.7342 20.76 32.9132 19.17L33.2862 15.945L33.8233 11.19C34.0024 9.69004 34.1665 8.26504 34.3306 6.81004V6.66004L35.4347 5.91004L35.9419 5.58004H36.0314H39.8509H40.0448L40.6267 6.00004L41.2235 6.40504L41.3727 6.51004V6.69004C41.3727 8.32504 41.2384 9.93004 41.1638 11.52C41.1638 12.735 41.0594 13.935 41.0146 15.135V15.225C40.8953 17.88 40.7908 20.535 40.6715 23.19V23.475H40.4029L39.3734 23.58L38.344 23.685H37.971V23.31L38.2395 19.68L38.5081 16.065C38.5976 14.745 38.7021 13.485 38.7916 12.225C38.9259 10.605 39.0452 8.97004 39.1646 7.36504V6.39004H38.1948H36.5387V7.18504C36.3 10.02 36.0762 12.765 35.8524 15.495V15.93C35.748 17.205 35.6585 18.345 35.5689 19.485C35.4496 20.985 35.3302 22.365 35.2109 23.715V23.97H34.9572L33.7935 24.315ZM51.2346 5.74504L51.5479 6.40504H48.9519V7.32004C48.9519 10.08 49.0563 12.87 49.1011 15.645C49.1011 16.83 49.1011 18.015 49.1757 19.215C49.2503 20.415 49.1757 21.6 49.1757 22.8V23.115H46.505V21.255C46.505 19.38 46.505 17.49 46.505 15.63V13.245C46.505 11.235 46.505 9.24004 46.505 7.24504V6.42004H44.2522L44.6699 5.56504H51.1898L51.2346 5.74504ZM62.0663 23.745L61.0816 23.685H60.813V23.4C60.6787 21.99 60.6041 21.045 60.5146 20.1L60.261 18C60.261 17.325 60.1416 16.62 60.067 15.87V15.105H59.2912H58.9779H58.2617H57.2472L57.3367 16.125C57.3367 16.8 57.4412 17.52 57.5008 18.255L57.6799 20.385L57.9037 23.22V23.595H57.5456H56.5311L55.5165 23.52H55.2331V22.95L55.054 19.17C54.9794 17.565 54.8899 15.96 54.8153 14.34V14.25C54.681 11.475 54.5318 8.71504 54.3975 5.89504V5.56504H56.5012L56.6057 7.50004L56.7101 9.00004C56.7101 9.51004 56.7996 10.095 56.8444 10.695C56.8444 11.52 56.9936 12.36 57.0533 13.26V14.04H57.844H58.8734H59.8581L59.7686 13.035C59.7686 12.36 59.6493 11.64 59.5896 10.905C59.5299 10.17 59.4702 9.51004 59.4105 8.76004C59.3509 8.01004 59.3061 7.68004 59.2763 7.26004C59.2464 6.84004 59.1868 6.28504 59.142 5.76004V5.41504H61.2307L63.4985 24H63.0957L62.0663 23.745ZM70.8987 9.48004L69.8394 9.63004L69.347 6.63004H68.6309H67.87H66.5571L67.2285 10.8L67.8402 14.565L72.0923 15.045L72.331 16.215H71.8834L70.5406 16.02L69.1829 15.825L68.0043 15.66L68.7204 20.16C68.8099 20.64 68.8995 21.21 68.989 21.765C69.0785 22.32 69.168 22.815 69.2575 23.43L69.362 24.03L70.0334 24L70.6003 24.105L71.1673 24.225L72.4354 24.495L72.2265 23.22L72.137 22.695L72.0475 22.155L71.958 21.615L72.4653 21.81L73.5245 22.185L74.5839 22.59H74.748L75.479 26.175L75.0016 26.07C74.0318 25.83 73.0322 25.59 72.0177 25.365C71.0031 25.14 69.9886 24.93 69.0337 24.75H68.8995L67.2583 23.565L66.7361 23.19V23.055C66.572 21.75 66.4079 20.46 66.2288 19.17L65.647 14.67L65.1994 11.22C64.9905 9.72004 64.7965 8.22004 64.5877 6.72004V6.55504L64.722 6.45004L65.08 6.00004L65.5575 5.62504H65.7663H71.1822L71.958 9.45004L70.8987 9.48004ZM86.6986 29.85L85.6542 29.445H85.52V29.325L84.5949 27.12C84.3115 26.43 84.0131 25.695 83.6848 24.915L82.6703 22.5C82.2376 21.45 81.9094 20.595 81.7005 20.1L81.3872 19.335L79.8953 19.845L80.0892 20.64C80.2533 21.285 80.4324 22.05 80.6562 22.92C80.88 23.79 81.0291 24.42 81.2082 25.185C81.3126 25.59 81.4021 25.995 81.5066 26.4L81.9392 28.155L81.4021 27.99L80.2682 27.63L79.1493 27.285H78.9553V27.09L77.4932 20.76L76.5085 16.125C76.1504 14.43 75.7923 12.72 75.4194 11.025C75.0464 9.33004 74.7629 7.78504 74.3601 6.00004L74.2705 5.62504H79.4775H79.567L80.5666 6.37504L81.5513 7.12504L81.6707 7.29004L82.5957 10.5L83.2223 12.705C83.461 13.545 83.6998 14.385 83.9534 15.225C84.207 16.065 84.401 16.815 84.6546 17.745V17.955L84.2816 18.21L83.9832 18.405L83.3864 18.825L83.6699 19.485L85.0276 22.68C85.505 23.82 85.9676 24.9 86.3853 25.875L87.2357 27.825L88.0712 29.79L87.6684 30.21L86.6986 29.85ZM80.0295 9.13504C79.746 7.98004 80.0295 9.13504 79.7162 7.84504L79.5521 7.21504H78.8956H78.4033H77.896H76.7024L77.9259 12C78.0601 12.585 78.2392 13.305 78.4182 14.025C78.5972 14.745 78.6718 15.06 78.8509 15.78L78.9852 16.335L79.5521 16.44H79.9997L80.6711 16.56L81.9989 16.77L81.6558 15.465C81.5066 14.82 81.3425 14.19 81.1783 13.545L80.686 11.625C80.4771 10.575 80.2235 9.85504 80.0295 9.13504Z" fill="white"/>
<path d="M18.9784 16.38L18.128 17.055L17.024 17.94H16.8897L15.3977 18.21L13.9057 18.495L13.3537 18.6L13.2194 19.155C12.9807 20.115 12.7569 21.015 12.5481 21.885C12.3392 22.755 12.0706 23.805 11.8767 24.615C11.6827 25.425 11.444 26.355 11.2799 27.03C11.1158 27.705 10.8621 28.665 10.6831 29.43V29.61L7.59473 30.63L11.2053 17.7C13.7118 17.25 16.3227 16.785 18.9784 16.38ZM47.9375 14.28H49.146V15.66C49.146 16.845 49.146 18.03 49.2206 19.23C49.2952 20.43 49.2206 21.615 49.2206 22.815V23.13H46.55V21.27C46.55 19.395 46.55 17.505 46.55 15.645C46.55 15.18 46.55 14.7 46.55 14.145L47.9375 14.28ZM54.7707 14.385C57.3518 14.475 59.8881 14.61 62.3797 14.775L63.4987 24H63.0959L62.0664 23.865L61.0817 23.685H60.8132V23.4C60.6789 21.99 60.6043 21.045 60.5148 20.1L60.2611 18C60.2611 17.325 60.1418 16.62 60.0672 15.87V15.105H59.2914H58.978H58.2619H57.2474L57.3369 16.125C57.3369 16.8 57.4413 17.52 57.501 18.255L57.68 20.385L57.9038 23.22V23.595H57.5458H56.5312L55.5167 23.52H55.2332V22.95L55.0542 19.17C54.9348 17.58 54.8453 15.99 54.7707 14.385ZM65.5576 15C67.8403 15.195 70.0335 15.435 72.2416 15.705L72.3461 16.185H71.8985L70.5557 15.99L69.198 15.795L68.0194 15.63L68.7355 20.13C68.825 20.61 68.9145 21.18 69.0041 21.735C69.0936 22.29 69.1831 22.785 69.2726 23.4L69.377 24H70.0335L70.6005 24.105L71.1674 24.225L72.4356 24.495L72.2267 23.22L72.1372 22.695L72.0477 22.155L71.9581 21.615L72.4654 21.81L73.5247 22.185L74.584 22.59H74.7481L75.4792 26.175L75.0018 26.07C74.032 25.83 73.0324 25.59 72.0178 25.365C71.0033 25.14 69.9888 24.93 69.0339 24.75H68.8996L67.2585 23.565L66.7363 23.19V23.055C66.5722 21.75 66.408 20.46 66.229 19.17C66.05 17.88 65.7366 16.5 65.5576 15ZM76.5982 16.305C79.3881 16.725 82.0886 17.205 84.6697 17.73V17.94L84.2967 18.195L83.9983 18.39L83.4015 18.81L83.685 19.47L85.0427 22.665C85.5201 23.805 85.9826 24.885 86.4004 25.86L87.2508 27.81L88.0863 29.775L87.6835 30.195L86.654 29.775L85.6096 29.37H85.4754V29.25L84.5503 27.045C84.2669 26.355 83.9685 25.62 83.6402 24.84L82.6705 22.5C82.2378 21.45 81.9096 20.595 81.7007 20.1L81.3874 19.335L79.8954 19.845L80.0894 20.64C80.2535 21.285 80.4325 22.05 80.6563 22.92C80.8801 23.79 81.0293 24.42 81.2083 25.185C81.3128 25.59 81.4023 25.995 81.5067 26.4L81.9394 28.155L81.4023 27.99L80.2684 27.63L79.1494 27.285H78.9555V27.09L77.4933 20.76L76.5982 16.305ZM22.5442 15.855L25.006 15.54L24.5733 18.165L25.7221 18H26.2592L26.8112 17.925H27.4677L27.5722 17.28C27.6766 16.605 27.7661 15.975 27.8705 15.345L30.3024 15L30.198 15.87L29.6311 20.37C29.5415 21.12 29.3774 22.44 29.079 24.87V25.095H28.8552L27.781 25.305L26.7665 25.5L26.3189 25.59L26.5278 24.315L26.6471 23.49L26.8262 22.38C26.9455 21.615 27.0649 20.88 27.1842 20.145L27.3782 18.945L26.1846 19.125L25.0656 19.29L24.439 19.38L24.3346 20.025L24.0511 21.72C23.9616 22.275 23.8721 22.845 23.7676 23.415C23.6632 23.985 23.5289 24.915 23.4245 25.56L23.3051 26.22H23.1112L22.0071 26.49L20.918 26.76L20.4406 26.865L22.2906 17.43C22.2906 16.905 22.4398 16.395 22.5293 15.885L22.5442 15.855ZM33.4803 14.76L35.8824 14.595L35.8078 15.615V16.05C35.7034 17.325 35.6138 18.465 35.5243 19.605C35.405 21.105 35.2856 22.485 35.1663 23.835V24.09H34.9126L33.8682 24.24L32.8388 24.39H32.436V23.985C32.6299 22.29 32.809 20.685 32.988 19.095L33.361 15.87L33.4803 14.76ZM38.7022 14.46L41.1043 14.355V15.15V15.24C40.9849 17.895 40.8805 20.55 40.7611 23.205V23.49H40.4926L39.4631 23.595L38.4337 23.7H38.0607V23.325L38.3292 19.695L38.5978 16.08C38.6127 15.585 38.7022 15 38.7022 14.49V14.46Z" fill="#CCCCCC"/>
<path d="M17.3672 72.2401C16.1612 70.8435 15.1567 69.2832 14.3833 67.6051C13.2923 64.9234 12.8871 62.0097 13.2046 59.1301L13.8014 54.0001C13.7043 53.2884 13.7043 52.5667 13.8014 51.8551C13.8708 51.338 14.0114 50.8332 14.2192 50.3551L14.8607 49.0801C15.3978 48.1351 16.0543 47.2351 16.6063 46.4551C18.0538 44.4984 19.3888 42.46 20.6048 40.3501C20.9927 39.6451 21.4254 38.9401 21.873 38.2201L22.5443 34.7401C22.8164 33.3068 23.2313 31.9048 23.7827 30.5551C24.6329 28.2867 25.8146 26.1583 27.2888 24.2401L29.4074 21.9451L31.6901 24.0751C32.9135 25.2151 34.1668 26.7451 35.2708 28.0051C35.3902 28.1401 35.5095 28.2601 35.614 28.3951C36.6389 28.2745 37.6728 28.2494 38.7023 28.3201C40.9391 27.4686 43.308 27.0217 45.6997 27.0001C46.8131 27.0324 47.9239 27.1275 49.0267 27.2851C50.2949 26.6401 51.6228 26.0251 52.876 25.4251C55.5476 24.1064 58.3826 23.153 61.3056 22.5901L64.394 22.0951L64.8714 25.2001C65.1402 27.7056 65.0042 30.2383 64.4686 32.7001L68.0046 33.3151L63.9464 34.8151C63.7823 35.3401 63.6182 35.8801 63.4093 36.4201L64.1105 36.8401C65.6025 37.3951 67.0945 38.0401 68.0941 38.4601C77.762 42.7801 80.7609 50.2051 86.1767 58.7251L81.0742 60.2251C80.731 60.3151 80.358 60.4501 80.0746 60.5401C78.5826 61.0651 77.0906 61.7251 75.5987 62.3701C74.1067 63.0151 73.0176 63.7351 71.7494 64.5001C74.0918 65.0251 76.464 65.7151 78.5378 66.3901L88.728 69.6751L78.2842 72.3751C73.9011 73.5339 69.6158 75.0385 65.4682 76.8751C63.2123 77.8199 61.0619 79.0014 59.0528 80.4001L57.8443 81.3151L56.8894 83.5801L55.9047 85.9351C55.4651 86.9108 54.9144 87.832 54.2635 88.6801L54.0397 90.4051C53.7718 92.3477 52.9885 94.1819 51.772 95.7151L53.622 96.2401L48.8775 99.9001C47.3006 100.896 45.4874 101.45 43.6258 101.505L45.0283 103.755L37.9116 102.255C34.8667 101.653 32.1659 99.9039 30.3622 97.3651C29.1433 95.5771 28.3753 93.5179 28.1243 91.3651V90.3301C27.7679 89.1247 27.6613 87.8586 27.811 86.6101C27.0769 86.1872 26.3914 85.6841 25.767 85.1101C25.1075 84.4839 24.5399 83.7667 24.0811 82.9801C23.5169 82.8409 22.9782 82.6131 22.4847 82.3051C18.5011 79.7701 18.6055 76.5001 17.3821 72.2101L17.3672 72.2401Z" fill="#0D0F47"/>
<path d="M31.9582 70.3649C33.1518 71.4299 28.4819 73.2449 27.7509 74.7749C27.5813 75.403 27.5402 76.0592 27.6299 76.7037C27.7197 77.3483 27.9384 77.9678 28.273 78.5249C31.4612 79.7886 34.9065 80.2569 38.314 79.8899C43.2673 79.0949 43.1927 76.1549 43.1927 76.1549C42.2578 76.494 41.2862 76.7206 40.2983 76.8299C39.5317 76.9437 38.7598 77.0188 37.9857 77.0549C39.7857 76.6163 41.5283 75.9669 43.1778 75.1199C43.635 74.7091 44.0033 74.2081 44.26 73.6482C44.5166 73.0883 44.6561 72.4813 44.6698 71.8649C44.1037 72.6913 43.2793 73.3037 42.3274 73.6049C41.3763 74.0229 40.3721 74.3056 39.3434 74.4449C40.6974 73.8367 41.9705 73.0607 43.133 72.1349C44.2538 71.3801 45.0316 70.2098 45.2964 68.8799C44.3589 69.5286 43.3593 70.0813 42.3124 70.5299C40.8205 71.1749 40.4475 71.2949 40.4475 71.2949C41.7227 70.557 42.9177 69.6873 44.0133 68.6999C45.5053 67.3199 45.2815 66.4499 45.2815 66.4499C44.9833 65.8728 44.5607 65.3698 44.0444 64.978C43.5282 64.5861 42.9313 64.3151 42.2975 64.1849C41.0091 63.7566 39.6347 63.6586 38.2991 63.8999C40.0965 63.1884 42.0897 63.1565 43.9089 63.8099C46.8928 64.9349 46.7137 69.9149 46.7137 69.9149C46.7137 69.9149 49.6977 70.0499 51.309 65.5199C52.3275 62.6353 52.5846 59.5343 52.055 56.5199L53.2336 60.7649C56.9522 57.6378 61.4711 55.6261 66.2734 54.9599C70.8876 54.1429 75.6019 54.072 80.2382 54.7499C77.7947 52.5901 75.0994 50.7365 72.2114 49.2299C69.5445 47.7181 66.6283 46.7019 63.6028 46.2299C65.8988 45.9465 68.2247 46.0274 70.4957 46.4699C72.2475 46.7509 73.9636 47.2237 75.6131 47.8799C73.2587 45.0445 70.2669 42.8131 66.8851 41.3699C60.9173 38.7299 59.2612 38.9399 59.2612 38.9399L55.576 37.8299L58.0974 36.8849C57.4323 36.5954 56.7434 36.3645 56.0385 36.1949C54.8126 35.8702 53.5457 35.7287 52.2788 35.7749L55.8893 34.4999L53.4574 34.0799C54.1304 32.8175 54.9628 31.6478 55.9341 30.5999C57.0319 29.4724 58.4224 28.6773 59.9475 28.3049C60.1476 30.2999 60.1476 32.31 59.9475 34.3049C59.8484 35.487 59.6182 36.6543 59.2612 37.7849C60.318 36.2128 61.016 34.4251 61.3052 32.5499C61.8268 30.3456 61.9731 28.0684 61.7378 25.8149C59.11 26.3377 56.5618 27.2051 54.1587 28.3949C49.9364 30.4349 49.444 30.7049 49.444 30.7049C48.1483 30.4317 46.8291 30.286 45.5053 30.2699C43.2885 30.3416 41.0996 30.7879 39.0301 31.5899C36.869 31.3437 34.6806 31.6161 32.6445 32.3849C29.4666 33.6599 26.0649 36.8849 23.2451 42.0149C20.4253 47.1449 16.4865 50.5049 16.7998 52.3949C17.1728 54.5549 26.6468 59.1899 26.7363 60.5849C26.8984 58.6955 26.3203 56.8171 25.125 55.3499C23.7189 54.0038 22.0391 52.9803 20.2015 52.3499C22.1346 52.5198 23.998 53.158 25.6323 54.2099C26.9879 55.1991 28.1004 56.487 28.8847 57.9749C29.8035 55.5388 31.3479 53.3909 33.3606 51.7499C35.0355 50.1722 37.0936 49.0652 39.3285 48.5399C36.803 50.2062 34.5271 52.2266 32.5699 54.5399C30.6453 57.2999 31.4211 59.7749 32.6893 60.0599C33.301 60.2099 34.047 59.4299 34.972 58.3499C36.0752 56.9621 37.3259 55.6996 38.7019 54.5849C41.4919 52.4849 50.5481 47.3399 50.5481 47.3399L46.1617 51.3299C46.5049 54.6599 45.1173 55.0649 44.3415 57.4049C44.3415 57.4049 46.0424 56.8649 47.4299 56.3099C48.0812 56.0891 48.7146 55.8183 49.3247 55.4999C47.3239 57.6129 44.8091 59.1641 42.029 59.9999C39.6 60.7995 37.1028 61.3719 34.5691 61.7099C33.6622 62.3412 32.8993 63.1594 32.3312 64.1099L28.9892 68.8799C28.9892 68.8799 31.6747 61.9499 31.2421 61.4999C30.4391 61.1507 29.5644 61.0011 28.6918 61.0638C27.8192 61.1264 26.9744 61.3995 26.229 61.8599C24.9012 63.0449 21.0072 69.5999 21.4548 70.4099C22.9169 73.0349 30.7646 69.2849 31.9582 70.3649ZM26.4081 40.4999C27.1983 40.4172 27.9949 40.5794 28.6908 40.9649C29.4857 41.3071 30.1794 41.8495 30.7049 42.5399C33.0595 40.9227 35.689 39.7534 38.4632 39.0899C40.5587 38.6975 42.7001 38.6167 44.8189 38.8499C44.8189 38.8499 38.0603 39.5549 34.2558 41.8499C30.4513 44.1449 29.8993 44.5349 29.8993 44.5349C29.8993 44.5349 28.7654 41.8199 27.3182 41.2049L25.8262 40.5899L26.4081 40.4999ZM33.4651 30.7649L32.9429 30.1349C30.2126 27.0299 29.5561 26.4149 29.5561 26.4149C28.2936 28.0516 27.2874 29.8726 26.5722 31.8149C26.108 32.9881 25.7582 34.2038 25.5278 35.4449C27.0214 33.7266 28.8765 32.3637 30.9586 31.4549C31.7638 31.1121 32.6045 30.8606 33.4651 30.7049V30.7649ZM20.6491 71.9999C21.725 72.2939 22.6679 72.9505 23.3197 73.8599C24.5431 75.4499 26.5573 77.2349 26.9601 77.9999C27.2226 78.547 27.3553 79.1477 27.348 79.7549C26.8408 79.9913 26.2884 80.1138 25.7292 80.1138C25.1701 80.1138 24.6177 79.9913 24.1105 79.7549C22.7528 78.8849 22.6185 78.3599 22.6185 78.3599C22.9991 78.4203 23.3867 78.4203 23.7673 78.3599C24.1753 78.3551 24.5812 78.2996 24.9758 78.1949C24.2701 78.1979 23.5691 78.0812 22.902 77.8499C22.3009 77.6295 21.7215 77.3533 21.1713 77.0249C21.1713 77.0249 22.5439 77.2649 23.5286 77.3249H24.5282C23.5596 77.1201 22.6072 76.8444 21.6786 76.4999C20.6043 75.9899 20.4253 75.5699 20.4253 75.5699L22.6334 75.6749C22.6334 75.6749 20.6491 75.4499 20.291 74.8799C19.9329 74.3099 20.6491 71.9999 20.6491 71.9999Z" fill="#363996"/>
<path d="M61.7974 25.7251C59.1696 26.2479 56.6214 27.1153 54.2182 28.3051C49.996 30.3451 49.5036 30.6151 49.5036 30.6151C48.2078 30.3418 46.8887 30.1961 45.5648 30.1801C43.3481 30.2518 41.1591 30.698 39.0897 31.5001C36.9286 31.2538 34.7402 31.5263 32.7041 32.2951C29.5262 33.5701 26.1245 36.7951 23.3047 41.9251C20.4849 47.0551 16.5461 50.4151 16.8594 52.3051C17.1279 53.8051 22.0962 56.6851 24.9011 58.6651H25.0503C25.0503 58.6651 18.3514 53.4901 18.3215 51.6301C18.2917 49.7701 21.4248 47.7451 23.6926 43.3651C25.9604 38.9851 30.0335 34.6951 32.9279 33.4651C34.7554 32.7106 36.7632 32.5124 38.7018 32.8951C38.7018 32.8951 43.8341 30.8851 46.1616 31.1701C48.4891 31.4551 49.6976 31.6951 49.6976 31.6951L61.7974 25.7251ZM27.2882 61.2451C26.9027 61.3594 26.543 61.5479 26.2289 61.8001C24.9011 62.9851 21.0071 69.5401 21.4546 70.3501C22.32 71.9551 25.468 71.2651 28.1237 70.6801C28.1237 70.6801 23.7821 70.9201 23.2002 70.4251C22.6184 69.9301 22.8123 69.2701 23.0958 68.4001C23.3793 67.5301 27.2733 61.2601 27.2882 61.2451ZM33.465 30.7051L32.9428 30.0751C30.2125 26.9701 29.556 26.3551 29.556 26.3551C28.2935 27.9917 27.2873 29.8128 26.5721 31.7551C26.1079 32.9283 25.7581 34.144 25.5277 35.3851C27.0213 33.6667 28.8764 32.3038 30.9585 31.3951C31.7661 31.0728 32.6067 30.8414 33.465 30.7051Z" fill="#00FFFF"/>
<path d="M25.8857 40.5001C25.8857 40.5001 26.1095 40.1551 27.9297 40.1251C28.9623 40.0864 29.9881 40.3081 30.9137 40.7701C33.3587 39.2033 36.1318 38.2277 39.015 37.9201C44.6994 36.9901 46.3406 38.7901 46.3406 38.7901C45.5975 38.7068 44.8503 38.6667 44.1027 38.6701C42.2219 38.5542 40.3342 38.6599 38.4779 38.9851C35.7038 39.6485 33.0742 40.8179 30.7197 42.4351C30.1942 41.7447 29.5005 41.2022 28.7056 40.8601C27.994 40.5076 27.1924 40.382 26.4079 40.5001H25.8857Z" fill="#15197D"/>
<path d="M25.065 58.7851C26.0795 59.5201 26.7807 60.1201 26.7957 60.4951C26.9175 58.6278 26.3191 56.7852 25.1247 55.3501C23.7185 54.004 22.0388 52.9804 20.2012 52.3501C21.9737 52.198 23.7518 52.568 25.3186 53.4151C26.6298 53.8993 27.8101 54.6852 28.7651 55.7101C30.3803 53.3377 32.4939 51.351 34.9567 49.8901C36.5256 48.9766 38.2924 48.4617 40.104 48.3901C38.2286 49.8232 36.6221 51.5807 35.3595 53.5801C34.6441 54.8016 34.1728 56.1519 33.972 57.5551C36.574 54.6822 39.641 52.2731 43.0432 50.4301C45.9407 48.8773 48.9303 47.5047 51.995 46.3201L47.1312 53.2051L46.1315 53.8051C46.2898 52.9886 46.2999 52.1501 46.1614 51.3301L50.4732 47.3401C50.4732 47.3401 41.4766 52.5001 38.7016 54.5851C37.3621 55.7055 36.1466 56.9678 35.0761 58.3501C34.1511 59.4301 33.4051 60.2101 32.7934 60.0601C31.5252 59.7751 30.7494 57.3001 32.674 54.5401C34.6312 52.2267 36.9071 50.2063 39.4326 48.5401C37.1977 49.0653 35.1396 50.1724 33.4648 51.7501C31.452 53.3911 29.9076 55.539 28.9889 57.9751C28.2045 56.4871 27.092 55.1992 25.7364 54.2101C24.1022 53.1581 22.2387 52.5199 20.3056 52.3501C21.4808 53.0009 22.5772 53.7861 23.573 54.6901C24.5014 55.8548 25.0254 57.293 25.065 58.7851V58.7851ZM29.7498 67.6051L28.8695 68.8801C28.8695 68.8801 31.6744 61.9501 31.2417 61.5001C30.4388 61.1508 29.564 61.0012 28.6914 61.0639C27.8188 61.1265 26.9741 61.3997 26.2287 61.8601C27.482 61.0801 30.1675 62.2651 30.1675 62.2651L28.7949 69.6451L29.7498 67.6051Z" fill="#15197D"/>
<path d="M31.9578 70.3651C33.1513 71.4301 28.4815 73.2451 27.7504 74.7751C27.5809 75.4032 27.5397 76.0593 27.6295 76.7039C27.7192 77.3484 27.938 77.968 28.2726 78.5251C31.4608 79.7888 34.906 80.2571 38.3135 79.8901C39.6891 79.7657 40.9998 79.2449 42.0882 78.3901C39.5481 79.1516 36.9055 79.5109 34.2554 79.4551C29.2275 79.3651 28.6158 77.1151 28.8395 76.1851C29.0633 75.2551 31.9578 73.8301 32.6291 72.5401C33.3005 71.2501 32.8977 70.4101 31.9578 70.3651ZM42.9386 77.1601C43.0955 76.8479 43.182 76.5048 43.1923 76.1551C42.2573 76.4942 41.2858 76.7207 40.2979 76.8301C39.5312 76.9439 38.7594 77.019 37.9853 77.0551C38.8582 77.2429 39.7483 77.3385 40.641 77.3401C41.4101 77.3334 42.1778 77.2732 42.9386 77.1601V77.1601ZM44.3262 73.5001C44.4849 73.0146 44.5802 72.5103 44.6096 72.0001C44.0436 72.8264 43.2191 73.4389 42.2672 73.7401C41.3961 74.1108 40.4848 74.3776 39.5519 74.5351L38.9402 74.7451C39.9429 74.901 40.9685 74.8031 41.9241 74.4601C42.7438 74.1906 43.5461 73.8699 44.3262 73.5001V73.5001ZM44.55 70.5001C44.861 70.0497 45.0745 69.5387 45.1766 69.0001C44.2391 69.6487 43.2395 70.2015 42.1926 70.6501L41.9838 70.7401C40.82 71.3401 39.7309 71.8351 39.6712 71.8501C40.4571 71.8214 41.2331 71.6643 41.9689 71.3851L44.55 70.5001ZM39.716 63.5251C41.1028 63.2557 42.5363 63.3697 43.8636 63.8551C46.8476 64.9801 46.6685 69.9601 46.6685 69.9601C46.6685 69.9601 49.6525 70.0951 51.2638 65.5651C52.2823 62.6804 52.5394 59.5795 52.0098 56.5651V56.3401C52.0769 58.3032 51.9469 60.2682 51.6219 62.2051C51.113 64.4238 50.153 66.5126 48.8021 68.3401C48.8021 68.3401 48.4887 63.9601 45.2064 63.2851C43.3825 62.969 41.5132 63.0354 39.716 63.4801V63.5251ZM72.9122 54.4351C75.347 54.3332 77.7858 54.4739 80.193 54.8551C77.7495 52.6953 75.0542 50.8417 72.1663 49.3351C69.4993 47.8233 66.5831 46.807 63.5576 46.3351C65.8536 46.0516 68.1795 46.1326 70.4505 46.5751C72.2024 46.856 73.9184 47.3289 75.5679 47.9851C73.2135 45.1497 70.2217 42.9183 66.8399 41.4751C60.8721 38.8351 59.216 39.0451 59.216 39.0451L55.5308 37.9351L58.097 36.8851C57.4319 36.5955 56.743 36.3647 56.0381 36.1951C54.8121 35.8704 53.5453 35.7289 52.2783 35.7751L55.8889 34.5001L53.457 34.0801C54.1299 32.8177 54.9624 31.648 55.9337 30.6001C57.0315 29.4726 58.422 28.6774 59.947 28.3051C60.1472 30.3 60.1472 32.3102 59.947 34.3051C59.848 35.4872 59.6178 36.6544 59.2607 37.7851C60.3176 36.2129 61.0156 34.4253 61.3047 32.5501C61.8253 30.3609 61.9716 28.0986 61.7374 25.8601C60.5886 26.3851 58.4849 27.3601 55.7695 28.8601C53.3315 30.2034 51.1736 32.0062 49.4138 34.1701L51.2041 35.3401L48.0412 37.4401L53.8449 37.8451L49.2347 39.4201C51.7472 39.4866 54.2465 39.8082 56.6946 40.3801C60.3946 41.114 63.9988 42.2715 67.4367 43.8301C65.8179 43.7968 64.2007 43.9528 62.6177 44.2951C60.5607 44.5495 58.5508 45.1001 56.6498 45.9301C60.1956 47.1864 63.6336 48.7316 66.9294 50.5501C68.9924 51.7186 70.9897 53.0005 72.9122 54.3901V54.4351ZM50.3686 47.4301L50.5327 47.3401L46.1613 51.3301C46.3002 52.7596 46.0528 54.2002 45.4451 55.5001C44.4157 57.2851 44.4008 57.3601 44.4008 57.3601C44.4008 57.3601 46.1016 56.8201 47.4891 56.2651C48.1188 56.056 48.7322 55.8003 49.3243 55.5001C47.3235 57.6131 44.8086 59.1643 42.0285 60.0001C39.5995 60.7996 37.1023 61.3721 34.5687 61.7101C33.6618 62.3414 32.8989 63.1595 32.3308 64.1101C31.1819 65.7301 29.7049 67.8451 29.1827 68.6101L28.7351 69.7501L34.7925 62.8951C34.7925 62.8951 36.8812 63.0601 43.0729 60.6451C49.2646 58.2301 49.936 54.6451 49.936 54.6451L46.6984 55.6501C47.0065 54.959 47.2512 54.241 47.4294 53.5051C47.5899 52.8532 47.6403 52.1788 47.5786 51.5101L50.5626 47.7151L51.9501 46.3201L50.3686 47.4301ZM23.9011 79.6051C24.7665 79.7101 25.9302 79.7251 26.3629 79.1851C27.0939 78.2851 22.3943 73.4701 21.693 72.9751C21.3328 72.7473 20.9405 72.5754 20.5293 72.4651C20.5611 72.3081 20.6009 72.1529 20.6487 72.0001C21.7246 72.294 22.6674 72.9507 23.3193 73.8601C24.5427 75.4501 26.5568 77.2351 26.9597 78.0001C27.2221 78.5471 27.3549 79.1478 27.3476 79.7551C26.8403 79.9915 26.2879 80.114 25.7288 80.114C25.1697 80.114 24.6173 79.9915 24.11 79.7551L23.9011 79.6051ZM33.4646 30.7051L32.9425 30.0751C31.5698 28.5751 30.7194 27.5851 30.2122 27.0751L30.0779 27.3151C29.3051 29.0317 28.8018 30.8584 28.5859 32.7301C29.3358 32.2066 30.1415 31.7689 30.988 31.4251C31.7848 31.0947 32.6154 30.8532 33.4646 30.7051V30.7051Z" fill="#15197D"/>
<path d="M18.9332 58.95C18.9332 58.95 20.5595 60.795 21.022 61.23L21.4994 61.665L19.0526 61.275C19.6435 61.8455 20.3833 62.2357 21.1861 62.4C21.9107 62.6591 22.6704 62.8058 23.4389 62.835L24.0954 63.375C23.0347 64.462 22.2114 65.7597 21.6784 67.185C21.2274 68.4794 20.8831 69.8089 20.649 71.16C19.2134 69.7787 18.0537 68.1342 17.2324 66.315C16.4044 64.1371 16.0928 61.7951 16.3223 59.475L16.7699 62.175C16.7981 61.2712 16.9589 60.3765 17.2473 59.52L17.7396 58.02L18.9332 58.95Z" fill="#363996"/>
<path d="M20.7983 70.125C20.6491 70.77 20.5895 71.16 20.5895 71.16C19.1539 69.7787 17.9942 68.1342 17.1729 66.315C16.3651 64.1323 16.0739 61.7905 16.3224 59.475L16.77 62.175C16.7982 61.2712 16.9591 60.3765 17.2475 59.52L17.7398 58.02L18.2769 58.41C17.889 60.0243 17.778 61.6932 17.9487 63.345L17.3221 63C17.542 64.0171 17.8261 65.0191 18.1725 66C18.7609 67.5396 19.6543 68.9429 20.7983 70.125Z" fill="#00FFFF"/>
<path d="M31.1075 89.6549C30.8685 88.8328 30.7825 87.9734 30.8538 87.1199C30.9285 86.6318 31.1468 86.1773 31.4805 85.8149C31.5852 86.5125 31.7653 87.1966 32.0176 87.8549C32.3309 88.5449 32.4651 88.5449 32.4651 88.5449C32.4651 88.5449 32.6293 88.4249 32.0325 89.0399C31.4357 89.6549 31.1075 89.6549 31.1075 89.6549ZM26.3779 80.6549C26.6433 81.5535 27.1614 82.3557 27.8699 82.9649C28.6001 83.6322 29.4581 84.1426 30.3913 84.4649C29.6786 83.5425 29.0822 82.5348 28.6159 81.4649L28.2578 80.1899L26.3779 80.6549ZM37.2096 80.8499C37.6832 81.8596 38.5284 82.6448 39.5669 83.0399C40.3857 83.5247 41.3368 83.7348 42.2823 83.6399C41.718 83.1664 41.2166 82.622 40.7903 82.0199C40.4405 81.4514 40.1742 80.835 39.9996 80.1899C39.6452 80.2601 39.2962 80.3554 38.9552 80.4749C38.3824 80.6393 37.7992 80.7646 37.2096 80.8499V80.8499ZM41.3274 89.1449C41.0442 88.3352 40.8589 87.4942 40.7754 86.6399C40.7574 85.9311 40.8124 85.2224 40.9395 84.5249C41.1325 85.3422 41.5046 86.1058 42.0287 86.7599C42.73 87.4961 43.6252 88.0164 44.6098 88.2599C44.1095 88.7165 43.5339 89.082 42.9089 89.3399C42.3787 89.4034 41.8411 89.3365 41.3424 89.1449H41.3274Z" fill="white"/>
<path d="M31.2422 91.3801C31.2764 91.8631 31.382 92.3383 31.5555 92.7901C33.3928 91.7183 35.4196 91.0153 37.5234 90.7201C38.9983 90.6645 40.4612 91.0063 41.7605 91.7101C39.2711 91.1103 36.6558 91.3312 34.3007 92.3401C33.1071 92.9401 32.3313 93.3751 31.7942 93.7051C32.1126 94.411 32.4816 95.0928 32.8983 95.7451C34.2815 97.5305 36.2469 98.7681 38.4484 99.2401L36.9564 96.9601C38.9233 97.8642 41.0468 98.3737 43.2078 98.4601C44.5295 98.492 45.8348 98.1601 46.9824 97.5001L43.1779 96.3151C43.1779 96.3151 44.3715 96.6001 47.4449 95.2501C50.5184 93.9001 51.0555 89.8951 51.0555 89.8951L47.8925 91.2901C47.8925 91.2901 52.1297 87.0001 53.1293 84.6151L54.114 82.2751L51.1301 84.1201C51.1301 84.1201 50.4736 82.7701 57.277 77.7751C64.0804 72.7801 77.5528 69.2851 77.5528 69.2851C74.1266 68.1701 70.613 67.3472 67.0494 66.8251L62.8271 66.4051C66.4806 63.8077 70.3607 61.5485 74.4197 59.6551C80.4771 57.0001 81.3126 57.1801 81.3126 57.1801C81.3126 57.1801 78.3286 55.0051 68.4071 56.1901C58.4855 57.3751 53.4874 61.8301 53.4874 61.8301C52.7343 64.3434 51.7347 66.7753 50.5035 69.0901C49.7223 70.7974 48.4488 72.2294 46.8482 73.2001C46.8482 73.2001 50.0111 83.0851 46.9824 88.0351C43.9537 92.9851 41.7307 88.5301 37.3891 88.7701C36.2424 88.766 35.1067 88.9951 34.0504 89.4436C32.994 89.8922 32.0388 90.5508 31.2422 91.3801V91.3801Z" fill="#363996"/>
<path d="M53.4127 61.845C52.6619 64.3544 51.6622 66.7815 50.4288 69.09C49.6476 70.7974 48.3741 72.2293 46.7734 73.2C46.7734 73.2 49.3695 81.33 47.594 86.535C48.599 85.1266 49.1698 83.4521 49.2352 81.72C49.6598 79.2331 49.6091 76.6877 49.086 74.22C50.8599 72.0093 52.1648 69.4569 52.9203 66.72C53.4244 65.148 53.5922 63.4867 53.4127 61.845V61.845Z" fill="#15197D"/>
<path d="M31.2422 91.38C31.2764 91.863 31.382 92.3382 31.5555 92.79L31.7495 92.685C31.5528 92.2613 31.3833 91.8254 31.2422 91.38V91.38ZM71.5253 61.08C72.4801 60.585 73.4648 60.105 74.5092 59.655C80.4771 57 81.3126 57.18 81.3126 57.18C81.3126 57.18 79.4029 55.815 73.7185 55.83C71.7575 56.8939 69.8775 58.1022 68.0937 59.445L66.7808 60.405C65.8216 61.1462 64.9143 61.9532 64.0654 62.82C63.6818 63.1533 63.3227 63.5142 62.9912 63.9C61.079 65.8745 59.4336 68.0935 58.0976 70.5L62.7376 66.36C65.5486 64.4083 68.4842 62.6445 71.5253 61.08V61.08ZM41.4174 91.5L41.7755 91.695C39.286 91.0952 36.6707 91.3161 34.3156 92.325C33.1221 92.925 32.3462 93.36 31.8091 93.69C32.1275 94.3959 32.4965 95.0777 32.9132 95.73C34.2965 97.5153 36.2618 98.753 38.4633 99.225L36.9713 96.945C38.9382 97.8491 41.0617 98.3586 43.2227 98.445C44.538 98.4787 45.8377 98.1521 46.9824 97.5L43.1779 96.315C43.1779 96.315 44.3715 96.6 47.4449 95.25C50.5184 93.9 51.0555 89.895 51.0555 89.895L47.8925 91.29C47.8925 91.29 52.1297 87 53.1293 84.615L54.114 82.275L51.9805 83.61C50.993 85.492 49.8076 87.2621 48.4446 88.89C47.1204 90.4649 45.6183 91.8794 43.9687 93.105L48.5938 92.205C47.8165 93.4174 46.7429 94.409 45.4755 95.085C43.8804 95.5355 42.2139 95.673 40.567 95.49L42.8795 96.99C41.4215 96.9765 39.968 96.8258 38.5379 96.54C37.6134 96.3533 36.7294 96.0029 35.927 95.505L36.5834 97.29C35.4743 96.797 34.4632 96.1058 33.5995 95.25C33.4205 95.07 33.2414 94.875 33.0773 94.68C34.4653 93.1522 36.3171 92.129 38.3439 91.77C39.9592 91.533 41.6075 91.6925 43.1481 92.235C42.6294 91.8696 42.0395 91.6191 41.4174 91.5V91.5ZM51.2345 83.565C51.5478 82.8 52.7265 81.09 57.3068 77.76C64.1102 72.78 77.5827 69.27 77.5827 69.27C77.5827 69.27 73.6886 68.01 69.9736 67.26C68.034 68.0051 66.1906 68.9821 64.4832 70.17C61.4993 72.375 56.0685 76.8 54.7257 77.91C53.0795 79.4528 51.874 81.4105 51.2345 83.58V83.565Z" fill="#15197D"/>
<path d="M37.1201 58.875L43.3267 53.46C43.3267 53.46 42.9239 56.7 41.4319 57.96C40.1438 58.7589 38.6194 59.0823 37.1201 58.875V58.875Z" fill="#FF0000"/>
<path d="M24.5135 59.79L19.6348 56.79C19.6348 56.79 20.0078 59.37 21.5594 60.03C22.0394 60.2093 22.5526 60.2807 23.0629 60.2393C23.5733 60.1978 24.0684 60.0445 24.5135 59.79Z" fill="#FF0000"/>
<path d="M26.7658 81.5399H27.8997C28.277 82.4061 28.831 83.1828 29.526 83.8199C29.739 84.0103 29.9687 84.181 30.2123 84.3299C29.553 83.458 29.0065 82.5054 28.586 81.4949L28.2578 80.1899L26.3779 80.5949C26.4574 80.9284 26.5883 81.2472 26.7658 81.5399V81.5399ZM37.8661 81.8399C38.2962 81.8484 38.7261 81.8132 39.1492 81.7349C39.7175 82.3358 40.3773 82.8422 41.1036 83.2349C41.4752 83.4246 41.8652 83.5754 42.2674 83.6849C41.7098 83.21 41.2091 82.6714 40.7754 82.0799C40.4256 81.5114 40.1593 80.895 39.9847 80.2499C39.6303 80.3201 39.2813 80.4154 38.9403 80.5349C38.371 80.6785 37.7928 80.7837 37.2096 80.8499C37.3649 81.222 37.5933 81.5587 37.881 81.8399H37.8661Z" fill="#B3B3B3"/>
</g>
<defs>
<clipPath id="clip0_128_264">
<rect width="97.5" height="120" fill="white"/>
</clipPath>
</defs>
</svg>
