<svg width="142" height="120" viewBox="0 0 142 120" fill="none" xmlns="http://www.w3.org/2000/svg">
<path d="M70.7006 119.85C63.3506 118.05 56.0006 115.5 49.1006 112.05C43.4006 109.2 37.8506 105.9 32.6006 102.15C24.2006 96 18.6506 90.3 16.2506 87.6C14.0006 87.9 11.7506 88.2 9.50059 88.5L8.75059 88.65L8.15059 88.2C5.90059 86.25 3.80059 84.45 1.70059 82.65L1.10059 82.05L7.10059 39H19.5506C19.7006 38.7 19.7006 38.4 19.8506 38.25C20.4506 36.45 21.2006 34.5 22.1006 32.55C23.1506 30.3 24.3506 27.9 25.8506 25.65C26.7506 24.15 27.8006 22.5 28.8506 21L29.0006 20.7C29.7506 19.5 30.6506 18.15 31.8506 16.65C32.1506 16.2 32.4506 15.9 32.7506 15.6C32.9006 15.3 33.2006 15.15 33.3506 14.85C33.8006 14.25 34.1006 13.8 34.5506 13.2C35.1506 12.3 35.7506 11.55 36.5006 10.65C37.7006 9 39.2006 7.2 40.5506 5.55C41.4506 4.5 42.5006 3.6 43.2506 2.7C44.6006 1.5 45.9506 0.6 47.4506 0.3C48.3506 0.15 49.1006 0 49.8506 0C50.6006 0 51.3506 0 52.1006 0C52.4006 0 52.7006 0 52.8506 0C53.1506 0 53.4506 0 53.7506 0C54.8006 0 55.8506 0 57.0506 0C58.5506 0 60.0506 0.45 61.2506 1.35L61.4006 1.5C61.8506 1.8 62.3006 2.1 62.7506 2.55C62.9006 2.7 63.0506 2.85 63.5006 2.85H63.8006C65.6006 2.85 67.4006 3 69.2006 3C69.3506 3 69.5006 3 69.5006 3C70.1006 3 70.5506 3 71.0006 3H71.1506C71.7506 3 72.3506 3 72.9506 3C73.2506 3 73.4006 3 73.7006 3C74.0006 3 74.3006 3 74.6006 3C75.5006 3 76.4006 2.85 77.3006 2.85C77.6006 2.85 77.9006 2.85 78.3506 2.7C78.6506 2.7 78.9506 2.7 79.2506 2.55C79.2506 2.55 79.2506 2.55 79.4006 2.4C80.0006 1.95 80.6006 1.5 81.2006 1.05C82.2506 0.45 83.6006 0 85.1006 0C86.4506 0 87.9506 0 89.3006 0C90.2006 0 91.2506 0 92.1506 0C94.8506 0 97.2506 1.05 99.2006 3C101.151 4.95 102.951 7.05 104.601 9.15C105.051 9.9 105.651 10.5 106.101 11.25C106.551 11.85 107.151 12.6 107.601 13.35C107.901 13.8 108.201 14.1 108.501 14.55C108.801 15 109.101 15.45 109.551 15.9C110.301 16.8 110.901 17.85 111.651 18.75C112.251 19.65 113.001 20.7 113.751 21.9C113.901 22.2 114.201 22.5 114.351 22.8C114.951 23.7 115.701 24.75 116.301 25.8C116.451 26.1 116.751 26.55 116.901 26.85C117.651 28.05 118.251 29.1 118.851 30.45C119.151 31.2 119.451 31.8 119.901 32.55C120.051 33 120.351 33.45 120.501 33.9C121.251 35.55 121.851 37.05 122.301 38.7C122.301 38.85 122.451 39 122.451 39.15H134.601L140.451 82.35L140.001 82.8C137.901 84.6 135.951 86.4 133.701 88.35L133.101 88.8L132.501 88.65C130.251 88.35 128.001 88.05 125.751 87.75C123.351 90.45 117.951 96.15 109.401 102.3C104.151 106.05 98.6006 109.35 92.9006 112.2C86.0006 115.5 78.6506 118.2 71.3006 120H71.0006L70.7006 119.85Z" fill="#FE0000"/>
<path fill-rule="evenodd" clip-rule="evenodd" d="M125.75 85.2C125.75 85.2 106.4 109.8 71 118.35C35.6 109.8 16.25 85.2 16.25 85.2L18.95 46.5H123.2L125.75 85.2Z" fill="black"/>
<path d="M119.449 46.5H113.749L116.149 81.9C114.049 84.15 110.599 87.6 105.799 91.35C100.849 95.1 95.5994 98.55 90.1994 101.4C84.0494 104.55 77.7494 106.95 71.1494 108.75C64.5494 106.95 58.2494 104.55 52.0994 101.4C46.6994 98.55 41.2994 95.25 36.4994 91.35C31.6994 87.6 28.0994 84.15 26.1494 81.9L28.3994 46.5H22.6994L20.1494 84C21.9494 85.95 26.2994 90.6 32.8994 95.85C38.1494 99.9 43.6994 103.35 49.3994 106.35C56.2994 109.95 63.6494 112.65 70.9994 114.45C78.4994 112.65 85.6994 109.8 92.5994 106.35C98.4494 103.35 103.999 99.9 109.099 95.85C115.699 90.75 120.049 86.1 121.849 84L119.449 46.5Z" fill="#B8B8B8"/>
<path d="M118.85 46.5H114.35L116.75 82.2L116.6 82.35C114.5 84.6 110.9 88.05 106.1 91.8C101.15 95.7 95.9 99 90.35 101.85C84.2 105 77.75 107.55 71.15 109.2H71H70.85C64.25 107.4 57.8 105 51.65 101.85C46.1 99 40.85 95.7 35.9 91.8C31.1 88.05 27.5 84.6 25.4 82.35L25.25 82.2L27.8 46.5H23.3L20.75 83.7C22.4 85.65 26.75 90.3 33.2 95.25C38.3 99.3 43.85 102.75 49.7 105.75C56.6 109.2 63.8 112.05 71.15 113.85C78.5 112.05 85.7 109.35 92.6 105.75C98.3 102.75 103.85 99.3 109.1 95.25C115.55 90.15 119.9 85.65 121.55 83.7L118.85 46.5Z" fill="url(#paint0_linear_107_152)"/>
<path fill-rule="evenodd" clip-rule="evenodd" d="M71.0004 96.9001C51.3504 94.6501 35.4504 84.7501 35.1504 84.6001C36.6504 86.1001 38.6004 87.6001 40.8504 89.4001C45.2004 92.8501 50.0004 95.8501 54.9504 98.4001C60.2004 101.1 65.6004 103.2 71.1504 104.7V100.35C71.1504 100.35 95.9004 94.6501 107 84.6001C106.85 84.6001 90.6504 94.6501 71.0004 96.9001Z" fill="#FE0000"/>
<path fill-rule="evenodd" clip-rule="evenodd" d="M70.5512 103.95C65.3012 102.45 60.0512 100.35 55.1012 97.8002C50.1512 95.2502 45.5012 92.2502 41.1512 88.9502C40.5512 88.5002 39.8012 87.9002 39.2012 87.4502C45.5012 90.6002 57.3512 95.8502 70.8512 97.3502C81.0512 96.1502 90.3512 92.8502 96.2012 90.3002C97.5512 89.7002 98.7512 89.1002 99.9512 88.6502C94.8512 91.6502 89.0012 94.0502 84.3512 95.7002C76.8512 98.4002 70.7012 99.7502 70.7012 99.7502L70.2512 99.9002V103.95H70.5512Z" fill="url(#paint1_radial_107_152)"/>
<path fill-rule="evenodd" clip-rule="evenodd" d="M122.601 47.7C122.601 49.65 122.451 51.45 121.851 53.25C121.101 55.65 119.751 57.45 117.651 58.65C116.601 59.25 115.551 59.55 114.351 59.7C113.001 60 111.501 60.15 110.151 60.15C107.451 60 104.901 59.4 102.501 58.05C101.601 57.6 100.701 57 99.9512 56.4C99.2012 55.95 98.6012 55.5 98.0012 54.9C97.1012 54 96.3512 53.1 95.4512 52.2C94.2512 50.85 93.2012 49.35 92.3012 47.7C91.5512 46.65 90.9512 45.45 90.2012 44.4C89.3012 43.05 88.4012 41.7 87.3512 40.5C86.7512 39.75 86.0012 39.3 85.1012 39C84.0512 38.7 83.0012 38.55 81.8012 38.4C80.0012 38.4 78.3512 38.4 76.5512 38.25C74.7512 38.25 73.1012 38.1 71.3012 38.1C70.7012 38.1 70.1012 38.1 69.6512 38.1C67.1012 38.1 64.4012 38.1 61.8512 38.25C60.5012 38.25 59.1512 38.4 57.8012 38.7C56.4512 39 55.4012 39.6 54.5012 40.65C53.3012 42.15 52.1012 43.8 51.2012 45.45C50.3012 46.95 49.4012 48.3 48.5012 49.8C47.6012 51.15 46.5512 52.5 45.3512 53.7C44.9012 54.15 44.4512 54.6 44.0012 55.05C43.1012 55.95 42.0512 56.55 41.1512 57.15C40.4012 57.6 39.8012 58.05 39.0512 58.35C37.2512 59.25 35.4512 59.7 33.5012 60C31.5512 60.3 29.6012 60.15 27.8012 59.7C26.4512 59.4 25.1012 58.95 23.9012 58.2C22.4012 57.3 21.2012 55.8 20.6012 54.15C19.8512 52.35 19.5512 50.55 19.5512 48.6C19.4012 46.2 19.7012 43.95 20.4512 41.7C20.7512 40.65 21.0512 39.6 21.3512 38.7C21.9512 36.75 22.7012 34.95 23.6012 33.15C24.8012 30.9 25.8512 28.5 27.2012 26.4C28.2512 24.75 29.3012 23.25 30.3512 21.6C31.2512 20.25 32.1512 18.9 33.0512 17.7C33.5012 17.1 34.1012 16.5 34.5512 15.9C35.6012 14.55 36.6512 13.05 37.7012 11.7C39.0512 10.05 40.4012 8.25 41.7512 6.6C42.5012 5.7 43.4012 4.8 44.3012 3.9C45.3512 3 46.5512 2.25 47.9012 1.8C48.6512 1.65 49.4012 1.5 50.0012 1.5C51.0512 1.5 51.9512 1.5 53.0012 1.5C54.3512 1.5 55.7012 1.5 57.0512 1.5C58.2512 1.5 59.4512 1.8 60.5012 2.55C60.9512 2.85 61.4012 3.15 61.8512 3.6C62.3012 4.05 62.9012 4.2 63.5012 4.2C65.3012 4.35 67.2512 4.5 69.2012 4.5C69.9512 4.5 70.5512 4.65 71.3012 4.5C72.2012 4.5 72.9512 4.5 73.8512 4.35C75.0512 4.35 76.2512 4.2 77.4512 4.2C78.0512 4.2 78.6512 4.05 79.4012 4.05C79.7012 4.05 80.0012 3.9 80.3012 3.6C80.9012 3.15 81.5012 2.7 82.1012 2.25C82.8512 1.8 83.9012 1.5 85.1012 1.5C87.5012 1.5 89.9012 1.5 92.1512 1.65C94.5512 1.65 96.5012 2.55 98.1512 4.2C100.101 6.15 101.901 8.1 103.401 10.2C104.451 11.55 105.501 12.9 106.401 14.25C107.001 15.15 107.751 15.9 108.351 16.65C109.101 17.55 109.701 18.45 110.451 19.5C111.201 20.55 111.801 21.6 112.551 22.5C113.451 23.85 114.351 25.05 115.101 26.4C116.001 27.9 116.901 29.4 117.651 30.9C118.101 32.1 118.851 33.15 119.301 34.35C120.051 35.85 120.501 37.35 120.951 38.85C121.251 40.05 121.551 41.1 121.851 42.3C122.451 44.1 122.751 45.9 122.601 47.7ZM111.351 57.3C111.051 57.3 110.601 57.3 110.301 57.15C109.551 57 108.951 56.85 108.201 56.7C107.151 56.4 106.251 55.95 105.351 55.5C104.301 54.9 103.251 54.15 102.351 53.4C102.051 53.25 101.751 52.95 101.601 52.8C101.001 52.2 100.401 51.6 99.8012 51C99.2012 50.25 98.4512 49.5 97.8512 48.6C97.5512 48.15 97.2512 47.7 97.1012 47.4C96.3512 46.35 95.7512 45.45 95.0012 44.4C94.5512 43.8 94.2512 43.2 93.9512 42.6C92.7512 41.1 91.8512 39.3 90.5012 37.95C89.9012 37.35 89.3012 36.6 88.5512 36C87.9512 35.55 87.2012 35.25 86.4512 34.95C85.4012 34.65 84.2012 34.5 83.1512 34.5C80.9012 34.5 78.8012 34.5 76.5512 34.5C73.1012 34.5 69.5012 34.5 66.0512 34.5C63.8012 34.5 61.7012 34.5 59.4512 34.5C58.5512 34.5 57.5012 34.65 56.6012 34.8C55.8512 34.95 54.9512 35.25 54.3512 35.7C53.1512 36.6 52.1012 37.65 51.2012 38.85C50.1512 40.05 49.4012 41.4 48.5012 42.75C48.2012 43.2 47.9012 43.8 47.6012 44.25C47.0012 45.15 46.4012 46.05 45.8012 46.95C45.3512 47.55 45.0512 48.15 44.6012 48.75C43.8512 49.65 43.1012 50.55 42.3512 51.45C41.7512 52.05 41.1512 52.65 40.4012 53.25C39.8012 53.85 39.0512 54.3 38.4512 54.75C37.7012 55.35 36.9512 55.8 36.0512 56.25C34.5512 57 32.7512 57.3 31.1012 57.45C30.9512 57.45 30.9512 57.45 30.8012 57.45C30.0512 57.45 29.3012 57.45 28.5512 57.45C28.2512 57.45 27.9512 57.45 27.6512 57.3C27.6512 57.3 27.6512 57.3 27.6512 57.45C27.9512 57.45 28.2512 57.6 28.5512 57.6C28.8512 57.6 29.3012 57.75 29.6012 57.75C30.9512 57.9 32.3012 57.9 33.6512 57.9C34.7012 57.75 35.7512 57.6 36.8012 57.3C38.3012 56.7 39.8012 55.95 41.1512 55.05C42.3512 54.3 43.4012 53.4 44.3012 52.35C44.7512 51.75 45.2012 51.3 45.6512 50.7C46.4012 49.65 47.3012 48.75 47.9012 47.7C48.5012 46.65 49.1012 45.6 49.7012 44.7C50.3012 43.8 50.9012 42.9 51.5012 41.85C52.2512 40.5 53.3012 39.15 54.5012 38.25C55.4012 37.5 56.3012 37.05 57.5012 36.9C58.8512 36.6 60.3512 36.6 61.7012 36.6C64.7012 36.6 67.5512 36.45 70.5512 36.45C72.5012 36.45 74.4512 36.45 76.4012 36.45C77.7512 36.45 78.9512 36.45 80.3012 36.6C81.8012 36.6 83.3012 36.75 84.9512 36.9C86.1512 37.05 87.3512 37.5 88.2512 38.25C89.3012 39.15 90.3512 40.05 91.1012 41.25C91.7012 42.15 92.1512 42.9 92.7512 43.8C93.3512 44.7 93.9512 45.75 94.5512 46.65C95.0012 47.4 95.6012 48.3 96.2012 49.05C96.9512 50.1 97.7012 51 98.6012 52.05C99.0512 52.5 99.5012 53.1 99.9512 53.55C101.001 54.6 102.201 55.5 103.551 56.25C104.751 57 105.951 57.45 107.151 57.9C108.051 58.2 108.951 58.35 109.851 58.35C111.501 58.5 113.151 58.35 114.801 58.05C115.101 58.05 115.401 57.9 115.701 57.9C115.551 57.9 115.551 57.9 115.401 57.9C114.801 57.9 114.201 57.9 113.751 58.05C112.401 57.3 111.951 57.3 111.351 57.3ZM41.7512 11.1C41.7512 10.95 41.7512 10.95 41.7512 10.8C41.6012 10.8 41.6012 10.8 41.4512 10.8C41.3012 10.95 41.0012 10.95 40.8512 11.1C40.5512 11.25 40.4012 11.4 40.2512 11.7C40.2512 11.85 40.2512 11.85 40.2512 12C40.4012 12.3 40.7012 12.6 40.8512 12.75C41.1512 12.9 41.3012 13.05 41.6012 13.35C41.6012 13.35 41.6012 13.35 41.7512 13.35H41.9012C42.0512 13.5 42.0512 13.5 42.2012 13.65C42.6512 13.95 43.1012 14.1 43.5512 14.4C44.3012 14.7 44.9012 15 45.6512 15.15C46.4012 15.3 47.1512 15.45 47.9012 15.6C48.2012 15.6 48.3512 15.75 48.6512 15.75C50.6012 16.05 52.4012 15.9 54.3512 15.6C54.8012 15.45 55.2512 15.45 55.7012 15.3C56.4512 15.15 57.3512 15 58.1012 14.55C58.5512 14.25 59.1512 13.95 59.6012 13.65C60.3512 13.35 60.8012 12.6 61.2512 12C61.5512 11.55 61.2512 10.65 60.6512 10.65C60.5012 10.95 60.5012 11.25 60.3512 11.4C59.7512 11.85 59.1512 12.15 58.7012 12.6C58.5512 12.75 58.2512 12.9 58.1012 13.05H57.9512C57.9512 13.05 57.9512 13.05 57.8012 13.05C57.3512 13.2 57.0512 13.35 56.6012 13.5C56.0012 13.65 55.5512 13.8 54.9512 13.95C54.5012 14.1 54.0512 14.1 53.6012 14.25C52.4012 14.4 51.2012 14.55 50.0012 14.4C49.5512 14.4 49.2512 14.4 48.8012 14.4C48.6512 14.4 48.5012 14.4 48.5012 14.25C47.7512 14.1 47.1512 14.1 46.4012 13.95C46.1012 13.95 45.8012 13.8 45.5012 13.8C44.3012 13.5 43.2512 13.05 42.2012 12.45C42.0512 12.3 41.7512 12 41.6012 11.85C41.7512 11.7 41.7512 11.4 41.7512 11.1ZM101.901 15.3C101.601 15.3 101.451 15.45 101.151 15.45C100.851 15.45 100.701 15.6 100.851 15.9C100.851 16.35 100.851 16.8 101.001 17.25C100.551 17.55 100.101 17.55 99.5012 17.55C98.4512 17.55 97.4012 17.4 96.3512 16.95H96.2012C96.2012 16.95 96.2012 16.95 96.0512 16.95C95.7512 16.8 95.6012 16.5 95.6012 16.2C95.6012 15.75 95.6012 15.15 95.4512 14.7C95.4512 13.65 95.9012 13.2 96.8012 12.9C96.9512 12.9 97.1012 12.75 97.2512 12.75C98.0012 12.75 98.9012 12.6 99.6512 12.6C100.401 12.6 101.151 12.75 101.901 12.75C101.901 12.75 101.901 12.6 101.751 12.6C100.851 11.4 99.9512 10.2 98.9012 9C98.3012 8.25 97.7012 7.65 97.1012 7.05C96.8012 6.75 96.6512 6.6 96.3512 6.3C95.7512 5.55 95.0012 5.1 94.2512 4.65C94.1012 4.5 93.8012 4.5 93.5012 4.35C92.6012 4.2 91.5512 4.05 90.6512 4.05C88.8512 4.05 87.0512 4.05 85.1012 4.05C84.6512 4.05 84.0512 4.2 83.6012 4.2C83.1512 4.35 82.8512 4.5 82.5512 4.8C82.2512 5.1 81.8012 5.25 81.5012 5.55C80.7512 6.15 80.1512 6.6 79.1012 6.75C78.6512 6.75 78.0512 6.9 77.6012 6.9C76.1012 6.9 74.6012 7.05 73.1012 7.05C69.6512 7.05 66.2012 7.05 62.7512 6.9C61.4012 6.75 60.3512 6.45 59.4512 5.4C59.3012 5.25 59.0012 5.1 58.7012 4.8C58.7012 4.8 58.7012 4.8 58.5512 4.8C58.5512 4.8 58.5512 4.8 58.4012 4.8C58.2512 4.8 58.2512 4.65 58.1012 4.65C57.5012 4.2 56.7512 4.05 56.0012 4.05C53.6012 4.05 51.2012 3.9 48.8012 4.2C48.2012 4.2 47.6012 4.35 47.0012 4.5C46.2512 4.8 45.5012 5.25 44.9012 6C44.7512 6.3 44.4512 6.45 44.1512 6.75C44.0012 6.9 44.0012 6.9 43.8512 7.05C44.4512 6.9 45.0512 6.9 45.5012 6.75C46.8512 6.6 48.0512 6.45 49.4012 6.3C51.0512 6.15 52.7012 6.15 54.3512 6.6C55.8512 6.9 57.2012 7.5 58.5512 8.25C59.0012 8.55 59.3012 8.7 59.4512 9.15L59.6012 9.3C60.3512 9.6 60.8012 10.05 61.2512 10.65C61.7012 11.1 61.8512 11.55 62.0012 12C62.3012 13.35 62.3012 14.7 62.1512 16.05C61.8512 16.5 61.5512 16.8 61.2512 17.1C60.5012 17.55 59.7512 18 59.0012 18.45C58.5512 18.75 58.1012 18.9 57.6512 19.05C57.5012 18.45 57.5012 17.7 57.3512 16.95C56.7512 17.1 56.1512 17.25 55.4012 17.4C55.4012 18.15 55.5512 18.75 55.5512 19.35V19.5C55.5512 19.5 55.5512 19.5 55.5512 19.65C54.9512 19.8 54.2012 19.95 53.6012 19.95C53.6012 19.2 53.4512 18.6 53.4512 18C53.0012 18.15 52.5512 18.15 52.1012 18.3C51.9512 18.3 51.9512 18.3 51.8012 18.3C51.5012 18.3 51.3512 18.3 51.0512 18.3C50.1512 18.3 49.1012 18.3 48.2012 18.3C47.7512 18.3 47.4512 18.15 47.0012 18.15C47.0012 18.9 47.0012 19.65 47.1512 20.4C46.8512 20.4 46.4012 20.25 46.1012 20.25C44.7512 19.95 43.4012 19.5 42.0512 19.05C40.8512 18.6 39.8012 18 38.9012 17.4C38.1512 16.95 37.8512 16.35 37.8512 15.45C37.8512 15.45 37.8512 15.45 37.8512 15.3C37.5512 15.6 37.2512 16.05 36.9512 16.35C36.0512 17.4 35.3012 18.6 34.4012 19.65C33.0512 21.6 31.7012 23.4 30.3512 25.35C29.3012 27 28.2512 28.8 27.2012 30.45C26.0012 32.25 25.1012 34.2 24.2012 36.3C23.3012 38.4 22.5512 40.5 21.9512 42.6C21.6512 43.65 21.5012 44.7 21.3512 45.75C21.0512 47.25 20.9012 48.9 21.0512 50.4C21.0512 51.15 21.2012 51.9 21.6512 52.5C22.2512 53.55 23.1512 54 24.2012 54.45C25.1012 54.9 26.1512 54.9 27.2012 54.9C29.3012 54.9 31.2512 54 32.6012 52.5C32.7512 52.35 32.9012 52.05 32.9012 51.75C32.9012 51 32.9012 50.4 33.0512 49.65C33.2012 48.75 33.5012 47.85 33.9512 46.95C34.4012 46.05 35.0012 45 35.7512 44.25C36.6512 43.2 37.7012 42.3 38.6012 41.25C39.8012 40.05 41.0012 38.85 42.2012 37.65C43.2512 36.6 44.3012 35.4 45.5012 34.35C46.8512 33 48.3512 31.8 49.8512 30.75C51.0512 30 52.2512 29.25 53.7512 28.95C54.8012 28.8 55.7012 28.5 56.7512 28.5C58.4012 28.35 60.0512 28.35 61.5512 28.35C64.4012 28.35 67.1012 28.35 69.9512 28.35C71.0012 28.35 71.9012 28.35 72.9512 28.35C75.9512 28.35 78.9512 28.35 81.8012 28.5C83.3012 28.5 84.8012 28.65 86.3012 28.8C87.3512 28.95 88.5512 29.25 89.4512 29.85C89.7512 30 90.0512 30.15 90.5012 30.45C92.6012 31.8 94.4012 33.3 96.2012 35.1C96.8012 35.7 97.4012 36.3 98.0012 36.9C98.6012 37.5 99.2012 37.95 99.6512 38.55C100.551 39.45 101.301 40.35 102.201 41.25C102.951 42 103.701 42.75 104.451 43.5C105.651 44.7 106.701 46.2 107.301 47.85C107.601 48.45 107.751 49.2 107.901 49.95C108.051 50.55 108.051 51.15 108.051 51.9C108.051 52.2 108.051 52.35 108.201 52.5C108.801 53.1 109.401 53.7 110.151 54.15C111.351 54.75 112.551 55.05 113.901 55.05C115.551 55.05 116.901 54.6 118.251 53.7C118.851 53.25 119.301 52.5 119.601 51.75C119.751 51.15 119.751 50.7 119.751 50.1C119.751 48.75 119.601 47.4 119.451 46.05C119.301 45.15 119.151 44.1 119.001 43.2C118.551 41.7 118.101 40.05 117.501 38.55C116.601 36.15 115.401 33.75 114.201 31.5C112.701 28.8 111.051 26.25 109.401 23.85C107.601 21.3 105.801 18.75 103.851 16.2C103.701 15.9 103.401 15.75 103.101 15.6C103.101 15.75 103.101 15.75 103.101 15.9C103.251 17.25 102.801 17.25 101.901 17.55C101.901 17.55 101.901 17.55 101.751 17.55C101.751 17.1 101.751 16.65 101.601 16.35C102.351 15.15 102.201 15.15 101.901 15.3ZM96.8012 14.25C97.2512 14.4 97.7012 14.55 98.1512 14.7C99.2012 14.85 100.401 14.7 101.451 14.55C101.751 14.55 102.051 14.4 102.351 14.25C102.801 13.95 102.801 13.8 102.351 13.65C101.901 13.35 101.301 13.35 100.851 13.35C99.8012 13.35 98.6012 13.35 97.5512 13.5C97.4012 13.5 97.1012 13.5 96.9512 13.65C96.5012 13.65 96.5012 13.95 96.8012 14.25ZM58.7012 9.15C58.7012 8.85 58.4012 8.7 58.1012 8.7C56.7512 8.55 55.2512 8.4 53.9012 8.25C53.7512 8.25 53.4512 8.1 53.3012 8.1C53.3012 7.95 53.1512 7.65 53.1512 7.5C53.1512 7.35 53.1512 7.05 53.0012 6.9C52.4012 6.9 51.8012 6.9 51.2012 6.9C50.9012 6.9 50.7512 7.05 50.6012 7.35C50.4512 7.5 50.1512 7.8 50.0012 8.1C49.8512 8.25 49.7012 8.4 49.5512 8.4C48.9512 8.55 48.2012 8.55 47.6012 8.55C46.5512 8.7 45.3512 8.7 44.3012 8.85C44.0012 9 43.8512 9 43.8512 9C43.7012 9.15 43.5512 9.45 43.5512 9.75C43.8512 9.75 44.0012 9.75 44.1512 9.75C44.3012 9.75 44.3012 9.75 44.4512 9.75C45.8012 9.75 47.0012 9.75 48.3512 9.9C48.6512 9.9 48.8012 9.9 49.1012 10.05C49.1012 10.5 48.8012 10.95 48.8012 11.4C50.1512 11.4 51.3512 11.4 52.7012 11.25C52.7012 10.8 53.0012 10.5 53.1512 10.05C53.3012 9.75 53.4512 9.75 53.7512 9.75C54.3512 9.75 54.9512 9.75 55.5512 9.75C56.6012 9.75 57.8012 9.75 58.8512 9.6C58.8512 9.45 58.7012 9.3 58.7012 9.15Z" fill="#020202"/>
<path fill-rule="evenodd" clip-rule="evenodd" d="M99.801 12.1502C99.051 12.1502 98.151 12.3002 97.401 12.3002C97.251 12.3002 97.101 12.3002 96.951 12.4502C96.051 12.7502 95.601 13.3502 95.601 14.2502C95.601 14.7002 95.601 15.3002 95.751 15.7502C95.751 16.0502 95.901 16.3502 96.201 16.5002C96.201 16.5002 96.201 16.5002 96.351 16.5002C96.501 16.8002 96.801 16.9502 96.951 17.1002C97.701 17.5502 98.451 17.7002 99.201 17.8502C100.101 18.0002 101.151 18.0002 102.051 17.7002C102.501 17.5502 102.951 17.4002 103.551 17.1002C104.001 17.5502 104.451 18.0002 104.901 18.6002C106.251 20.2502 107.451 21.9002 108.801 23.5502C109.851 24.9002 110.751 26.4002 111.651 27.9002C112.401 29.2502 113.301 30.6002 114.051 31.9502C114.501 32.8502 115.101 33.9002 115.401 34.9502C116.001 36.7502 116.151 38.7002 116.001 40.6502C115.851 41.5502 115.701 42.4502 115.401 43.3502C114.951 44.2502 113.901 45.1502 112.401 44.7002C111.801 44.5502 111.201 44.1002 110.751 43.5002C110.001 42.6002 109.251 41.7002 108.501 40.9502C107.601 39.9002 106.701 38.8502 105.651 37.8002C104.751 36.7502 103.701 35.8502 102.801 34.9502C102.201 34.3502 101.451 33.6002 100.701 33.0002L100.551 32.8502C100.101 32.5502 99.801 32.1002 99.351 31.8002C98.301 30.9002 97.251 29.8502 96.051 28.9502C95.001 28.2002 93.801 27.4502 92.751 26.8502C90.951 25.8002 88.851 25.3502 86.751 25.2002C85.401 25.0502 83.901 24.9002 82.551 24.9002C80.301 24.9002 78.051 24.7502 75.801 24.7502C75.351 24.7502 75.051 24.7502 74.601 24.7502C74.151 24.7502 73.701 24.7502 73.251 24.7502C71.601 24.7502 70.101 24.7502 68.451 24.7502C68.001 24.7502 67.701 24.7502 67.251 24.7502C66.651 24.7502 66.201 24.7502 65.601 24.7502C63.801 24.7502 62.001 24.7502 60.351 24.7502C60.201 24.7502 60.051 24.7502 59.901 24.7502C59.001 24.9002 57.951 24.9002 57.051 24.9002C56.901 24.9002 56.751 24.9002 56.601 24.9002C55.101 25.0502 53.751 25.3502 52.401 25.8002C51.651 26.1002 51.051 26.2502 50.301 26.5502C48.801 27.3002 47.301 28.2002 46.101 29.4002C44.451 30.7502 42.951 32.1002 41.451 33.6002C41.301 33.7502 41.151 33.9002 41.001 33.9002C40.551 34.3502 39.951 34.8002 39.501 35.4002C39.201 35.7002 38.901 36.1502 38.451 36.4502C36.801 37.9502 35.301 39.7502 33.951 41.4002C33.351 42.1502 32.601 42.9002 31.851 43.6502C31.551 43.9502 31.101 44.2502 30.651 44.5502C29.151 45.1502 27.951 44.4002 27.501 43.3502C27.051 42.3002 26.751 41.2502 26.751 40.2002C26.751 39.0002 26.751 37.8002 27.051 36.6002C27.351 35.1002 27.801 33.7502 28.551 32.4002C29.301 31.0502 30.051 29.8502 30.651 28.5002C31.251 27.4502 31.851 26.4002 32.601 25.3502C33.651 23.8502 34.701 22.5002 35.751 21.1502C36.801 19.9502 37.851 18.6002 38.751 17.4002C38.901 17.2502 39.051 17.1002 39.201 16.9502C39.351 17.2502 39.351 17.4002 39.351 17.5502C39.501 17.7002 39.651 18.0002 39.801 18.1502C41.451 19.8002 43.551 20.8502 45.801 21.7502C48.951 22.9502 52.251 22.9502 55.551 22.2002C57.051 21.9002 58.401 21.3002 59.601 20.5502C60.651 19.9502 61.701 19.2002 62.751 18.3002C62.901 18.1502 63.201 17.8502 63.351 17.7002C63.351 16.8002 63.501 16.0502 63.501 15.1502C63.651 13.8002 63.651 12.4502 63.351 11.1002C63.201 10.5002 63.051 10.0502 62.601 9.75016C62.151 9.15016 61.551 8.70016 60.951 8.40016L60.801 8.25016C60.651 7.80016 60.201 7.50016 59.901 7.35016C58.551 6.60016 57.201 6.00016 55.701 5.70016C54.051 5.25016 52.401 5.40016 50.751 5.40016C49.401 5.55016 48.201 5.70016 46.851 5.85016V5.70016C47.451 5.25016 48.051 4.65016 48.651 4.50016C49.851 4.05016 51.051 3.90016 52.251 3.90016C53.151 3.90016 54.201 3.90016 55.101 3.90016C56.151 3.90016 57.351 3.75016 58.401 3.90016C58.701 3.90016 59.001 3.90016 59.301 4.05016C59.301 4.05016 59.301 4.05016 59.451 4.05016C59.451 4.05016 59.451 4.05016 59.601 4.05016C59.901 4.20016 60.201 4.35016 60.351 4.65016C61.251 5.55016 62.451 6.00016 63.651 6.15016C67.101 6.45016 70.551 6.45016 74.001 6.30016C75.501 6.30016 77.001 6.15016 78.501 6.15016C78.951 6.15016 79.551 6.00016 80.001 6.00016C80.901 5.85016 81.651 5.40016 82.401 4.80016C82.701 4.50016 83.151 4.20016 83.451 4.05016C83.601 4.05016 83.601 4.05016 83.751 4.05016C84.351 4.05016 84.951 3.90016 85.551 3.90016C87.051 3.90016 88.551 3.90016 90.051 3.90016C91.101 3.90016 92.151 4.05016 93.201 4.20016C93.951 4.35016 94.701 4.65016 95.301 5.10016C96.201 5.85016 97.101 6.75016 97.701 7.65016C98.601 9.00016 99.501 10.2002 100.401 11.5502V11.7002C99.951 12.1502 99.951 12.1502 99.801 12.1502ZM87.651 22.6502C87.801 22.8002 87.801 22.8002 87.801 22.8002C87.801 22.9502 87.951 22.9502 87.951 23.1002C88.251 23.4002 88.701 23.5502 89.151 23.7002C90.051 24.0002 91.101 24.0002 92.151 24.0002C92.901 24.0002 93.501 23.8502 94.101 23.4002C94.551 23.1002 95.001 22.8002 95.151 22.3502C95.151 22.3502 95.151 22.3502 95.151 22.2002C95.151 22.0502 95.301 21.7502 95.301 21.6002C95.301 21.1502 95.301 20.7002 95.301 20.2502C95.301 19.6502 95.001 19.2002 94.401 18.9002C93.951 18.7502 93.651 18.6002 93.201 18.4502C92.001 18.3002 90.801 18.3002 89.601 18.4502C89.151 18.4502 88.701 18.6002 88.251 18.7502C87.651 18.9002 87.201 19.3502 87.201 20.1002C87.201 20.7002 87.201 21.3002 87.201 22.0502C87.201 22.2002 87.351 22.5002 87.351 22.6502C87.501 22.3502 87.501 22.5002 87.651 22.6502C87.651 22.5002 87.501 22.5002 87.651 22.6502ZM87.051 11.1002C87.201 11.2502 87.201 11.2502 87.201 11.2502C87.201 11.4002 87.351 11.4002 87.351 11.5502C88.251 12.0002 89.001 12.4502 90.051 12.4502C90.951 12.4502 91.851 12.4502 92.751 12.3002C93.351 12.1502 93.801 12.0002 94.101 11.5502C94.251 11.2502 94.551 11.1002 94.551 10.6502C94.551 10.5002 94.701 10.2002 94.701 10.0502C94.701 9.45016 94.701 8.85016 94.701 8.25016C94.701 7.80016 94.401 7.35016 94.101 7.20016C93.651 7.05016 93.201 6.75016 92.751 6.75016C91.851 6.45016 90.801 6.60016 89.901 6.60016C89.301 6.60016 88.701 6.75016 88.101 6.90016C87.201 7.20016 86.751 7.80016 86.751 8.70016C86.751 9.15016 86.751 9.60016 86.751 10.0502C86.601 10.5002 86.751 10.8002 87.051 11.1002ZM78.951 16.6502C78.951 16.8002 79.101 16.8002 79.101 16.9502C79.401 17.4002 79.851 17.7002 80.451 17.8502C82.101 18.4502 83.751 18.3002 85.401 17.5502C85.701 17.4002 86.001 17.1002 86.301 16.9502C86.451 16.8002 86.451 16.6502 86.451 16.6502C86.601 16.3502 86.751 16.2002 86.751 15.9002C86.751 15.3002 86.601 14.5502 86.601 13.9502C86.601 13.6502 86.451 13.5002 86.151 13.3502C85.851 13.2002 85.551 13.0502 85.251 12.9002C84.801 12.7502 84.351 12.7502 84.051 12.6002C82.701 12.4502 81.351 12.6002 80.001 12.7502C79.101 12.9002 78.651 13.5002 78.651 14.4002C78.651 15.0002 78.651 15.6002 78.651 16.0502C78.801 16.2002 78.951 16.5002 78.951 16.6502ZM101.001 24.4502C101.001 24.6002 101.001 24.6002 101.001 24.7502V24.9002C101.151 25.9502 101.601 27.0002 102.351 27.9002C102.951 28.8002 103.701 29.5502 104.301 30.3002C105.351 31.8002 106.551 33.3002 107.601 34.9502C108.201 35.8502 109.101 36.7502 110.001 37.3502C110.301 37.5002 110.451 37.6502 110.751 37.6502C111.351 37.8002 111.651 37.5002 111.951 37.0502C112.251 36.1502 112.251 35.2502 111.951 34.3502C111.501 32.8502 110.901 31.5002 110.151 30.1502C109.551 28.9502 108.801 27.9002 108.051 26.8502C107.301 25.8002 106.551 24.9002 105.801 24.0002C105.351 23.5502 104.901 23.1002 104.451 22.9502C103.401 22.3502 102.801 22.3502 101.901 23.1002C101.301 23.4002 101.001 23.8502 101.001 24.4502ZM41.001 24.4502C41.001 24.0002 41.001 23.7002 40.701 23.4002C40.401 23.1002 40.101 22.8002 39.801 22.6502C39.501 22.5002 39.051 22.3502 38.601 22.5002C38.151 22.6502 37.701 22.8002 37.401 23.1002C36.501 23.7002 35.901 24.6002 35.151 25.3502C34.101 26.5502 33.351 27.9002 32.451 29.2502C32.301 29.5502 32.001 30.0002 31.851 30.3002C31.401 31.3502 30.951 32.5502 30.501 33.6002C30.201 34.3502 30.051 35.1002 30.051 36.0002C30.051 36.3002 30.201 36.7502 30.351 37.0502C30.501 37.5002 30.801 37.6502 31.251 37.6502C31.551 37.6502 31.701 37.5002 32.001 37.5002C32.751 37.0502 33.501 36.6002 33.951 35.8502C34.551 34.9502 35.301 34.0502 35.901 33.1502C36.501 32.2502 37.101 31.3502 37.851 30.4502C38.601 29.5502 39.201 28.6502 39.951 27.7502C40.551 26.7002 41.001 25.6502 41.001 24.4502ZM71.451 12.7502C72.051 12.7502 72.951 12.6002 73.851 12.6002C74.751 12.4502 75.651 12.1502 76.251 11.4002C76.551 10.9502 77.001 10.6502 77.451 10.3502C77.751 10.2002 78.051 9.90016 78.201 9.75016C78.501 9.45016 78.501 9.15016 78.201 9.00016C77.901 8.70016 77.601 8.70016 77.301 8.70016C76.401 8.70016 75.501 8.70016 74.601 8.55016C74.301 8.55016 74.001 8.55016 73.551 8.55016C72.201 8.55016 71.001 8.55016 69.651 8.55016C68.901 8.55016 68.301 8.55016 67.551 8.55016C66.801 8.55016 65.901 8.55016 65.151 8.70016C64.851 8.70016 64.551 8.85016 64.251 9.00016C63.801 9.30016 63.651 9.60016 64.101 10.0502C64.251 10.2002 64.551 10.3502 64.851 10.5002C65.301 10.8002 65.751 11.1002 66.051 11.4002C66.501 12.0002 67.101 12.4502 67.851 12.6002C68.901 12.6002 69.951 12.7502 71.451 12.7502ZM63.201 22.6502C63.651 22.8002 64.251 22.8002 64.701 22.8002C65.151 22.8002 65.601 22.8002 66.051 22.8002C66.501 22.8002 66.951 22.8002 67.401 22.8002C67.851 22.8002 68.301 22.8002 68.751 22.8002C69.201 22.8002 69.651 22.8002 70.101 22.8002C70.551 22.8002 71.001 22.8002 71.451 22.8002C71.901 22.8002 72.351 22.8002 72.801 22.8002C73.251 22.8002 73.701 22.8002 74.151 22.8002C74.601 22.8002 75.051 22.8002 75.501 22.8002C75.951 22.8002 76.401 22.8002 76.851 22.8002C77.301 22.8002 77.751 22.8002 78.201 22.8002C77.751 22.5002 77.151 22.2002 76.701 21.9002C74.751 21.1502 72.651 20.7002 70.551 20.7002C69.651 20.7002 68.751 20.8502 67.851 20.8502C66.351 21.0002 65.001 21.4502 63.651 22.0502C63.951 22.2002 63.651 22.3502 63.201 22.6502Z" fill="#B8B8B8"/>
<path fill-rule="evenodd" clip-rule="evenodd" d="M38.901 17.8498C38.901 17.6998 38.751 17.5498 38.751 17.2498C38.601 17.3998 38.451 17.5498 38.301 17.6998C37.251 18.8998 36.201 20.2498 35.301 21.4498C34.251 22.7998 33.201 24.1498 32.151 25.6498C31.401 26.6998 30.801 27.7498 30.201 28.7998C29.451 29.9998 28.701 31.3498 28.101 32.6998C27.351 34.0498 26.901 35.3998 26.601 36.8998C26.451 38.0998 26.301 39.2998 26.301 40.4998C26.301 41.5498 26.601 42.7498 27.051 43.6498C27.501 44.6998 28.851 45.4498 30.201 44.8498C30.651 44.6998 31.101 44.3998 31.401 43.9498C32.151 43.1998 32.751 42.4498 33.501 41.6998C35.001 40.0498 36.351 38.2498 38.001 36.7498C38.301 36.4498 38.601 35.9998 39.051 35.6998C39.501 35.2498 40.101 34.7998 40.551 34.1998C40.701 34.0498 40.851 33.8998 41.001 33.8998C42.501 32.3998 44.001 31.0498 45.651 29.6998C47.001 28.6498 48.351 27.7498 49.851 26.8498C50.451 26.5498 51.201 26.2498 51.951 26.0998C53.301 25.6498 54.801 25.4998 56.151 25.1998C56.301 25.1998 56.451 25.1998 56.601 25.1998C57.501 25.1998 58.551 25.1998 59.451 25.0498C59.601 25.0498 59.751 25.0498 59.901 25.0498C61.701 25.0498 63.501 25.0498 65.151 25.0498C65.751 25.0498 66.201 25.0498 66.801 25.0498C67.251 25.0498 67.551 25.0498 68.001 25.0498C69.651 25.0498 71.151 25.0498 72.801 25.0498C73.251 25.0498 73.701 25.0498 74.151 25.0498C74.601 25.0498 74.901 25.0498 75.351 25.0498C77.601 25.0498 79.851 25.0498 82.101 25.1998C83.451 25.1998 84.951 25.3498 86.301 25.4998C88.401 25.7998 90.351 26.2498 92.301 27.1498C93.501 27.7498 94.551 28.4998 95.601 29.2498C96.801 30.1498 97.851 31.0498 98.901 32.0998C99.351 32.3998 99.651 32.8498 100.101 33.1498L100.251 33.2998C101.001 33.8998 101.601 34.6498 102.351 35.2498C103.401 36.1498 104.301 37.1998 105.201 38.0998C106.101 39.1498 107.001 40.1998 108.051 41.2498C108.801 42.1498 109.551 43.0498 110.301 43.7998C110.751 44.2498 111.351 44.6998 111.951 44.9998C113.451 45.4498 114.501 44.5498 114.951 43.6498C115.251 42.7498 115.551 41.8498 115.551 40.9498C115.701 38.9998 115.551 37.0498 114.951 35.2498C114.651 34.1998 114.201 33.2998 113.601 32.2498C112.851 30.8998 112.101 29.5498 111.201 28.1998C110.301 26.6998 109.401 25.1998 108.351 23.8498C107.001 22.1998 105.801 20.5498 104.451 18.8998C104.001 18.2998 103.551 17.8498 103.101 17.3998C102.501 17.5498 102.051 17.8498 101.601 17.9998C100.701 18.2998 99.651 18.2998 98.751 18.1498C98.001 17.9998 97.251 17.8498 96.501 17.3998C96.201 17.2498 95.901 17.0998 95.901 16.7998H96.051C97.101 17.2498 98.151 17.3998 99.201 17.3998C99.651 17.3998 100.251 17.3998 100.701 17.0998C101.301 17.0998 101.751 16.9498 102.201 16.7998C102.201 16.7998 102.201 16.7998 102.351 16.7998C103.251 16.4998 103.701 16.3498 103.551 15.1498C103.551 14.9998 103.551 14.9998 103.551 14.8498C103.851 14.9998 104.001 15.2998 104.301 15.4498C106.251 17.9998 108.051 20.3998 109.851 23.0998C111.501 25.6498 113.151 28.1998 114.651 30.7498C116.001 32.9998 117.051 35.3998 117.951 37.7998C118.551 39.2998 119.001 40.7998 119.451 42.4498C119.751 43.3498 119.751 44.3998 119.901 45.2998C120.201 46.6498 120.201 47.9998 120.201 49.3498C120.201 49.9498 120.051 50.5498 120.051 50.9998C119.901 51.7498 119.451 52.3498 118.701 52.9498C117.501 53.9998 116.001 54.2998 114.351 54.2998C113.001 54.2998 111.801 53.9998 110.601 53.3998C109.851 52.9498 109.251 52.3498 108.651 51.7498C108.501 51.5998 108.501 51.4498 108.501 51.1498C108.501 50.5498 108.501 49.9498 108.351 49.1998C108.201 48.4498 108.051 47.8498 107.751 47.0998C107.001 45.4498 106.101 43.9498 104.901 42.7498C104.151 41.9998 103.401 41.2498 102.651 40.4998C101.751 39.5998 101.001 38.6998 100.101 37.7998C99.501 37.1998 98.901 36.7498 98.451 36.1498C97.851 35.5498 97.251 34.9498 96.651 34.3498C94.851 32.6998 93.051 31.0498 90.951 29.6998C90.651 29.5498 90.351 29.2498 89.901 29.0998C88.851 28.4998 87.801 28.3498 86.751 28.0498C85.251 27.7498 83.751 27.7498 82.251 27.7498C79.251 27.7498 76.251 27.7498 73.401 27.5998C72.351 27.5998 71.451 27.5998 70.401 27.5998C67.551 27.5998 64.851 27.5998 62.001 27.5998C60.351 27.5998 58.701 27.5998 57.201 27.7498C56.151 27.8998 55.251 28.0498 54.201 28.1998C52.701 28.4998 51.501 29.2498 50.301 29.9998C48.801 31.0498 47.301 32.2498 45.951 33.5998C44.901 34.6498 43.701 35.8498 42.651 36.8998C41.451 38.0998 40.251 39.2998 39.051 40.4998C38.151 41.5498 37.101 42.4498 36.201 43.4998C35.451 44.2498 35.001 45.2998 34.401 46.1998C33.951 47.0998 33.501 47.8498 33.501 48.8998C33.351 49.6498 33.351 50.2498 33.351 50.9998C33.351 51.2998 33.201 51.4498 33.051 51.7498C31.551 53.3998 29.751 54.1498 27.651 54.1498C26.601 54.1498 25.551 54.1498 24.651 53.6998C23.601 53.2498 22.701 52.6498 22.101 51.7498C21.651 51.1498 21.501 50.3998 21.501 49.6498C21.501 48.1498 21.501 46.4998 21.801 44.9998C21.951 43.9498 22.101 42.8998 22.401 41.8498C23.001 39.7498 23.751 37.6498 24.651 35.5498C25.551 33.5998 26.451 31.6498 27.651 29.6998C28.701 27.8998 29.751 26.2498 30.801 24.5998C32.151 22.6498 33.501 20.8498 34.851 18.8998C35.601 17.6998 36.501 16.6498 37.401 15.5998C37.701 15.2998 38.001 14.8498 38.301 14.5498C38.301 14.6998 38.301 14.6998 38.301 14.6998C38.301 15.5998 38.751 16.1998 39.351 16.6498C40.401 17.3998 41.451 17.8498 42.501 18.2998C43.851 18.7498 45.201 19.3498 46.551 19.4998C46.851 19.4998 47.301 19.6498 47.601 19.6498C48.651 19.7998 49.701 19.7998 50.751 19.7998C51.051 19.7998 51.201 19.7998 51.501 19.6498C51.651 19.6498 51.801 19.6498 51.951 19.6498C52.251 19.6498 52.701 19.6498 53.001 19.6498C53.001 18.8998 52.851 18.2998 52.851 17.5498C53.301 17.5498 53.751 17.3998 54.201 17.2498C54.201 17.9998 54.351 18.5998 54.351 19.1998C55.101 19.1998 55.701 19.1998 56.301 18.8998C56.901 18.7498 57.651 18.4498 58.251 18.2998C58.701 18.1498 59.151 17.9998 59.601 17.6998C60.351 17.2498 61.101 16.7998 61.851 16.3498C62.301 16.0498 62.601 15.7498 62.751 15.2998C62.751 16.1998 62.601 16.9498 62.601 17.8498C62.601 17.8498 62.451 17.6998 62.451 17.8498C62.001 18.1498 61.551 18.2998 61.101 18.5998C59.601 19.3498 58.101 19.9498 56.601 20.3998C54.801 20.9998 53.001 21.1498 51.051 21.2998C50.001 21.2998 48.951 21.2998 47.901 21.1498C46.551 20.9998 45.201 20.6998 43.851 20.2498C42.201 19.6498 40.701 19.0498 39.201 18.1498C39.501 18.1498 39.201 17.9998 38.901 17.8498Z" fill="#666666"/>
<path fill-rule="evenodd" clip-rule="evenodd" d="M114.052 57.45C112.402 57.75 110.752 57.9 109.102 57.75C108.202 57.75 107.302 57.6 106.402 57.3C105.052 57 103.852 56.4 102.802 55.65C101.452 54.9 100.252 54 99.2018 52.95C98.7518 52.5 98.3018 51.9 97.8518 51.45C97.1018 50.55 96.2018 49.5 95.4518 48.45C94.8518 47.7 94.4018 46.8 93.8018 46.05C93.2018 45.15 92.6018 44.1 92.0018 43.2C91.4018 42.3 90.9518 41.55 90.3518 40.65C89.6018 39.45 88.7018 38.4 87.5018 37.65C86.6018 36.9 85.4018 36.45 84.2018 36.3C82.7018 36.15 81.2018 36 79.5518 36C78.2018 36 77.0018 36 75.6518 35.85C73.7018 35.85 71.7518 35.85 69.8018 35.85C66.8018 35.85 63.9518 35.85 60.9518 36C59.6018 36 58.1018 36.15 56.7518 36.3C55.5518 36.45 54.6518 37.05 53.7518 37.65C52.5518 38.7 51.5018 39.9 50.7518 41.25C50.1518 42.15 49.5518 43.05 48.9518 44.1C48.3518 45.15 47.7518 46.05 47.1518 47.1C46.5518 48.15 45.6518 49.2 44.9018 50.1C44.4518 50.7 44.0018 51.15 43.5518 51.75C42.6518 52.8 41.6018 53.7 40.4018 54.45C39.0518 55.35 37.5518 56.25 36.0518 56.7C35.0018 57 33.9518 57.3 32.9018 57.3C31.5518 57.45 30.2018 57.3 28.8518 57.15C28.5518 57.15 28.1018 57 27.8018 57C27.8018 56.85 27.9518 56.85 28.1018 56.85C28.8518 56.85 29.6018 56.85 30.5018 56.7C32.3018 56.55 33.9518 56.25 35.4518 55.5C36.3518 55.05 37.1018 54.6 37.8518 54C38.6018 53.55 39.2018 53.1 39.8018 52.5C40.4018 51.9 41.1518 51.3 41.7518 50.7C42.5018 49.8 43.2518 48.9 44.0018 48C44.4518 47.4 44.7518 46.8 45.2018 46.2C45.8018 45.3 46.4018 44.4 47.0018 43.5C47.3018 43.05 47.6018 42.45 47.9018 42C48.8018 40.65 49.7018 39.3 50.6018 38.1C51.5018 36.9 52.5518 35.85 53.7518 34.95C54.3518 34.5 55.2518 34.2 56.0018 34.05C56.9018 33.9 57.9518 33.75 58.8518 33.75C61.1018 33.75 63.2018 33.75 65.4518 33.75C68.9018 33.75 72.5018 33.75 75.9518 33.75C78.2018 33.75 80.3018 33.75 82.5518 33.75C83.7518 33.75 84.8018 33.9 85.8518 34.2C86.6018 34.35 87.3518 34.65 87.9518 35.25C88.7018 35.85 89.3018 36.6 89.9018 37.2C91.2518 38.55 92.1518 40.35 93.3518 41.85C93.8018 42.45 94.1018 43.05 94.4018 43.65C95.1518 44.7 95.7518 45.6 96.5018 46.65C96.8018 47.1 96.9518 47.55 97.2518 47.85C97.8518 48.6 98.4518 49.35 99.2018 50.25C99.8018 50.85 100.402 51.45 101.002 52.05C101.302 52.35 101.602 52.5 101.752 52.65C102.802 53.4 103.702 54.15 104.752 54.75C105.652 55.35 106.552 55.65 107.602 55.95C108.352 56.1 108.952 56.25 109.702 56.4C110.002 56.4 110.452 56.4 110.752 56.55C111.502 56.7 112.402 56.7 113.302 56.7C113.902 57.45 114.052 57.3 114.052 57.45Z" fill="#FE0000"/>
<path fill-rule="evenodd" clip-rule="evenodd" d="M53.151 7.5001C53.151 7.6501 53.301 7.9501 53.301 8.1001C53.451 8.7001 53.451 8.8501 54.051 8.8501C54.651 8.8501 55.251 8.8501 55.851 9.0001C56.451 9.0001 56.901 9.0001 57.501 9.0001C57.951 9.0001 58.251 9.1501 58.701 9.1501C58.701 9.3001 58.701 9.4501 58.851 9.6001C57.651 9.6001 56.601 9.7501 55.551 9.7501C54.951 9.7501 54.351 9.7501 53.751 9.7501C53.451 9.7501 53.301 9.9001 53.151 10.0501C53.001 10.5001 52.701 10.8001 52.551 11.1001C51.351 11.2501 50.001 11.2501 48.651 11.2501C48.651 10.8001 49.101 10.5001 48.951 9.9001C48.651 9.9001 48.501 9.9001 48.201 9.7501C46.851 9.7501 45.651 9.7501 44.301 9.6001C44.151 9.6001 44.151 9.6001 44.001 9.6001C44.001 9.4501 44.001 9.3001 44.301 9.1501C44.751 9.1501 45.201 9.0001 45.651 9.0001C47.001 9.1501 48.351 9.0001 49.551 8.8501C49.851 8.8501 50.001 8.7001 50.301 8.5501C50.601 8.2501 50.751 7.9501 51.051 7.6501C51.051 7.6501 51.201 7.5001 51.201 7.5001C51.801 7.5001 52.401 7.5001 53.001 7.3501C53.151 7.3501 53.151 7.5001 53.151 7.5001Z" fill="white"/>
<path fill-rule="evenodd" clip-rule="evenodd" d="M99.8006 12.1496L99.9506 11.9996V11.8496C99.0506 10.4996 98.1506 9.14961 97.2506 7.94961C96.5006 7.04961 95.7506 6.14961 94.8506 5.39961C94.2506 4.94961 93.5006 4.64961 92.6006 4.49961C91.5506 4.34961 90.5006 4.19961 89.4506 4.19961C87.9506 4.19961 86.4506 4.04961 84.9506 4.19961C84.3506 4.19961 83.7506 4.34961 83.1506 4.34961C83.0006 4.34961 83.0006 4.34961 82.8506 4.34961C83.1506 4.04961 83.4506 3.89961 83.9006 3.74961C84.3506 3.59961 84.9506 3.59961 85.4006 3.59961C87.2006 3.59961 89.0006 3.59961 90.9506 3.59961C91.8506 3.59961 92.9006 3.74961 93.8006 3.89961C94.1006 3.89961 94.2506 4.04961 94.5506 4.19961C95.3006 4.64961 96.0506 5.09961 96.6506 5.84961C96.9506 6.14961 97.1006 6.44961 97.4006 6.59961C98.0006 7.19961 98.6006 7.94961 99.2006 8.54961C100.101 9.74961 101.151 10.9496 102.051 12.1496L102.201 12.2996C101.451 12.2996 100.701 12.2996 99.8006 12.1496Z" fill="#666666"/>
<path fill-rule="evenodd" clip-rule="evenodd" d="M59.0014 4.3502C58.7014 4.3502 58.4014 4.2002 58.1014 4.2002C57.0514 4.0502 55.8514 4.0502 54.8014 4.2002C53.9014 4.2002 52.8514 4.2002 51.9514 4.2002C50.7514 4.2002 49.5514 4.3502 48.3514 4.8002C47.6014 5.1002 47.0014 5.5502 46.5514 6.0002V6.1502C45.9514 6.3002 45.5014 6.3002 44.9014 6.4502C45.0514 6.3002 45.0514 6.1502 45.2014 6.1502C45.3514 5.8502 45.6514 5.7002 45.9514 5.4002C46.5514 4.8002 47.1514 4.2002 48.0514 3.9002C48.6514 3.7502 49.2514 3.6002 49.8514 3.6002C52.2514 3.4502 54.6514 3.4502 57.0514 3.4502C57.8014 3.4502 58.5514 3.6002 59.1514 4.0502C58.8514 4.2002 59.0014 4.3502 59.0014 4.3502Z" fill="#666666"/>
<path fill-rule="evenodd" clip-rule="evenodd" d="M48.9514 14.6998C49.4014 14.6998 49.7014 14.6998 50.1514 14.6998C51.3514 14.8498 52.5514 14.6998 53.7514 14.5498C54.2014 14.5498 54.2014 14.5498 54.2014 14.9998C54.2014 15.1498 54.2014 15.4498 54.3514 15.5998C52.4014 15.8998 50.6014 16.0498 48.6514 15.7498C48.3514 15.7498 48.2014 15.5998 47.9014 15.5998C47.9014 15.4498 47.9014 15.4498 47.9014 15.2998C48.2014 14.9998 48.3514 14.5498 48.9514 14.6998Z" fill="white"/>
<path fill-rule="evenodd" clip-rule="evenodd" d="M51.801 19.7998C51.501 19.7998 51.351 19.9498 51.051 19.9498C50.001 19.9498 48.951 19.9498 47.901 19.7998C47.901 19.0498 47.901 18.2998 47.751 17.5498C48.201 17.5498 48.651 17.6998 48.951 17.6998C49.401 17.6998 49.701 17.8498 50.151 17.8498C50.151 18.4498 50.151 19.0498 50.151 19.6498C50.151 19.9498 50.301 19.9498 50.451 19.9498C50.901 19.7998 51.351 19.7998 51.801 19.7998Z" fill="#B8B8B8"/>
<path fill-rule="evenodd" clip-rule="evenodd" d="M53.1518 7.50039L53.0018 7.35039C52.4018 7.35039 51.8018 7.35039 51.2018 7.50039C51.0518 7.50039 50.9018 7.65039 50.9018 7.80039C50.6018 8.10039 50.4518 8.40039 50.1518 8.70039C50.0018 8.85039 49.7018 9.00039 49.4018 9.00039C48.3518 9.00039 47.0018 9.15039 45.8018 9.15039C45.3518 9.15039 44.9018 9.30039 44.4518 9.30039C44.1518 9.30039 44.1518 9.45039 44.1518 9.75039C44.0018 9.75039 43.7018 9.75039 43.5518 9.75039C43.5518 9.45039 43.7018 9.30039 43.8518 9.00039C43.8518 9.00039 44.0018 9.00039 44.1518 9.00039C45.2018 8.85039 46.4018 8.85039 47.4518 8.70039C48.0518 8.70039 48.8018 8.55039 49.4018 8.55039C49.5518 8.55039 49.8518 8.40039 49.8518 8.25039C50.1518 7.95039 50.3018 7.65039 50.6018 7.35039C50.7518 7.05039 50.9018 6.90039 51.2018 6.90039C51.8018 6.90039 52.4018 6.90039 53.0018 6.90039C53.1518 7.05039 53.1518 7.35039 53.1518 7.50039Z" fill="#B8B8B8"/>
<path fill-rule="evenodd" clip-rule="evenodd" d="M58.5512 18.4501C57.9512 18.6001 57.2012 18.9001 56.6012 19.0501C56.6012 19.0501 56.6012 19.0501 56.6012 18.9001V18.7501C56.6012 18.1501 56.4512 17.4001 56.4512 16.8001C57.0512 16.6501 57.6512 16.5001 58.4012 16.3501C58.4012 17.1001 58.4012 17.8501 58.5512 18.4501Z" fill="white"/>
<path fill-rule="evenodd" clip-rule="evenodd" d="M102.352 14.2503C102.052 14.4003 101.752 14.4003 101.452 14.5503C100.402 14.7003 99.2018 14.8503 98.1518 14.7003C97.7018 14.7003 97.2518 14.4003 96.8018 14.2503C96.9518 13.9503 97.1018 13.9503 97.4018 13.9503C97.7018 13.8003 98.1518 13.8003 98.4518 13.8003C99.3518 13.8003 100.252 13.8003 101.152 13.8003C101.452 13.8003 101.752 13.9503 102.052 13.9503C102.202 13.9503 102.352 14.1003 102.352 14.2503Z" fill="white"/>
<path fill-rule="evenodd" clip-rule="evenodd" d="M42.3514 12.75C43.4014 13.5 44.4514 13.8 45.6514 14.1C45.9514 14.1 46.2514 14.25 46.5514 14.25C46.1014 14.25 45.8014 14.7 45.6514 15.15C44.9014 14.85 44.3014 14.7 43.5514 14.4C43.1014 14.25 42.6514 13.95 42.2014 13.65C42.0514 13.65 42.0514 13.5 41.9014 13.35C42.0514 13.2 42.0514 13.05 42.2014 13.05C42.2014 12.9 42.3514 12.75 42.3514 12.75Z" fill="#666666"/>
<path fill-rule="evenodd" clip-rule="evenodd" d="M58.1006 13.3497C58.2506 13.1997 58.5506 13.0497 58.7006 12.8997C59.3006 12.4497 59.9006 12.1497 60.3506 11.6997C60.5006 11.5497 60.5006 11.2497 60.6506 10.9497C61.1006 11.0997 61.5506 11.8497 61.2506 12.2997C60.8006 12.8997 60.3506 13.6497 59.6006 13.9497C59.0006 13.7997 58.5506 13.4997 58.1006 13.3497Z" fill="#666666"/>
<path fill-rule="evenodd" clip-rule="evenodd" d="M57.9512 14.7002C57.2012 15.0002 56.4512 15.1502 55.5512 15.4502C55.1012 15.3002 55.1012 14.8502 54.9512 14.5502C54.9512 14.5502 54.9512 14.4002 55.1012 14.4002C55.7012 14.2502 56.1512 14.1002 56.7512 13.9502C57.2012 13.9502 57.5012 14.2502 57.9512 14.7002Z" fill="white"/>
<path fill-rule="evenodd" clip-rule="evenodd" d="M102.351 14.2502C102.351 14.1002 102.201 13.9502 102.051 13.9502C101.751 13.8002 101.451 13.8002 101.151 13.8002C100.251 13.8002 99.3512 13.8002 98.4512 13.8002C98.1512 13.8002 97.7012 13.9502 97.4012 13.9502C97.2512 13.9502 96.9512 14.1002 96.8012 14.2502C96.5012 13.9502 96.5012 13.6502 96.8012 13.5002C96.9512 13.3502 97.2512 13.3502 97.4012 13.3502C98.4512 13.3502 99.6512 13.2002 100.701 13.2002C101.301 13.2002 101.751 13.3502 102.201 13.5002C102.651 13.8002 102.651 13.9502 102.351 14.2502Z" fill="#B8B8B8"/>
<path fill-rule="evenodd" clip-rule="evenodd" d="M45.6514 15.15C45.8014 14.7 46.1014 14.25 46.5514 14.25C47.3014 14.4 47.9014 14.4 48.6514 14.55C48.8014 14.55 48.9514 14.55 48.9514 14.7C48.3514 14.55 48.2014 15 47.9014 15.45C47.9014 15.45 47.9014 15.6 47.9014 15.75C47.1514 15.6 46.4014 15.45 45.6514 15.15Z" fill="#B8B8B8"/>
<path fill-rule="evenodd" clip-rule="evenodd" d="M58.7018 9.14971C58.4018 9.14971 57.9518 8.99971 57.5018 8.99971C56.9018 8.99971 56.3018 8.99971 55.8518 8.84971C55.2518 8.84971 54.6518 8.84971 54.0518 8.69971C53.4518 8.69971 53.3018 8.54971 53.3018 7.94971C53.4518 7.94971 53.7518 8.09971 53.9018 8.09971C55.2518 8.24971 56.6018 8.39971 58.1018 8.54971C58.4018 8.69971 58.7018 8.84971 58.7018 9.14971Z" fill="#B8B8B8"/>
<path fill-rule="evenodd" clip-rule="evenodd" d="M53.0012 17.5498C53.0012 18.1498 53.1512 18.8998 53.1512 19.6498C52.8512 19.6498 52.5512 19.6498 52.1012 19.6498C52.1012 18.8998 51.9512 18.2998 51.9512 17.5498C52.2512 17.5498 52.4012 17.5498 52.7012 17.5498C52.8512 17.5498 53.0012 17.5498 53.0012 17.5498Z" fill="#B8B8B8"/>
<path fill-rule="evenodd" clip-rule="evenodd" d="M57.9506 14.6996C57.5006 14.2496 57.2006 13.9496 56.6006 13.7996C57.0506 13.6496 57.3506 13.4996 57.8006 13.3496C57.8006 13.3496 57.8006 13.3496 57.9506 13.3496H58.1006C58.5506 13.4996 59.1506 13.7996 59.6006 13.9496C59.0006 14.2496 58.5506 14.5496 57.9506 14.6996Z" fill="#B8B8B8"/>
<path fill-rule="evenodd" clip-rule="evenodd" d="M42.351 12.7501C42.351 12.9001 42.201 13.0501 42.201 13.2001C42.051 13.3501 42.051 13.5001 41.901 13.5001H41.751C41.751 13.5001 41.751 13.5001 41.601 13.5001C41.301 13.3501 41.001 13.2001 40.851 12.9001C40.551 12.7501 40.401 12.4501 40.251 12.1501C40.251 12.1501 40.251 12.0001 40.251 11.8501C40.251 12.1501 40.551 12.1501 40.701 12.1501C41.001 12.1501 41.451 12.1501 41.751 12.1501C41.901 12.3001 42.201 12.4501 42.351 12.7501Z" fill="#B8B8B8"/>
<path fill-rule="evenodd" clip-rule="evenodd" d="M102.351 16.6499C101.901 16.7999 101.451 17.0999 100.851 16.9499C100.851 16.4999 100.851 16.0499 100.701 15.5999C100.701 15.2999 100.851 15.1499 101.001 15.1499C101.001 15.4499 101.001 15.7499 101.151 16.0499C101.151 16.3499 101.301 16.3499 101.601 16.1999C101.751 16.1999 101.901 16.0499 101.901 15.8999C101.901 15.5999 101.901 15.2999 101.901 14.9999C102.201 14.8499 102.201 14.8499 102.351 15.1499C102.351 15.8999 102.351 16.1999 102.351 16.6499Z" fill="#B8B8B8"/>
<path fill-rule="evenodd" clip-rule="evenodd" d="M41.751 12.1502C41.451 12.1502 41.001 12.1502 40.701 12.1502C40.551 12.1502 40.251 12.1502 40.251 11.8502C40.251 11.5502 40.551 11.4002 40.851 11.2502C41.001 11.1002 41.301 11.1002 41.451 10.9502C41.601 10.9502 41.601 11.1002 41.751 11.1002C41.751 11.4002 41.751 11.7002 41.751 12.1502Z" fill="white"/>
<path fill-rule="evenodd" clip-rule="evenodd" d="M55.1006 14.25L54.9506 14.4C55.1006 14.7 55.2506 15.15 55.5506 15.3C55.1006 15.45 54.6506 15.45 54.2006 15.6C54.2006 15.45 54.2006 15.15 54.0506 15C54.0506 14.55 54.0506 14.55 53.6006 14.55C54.2006 14.55 54.6506 14.4 55.1006 14.25Z" fill="#B8B8B8"/>
<path fill-rule="evenodd" clip-rule="evenodd" d="M101.901 15.2998C101.901 15.5998 101.901 15.8998 101.901 16.1998C101.901 16.3498 101.751 16.4998 101.601 16.4998C101.301 16.6498 101.301 16.4998 101.151 16.3498C101.151 16.0498 101.151 15.7498 101.001 15.4498C101.451 15.2998 101.751 15.2998 101.901 15.2998Z" fill="white"/>
<path fill-rule="evenodd" clip-rule="evenodd" d="M30.6518 57.2998C29.9018 57.4498 29.1518 57.4498 28.2518 57.4498C28.1018 57.4498 27.9518 57.2998 27.9518 57.5998C27.6518 57.5998 27.3518 57.4498 27.0518 57.4498C27.0518 57.4498 27.0518 57.4498 27.0518 57.2998C27.3518 57.2998 27.6518 57.4498 27.9518 57.4498C28.7018 57.4498 29.4518 57.4498 30.2018 57.4498C30.5018 57.2998 30.5018 57.2998 30.6518 57.2998Z" fill="#666666"/>
<path fill-rule="evenodd" clip-rule="evenodd" d="M114.051 57.45C114.051 57.3 113.901 57.3 113.751 57.3C112.851 57.3 112.101 57.3 111.201 57.15C111.651 57.15 112.251 57.15 112.701 57.15C113.301 57.15 113.901 57.15 114.351 57C114.501 57 114.501 57 114.651 57C114.651 57.45 114.351 57.45 114.051 57.45Z" fill="#666666"/>
<path fill-rule="evenodd" clip-rule="evenodd" d="M51.9512 17.5498C51.9512 17.6998 51.9512 17.6998 51.9512 17.5498C51.3512 17.5498 50.7512 17.6998 50.1512 17.6998C49.7012 17.6998 49.4012 17.5498 48.9512 17.5498C50.0012 17.5498 51.0512 17.5498 51.9512 17.5498Z" fill="#666666"/>
<path fill-rule="evenodd" clip-rule="evenodd" d="M111.352 57.3001C111.052 57.3001 110.602 57.3001 110.302 57.1501C110.602 57.3001 111.052 57.3001 111.352 57.3001Z" fill="#666666"/>
<path fill-rule="evenodd" clip-rule="evenodd" d="M41.7512 11.1002C41.6012 11.1002 41.6012 10.9502 41.4512 10.9502C41.6012 10.9502 41.6012 10.9502 41.7512 10.9502C41.6012 10.9502 41.6012 10.9502 41.7512 11.1002Z" fill="#B8B8B8"/>
<path fill-rule="evenodd" clip-rule="evenodd" d="M56.4512 18.8999C56.6012 18.8999 56.6012 19.0499 56.4512 18.8999C56.6012 19.0499 56.6012 18.8999 56.4512 18.8999Z" fill="#666666"/>
<path fill-rule="evenodd" clip-rule="evenodd" d="M101.001 24.4502C101.001 23.8502 101.301 23.4002 101.751 22.9502C102.651 22.2002 103.101 22.2002 104.301 22.8002C104.901 23.1002 105.351 23.4002 105.651 23.8502C106.401 24.7502 107.301 25.6502 107.901 26.7002C108.651 27.7502 109.401 28.9502 110.001 30.0002C110.751 31.3502 111.351 32.7002 111.801 34.2002C112.101 35.1002 112.101 36.0002 111.801 36.9002C111.501 37.5002 111.201 37.6502 110.601 37.5002C110.301 37.5002 110.151 37.3502 109.851 37.2002C108.801 36.6002 108.051 35.8502 107.451 34.8002C106.401 33.3002 105.351 31.6502 104.151 30.1502C103.551 29.2502 102.801 28.5002 102.201 27.7502C101.451 26.8502 101.151 25.8002 100.851 24.7502V24.6002C101.001 24.6002 101.001 24.4502 101.001 24.4502Z" fill="white"/>
<path fill-rule="evenodd" clip-rule="evenodd" d="M41.0014 24.4501C41.0014 25.6501 40.5514 26.7001 39.8014 27.7501C39.2014 28.6501 38.4514 29.5501 37.7014 30.4501C37.1014 31.3501 36.3514 32.2501 35.7514 33.1501C35.1514 34.0501 34.5514 34.9501 33.8014 35.8501C33.3514 36.6001 32.6014 37.0501 31.8514 37.5001C31.7014 37.6501 31.4014 37.6501 31.1014 37.6501C30.6514 37.6501 30.3514 37.5001 30.2014 37.0501C30.0514 36.7501 29.9014 36.3001 29.9014 36.0001C29.9014 35.2501 30.0514 34.3501 30.3514 33.6001C30.8014 32.5501 31.2514 31.3501 31.7014 30.3001C31.8514 30.0001 32.1514 29.5501 32.3014 29.2501C33.2014 27.9001 33.9514 26.5501 35.0014 25.3501C35.7514 24.6001 36.3514 23.7001 37.2514 23.1001C37.5514 22.8001 38.0014 22.6501 38.4514 22.5001C38.9014 22.3501 39.3514 22.5001 39.6514 22.6501C39.9514 22.8001 40.2514 23.1001 40.5514 23.4001C41.0014 23.7001 41.0014 24.1501 41.0014 24.4501Z" fill="white"/>
<path fill-rule="evenodd" clip-rule="evenodd" d="M71.4508 12.7499C69.9508 12.7499 68.9008 12.5999 67.8508 12.4499C67.1008 12.2999 66.5008 11.9999 66.0508 11.2499C65.7508 10.7999 65.3008 10.4999 64.8508 10.3499C64.5508 10.1999 64.4008 10.0499 64.1008 9.8999C63.6508 9.4499 63.8008 9.1499 64.2508 8.8499C64.5508 8.6999 64.8508 8.5499 65.1508 8.5499C65.9008 8.5499 66.8008 8.3999 67.5508 8.3999C68.3008 8.3999 68.9008 8.3999 69.6508 8.3999C71.0008 8.3999 72.2008 8.3999 73.5508 8.3999C73.8508 8.3999 74.1508 8.3999 74.6008 8.3999C75.5008 8.3999 76.4008 8.3999 77.3008 8.5499C77.6008 8.5499 78.0508 8.6999 78.2008 8.8499C78.5008 9.1499 78.5008 9.2999 78.2008 9.5999C78.0508 9.8999 77.7508 10.0499 77.4508 10.1999C77.0008 10.4999 76.5508 10.7999 76.2508 11.2499C75.6508 11.9999 74.9008 12.2999 73.8508 12.4499C72.8008 12.5999 71.9008 12.7499 71.4508 12.7499Z" fill="white"/>
<path fill-rule="evenodd" clip-rule="evenodd" d="M38.9014 17.8501C39.2014 18.0001 39.3514 18.0001 39.6514 18.1501C41.1514 19.0501 42.6514 19.6501 44.3014 20.2501C45.6514 20.7001 47.0014 21.0001 48.3514 21.1501C49.4014 21.3001 50.4514 21.3001 51.5014 21.3001C53.4514 21.1501 55.2514 21.0001 57.0514 20.4001C58.5514 19.9501 60.0514 19.3501 61.5514 18.6001C62.0014 18.3001 62.4514 18.1501 62.9014 17.8501H63.0514C62.9014 18.0001 62.6014 18.3001 62.4514 18.4501C61.5514 19.3501 60.5014 20.1001 59.3014 20.7001C57.9514 21.4501 56.6014 21.9001 55.2514 22.3501C51.9514 23.1001 48.6514 23.2501 45.5014 21.9001C43.2514 21.0001 41.1514 19.9501 39.5014 18.3001C39.2014 18.4501 39.0514 18.1501 38.9014 17.8501Z" fill="#020202"/>
<path fill-rule="evenodd" clip-rule="evenodd" d="M78.9514 16.6498C78.8014 16.3498 78.6514 16.1998 78.6514 15.8998C78.6514 15.2998 78.6514 14.6998 78.6514 14.2498C78.6514 13.3498 79.2514 12.7498 80.0014 12.5998C81.3514 12.4498 82.7014 12.2998 84.0514 12.4498C84.5014 12.4498 84.9514 12.5998 85.2514 12.7498C85.5514 12.8998 85.8514 13.0498 86.1514 13.1998C86.4514 13.3498 86.4514 13.6498 86.6014 13.7998C86.6014 14.3998 86.7514 15.1498 86.7514 15.7498C86.7514 16.0498 86.6014 16.1998 86.4514 16.4998C86.0014 16.6498 85.7014 16.7998 85.2514 16.9498C85.2514 16.4998 85.2514 16.0498 85.1014 15.5998C84.9514 15.5998 84.8014 15.7498 84.6514 15.7498C84.5014 15.7498 84.3514 15.7498 84.2014 15.8998C83.9014 15.8998 83.9014 16.0498 83.9014 16.1998C83.9014 16.4998 83.9014 16.9498 84.0514 17.2498C83.1514 17.5498 82.2514 17.5498 81.3514 17.3998C80.6014 17.3998 79.8514 17.2498 78.9514 16.6498C79.1014 16.6498 79.1014 16.6498 78.9514 16.6498ZM79.8514 14.3998C80.1514 14.5498 80.4514 14.6998 80.9014 14.6998C81.9514 14.8498 83.0014 14.8498 84.0514 14.6998C84.5014 14.5498 85.1014 14.5498 85.5514 14.2498C85.8514 13.9498 85.8514 13.9498 85.5514 13.6498C85.1014 13.6498 84.6514 13.4998 84.2014 13.4998C83.0014 13.3498 81.6514 13.4998 80.4514 13.6498C80.3014 13.6498 80.0014 13.7998 79.8514 13.9498C79.5514 13.9498 79.5514 14.2498 79.8514 14.3998Z" fill="#020202"/>
<path fill-rule="evenodd" clip-rule="evenodd" d="M87.8006 22.7996C87.8006 22.6496 87.8006 22.6496 87.8006 22.7996C87.6506 22.6496 87.6506 22.6496 87.6506 22.6496C87.6506 22.6496 87.6506 22.6496 87.5006 22.4996C87.5006 22.4996 87.5006 22.4996 87.5006 22.3496C87.5006 22.1996 87.3506 21.8996 87.3506 21.7496C87.3506 21.1496 87.3506 20.5496 87.3506 19.7996C87.3506 19.1996 87.8006 18.7496 88.4006 18.4496C88.8506 18.2996 89.3006 18.2996 89.7506 18.1496C90.9506 17.9996 92.1506 17.9996 93.3506 18.1496C93.8006 18.1496 94.1006 18.2996 94.5506 18.5996C95.1506 18.8996 95.4506 19.3496 95.4506 19.9496C95.4506 20.3996 95.4506 20.8496 95.4506 21.2996C95.4506 21.4496 95.4506 21.7496 95.3006 21.8996C95.3006 21.8996 95.3006 21.8996 95.3006 22.0496C95.1506 22.1996 95.0006 22.1996 94.8506 22.3496C94.5506 22.4996 94.4006 22.4996 94.1006 22.6496C94.1006 22.1996 94.1006 21.7496 94.1006 21.1496C93.8006 21.1496 93.6506 21.2996 93.3506 21.2996C93.2006 21.2996 93.0506 21.2996 93.0506 21.4496C92.9006 21.4496 92.9006 21.4496 92.7506 21.4496C92.7506 21.4496 92.7506 21.4496 92.7506 21.5996C92.7506 22.0496 92.7506 22.6496 92.7506 23.0996L92.6006 23.2496C91.5506 23.3996 90.5006 23.3996 89.6006 23.2496C88.7006 23.0996 88.2506 22.9496 87.8006 22.7996ZM88.2506 20.2496C88.5506 20.3996 89.0006 20.5496 89.3006 20.5496C90.2006 20.6996 90.9506 20.6996 91.8506 20.6996C92.4506 20.6996 93.0506 20.5496 93.6506 20.3996C93.8006 20.3996 94.1006 20.2496 94.2506 19.9496C94.4006 19.7996 94.2506 19.6496 94.1006 19.4996C93.6506 19.1996 93.3506 19.1996 92.9006 19.1996C91.8506 19.1996 90.8006 19.1996 89.7506 19.1996C89.3006 19.1996 89.0006 19.3496 88.5506 19.4996C88.1006 19.7996 88.1006 19.9496 88.2506 20.2496Z" fill="#020202"/>
<path fill-rule="evenodd" clip-rule="evenodd" d="M87.2006 11.2504C87.2006 11.1004 87.2006 11.1004 87.2006 11.2504C87.0506 11.1004 87.0506 11.1004 87.0506 11.1004C86.7506 10.8004 86.6006 10.5004 86.6006 10.2004C86.6006 9.75039 86.6006 9.30039 86.6006 8.85039C86.6006 7.95039 87.0506 7.20039 87.9506 7.05039C88.5506 6.90039 89.1506 6.75039 89.7506 6.75039C90.6506 6.75039 91.7006 6.60039 92.6006 6.90039C93.0506 7.05039 93.5006 7.20039 93.9506 7.35039C94.4006 7.50039 94.5506 7.95039 94.5506 8.40039C94.5506 9.00039 94.5506 9.60039 94.5506 10.2004C94.5506 10.3504 94.4006 10.6504 94.4006 10.8004C93.9506 10.9504 93.6506 11.2504 93.2006 11.4004C93.2006 10.9504 93.2006 10.6504 93.2006 10.2004C93.2006 10.0504 93.0506 9.90039 92.9006 9.90039C92.7506 9.90039 92.7506 9.90039 92.6006 9.90039C92.3006 9.90039 92.1506 10.0504 91.8506 10.0504C91.5506 10.0504 91.4006 10.2004 91.4006 10.3504C91.4006 10.8004 91.4006 11.2504 91.4006 11.7004C90.6506 11.8504 89.9006 11.8504 89.0006 11.7004C88.5506 11.7004 87.9506 11.4004 87.2006 11.2504ZM93.5006 8.55039C93.6506 8.40039 93.6506 8.25039 93.5006 8.10039C93.0506 7.80039 92.6006 7.80039 92.1506 7.65039C90.9506 7.50039 89.6006 7.65039 88.4006 7.80039C88.2506 7.80039 87.9506 7.95039 87.8006 8.10039C87.5006 8.25039 87.6506 8.55039 87.9506 8.70039C88.2506 8.85039 88.5506 9.00039 88.8506 9.00039C90.2006 9.30039 91.5506 9.00039 92.9006 8.85039C93.2006 8.85039 93.3506 8.70039 93.5006 8.55039Z" fill="#020202"/>
<path fill-rule="evenodd" clip-rule="evenodd" d="M63.2012 22.6502C63.5012 22.3502 63.9512 22.2002 64.2512 22.0502C65.6012 21.4502 66.9512 21.0002 68.4512 20.8502C69.3512 20.8502 70.2512 20.7002 71.1512 20.7002C73.2512 20.7002 75.3512 21.1502 77.3012 21.9002C77.7512 22.0502 78.3512 22.3502 78.8012 22.8002C78.3512 22.9502 77.9012 22.8002 77.4512 22.8002C77.0012 22.8002 76.5512 22.8002 76.1012 22.8002C75.6512 22.8002 75.2012 22.8002 74.7512 22.8002C74.3012 22.8002 73.8512 22.8002 73.4012 22.8002C72.9512 22.8002 72.5012 22.8002 72.0512 22.8002C71.6012 22.8002 71.1512 22.8002 70.7012 22.8002C70.2512 22.8002 69.8012 22.8002 69.3512 22.8002C68.9012 22.8002 68.4512 22.8002 68.0012 22.8002C67.5512 22.8002 67.1012 22.8002 66.6512 22.8002C66.2012 22.8002 65.7512 22.8002 65.3012 22.8002C64.2512 22.8002 63.8012 22.8002 63.2012 22.6502Z" fill="#666666"/>
<path fill-rule="evenodd" clip-rule="evenodd" d="M87.2012 11.2498C87.8012 11.5498 88.4012 11.6998 89.1512 11.6998C89.9012 11.6998 90.6512 11.8498 91.5512 11.6998C91.8512 11.6998 92.3012 11.5498 92.6012 11.5498C92.7512 11.5498 93.0512 11.3998 93.2012 11.3998C93.6512 11.2498 93.9512 10.9498 94.4012 10.7998C94.4012 11.0998 94.1012 11.3998 93.9512 11.6998C93.6512 12.1498 93.0512 12.4498 92.6012 12.4498C91.7012 12.5998 90.8012 12.7498 89.9012 12.5998C88.8512 12.5998 88.1012 12.1498 87.3512 11.5498C87.3512 11.3998 87.3512 11.2498 87.2012 11.2498Z" fill="#666666"/>
<path fill-rule="evenodd" clip-rule="evenodd" d="M87.8018 22.8003C88.2518 22.9503 88.7018 23.1003 89.1518 23.2503C90.2018 23.4003 91.1018 23.5503 92.1518 23.2503C92.1518 23.2503 92.3018 23.2503 92.3018 23.1003C92.7518 23.1003 93.3518 22.9503 93.8018 22.6503C94.1018 22.5003 94.2518 22.5003 94.5518 22.3503C94.7018 22.3503 94.8518 22.2003 95.0018 22.0503C94.8518 22.6503 94.4018 22.8003 93.9518 23.1003C93.3518 23.5503 92.7518 23.7003 92.0018 23.7003C90.9518 23.7003 90.0518 23.7003 89.0018 23.4003C88.5518 23.2503 88.1018 23.1003 87.8018 22.8003C87.9518 22.9503 87.9518 22.8003 87.8018 22.8003Z" fill="#666666"/>
<path fill-rule="evenodd" clip-rule="evenodd" d="M85.4006 16.95C85.8506 16.8 86.1506 16.65 86.6006 16.5C86.6006 16.65 86.4506 16.8 86.4506 16.8C86.1506 17.1 85.8506 17.25 85.5506 17.4C83.9006 18.15 82.2506 18.3 80.6006 17.7C80.1506 17.55 79.7006 17.25 79.2506 16.8C79.2506 16.65 79.1006 16.65 79.1006 16.5H79.2506C80.0006 16.95 80.7506 17.1 81.5006 17.25C82.4006 17.4 83.3006 17.25 84.2006 17.1C84.5006 17.1 84.9506 17.1 85.4006 16.95Z" fill="#666666"/>
<path fill-rule="evenodd" clip-rule="evenodd" d="M50.1514 17.7002C50.7514 17.7002 51.3514 17.7002 51.9514 17.7002C51.9514 18.4502 52.1014 19.0502 52.1014 19.8002C51.9514 19.8002 51.8014 19.8002 51.6514 19.8002C51.2014 19.8002 50.9014 19.8002 50.4514 19.8002C50.1514 19.8002 50.1514 19.6502 50.1514 19.5002C50.1514 18.9002 50.1514 18.3002 50.1514 17.7002Z" fill="white"/>
<path fill-rule="evenodd" clip-rule="evenodd" d="M85.4012 14.4C84.9512 14.7 84.5012 14.7 83.9012 14.85C82.8512 15 81.8012 15 80.7512 14.85C80.4512 14.85 80.1512 14.55 79.7012 14.55C80.0012 14.4 80.4512 14.1 80.9012 14.1C81.0512 14.1 81.0512 14.1 81.2012 14.1C82.2512 14.1 83.3012 14.1 84.3512 14.1C84.9512 13.95 85.2512 13.95 85.4012 14.4Z" fill="white"/>
<path fill-rule="evenodd" clip-rule="evenodd" d="M85.401 14.3998C85.251 13.9498 84.801 13.9498 84.501 13.9498C83.451 13.9498 82.401 13.9498 81.351 13.9498C81.201 13.9498 81.201 13.9498 81.051 13.9498C80.601 13.9498 80.301 14.0998 79.851 14.3998C79.551 14.0998 79.551 13.9498 79.851 13.7998C80.001 13.6498 80.301 13.4998 80.451 13.4998C81.651 13.4998 82.851 13.3498 84.201 13.4998C84.651 13.4998 85.101 13.6498 85.551 13.9498C85.851 14.0998 85.851 14.0998 85.401 14.3998Z" fill="#B8B8B8"/>
<path fill-rule="evenodd" clip-rule="evenodd" d="M85.4018 16.9496C84.9518 17.0996 84.6518 17.0996 84.2018 17.2496C84.2018 16.9496 84.2018 16.4996 84.0518 16.1996C84.0518 16.0496 84.0518 15.8996 84.3518 15.8996C84.3518 16.1996 84.3518 16.4996 84.5018 16.7996C84.9518 16.7996 85.1018 16.7996 84.9518 16.3496C84.9518 16.1996 84.9518 16.0496 84.9518 15.8996L84.8018 15.7496C84.9518 15.7496 85.1018 15.5996 85.2518 15.5996C85.2518 16.0496 85.4018 16.4996 85.4018 16.9496Z" fill="#B8B8B8"/>
<path fill-rule="evenodd" clip-rule="evenodd" d="M84.6512 15.75L84.8012 15.9C84.8012 16.05 84.8012 16.2 84.8012 16.35C84.8012 16.8 84.8012 16.8 84.3512 16.8C84.3512 16.5 84.3512 16.2 84.2012 15.9C84.5012 15.75 84.6512 15.75 84.6512 15.75Z" fill="white"/>
<path fill-rule="evenodd" clip-rule="evenodd" d="M94.1006 20.1001C93.9506 20.4001 93.8006 20.4001 93.5006 20.5501C92.9006 20.7001 92.3006 20.7001 91.7006 20.8501C90.8006 21.0001 90.0506 20.8501 89.1506 20.7001C88.8506 20.7001 88.4006 20.4001 88.1006 20.4001C88.4006 20.1001 88.7006 20.1001 89.1506 20.1001C90.0506 19.9501 90.8006 19.9501 91.7006 19.9501C92.6006 19.8001 93.3506 19.8001 94.1006 20.1001Z" fill="white"/>
<path fill-rule="evenodd" clip-rule="evenodd" d="M94.1011 20.1002C93.3511 19.8002 92.6011 19.8002 91.8511 19.8002C90.9511 19.8002 90.2011 19.8002 89.3011 19.9502C89.0011 19.9502 88.5511 20.1002 88.2511 20.2502C87.9511 19.9502 87.9511 19.6502 88.4011 19.5002C88.7011 19.3502 89.1511 19.3502 89.6011 19.2002C90.6511 19.2002 91.7011 19.2002 92.7511 19.2002C93.2011 19.2002 93.6511 19.3502 93.9511 19.5002C94.1011 19.8002 94.2511 19.8002 94.1011 20.1002Z" fill="#B8B8B8"/>
<path fill-rule="evenodd" clip-rule="evenodd" d="M93.9512 22.8C93.5012 22.95 93.0512 23.25 92.4512 23.25C92.4512 22.8 92.4512 22.2 92.4512 21.75C92.4512 21.75 92.4512 21.75 92.4512 21.6C92.6012 21.6 92.6012 21.6 92.7512 21.6C92.7512 21.9 92.7512 22.05 92.7512 22.35C92.7512 22.5 92.7512 22.65 93.0512 22.65C93.2012 22.65 93.5012 22.5 93.5012 22.35C93.5012 22.05 93.5012 21.75 93.5012 21.45C93.3512 21.45 93.2012 21.45 93.0512 21.45C93.2012 21.45 93.5012 21.3 93.8012 21.3C93.9512 21.75 93.9512 22.2 93.9512 22.8Z" fill="#B8B8B8"/>
<path fill-rule="evenodd" clip-rule="evenodd" d="M93.2014 21.45C93.3514 21.45 93.3514 21.45 93.6514 21.45C93.6514 21.75 93.6514 22.05 93.6514 22.35C93.6514 22.5 93.3514 22.65 93.2014 22.65C92.9014 22.65 92.9014 22.5 92.9014 22.35C92.9014 22.05 92.9014 21.9 92.9014 21.6C92.9014 21.45 93.0514 21.45 93.2014 21.45Z" fill="white"/>
<path fill-rule="evenodd" clip-rule="evenodd" d="M93.5012 8.55C93.3512 8.7 93.0512 8.85 92.9012 8.85C91.5512 9.15 90.2012 9.3 88.8512 9C88.5512 9 88.2512 8.85 87.9512 8.7C87.9512 8.4 88.2512 8.4 88.4012 8.4C88.8512 8.25 89.4512 8.25 89.9012 8.25C90.6512 8.25 91.5512 8.25 92.3012 8.25C92.7512 8.25 93.2012 8.4 93.5012 8.55Z" fill="white"/>
<path fill-rule="evenodd" clip-rule="evenodd" d="M93.5012 8.55002C93.2012 8.25002 92.7512 8.25002 92.3012 8.25002C91.5512 8.25002 90.6512 8.25002 89.9012 8.25002C89.4512 8.25002 88.8512 8.40002 88.4012 8.40002C88.2512 8.40002 87.9512 8.40002 87.9512 8.70002C87.6512 8.55002 87.5012 8.25002 87.8012 8.10002C87.9512 7.95002 88.2512 7.80002 88.4012 7.80002C89.6012 7.65002 90.9512 7.50002 92.1512 7.65002C92.6012 7.65002 93.0512 7.80002 93.5012 8.10002C93.6512 8.25002 93.8012 8.40002 93.5012 8.55002Z" fill="#B8B8B8"/>
<path fill-rule="evenodd" clip-rule="evenodd" d="M93.3512 11.25C93.2012 11.25 92.9012 11.4 92.7512 11.4C92.4512 11.55 92.0012 11.55 91.7012 11.55C91.7012 11.1 91.7012 10.65 91.7012 10.2C91.7012 9.9 91.8512 9.75 92.1512 9.9C92.1512 10.2 92.1512 10.5 92.1512 10.65C92.1512 10.8 92.1512 10.95 92.3012 11.1C92.4512 11.1 92.9012 10.95 92.9012 10.8C92.9012 10.5 93.0512 10.05 92.9012 9.75C93.0512 9.75 93.0512 9.75 93.2012 9.75C93.3512 9.75 93.5012 9.9 93.5012 10.05C93.3512 10.5 93.3512 10.8 93.3512 11.25Z" fill="#B8B8B8"/>
<path fill-rule="evenodd" clip-rule="evenodd" d="M92.751 9.8999C93.051 10.1999 92.901 10.6499 92.751 10.9499C92.751 11.0999 92.301 11.2499 92.151 11.2499C92.001 11.0999 92.001 10.9499 92.001 10.7999C92.001 10.4999 92.001 10.1999 92.001 10.0499C92.301 9.8999 92.451 9.8999 92.751 9.8999Z" fill="white"/>
<path fill-rule="evenodd" clip-rule="evenodd" d="M74.6012 15.45C74.6012 16.2 74.0012 16.65 73.4012 16.65H68.9012C68.1512 16.65 67.7012 16.05 67.7012 15.45C67.7012 14.7 68.3012 14.25 68.9012 14.25H73.4012C74.0012 14.25 74.6012 14.7 74.6012 15.45Z" fill="black"/>
<path d="M70.8504 40.6499C50.0004 40.6499 29.1504 40.6499 8.30039 40.6499C6.65039 53.5499 4.85039 67.3499 2.90039 81.7499C5.00039 83.5499 7.10039 85.3499 9.35039 87.2999C30.0504 83.9999 50.6004 82.4999 71.0004 82.4999C91.4004 82.4999 111.95 83.9999 132.65 87.2999C134.75 85.4999 136.85 83.6999 138.95 81.7499C137 67.1999 135.05 53.5499 133.4 40.6499C112.55 40.6499 91.7004 40.6499 70.8504 40.6499Z" fill="black"/>
<path d="M135.35 78.9C113.75 76.05 92.3004 74.7 71.0004 74.7C49.7004 74.7 28.2504 76.05 6.65039 78.9C8.60039 80.4 10.5504 81.9 12.5004 83.4C12.5004 82.8 12.3504 82.05 12.3504 81.45C32.0004 78.9 51.5004 77.7 71.0004 77.7C90.5004 77.7 110 78.9 129.65 81.6C129.65 82.2 129.5 82.95 129.5 83.55C131.45 82.05 133.4 80.55 135.35 78.9Z" fill="#FE0000"/>
<path d="M11.1506 43.6498C14.9006 43.6498 18.6506 43.4998 22.4006 43.4998C23.1506 44.2498 24.0506 45.1498 24.8006 45.8998C24.5006 49.3498 24.2006 52.9498 23.7506 56.3998C22.2506 55.4998 20.7506 54.4498 19.1006 53.3998C19.2506 51.4498 19.5506 49.4998 19.7006 47.6998C18.3506 47.6998 16.8506 47.6998 15.5006 47.8498C15.2006 50.6998 14.9006 53.5498 14.4506 56.5498C15.5006 56.5498 16.7006 56.3998 17.7506 56.3998C17.6006 57.8998 17.4506 59.3998 17.3006 60.8998C16.2506 60.8998 15.0506 61.0498 14.0006 61.0498C13.7006 64.0498 13.2506 67.1998 12.9506 70.3498C14.4506 70.1998 15.9506 70.0498 17.4506 69.8998C17.7506 66.8998 18.0506 63.8998 18.3506 60.8998C19.8506 61.7998 21.5006 62.6998 23.0006 63.5998C22.7006 66.1498 22.5506 68.8498 22.2506 71.3998C22.8506 72.1498 23.4506 72.8998 24.0506 73.6498C23.9006 73.7998 23.9006 73.7998 23.7506 73.9498C18.2006 74.3998 12.6506 74.9998 7.10059 75.7498C8.45059 65.3998 9.65059 55.6498 10.8506 46.0498C11.0006 45.2998 11.0006 44.3998 11.1506 43.6498Z" fill="white"/>
<path d="M28.7012 45.9C29.6012 45.15 30.6512 44.25 31.5512 43.5C34.4012 43.5 37.2512 43.5 39.9512 43.5C40.8512 44.25 41.6012 45.15 42.5012 45.9C42.3512 49.05 42.2012 52.2 41.9012 55.5C40.2512 54.6 38.7512 53.7 37.2512 52.8C37.4012 51 37.5512 49.2 37.5512 47.55C36.2012 47.55 34.7012 47.55 33.3512 47.55C33.2012 49.8 33.0512 52.05 32.7512 54.3C35.7512 55.95 38.6012 57.6 41.6012 59.25C41.4512 62.85 41.1512 66.45 41.0012 70.2C40.1012 71.1 39.0512 72 38.1512 72.9C35.1512 73.05 32.0012 73.35 29.0012 73.5C28.1012 72.75 27.2012 71.85 26.4512 70.95C26.7512 67.35 27.0512 63.6 27.3512 60.15C28.8512 61.05 30.5012 61.95 32.1512 62.85C32.0012 64.8 31.8512 66.75 31.7012 68.7C33.2012 68.55 34.7012 68.55 36.2012 68.4C36.3512 66 36.5012 63.75 36.6512 61.35C33.6512 59.7 30.6512 57.9 27.8012 56.1C28.1012 52.8 28.4012 49.35 28.7012 45.9Z" fill="white"/>
<path d="M50.3 69.75C51.05 70.5 51.65 71.25 52.4 72C52.4 72.15 52.25 72.15 52.25 72.3C49.85 72.45 47.6 72.45 45.2 72.6C45.65 63.3 46.1 54.3 46.55 45.75C45.95 45 45.35 44.4 44.75 43.65L44.9 43.5C49.1 43.5 53.45 43.5 57.65 43.5C58.55 44.25 59.3 45 60.2 45.75C60.2 48.9 60.05 51.9 60.05 55.05C56.9 57.15 53.75 59.25 50.6 61.35C50.6 64.05 50.45 66.9 50.3 69.75ZM51.2 47.25C51.05 50.25 50.9 53.4 50.9 56.4C52.4 55.5 53.9 54.45 55.25 53.55C55.25 51.45 55.4 49.35 55.4 47.25C54.05 47.25 52.7 47.25 51.2 47.25Z" fill="white"/>
<path d="M63.2008 45.5999C64.1008 44.8499 65.0008 44.0999 65.9008 43.3499C68.7508 43.3499 71.6008 43.3499 74.4508 43.3499C75.3508 44.0999 76.2508 44.8499 77.0008 45.5999C77.1508 53.2499 77.3008 61.1999 77.4508 69.4499C76.5508 70.1999 75.6508 71.0999 74.7508 71.9999C71.7508 71.9999 68.7508 71.9999 65.7508 71.9999C64.8508 71.0999 63.9508 70.3499 63.0508 69.4499C63.0508 61.1999 63.2008 53.2499 63.2008 45.5999ZM68.0008 47.2499C68.0008 53.8499 68.0008 60.5999 68.0008 67.6499C69.5008 67.6499 71.0008 67.6499 72.3508 67.6499C72.3508 60.5999 72.2008 53.8499 72.2008 47.2499C70.8508 47.2499 69.5008 47.2499 68.0008 47.2499Z" fill="white"/>
<path d="M86.3012 61.0499C86.4512 63.8999 86.4512 66.7499 86.6012 69.5999C87.3512 70.3499 88.1012 71.0999 88.7012 71.9999L88.5512 72.1499C86.1512 71.9999 83.9012 71.9999 81.5012 71.9999C81.2012 62.8499 81.0512 53.9999 80.9012 45.5999C80.3012 44.8499 79.7012 44.2499 78.9512 43.4999L79.1012 43.3499C83.3012 43.3499 87.6512 43.3499 91.8512 43.3499C92.7512 44.0999 93.6512 44.8499 94.5512 45.5999C94.7012 48.7499 94.8512 51.8999 95.1512 55.1999C93.9512 55.9499 92.6012 56.8499 91.4012 57.5999C92.9012 61.6499 94.4012 65.6999 96.0512 69.8999C96.9512 70.6499 98.0012 71.5499 98.9012 72.2999L98.7512 72.4499C96.3512 72.2999 94.1012 72.1499 91.7012 72.1499C90.2012 68.0999 88.7012 64.0499 87.3512 60.1499C87.0512 60.5999 86.7512 60.8999 86.3012 61.0499ZM85.8512 47.2499C86.0012 50.2499 86.0012 53.2499 86.1512 56.3999C87.5012 55.4999 89.0012 54.5999 90.3512 53.6999C90.2012 51.5999 90.2012 49.3499 90.0512 47.2499C88.7012 47.2499 87.2012 47.2499 85.8512 47.2499Z" fill="white"/>
<path d="M98.0008 49.7998C97.8508 47.6998 97.7008 45.5998 97.5508 43.4998C103.101 43.4998 108.801 43.4998 114.351 43.6498C114.501 45.7498 114.801 47.9998 114.951 50.2498C113.901 49.3498 112.851 48.5998 111.801 47.6998C110.751 47.6998 109.701 47.6998 108.651 47.6998C109.251 55.1998 110.001 62.9998 110.601 70.9498C111.351 71.8498 112.101 72.5998 112.851 73.4998C112.851 73.4998 112.851 73.6498 112.701 73.6498C110.301 73.4998 108.051 73.3498 105.651 73.1998C105.051 64.3498 104.301 55.7998 103.701 47.5498C102.651 47.5498 101.601 47.5498 100.701 47.5498C99.9508 48.1498 99.0508 48.8998 98.0008 49.7998Z" fill="white"/>
<path d="M117.201 45.9C117.951 45.15 118.851 44.25 119.601 43.5C122.451 43.5 125.301 43.5 128.001 43.65C129.051 44.55 129.951 45.45 131.001 46.2C131.451 49.65 131.901 53.1 132.351 56.7C130.551 55.65 128.751 54.45 127.101 53.4C126.801 51.45 126.651 49.65 126.351 47.7C125.001 47.7 123.501 47.7 122.151 47.55C122.451 49.8 122.601 52.2 122.901 54.6C126.201 56.55 129.501 58.65 132.951 60.75C133.401 64.65 134.001 68.7 134.451 72.75C133.701 73.65 132.801 74.4 132.051 75.3C129.051 75 125.901 74.55 122.901 74.25C121.851 73.2 120.801 72.3 119.751 71.25C119.301 67.5 119.001 63.9 118.701 60.3C120.501 61.35 122.301 62.55 124.101 63.6C124.401 65.7 124.551 67.65 124.851 69.75C126.351 69.9 127.851 70.05 129.351 70.2C129.051 67.65 128.751 65.25 128.451 62.7C125.151 60.45 121.701 58.35 118.401 56.4C117.801 52.95 117.501 49.35 117.201 45.9Z" fill="white"/>
<path d="M7.85059 75.1497C9.05059 65.0997 10.2506 55.3497 11.4506 46.0497C11.4506 45.4497 11.4506 44.6997 11.6006 44.0997C15.2006 44.0997 18.6506 43.9497 22.2506 43.9497C23.0006 44.6997 23.6006 45.2997 24.3506 46.0497C24.0506 49.1997 23.7506 52.3497 23.4506 55.4997C22.2506 54.7497 21.0506 53.9997 19.8506 53.2497C20.0006 51.2997 20.3006 49.1997 20.4506 47.2497C18.6506 47.2497 17.0006 47.2497 15.2006 47.3997C14.9006 50.5497 14.4506 53.8497 14.1506 57.1497C15.2006 57.1497 16.4006 56.9997 17.4506 56.9997C17.3006 58.1997 17.1506 59.3997 17.0006 60.5997C15.9506 60.5997 14.7506 60.7497 13.7006 60.7497C13.2506 64.1997 12.9506 67.6497 12.5006 71.0997C14.3006 70.9497 16.2506 70.7997 18.0506 70.6497C18.3506 67.7997 18.6506 64.7997 18.9506 61.9497C20.1506 62.6997 21.5006 63.4497 22.7006 64.0497C22.4006 66.5997 22.2506 69.1497 21.9506 71.8497C22.4006 72.4497 23.0006 73.0497 23.4506 73.6497C18.2006 73.9497 13.1006 74.5497 7.85059 75.1497Z" fill="url(#paint2_linear_107_152)"/>
<path d="M29.3008 73.0498C28.5508 72.2998 27.8008 71.5498 27.0508 70.7998C27.3508 67.4998 27.6508 64.1998 27.9508 61.0498C29.1508 61.7998 30.5008 62.5498 31.7008 63.1498C31.5508 65.2498 31.4008 67.1998 31.2508 69.2998C33.0508 69.1498 34.8508 68.9998 36.8008 68.9998C36.9508 66.4498 37.1008 63.7498 37.4008 61.1998C34.4008 59.5498 31.4008 57.7498 28.5508 55.9498C28.8508 52.4998 29.1508 49.1998 29.4508 45.8998C30.3508 45.1498 31.1008 44.3998 32.0008 43.7998C34.7008 43.7998 37.4008 43.7998 40.1008 43.7998C40.8508 44.5498 41.6008 45.1498 42.3508 45.8998C42.2008 48.7498 42.0508 51.5998 41.9008 54.4498C40.7008 53.6998 39.3508 53.0998 38.1508 52.3498C38.3008 50.5498 38.4508 48.7498 38.4508 46.7998C36.6508 46.7998 35.0008 46.7998 33.2008 46.7998C33.0508 49.3498 32.7508 51.7498 32.6008 54.2998C35.6008 55.9498 38.4508 57.5998 41.4508 59.2498C41.3008 62.6998 41.0008 66.1498 40.8508 69.7498C39.9508 70.4998 39.2008 71.3998 38.3008 72.1498C35.1508 72.5998 32.3008 72.7498 29.3008 73.0498Z" fill="url(#paint3_linear_107_152)"/>
<path d="M45.6504 71.9998C46.1004 62.8498 46.5504 53.9998 47.0004 45.4498C46.5504 44.8498 46.1004 44.3998 45.6504 43.7998C49.7004 43.7998 53.6004 43.7998 57.6504 43.7998C58.4004 44.3998 59.1504 45.1498 59.9004 45.7498C59.9004 48.7498 59.7504 51.5998 59.7504 54.7498C56.6004 56.8498 53.4504 58.9498 50.3004 61.0498C50.1504 64.0498 50.0004 67.0498 50.0004 70.0498C50.6004 70.6498 51.0504 71.2498 51.6504 71.8498C49.5504 71.8498 47.6004 71.8498 45.6504 71.9998ZM50.3004 57.2998C52.1004 56.0998 53.9004 54.8998 55.7004 53.6998C55.7004 51.2998 55.8504 49.0498 55.8504 46.6498C54.0504 46.6498 52.4004 46.6498 50.6004 46.6498C50.6004 50.2498 50.4504 53.8498 50.3004 57.2998Z" fill="url(#paint4_linear_107_152)"/>
<path d="M65.9 71.3998C65.15 70.6498 64.25 69.8998 63.5 69.1498C63.65 61.0498 63.65 53.2498 63.8 45.7498C64.55 45.1498 65.45 44.3998 66.2 43.7998C68.9 43.7998 71.6 43.7998 74.3 43.7998C75.05 44.5498 75.8 45.1498 76.7 45.8998C76.85 53.3998 77 61.3498 77 69.2998C76.25 70.0498 75.35 70.7998 74.6 71.5498C71.6 71.3998 68.75 71.3998 65.9 71.3998ZM67.4 68.0998C69.2 68.0998 71 68.0998 72.8 68.0998C72.8 60.7498 72.65 53.6998 72.65 46.7998C70.85 46.7998 69.2 46.7998 67.4 46.7998C67.55 53.6998 67.55 60.7498 67.4 68.0998Z" fill="url(#paint5_linear_107_152)"/>
<path d="M92.3006 71.8498C90.8006 67.6498 89.3006 63.5998 87.8006 59.5498C87.2006 59.9998 86.6006 60.4498 85.8506 60.8998C86.0006 63.8998 86.0006 66.7498 86.1506 69.7498C86.7506 70.3498 87.3506 70.9498 87.8006 71.6998C85.8506 71.6998 84.0506 71.5498 82.1006 71.5498C81.8006 62.5498 81.6506 53.8498 81.3506 45.4498C80.9006 44.8498 80.3006 44.3998 79.8506 43.7998C83.9006 43.7998 87.8006 43.7998 91.8506 43.7998C92.6006 44.5498 93.5006 45.1498 94.2506 45.8998C94.4006 48.8998 94.5506 52.0498 94.7006 55.0498C93.5006 55.9498 92.1506 56.6998 90.9506 57.5998C92.4506 61.7998 94.1006 65.9998 95.7506 70.3498C96.5006 70.9498 97.2506 71.5498 98.0006 72.1498C96.0506 71.9998 94.1006 71.8498 92.3006 71.8498ZM85.7006 57.1498C87.5006 56.0998 89.1506 54.8998 90.9506 53.8498C90.8006 51.4498 90.8006 49.0498 90.6506 46.7998C88.8506 46.7998 87.2006 46.7998 85.4006 46.7998C85.4006 50.2498 85.5506 53.6998 85.7006 57.1498Z" fill="url(#paint6_linear_107_152)"/>
<path d="M106.4 72.5998C105.8 63.7498 105.05 55.1998 104.45 46.9498C103.25 46.9498 101.9 46.9498 100.7 46.9498C99.9504 47.5498 99.2004 48.1498 98.4504 48.7498C98.3004 47.0998 98.3004 45.4498 98.1504 43.7998C103.4 43.7998 108.65 43.7998 113.9 43.9498C114.05 45.5998 114.2 47.2498 114.35 49.0498C113.6 48.4498 112.7 47.6998 111.95 47.0998C110.75 47.0998 109.4 47.0998 108.2 47.0998C108.8 54.7498 109.55 62.8498 110.15 71.0998C110.75 71.8498 111.35 72.4498 111.95 73.1998C110.15 72.8998 108.2 72.7498 106.4 72.5998Z" fill="url(#paint7_linear_107_152)"/>
<path d="M123.05 73.9499C122.15 73.0499 121.25 72.1499 120.35 71.2499C120.05 67.9499 119.6 64.6499 119.3 61.3499C120.65 62.2499 122.15 63.1499 123.5 64.0499C123.8 66.1499 123.95 68.2499 124.25 70.4999C126.05 70.6499 128 70.7999 129.8 70.9499C129.5 68.0999 129.05 65.3999 128.75 62.6999C125.45 60.4499 122 58.3499 118.7 56.3999C118.4 52.9499 117.95 49.4999 117.65 46.1999C118.4 45.4499 119.15 44.8499 119.75 44.0999C122.45 44.0999 125.15 44.0999 127.85 44.2499C128.75 44.9999 129.65 45.7499 130.55 46.6499C131 49.7999 131.3 52.7999 131.75 55.9499C130.4 55.0499 128.9 54.2999 127.55 53.3999C127.25 51.4499 127.1 49.4999 126.8 47.5499C125 47.5499 123.35 47.3999 121.55 47.3999C121.85 49.9499 122.15 52.4999 122.45 55.1999C125.75 57.1499 129.05 59.2499 132.5 61.3499C132.95 65.0999 133.55 68.9999 134 72.8999C133.25 73.6499 132.5 74.3999 131.9 75.1499C128.9 74.5499 125.9 74.2499 123.05 73.9499Z" fill="url(#paint8_linear_107_152)"/>
<path d="M71.0004 80.55L72.6504 85.35H77.6004L73.5504 88.2L75.0504 93L71.0004 90.15L66.9504 93L68.4504 88.2L64.4004 85.35H69.5004L71.0004 80.55Z" fill="#B8B8B8"/>
<defs>
<linearGradient id="paint0_linear_107_152" x1="20.6965" y1="80.2557" x2="121.363" y2="80.2557" gradientUnits="userSpaceOnUse">
<stop stop-color="#BCBEC0"/>
<stop offset="0.4516" stop-color="white"/>
<stop offset="1" stop-color="#BCBEC0"/>
</linearGradient>
<radialGradient id="paint1_radial_107_152" cx="0" cy="0" r="1" gradientUnits="userSpaceOnUse" gradientTransform="translate(69.738 95.7171) scale(22.3389 22.3389)">
<stop offset="0.1699" stop-color="white"/>
<stop offset="0.7581" stop-color="#BCBEC0"/>
</radialGradient>
<linearGradient id="paint2_linear_107_152" x1="16.1058" y1="43.9787" x2="16.1058" y2="75.1431" gradientUnits="userSpaceOnUse">
<stop offset="0.4516" stop-color="white"/>
<stop offset="0.4624" stop-color="#BCBEC0"/>
<stop offset="0.6183" stop-color="white"/>
</linearGradient>
<linearGradient id="paint3_linear_107_152" x1="34.5833" y1="43.8339" x2="34.5833" y2="73.0314" gradientUnits="userSpaceOnUse">
<stop offset="0.4516" stop-color="white"/>
<stop offset="0.4624" stop-color="#BCBEC0"/>
<stop offset="0.6183" stop-color="white"/>
</linearGradient>
<linearGradient id="paint4_linear_107_152" x1="52.7358" y1="43.7532" x2="52.7358" y2="72.0025" gradientUnits="userSpaceOnUse">
<stop offset="0.4516" stop-color="white"/>
<stop offset="0.4624" stop-color="#BCBEC0"/>
<stop offset="0.6183" stop-color="white"/>
</linearGradient>
<linearGradient id="paint5_linear_107_152" x1="70.1851" y1="43.7349" x2="70.1851" y2="71.4253" gradientUnits="userSpaceOnUse">
<stop offset="0.4516" stop-color="white"/>
<stop offset="0.4624" stop-color="#BCBEC0"/>
<stop offset="0.6183" stop-color="white"/>
</linearGradient>
<linearGradient id="paint6_linear_107_152" x1="88.9538" y1="43.7433" x2="88.9538" y2="72.0873" gradientUnits="userSpaceOnUse">
<stop offset="0.4516" stop-color="white"/>
<stop offset="0.4624" stop-color="#BCBEC0"/>
<stop offset="0.6183" stop-color="white"/>
</linearGradient>
<linearGradient id="paint7_linear_107_152" x1="106.346" y1="43.8115" x2="106.346" y2="72.9904" gradientUnits="userSpaceOnUse">
<stop offset="0.4516" stop-color="white"/>
<stop offset="0.4624" stop-color="#BCBEC0"/>
<stop offset="0.6183" stop-color="white"/>
</linearGradient>
<linearGradient id="paint8_linear_107_152" x1="125.805" y1="43.9811" x2="125.805" y2="74.8782" gradientUnits="userSpaceOnUse">
<stop offset="0.4516" stop-color="white"/>
<stop offset="0.4624" stop-color="#BCBEC0"/>
<stop offset="0.6183" stop-color="white"/>
</linearGradient>
</defs>
</svg>
