<svg width="93" height="121" viewBox="0 0 93 121" fill="none" xmlns="http://www.w3.org/2000/svg">
<g clip-path="url(#clip0_156_60)">
<path d="M84.3005 38.635C83.2505 36.385 81.9005 34.435 81.0005 32.185C79.8005 28.885 80.8505 26.335 81.7505 23.335C78.7505 25.585 77.1005 28.285 74.8505 31.285C70.9505 29.635 69.1505 25.735 68.7005 21.685C68.5505 19.735 68.8505 11.785 71.5505 11.185C67.6505 12.235 59.7005 18.385 58.8005 22.585C59.7005 18.085 56.2505 15.235 54.9005 11.335C54.3005 9.83503 53.8505 2.33503 56.4005 0.535034C49.5005 0.985034 43.0505 4.28503 37.9505 8.78503C32.8505 13.435 27.3005 20.485 25.3505 27.385C23.5505 22.285 17.8505 18.985 13.0505 17.335C15.7505 19.285 16.6505 23.035 16.0505 26.335C15.4505 29.635 13.6505 32.485 11.8505 35.335C8.25054 41.035 5.40054 48.385 7.95054 55.285C8.70054 57.235 9.90054 59.185 11.2505 60.685L12.0005 46.435C12.0005 46.135 12.7505 40.435 18.4505 38.635C18.9005 38.485 19.2005 38.185 19.3505 37.735L19.5005 37.135C20.1005 35.635 21.4505 34.735 23.1005 34.735H29.8505C31.5005 34.735 33.1505 35.935 33.6005 37.585L34.3505 39.985C34.5005 40.585 35.1005 41.035 35.7005 41.035H57.9005C58.5005 41.035 59.1005 40.585 59.2505 39.985L60.0005 37.585C60.4505 35.935 61.9505 34.735 63.7505 34.735H70.5005C72.1505 34.735 73.5005 35.635 74.1005 37.135L74.2505 37.735C74.4005 38.185 74.7005 38.485 75.1505 38.635C80.8505 40.435 81.4505 46.135 81.6005 46.435V46.585L82.5005 63.235C88.8005 57.535 87.6005 45.385 84.3005 38.635ZM45.4505 9.38503C44.8505 9.83503 44.1005 10.435 43.2005 11.035C42.7505 11.335 42.3005 11.785 41.7005 12.235C41.2505 12.685 40.6505 13.135 40.2005 13.585C39.7505 14.035 39.1505 14.635 38.7005 15.235C38.1005 15.835 37.6505 16.435 37.2005 17.035C36.7505 17.635 36.1505 18.235 35.7005 18.835C35.2505 19.435 34.8005 20.035 34.3505 20.635C33.9005 21.235 33.6005 21.835 33.1505 22.435C32.8505 23.035 32.5505 23.485 32.2505 24.085C31.6505 25.135 31.2005 26.035 30.9005 26.635C30.6005 27.235 30.4505 27.685 30.4505 27.685C30.4505 27.685 30.6005 27.235 30.7505 26.635C30.9005 26.335 31.0505 25.885 31.2005 25.435C31.3505 24.985 31.5005 24.535 31.8005 23.935C31.9505 23.335 32.2505 22.735 32.5505 22.135C32.8505 21.535 33.1505 20.935 33.6005 20.185C34.0505 19.585 34.3505 18.835 34.8005 18.235C35.2505 17.635 35.7005 17.035 36.3005 16.285C36.9005 15.685 37.3505 15.085 37.9505 14.485C38.5505 13.885 39.0005 13.435 39.6005 12.835C40.2005 12.385 40.6505 11.935 41.2505 11.485C41.8505 11.035 42.3005 10.735 42.9005 10.435C43.3505 10.135 43.8005 9.83503 44.2505 9.53503C44.7005 9.23503 45.0005 9.08503 45.3005 8.93503C45.9005 8.63503 46.3505 8.48503 46.3505 8.48503C46.3505 8.48503 46.0505 9.08503 45.4505 9.38503Z" fill="#E20303"/>
<path d="M7.35059 62.185C7.05059 61.885 6.90059 61.435 6.60059 61.135C6.30059 60.685 6.00059 60.235 5.70059 59.635C5.55059 59.335 5.40059 59.035 5.25059 58.735C5.10059 58.435 4.95059 58.135 4.80059 57.835C4.65059 57.535 4.50059 57.235 4.35059 56.935C4.20059 56.635 4.05059 56.335 3.90059 55.885C3.75059 55.585 3.60059 55.135 3.45059 54.835C3.15059 54.535 3.00059 54.085 3.00059 53.785C2.85059 53.035 2.70059 52.285 2.70059 51.535C2.70059 50.785 2.70059 50.035 2.70059 49.285C2.70059 48.535 3.00059 47.785 3.15059 47.035C3.45059 45.535 4.05059 44.185 4.50059 43.135C5.10059 41.935 5.55059 41.035 6.00059 40.435C6.45059 39.835 6.60059 39.385 6.60059 39.385C6.60059 39.385 6.15059 39.535 5.55059 40.135C5.25059 40.435 4.80059 40.735 4.50059 41.035C4.05059 41.485 3.60059 41.785 3.30059 42.385C2.40059 43.435 1.50059 44.785 0.900586 46.435C0.450586 47.035 0.150586 47.935 0.000585794 48.835C-0.149414 49.285 -0.149414 49.735 -0.149414 50.185C-0.149414 50.635 -0.149414 51.085 -0.149414 51.685C-0.149414 52.585 0.150586 53.635 0.300586 54.535C0.450586 54.985 0.600586 55.435 0.750586 55.885C0.900586 56.335 1.20059 56.635 1.35059 57.085C1.65059 57.535 1.80059 57.835 2.10059 58.135C2.40059 58.435 2.55059 58.735 2.85059 59.185C3.30059 59.785 3.90059 60.385 4.35059 60.835C4.65059 61.135 4.80059 61.285 5.10059 61.435C5.40059 61.585 5.55059 61.735 5.85059 61.885C6.30059 62.185 6.75059 62.485 7.05059 62.635C7.80059 63.085 8.10059 63.235 8.10059 63.235C8.10059 63.235 7.80059 62.785 7.35059 62.185Z" fill="#E20303"/>
<path d="M92.55 50.4851C92.55 50.0351 92.4 49.7351 92.4 49.2851C92.4 48.9851 92.25 48.5351 92.25 48.2351C92.1 47.4851 91.95 46.8851 91.65 46.2851C91.5 45.6851 91.2 45.0851 90.9 44.6351C90.3 43.5851 89.85 42.8351 89.4 42.2351C88.95 41.6351 88.65 41.4851 88.65 41.4851C88.65 41.4851 88.65 41.7851 88.8 42.5351C88.8 42.8351 88.95 43.2851 88.95 43.7351C88.95 44.1851 89.1 44.6351 89.25 45.2351C89.25 45.8351 89.4 46.2851 89.55 46.8851C89.7 47.4851 89.7 48.0851 89.7 48.8351C89.7 49.4351 89.7 50.1851 89.85 50.7851C89.85 51.0851 89.85 51.3851 89.85 51.8351V52.2851V52.7351L89.7 53.7851C89.7 54.0851 89.55 54.3851 89.55 54.8351C89.55 55.1351 89.4 55.4351 89.4 55.7351C89.25 56.0351 89.25 56.3351 89.1 56.6351C88.95 57.2351 88.8 57.8351 88.5 58.4351C88.35 58.7351 88.35 59.0351 88.2 59.3351C88.05 59.6351 87.9 59.7851 87.9 60.0851C87.6 60.5351 87.45 60.9851 87.3 61.4351C87.15 61.7351 86.85 62.1851 86.7 62.4851C86.4 63.0851 86.25 63.3851 86.25 63.3851C86.25 63.3851 86.55 63.2351 87.15 62.7851C87.45 62.6351 87.75 62.3351 88.2 62.0351C88.5 61.7351 88.95 61.2851 89.25 60.8351C89.4 60.6851 89.7 60.3851 89.85 60.0851C90 59.7851 90.15 59.4851 90.45 59.3351C90.75 58.7351 91.2 58.1351 91.5 57.3851C91.65 57.0851 91.8 56.6351 91.95 56.3351C92.1 56.0351 92.1 55.5851 92.25 55.2851C92.4 54.8351 92.4 54.5351 92.55 54.0851L92.7 52.8851C92.7 52.1351 92.7 51.3851 92.55 50.4851Z" fill="#E20303"/>
<path d="M60.151 0.535034C55.051 3.53503 58.501 13.885 58.501 13.885C56.701 6.53503 60.151 0.535034 60.151 0.535034Z" fill="#E20303"/>
<path d="M74.7012 13.8849C69.4512 19.1349 73.5012 27.6849 73.5012 27.6849C72.1512 22.4349 74.7012 13.8849 74.7012 13.8849Z" fill="#E20303"/>
<path d="M24.9006 21.385C25.6506 11.185 17.1006 13.885 17.1006 13.885C23.5506 14.485 24.9006 21.385 24.9006 21.385Z" fill="#E20303"/>
<path d="M10.3506 107.485C8.70059 107.485 7.35059 108.835 7.35059 110.485C7.35059 112.135 8.70059 113.485 10.3506 113.485C12.0006 113.485 13.3506 112.135 13.3506 110.485C13.2006 108.835 12.0006 107.485 10.3506 107.485Z" fill="#E20303"/>
<path d="M85.5 107.485C83.85 107.485 82.5 108.835 82.5 110.485C82.5 112.135 83.85 113.485 85.5 113.485C87.15 113.485 88.5 112.135 88.5 110.485C88.35 108.835 87 107.485 85.5 107.485Z" fill="#E20303"/>
<path d="M35.4 56.0352C35.7 56.1852 36.15 56.3352 36.6 56.7852C37.05 57.2352 37.2 57.8352 37.2 58.5852V58.8852V59.1852C37.2 59.3352 37.05 59.4852 37.05 59.6352C36.9 59.9352 36.6 60.2352 36.45 60.3852C36.15 60.5352 35.85 60.8352 35.55 60.8352C35.4 60.8352 35.25 60.8352 35.1 60.8352C34.95 60.8352 34.8 60.8352 34.65 60.8352C34.05 60.6852 33.45 60.2352 33.15 59.7852C32.85 59.3352 32.7 58.8852 32.7 58.4352C32.7 58.1352 32.7 57.8352 32.7 57.8352C32.7 57.8352 32.7 57.9852 32.55 58.4352C32.55 58.7352 32.55 59.3352 32.85 59.9352C33.15 60.5352 33.75 61.1352 34.65 61.2852C34.8 61.2852 35.1 61.4352 35.25 61.4352C35.55 61.4352 35.7 61.4352 36 61.4352C36.45 61.2852 36.9 61.1352 37.2 60.8352C37.5 60.5352 37.8 60.2352 38.1 59.7852C38.25 59.6352 38.25 59.3352 38.25 59.1852C38.25 59.0352 38.25 58.8852 38.25 58.8852V58.5852C38.25 57.6852 37.8 56.9352 37.35 56.6352C36.3 56.0352 35.85 55.8852 35.4 56.0352C35.25 55.8852 35.1 55.8852 34.95 55.8852C34.8 55.8852 34.8 55.8852 34.8 55.8852C34.8 55.8852 35.1 55.8852 35.4 56.0352Z" fill="#F9F9F9"/>
<path d="M88.2 88.5852V83.3352C88.2 81.2352 86.55 79.5852 84.45 79.5852H81H78.3C80.1 78.3852 81.15 76.4352 81.15 74.1852L80.55 64.2852L79.65 46.5852C79.65 46.5852 79.2 41.7852 74.55 40.4352C73.65 40.1352 72.9 39.3852 72.45 38.4852L72.3 38.0352C72 37.2852 71.25 36.6852 70.35 36.6852H63.6C62.7 36.6852 61.95 37.2852 61.65 38.1852L60.9 40.5852C60.45 41.9352 59.25 42.9852 57.75 42.9852H46.65H35.55C34.05 42.9852 32.85 42.0852 32.4 40.5852L31.65 38.1852C31.35 37.2852 30.6 36.6852 29.7 36.6852H22.95C22.05 36.6852 21.3 37.1352 21 38.0352V38.4852C20.7 39.3852 19.95 40.1352 18.9 40.4352C14.25 41.7852 13.8 46.5852 13.8 46.5852L12.9 62.3352L12.3 74.1852C12.3 76.2852 13.35 78.0852 14.85 79.2852C14.1 79.2852 13.35 79.4352 12.6 79.7352C7.95 81.2352 4.5 86.0352 4.5 91.7352C4.5 98.6352 9.15 103.735 15.6 103.735C16.05 103.735 16.5 103.735 16.95 103.585C15.75 105.235 15.15 107.335 15.15 109.585C15.15 115.885 20.1 120.535 26.55 120.535C30.3 120.535 33.6 118.885 35.55 116.485L36.15 117.985C36.75 119.485 38.1 120.385 39.6 120.385H44.4C45.75 120.385 46.95 119.635 47.55 118.585C48.15 119.635 49.35 120.385 50.7 120.385H62.85C63.15 120.385 63.45 120.385 63.75 120.235C64.05 120.235 64.35 120.385 64.65 120.385H69.3C69.9 120.385 70.5 120.235 70.95 119.935C71.4 120.235 72 120.385 72.6 120.385H77.85C79.2 120.385 80.4 119.635 81 118.435C81.6 117.235 81.6 115.885 81 114.685L79.65 112.435C80.55 111.085 81 109.435 81 107.485C81 105.985 80.7 104.635 80.1 103.435H84.15C86.25 103.435 87.9 101.785 87.9 99.6852V94.2852C87.9 93.0852 87.3 92.0352 86.4 91.2852C87.6 90.8352 88.2 89.7852 88.2 88.5852ZM70.35 79.5852C70.2 79.5852 69.9 79.5852 69.75 79.5852C69.6 79.5852 69.3 79.5852 69.15 79.5852H68.7H60.15C59.25 79.5852 58.5 79.8852 57.75 80.4852C57.15 80.0352 56.25 79.5852 55.35 79.5852H46.35C44.85 79.5852 43.5 80.4852 42.9 81.8352C42.3 80.4852 40.95 79.5852 39.45 79.5852H30.3C28.95 79.5852 27.75 80.3352 27.15 81.3852C26.55 80.4852 25.65 79.8852 24.6 79.5852C24.45 79.5852 24.15 79.5852 24 79.5852H22.05C22.65 79.1352 23.1 78.6852 23.55 78.0852L29.25 70.1352C29.7 69.3852 30.75 69.2352 31.35 69.8352C32.55 70.7352 34.05 71.3352 35.85 71.3352C39.15 71.3352 42 69.0852 42.9 66.0852C43.05 65.4852 43.65 65.1852 44.1 65.1852H46.5H48.9C49.5 65.1852 49.95 65.4852 50.1 66.0852C51 69.0852 53.85 71.3352 57.15 71.3352C58.8 71.3352 60.3 70.7352 61.65 69.8352C62.4 69.3852 63.3 69.5352 63.75 70.1352L69.45 78.0852C69.9 78.6852 70.35 79.1352 70.95 79.5852H70.35ZM23.1 43.8852H26.55V46.7352L25.65 47.6352L24.9 48.5352L24.15 47.7852L23.25 46.8852V43.8852H23.1ZM75.75 50.1852C75.75 51.3852 74.7 52.4352 73.5 52.4352C72.3 52.4352 71.25 51.3852 71.25 50.1852C71.25 48.9852 72.3 47.9352 73.5 47.9352C74.7 47.9352 75.75 48.9852 75.75 50.1852ZM68.7 57.3852C67.5 57.3852 66.45 56.3352 66.45 55.1352C66.45 53.9352 67.5 52.8852 68.7 52.8852C69.9 52.8852 70.95 53.9352 70.95 55.1352C70.95 56.3352 69.9 57.3852 68.7 57.3852ZM68.7 47.4852C67.5 47.4852 66.45 46.4352 66.45 45.2352C66.45 44.0352 67.5 42.9852 68.7 42.9852C69.9 42.9852 70.95 44.0352 70.95 45.2352C70.95 46.5852 69.9 47.4852 68.7 47.4852ZM66 50.1852C66 51.3852 64.95 52.4352 63.75 52.4352C62.55 52.4352 61.5 51.3852 61.5 50.1852C61.5 48.9852 62.55 47.9352 63.75 47.9352C64.95 47.9352 66 48.9852 66 50.1852ZM63.15 58.5852C63.15 60.9852 61.2 62.9352 58.8 62.9352C56.4 62.9352 54.45 60.9852 54.45 58.5852C54.45 56.1852 56.4 54.2352 58.8 54.2352C61.05 54.2352 63.15 56.1852 63.15 58.5852ZM39.3 58.5852C39.3 60.9852 37.35 62.9352 34.95 62.9352C32.55 62.9352 30.6 60.9852 30.6 58.5852C30.6 56.1852 32.55 54.2352 34.95 54.2352C37.35 54.2352 39.3 56.1852 39.3 58.5852ZM30.45 51.2352H27.6L26.7 50.3352L25.95 49.5852L26.7 48.8352L27.6 47.9352H30.45V51.2352ZM23.1 52.1352L24 51.2352L24.75 50.4852L25.5 51.2352L26.4 52.1352V54.9852H22.95V52.1352H23.1ZM22.2 47.7852L23.1 48.6852L23.85 49.4352L23.1 50.1852L22.2 51.0852H19.35V47.6352H22.2V47.7852ZM15 60.0852C15.15 58.1352 15.3 56.3352 15.3 54.6852C15.3 54.5352 15.3 54.3852 15.3 54.2352C15.45 52.8852 15.6 51.6852 15.6 50.7852C15.75 49.8852 15.75 49.2852 15.75 49.2852C15.75 49.2852 15.75 49.7352 15.75 50.7852C15.75 51.6852 15.75 53.0352 15.75 54.5352C15.75 56.0352 15.75 57.9852 15.6 59.9352C15.6 60.9852 15.6 62.1852 15.45 63.2352C15.45 64.1352 15.45 65.0352 15.3 65.9352C15.3 66.9852 15.15 68.0352 15.15 69.0852C15.15 70.1352 15 71.1852 15 72.0852C15.15 72.9852 15.45 73.8852 15.9 74.4852C16.35 75.2352 16.95 75.6852 17.7 75.9852C18.3 76.2852 19.05 76.4352 19.65 76.4352C20.25 76.4352 20.7 76.1352 21.15 75.9852C21.6 75.6852 21.9 75.5352 22.05 75.3852C22.2 75.2352 22.35 75.0852 22.35 75.0852C22.35 75.0852 22.2 75.2352 22.05 75.3852C21.9 75.5352 21.6 75.8352 21.3 76.1352C20.85 76.4352 20.4 76.7352 19.8 76.8852C19.2 77.0352 18.3 77.0352 17.55 76.5852C16.8 76.2852 16.05 75.6852 15.45 74.9352C14.85 74.1852 14.4 73.1352 14.4 72.2352C14.4 71.6352 14.4 71.1852 14.4 70.7352C14.4 70.5852 14.4 70.4352 14.4 70.2852C14.4 69.9852 14.4 69.5352 14.4 69.2352C14.4 68.1852 14.55 67.1352 14.55 66.0852C14.55 65.1852 14.7 64.1352 14.7 63.2352C14.85 62.1852 14.85 61.1352 15 60.0852ZM86.85 88.5852C86.85 89.7852 85.8 90.8352 84.6 90.8352H83.55V92.1852H84.6C85.8 92.1852 86.85 93.2352 86.85 94.4352V99.8352C86.85 101.035 85.8 102.085 84.6 102.085H79.65H77.7C78.15 102.535 78.6 102.985 78.9 103.435C79.65 104.485 79.95 105.985 79.95 107.485C79.95 109.435 79.35 111.085 78.3 112.435L80.1 115.435C80.55 116.185 80.55 117.085 80.1 117.835C79.65 118.585 78.9 119.035 78.15 119.035H72.9C72.3 119.035 71.55 118.735 71.25 118.285C70.8 118.735 70.2 119.035 69.6 119.035H66H64.95C64.65 119.035 64.35 119.035 64.05 118.885C63.75 119.035 63.45 119.035 63.15 119.035H62.1H51C49.8 119.035 48.75 117.985 48.75 116.785V112.885L47.4 116.485L46.95 117.535C46.65 118.435 45.75 119.035 44.85 119.035H40.05C39.15 119.035 38.25 118.435 37.95 117.535L37.05 115.135L36.45 113.335C36.15 113.935 35.85 114.385 35.55 114.985C33.75 117.535 30.75 119.185 27.15 119.185C21.45 119.185 17.1 115.135 17.1 109.585C17.1 107.185 18 104.935 19.5 103.285C19.95 102.835 20.4 102.385 20.85 102.085H20.7C20.25 102.085 19.65 101.935 19.35 101.635H19.2C18.3 101.935 17.25 102.235 16.2 102.235C10.5 102.235 6.45 97.7352 6.45 91.5852C6.45 86.1852 9.9 81.6852 14.4 80.7852C15 80.6352 15.45 80.6352 16.05 80.6352C17.7 80.6352 18.9 80.9352 19.8 81.3852C20.25 81.0852 20.7 80.9352 21.15 80.9352H23.85H24.6C25.8 80.9352 26.85 81.9852 26.85 83.1852V89.0352C27 89.0352 27 89.0352 27 89.0352C27.45 89.1852 27.9 89.4852 28.2 89.9352L28.65 88.4352L28.95 87.5352C28.65 87.0852 28.5 86.6352 28.5 86.1852V83.1852C28.5 81.9852 29.55 80.9352 30.75 80.9352H39.9C40.95 80.9352 41.85 81.5352 42.15 82.5852L43.05 85.5852L44.1 88.8852L44.25 89.6352L45.6 94.1352V89.4852V88.4352C45.45 88.4352 45.3 88.2852 45.15 88.1352C44.7 87.6852 44.25 87.0852 44.25 86.3352V85.4352V83.3352C44.25 82.1352 45.3 81.0852 46.5 81.0852H55.5C56.55 81.0852 57.45 81.8352 57.75 82.7352L57.9 83.1852L58.05 82.8852C58.35 81.8352 59.25 81.0852 60.3 81.0852H67.5H69.15C69.3 81.0852 69.6 81.0852 69.75 81.2352C69.9 81.2352 70.05 81.2352 70.2 81.2352H70.35H72H79.5H84.6C85.8 81.2352 86.85 82.2852 86.85 83.4852V88.5852Z" fill="#0B0000"/>
<path d="M57.9 61.2852C58.2 61.4352 58.5 61.4352 58.8 61.4352C59.1 61.4352 59.4 61.4352 59.85 61.2852C60.45 61.1352 61.2 60.5352 61.5 59.7852C61.65 59.4852 61.8 59.0352 61.8 58.7352C61.8 58.4352 61.8 57.9852 61.65 57.6852C61.35 57.0852 60.9 56.4852 60.45 56.1852C60 55.8852 59.55 55.8852 59.25 55.7352C58.95 55.7352 58.8 55.7352 58.8 55.7352C58.8 55.7352 58.8 55.7352 58.95 55.7352C59.1 55.7352 59.1 55.7352 59.25 55.8852C59.55 56.0352 59.85 56.1852 60.3 56.4852C60.6 56.7852 60.9 57.2352 61.05 57.8352C61.05 58.1352 61.2 58.4352 61.05 58.7352C61.05 59.0352 60.9 59.3352 60.75 59.4852C60.45 60.0852 60 60.3852 59.55 60.6852C59.25 60.8352 59.1 60.8352 58.8 60.8352C58.5 60.8352 58.35 60.8352 58.05 60.8352C57.6 60.6852 57.3 60.5352 57 60.3852C56.7 60.2352 56.7 60.0852 56.7 60.0852C56.7 60.0852 56.7 60.2352 57 60.5352C57 60.8352 57.45 61.1352 57.9 61.2852Z" fill="#F9F9F9"/>
<path d="M19.6506 98.335C19.2006 99.235 17.7006 99.985 15.9006 99.985C11.7006 99.985 8.40063 96.835 8.40063 91.585C8.40063 86.485 12.0006 82.885 15.6006 82.885C19.0506 82.885 19.8006 84.535 20.2506 84.835L20.7006 83.185H24.3006V90.235H20.1006C20.1006 88.285 18.7506 87.235 17.4006 87.235C15.4506 87.235 14.1006 89.335 14.1006 91.735C14.1006 94.135 15.3006 96.085 17.4006 96.085C18.7506 96.085 19.3506 95.485 19.6506 94.885V93.835H18.1506V91.285H25.9506V93.835H25.0506V99.685H20.2506L19.6506 98.335Z" fill="black"/>
<path d="M36.0006 99.835V96.685H38.2506L37.8006 95.035H33.0006L32.5506 96.685H34.3506V99.835H26.8506V96.685H28.5006L31.6506 86.335H30.7506V83.335H39.9006L44.1006 96.835H45.7506V99.985H36.0006V99.835ZM36.9006 92.335L35.4006 87.235L33.9006 92.335H36.9006Z" fill="black"/>
<path d="M62.8512 87.5349C62.7012 88.5849 62.4012 90.2349 62.1012 90.6849L59.5512 99.8349H54.6012L51.9012 90.3849C51.7512 89.9349 51.4512 88.5849 51.4512 87.3849H51.3012V96.6849H52.6512V99.6849H46.5012V96.6849H47.8512V86.1849H46.5012V83.1849H55.5012L57.9012 92.0349L60.1512 83.1849H69.1512V86.1849H67.8012V96.5349H69.1512V99.6849H61.6512V96.5349H63.0012V88.5849L62.8512 87.5349Z" fill="black"/>
<path d="M84.6006 83.335V88.585H80.5506V86.485H76.8006V89.785H81.3006V92.935H76.8006V96.835H80.5506V94.585H84.6006V99.985H70.3506V96.835H71.8506V86.635H70.3506V83.485H84.6006V83.335Z" fill="black"/>
<path d="M34.6505 109.585C34.6505 113.785 31.3505 116.785 26.8505 116.785C22.3505 116.785 19.0505 113.785 19.0505 109.585C19.0505 105.385 22.3505 102.385 26.8505 102.385C31.3505 102.385 34.6505 105.385 34.6505 109.585ZM23.8505 109.585C23.8505 111.535 25.2005 112.885 26.8505 112.885C28.5005 112.885 29.7005 111.385 29.7005 109.585C29.7005 107.785 28.3505 106.285 26.8505 106.285C25.3505 106.285 23.8505 107.635 23.8505 109.585Z" fill="black"/>
<path d="M39.6011 102.535L42.4511 111.835L45.3011 102.535H50.1011L44.7011 116.635H39.9011L34.6511 102.535H39.6011Z" fill="black"/>
<path d="M63.0005 102.535V106.135H55.8005V107.935H62.4005V111.535H55.8005V113.335H63.1505V116.935H51.0005V102.535H63.0005Z" fill="black"/>
<path d="M72.9005 116.635L71.2505 113.035H69.4505V116.635H64.8005V102.535H71.5505C75.3005 102.535 77.5505 104.335 77.5505 107.635C77.5505 109.735 76.8005 111.235 75.3005 112.135L78.0005 116.785H72.9005V116.635ZM69.6005 109.435H71.7005C72.7505 109.435 73.3505 108.835 73.3505 107.785C73.3505 106.735 72.7505 106.135 71.7005 106.135H69.6005V109.435Z" fill="black"/>
</g>
<defs>
<clipPath id="clip0_156_60">
<rect width="93" height="120" fill="white" transform="translate(0 0.535034)"/>
</clipPath>
</defs>
</svg>
