<svg width="93" height="120" viewBox="0 0 93 120" fill="none" xmlns="http://www.w3.org/2000/svg">
<g clip-path="url(#clip0_107_43)">
<path d="M84.3008 38.1C83.2508 35.85 81.9008 33.9 81.0008 31.65C79.8008 28.35 80.8508 25.8 81.7508 22.8C78.7508 25.05 77.1008 27.75 74.8508 30.75C70.9508 29.1 69.1508 25.2 68.7008 21.15C68.5508 19.2 68.8508 11.25 71.5508 10.65C67.6508 11.7 59.7008 17.85 58.8008 22.05C59.7008 17.55 56.2508 14.7 54.9008 10.8C54.3008 9.3 53.8508 1.8 56.4008 0C49.5008 0.45 43.0508 3.75 37.9508 8.25C32.8508 12.9 27.3008 19.95 25.3508 26.85C23.5508 21.75 17.8508 18.45 13.0508 16.8C15.7508 18.75 16.6508 22.5 16.0508 25.8C15.4508 29.1 13.6508 31.95 11.8508 34.8C8.25079 40.5 5.40079 47.85 7.95079 54.75C8.70079 56.7 9.90079 58.65 11.2508 60.15L12.0008 45.9C12.0008 45.6 12.7508 39.9 18.4508 38.1C18.9008 37.95 19.2008 37.65 19.3508 37.2L19.5008 36.6C20.1008 35.1 21.4508 34.2 23.1008 34.2H29.8508C31.5008 34.2 33.1508 35.4 33.6008 37.05L34.3508 39.45C34.5008 40.05 35.1008 40.5 35.7008 40.5H57.9008C58.5008 40.5 59.1008 40.05 59.2508 39.45L60.0008 37.05C60.4508 35.4 61.9508 34.2 63.7508 34.2H70.5008C72.1508 34.2 73.5008 35.1 74.1008 36.6L74.2508 37.2C74.4008 37.65 74.7008 37.95 75.1508 38.1C80.8508 39.9 81.4508 45.6 81.6008 45.9V46.05L82.5008 62.7C88.8008 57 87.6008 44.85 84.3008 38.1ZM45.4508 8.85C44.8508 9.3 44.1008 9.9 43.2008 10.5C42.7508 10.8 42.3008 11.25 41.7008 11.7C41.2508 12.15 40.6508 12.6 40.2008 13.05C39.7508 13.5 39.1508 14.1 38.7008 14.7C38.1008 15.3 37.6508 15.9 37.2008 16.5C36.7508 17.1 36.1508 17.7 35.7008 18.3C35.2508 18.9 34.8008 19.5 34.3508 20.1C33.9008 20.7 33.6008 21.3 33.1508 21.9C32.8508 22.5 32.5508 22.95 32.2508 23.55C31.6508 24.6 31.2008 25.5 30.9008 26.1C30.6008 26.7 30.4508 27.15 30.4508 27.15C30.4508 27.15 30.6008 26.7 30.7508 26.1C30.9008 25.8 31.0508 25.35 31.2008 24.9C31.3508 24.45 31.5008 24 31.8008 23.4C31.9508 22.8 32.2508 22.2 32.5508 21.6C32.8508 21 33.1508 20.4 33.6008 19.65C34.0508 19.05 34.3508 18.3 34.8008 17.7C35.2508 17.1 35.7008 16.5 36.3008 15.75C36.9008 15.15 37.3508 14.55 37.9508 13.95C38.5508 13.35 39.0008 12.9 39.6008 12.3C40.2008 11.85 40.6508 11.4 41.2508 10.95C41.8508 10.5 42.3008 10.2 42.9008 9.9C43.3508 9.6 43.8008 9.3 44.2508 9C44.7008 8.7 45.0008 8.55 45.3008 8.4C45.9008 8.1 46.3508 7.95 46.3508 7.95C46.3508 7.95 46.0508 8.55 45.4508 8.85Z" fill="#E20303"/>
<path d="M7.35059 61.6501C7.05059 61.3501 6.90059 60.9001 6.60059 60.6001C6.30059 60.1501 6.00059 59.7001 5.70059 59.1001C5.55059 58.8001 5.40059 58.5001 5.25059 58.2001C5.10059 57.9001 4.95059 57.6001 4.80059 57.3001C4.65059 57.0001 4.50059 56.7001 4.35059 56.4001C4.20059 56.1001 4.05059 55.8001 3.90059 55.3501C3.75059 55.0501 3.60059 54.6001 3.45059 54.3001C3.15059 54.0001 3.00059 53.5501 3.00059 53.2501C2.85059 52.5001 2.70059 51.7501 2.70059 51.0001C2.70059 50.2501 2.70059 49.5001 2.70059 48.7501C2.70059 48.0001 3.00059 47.2501 3.15059 46.5001C3.45059 45.0001 4.05059 43.6501 4.50059 42.6001C5.10059 41.4001 5.55059 40.5001 6.00059 39.9001C6.45059 39.3001 6.60059 38.8501 6.60059 38.8501C6.60059 38.8501 6.15059 39.0001 5.55059 39.6001C5.25059 39.9001 4.80059 40.2001 4.50059 40.5001C4.05059 40.9501 3.60059 41.2501 3.30059 41.8501C2.40059 42.9001 1.50059 44.2501 0.900586 45.9001C0.450586 46.5001 0.150586 47.4001 0.000585794 48.3001C-0.149414 48.7501 -0.149414 49.2001 -0.149414 49.6501C-0.149414 50.1001 -0.149414 50.5501 -0.149414 51.1501C-0.149414 52.0501 0.150586 53.1001 0.300586 54.0001C0.450586 54.4501 0.600586 54.9001 0.750586 55.3501C0.900586 55.8001 1.20059 56.1001 1.35059 56.5501C1.65059 57.0001 1.80059 57.3001 2.10059 57.6001C2.40059 57.9001 2.55059 58.2001 2.85059 58.6501C3.30059 59.2501 3.90059 59.8501 4.35059 60.3001C4.65059 60.6001 4.80059 60.7501 5.10059 60.9001C5.40059 61.0501 5.55059 61.2001 5.85059 61.3501C6.30059 61.6501 6.75059 61.9501 7.05059 62.1001C7.80059 62.5501 8.10059 62.7001 8.10059 62.7001C8.10059 62.7001 7.80059 62.2501 7.35059 61.6501Z" fill="#E20303"/>
<path d="M92.55 49.9502C92.55 49.5002 92.4 49.2002 92.4 48.7502C92.4 48.4502 92.25 48.0002 92.25 47.7002C92.1 46.9502 91.95 46.3502 91.65 45.7502C91.5 45.1502 91.2 44.5502 90.9 44.1002C90.3 43.0502 89.85 42.3002 89.4 41.7002C88.95 41.1002 88.65 40.9502 88.65 40.9502C88.65 40.9502 88.65 41.2502 88.8 42.0002C88.8 42.3002 88.95 42.7502 88.95 43.2002C88.95 43.6502 89.1 44.1002 89.25 44.7002C89.25 45.3002 89.4 45.7502 89.55 46.3502C89.7 46.9502 89.7 47.5502 89.7 48.3002C89.7 48.9002 89.7 49.6502 89.85 50.2502C89.85 50.5502 89.85 50.8502 89.85 51.3002V51.7502V52.2002L89.7 53.2502C89.7 53.5502 89.55 53.8502 89.55 54.3002C89.55 54.6002 89.4 54.9002 89.4 55.2002C89.25 55.5002 89.25 55.8002 89.1 56.1002C88.95 56.7002 88.8 57.3002 88.5 57.9002C88.35 58.2002 88.35 58.5002 88.2 58.8002C88.05 59.1002 87.9 59.2502 87.9 59.5502C87.6 60.0002 87.45 60.4502 87.3 60.9002C87.15 61.2002 86.85 61.6502 86.7 61.9502C86.4 62.5502 86.25 62.8502 86.25 62.8502C86.25 62.8502 86.55 62.7002 87.15 62.2502C87.45 62.1002 87.75 61.8002 88.2 61.5002C88.5 61.2002 88.95 60.7502 89.25 60.3002C89.4 60.1502 89.7 59.8502 89.85 59.5502C90 59.2502 90.15 58.9502 90.45 58.8002C90.75 58.2002 91.2 57.6002 91.5 56.8502C91.65 56.5502 91.8 56.1002 91.95 55.8002C92.1 55.5002 92.1 55.0502 92.25 54.7502C92.4 54.3002 92.4 54.0002 92.55 53.5502L92.7 52.3502C92.7 51.6002 92.7 50.8502 92.55 49.9502Z" fill="#E20303"/>
<path d="M60.151 0C55.051 3 58.501 13.35 58.501 13.35C56.701 6 60.151 0 60.151 0Z" fill="#E20303"/>
<path d="M74.7007 13.3496C69.4507 18.5996 73.5007 27.1496 73.5007 27.1496C72.1507 21.8996 74.7007 13.3496 74.7007 13.3496Z" fill="#E20303"/>
<path d="M24.9006 20.8499C25.6506 10.6499 17.1006 13.3499 17.1006 13.3499C23.5506 13.9499 24.9006 20.8499 24.9006 20.8499Z" fill="#E20303"/>
<path d="M10.3506 106.95C8.70059 106.95 7.35059 108.3 7.35059 109.95C7.35059 111.6 8.70059 112.95 10.3506 112.95C12.0006 112.95 13.3506 111.6 13.3506 109.95C13.2006 108.3 12.0006 106.95 10.3506 106.95Z" fill="#E20303"/>
<path d="M85.5 106.95C83.85 106.95 82.5 108.3 82.5 109.95C82.5 111.6 83.85 112.95 85.5 112.95C87.15 112.95 88.5 111.6 88.5 109.95C88.35 108.3 87 106.95 85.5 106.95Z" fill="#E20303"/>
<path d="M35.3998 55.5001C35.6998 55.6501 36.1498 55.8001 36.5998 56.2501C37.0498 56.7001 37.1998 57.3001 37.1998 58.0501V58.3501V58.6501C37.1998 58.8001 37.0498 58.9501 37.0498 59.1001C36.8998 59.4001 36.5998 59.7001 36.4498 59.8501C36.1498 60.0001 35.8498 60.3001 35.5498 60.3001C35.3998 60.3001 35.2498 60.3001 35.0998 60.3001C34.9498 60.3001 34.7998 60.3001 34.6498 60.3001C34.0498 60.1501 33.4498 59.7001 33.1498 59.2501C32.8498 58.8001 32.6998 58.3501 32.6998 57.9001C32.6998 57.6001 32.6998 57.3001 32.6998 57.3001C32.6998 57.3001 32.6998 57.4501 32.5498 57.9001C32.5498 58.2001 32.5498 58.8001 32.8498 59.4001C33.1498 60.0001 33.7498 60.6001 34.6498 60.7501C34.7998 60.7501 35.0998 60.9001 35.2498 60.9001C35.5498 60.9001 35.6998 60.9001 35.9998 60.9001C36.4498 60.7501 36.8998 60.6001 37.1998 60.3001C37.4998 60.0001 37.7998 59.7001 38.0998 59.2501C38.2498 59.1001 38.2498 58.8001 38.2498 58.6501C38.2498 58.5001 38.2498 58.3501 38.2498 58.3501V58.0501C38.2498 57.1501 37.7998 56.4001 37.3498 56.1001C36.2998 55.5001 35.8498 55.3501 35.3998 55.5001C35.2498 55.3501 35.0998 55.3501 34.9498 55.3501C34.7998 55.3501 34.7998 55.3501 34.7998 55.3501C34.7998 55.3501 35.0998 55.3501 35.3998 55.5001Z" fill="#F9F9F9"/>
<path d="M88.2 88.0501V82.8001C88.2 80.7001 86.55 79.0501 84.45 79.0501H81H78.3C80.1 77.8501 81.15 75.9001 81.15 73.6501L80.55 63.7501L79.65 46.0501C79.65 46.0501 79.2 41.2501 74.55 39.9001C73.65 39.6001 72.9 38.8501 72.45 37.9501L72.3 37.5001C72 36.7501 71.25 36.1501 70.35 36.1501H63.6C62.7 36.1501 61.95 36.7501 61.65 37.6501L60.9 40.0501C60.45 41.4001 59.25 42.4501 57.75 42.4501H46.65H35.55C34.05 42.4501 32.85 41.5501 32.4 40.0501L31.65 37.6501C31.35 36.7501 30.6 36.1501 29.7 36.1501H22.95C22.05 36.1501 21.3 36.6001 21 37.5001V37.9501C20.7 38.8501 19.95 39.6001 18.9 39.9001C14.25 41.2501 13.8 46.0501 13.8 46.0501L12.9 61.8001L12.3 73.6501C12.3 75.7501 13.35 77.5501 14.85 78.7501C14.1 78.7501 13.35 78.9001 12.6 79.2001C7.95 80.7001 4.5 85.5001 4.5 91.2001C4.5 98.1001 9.15 103.2 15.6 103.2C16.05 103.2 16.5 103.2 16.95 103.05C15.75 104.7 15.15 106.8 15.15 109.05C15.15 115.35 20.1 120 26.55 120C30.3 120 33.6 118.35 35.55 115.95L36.15 117.45C36.75 118.95 38.1 119.85 39.6 119.85H44.4C45.75 119.85 46.95 119.1 47.55 118.05C48.15 119.1 49.35 119.85 50.7 119.85H62.85C63.15 119.85 63.45 119.85 63.75 119.7C64.05 119.7 64.35 119.85 64.65 119.85H69.3C69.9 119.85 70.5 119.7 70.95 119.4C71.4 119.7 72 119.85 72.6 119.85H77.85C79.2 119.85 80.4 119.1 81 117.9C81.6 116.7 81.6 115.35 81 114.15L79.65 111.9C80.55 110.55 81 108.9 81 106.95C81 105.45 80.7 104.1 80.1 102.9H84.15C86.25 102.9 87.9 101.25 87.9 99.1501V93.7501C87.9 92.5501 87.3 91.5001 86.4 90.7501C87.6 90.3001 88.2 89.2501 88.2 88.0501ZM70.35 79.0501C70.2 79.0501 69.9 79.0501 69.75 79.0501C69.6 79.0501 69.3 79.0501 69.15 79.0501H68.7H60.15C59.25 79.0501 58.5 79.3501 57.75 79.9501C57.15 79.5001 56.25 79.0501 55.35 79.0501H46.35C44.85 79.0501 43.5 79.9501 42.9 81.3001C42.3 79.9501 40.95 79.0501 39.45 79.0501H30.3C28.95 79.0501 27.75 79.8001 27.15 80.8501C26.55 79.9501 25.65 79.3501 24.6 79.0501C24.45 79.0501 24.15 79.0501 24 79.0501H22.05C22.65 78.6001 23.1 78.1501 23.55 77.5501L29.25 69.6001C29.7 68.8501 30.75 68.7001 31.35 69.3001C32.55 70.2001 34.05 70.8001 35.85 70.8001C39.15 70.8001 42 68.5501 42.9 65.5501C43.05 64.9501 43.65 64.6501 44.1 64.6501H46.5H48.9C49.5 64.6501 49.95 64.9501 50.1 65.5501C51 68.5501 53.85 70.8001 57.15 70.8001C58.8 70.8001 60.3 70.2001 61.65 69.3001C62.4 68.8501 63.3 69.0001 63.75 69.6001L69.45 77.5501C69.9 78.1501 70.35 78.6001 70.95 79.0501H70.35ZM23.1 43.3501H26.55V46.2001L25.65 47.1001L24.9 48.0001L24.15 47.2501L23.25 46.3501V43.3501H23.1ZM75.75 49.6501C75.75 50.8501 74.7 51.9001 73.5 51.9001C72.3 51.9001 71.25 50.8501 71.25 49.6501C71.25 48.4501 72.3 47.4001 73.5 47.4001C74.7 47.4001 75.75 48.4501 75.75 49.6501ZM68.7 56.8501C67.5 56.8501 66.45 55.8001 66.45 54.6001C66.45 53.4001 67.5 52.3501 68.7 52.3501C69.9 52.3501 70.95 53.4001 70.95 54.6001C70.95 55.8001 69.9 56.8501 68.7 56.8501ZM68.7 46.9501C67.5 46.9501 66.45 45.9001 66.45 44.7001C66.45 43.5001 67.5 42.4501 68.7 42.4501C69.9 42.4501 70.95 43.5001 70.95 44.7001C70.95 46.0501 69.9 46.9501 68.7 46.9501ZM66 49.6501C66 50.8501 64.95 51.9001 63.75 51.9001C62.55 51.9001 61.5 50.8501 61.5 49.6501C61.5 48.4501 62.55 47.4001 63.75 47.4001C64.95 47.4001 66 48.4501 66 49.6501ZM63.15 58.0501C63.15 60.4501 61.2 62.4001 58.8 62.4001C56.4 62.4001 54.45 60.4501 54.45 58.0501C54.45 55.6501 56.4 53.7001 58.8 53.7001C61.05 53.7001 63.15 55.6501 63.15 58.0501ZM39.3 58.0501C39.3 60.4501 37.35 62.4001 34.95 62.4001C32.55 62.4001 30.6 60.4501 30.6 58.0501C30.6 55.6501 32.55 53.7001 34.95 53.7001C37.35 53.7001 39.3 55.6501 39.3 58.0501ZM30.45 50.7001H27.6L26.7 49.8001L25.95 49.0501L26.7 48.3001L27.6 47.4001H30.45V50.7001ZM23.1 51.6001L24 50.7001L24.75 49.9501L25.5 50.7001L26.4 51.6001V54.4501H22.95V51.6001H23.1ZM22.2 47.2501L23.1 48.1501L23.85 48.9001L23.1 49.6501L22.2 50.5501H19.35V47.1001H22.2V47.2501ZM15 59.5501C15.15 57.6001 15.3 55.8001 15.3 54.1501C15.3 54.0001 15.3 53.8501 15.3 53.7001C15.45 52.3501 15.6 51.1501 15.6 50.2501C15.75 49.3501 15.75 48.7501 15.75 48.7501C15.75 48.7501 15.75 49.2001 15.75 50.2501C15.75 51.1501 15.75 52.5001 15.75 54.0001C15.75 55.5001 15.75 57.4501 15.6 59.4001C15.6 60.4501 15.6 61.6501 15.45 62.7001C15.45 63.6001 15.45 64.5001 15.3 65.4001C15.3 66.4501 15.15 67.5001 15.15 68.5501C15.15 69.6001 15 70.6501 15 71.5501C15.15 72.4501 15.45 73.3501 15.9 73.9501C16.35 74.7001 16.95 75.1501 17.7 75.4501C18.3 75.7501 19.05 75.9001 19.65 75.9001C20.25 75.9001 20.7 75.6001 21.15 75.4501C21.6 75.1501 21.9 75.0001 22.05 74.8501C22.2 74.7001 22.35 74.5501 22.35 74.5501C22.35 74.5501 22.2 74.7001 22.05 74.8501C21.9 75.0001 21.6 75.3001 21.3 75.6001C20.85 75.9001 20.4 76.2001 19.8 76.3501C19.2 76.5001 18.3 76.5001 17.55 76.0501C16.8 75.7501 16.05 75.1501 15.45 74.4001C14.85 73.6501 14.4 72.6001 14.4 71.7001C14.4 71.1001 14.4 70.6501 14.4 70.2001C14.4 70.0501 14.4 69.9001 14.4 69.7501C14.4 69.4501 14.4 69.0001 14.4 68.7001C14.4 67.6501 14.55 66.6001 14.55 65.5501C14.55 64.6501 14.7 63.6001 14.7 62.7001C14.85 61.6501 14.85 60.6001 15 59.5501ZM86.85 88.0501C86.85 89.2501 85.8 90.3001 84.6 90.3001H83.55V91.6501H84.6C85.8 91.6501 86.85 92.7001 86.85 93.9001V99.3001C86.85 100.5 85.8 101.55 84.6 101.55H79.65H77.7C78.15 102 78.6 102.45 78.9 102.9C79.65 103.95 79.95 105.45 79.95 106.95C79.95 108.9 79.35 110.55 78.3 111.9L80.1 114.9C80.55 115.65 80.55 116.55 80.1 117.3C79.65 118.05 78.9 118.5 78.15 118.5H72.9C72.3 118.5 71.55 118.2 71.25 117.75C70.8 118.2 70.2 118.5 69.6 118.5H66H64.95C64.65 118.5 64.35 118.5 64.05 118.35C63.75 118.5 63.45 118.5 63.15 118.5H62.1H51C49.8 118.5 48.75 117.45 48.75 116.25V112.35L47.4 115.95L46.95 117C46.65 117.9 45.75 118.5 44.85 118.5H40.05C39.15 118.5 38.25 117.9 37.95 117L37.05 114.6L36.45 112.8C36.15 113.4 35.85 113.85 35.55 114.45C33.75 117 30.75 118.65 27.15 118.65C21.45 118.65 17.1 114.6 17.1 109.05C17.1 106.65 18 104.4 19.5 102.75C19.95 102.3 20.4 101.85 20.85 101.55H20.7C20.25 101.55 19.65 101.4 19.35 101.1H19.2C18.3 101.4 17.25 101.7 16.2 101.7C10.5 101.7 6.45 97.2001 6.45 91.0501C6.45 85.6501 9.9 81.1501 14.4 80.2501C15 80.1001 15.45 80.1001 16.05 80.1001C17.7 80.1001 18.9 80.4001 19.8 80.8501C20.25 80.5501 20.7 80.4001 21.15 80.4001H23.85H24.6C25.8 80.4001 26.85 81.4501 26.85 82.6501V88.5001C27 88.5001 27 88.5001 27 88.5001C27.45 88.6501 27.9 88.9501 28.2 89.4001L28.65 87.9001L28.95 87.0001C28.65 86.5501 28.5 86.1001 28.5 85.6501V82.6501C28.5 81.4501 29.55 80.4001 30.75 80.4001H39.9C40.95 80.4001 41.85 81.0001 42.15 82.0501L43.05 85.0501L44.1 88.3501L44.25 89.1001L45.6 93.6001V88.9501V87.9001C45.45 87.9001 45.3 87.7501 45.15 87.6001C44.7 87.1501 44.25 86.5501 44.25 85.8001V84.9001V82.8001C44.25 81.6001 45.3 80.5501 46.5 80.5501H55.5C56.55 80.5501 57.45 81.3001 57.75 82.2001L57.9 82.6501L58.05 82.3501C58.35 81.3001 59.25 80.5501 60.3 80.5501H67.5H69.15C69.3 80.5501 69.6 80.5501 69.75 80.7001C69.9 80.7001 70.05 80.7001 70.2 80.7001H70.35H72H79.5H84.6C85.8 80.7001 86.85 81.7501 86.85 82.9501V88.0501Z" fill="#F9F9F9"/>
<path d="M57.9002 60.7502C58.2002 60.9002 58.5002 60.9002 58.8002 60.9002C59.1002 60.9002 59.4002 60.9002 59.8502 60.7502C60.4502 60.6002 61.2002 60.0002 61.5002 59.2502C61.6502 58.9502 61.8002 58.5002 61.8002 58.2002C61.8002 57.9002 61.8002 57.4502 61.6502 57.1502C61.3502 56.5502 60.9002 55.9502 60.4502 55.6502C60.0002 55.3502 59.5502 55.3502 59.2502 55.2002C58.9502 55.2002 58.8002 55.2002 58.8002 55.2002C58.8002 55.2002 58.8002 55.2002 58.9502 55.2002C59.1002 55.2002 59.1002 55.2002 59.2502 55.3502C59.5502 55.5002 59.8502 55.6502 60.3002 55.9502C60.6002 56.2502 60.9002 56.7002 61.0502 57.3002C61.0502 57.6002 61.2002 57.9002 61.0502 58.2002C61.0502 58.5002 60.9002 58.8002 60.7502 58.9502C60.4502 59.5502 60.0002 59.8502 59.5502 60.1502C59.2502 60.3002 59.1002 60.3002 58.8002 60.3002C58.5002 60.3002 58.3502 60.3002 58.0502 60.3002C57.6002 60.1502 57.3002 60.0002 57.0002 59.8502C56.7002 59.7002 56.7002 59.5502 56.7002 59.5502C56.7002 59.5502 56.7002 59.7002 57.0002 60.0002C57.0002 60.3002 57.4502 60.6002 57.9002 60.7502Z" fill="#F9F9F9"/>
<path d="M19.6504 97.8001C19.2004 98.7001 17.7004 99.4501 15.9004 99.4501C11.7004 99.4501 8.40039 96.3001 8.40039 91.0501C8.40039 85.9501 12.0004 82.3501 15.6004 82.3501C19.0504 82.3501 19.8004 84.0001 20.2504 84.3001L20.7004 82.6501H24.3004V89.7001H20.1004C20.1004 87.7501 18.7504 86.7001 17.4004 86.7001C15.4504 86.7001 14.1004 88.8001 14.1004 91.2001C14.1004 93.6001 15.3004 95.5501 17.4004 95.5501C18.7504 95.5501 19.3504 94.9501 19.6504 94.3501V93.3001H18.1504V90.7501H25.9504V93.3001H25.0504V99.1501H20.2504L19.6504 97.8001Z" fill="#F9F9F9"/>
<path d="M36.0006 99.3V96.15H38.2506L37.8006 94.5H33.0006L32.5506 96.15H34.3506V99.3H26.8506V96.15H28.5006L31.6506 85.8H30.7506V82.8H39.9006L44.1006 96.3H45.7506V99.4501H36.0006V99.3ZM36.9006 91.8L35.4006 86.7L33.9006 91.8H36.9006Z" fill="#F9F9F9"/>
<path d="M62.851 87.0001C62.701 88.0501 62.401 89.7001 62.101 90.1501L59.551 99.3001H54.601L51.901 89.8502C51.751 89.4002 51.451 88.0502 51.451 86.8502H51.301V96.1501H52.651V99.1501H46.501V96.1501H47.851V85.6501H46.501V82.6501H55.501L57.901 91.5001L60.151 82.6501H69.151V85.6501H67.801V96.0001H69.151V99.1501H61.651V96.0001H63.001V88.0501L62.851 87.0001Z" fill="#F9F9F9"/>
<path d="M84.6006 82.8V88.05H80.5506V85.95H76.8006V89.25H81.3006V92.4H76.8006V96.3H80.5506V94.05H84.6006V99.4501H70.3506V96.3H71.8506V86.1H70.3506V82.95H84.6006V82.8Z" fill="#F9F9F9"/>
<path d="M34.6508 109.05C34.6508 113.25 31.3508 116.25 26.8508 116.25C22.3508 116.25 19.0508 113.25 19.0508 109.05C19.0508 104.85 22.3508 101.85 26.8508 101.85C31.3508 101.85 34.6508 104.85 34.6508 109.05ZM23.8508 109.05C23.8508 111 25.2008 112.35 26.8508 112.35C28.5008 112.35 29.7008 110.85 29.7008 109.05C29.7008 107.25 28.3508 105.75 26.8508 105.75C25.3508 105.75 23.8508 107.1 23.8508 109.05Z" fill="#F9F9F9"/>
<path d="M39.6014 102L42.4514 111.3L45.3014 102H50.1014L44.7014 116.1H39.9014L34.6514 102H39.6014Z" fill="#F9F9F9"/>
<path d="M63.001 102V105.6H55.801V107.4H62.401V111H55.801V112.8H63.151V116.4H51.001V102H63.001Z" fill="#F9F9F9"/>
<path d="M72.9008 116.1L71.2508 112.5H69.4508V116.1H64.8008V102H71.5508C75.3008 102 77.5508 103.8 77.5508 107.1C77.5508 109.2 76.8008 110.7 75.3008 111.6L78.0008 116.25H72.9008V116.1ZM69.6008 108.9H71.7008C72.7508 108.9 73.3508 108.3 73.3508 107.25C73.3508 106.2 72.7508 105.6 71.7008 105.6H69.6008V108.9Z" fill="#F9F9F9"/>
</g>
<defs>
<clipPath id="clip0_107_43">
<rect width="93" height="120" fill="white"/>
</clipPath>
</defs>
</svg>
