<svg width="114" height="120" viewBox="0 0 114 120" fill="none" xmlns="http://www.w3.org/2000/svg">
<g clip-path="url(#clip0_128_79)">
<path d="M56.4833 109.063C85.1929 109.063 108.467 85.1239 108.467 55.5941C108.467 26.0642 85.1929 2.12549 56.4833 2.12549C27.7737 2.12549 4.5 26.0642 4.5 55.5941C4.5 85.1239 27.7737 109.063 56.4833 109.063Z" fill="#EC1E24"/>
<path d="M68.1493 57.6514C68.0818 57.9444 68.0372 58.2425 68.016 58.5428C67.6634 60.1669 66.9202 61.6739 65.8545 62.9258C64.7887 64.1778 63.4345 65.1346 61.916 65.7086C61.4305 65.9112 60.9355 66.0885 60.4327 66.24C59.274 66.5457 58.0776 66.6728 56.8827 66.6171C55.677 66.6642 54.4708 66.5372 53.2993 66.24C49.466 64.8686 46.6327 62.8114 45.7327 58.5086C45.6989 58.2088 45.6488 57.9112 45.5827 57.6171C45.4563 57.385 45.2864 57.181 45.0827 57.0171C44.516 56.4343 43.9827 55.8171 43.416 55.3028C43.416 59.9143 44.5327 63.5486 46.8493 65.9486C48.1732 67.2567 49.7433 68.2722 51.4631 68.9326C53.1829 69.593 55.016 69.8843 56.8493 69.7886C58.685 69.8788 60.5192 69.5816 62.2389 68.9153C63.9587 68.249 65.5277 67.2277 66.8493 65.9143C69.1827 63.4628 70.1827 59.9143 70.1827 55.2686C69.8069 55.631 69.4508 56.0144 69.116 56.4171C68.8827 56.7771 68.2993 57.2228 68.1493 57.6514Z" fill="#F2F2F2"/>
<path d="M75.1184 30.583C75.134 30.1964 75.0947 29.8094 75.0017 29.4344C74.8684 28.2516 74.685 27.1716 74.585 26.0059C74.4517 24.4802 74.585 22.783 74.385 21.1544C74.3179 19.794 73.9041 18.4756 73.185 17.3316C70.6684 13.2344 66.335 10.7316 61.0184 9.53159C59.5854 9.1562 58.1136 8.96049 56.635 8.94873C53.8641 9.11909 51.1418 9.77419 48.585 10.8859C46.3645 11.7488 44.3313 13.0537 42.6017 14.7259C41.6437 15.5394 40.8548 16.543 40.2821 17.677C39.7094 18.8109 39.3646 20.0519 39.2684 21.3259C39.2684 22.8516 39.2684 24.5659 39.085 26.143C38.9017 27.7202 38.6517 29.0059 38.5684 30.6173C38.5684 30.6173 38.7017 30.6173 38.735 30.5316C38.9285 30.3349 39.1345 30.1516 39.3517 29.983C41.5131 28.3535 43.9086 27.0811 46.4517 26.2116C53.1281 23.5597 60.5253 23.5597 67.2017 26.2116C70.0066 27.1602 72.621 28.6238 74.9184 30.5316C74.9184 30.5316 75.0684 30.703 75.1184 30.583Z" fill="#F2F2F2"/>
<path d="M75.2507 32.9314C75.1478 32.1348 74.7762 31.4006 74.2007 30.8571C74.2007 30.8571 74.034 30.6514 74.0007 30.7714C73.9719 30.999 73.9719 31.2295 74.0007 31.4571C74.0452 32.1935 74.0452 32.9321 74.0007 33.6685C73.8007 36.4457 73.784 39.6857 71.5173 40.3543C70.6493 40.5019 69.7599 40.4432 68.9173 40.1828C66.4173 39.6 64.484 38.6057 62.2507 37.8514C60.671 37.2606 59.0242 36.8804 57.3506 36.72C55.6166 36.7206 53.8961 37.0339 52.2673 37.6457C50.0007 38.3485 47.9006 39.36 45.6006 40.0114C44.7766 40.2883 43.9174 40.4385 43.0507 40.4571C40.834 40.4571 40.3007 38.3657 40.0673 36.2057C39.8277 34.3882 39.7441 32.5525 39.8173 30.72C39.1474 31.3052 38.7087 32.1222 38.584 33.0171C38.5986 33.8367 38.6543 34.6549 38.7506 35.4685C39.0006 38.4343 39.334 41.8285 42.084 42.0514C42.9943 42.0861 43.9018 41.9286 44.7507 41.5885C48.784 40.2857 51.6673 38.0057 56.834 38.0057C62.0007 38.0057 64.884 40.32 68.884 41.5885C69.7418 41.9164 70.6524 42.0735 71.5673 42.0514C74.7007 41.8457 74.9007 37.6971 75.084 34.4571C75.1712 33.9527 75.2268 33.4431 75.2507 32.9314V32.9314Z" fill="#C0272D"/>
<path d="M37.3671 37.714C37.4671 39.1197 37.6004 40.5254 37.7504 41.8283C38.0671 44.554 38.3504 47.2968 39.7671 48.7883C38.3671 44.0226 38.1004 38.1254 37.3671 32.6226C37.086 34.3074 37.086 36.0292 37.3671 37.714V37.714Z" fill="#4D4E4E"/>
<path d="M77.8346 31.937C78.1201 32.0069 78.4168 32.0124 78.7045 31.9533C78.9922 31.8941 79.264 31.7716 79.5013 31.5941C79.9383 31.2869 80.2659 30.8416 80.4346 30.3255C80.4733 29.8922 80.4733 29.4561 80.4346 29.0227C80.268 26.2113 79.9013 22.6113 79.6846 20.1084C79.1375 20.6685 78.4311 21.0347 77.668 21.1541C78.1087 24.7312 78.1646 28.3473 77.8346 31.937V31.937Z" fill="#4D4E4E"/>
<path d="M73.4659 30.2912C73.3826 30.0684 72.9159 29.777 72.7159 29.6227C70.6088 28.2049 68.3048 27.124 65.8826 26.417C62.6616 25.318 59.2732 24.83 55.8826 24.977C54.2941 25.0435 52.7123 25.2268 51.1493 25.5255C49.7598 25.8016 48.39 26.1739 47.0493 26.6398C44.8649 27.3413 42.7927 28.3694 40.8993 29.6912C40.6326 29.8798 40.2659 30.1027 40.1993 30.3255C40.1445 30.7809 40.1445 31.2415 40.1993 31.6969C40.1993 32.2112 40.1159 32.6741 40.1993 33.0512C40.1993 33.9941 40.3493 34.7655 40.4493 35.7255C40.6659 37.4398 40.9659 39.1541 42.2159 39.7884C43.1456 40.0131 44.1188 39.9535 45.0159 39.617C46.7575 39.0734 48.4709 38.4383 50.1493 37.7141C51.2659 37.2855 52.4826 36.9255 53.7493 36.5827C55.0387 36.2102 56.3781 36.0539 57.7159 36.1198C58.923 36.2625 60.1126 36.5325 61.2659 36.9255C62.3993 37.2512 63.4993 37.6798 64.5993 38.0741C66.1838 38.7838 67.8227 39.3571 69.4993 39.7884C70.1256 39.9527 70.7781 39.9819 71.4159 39.8741C73.0826 39.3941 73.3159 37.0112 73.5159 34.8341C73.59 34.0824 73.6123 33.3262 73.5826 32.5712C73.5826 32.2112 73.5826 31.7827 73.5826 31.3884C73.5886 31.0191 73.5494 30.6505 73.4659 30.2912Z" fill="#C0272D"/>
<path d="M79.9826 41.5025C79.9265 42.1838 80.0412 42.8685 80.316 43.4911C80.4174 43.8239 80.6151 44.1169 80.8827 44.3311C81.4902 42.2936 81.9251 40.2058 82.1827 38.0911C82.4493 35.8625 82.716 33.154 81.5493 31.6797C81.7442 33.4076 81.591 35.1582 81.0993 36.8225C80.5898 38.3445 80.216 39.9109 79.9826 41.5025V41.5025Z" fill="#4D4E4E"/>
<path d="M76.35 37.7144C76.6465 36.0424 76.6465 34.3291 76.35 32.6572C75.9723 38.1 75.1866 43.5046 74 48.8229C74 48.8229 74 48.8229 74 48.8229C75.4333 47.3487 75.6667 44.5887 76.0167 41.8629C76.1 40.4915 76.25 39.0858 76.35 37.7144Z" fill="#4D4E4E"/>
<path d="M76.1983 16.4576C76.6394 17.3606 76.9697 18.3165 77.1816 19.3033C77.6483 19.1147 78.0816 18.8747 78.5316 18.6518C77.775 14.23 75.6327 10.1843 72.4316 7.13184C72.5441 7.5769 72.5335 8.04543 72.401 8.48462C72.2685 8.92381 72.0193 9.31619 71.6816 9.61755C73.6606 11.5258 75.2033 13.8619 76.1983 16.4576Z" fill="#4D4E4E"/>
<path d="M78.2838 33.2056C77.9172 33.2056 77.5672 32.9313 77.3505 32.9313C77.9252 38.1242 77.4195 43.3834 75.8672 48.3599C77.5339 47.6227 79.6838 47.3313 80.4005 45.5999C79.834 45.2008 79.3811 44.6539 79.0881 44.0151C78.7952 43.3764 78.6729 42.669 78.7338 41.9656C78.8672 39.1542 81.0505 36.3427 80.7672 31.937C80.4948 32.3508 80.1229 32.6851 79.6878 32.9074C79.2526 33.1297 78.769 33.2324 78.2838 33.2056V33.2056Z" fill="#C0272D"/>
<path d="M60.5492 53.3832C60.2235 53.2389 59.8822 53.1353 59.5326 53.0746C59.1026 53.0836 58.6737 53.1237 58.2492 53.1946C57.7992 53.1946 57.3159 53.1946 56.8492 53.1946C56.3826 53.1946 55.9159 53.1946 55.4492 53.1946C54.9065 53.0459 54.337 53.0337 53.7887 53.159C53.2405 53.2843 52.7296 53.5435 52.2992 53.9146C51.7881 54.2792 51.4029 54.8015 51.1992 55.4061C52.9755 56.2284 54.9013 56.6536 56.8492 56.6536C58.7971 56.6536 60.7229 56.2284 62.4992 55.4061C62.3341 54.9448 62.0746 54.5255 61.7381 54.1765C61.4017 53.8274 60.9962 53.5569 60.5492 53.3832V53.3832Z" fill="#C0272D"/>
<path d="M61.5161 49.5084C60.1825 49.8914 58.8143 50.1326 57.4328 50.2284C55.7157 50.2619 54.0031 50.0366 52.3495 49.5599C51.0058 49.0334 49.5676 48.8112 48.1328 48.9084C48.4161 49.3713 48.4661 50.1599 48.7995 50.6227C49.2349 51.0657 49.7748 51.3847 50.3661 51.5484C53.9393 52.6566 57.7223 52.845 61.3828 52.097C62.5495 51.857 64.3495 51.4284 64.8995 50.6056C65.1593 50.0482 65.3875 49.4758 65.5828 48.8913C64.2013 48.826 62.8205 49.0356 61.5161 49.5084Z" fill="white"/>
<path d="M72.1497 47.3144C72.0355 47.5402 71.8765 47.7387 71.683 47.8973C72.3814 46.5798 72.9402 45.189 73.3497 43.7487C72.1502 44.2678 70.8672 44.5527 69.5663 44.5887C67.033 44.7087 62.5497 43.663 58.9997 43.4916C56.5239 43.3623 54.0419 43.4598 51.583 43.783C49.2746 44.2129 46.9422 44.4935 44.5997 44.623C43.184 44.6007 41.7839 44.3161 40.4663 43.783C40.8586 45.2314 41.3716 46.6424 41.9997 48.0001C41.3663 47.1944 40.8163 46.2858 40.333 45.4287C40.5836 47.7099 41.336 49.9025 42.533 51.8401C43.7184 53.4978 45.0161 55.0674 46.4163 56.5373C47.7431 58.0675 49.1567 59.5158 50.6497 60.8744C52.4475 62.316 54.6618 63.0988 56.9413 63.0988C59.2209 63.0988 61.4352 62.316 63.233 60.8744C64.7166 59.5113 66.1244 58.0633 67.4497 56.5373C70.133 53.503 73.0663 50.6573 73.5163 45.4287C73.0925 46.0809 72.6363 46.7103 72.1497 47.3144V47.3144ZM53.183 46.2858C54.2038 46.9817 55.3304 47.4974 56.5163 47.8116C58.183 48.0173 59.4163 46.7144 60.5663 46.3201C60.5663 46.8001 60.0497 47.0916 59.683 47.4001C59.3163 47.7087 58.6997 48.6344 57.6163 48.7373C57.1225 48.7715 56.6269 48.7715 56.133 48.7373C55.0663 48.6516 54.683 48.0173 54.033 47.4344C53.7163 47.1601 53.2163 46.783 53.133 46.3201L53.183 46.2858ZM56.9163 60.8058C55.7642 60.8736 54.616 60.6155 53.5964 60.0594C52.5769 59.5033 51.7249 58.6706 51.133 57.6516C51.133 57.6516 51.133 57.6516 51.133 57.6516C52.774 58.9746 54.8375 59.6169 56.9163 59.4516C58.0437 59.4917 59.1698 59.3411 60.2497 59.0058C61.1027 58.6474 61.9089 58.1809 62.6497 57.6173C62.0593 58.6283 61.2158 59.4576 60.2072 60.0185C59.1986 60.5794 58.0621 60.8513 56.9163 60.8058V60.8058ZM66.9163 49.543C66.733 49.3887 66.5663 49.2173 66.3997 49.0973C66.2663 49.9544 66.033 50.6744 65.8497 51.4116C65.3997 53.1258 65.6997 54.8401 62.233 56.3316C60.7421 56.9209 59.1632 57.2399 57.5663 57.2744C56.2772 57.294 54.9888 57.1965 53.7163 56.983C52.5274 56.8203 51.3886 56.3869 50.383 55.7144C48.1497 54.3601 48.383 53.2116 47.983 51.6858C47.7497 50.8458 47.4997 49.9716 47.333 49.1316C47.0656 49.3202 46.8146 49.5324 46.583 49.7658C46.583 49.7658 46.4497 49.9887 46.383 49.903C46.8663 48.9087 47.3163 47.8801 47.733 46.8001C47.933 47.023 47.833 47.6744 47.8163 48.0173C48.8244 47.8744 49.8512 47.9983 50.7997 48.3773C52.7628 49.0275 54.8049 49.3911 56.8663 49.4573C58.9282 49.3961 60.9711 49.0325 62.933 48.3773C63.8702 47.9997 64.8845 47.8701 65.883 48.0001C65.883 47.7087 65.883 47.0401 65.9663 46.783C66.1912 47.1912 66.3595 47.6297 66.4663 48.0858C66.5663 48.2916 66.733 48.463 66.833 48.6858C66.9622 49.1013 67.1296 49.5031 67.333 49.8858C67.233 49.9373 67.033 49.7144 66.9163 49.543Z" fill="#FCCB8A"/>
<path d="M20.8666 74.8803C20.6339 73.5451 20.2594 72.2401 19.75 70.9889C19.6468 74.2168 18.5951 77.3368 16.7333 79.9375C16.7333 79.9375 16.7333 79.9375 16.7333 79.9375C17.1312 78.946 17.3894 77.9012 17.5 76.8346C17.6333 75.7375 17.9333 74.6575 18.0166 73.5432C18.2501 71.1434 18.2501 68.7257 18.0166 66.326C17.5166 61.8346 16.35 57.5317 15.8666 53.246C15.5206 53.2632 15.1746 53.21 14.8485 53.0893C14.5225 52.9687 14.2228 52.7831 13.9666 52.5432C15.0414 52.0266 16.0632 51.4006 17.0166 50.6746C18.3904 49.572 19.5544 48.2178 20.45 46.6803C20.5666 46.526 20.7666 46.3717 20.7333 46.2175C20.3083 46.1157 19.9028 45.9419 19.5333 45.7032C19.35 45.6003 19.1 45.5489 19.0333 45.326C20 45.206 21.1 45.4632 22.1333 45.326C22.7666 45.326 23.4 45.2232 23.95 45.1203C24.5 45.0175 24.8833 44.4689 25.35 44.3489C25.0666 45.2917 24.1666 45.6346 23.4 46.0632C23.0333 46.286 22.6833 46.4746 22.35 46.6975C22.35 46.6975 22.0666 46.886 22.1333 46.9203C23.0156 46.9116 23.8634 46.5667 24.5129 45.9525C25.1624 45.3382 25.5676 44.4982 25.65 43.5946C25.6666 43.5097 25.6666 43.4223 25.65 43.3375C25.4833 41.7775 22.9833 41.9489 21.5166 41.7432C20.05 41.5375 19.1333 41.246 18.7166 40.2175C20.5333 40.7832 23.45 40.3717 25.3833 40.8346C25.55 39.806 25.3833 38.8289 24.7666 38.4175C24.177 38.1476 23.5444 37.9907 22.9 37.9546C22.2166 37.8517 21.4666 37.7832 20.8333 37.6632C19.6066 37.5646 18.4408 37.073 17.5 36.2575C17.2574 35.9119 17.0455 35.5448 16.8666 35.1603C17.4 35.366 17.9 35.726 18.5333 35.9317C20.5483 36.4558 22.6079 36.7773 24.6833 36.8917C24.6833 34.3375 22.8333 33.8232 20.65 33.3432C17.8333 32.7432 16.0166 32.606 15.65 31.2517C16.9262 31.7017 18.2541 31.9783 19.6 32.0746C19.9333 31.6974 19.8333 30.8917 20.1666 30.4975C20.3927 31.0396 20.4281 31.6457 20.2666 32.2117C20.9833 32.3146 21.7833 32.3317 22.5166 32.4346C22.2162 31.6518 21.7558 30.9444 21.1666 30.3603C20.6924 29.6924 20.0842 29.137 19.3833 28.7317C17.9842 28.3676 16.5022 28.5765 15.25 29.3146C13.5833 30.0346 12.15 31.0289 10.55 31.6803C11.1749 30.598 11.8946 29.5766 12.7 28.6289C12.452 27.6109 12.0029 26.6564 11.3807 25.8247C10.7584 24.993 9.97642 24.302 9.0833 23.7946C8.43584 23.3758 7.68099 23.1668 6.91664 23.1946C6.63492 23.2092 6.36386 23.3101 6.1382 23.4842C5.91253 23.6582 5.74253 23.8977 5.64997 24.1717C5.64997 24.806 6.19997 25.5603 6.54997 26.126C7.8756 28.1375 8.46604 30.5667 8.21664 32.9832C8.03959 34.6363 7.74999 36.2746 7.34997 37.886C6.98331 39.446 6.61664 40.9717 6.31664 42.6003C5.34997 47.7432 5.74997 52.286 4.04997 63.3603C3.32476 66.7597 2.98914 70.2348 3.04997 73.7146C3.43036 76.6985 4.54944 79.5318 6.29997 81.9432C7.0229 83.0903 7.83678 84.174 8.73331 85.1832C9.1772 85.7823 9.75332 86.2643 10.4141 86.5892C11.0748 86.9141 11.8012 87.0726 12.5333 87.0517C14.0562 86.8579 15.5373 86.4061 16.9166 85.7146C18.2833 85.1489 19.4833 84.6346 20.8333 84.0003C22.0166 81.3432 21.4166 77.5889 20.8666 74.8803Z" fill="#FCCB8A"/>
<path d="M91.5004 85.9199C91.3434 85.6915 91.204 85.4508 91.0837 85.1999C90.4041 83.5817 90.1512 81.8078 90.3504 80.057C90.4053 78.5961 90.595 77.1439 90.9171 75.7199C91.329 73.5221 92.1374 71.4231 93.3004 69.5313C93.4858 69.3008 93.6426 69.0474 93.7671 68.777C93.7983 68.3662 93.7983 67.9536 93.7671 67.5428C93.7254 66.7033 93.7254 65.8622 93.7671 65.0228C93.8121 64.6069 93.8121 64.1872 93.7671 63.7713C93.7671 63.5999 93.1337 63.2913 92.8837 63.1199C91.9171 62.4513 90.9504 61.7999 90.0837 61.1656C89.2015 60.4431 88.2836 59.768 87.3337 59.1428C86.8359 58.7964 86.2642 58.5788 85.6671 58.5085C85.9671 58.0628 86.7837 57.9599 87.5337 58.0628C87.6171 58.0628 87.5337 57.9256 87.5337 57.9085C87.0772 57.5491 86.5789 57.2496 86.0504 57.017C81.8171 54.9599 77.2004 53.1428 72.8171 51.4285C72.5104 52.0231 72.1652 52.5958 71.7837 53.1428C71.6294 53.3264 71.5055 53.5349 71.4171 53.7599C71.3845 54.1019 71.3845 54.4464 71.4171 54.7885C71.4371 55.8281 71.359 56.8672 71.1837 57.8913C70.8586 61.3289 69.4478 64.5623 67.1671 67.097C65.5788 68.6012 63.6648 69.6943 61.5837 70.2856C61.0378 70.4656 60.4811 70.6087 59.9171 70.7142C58.5629 70.8888 57.196 70.9347 55.8337 70.8513C55.1337 70.8513 54.4337 70.8513 53.7837 70.7142C52.8633 70.5243 51.9601 70.2548 51.0837 69.9085C48.6276 69.1186 46.4983 67.5077 45.0337 65.3313C42.9977 61.8649 42.0599 57.8331 42.3504 53.7942C41.8112 53.0363 41.3159 52.2463 40.8671 51.4285C37.1171 52.9713 33.1837 54.5485 29.5671 56.2285C28.4906 56.702 27.4585 57.2758 26.4837 57.9428C26.3671 58.0285 26.1504 58.1313 26.2004 58.2342C26.5261 58.1479 26.8671 58.1434 27.1949 58.221C27.5226 58.2985 27.8274 58.4559 28.0837 58.6799C27.4354 58.7282 26.8125 58.9595 26.2837 59.3485C25.9501 59.5318 25.6323 59.744 25.3337 59.9828C23.881 61.1653 22.3617 62.2586 20.7837 63.257C20.5337 63.4285 19.9337 63.7885 19.8837 63.9428C19.8473 64.3476 19.8473 64.755 19.8837 65.1599C19.9251 66.0051 19.9251 66.8519 19.8837 67.697C19.8532 68.1136 19.8532 68.5319 19.8837 68.9485C20.0244 69.2411 20.2039 69.5123 20.4171 69.7542C21.7061 71.8731 22.5571 74.2423 22.9171 76.7142C23.4337 79.7142 23.7837 83.9142 22.1837 86.0056C21.797 86.4405 21.3332 86.7954 20.8171 87.0513C20.2932 87.3345 19.7316 87.5367 19.1504 87.6513C19.5806 87.9108 20.0684 88.0525 20.5671 88.0628C21.1481 87.9476 21.6888 87.6754 22.1337 87.2742C22.6171 86.9142 23.0337 86.5199 23.4337 86.177C26.1308 84.0551 29.0028 82.1794 32.0171 80.5713C32.2239 76.5122 32.0508 72.4421 31.5004 68.417C31.0362 65.1067 29.8137 61.9573 27.9337 59.2285C31.7837 62.5199 33.2337 68.0056 34.0004 74.417C34.2345 76.0741 34.3293 77.7489 34.2837 79.4228C34.1837 81.137 33.9671 82.7142 33.8337 84.3428C33.8272 88.5008 34.745 92.6054 36.5171 96.3428C35.4948 95.0429 34.6379 93.6142 33.9671 92.0913C34.0607 95.3457 33.9661 98.6028 33.6837 101.846C33.4671 104.383 33.0004 106.988 32.7671 109.714C32.6944 110.093 32.6553 110.477 32.6504 110.863C32.6504 111.086 33.4004 111.6 33.6837 111.823C36.5771 113.856 39.7672 115.401 43.1337 116.4C45.2367 117.07 47.3802 117.596 49.5504 117.977C54.3218 118.937 59.2289 118.937 64.0004 117.977C69.6641 117.147 75.081 115.046 79.8671 111.823C80.1837 111.566 80.8671 111.103 80.9171 110.863C80.9278 110.489 80.8942 110.114 80.8171 109.748C80.5504 107.006 80.1171 104.451 79.8837 101.846C79.6219 98.6016 79.5217 95.3459 79.5837 92.0913C78.9448 93.6239 78.0975 95.0554 77.0671 96.3428C77.0671 96.3428 77.0671 96.3428 77.0671 96.3428C77.2671 95.8456 77.4337 95.3656 77.6337 94.8342C77.8337 94.3028 80.0671 88.4228 79.7337 84.4285C79.5837 82.7142 79.3671 81.1713 79.2837 79.5428C79.2289 77.8574 79.3238 76.1704 79.5671 74.5028C80.3171 68.0913 81.7671 62.5028 85.6337 59.3485C84.7968 60.6646 84.0505 62.0394 83.4004 63.4628C82.7251 65.0701 82.2707 66.7664 82.0504 68.5028C81.506 72.5284 81.3386 76.5985 81.5504 80.657C84.5307 82.2403 87.3646 84.0994 90.0171 86.2113C90.7937 87.0612 91.7524 87.7127 92.8171 88.1142C93.4028 88.1911 93.9957 88.0447 94.4837 87.7028C93.3229 87.4699 92.272 86.8419 91.5004 85.9199V85.9199Z" fill="#F2F2F2"/>
<path d="M109.685 63.3088C108.018 52.1831 108.385 47.6574 107.418 42.5488C106.685 38.6402 105.751 35.9145 105.518 32.9317C105.26 30.5146 105.851 28.0822 107.185 26.0745C107.618 25.3717 108.468 24.3602 107.835 23.6231C107.492 23.3528 107.083 23.1857 106.653 23.1403C106.224 23.0949 105.79 23.173 105.401 23.3659C104.313 23.8058 103.345 24.5117 102.581 25.4227C101.817 26.3337 101.281 27.4224 101.018 28.5945C101.825 29.5271 102.534 30.5441 103.135 31.6288C100.685 30.5488 100.418 30.1717 98.8345 29.4345C97.6589 28.7713 96.3419 28.4179 95.0012 28.4059C94.0553 28.6151 93.2182 29.1769 92.6512 29.9831C92.3434 30.3326 92.054 30.6988 91.7845 31.0802C91.4531 31.444 91.2128 31.8853 91.0845 32.3659C91.8012 32.2459 92.7512 32.2802 93.3178 32.1088C93.233 31.8434 93.204 31.5625 93.2327 31.2847C93.2615 31.0069 93.3473 30.7385 93.4845 30.4974C93.7178 30.9774 93.6678 31.7317 94.0178 32.0745C95.3624 31.9681 96.689 31.6918 97.9678 31.2517C97.5845 32.4345 96.3012 32.6574 94.9512 32.9659L92.2345 33.5659C90.3845 33.9945 88.9012 34.646 88.9012 36.9088C90.9824 36.7983 93.048 36.4767 95.0678 35.9488C95.6678 35.7259 96.1345 35.3659 96.7345 35.2117C96.533 35.5848 96.3104 35.9454 96.0678 36.2917C95.0012 37.5602 91.9678 37.7831 90.7178 38.0059C90.0633 38.0463 89.4205 38.2029 88.8178 38.4688C88.1345 38.8802 88.0512 39.8745 88.2012 40.8859C90.1845 40.4231 93.0345 40.8859 94.8678 40.2688C94.4178 41.2802 93.4012 41.6059 92.0345 41.7945C90.7874 41.7932 89.5506 42.0256 88.3845 42.4802C87.3345 43.3202 88.2178 45.2574 88.9678 45.9088C89.6597 46.529 90.5345 46.8913 91.4512 46.9374C90.5678 46.0117 88.6512 45.7374 88.2345 44.3317C88.6678 44.4859 89.1012 45.0174 89.6012 45.1031C90.1012 45.1888 90.8178 45.2574 91.4512 45.3088C92.4779 45.2408 93.5078 45.2408 94.5345 45.3088C94.0503 45.7223 93.48 46.0156 92.8678 46.1659C93.6968 47.4953 94.6394 48.746 95.6845 49.9031C96.2727 50.4304 96.9027 50.9063 97.5678 51.3259C98.2178 51.7717 98.9512 52.1317 99.6512 52.5259C99.1184 52.9799 98.4426 53.2177 97.7512 53.1945C97.2012 57.6002 96.0845 61.7659 95.6012 66.3259C95.3507 68.7362 95.3507 71.1671 95.6012 73.5774C95.7178 74.6917 95.9845 75.8059 96.1345 76.8859C96.2605 77.9348 96.524 78.9613 96.9178 79.9374C96.0459 78.7426 95.3548 77.4191 94.8678 76.0117C94.4332 74.3749 94.1157 72.7076 93.9178 71.0231C93.6119 71.8244 93.3504 72.6428 93.1345 73.4745C92.3678 76.5602 91.5512 80.8631 92.9178 84.0345C94.2678 84.6859 95.4345 85.2345 96.8012 85.7488C98.1711 86.4152 99.6327 86.8604 101.134 87.0688C101.867 87.0925 102.594 86.9352 103.256 86.6101C103.917 86.285 104.492 85.8015 104.934 85.2002C105.842 84.1916 106.667 83.1079 107.401 81.9602C109.152 79.5445 110.266 76.7039 110.635 73.7145C110.778 71.9071 110.711 70.0884 110.434 68.2974C110.251 66.6002 109.935 64.9717 109.685 63.3088Z" fill="#FCCB8A"/>
<path d="M33.7334 42.343C33.7507 41.4203 33.627 40.5005 33.3667 39.6173C32.4723 37.0761 32.0648 34.3808 32.1667 31.6802C32.1667 31.6802 32.1667 31.6802 32.1667 31.6802C31.6098 32.5704 31.3093 33.6045 31.3001 34.663C31.2875 35.8112 31.3711 36.9583 31.5501 38.0916C31.7803 40.2094 32.2101 42.2993 32.8334 44.3316C33.1001 44.1945 33.2501 43.8173 33.4001 43.4916C33.5759 43.1319 33.6887 42.7431 33.7334 42.343V42.343Z" fill="#4D4E4E"/>
<path d="M36.3489 32.9143C36.0382 33.031 35.721 33.1283 35.3989 33.2057C34.8991 33.214 34.4056 33.0907 33.9652 32.8477C33.5247 32.6047 33.1519 32.25 32.8822 31.8171C32.8086 34.3323 33.299 36.8312 34.3155 39.12C34.7783 40.3054 34.9776 41.5823 34.8989 42.8571C34.8371 43.4007 34.6641 43.9247 34.3912 44.3945C34.1183 44.8643 33.7517 45.2693 33.3155 45.5829C34.0322 47.2971 36.1822 47.6571 37.8322 48.2914C36.2859 43.3313 35.7804 38.0902 36.3489 32.9143V32.9143Z" fill="#C0272D"/>
<path d="M55.4832 4.95398H58.2499C60.6656 4.98638 63.0721 5.26779 65.4332 5.79398C67.5155 6.17188 69.5318 6.86513 71.4165 7.85112C71.2086 6.53633 70.5812 5.3301 69.6332 4.42255C68.7089 3.88586 67.7075 3.50394 66.6665 3.29112C60.0583 1.62927 53.1528 1.67639 46.5665 3.42826C45.6861 3.60832 44.8411 3.93859 44.0665 4.4054C43.1113 5.30717 42.4824 6.51617 42.2832 7.83398C44.1679 6.84798 46.1842 6.15474 48.2665 5.77683C50.6382 5.24801 53.0565 4.97227 55.4832 4.95398V4.95398Z" fill="#4D4E4E"/>
<path d="M34.2664 31.5602C34.501 31.7435 34.7716 31.8722 35.0594 31.9373C35.3472 32.0024 35.6453 32.0025 35.933 31.9374C35.6473 28.3427 35.7479 24.7265 36.233 21.1545C35.4734 20.9983 34.7633 20.6508 34.1664 20.1431C34.1664 21.7716 33.6664 25.8859 33.4664 29.0231C33.4188 29.4617 33.4188 29.9044 33.4664 30.3431C33.6028 30.8248 33.8826 31.2505 34.2664 31.5602Z" fill="#4D4E4E"/>
<path d="M39.15 16.8859C39.4 15.8573 39.8333 15.0173 40.0833 13.9887C38.66 16.0177 37.7338 18.37 37.3833 20.8459C37.1999 23.023 37.5833 25.4744 37.4999 27.703C37.272 28.8419 37.3293 30.0217 37.6666 31.1316C37.6666 28.6116 38.4833 26.5201 38.5666 24.0859C38.5666 23.2459 38.5666 22.3716 38.5666 21.4973C38.6011 20.1265 38.9158 18.7785 39.49 17.541C40.0643 16.3034 40.8854 15.2041 41.9 14.3144C43.7294 12.5137 45.8876 11.1037 48.2499 10.1659C49.5108 9.62054 50.8158 9.19031 52.1499 8.88014C55.1668 8.07584 58.3331 8.07584 61.3499 8.88014C62.6989 9.19556 64.0201 9.62561 65.2999 10.1659C67.6633 11.1016 69.8219 12.5119 71.6499 14.3144C72.6637 15.2048 73.4842 16.3043 74.0584 17.5416C74.6326 18.779 74.9477 20.1267 74.9833 21.4973C74.9833 22.3887 74.9833 23.2116 74.9833 24.0687C74.9833 26.5544 75.8166 28.6459 75.8999 31.1316C76.1569 29.5684 76.2018 27.976 76.0333 26.4001C76.187 24.7537 76.2426 23.0992 76.1999 21.4459C76.014 18.8287 75.1697 16.3062 73.7499 14.1259C73.7499 14.1259 73.7499 13.9887 73.6333 14.0059C73.8499 14.983 74.3666 15.9773 74.5333 16.8516C74.154 16.0858 73.7252 15.347 73.25 14.6401C72.7833 13.9544 72.4333 13.2173 71.9333 12.583C71.4419 11.9491 70.8829 11.3741 70.2666 10.8687C69.645 10.313 68.9345 9.87219 68.1666 9.56585C67.2083 9.30429 66.2338 9.10956 65.2499 8.983C60.1939 7.68101 54.9158 7.58134 49.8166 8.69157C47.9211 8.86136 46.0671 9.35982 44.3333 10.1659C43.7398 10.5592 43.182 11.0067 42.6666 11.503C41.6646 12.5173 40.8062 13.6714 40.1166 14.9316C39.8333 15.6001 39.5 16.2687 39.15 16.8859Z" fill="#C0272D"/>
<path d="M37.4833 16.457C38.5163 13.8687 40.0664 11.5325 42.0333 9.59987C41.3333 9.25701 41.2 8.19415 41.25 7.14844C38.0976 10.2179 35.9932 14.2524 35.25 18.6513C35.7 18.8742 36.1167 19.1142 36.5833 19.3027C36.793 18.3264 37.0944 17.3733 37.4833 16.457V16.457Z" fill="#4D4E4E"/>
<path d="M42.5332 8.65678C43.4499 9.29107 44.4999 8.65678 45.3332 8.43393C52.8745 6.28495 60.8419 6.28495 68.3832 8.43393C69.2165 8.69107 70.3832 9.30821 71.1665 8.63964C66.6934 6.57372 61.8163 5.59978 56.9165 5.79393C51.9694 5.56443 47.04 6.54559 42.5332 8.65678V8.65678Z" fill="#4D4E4E"/>
<path d="M44.8321 18.8566C45.3375 16.5704 46.2654 14.4054 47.5655 12.4795C47.5655 12.4795 47.5655 12.4795 47.5655 12.4795C46.4102 13.2374 45.2974 14.0615 44.2321 14.9481C43.2094 15.911 42.3873 17.0774 41.8155 18.3766C40.8042 20.7657 40.3752 23.3726 40.5655 25.9709C40.5462 26.861 40.6472 27.7494 40.8655 28.6109C40.8833 28.6623 40.9117 28.7091 40.9488 28.7481C41.9901 28.0959 43.0763 27.5229 44.1988 27.0338C44.168 24.2939 44.38 21.5569 44.8321 18.8566V18.8566Z" fill="#CCCBCB"/>
<path d="M55.9328 24.9771C54.3443 25.0437 52.7625 25.227 51.1994 25.5257C49.8099 25.8018 48.4401 26.1741 47.0994 26.64C44.9742 27.3192 42.9539 28.3062 41.0994 29.5714C41.0857 29.6681 41.0857 29.7662 41.0994 29.8629C40.6994 32.6229 40.7328 36.4629 41.8494 38.2286C42.1147 38.6341 42.4897 38.9509 42.9281 39.1398C43.3664 39.3287 43.8489 39.3814 44.3161 39.2914C44.7413 39.1561 45.1587 38.9958 45.5661 38.8114C46.9161 38.3314 48.1494 37.9714 49.3994 37.4057C48.4528 37.4997 47.4978 37.4477 46.5661 37.2514C46.217 37.1156 45.9033 36.8985 45.6494 36.6171C45.3684 36.3998 45.1211 36.1396 44.9161 35.8457C44.4565 34.7258 44.3975 33.4747 44.7494 32.3143C44.9496 31.2975 45.3526 30.3344 45.9328 29.4857C46.262 29.2069 46.6197 28.9655 46.9994 28.7657C50.0457 27.0001 53.5047 26.1284 56.9994 26.2457C60.4591 26.16 63.8779 27.0302 66.8994 28.7657C67.2844 28.97 67.6428 29.2234 67.9661 29.52C68.2512 29.9233 68.4759 30.3682 68.6328 30.84C69.0137 31.6084 69.2382 32.4486 69.2926 33.3093C69.3471 34.17 69.2303 35.033 68.9494 35.8457C68.7555 36.1586 68.5069 36.4318 68.2161 36.6514C67.9595 36.9214 67.6458 37.1267 67.2994 37.2514C67.0828 37.2514 66.8494 37.2514 66.6161 37.3371C65.9024 37.4326 65.1797 37.4326 64.4661 37.3371C65.7494 37.8343 67.0161 38.2972 68.2994 38.7429C68.7238 38.9377 69.1645 39.0926 69.6161 39.2057C70.0549 39.2773 70.5044 39.2185 70.9119 39.0363C71.3193 38.8541 71.6677 38.556 71.9161 38.1771C72.9994 36.3429 73.0328 32.52 72.6494 29.8286C72.6494 29.7257 72.6494 29.6229 72.5661 29.52C70.503 28.1565 68.257 27.1111 65.8994 26.4171C62.6889 25.3223 59.3123 24.8344 55.9328 24.9771V24.9771Z" fill="#971B1E"/>
<path d="M73.1496 26.0916C73.3829 21.0687 71.9329 17.2287 69.4329 15.0173C68.9058 14.5564 68.3489 14.1325 67.7663 13.7487C67.2363 13.3227 66.6796 12.9333 66.0996 12.583C68.6996 15.9087 69.5996 21.1544 69.5496 27.1201C70.7031 27.6 71.8177 28.1732 72.8829 28.8344C72.892 28.7777 72.892 28.7198 72.8829 28.663C73.0753 27.8206 73.1648 26.9568 73.1496 26.0916V26.0916Z" fill="#CCCBCB"/>
<path d="M22.5488 35.7256C22.2988 35.7256 22.0488 35.7256 21.8155 35.7256C19.8354 35.5368 17.8927 35.0517 16.0488 34.2856C16.0488 34.2856 16.0488 34.2856 16.0488 34.2856C16.431 34.8441 16.8545 35.3713 17.3155 35.8628C17.2155 35.6742 17.0988 35.4856 16.9988 35.2628C17.5322 35.4685 18.0322 35.8285 18.6655 36.0342C20.6804 36.5582 22.7401 36.8798 24.8155 36.9942V36.8056C24.5483 36.4533 24.2033 36.1715 23.8091 35.9837C23.4149 35.7959 22.9829 35.7074 22.5488 35.7256V35.7256Z" fill="#ECAB5F"/>
<path d="M94.8492 35.2119C93.86 35.5058 92.8431 35.6897 91.8158 35.7605H91.0825C90.6831 35.7527 90.2868 35.8346 89.9212 36.0004C89.5557 36.1662 89.2297 36.4119 88.9658 36.7205C88.9731 36.806 88.9731 36.8921 88.9658 36.9776C91.0471 36.8671 93.1126 36.5456 95.1325 36.0176C95.7325 35.7948 96.1991 35.4348 96.7991 35.2805L96.5325 35.7262C96.9415 35.2671 97.3201 34.7803 97.6658 34.269C96.7478 34.6457 95.8069 34.9607 94.8492 35.2119V35.2119Z" fill="#ECAB5F"/>
<path d="M16.916 39.2744C17.242 39.5927 17.6129 39.8586 18.016 40.063C18.2751 40.2552 18.5547 40.4162 18.8493 40.543H19.0827C19.0079 40.4309 18.9464 40.31 18.8993 40.183C20.716 40.7487 23.6327 40.3373 25.566 40.8001C25.5893 40.5435 25.5893 40.2853 25.566 40.0287C24.9701 39.7674 24.3304 39.6276 23.6827 39.6173C21.4327 39.4287 18.9493 39.5316 16.916 39.2744Z" fill="#ECAB5F"/>
<path d="M96.4506 39.6173C96.5839 39.5144 96.7839 39.3944 96.7672 39.2744C95.5006 39.2744 94.2006 39.5487 92.6006 39.5487C91.9339 39.5487 91.2672 39.5487 90.6339 39.6344C89.7812 39.6255 88.934 39.7765 88.1339 40.0801C88.1181 40.3485 88.1181 40.6175 88.1339 40.8858C90.1172 40.423 92.9672 40.8858 94.8006 40.2687C94.7495 40.3884 94.6882 40.5031 94.6172 40.6116L94.9672 40.4744C95.4888 40.2415 95.9859 39.9543 96.4506 39.6173V39.6173Z" fill="#ECAB5F"/>
<path d="M42.2827 45.1716C44.8826 45.6692 47.5494 45.6692 50.1493 45.1716C51.4924 46.741 53.0081 48.1447 54.666 49.3544C55.3888 49.4662 56.1185 49.5235 56.8493 49.5259C57.5407 49.5202 58.2311 49.4687 58.916 49.3716C60.4104 48.3349 61.781 47.1208 62.9994 45.7544C63.1494 45.583 63.3827 45.2059 63.5327 45.1716C63.7692 45.1887 64.0036 45.2289 64.2327 45.2916C65.5647 45.5238 66.9155 45.6214 68.266 45.583C69.7599 45.6257 71.2464 45.3514 72.6327 44.7773C72.8233 44.6665 72.9973 44.528 73.1493 44.3659L73.2994 43.8173C72.0999 44.3364 70.8169 44.6213 69.516 44.6573C66.9827 44.7773 62.4994 43.7316 58.9494 43.5602C56.4736 43.4309 53.9916 43.5284 51.5327 43.8516C49.2243 44.2815 46.8919 44.5621 44.5494 44.6916C43.1337 44.6693 41.7335 44.3847 40.416 43.8516C40.4616 44.0544 40.5172 44.2546 40.5827 44.4516C40.7024 44.5839 40.8433 44.6941 40.9994 44.7773C41.4093 44.9639 41.8405 45.0963 42.2827 45.1716V45.1716ZM54.6494 44.7602C56.0946 44.9315 57.5541 44.9315 58.9994 44.7602C58.6327 45.0687 58.1827 45.2744 57.8327 45.6002C59.1804 45.398 60.5158 45.1175 61.8327 44.7602C61.8327 44.8802 61.7327 44.9316 61.666 45.0002C60.7713 45.9527 59.7294 46.7463 58.5827 47.3487L58.216 47.5544C59.116 47.1944 59.8827 46.5602 60.616 46.3202C60.616 46.8002 60.0993 47.0916 59.7327 47.4002C59.366 47.7087 58.7494 48.6344 57.666 48.7373C57.1721 48.7716 56.6766 48.7716 56.1827 48.7373C55.116 48.6516 54.7327 48.0173 54.0827 47.4344C53.766 47.1602 53.266 46.783 53.1827 46.3202C53.866 46.663 54.566 47.1602 55.3327 47.503L55.116 47.383C53.8738 46.715 52.7475 45.8404 51.7827 44.7944C53.166 44.9144 54.2827 45.5316 55.816 45.6002C55.4532 45.2837 55.0626 45.0025 54.6494 44.7602V44.7602Z" fill="#ECAB5F"/>
<path d="M46.7324 49.6115C46.965 50.3768 47.3771 51.0715 47.9324 51.6343V51.6343C47.7158 50.7943 47.4658 49.92 47.2991 49.0972C47.0913 49.2452 46.9011 49.4178 46.7324 49.6115Z" fill="#ECAB5F"/>
<path d="M65.833 51.4285V51.5485C66.1047 51.2351 66.3553 50.9029 66.583 50.5543C66.7722 50.2499 66.8866 49.9028 66.9163 49.5428C66.758 49.39 66.5911 49.2469 66.4163 49.1143C66.2497 49.9543 66.0163 50.6743 65.833 51.4285Z" fill="#ECAB5F"/>
<path d="M20.5501 31.6458C20.5561 31.5888 20.5561 31.5313 20.5501 31.4744C20.5667 31.7176 20.5384 31.9619 20.4668 32.1944H20.9835C20.8668 31.9887 20.6335 31.7829 20.5501 31.6458Z" fill="#ECAB5F"/>
<path d="M20.0514 31.114C19.0539 31.535 17.9779 31.7223 16.9014 31.6626C17.8286 31.8846 18.7698 32.0392 19.718 32.1254C19.9104 31.8226 20.025 31.4747 20.0514 31.114V31.114Z" fill="#ECAB5F"/>
<path d="M93.666 31.1316C93.6899 31.4902 93.8112 31.8347 94.016 32.1259C94.9588 32.0399 95.8945 31.8853 96.816 31.663C95.7403 31.7365 94.6625 31.5547 93.666 31.1316Z" fill="#ECAB5F"/>
<path d="M93.2342 31.3542C93.1967 31.4546 93.1521 31.552 93.1009 31.6457C93.1009 31.8 92.7842 32.0057 92.7676 32.2457C92.9537 32.2296 93.1379 32.1951 93.3176 32.1428C93.2472 31.8866 93.219 31.62 93.2342 31.3542Z" fill="#ECAB5F"/>
<path d="M25.4182 44.3655C25.1349 45.3084 24.2349 45.6512 23.4682 46.0798C23.1016 46.3026 22.7516 46.4912 22.4182 46.7141C22.4182 46.7141 22.1349 46.9026 22.2016 46.9369C23.0126 46.9208 23.7954 46.6273 24.4262 46.1027C25.0569 45.578 25.4998 44.8522 25.6849 44.0398V44.0398L25.4182 44.3655Z" fill="#ECAB5F"/>
<path d="M89.0166 45.9426C89.7085 46.5627 90.5833 46.9251 91.4999 46.9711C90.6333 46.0454 88.7666 45.7883 88.2999 44.434C88.214 44.3285 88.1192 44.231 88.0166 44.1426C88.1791 44.8272 88.5256 45.451 89.0166 45.9426V45.9426Z" fill="#ECAB5F"/>
<path d="M42.4497 51.7713C43.6352 53.4291 44.9328 54.9987 46.3331 56.4685C47.6598 57.9988 49.0734 59.447 50.5664 60.8056C52.3642 62.2472 54.5785 63.0301 56.8581 63.0301C59.1376 63.0301 61.3519 62.2472 63.1497 60.8056C64.6333 59.4425 66.0411 57.9945 67.3664 56.4685C70.0497 53.4342 72.9831 50.5885 73.4331 45.3599C73.1046 45.9525 72.7429 46.5249 72.3497 47.0742C72.0497 47.7428 71.7331 48.3942 71.4164 49.0628C70.6554 50.7885 69.6501 52.3887 68.4331 53.8113C67.2331 55.2171 65.9164 56.4685 64.6331 57.7199C63.3346 59.0457 61.8786 60.1976 60.2997 61.1485C61.0583 60.3677 61.6787 59.457 62.1331 58.4571V58.4571C61.3888 59.4072 60.3932 60.1157 59.2664 60.4971V60.4971C58.5329 60.7322 57.7681 60.8479 56.9997 60.8399C56.1813 60.8633 55.3648 60.7475 54.5831 60.4971C54.2342 60.3667 53.8991 60.2001 53.5831 59.9999C52.8505 59.5783 52.196 59.027 51.6497 58.3713H51.5164C51.9767 59.372 52.6027 60.2827 53.3664 61.0628V61.0628C51.799 60.0945 50.345 58.9441 49.0331 57.6342C47.7664 56.3999 46.4331 55.0628 45.2664 53.7256C44.0564 52.301 43.0569 50.701 42.2997 48.9771L41.2664 46.7999C40.9331 46.3199 40.6331 45.8228 40.3164 45.3428C40.5443 47.6243 41.2738 49.8226 42.4497 51.7713V51.7713Z" fill="#ECAB5F"/>
<path d="M45.0324 59.5711C45.3158 60.2397 45.4324 60.8568 45.6991 61.4397C46.4284 62.811 47.4351 64.0057 48.6512 64.9431C49.8673 65.8805 51.2647 66.5389 52.7491 66.8739C53.3991 67.0625 54.0158 67.2854 54.6491 67.4397C55.3699 67.5664 56.1026 67.6067 56.8324 67.5597C57.5629 67.6032 58.2958 67.5572 59.0158 67.4225C62.3491 66.5482 65.2324 65.3997 66.9824 62.9482C67.3404 62.4534 67.6529 61.9254 67.9158 61.3711C68.1824 60.8225 68.3324 60.2225 68.6158 59.5711C68.7891 59.2034 68.9955 58.8533 69.2324 58.5254C69.5824 57.9254 69.8991 57.3254 70.1991 56.6739C70.1991 56.2111 70.1991 55.7139 70.1991 55.2168C69.8233 55.5793 69.4672 55.9627 69.1324 56.3654C68.7991 56.7082 68.2158 57.1539 68.0658 57.5825C67.9982 57.8755 67.9536 58.1736 67.9324 58.4739C67.5978 60.1012 66.8717 61.616 65.8206 62.8799C64.7694 64.1438 63.4269 65.1162 61.9158 65.7082C61.4303 65.9109 60.9352 66.0882 60.4324 66.2397C59.2738 66.5454 58.0774 66.6725 56.8824 66.6168C55.6767 66.6638 54.4705 66.5369 53.2991 66.2397C49.4658 64.8682 46.6324 62.8111 45.7324 58.5082C45.6987 58.2084 45.6486 57.9108 45.5824 57.6168C45.4561 57.3847 45.2861 57.1807 45.0824 57.0168L44.6324 56.5711L43.4824 55.3025C43.4824 55.8339 43.4824 56.3654 43.4824 56.8797L43.7991 57.5482C44.1991 58.2854 44.6491 58.9025 45.0324 59.5711Z" fill="#CCCBCB"/>
<path d="M38.5844 56.5713C37.9176 57.2206 37.1857 57.7952 36.401 58.2856C35.5844 58.8342 34.7344 59.2113 33.9844 59.8113C38.3903 61.9443 42.4048 64.8441 45.851 68.3828C46.0677 68.6228 46.2344 68.9142 46.4677 69.1542C47.0796 69.7305 47.7634 70.2206 48.501 70.6113C49.2628 71.0573 50.0602 71.4358 50.8844 71.7428C54.784 73.046 58.9847 73.046 62.8844 71.7428C64.5145 71.191 66.0215 70.311 67.3177 69.1542C67.7844 68.6742 68.1344 68.1428 68.5844 67.6799C71.9281 64.4965 75.7071 61.834 79.801 59.777C78.951 59.2285 78.1344 58.8342 77.3844 58.2856C76.6022 57.7991 75.8755 57.2241 75.2177 56.5713C74.224 55.375 73.5823 53.9121 73.3677 52.3542C73.3677 52.1828 73.3677 51.8228 73.2344 51.4799L72.8177 51.4285C72.511 52.0231 72.1658 52.5958 71.7844 53.1428C71.63 53.3264 71.5062 53.5349 71.4177 53.7599C71.3852 54.1019 71.3852 54.4464 71.4177 54.7885C71.4377 55.8281 71.3596 56.8672 71.1844 57.8913C70.8593 61.3289 69.4485 64.5623 67.1677 67.097C65.5794 68.6012 63.6654 69.6943 61.5844 70.2856C61.0385 70.4656 60.4817 70.6087 59.9177 70.7142C58.5636 70.8888 57.1967 70.9347 55.8344 70.8513C55.1344 70.8513 54.4344 70.8513 53.7844 70.7142C52.8639 70.5243 51.9607 70.2548 51.0844 69.9085C48.6283 69.1186 46.499 67.5077 45.0344 65.3313C42.9983 61.8649 42.0606 57.8331 42.351 53.7942C41.8118 53.0363 41.3165 52.2463 40.8677 51.4285L40.4844 51.5828C40.4844 51.9256 40.3844 52.2856 40.351 52.4399C40.1489 53.9597 39.5369 55.3909 38.5844 56.5713Z" fill="#CCCBCB"/>
<path d="M20.8663 74.88C20.6335 73.5447 20.2591 72.2398 19.7496 70.9885C19.6465 74.2164 18.5947 77.3364 16.7329 79.9371C16.7329 79.9371 16.7329 79.9371 16.7329 79.9371C16.9329 79.4057 16.1829 80.6742 15.8496 81.2571C15.2329 82.32 14.4996 83.2628 13.8829 84.2742C13.8829 84.4285 13.6496 84.5657 13.6829 84.6857C14.725 84.8357 15.7865 84.6437 16.7163 84.1371C17.4496 83.8457 18.2329 83.4685 18.9163 83.16C19.7947 82.7788 20.6278 82.2957 21.3996 81.72C21.5788 79.4253 21.3987 77.1159 20.8663 74.88V74.88Z" fill="#ECAB5F"/>
<path d="M27.3503 58.697C27.7131 59.536 27.9977 60.4085 28.2003 61.3027C28.7662 63.3469 29.0137 65.4703 28.9336 67.5942C28.8169 70.2684 28.0669 73.3027 25.6003 73.4913C25.0174 73.51 24.4377 73.3969 23.9021 73.1599C23.3664 72.923 22.8879 72.5679 22.5003 72.1199L21.4336 71.1942C21.7569 71.891 22.0407 72.6064 22.2836 73.337V73.337C22.6245 74.4137 22.8918 75.5135 23.0836 76.6284C23.4695 78.6311 23.5872 80.6787 23.4336 82.7142V82.7142C23.6836 82.4056 23.8503 82.0113 24.0669 81.6856C25.2928 79.9768 27.0619 78.7637 29.0669 78.257C30.0564 77.9031 31.1049 77.7573 32.1503 77.8285C32.1884 74.663 31.9878 71.4992 31.5503 68.3656C31.0861 65.0553 29.8636 61.9059 27.9836 59.177L28.3836 59.5542C28.116 59.1824 27.7602 58.8873 27.3503 58.697V58.697Z" fill="#CCCBCB"/>
<path d="M96.9158 84.0857C97.8504 84.5959 98.9183 84.788 99.9658 84.6343C99.3491 83.4514 98.4824 82.3886 97.7824 81.2057C97.4324 80.6228 96.8324 79.6457 96.9658 79.9714C96.0939 78.7767 95.4027 77.4531 94.9158 76.0457C94.4812 74.4089 94.1637 72.7416 93.9658 71.0571C93.6598 71.8584 93.3983 72.6768 93.1824 73.5086C92.4017 76.202 92.119 79.0222 92.3491 81.8228L92.6824 82.0457C94.0141 82.8879 95.4343 83.5723 96.9158 84.0857V84.0857Z" fill="#ECAB5F"/>
<path d="M90.3513 80.1085C90.4061 78.6476 90.5959 77.1953 90.9179 75.7713C91.1179 74.897 91.3346 74.057 91.5846 73.2685C91.5846 73.2685 91.5846 73.2685 91.5846 73.1828C91.8228 72.4312 92.1124 71.698 92.4513 70.9885L92.2179 71.1942C91.8679 71.537 91.5013 71.8113 91.1679 72.1199C90.4844 72.8671 89.5727 73.3511 88.5846 73.4913C87.8282 73.5486 87.0768 73.3262 86.4657 72.8642C85.8546 72.4022 85.4239 71.7309 85.2513 70.9713C84.7432 69.4517 84.5336 67.8435 84.6346 66.2399C84.7259 63.9054 85.1412 61.5963 85.8679 59.3828C86.0424 59.1556 86.1674 58.8925 86.2346 58.6113V58.6113C85.6543 58.8691 85.1572 59.2912 84.8013 59.8285C85.0679 59.5542 85.3346 59.3142 85.6179 59.0742C84.781 60.3903 84.0347 61.7651 83.3846 63.1885C82.7093 64.7959 82.2549 66.4922 82.0346 68.2285C81.6113 71.3634 81.4163 74.5265 81.4513 77.6913C82.4749 77.6165 83.5024 77.7625 84.4679 78.1199C86.477 78.617 88.249 79.8322 89.4679 81.5485C89.7013 81.8913 89.8679 82.2685 90.1346 82.5942L90.2513 82.7142C90.2198 81.8443 90.2533 80.9731 90.3513 80.1085Z" fill="#CCCBCB"/>
<path d="M77.8333 31.9368C78.2677 32.0302 78.7199 31.9698 79.1167 31.7654C79.1767 28.2369 78.9985 24.7084 78.5833 21.2054C78.5833 21.0682 78.5833 20.9311 78.5833 20.7939C78.2372 20.9571 77.8736 21.078 77.5 21.1539C77.9963 24.7247 78.1081 28.3408 77.8333 31.9368V31.9368Z" fill="#333333"/>
<path d="M75.1503 24.0854C75.1503 26.5711 75.9837 28.6625 76.067 31.1482C76.3239 29.585 76.3688 27.9927 76.2003 26.4168C76.354 24.7704 76.4097 23.1159 76.367 21.4625C76.1342 18.8234 75.2319 16.2933 73.7503 14.1254C73.7503 14.1254 73.7503 13.9882 73.6337 14.0054C73.8503 14.9825 74.367 15.9768 74.5337 16.8511C74.1544 16.0853 73.7256 15.3465 73.2503 14.6397C72.5097 13.1909 71.4888 11.9132 70.2503 10.8854C69.6287 10.3296 68.9182 9.88884 68.1503 9.58251C67.1978 9.31592 66.229 9.11546 65.2503 8.98251C60.1942 7.68052 54.9162 7.58085 49.817 8.69108C47.9215 8.86087 46.0675 9.35933 44.3337 10.1654C43.7402 10.5587 43.1824 11.0062 42.667 11.5025C41.665 12.5168 40.8066 13.671 40.117 14.9311C39.7337 15.5482 39.4003 16.2168 39.0503 16.8339C39.3003 15.8054 39.7337 14.9654 39.9837 13.9368C38.5604 15.9658 37.6342 18.3181 37.2837 20.7939C37.1003 22.9711 37.4837 25.4225 37.4003 27.6511C37.1724 28.79 37.2297 29.9698 37.567 31.0796C37.567 28.5596 38.3837 26.4682 38.467 24.0339C38.467 23.1939 38.467 22.3197 38.467 21.4454C38.4621 20.3229 38.6717 19.2105 39.0837 18.1711C39.0837 17.8797 39.2003 17.6054 39.267 17.3311C39.3581 16.8711 39.4979 16.4227 39.6837 15.9939C39.8968 15.6339 40.1423 15.2953 40.417 14.9825C42.4455 12.1335 45.4038 10.1313 48.7503 9.34251C47.8579 9.84424 47.0053 10.4174 46.2003 11.0568C46.8559 10.7139 47.5392 10.3882 48.2503 10.0797C49.5112 9.53434 50.8162 9.10411 52.1503 8.79394C55.1672 7.98963 58.3335 7.98963 61.3503 8.79394C62.6993 9.10936 64.0205 9.53941 65.3003 10.0797C65.9503 10.3539 66.5837 10.6625 67.2003 10.9711C66.4377 10.3057 65.6047 9.73062 64.717 9.2568C68.0504 10.0046 71.0094 11.9647 73.0503 14.7768C73.3652 15.1256 73.6393 15.5111 73.867 15.9254C74.0857 16.4779 74.2477 17.0525 74.3503 17.6397V17.8111C74.8164 18.8909 75.0604 20.0582 75.067 21.2397C75.117 22.4054 75.117 23.2282 75.1503 24.0854Z" fill="#971B1E"/>
<path d="M80.8163 31.8516C80.5552 32.2927 80.1842 32.6541 79.7417 32.8982C79.2992 33.1424 78.8013 33.2604 78.2996 33.2401C77.9329 33.2401 77.5829 32.9658 77.3663 32.9658C77.9012 37.8895 77.4704 42.8735 76.0996 47.623C76.7496 47.143 77.3329 46.543 78.0163 46.1144C77.8426 43.9181 78.0114 41.7073 78.5163 39.5658C78.7496 38.5716 79.0163 37.6458 79.1829 36.6516C79.3459 35.6739 79.5629 34.7066 79.8329 33.7544C80.1663 33.5487 80.5329 33.3601 80.8496 33.1201C80.8647 32.697 80.8535 32.2733 80.8163 31.8516V31.8516Z" fill="#971B1E"/>
<path d="M34.2014 35.1771C34.3181 35.7429 34.4014 36.24 34.4848 36.6857C34.6681 37.7314 34.9348 38.6229 35.1514 39.5486C35.6702 41.6761 35.8392 43.8779 35.6514 46.0629C36.3514 46.56 36.9514 47.1429 37.6348 47.64C36.2596 42.868 35.8233 37.8618 36.3514 32.9143C36.0408 33.031 35.7235 33.1283 35.4014 33.2057C34.9017 33.214 34.4082 33.0907 33.9677 32.8477C33.5273 32.6047 33.1545 32.25 32.8848 31.8171C32.8848 32.2971 32.8848 32.7257 32.8848 33.1371C33.1848 33.3257 33.5181 33.48 33.8014 33.6857C33.9971 34.1629 34.1316 34.6642 34.2014 35.1771Z" fill="#971B1E"/>
<path d="M71.6816 9.61727C73.6627 11.5304 75.2054 13.8726 76.1983 16.4744C76.6394 17.3775 76.9697 18.3333 77.1816 19.3201C77.515 19.183 77.815 19.0287 78.115 18.8744L77.8316 18.0344C76.7414 14.7634 75.0432 11.7416 72.8316 9.13727L72.315 8.48584C72.2572 8.93414 72.0296 9.34081 71.6816 9.61727V9.61727Z" fill="#333333"/>
<path d="M35.8838 31.9373C35.598 28.3426 35.6986 24.7265 36.1838 21.1545C35.7996 21.0913 35.428 20.9639 35.0838 20.7773C34.6352 24.4096 34.4514 28.0712 34.5338 31.7316C34.9445 31.9667 35.4244 32.0398 35.8838 31.9373V31.9373Z" fill="#333333"/>
<path d="M37.4833 16.4565C38.5162 13.8682 40.0664 11.532 42.0333 9.59931C41.8341 9.47551 41.6656 9.30573 41.5412 9.10341C41.4169 8.90108 41.3399 8.67177 41.3166 8.43359C41.0999 8.65645 40.9166 8.94788 40.7666 9.10216C38.4301 11.9811 36.6483 15.2915 35.5166 18.8565C35.8418 19.0337 36.1756 19.1939 36.5166 19.3364C36.7456 18.346 37.0695 17.3813 37.4833 16.4565V16.4565Z" fill="#333333"/>
<path d="M45.3337 8.43436C52.875 6.28539 60.8424 6.28539 68.3837 8.43436C69.1183 8.80195 69.9367 8.95608 70.7503 8.88008C70.4521 8.7017 70.1328 8.56343 69.8003 8.46865C67.1112 7.47063 64.312 6.81994 61.467 6.5315C60.167 6.4115 58.8003 6.30865 57.5503 6.2915H56.1003C51.928 6.31529 47.7885 7.051 43.8503 8.46865C43.5256 8.56311 43.2125 8.6954 42.917 8.86293C43.7461 8.97374 44.5885 8.82436 45.3337 8.43436Z" fill="#333333"/>
<path d="M74.7999 96.9938C73.9604 97.8737 73.0579 98.6874 72.0999 99.4281C71.1165 100.148 70.0832 100.817 69.0165 101.468C67.886 102.123 66.6829 102.635 65.4332 102.994C64.108 103.433 62.7548 103.777 61.3832 104.022C58.3834 104.731 55.2664 104.731 52.2665 104.022C50.895 103.777 49.5417 103.433 48.2165 102.994C46.9679 102.632 45.7652 102.12 44.6332 101.468C43.5832 100.8 42.5332 100.114 41.5499 99.4281C40.5924 98.6929 39.6899 97.8849 38.8499 97.011C38.407 96.6018 38.005 96.1481 37.6499 95.6567C36.2058 93.3641 35.0362 90.9006 34.1665 88.3195C34.6798 91.0336 35.4905 93.6791 36.5832 96.2052C35.5609 94.9054 34.704 93.4767 34.0332 91.9538C34.0332 92.571 34.0332 93.1881 34.0332 93.8053C34.6055 96.2938 35.012 98.8197 35.2499 101.365C35.6874 105.212 35.9156 109.081 35.9332 112.954V113.142C38.2243 114.426 40.6368 115.466 43.1332 116.245C45.2362 116.915 47.3797 117.442 49.5499 117.822C54.3213 118.782 59.2284 118.782 63.9999 117.822C68.7782 117.061 73.3981 115.479 77.6665 113.142C77.6498 112.937 77.6498 112.731 77.6665 112.525C77.6665 110.811 77.6665 109.097 77.8332 107.52C77.9332 105.394 78.1332 103.234 78.3665 101.16C78.5534 99.1397 78.8427 97.1312 79.2332 95.1424C79.3332 94.5938 79.4832 94.0624 79.6332 93.4281C79.7832 92.7938 79.6332 92.3653 79.6332 91.8338C78.9943 93.3664 78.1469 94.7978 77.1165 96.0853C77.1165 96.0853 77.1165 96.0853 77.1165 96.0853C77.3165 95.5881 77.4832 95.1081 77.6832 94.5767C78.4747 92.4765 79.0826 90.3079 79.4999 88.0967C78.6119 90.7193 77.4318 93.2274 75.9832 95.571C75.6311 96.0809 75.2351 96.5571 74.7999 96.9938V96.9938Z" fill="#CCCBCB"/>
<path d="M69.6337 4.43968C68.7095 3.903 67.7081 3.52107 66.6671 3.30825C60.0602 1.64079 53.1547 1.68202 46.5671 3.42825C45.6866 3.60831 44.8416 3.93858 44.0671 4.4054C43.1735 5.29019 42.5878 6.45284 42.4004 7.71397C42.4803 7.61103 42.5527 7.50217 42.6171 7.38825C43.6004 5.79397 45.9504 5.2454 48.1004 4.79968C50.7805 4.27051 53.4922 3.92688 56.2171 3.77111C57.6373 3.72644 59.0586 3.80097 60.4671 3.99397C63.0814 4.19347 65.6679 4.67614 68.1837 5.43397C69.2901 5.69544 70.2946 6.29267 71.0671 7.14825C71.1837 7.31968 71.2837 7.57683 71.4337 7.7654C71.2006 6.48526 70.5687 5.31793 69.6337 4.43968V4.43968Z" fill="#676767"/>
<path d="M33.3667 30.343C33.4589 30.6771 33.6374 30.9793 33.8833 31.2173C33.8833 30.8916 33.8833 30.5316 33.8833 30.2059C34.1333 26.9144 34.45 23.7773 34.9 20.6916C34.629 20.5304 34.3674 20.3529 34.1167 20.1602V20.2973C34.0167 22.0116 33.6 25.9716 33.4167 29.023C33.3524 29.4597 33.3356 29.9025 33.3667 30.343V30.343Z" fill="#676767"/>
<path d="M41.25 7.13184C38.0945 10.2058 35.9898 14.2468 35.25 18.6518L35.5167 18.789C35.6667 18.3261 35.7167 17.829 35.8333 17.3833C36.4357 14.9365 37.5004 12.6357 38.9667 10.6118L39.8 9.49755C40.2004 8.83632 40.7143 8.25546 41.3167 7.78326C41.2814 7.56775 41.2591 7.35019 41.25 7.13184V7.13184Z" fill="#676767"/>
<path d="M72.4336 7.13184C72.4495 7.40016 72.4495 7.66923 72.4336 7.93755L73.0669 8.40041C74.2421 9.87676 75.3169 11.4347 76.2836 13.0633C76.9595 14.4452 77.4849 15.8998 77.8503 17.4004C77.9669 17.8633 78.0169 18.3604 78.1669 18.8061L78.5003 18.6518C77.7527 14.2344 75.6224 10.1892 72.4336 7.13184V7.13184Z" fill="#676767"/>
<path d="M79.7331 30.2574C79.7331 30.5831 79.7331 30.9602 79.7331 31.2859C80.0008 31.0196 80.201 30.6901 80.3165 30.3259C80.3551 29.8925 80.3551 29.4564 80.3165 29.0231C80.1498 26.2974 79.7998 22.8002 79.5831 20.3145V20.1431C79.3582 20.3842 79.0929 20.5817 78.7998 20.7259C79.1831 23.7774 79.4998 26.8974 79.7331 30.2574Z" fill="#676767"/>
<path d="M6.3997 24.7202C7.37256 24.8747 8.31678 25.1811 9.1997 25.6288C10.0285 26.0256 10.7582 26.6119 11.333 27.3431C11.5685 27.7408 11.78 28.153 11.9664 28.5774C11.9664 28.7488 12.133 29.0402 12.2664 29.2974C12.4164 29.0917 12.5664 28.9031 12.6997 28.6974C12.4517 27.6794 12.0026 26.7249 11.3804 25.8932C10.7582 25.0615 9.97615 24.3704 9.08303 23.8631C8.44308 23.4201 7.68767 23.1871 6.91636 23.1945H6.6497H6.53303C6.31802 23.2539 6.12116 23.3684 5.96085 23.5273C5.80054 23.6862 5.68202 23.8843 5.61636 24.1031C5.61154 24.4721 5.7226 24.8328 5.93303 25.1317C6.08303 25.0459 6.23303 24.8745 6.3997 24.7202Z" fill="#FFD9AE"/>
<path d="M67.7679 31.9368C67.2346 30.2226 62.7679 27.6511 56.8346 27.6511C50.9013 27.6511 47.4513 29.3654 46.3679 30.9597C46.116 31.3412 45.93 31.7646 45.8179 32.2111C45.6702 32.7311 45.5752 33.2653 45.5346 33.8054C45.501 34.3311 45.6274 34.8546 45.8962 35.3031C46.165 35.7516 46.5629 36.1029 47.0346 36.3083C47.773 36.6189 48.5746 36.7366 49.3679 36.6511C49.642 36.577 49.9096 36.4795 50.1679 36.3597L51.0679 36.1368C52.9642 35.5432 54.9358 35.2427 56.9179 35.2454C59.1829 35.2595 61.4319 35.6354 63.5846 36.3597C63.8553 36.4772 64.1338 36.5746 64.4179 36.6511C65.2338 36.7341 66.0564 36.5921 66.8013 36.2397C67.389 35.9328 67.8434 35.4104 68.0749 34.7756C68.3063 34.1408 68.2979 33.4398 68.0513 32.8111C67.8846 32.5711 67.8513 32.2111 67.7679 31.9368Z" fill="#EC1E24"/>
<path d="M32.1667 31.6802C31.6098 32.5704 31.3093 33.6045 31.3001 34.663C31.2875 35.8112 31.3711 36.9583 31.5501 38.0916C31.7803 40.2094 32.2101 42.2993 32.8334 44.3316C33.0381 44.1896 33.1953 43.986 33.2834 43.7487C33.2834 43.4573 33.1001 43.183 33.0334 42.9259C32.6011 41.2405 32.3111 39.5198 32.1667 37.783C32.0836 36.6818 32.0836 35.5757 32.1667 34.4745C32.0567 33.5465 32.0567 32.6082 32.1667 31.6802Z" fill="#676767"/>
<path d="M80.8835 44.3316C81.491 42.2941 81.9259 40.2063 82.1835 38.0916C82.4501 35.863 82.7168 33.1545 81.5501 31.6802C81.7003 32.6857 81.7003 33.7089 81.5501 34.7145C81.6415 35.7581 81.6415 36.808 81.5501 37.8516C81.3652 39.8304 81.0025 41.7873 80.4668 43.6973C80.5368 43.9488 80.6827 44.1709 80.8835 44.3316Z" fill="#676767"/>
<path d="M17.417 41.1426C17.7564 41.4467 18.1315 41.7059 18.5337 41.914C18.8767 42.1626 19.2328 42.3915 19.6003 42.5997C20.4781 42.9233 21.4014 43.097 22.3337 43.114C23.2682 43.1199 24.196 43.2761 25.0837 43.5769C25.2837 43.6797 25.4837 43.9369 25.7337 44.0054C25.7419 43.857 25.7419 43.7082 25.7337 43.5597C25.7503 43.4749 25.7503 43.3874 25.7337 43.3026C25.7227 43.1416 25.6783 42.9848 25.6036 42.8429C25.5288 42.701 25.4254 42.5771 25.3003 42.4797C24.3683 42.0603 23.3671 41.8276 22.3503 41.794L21.6003 41.7083C21.0295 41.6585 20.4683 41.5257 19.9337 41.314H19.817C19.0146 41.3011 18.2134 41.2439 17.417 41.1426V41.1426Z" fill="#FFD9AE"/>
<path d="M94.083 42.6855C94.4769 42.4736 94.8557 42.2329 95.2163 41.9655C95.5137 41.8068 95.798 41.6234 96.0663 41.4169C96.0663 41.4169 96.233 41.2798 96.1996 41.1941C96.1176 41.1723 96.0316 41.1723 95.9496 41.1941C95.283 41.2969 94.583 41.2798 93.7663 41.3655C93.2318 41.5777 92.6706 41.7104 92.0996 41.7598L91.283 41.8455C90.3237 41.915 89.3771 42.1109 88.4663 42.4283C88.2508 42.6217 88.095 42.8756 88.018 43.1589C87.941 43.4421 87.9462 43.7424 88.033 44.0226C88.2303 43.911 88.4197 43.7849 88.5996 43.6455C90.033 42.9598 92.433 43.4398 94.083 42.6855Z" fill="#FFD9AE"/>
<path d="M50.7831 48.3772C51.6331 48.6172 52.4498 48.8572 53.3998 49.0629C52.9164 48.8057 52.4831 48.4629 52.0164 48.24C51.5147 48.0404 51.0028 47.8687 50.4831 47.7257C49.944 47.5145 49.3856 47.3595 48.8164 47.2629C48.706 47.2457 48.5936 47.2457 48.4831 47.2629C48.1998 47.2629 48.2164 47.4857 48.0331 47.64L47.7831 47.7772C47.7754 47.857 47.7754 47.9373 47.7831 48.0172C48.7966 47.8713 49.8295 47.9952 50.7831 48.3772V48.3772Z" fill="#FFD9AE"/>
<path d="M65.8832 48C65.8923 47.9375 65.8923 47.8739 65.8832 47.8114C65.7665 47.7086 65.6165 47.6914 65.5332 47.6229C65.4499 47.5543 65.3999 47.3486 65.3165 47.2972C65.1295 47.2584 64.9369 47.2584 64.7499 47.2972C64.1802 47.3917 63.6217 47.5468 63.0832 47.76C62.5832 47.9314 62.0332 48.0514 61.5499 48.2743C61.0665 48.4972 60.9665 48.6686 60.6499 48.8229L60.0332 49.1314C60.9999 48.9257 61.9165 48.6686 62.8332 48.4114C63.798 48.0048 64.849 47.863 65.8832 48V48Z" fill="#FFD9AE"/>
<path d="M56.9152 59.4513C58.0426 59.4915 59.1687 59.3409 60.2486 59.0056C60.9503 58.7235 61.6163 58.3551 62.2319 57.9084H61.7486C61.8652 57.737 62.1319 57.5999 62.0819 57.3599C60.8228 57.6842 59.5412 57.9077 58.2486 58.0284C57.3319 58.0284 56.3652 58.0284 55.4319 58.0284C54.1628 57.8956 52.9042 57.6722 51.6652 57.3599V57.3599C51.6652 57.5999 51.9819 57.7199 51.9986 57.8741H51.6152C53.1565 59.0036 55.0257 59.5598 56.9152 59.4513Z" fill="#FFD9AE"/>
<path d="M28.0845 80.7774C26.1346 82.0478 24.3192 83.5244 22.6678 85.1831C22.5531 85.4354 22.4074 85.6716 22.2345 85.886C21.8478 86.3208 21.384 86.6758 20.8678 86.9317C20.344 87.2149 19.7824 87.4171 19.2012 87.5317C19.6314 87.7911 20.1192 87.9328 20.6178 87.9431V87.9431L21.0012 87.7888C21.4008 87.6112 21.7762 87.3807 22.1178 87.1031C22.6012 86.7431 23.0178 86.3488 23.4178 86.006C26.1149 83.884 28.9869 82.0083 32.0012 80.4002C32.0012 80.1431 32.0012 79.886 32.0012 79.6288C30.609 79.564 29.2342 79.9672 28.0845 80.7774V80.7774Z" fill="white"/>
<path d="M81.6006 79.6458C81.6006 79.92 81.6006 80.1943 81.6006 80.4515C84.5809 82.0347 87.4148 83.8938 90.0673 86.0058C90.7908 86.765 91.6439 87.3809 92.5839 87.8229L92.9173 87.9601C93.4546 87.99 93.9869 87.8396 94.4339 87.5315C93.293 87.3578 92.2391 86.8037 91.4339 85.9543C91.3083 85.7692 91.1969 85.5743 91.1006 85.3715C89.3082 83.5287 87.3046 81.9168 85.1339 80.5715C84.0669 79.9207 82.8403 79.5993 81.6006 79.6458V79.6458Z" fill="white"/>
<path d="M34.7658 102.137C34.5825 100.423 34.3158 98.7084 34.0325 96.9941C34.0325 98.5884 33.8825 100.148 33.7492 101.691C33.5325 104.228 33.0658 106.834 32.8325 109.56C32.7598 109.938 32.7208 110.323 32.7158 110.708C32.7158 110.931 33.4658 111.446 33.7492 111.668L34.6158 112.286C34.7267 111.807 34.7937 111.32 34.8158 110.828C35.0745 107.937 35.0577 105.026 34.7658 102.137V102.137Z" fill="white"/>
<path d="M78.834 110.863C78.859 111.349 78.9316 111.832 79.0507 112.303L79.934 111.669C80.2507 111.412 80.934 110.949 80.984 110.709C80.9948 110.334 80.9612 109.96 80.884 109.594C80.6173 106.852 80.184 104.297 79.9507 101.692C79.8173 99.9773 79.7173 98.383 79.684 96.6687C79.3673 98.383 79.084 100.286 78.884 102.223C78.6085 105.095 78.5918 107.988 78.834 110.863Z" fill="white"/>
<path d="M10.25 32.5718C10.992 32.3253 11.7492 32.1306 12.5167 31.9889C13.2219 31.7851 13.9036 31.5035 14.55 31.1489C15.9663 30.4779 17.4816 30.0549 19.0333 29.8975C19.2976 29.8456 19.5691 29.8456 19.8333 29.8975C20.181 30.1361 20.4716 30.4526 20.6833 30.8232C20.9212 31.3715 21.2115 31.8941 21.55 32.3832V32.3832C21.9167 32.3832 22.2667 32.3832 22.6167 32.4861C22.3162 31.7032 21.8558 30.9959 21.2667 30.4118C20.7924 29.7439 20.1843 29.1885 19.4833 28.7832C18.7784 28.5813 18.0416 28.5242 17.3152 28.6154C16.5888 28.7066 15.887 28.9442 15.25 29.3147C14.1 29.8289 13.0167 30.4975 11.9167 31.0289C11.3833 31.5089 10.7833 31.9032 10.25 32.4175C10.25 32.4518 10.25 32.4689 10.25 32.5718Z" fill="#FFD9AE"/>
<path d="M93.8163 29.8286C94.0869 29.7855 94.3623 29.7855 94.6329 29.8286C96.1611 29.9984 97.6525 30.4209 99.0496 31.0801C99.7078 31.4119 100.394 31.6816 101.1 31.8858C101.833 32.0572 102.583 32.2458 103.366 32.5029V32.4172C102.883 31.9029 102.183 31.4744 101.7 31.0115C100.5 30.4115 100.033 30.0686 98.8496 29.5029C97.674 28.8397 96.357 28.4863 95.0163 28.4744C94.0705 28.6835 93.2333 29.2453 92.6663 30.0515C92.3585 30.401 92.0692 30.7672 91.7996 31.1487C91.4682 31.5124 91.2279 31.9537 91.0996 32.4344C91.4163 32.4344 91.7496 32.4344 92.0829 32.3315C92.4366 31.8372 92.733 31.3021 92.9663 30.7372C93.1965 30.3862 93.4841 30.0788 93.8163 29.8286Z" fill="#FFD9AE"/>
<path d="M15.4668 31.9029C15.903 32.4144 16.3826 32.8848 16.9001 33.3086C17.6896 33.7506 18.5462 34.052 19.4335 34.2001C20.4168 34.4058 21.4668 34.4572 22.3668 34.6972C22.8625 34.8671 23.3293 35.1158 23.7501 35.4343C23.9668 35.6229 24.3335 36.1886 24.7168 36.3601C24.4335 34.3029 22.7168 33.8229 20.7168 33.3943C18.4168 32.8972 16.7835 32.7258 16.1001 31.9372H15.5001C15.5001 31.9372 15.4668 31.8686 15.4668 31.9029Z" fill="#FFD9AE"/>
<path d="M91.25 34.7141C92.1333 34.4227 93.2333 34.4056 94.2167 34.1998C95.1066 34.0412 95.967 33.7404 96.7667 33.3084C97.2965 32.9038 97.763 32.4182 98.15 31.8684C97.9643 31.9161 97.7745 31.9449 97.5833 31.9541C96.8174 32.5482 95.9053 32.9103 94.95 32.9998L92.2333 33.5998C90.5667 33.977 89.2667 34.5427 89 36.3084C89.1231 36.2198 89.2401 36.1224 89.35 36.017C89.8771 35.4378 90.5274 34.9918 91.25 34.7141Z" fill="#FFD9AE"/>
<path d="M17.0664 36.2228C17.2257 36.6175 17.4709 36.9694 17.7831 37.2513C17.9852 37.5157 18.2143 37.7571 18.4664 37.9713C19.4204 38.5147 20.4785 38.8365 21.5664 38.9142C22.7339 38.9613 23.8893 39.1748 24.9997 39.5485C25.1831 39.6513 25.3664 39.857 25.5664 39.977C25.5864 39.6866 25.5342 39.3957 25.4147 39.1317C25.2951 38.8678 25.1122 38.6395 24.8831 38.4685C24.2934 38.1986 23.6608 38.0417 23.0164 38.0056C22.3331 37.9028 21.5831 37.8342 20.9497 37.7142C19.7929 37.6011 18.6873 37.1688 17.7497 36.4628L17.0831 36.2228C17.0831 36.2228 17.0664 36.1885 17.0664 36.2228Z" fill="#FFD9AE"/>
<path d="M92.0838 38.9146C93.1931 38.8391 94.2735 38.5175 95.2505 37.9717C95.4891 37.7607 95.712 37.5315 95.9171 37.286C96.2223 36.9878 96.4611 36.6252 96.6171 36.2231C96.6171 36.2231 96.6171 36.2231 96.6171 36.2231L96.0005 36.4974C94.8505 37.646 91.9671 37.8689 90.7671 38.0403C90.1126 38.0807 89.4697 38.2373 88.8671 38.5031C88.6405 38.6726 88.4591 38.8981 88.3397 39.1588C88.2202 39.4195 88.1666 39.7069 88.1838 39.9946C88.3838 39.8574 88.5671 39.6689 88.7338 39.5831C89.8151 39.2023 90.9425 38.9774 92.0838 38.9146V38.9146Z" fill="#FFD9AE"/>
<path d="M23.584 79.56C23.6673 79.4572 23.8173 79.44 23.9006 79.3372C23.984 79.2343 23.584 79.4743 23.584 79.56Z" fill="white"/>
<path d="M68.0174 24.1372C67.9736 21.508 67.5409 18.901 66.7341 16.4058C66.1833 15.2019 65.3404 14.1641 64.2866 13.3925C63.2328 12.6208 62.0036 12.1413 60.7174 12C60.2622 11.9717 59.8059 11.9717 59.3507 12C58.8174 12 58.2507 11.8286 57.684 11.8286C57.384 11.8286 57.1007 11.8286 56.8174 11.8286C56.534 11.8286 56.084 11.8286 55.834 11.8286C54.4595 11.8699 53.092 12.0478 51.7507 12.36C51.0433 12.5946 50.3618 12.9048 49.7174 13.2858C47.084 14.8458 46.2341 17.4686 45.8841 21.3943C45.8841 22.3886 45.7507 23.1086 45.6507 24.1886C45.5175 24.9712 45.5175 25.7717 45.6507 26.5543L46.4507 26.2629C53.1271 23.611 60.5243 23.611 67.2007 26.2629L67.9507 26.5372C67.9942 26.2475 67.9942 25.9526 67.9507 25.6629C68.0674 25.0972 68.0507 24.7372 68.0174 24.1372Z" fill="white"/>
<path d="M14.6822 85.5773C13.6968 86.0199 12.6028 86.1397 11.5489 85.9201C10.9322 85.6801 10.7822 85.1144 10.5489 84.4801C10.1787 83.4076 9.91623 82.299 9.76554 81.1716C9.51554 79.5773 9.28221 77.9316 8.98221 76.4916C8.34887 73.423 7.56554 70.5944 7.01554 67.5087C7.01554 68.8801 7.01554 70.2516 7.01554 71.623C6.90258 73.1503 6.9585 74.6858 7.18221 76.2001C7.18221 76.3544 7.3322 76.7658 7.26554 76.7144C7.19887 76.663 7.11554 76.1658 7.08221 75.8573C7.08221 75.8573 7.08221 75.9601 6.91554 75.8573C6.68662 75.3683 6.55085 74.8388 6.51554 74.2973C6.19408 72.5488 5.9991 70.7782 5.93221 69.0001C5.96865 65.2926 6.20233 61.5899 6.63221 57.9087C6.89887 54.2573 7.34887 50.6401 7.38221 46.8687C7.72669 47.5013 8.15901 48.0788 8.66554 48.583C8.94146 48.8781 9.27289 49.1124 9.63965 49.2715C10.0064 49.4307 10.4008 49.5114 10.7989 49.5087C11.7822 49.4058 12.3322 48.5144 12.2489 47.2801C12.0471 45.8275 11.5837 44.4264 10.8822 43.1487C9.67994 40.3925 8.9039 37.46 8.58221 34.4573C8.39887 33.0859 8.4322 31.9201 8.26554 30.6344C8.23828 30.4272 8.18215 30.2252 8.09887 30.0344C8.25896 30.9909 8.29818 31.9647 8.21554 32.9316C8.03849 34.5847 7.74889 36.223 7.34887 37.8344C6.98221 39.3944 6.61554 40.9201 6.31554 42.5487C5.34887 47.6916 5.74887 52.2344 4.04887 63.3087C3.31976 66.7249 2.98412 70.2175 3.04887 73.7144C3.42926 76.6983 4.54834 79.5316 6.29887 81.943C7.0218 83.0901 7.83568 84.1738 8.73221 85.183C9.1761 85.7821 9.75222 86.2641 10.413 86.589C11.0737 86.9139 11.8001 87.0724 12.5322 87.0516C14.0551 86.8578 15.5362 86.4059 16.9155 85.7144C18.2822 85.1487 19.4822 84.6344 20.8322 84.0001C20.9605 83.7101 21.0718 83.4124 21.1655 83.1087L20.0489 83.503C18.2322 84.1887 16.5322 84.943 14.6822 85.5773Z" fill="#FFD9AE"/>
<path d="M96.8159 85.7143C98.1858 86.3807 99.6474 86.8259 101.149 87.0343C101.882 87.058 102.609 86.9007 103.27 86.5756C103.931 86.2505 104.507 85.767 104.949 85.1658C105.856 84.1571 106.681 83.0734 107.416 81.9258C109.156 79.5181 110.264 76.6902 110.633 73.7143C110.776 71.9069 110.709 70.0882 110.433 68.2972C110.216 66.5829 109.933 64.8686 109.683 63.2915C108.016 52.1658 108.383 47.64 107.416 42.5315C106.683 38.6229 105.749 35.8972 105.516 32.9143C105.421 31.8844 105.466 30.8459 105.649 29.8286C105.525 30.0758 105.441 30.3421 105.399 30.6172C105.399 31.1315 105.399 31.5086 105.399 31.92C105.399 32.3315 105.266 33.6343 105.183 34.4743C104.984 36.045 104.695 37.6021 104.316 39.1372C103.924 40.5176 103.428 41.8645 102.833 43.1658C102.134 44.4557 101.676 45.8685 101.483 47.3315C101.366 49.4229 103.016 50.0058 104.483 49.0458C105.255 48.4587 105.893 47.7037 106.349 46.8343C106.466 51.2058 106.883 55.1143 107.183 59.4C107.183 60.0515 107.366 60.72 107.433 61.3886C107.666 63.5175 107.788 65.6577 107.799 67.8C107.789 69.2155 107.7 70.6293 107.533 72.0343C107.453 73.3251 107.206 74.5991 106.799 75.8229C106.799 75.9943 106.683 75.6858 106.666 75.8229C106.649 75.96 106.666 76.1315 106.549 76.2858C106.433 76.44 106.549 76.6972 106.433 76.6629C106.433 76.2686 106.633 75.8915 106.683 75.48C106.716 74.8119 106.716 74.1424 106.683 73.4743C106.683 71.64 106.683 69.4629 106.683 67.4572C106.183 70.5772 105.399 73.3715 104.749 76.44C104.449 77.88 104.216 79.5086 103.966 81.1029C103.87 81.8661 103.725 82.622 103.533 83.3658C103.362 84.066 103.116 84.7445 102.799 85.3886C102.149 86.4343 100.066 85.8686 99.0492 85.5258C96.8325 84.7543 94.7992 83.8115 92.6992 83.0915C92.7901 83.3827 92.8958 83.6688 93.0159 83.9486C94.2826 84.6515 95.4492 85.2 96.8159 85.7143Z" fill="#FFD9AE"/>
<path d="M32.5841 65.7256C32.2961 63.8457 31.6198 62.0511 30.6007 60.4627C30.2174 59.8627 29.7674 59.3484 29.4174 58.7484C32.579 57.2741 35.5792 55.4582 38.3674 53.3313C38.7674 52.9884 39.2174 52.6456 39.6507 52.217C39.8476 52.0296 40.0262 51.8229 40.1841 51.5999C36.6507 53.057 32.9674 54.5484 29.5674 56.1256C28.491 56.5991 27.4589 57.1729 26.4841 57.8399C26.3674 57.9256 26.1507 58.0284 26.2007 58.1313C26.5264 58.045 26.8675 58.0405 27.1952 58.1181C27.5229 58.1956 27.8278 58.353 28.0841 58.577C27.7767 58.5945 27.4736 58.6581 27.1841 58.7656C27.6433 59.0697 28.0586 59.4391 28.4174 59.8627C28.2841 59.6227 28.1341 59.3827 28.0007 59.1256C30.2152 61.1436 31.8083 63.7832 32.5841 66.7198C32.6445 66.3913 32.6445 66.0541 32.5841 65.7256V65.7256Z" fill="white"/>
<path d="M18.0337 73.4915C18.2671 71.0918 18.2671 68.6741 18.0337 66.2743C17.5337 61.7829 16.367 57.48 15.8837 53.1943H15.3503C15.3503 53.5201 15.3503 53.8629 15.3503 54.1886C15.4337 55.9029 15.5837 57.7029 15.6503 59.4858C15.8973 64.1533 15.6289 68.8347 14.8503 73.44C14.6503 74.4686 14.3837 75.4629 14.2003 76.5086C14.017 77.5543 13.817 78.6343 13.667 79.6972C13.8503 80.5029 14.4503 81.1372 15.3337 80.76C15.9508 80.4631 16.459 79.9704 16.7837 79.3543C17.063 78.5396 17.2476 77.6937 17.3337 76.8343C17.6503 75.6858 17.9503 74.6058 18.0337 73.4915Z" fill="#FFD9AE"/>
<path d="M22.1008 68.2289C22.8577 68.9758 23.8394 69.4353 24.8841 69.5318C26.7174 69.5318 27.1174 67.4403 27.2674 65.5889C27.335 64.5558 27.335 63.5192 27.2674 62.4861C27.2862 61.2467 27.2025 60.008 27.0174 58.7832C26.7369 58.9151 26.4642 59.0639 26.2008 59.2289C25.8672 59.4122 25.5494 59.6244 25.2508 59.8632C23.798 61.0457 22.2787 62.1391 20.7008 63.1375C20.4508 63.3089 19.8508 63.6689 19.8008 63.8232C19.7643 64.228 19.7643 64.6355 19.8008 65.0403C19.8008 65.4861 19.8008 65.8632 19.8008 66.2232C20.4601 67.012 21.2363 67.6889 22.1008 68.2289Z" fill="white"/>
<path d="M98.1336 80.7083C98.3687 80.8157 98.6309 80.8437 98.8824 80.7883C99.134 80.7328 99.3619 80.5968 99.5336 80.3997C99.6741 80.1695 99.7621 79.9096 99.7909 79.6394C99.8198 79.3692 99.7888 79.0958 99.7003 78.8397C99.5669 78.0169 99.4336 77.1254 99.3003 76.4569C99.1169 75.3597 98.8503 74.3826 98.667 73.3883C97.8846 68.7834 97.6106 64.1022 97.8503 59.434C97.8503 57.634 98.0836 55.834 98.1503 54.1712C98.1503 53.8283 98.2336 53.4854 98.1503 53.1426H97.6669C97.1169 57.5483 96.0003 61.714 95.517 66.274C95.2665 68.6843 95.2665 71.1152 95.517 73.5254C95.6336 74.6397 95.9003 75.754 96.0503 76.834C96.2298 77.7756 96.5209 78.691 96.9169 79.5597C97.2018 80.059 97.6256 80.4591 98.1336 80.7083V80.7083Z" fill="#FFD9AE"/>
<path d="M85.6333 58.5599C85.9333 58.1142 86.7333 58.0113 87.5 58.1142C87.4931 58.0745 87.4931 58.0339 87.5 57.9942V57.9942C87.0435 57.6348 86.5452 57.3353 86.0167 57.1027C82.0667 55.097 77.6833 53.3827 73.5 51.6685C73.6863 51.9304 73.8985 52.1717 74.1333 52.3885C77.2382 54.9964 80.6618 57.1749 84.3167 58.8685C83.5051 59.8183 82.8263 60.88 82.3 62.0227C81.638 63.2678 81.2297 64.6385 81.1 66.0513C81.0488 66.3173 81.0488 66.591 81.1 66.857C81.8644 63.8787 83.4781 61.2039 85.7333 59.177L85.4333 59.657C85.7549 59.3172 86.1193 59.0232 86.5167 58.7827C86.2375 58.655 85.9383 58.5795 85.6333 58.5599V58.5599Z" fill="white"/>
<path d="M93.8158 63.823C93.8158 63.6516 93.1824 63.343 92.9324 63.1716C91.9658 62.503 90.9991 61.8516 90.1324 61.2173C89.2502 60.4948 88.3323 59.8197 87.3824 59.1944C87.0991 59.0402 86.8491 58.8859 86.5824 58.7659C86.3625 59.9517 86.2785 61.1599 86.3324 62.3659C86.2824 63.3595 86.2824 64.3551 86.3324 65.3487C86.4491 67.1487 86.7824 69.1887 88.3324 69.4973C88.9232 69.536 89.5152 69.4427 90.0676 69.2237C90.62 69.0047 91.1197 68.6653 91.5324 68.2287C92.2989 67.6563 92.9883 66.9818 93.5824 66.223V66.223C93.5824 65.8459 93.5824 65.4859 93.5824 65.0573C93.7046 64.6561 93.7828 64.2421 93.8158 63.823Z" fill="white"/>
<path d="M78.1822 67.4915C77.7018 67.968 77.1895 68.4091 76.6488 68.8115C71.0224 73.3424 64.0606 75.7616 56.9155 75.6686C48.8245 75.8197 40.9899 72.7486 35.0488 67.0972V67.0972C35.3902 69.2161 35.5575 71.3608 35.5488 73.5086C35.5488 75.7543 35.7155 78.0172 35.7155 80.2115C35.6762 82.3464 35.8662 84.4794 36.2822 86.5715C36.6636 88.3086 37.3407 89.9626 38.2822 91.4572C39.6951 93.6048 41.5301 95.4239 43.6689 96.7969C45.8076 98.1699 48.2024 99.0665 50.6988 99.4286C51.1822 99.4286 51.6488 99.5657 52.1322 99.6857C53.6854 99.9936 55.2696 100.103 56.8488 100.011C58.4115 100.106 59.9795 99.9962 61.5155 99.6857C61.9988 99.5657 62.4988 99.5143 62.9822 99.4286C64.7647 99.1227 66.5013 98.5811 68.1488 97.8172C70.4687 96.8591 72.5298 95.3398 74.1575 93.3881C75.7851 91.4365 76.9313 89.1099 77.4988 86.6057C77.9005 84.5117 78.0848 82.3798 78.0488 80.2457C78.0488 78.0686 78.2155 75.7886 78.2155 73.5429C78.2166 71.3841 78.3838 69.2288 78.7155 67.0972C78.4822 67.1315 78.3322 67.3372 78.1822 67.4915Z" fill="white"/>
<path fill-rule="evenodd" clip-rule="evenodd" d="M60.5661 46.2856C60.5661 46.7656 60.0495 47.0571 59.6828 47.3656C59.3161 47.6742 58.6995 48.5999 57.6161 48.7028C57.1223 48.7371 56.6267 48.7371 56.1328 48.7028C55.0661 48.6171 54.6828 47.9828 54.0328 47.3999C53.7161 47.1256 53.2161 46.7485 53.1328 46.2856C54.1536 46.9815 55.2802 47.4972 56.4661 47.8114C58.1828 47.9999 59.4161 46.7142 60.5661 46.2856Z" fill="black"/>
<path fill-rule="evenodd" clip-rule="evenodd" d="M51.0996 57.6515C52.7493 58.9828 54.8263 59.6255 56.9163 59.4515C58.0436 59.4916 59.1697 59.3411 60.2496 59.0058C61.1026 58.6473 61.9088 58.1809 62.6496 57.6172C62.0593 58.6282 61.2157 59.4575 60.2071 60.0184C59.1986 60.5793 58.062 60.8512 56.9163 60.8058C55.7641 60.8735 54.6159 60.6154 53.5964 60.0593C52.5768 59.5032 51.7248 58.6705 51.1329 57.6515H51.0996Z" fill="black"/>
<path fill-rule="evenodd" clip-rule="evenodd" d="M76.3994 50.4343C80.0327 52.0457 83.9327 53.4858 87.3327 55.3715C88.2099 55.7592 88.9574 56.4028 89.4827 57.2229C89.6327 57.4972 89.6493 57.84 89.816 58.2C90.1104 58.5375 90.4532 58.8265 90.8327 59.0572C91.8327 59.8115 92.9993 60.6343 93.9827 61.3029C94.5327 58.44 95.1327 55.6286 95.6493 52.8172C94.2294 51.9658 93.0735 50.7175 92.316 49.2172C91.4093 49.4921 90.4359 49.4127 89.5827 48.9943C88.8176 48.7522 88.1121 48.3437 87.5139 47.7965C86.9158 47.2493 86.439 46.5762 86.116 45.8229C85.8365 45.2726 85.67 44.669 85.627 44.0496C85.584 43.4303 85.6654 42.8085 85.866 42.2229C85.6442 40.9431 85.7184 39.6276 86.0827 38.3829C86.0827 38.2286 86.216 38.0572 86.2993 37.8857C86.3984 37.7499 86.4876 37.6066 86.566 37.4572C86.566 37.1829 86.566 36.8915 86.566 36.6515C86.6453 35.3023 87.1888 34.0261 88.0993 33.0515C88.216 32.9315 88.4327 32.8115 88.516 32.6572C88.6224 32.3557 88.706 32.0462 88.766 31.7315C89.0541 30.9339 89.4711 30.192 89.9993 29.5372C91.2327 28.0286 92.9327 25.9372 95.766 26.2629C96.9569 26.4331 98.115 26.7916 99.1994 27.3257C99.7175 25.6835 100.656 24.2149 101.916 23.0743C103.197 21.7838 104.907 21.0423 106.699 21C107.607 20.977 108.487 21.3248 109.146 21.9674C109.805 22.61 110.19 23.4949 110.216 24.4286C110.132 25.3405 109.796 26.2087 109.249 26.9315C108.177 28.4796 107.627 30.3459 107.683 32.2457C107.849 35.4 109.349 39.9257 109.966 43.9029C110.116 44.9486 110.099 46.0286 110.166 47.1772C110.533 53.7772 111.483 59.7772 112.399 65.88C112.759 67.9979 112.954 70.1418 112.983 72.2915C112.954 76.0804 111.79 79.7681 109.649 82.8515C108.787 84.2598 107.817 85.5954 106.749 86.8458C105.688 88.2203 104.178 89.1522 102.499 89.4686C101.479 89.6085 100.443 89.5386 99.4493 89.2629C98.5523 89.0441 97.6721 88.7576 96.816 88.4058C96.2994 88.9443 95.6846 89.373 95.0068 89.6671C94.3291 89.9612 93.6016 90.1151 92.866 90.12C91.4689 89.8616 90.183 89.1674 89.1827 88.1315C87.1087 86.332 84.8243 84.8059 82.3827 83.5886C81.9993 83.9657 82.0327 84.5829 81.966 85.08C81.7711 86.8957 81.6876 88.7222 81.716 90.5486C81.716 102.549 83.016 105.977 83.1993 110.194C83.2159 110.732 83.0953 111.265 82.8497 111.74C82.6042 112.215 82.2421 112.616 81.7993 112.903C80.6072 113.968 79.2917 114.878 77.8827 115.611C75.9087 116.678 73.8516 117.572 71.7327 118.286C66.961 119.958 61.9569 120.82 56.916 120.84C51.8143 120.832 46.748 119.969 41.916 118.286C38.7714 117.302 35.7923 115.828 33.0827 113.914C32.6633 113.602 32.2626 113.264 31.8827 112.903C31.116 112.149 30.4327 111.737 30.516 110.177C30.5993 108.617 30.8827 106.594 31.0993 105.034C31.7338 100.263 32.0346 95.4503 31.9993 90.6343C32.0182 88.8194 31.9348 87.005 31.7494 85.2C31.7587 84.6673 31.6323 84.1412 31.3827 83.6743C31.0459 83.729 30.7263 83.864 30.4493 84.0686C28.361 85.248 26.3807 86.6193 24.5327 88.1658C23.5281 89.2268 22.2199 89.9296 20.7994 90.1715C19.3232 90.139 17.9154 89.5255 16.866 88.4572C15.1177 89.3147 13.1799 89.6814 11.2493 89.52C9.54089 89.1891 8.00387 88.2406 6.91602 86.8458C5.85026 85.5773 4.87548 84.2309 3.99935 82.8172C1.88312 79.721 0.72166 76.0415 0.666016 72.2572C0.693813 70.1188 0.888888 67.9862 1.24935 65.88C2.34872 59.6927 3.1276 53.4496 3.58268 47.1772C3.58268 46.0286 3.58268 44.9315 3.76602 43.8686C4.19935 40.8343 5.03268 38.1943 5.61601 35.2972C6.33268 31.7486 6.38268 30.1543 4.49935 26.9315C3.93707 26.2162 3.59473 25.3449 3.51601 24.4286C3.5422 23.498 3.92463 22.6156 4.5801 21.9735C5.23556 21.3314 6.11103 20.9816 7.01601 21C8.81108 21.0301 10.5252 21.7734 11.7993 23.0743C13.068 24.1938 13.999 25.6629 14.4827 27.3086C15.5811 26.8166 16.7342 26.4654 17.916 26.2629C20.7827 25.92 22.4327 27.9772 23.6827 29.5372C24.2252 30.1718 24.649 30.9041 24.9327 31.6972C24.995 32.0244 25.0842 32.3455 25.1994 32.6572C25.1994 32.8115 25.4994 32.9657 25.616 33.0857C26.5379 34.0525 27.0834 35.3333 27.1493 36.6857C27.1327 36.9426 27.1327 37.2003 27.1493 37.4572C27.1493 37.5772 27.3327 37.7657 27.3993 37.92C27.8569 38.8084 28.0428 39.8182 27.9327 40.8172C27.9757 41.2561 27.9757 41.6983 27.9327 42.1372C27.9327 42.3429 28.166 42.84 28.1827 43.0972C28.2435 43.9775 28.1068 44.8605 27.7831 45.6779C27.4595 46.4953 26.9575 47.2253 26.316 47.8115C25.6886 48.3289 24.9778 48.7292 24.216 48.9943C23.3782 49.3995 22.4289 49.4905 21.5327 49.2515C21.3493 49.3543 21.2993 49.5772 21.1993 49.7315C20.4429 51.0126 19.3818 52.0745 18.116 52.8172C18.6994 55.6286 19.2994 58.4229 19.7827 61.2686C20.1706 61.0836 20.53 60.841 20.8493 60.5486C21.8998 59.8517 22.9124 59.0963 23.8827 58.2858C24.0827 56.8286 25.266 56.0915 26.4327 55.44C29.9718 53.6124 33.5987 51.9703 37.2993 50.52C35.366 49.7486 33.316 49.2515 32.1327 47.7943C30.9858 46.0652 30.239 44.089 29.9493 42.0172C29.3974 39.6817 29.1066 37.2891 29.0827 34.8857C29.0699 32.9806 29.6935 31.1288 30.8493 29.64C30.966 29.4515 31.2327 29.2286 31.2327 29.0057C31.2327 26.8286 31.6327 24.6686 31.8327 22.5086C31.9993 20.6743 32.0327 18.4972 32.9994 17.5029C33.116 17.3829 33.3327 17.2629 33.416 17.0743C33.5344 16.7298 33.6182 16.3736 33.666 16.0115C34.2916 13.778 35.2352 11.6521 36.466 9.70289C37.6935 7.55324 39.4091 5.74155 41.466 4.42289C42.616 2.36575 45.016 1.71432 47.516 1.06289C50.2044 0.479247 52.9368 0.135115 55.6827 0.0343209C58.8925 -0.0685729 62.103 0.213326 65.2493 0.874321C68.1493 1.45718 70.9827 2.17718 72.1493 4.30289C74.2254 5.58952 75.9467 7.4013 77.1493 9.56575C78.3693 11.5027 79.3123 13.61 79.9493 15.8229C79.9493 16.1657 80.0827 16.5258 80.1993 16.8686C80.316 17.2115 80.516 17.2457 80.666 17.4172C81.6327 18.4457 81.616 20.52 81.816 22.44C82.016 24.36 82.1994 26.2457 82.3494 28.1143C82.3317 28.3826 82.3317 28.6518 82.3494 28.92C82.4496 29.1414 82.5847 29.3441 82.7493 29.52C83.8817 31.0208 84.4973 32.866 84.4994 34.7657C84.4754 37.1691 84.1846 39.5617 83.6327 41.8972C83.3483 43.9704 82.601 45.9478 81.4493 47.6743C80.0205 49.0195 78.2828 49.9692 76.3994 50.4343V50.4343ZM69.6327 4.44004C68.7084 3.90335 67.707 3.52143 66.666 3.30861C60.0591 1.64114 53.1536 1.68237 46.566 3.42861C45.6855 3.60866 44.8405 3.93894 44.066 4.40575C43.1108 5.30752 42.4819 6.51652 42.2827 7.83432C44.1674 6.84833 46.1837 6.15508 48.266 5.77718C50.6371 5.24259 53.0554 4.9611 55.4827 4.93718H58.2493C60.6651 4.96958 63.0715 5.25099 65.4327 5.77718C67.515 6.15508 69.5313 6.84833 71.416 7.83432C71.2011 6.5318 70.5742 5.33866 69.6327 4.44004V4.44004ZM56.916 5.79432C51.9912 5.57573 47.0858 6.55664 42.5993 8.65718C43.516 9.29146 44.566 8.65718 45.3993 8.43432C52.9407 6.28535 60.908 6.28535 68.4493 8.43432C69.2827 8.69146 70.4493 9.30861 71.2327 8.64004C66.7392 6.56369 61.8381 5.58951 56.916 5.79432ZM41.316 7.13146C38.136 10.1957 36.0073 14.2378 35.2493 18.6515C35.6993 18.8743 36.116 19.1143 36.5827 19.3029C36.8138 18.3241 37.1376 17.371 37.5493 16.4572C38.5823 13.8689 40.1324 11.5327 42.0993 9.60004C41.3327 9.24004 41.1993 8.17718 41.2493 7.13146H41.316ZM71.6827 9.61718C73.6637 11.5304 75.2065 13.8726 76.1993 16.4743C76.6404 17.3774 76.9707 18.3333 77.1827 19.32C77.6494 19.1315 78.0827 18.8915 78.5327 18.6686C77.776 14.2468 75.6337 10.201 72.4327 7.14861C72.5418 7.59117 72.5295 8.0562 72.3971 8.492C72.2647 8.92781 72.0174 9.3173 71.6827 9.61718V9.61718ZM74.5327 16.8686C74.1539 16.0935 73.7194 15.3486 73.2327 14.64C72.7827 13.9543 72.4327 13.2172 71.9327 12.5829C71.4413 11.949 70.8823 11.374 70.266 10.8686C69.6444 10.3129 68.9339 9.87208 68.166 9.56575C67.2076 9.30418 66.2332 9.10945 65.2493 8.98289C60.1933 7.6809 54.9152 7.58124 49.816 8.69146C47.9205 8.86125 46.0665 9.35972 44.3327 10.1657C43.7392 10.5591 43.1814 11.0066 42.666 11.5029C41.664 12.5172 40.8056 13.6713 40.116 14.9315C39.7327 15.5486 39.3993 16.2172 39.0493 16.8343C39.2993 15.8057 39.7327 14.9658 39.9827 13.9372C38.5594 15.9662 37.6332 18.3185 37.2827 20.7943C37.0994 22.9715 37.4827 25.4229 37.3993 27.6515C37.1714 28.7904 37.2287 29.9702 37.566 31.08C37.566 28.56 38.3827 26.4686 38.466 24.0343C38.466 23.1943 38.466 22.32 38.466 21.4458C38.5005 20.0749 38.8152 18.7269 39.3894 17.4894C39.9637 16.2519 40.7848 15.1526 41.7993 14.2629C43.6288 12.4622 45.787 11.0522 48.1494 10.1143C49.4102 9.56901 50.7152 9.13878 52.0494 8.82861C55.0662 8.0243 58.2325 8.0243 61.2493 8.82861C62.5983 9.14403 63.9195 9.57408 65.1993 10.1143C67.5627 11.0501 69.7213 12.4604 71.5493 14.2629C72.5631 15.1533 73.3836 16.2527 73.9578 17.4901C74.5321 18.7275 74.8471 20.0751 74.8827 21.4458C74.8827 22.3372 74.8827 23.16 74.8827 24.0172C74.8827 26.5029 75.716 28.5943 75.7994 31.08C76.0563 29.5168 76.1012 27.9245 75.9327 26.3486C76.0864 24.7022 76.142 23.0477 76.0994 21.3943C75.9348 18.8043 75.1256 16.3013 73.7493 14.1257C73.7493 14.1257 73.7493 13.9886 73.6327 14.0057C73.866 15 74.3827 16.0115 74.5327 16.8858V16.8686ZM38.766 30.5829C38.9595 30.3862 39.1655 30.2029 39.3827 30.0343C41.5441 28.4048 43.9396 27.1324 46.4827 26.2629C53.1591 23.611 60.5563 23.611 67.2327 26.2629C70.0375 27.2115 72.652 28.6751 74.9493 30.5829C74.9493 30.5829 75.066 30.7543 75.116 30.5829C75.1317 30.1962 75.0924 29.8093 74.9993 29.4343C74.866 28.2515 74.6827 27.1715 74.5827 26.0058C74.4493 24.48 74.5827 22.7829 74.3827 21.1543C74.3156 19.7938 73.9017 18.4754 73.1827 17.3315C70.666 13.2343 66.3327 10.7315 61.016 9.53146C59.5831 9.15607 58.1113 8.96036 56.6327 8.94861C53.8618 9.11897 51.1395 9.77407 48.5827 10.8857C46.3622 11.7486 44.3289 13.0535 42.5993 14.7258C41.6413 15.5393 40.8524 16.5429 40.2797 17.6769C39.707 18.8108 39.3623 20.0518 39.266 21.3257C39.266 22.8515 39.266 24.5657 39.0827 26.1429C38.8993 27.72 38.6494 29.0057 38.566 30.6172C38.666 30.6686 38.7327 30.5486 38.766 30.5315V30.5829ZM34.116 20.1943C34.116 21.8229 33.616 25.9372 33.416 29.0743C33.3684 29.513 33.3684 29.9557 33.416 30.3943C33.579 30.8901 33.895 31.3175 34.316 31.6115C34.5507 31.7948 34.8212 31.9235 35.109 31.9886C35.3968 32.0537 35.6949 32.0537 35.9827 31.9886C35.6969 28.3939 35.7975 24.7778 36.2827 21.2057C35.4829 21.0511 34.7362 20.6848 34.116 20.1429V20.1943ZM79.416 31.5943C79.853 31.2871 80.1806 30.8418 80.3493 30.3257C80.388 29.8924 80.388 29.4563 80.3493 29.0229C80.1827 26.2115 79.816 22.6115 79.5993 20.1086C79.0522 20.6687 78.3458 21.0349 77.5827 21.1543C78.0734 24.7257 78.1796 28.3418 77.8993 31.9372C78.4291 32.0338 78.9745 31.9105 79.416 31.5943ZM16.7327 79.9372C17.1306 78.9457 17.3887 77.9009 17.4993 76.8343C17.6327 75.7372 17.9327 74.6572 18.016 73.5429C18.2495 71.1432 18.2495 68.7255 18.016 66.3257C17.516 61.8343 16.3493 57.5315 15.866 53.2457C15.5199 53.2629 15.174 53.2097 14.8479 53.0891C14.5219 52.9685 14.2222 52.7829 13.966 52.5429C15.0408 52.0263 16.0626 51.4004 17.016 50.6743C18.3898 49.5717 19.5538 48.2175 20.4493 46.68C20.566 46.5257 20.766 46.3715 20.7327 46.2172C20.3077 46.1154 19.9022 45.9416 19.5327 45.7029C19.3493 45.6 19.0993 45.5486 19.0327 45.3257C19.9993 45.2057 21.0994 45.4629 22.1327 45.3257C22.766 45.3257 23.3994 45.2229 23.9494 45.12C24.4994 45.0172 24.8827 44.4686 25.3494 44.3486C25.066 45.2915 24.166 45.6343 23.3993 46.0629C23.0327 46.2857 22.6827 46.4743 22.3493 46.6972C22.3493 46.6972 22.066 46.8857 22.1327 46.92C23.015 46.9113 23.8628 46.5665 24.5123 45.9522C25.1618 45.338 25.5669 44.4979 25.6494 43.5943C25.666 43.5095 25.666 43.422 25.6494 43.3372C25.4827 41.7772 22.9827 41.9486 21.516 41.7429C20.0493 41.5372 19.1327 41.2457 18.716 40.2172C20.5327 40.7829 23.4494 40.3715 25.3827 40.8343C25.5494 39.8057 25.3827 38.8286 24.766 38.4172C24.1764 38.1473 23.5438 37.9904 22.8993 37.9543C22.216 37.8515 21.466 37.7829 20.8327 37.6629C19.606 37.5644 18.4402 37.0727 17.4993 36.2572C17.2568 35.9117 17.0448 35.5445 16.866 35.16C17.3994 35.3657 17.8994 35.7257 18.5327 35.9315C20.5476 36.4555 22.6073 36.777 24.6827 36.8915C24.6827 34.3372 22.8327 33.8229 20.6494 33.3429C17.8327 32.7429 16.016 32.6057 15.6494 31.2515C16.9256 31.7014 18.2535 31.978 19.5993 32.0743C19.9327 31.6972 19.8327 30.8915 20.166 30.4972C20.3921 31.0393 20.4274 31.6455 20.266 32.2115C20.9827 32.3143 21.7827 32.3315 22.516 32.4343C22.2155 31.6515 21.7552 30.9441 21.166 30.36C20.6918 29.6921 20.0836 29.1368 19.3827 28.7315C17.9835 28.3673 16.5016 28.5763 15.2493 29.3143C13.5827 30.0343 12.1493 31.0286 10.5493 31.68C11.1743 30.5977 11.8939 29.5764 12.6994 28.6286C12.4513 27.6107 12.0022 26.6561 11.38 25.8244C10.7578 24.9927 9.9758 24.3017 9.08268 23.7943C8.43522 23.3755 7.68037 23.1665 6.91602 23.1943C6.63429 23.209 6.36324 23.3098 6.13758 23.4839C5.91191 23.658 5.74191 23.8974 5.64935 24.1715C5.64935 24.8058 6.19935 25.56 6.54935 26.1257C7.87497 28.1372 8.46541 30.5664 8.21602 32.9829C8.03897 34.636 7.74937 36.2743 7.34935 37.8857C6.98268 39.4457 6.61601 40.9715 6.31601 42.6C5.34935 47.7429 5.74935 52.2858 4.04935 63.36C3.32414 66.7595 2.98852 70.2346 3.04935 73.7143C3.42974 76.6982 4.54882 79.5316 6.29935 81.9429C7.02227 83.09 7.83616 84.1737 8.73268 85.1829C9.17658 85.782 9.75269 86.264 10.4134 86.5889C11.0742 86.9138 11.8006 87.0724 12.5327 87.0515C14.0555 86.8577 15.5367 86.4058 16.916 85.7143C18.2827 85.1486 19.4827 84.6343 20.8327 84C22.066 81.3429 21.466 77.5886 20.8327 74.88C20.5999 73.5448 20.2255 72.2398 19.716 70.9886C19.6226 74.2128 18.5826 77.3325 16.7327 79.9372ZM95.5827 66.3257C95.3322 68.736 95.3322 71.1669 95.5827 73.5772C95.6993 74.6915 95.966 75.8057 96.116 76.8857C96.2474 77.9354 96.5165 78.9619 96.916 79.9372C96.916 79.9372 96.916 79.9372 96.916 79.9372C96.0441 78.7424 95.353 77.4189 94.866 76.0115C94.4314 74.3747 94.1139 72.7074 93.916 71.0229C93.6101 71.8242 93.3486 72.6426 93.1327 73.4743C92.366 76.56 91.5493 80.8629 92.916 84.0343C94.266 84.6858 95.4327 85.2343 96.7993 85.7486C98.1693 86.415 99.6309 86.8602 101.133 87.0686C101.865 87.0923 102.593 86.935 103.254 86.6099C103.915 86.2848 104.491 85.8013 104.933 85.2C105.84 84.1914 106.665 83.1077 107.399 81.96C109.151 79.5443 110.264 76.7037 110.633 73.7143C110.776 71.9069 110.709 70.0882 110.433 68.2972C110.216 66.5829 109.933 64.8686 109.683 63.2915C108.016 52.1657 108.383 47.64 107.416 42.5315C106.683 38.6229 105.749 35.8972 105.516 32.9143C105.258 30.4972 105.849 28.0649 107.183 26.0572C107.616 25.3543 108.466 24.3429 107.833 23.6058C107.49 23.3355 107.081 23.1683 106.651 23.1229C106.222 23.0775 105.788 23.1556 105.399 23.3486C104.311 23.7884 103.343 24.4944 102.579 25.4054C101.815 26.3164 101.279 27.405 101.016 28.5772C101.823 29.5098 102.532 30.5267 103.133 31.6115C100.683 30.5315 100.416 30.1543 98.8327 29.4172C97.6571 28.7539 96.3401 28.4005 94.9993 28.3886C94.0535 28.5978 93.2164 29.1596 92.6494 29.9657C92.3415 30.3152 92.0522 30.6815 91.7827 31.0629C91.4513 31.4266 91.211 31.8679 91.0827 32.3486C91.7993 32.2286 92.7493 32.2629 93.316 32.0915C93.2312 31.8261 93.2022 31.5451 93.2309 31.2673C93.2597 30.9895 93.3455 30.7212 93.4827 30.48C93.716 30.96 93.666 31.7143 94.016 32.0572C95.3605 31.9508 96.6872 31.6744 97.966 31.2343C97.5827 32.4172 96.2993 32.64 94.9493 32.9486L92.2327 33.5486C90.3827 33.9772 88.8994 34.6286 88.8994 36.8915C90.9806 36.781 93.0462 36.4594 95.066 35.9315C95.666 35.7086 96.1327 35.3486 96.7327 35.1943C96.5312 35.5674 96.3086 35.9281 96.066 36.2743C94.9993 37.5429 91.966 37.7657 90.716 37.9886C90.0615 38.029 89.4186 38.1856 88.816 38.4515C88.1327 38.8629 88.0493 39.8572 88.1993 40.8686C90.1827 40.4057 93.0327 40.8686 94.866 40.2515C94.416 41.2629 93.3993 41.5886 92.0327 41.7772C90.7856 41.7758 89.5488 42.0082 88.3827 42.4629C87.3327 43.3029 88.216 45.24 88.966 45.8915C89.6579 46.5116 90.5327 46.874 91.4493 46.92C90.566 45.9943 88.6493 45.72 88.2327 44.3143C88.666 44.4686 89.0993 45 89.5993 45.0857C90.0993 45.1715 90.816 45.24 91.4493 45.2915C92.4761 45.2234 93.506 45.2234 94.5327 45.2915C94.0484 45.705 93.4782 45.9983 92.866 46.1486C93.695 47.478 94.6376 48.7287 95.6827 49.8857C96.2709 50.4131 96.9009 50.889 97.566 51.3086C98.216 51.7543 98.9493 52.1143 99.6493 52.5086C99.1166 52.9626 98.4408 53.2004 97.7493 53.1772C97.1827 57.6 96.0827 61.7143 95.5827 66.3257ZM51.1993 25.5258C49.8099 25.8018 48.4401 26.1741 47.0993 26.64C44.915 27.3415 42.8428 28.3696 40.9493 29.6915C40.6827 29.88 40.316 30.1029 40.2493 30.3257C40.1946 30.7812 40.1946 31.2418 40.2493 31.6972C40.2493 32.2115 40.166 32.6743 40.2493 33.0515C40.2493 33.9943 40.3994 34.7657 40.4994 35.7257C40.716 37.44 41.016 39.1543 42.266 39.7886C43.1956 40.0133 44.1689 39.9537 45.066 39.6172C46.7907 39.0719 48.4874 38.4368 50.1493 37.7143C51.266 37.2857 52.4827 36.9257 53.7493 36.5829C55.0388 36.2104 56.3782 36.0542 57.716 36.12C58.9231 36.2627 60.1127 36.5327 61.266 36.9258C62.3993 37.2515 63.4993 37.68 64.5993 38.0743C66.1838 38.784 67.8228 39.3574 69.4994 39.7886C70.1256 39.9529 70.7782 39.9821 71.416 39.8743C73.0827 39.3943 73.316 37.0115 73.516 34.8343C73.5901 34.0826 73.6124 33.3264 73.5827 32.5715C73.5827 32.2115 73.5827 31.7829 73.5827 31.3886C73.6314 31.0074 73.6314 30.6212 73.5827 30.24C73.4993 30.0172 73.0327 29.7257 72.8327 29.5715C70.7256 28.1537 68.4216 27.0728 65.9993 26.3658C62.7783 25.2668 59.39 24.7788 55.9993 24.9257C54.3873 25.006 52.7831 25.2065 51.1993 25.5258V25.5258ZM38.5827 33.0172C38.5973 33.8367 38.653 34.6549 38.7493 35.4686C38.9993 38.4343 39.3327 41.8286 42.0827 42.0515C42.993 42.0862 43.9005 41.9287 44.7493 41.5886C48.7827 40.2857 51.666 38.0057 56.8327 38.0057C61.9993 38.0057 64.8827 40.32 68.8827 41.5886C69.7405 41.9165 70.6511 42.0736 71.566 42.0515C74.6993 41.8457 74.8993 37.6972 75.0827 34.4572C75.1141 33.9491 75.1141 33.4395 75.0827 32.9315C75.0251 32.1571 74.7137 31.4257 74.1994 30.8572C74.1994 30.8572 74.0327 30.6515 73.9993 30.7715C73.9706 30.9991 73.9706 31.2296 73.9993 31.4572C74.0439 32.1936 74.0439 32.9322 73.9993 33.6686C73.7993 36.4457 73.7827 39.6858 71.516 40.3543C70.648 40.5019 69.7586 40.4433 68.916 40.1829C66.416 39.6 64.4827 38.6057 62.2493 37.8515C60.6697 37.2607 59.0229 36.8804 57.3493 36.72C55.6153 36.7206 53.8948 37.0339 52.266 37.6457C49.9993 38.3486 47.8993 39.36 45.5993 40.0115C44.7753 40.2884 43.9161 40.4386 43.0493 40.4572C40.8327 40.4572 40.2993 38.3657 40.066 36.2057C39.8264 34.3883 39.7428 32.5526 39.816 30.72C39.1461 31.3052 38.7074 32.1223 38.5827 33.0172V33.0172ZM31.3493 34.6286C31.3368 35.7767 31.4204 36.9238 31.5994 38.0572C31.8296 40.175 32.2594 42.2648 32.8827 44.2972C33.1494 44.16 33.2993 43.7829 33.4493 43.4572C33.6252 43.0974 33.738 42.7086 33.7827 42.3086C33.8 41.3859 33.6763 40.4661 33.416 39.5829C32.5216 37.0417 32.1141 34.3463 32.216 31.6457C31.6415 32.5304 31.3235 33.565 31.2994 34.6286H31.3493ZM81.116 36.8572C80.6197 38.3691 80.2572 39.9239 80.0327 41.5029C79.9765 42.1842 80.0913 42.8689 80.366 43.4915C80.4674 43.8242 80.6651 44.1173 80.9327 44.3315C81.5402 42.2939 81.9752 40.2061 82.2327 38.0915C82.4994 35.8629 82.766 33.1543 81.5993 31.68C81.7719 33.4251 81.5903 35.188 81.066 36.8572H81.116ZM34.4493 39.12C34.8668 40.316 35.0205 41.5926 34.8993 42.8572C34.8376 43.4008 34.6645 43.9247 34.3916 44.3945C34.1187 44.8643 33.7521 45.2694 33.316 45.5829C34.0327 47.2972 36.1827 47.6572 37.8327 48.2915C36.2935 43.3475 35.788 38.1248 36.3493 32.9657C36.0387 33.0825 35.7214 33.1798 35.3993 33.2572C34.8996 33.2654 34.4061 33.1422 33.9656 32.8992C33.5252 32.6562 33.1524 32.3014 32.8827 31.8686C32.8167 34.3665 33.307 36.8469 34.316 39.12H34.4493ZM78.416 33.2057C78.0493 33.2057 77.6993 32.9315 77.4827 32.9315C78.0573 38.1243 77.5517 43.3835 75.9993 48.36C77.666 47.6229 79.816 47.3315 80.5327 45.6C79.9662 45.201 79.5132 44.654 79.2203 44.0153C78.9274 43.3766 78.8051 42.6692 78.866 41.9657C78.9993 39.1543 81.1827 36.3429 80.8993 31.9372C80.6155 32.3722 80.2222 32.72 79.7614 32.9434C79.3007 33.1668 78.7896 33.2574 78.2827 33.2057H78.416ZM37.366 37.7143C37.466 39.12 37.5993 40.5257 37.7493 41.8286C38.066 44.5543 38.3493 47.2972 39.766 48.7886C38.366 44.0229 38.0993 38.1257 37.366 32.6229C37.0849 34.3077 37.0849 36.0295 37.366 37.7143V37.7143ZM73.9327 48.7886C75.366 47.3143 75.5993 44.5543 75.9493 41.8286C76.0993 40.5257 76.2494 39.12 76.3494 37.7143C76.6458 36.0424 76.6458 34.3291 76.3494 32.6572C75.9717 38.0999 75.186 43.5046 73.9993 48.8229C73.9993 48.8229 73.9493 48.8229 73.9327 48.7543V48.7886ZM73.2994 43.7829C72.0999 44.302 70.8169 44.5868 69.516 44.6229C66.9827 44.7429 62.4993 43.6972 58.9493 43.5257C56.4736 43.3965 53.9916 43.494 51.5327 43.8172C49.2243 44.2471 46.8919 44.5277 44.5494 44.6572C43.1337 44.6349 41.7335 44.3503 40.416 43.8172C40.8262 45.2556 41.356 46.655 41.9993 48C41.366 47.1943 40.816 46.2857 40.3327 45.4286C40.5833 47.7098 41.3356 49.9024 42.5327 51.84C43.7181 53.4977 45.0158 55.0674 46.416 56.5372C47.7428 58.0675 49.1564 59.5157 50.6494 60.8743C52.4472 62.3159 54.6615 63.0988 56.941 63.0988C59.2206 63.0988 61.4349 62.3159 63.2327 60.8743C64.7163 59.5112 66.1241 58.0632 67.4493 56.5372C70.1327 53.5029 73.066 50.6572 73.516 45.4286C73.1211 46.1023 72.6928 46.7546 72.2327 47.3829C72.1185 47.6086 71.9595 47.8072 71.766 47.9657C72.4229 46.6208 72.937 45.2069 73.2994 43.7486V43.7829ZM77.1327 96.2229C77.3327 95.7258 77.4993 95.2458 77.6993 94.7143C77.8993 94.1829 80.1327 88.3029 79.7994 84.3086C79.6494 82.5943 79.4327 81.0515 79.3493 79.4229C79.2946 77.7375 79.3894 76.0505 79.6327 74.3829C80.3827 67.9715 81.8327 62.3829 85.6993 59.2286C84.8624 60.5447 84.1161 61.9195 83.466 63.3429C82.7907 64.9503 82.3363 66.6466 82.116 68.3829C81.5717 72.4085 81.4042 76.4786 81.616 80.5372C84.5963 82.1204 87.4302 83.9795 90.0827 86.0915C90.8593 86.9413 91.8181 87.5929 92.8827 87.9943C93.4685 88.0712 94.0613 87.9249 94.5493 87.5829C93.4084 87.4092 92.3545 86.8552 91.5493 86.0057C91.3923 85.7774 91.253 85.5366 91.1327 85.2858C90.4531 83.6675 90.2001 81.8937 90.3993 80.1429C90.4542 78.682 90.644 77.2297 90.966 75.8058C91.378 73.608 92.1864 71.509 93.3493 69.6172C93.5348 69.3867 93.6915 69.1333 93.816 68.8629C93.8473 68.4521 93.8473 68.0394 93.816 67.6286C93.7744 66.7892 93.7744 65.9481 93.816 65.1086C93.861 64.6927 93.861 64.273 93.816 63.8572C93.816 63.6858 93.1827 63.3772 92.9327 63.2058C91.966 62.5372 90.9993 61.8858 90.1327 61.2515C89.2504 60.529 88.3325 59.8538 87.3827 59.2286C86.8849 58.8823 86.3131 58.6647 85.716 58.5943C86.016 58.1486 86.8327 58.0457 87.5827 58.1486C87.666 58.1486 87.5827 58.0115 87.5827 57.9943C87.1262 57.6349 86.6279 57.3355 86.0994 57.1029C81.816 54.96 77.1993 53.1429 72.816 51.4286C72.5094 52.0232 72.1641 52.596 71.7827 53.1429C71.6284 53.3265 71.5045 53.535 71.416 53.76C71.3835 54.1021 71.3835 54.4466 71.416 54.7886C71.4361 55.8282 71.3579 56.8674 71.1827 57.8915C70.8576 61.329 69.4468 64.5624 67.166 67.0972C65.5777 68.6013 63.6637 69.6944 61.5827 70.2858C61.0368 70.4657 60.48 70.6089 59.916 70.7143C58.5619 70.8889 57.195 70.9349 55.8327 70.8515C55.1327 70.8515 54.4327 70.8515 53.7827 70.7143C52.8622 70.5244 51.959 70.2549 51.0827 69.9086C48.6266 69.1187 46.4973 67.5078 45.0327 65.3315C42.9966 61.865 42.0589 57.8332 42.3493 53.7943C41.8101 53.0364 41.3148 52.2465 40.866 51.4286C37.116 52.9715 33.1827 54.5486 29.566 56.2286C28.4896 56.7021 27.4575 57.276 26.4827 57.9429C26.366 58.0286 26.1493 58.1315 26.1993 58.2343C26.525 58.1481 26.8661 58.1435 27.1938 58.2211C27.5216 58.2987 27.8264 58.4561 28.0827 58.68C27.4343 58.7283 26.8115 58.9597 26.2827 59.3486C25.9491 59.5319 25.6313 59.7441 25.3327 59.9829C23.8799 61.1654 22.3606 62.2587 20.7827 63.2572C20.5327 63.4286 19.9327 63.7886 19.8827 63.9429C19.8462 64.3477 19.8462 64.7552 19.8827 65.16C19.924 66.0052 19.924 66.852 19.8827 67.6972C19.8521 68.1137 19.8521 68.5321 19.8827 68.9486C20.0234 69.2412 20.2029 69.5124 20.416 69.7543C21.705 71.8732 22.556 74.2424 22.916 76.7143C23.4327 79.7143 23.7827 83.9143 22.1827 86.0057C21.796 86.4406 21.3321 86.7956 20.816 87.0515C20.2922 87.3347 19.7306 87.5369 19.1493 87.6515C19.5796 87.9109 20.0674 88.0526 20.566 88.0629C21.147 87.9477 21.6878 87.6755 22.1327 87.2743C22.616 86.9143 23.0327 86.52 23.4327 86.1772C26.1297 84.0552 29.0017 82.1795 32.016 80.5715C32.2228 76.5124 32.0498 72.4422 31.4993 68.4172C31.0352 65.1069 29.8127 61.9575 27.9327 59.2286C31.7827 62.52 33.2327 68.0058 33.9993 74.4172C34.2334 76.0743 34.3282 77.7491 34.2827 79.4229C34.1827 81.1372 33.966 82.7143 33.8327 84.3429C33.8261 88.501 34.7439 92.6056 36.516 96.3429C35.4937 95.043 34.6368 93.6144 33.966 92.0915C34.0597 95.3458 33.965 98.603 33.6827 101.846C33.466 104.383 32.9993 106.989 32.766 109.714C32.6933 110.093 32.6543 110.477 32.6493 110.863C32.6493 111.086 33.3994 111.6 33.6827 111.823C36.576 113.856 39.7661 115.401 43.1327 116.4C45.2357 117.07 47.3792 117.597 49.5494 117.977C54.3208 118.937 59.2279 118.937 63.9993 117.977C69.6631 117.148 75.08 115.046 79.866 111.823C80.1827 111.566 80.866 111.103 80.916 110.863C80.9268 110.489 80.8932 110.114 80.816 109.749C80.5493 107.006 80.116 104.451 79.8827 101.846C79.6208 98.6017 79.5207 95.346 79.5827 92.0915C78.9521 93.566 78.1277 94.9446 77.1327 96.1886V96.2229ZM69.216 56.4343C68.8827 56.7772 68.2993 57.2229 68.1493 57.6515C68.0818 57.9445 68.0372 58.2426 68.016 58.5429C67.6634 60.1669 66.9202 61.674 65.8545 62.9259C64.7887 64.1778 63.4345 65.1346 61.916 65.7086C61.4305 65.9112 60.9355 66.0886 60.4327 66.24C59.274 66.5458 58.0776 66.6729 56.8827 66.6172C55.677 66.6642 54.4708 66.5373 53.2994 66.24C49.466 64.8686 46.6327 62.8115 45.7327 58.5086C45.6989 58.2088 45.6488 57.9112 45.5827 57.6172C45.4563 57.3851 45.2864 57.1811 45.0827 57.0172C44.516 56.4343 43.9827 55.8172 43.416 55.3029C43.416 59.9143 44.5327 63.5486 46.8493 65.9486C48.1732 67.2567 49.7433 68.2723 51.4631 68.9327C53.1829 69.5931 55.016 69.8844 56.8493 69.7886C58.685 69.8788 60.5192 69.5816 62.2389 68.9153C63.9587 68.2491 65.5277 67.2278 66.8493 65.9143C69.1827 63.4629 70.1827 59.9143 70.1827 55.2686C69.8406 55.6393 69.518 56.0284 69.216 56.4343Z" fill="black"/>
<path fill-rule="evenodd" clip-rule="evenodd" d="M47.7172 46.7999C47.9172 47.0227 47.8172 47.6741 47.8005 48.017C48.8085 47.8741 49.8354 47.998 50.7839 48.377C52.747 49.0273 54.7891 49.3908 56.8505 49.457C58.9124 49.3959 60.9553 49.0322 62.9172 48.377C63.8595 47.9966 64.8799 47.8669 65.8839 47.9999C65.8839 47.7084 65.8839 47.0399 65.9672 46.7827C66.192 47.1909 66.3603 47.6295 66.4672 48.0856C66.5672 48.2913 66.7339 48.4627 66.8339 48.6856C66.963 49.101 67.1305 49.5028 67.3339 49.8856C67.2339 49.8856 67.0339 49.6456 66.9005 49.5256C66.7672 49.4056 66.5505 49.1999 66.3839 49.0799C66.2505 49.937 66.0172 50.657 65.8339 51.3941C65.3839 53.1084 65.6839 54.8227 62.2172 56.3141C60.7263 56.9035 59.1474 57.2225 57.5505 57.257C56.2614 57.2766 54.973 57.1791 53.7005 56.9656C52.5115 56.8029 51.3728 56.3695 50.3672 55.697C48.1339 54.3427 48.3672 53.1941 47.9672 51.6684C47.7339 50.8284 47.4839 49.9541 47.3172 49.1141C47.0498 49.3028 46.7988 49.515 46.5672 49.7484C46.5672 49.7484 46.4339 49.9713 46.3672 49.8856C46.9172 48.9084 47.3005 47.8799 47.7172 46.7999ZM61.5172 49.5084C60.1836 49.8914 58.8153 50.1326 57.4339 50.2284C55.7168 50.2619 54.0042 50.0366 52.3505 49.5599C51.0068 49.0334 49.5686 48.8112 48.1339 48.9084C48.4172 49.3713 48.4672 50.1599 48.8005 50.6227C49.2359 51.0657 49.7758 51.3847 50.3672 51.5484C53.9403 52.6566 57.7234 52.845 61.3839 52.097C62.5505 51.857 64.3505 51.4284 64.9005 50.6056C65.1604 50.0482 65.3885 49.4758 65.5839 48.8913C64.2023 48.826 62.8215 49.0356 61.5172 49.5084V49.5084ZM60.5505 53.3827C60.2249 53.2384 59.8835 53.1348 59.5339 53.0741C59.1039 53.0831 58.675 53.1232 58.2505 53.1941C57.8005 53.1941 57.3172 53.1941 56.8505 53.1941C56.3839 53.1941 55.9172 53.1941 55.4505 53.1941C54.9078 53.0454 54.3383 53.0332 53.79 53.1585C53.2418 53.2838 52.7309 53.543 52.3005 53.9141C51.7894 54.2788 51.4042 54.801 51.2005 55.4056C52.9768 56.2279 54.9026 56.6531 56.8505 56.6531C58.7985 56.6531 60.7242 56.2279 62.5005 55.4056C62.3354 54.9443 62.0759 54.525 61.7394 54.176C61.403 53.827 60.9975 53.5564 60.5505 53.3827V53.3827Z" fill="black"/>
<path d="M26.25 120.75C24.6 120.75 23.25 120 22.35 118.35C21.45 116.7 21 113.85 21 110.25C21 105.15 21 100.2 21 95.1001C21 91.8001 21.45 89.8501 22.2 89.2501C22.95 88.6501 24.3 89.5501 26.25 91.6501C28.65 94.0501 30.3 96.3001 31.05 98.5501C31.5 99.9001 31.8 101.4 31.8 103.35C31.8 103.95 31.8 104.55 31.95 105C30.75 104.4 29.55 103.8 28.35 103.05C28.35 102.15 28.35 101.1 28.2 100.2C28.2 99.0001 28.05 97.9501 27.75 97.3501C27.45 96.6001 27 96.0001 26.4 95.4001C25.8 94.8001 25.35 94.6501 25.05 95.1001C24.75 95.5501 24.75 96.6001 24.75 98.2501C24.9 102.6 24.9 107.1 25.05 111.45C25.05 113.4 25.2 114.9 25.5 115.65C25.8 116.4 26.25 116.85 27 117C27.75 117.15 28.2 116.7 28.5 116.1C28.8 115.35 28.95 114.15 28.8 112.5C28.8 111.3 28.65 110.1 28.65 108.9C28.05 108.6 27.3 108.45 26.7 108.15C26.7 107.1 26.7 106.05 26.55 105C28.35 105.9 30.15 106.8 31.95 107.55C32.1 111.9 32.4 116.25 32.55 120.6C31.95 120.6 31.35 120.6 30.75 120.6C30.45 119.7 30.3 118.95 30 118.05C29.85 118.95 29.4 119.55 28.65 120C28.05 120.45 27.15 120.75 26.25 120.75Z" fill="#F9F9F9"/>
<path d="M33.75 120.45C34.65 112.8 35.55 105.9 36.45 99.45C38.25 100.35 40.2 101.1 42 101.85C43.8 108.6 45.45 114.75 46.95 120.6C45.75 120.6 44.4 120.6 43.2 120.6C42.9 119.55 42.6 118.35 42.45 117.3C40.95 117.15 39.6 117.15 38.1 117C37.95 118.2 37.8 119.4 37.8 120.6C36.3 120.45 35.1 120.45 33.75 120.45ZM41.85 114.75C41.1 111.45 40.35 108.15 39.45 104.7C39 107.85 38.7 111 38.4 114.45C39.45 114.45 40.65 114.6 41.85 114.75Z" fill="#F9F9F9"/>
<path d="M48.3002 120.45C48.1502 114.75 47.8502 109.05 47.7002 103.2C49.5002 103.5 51.3002 103.8 53.1002 103.95C54.4502 108 55.8002 112.05 57.1502 116.1C58.3502 112.05 59.7002 108 61.0502 103.8C62.8502 103.65 64.6502 103.2 66.4502 102.75C66.1502 108.6 66.0002 114.6 65.7002 120.45C64.5002 120.45 63.3002 120.45 62.1002 120.45C62.1002 118.35 62.2502 116.25 62.2502 114.15C62.4002 112.2 62.4002 110.25 62.5502 108.3C61.2002 112.5 59.8502 116.4 58.6502 120.3C57.6002 120.3 56.5502 120.3 55.3502 120.3C54.1502 116.4 52.8002 112.5 51.3002 108.45C51.4502 110.4 51.4502 112.2 51.6002 114.15C51.6002 116.25 51.7502 118.35 51.7502 120.3C50.7002 120.45 49.5002 120.45 48.3002 120.45Z" fill="#F9F9F9"/>
<path d="M68.3994 120.45C68.6994 114.3 68.9994 108.15 69.2994 102C72.4494 100.95 75.4494 99.5998 78.4494 97.7998C78.4494 98.8498 78.2994 99.7498 78.2994 100.8C76.6494 101.7 74.9994 102.45 73.3494 103.05C73.1994 105 73.1994 106.95 73.0494 108.9C74.5494 108.45 76.1994 108 77.6994 107.4C77.6994 108.3 77.5494 109.35 77.5494 110.25C76.0494 110.7 74.3994 111 72.8994 111.3C72.7494 113.4 72.5994 115.5 72.5994 117.6C74.2494 117.45 76.0494 117.3 77.6994 117.15C77.6994 118.2 77.5494 119.1 77.5494 120.15C74.3994 120.45 71.3994 120.45 68.3994 120.45Z" fill="#F9F9F9"/>
<path d="M85.0506 107.1C84.6006 107.25 84.1506 107.4 83.8506 107.55C83.7006 111.75 83.5506 116.1 83.4006 120.3C82.0506 120.3 80.7006 120.3 79.3506 120.3C79.8006 112.35 80.1006 104.4 80.5506 96.3C82.8006 94.8 84.9006 92.85 86.8506 90.75C88.0506 89.4 88.9506 88.65 89.5506 88.5C90.1506 88.5 90.4506 88.95 90.7506 90C90.9006 91.05 91.0506 92.7 91.0506 94.8C91.0506 96.9 90.9006 98.7 90.6006 100.05C90.3006 101.4 89.7006 102.45 88.8006 103.35C89.7006 103.05 90.1506 103.35 90.6006 104.55C90.9006 105.75 91.0506 108.6 91.0506 113.1C91.0506 117.6 91.0506 120 91.2006 120.3C89.8506 120.3 88.5006 120.3 87.1506 120.3C87.0006 120 87.1506 116.4 87.3006 109.5C87.3006 108.15 87.1506 107.4 87.0006 106.95C86.4006 106.8 85.9506 106.8 85.0506 107.1ZM84.0006 104.4C84.4506 104.1 85.0506 103.8 85.5006 103.5C85.9506 103.2 86.4006 102.9 86.5506 102.45C86.8506 102 87.0006 101.55 87.0006 100.8C87.1506 100.05 87.1506 99.15 87.1506 97.8V97.65C87.1506 96 87.1506 95.1 86.8506 94.8C86.7006 94.5 86.1006 94.8 85.3506 95.4C84.9006 95.7 84.4506 96.15 84.0006 96.45C84.1506 99.15 84.1506 101.7 84.0006 104.4Z" fill="#F9F9F9"/>
</g>
<defs>
<clipPath id="clip0_128_79">
<rect width="114" height="120" fill="white"/>
</clipPath>
</defs>
</svg>
