<svg width="84" height="120" viewBox="0 0 84 120" fill="none" xmlns="http://www.w3.org/2000/svg">
<g clip-path="url(#clip0_128_2)">
<path d="M73.1803 91.41V98.04L48.5996 102.33L50.9498 97.515L54.5859 93.765L73.1803 89.835V91.23V91.41Z" fill="url(#paint0_linear_128_2)"/>
<path d="M18.9788 120L27.1379 106.5C27.1379 106.5 29.4141 102.705 32.2668 96.6599C17.885 83.5199 10.1693 64.8149 6.22284 51.2549L5.43945 48.5099L7.76006 46.9049C12.6186 43.568 17.6898 40.5614 22.9401 37.9049C24.3442 34.3576 26.844 31.368 30.0645 29.3849L42.9091 21.5849L39.9529 26.8949C41.2512 26.647 42.565 26.4916 43.8846 26.4299L47.8459 26.2199C48.2282 22.2641 47.5968 18.2752 46.0131 14.6399L44.535 22.3499L42.6578 11.6849C42.5396 10.9649 42.0222 7.3049 43.3969 5.0699C45.481 1.6649 49.3092 -0.030097 54.926 -9.69671e-05C59.6965 0.316708 64.2382 2.18981 67.8741 5.3399L77.6591 14.9999L73.949 14.1749C74.8447 15.3113 75.6833 16.4928 76.4618 17.7149C81.2262 25.6181 83.7194 34.7152 83.6601 43.9799L84.0001 63.1349L79.8614 53.8199C79.37 60.7023 78.0902 67.5031 76.0479 74.0849L72.1901 86.3549L69.6478 77.5349C65.498 84.2632 60.7535 90.5943 55.4729 96.4499L46.0279 107.325L47.6833 98.7299C43.2914 103.895 38.1414 108.342 32.4146 111.915L18.9788 120Z" fill="#FF0000"/>
<path d="M40.1599 100.5L39.0513 99.6899C21.5951 87.1349 12.5639 66.1499 8.01139 50.7599L7.6123 49.3799L8.77999 48.5849C16.1113 43.4999 42.3918 26.7749 74.9099 25.4999L77.1122 25.4099L76.9053 27.6449C75.8467 37.0061 73.8153 46.2274 70.8451 55.1549C66.2926 69.0299 57.4536 88.0199 41.2833 99.6749L40.1599 100.5ZM12.1944 50.9999C16.54 65.3099 24.8321 83.9999 40.1599 95.6399C54.8078 84.5249 62.9521 66.8999 67.209 53.9099C69.8112 45.9813 71.6913 37.8271 72.8257 29.5499C43.8699 31.3349 20.383 45.4199 12.1944 50.9999Z" fill="#D10505"/>
<path d="M75.0283 27.4199C75.0283 27.4199 70.7271 76.0499 40.1601 98.0399C23.369 85.9499 14.5152 65.8199 9.87402 50.1449C17.6488 44.7449 43.1755 28.7099 75.0283 27.4199Z" fill="white"/>
<path d="M75.0283 27.4199C75.0283 27.4199 70.7271 76.0499 40.1601 98.0399C23.369 85.9499 14.5152 65.8199 9.87402 50.1449C17.6488 44.7449 43.1755 28.7099 75.0283 27.4199Z" fill="white"/>
<path d="M19.26 48.15C17.1611 49.44 15.4465 50.565 14.2049 51.42L11.8252 50.58L13.7024 50.1C15.2834 48.9752 16.9268 47.9435 18.6244 47.01C19.2304 46.725 19.3487 47.34 19.26 48.15Z" fill="url(#paint1_linear_128_2)"/>
<path d="M40.3663 95.85L39.9967 93.435C25.5262 82.785 17.8253 65.31 13.8641 51.66H13.7754L10.5088 50.415L12.2825 51.915C13.5389 56.82 20.5746 81.3 40.3663 95.85Z" fill="url(#paint2_linear_128_2)"/>
<path d="M71.0963 31.6799C71.0963 31.6799 67.3123 74.4449 40.4406 93.7649C25.6597 83.1449 17.8849 65.4449 13.835 51.6599C20.649 46.9199 43.0864 32.8199 71.0963 31.6799Z" fill="#000131"/>
<path d="M39.4356 93C33.9544 88.7379 29.2348 83.5526 25.4824 77.67C32.6512 70.275 38.8887 56.25 38.8887 56.25C38.8887 56.25 47.1956 58.26 48.0972 61.065C48.8363 63.525 43.3673 88.26 39.4356 93Z" fill="white"/>
<path d="M47.1508 68.775L44.1946 67.1101C44.1946 67.1101 40.7359 76.275 36.8042 81.03C36.8042 81.03 41.0463 70.125 41.8592 63.18C40.801 66.5069 39.069 69.5725 36.7746 72.18C38.0483 69.0904 38.9755 65.8651 39.5386 62.565C36.1504 67.5934 31.9708 72.0225 27.167 75.675V75.675C33.5967 68.01 38.8587 56.175 38.8587 56.175C38.8587 56.175 47.1656 58.185 48.0672 60.99C48.1296 63.6161 47.821 66.2378 47.1508 68.775V68.775Z" fill="url(#paint3_linear_128_2)"/>
<path d="M46.2645 61.0501C46.161 61.2001 46.2645 64.3951 45.3185 63.1801C44.3958 62.1373 43.3186 61.2466 42.1258 60.5401C41.6225 62.6987 40.7087 64.7369 39.4357 66.5401C40.132 64.4271 40.5349 62.2259 40.6329 60.0001C39.9139 61.3003 39.0128 62.4877 37.9576 63.5251C38.5764 62.0568 38.9845 60.506 39.1696 58.9201C37.8246 60.8551 34.7354 64.4101 34.7354 64.4101C37.2629 59.9101 38.8888 56.2351 38.8888 56.2351C40.7266 56.7014 42.5256 57.3132 44.269 58.0651C44.9964 59.0158 45.6629 60.0128 46.2645 61.0501V61.0501Z" fill="#8F8FB1"/>
<path d="M24.6541 114.27L28.7337 107.505C28.8667 107.265 42.4652 84.4949 44.9927 61.7399C40.9132 57.4949 35.1043 52.6049 29.384 52.0199C26.9455 51.7996 24.4877 52.0231 22.1266 52.6798C18.8157 54.4498 17.7958 60.6449 17.7958 60.6449L15.9925 54.8699C15.9925 54.6449 14.2927 49.4549 18.0175 46.0349C19.9298 44.3924 22.0112 42.9641 24.2255 41.7749C23.7968 38.9399 26.5757 33.7649 31.0247 31.0499L37.4544 27.1349L35.799 29.9999C38.3908 29.0392 41.1126 28.4878 43.8693 28.3649L49.4565 28.0648C50.4284 22.1391 49.2747 16.0561 46.2047 10.9199C45.7874 10.3159 45.4957 9.63199 45.3474 8.90985C44.9335 9.67116 44.6487 10.4977 44.5049 11.3549C44.5049 11.3549 43.9285 7.82985 44.9779 6.11985C45.6874 4.94985 47.8159 1.91985 54.8664 1.96485C59.1588 2.24952 63.2473 3.92705 66.5285 6.74985L71.421 11.5649L68.1396 10.8299C70.7526 13.1273 73.0318 15.7887 74.9093 18.7349C79.4827 26.3267 81.8689 35.067 81.7972 43.9649L81.9598 53.5499L78.2498 45.1649C78.4213 54.7701 77.0535 64.3399 74.1998 73.4999L72.2635 79.6349L70.1942 72.4049C67.9918 77.0849 63.4245 84.4049 54.0238 95.2199L49.2939 100.65L50.6686 93.5399C50.6686 93.5399 50.8312 92.6698 51.0381 91.4398C46.9586 97.0648 40.2037 104.94 31.4238 110.28L24.6541 114.27Z" fill="#D10505"/>
<path d="M75.4274 35.4602C77.1567 47.9971 76.1063 60.7676 72.353 72.8402C72.8814 64.8489 72.1225 56.8237 70.1063 49.0802C71.038 55.0262 70.7816 61.1017 69.3525 66.9452C67.8683 71.9416 65.6455 76.6805 62.7602 81.0002C59.5908 85.4641 56.1914 89.755 52.5761 93.8552C53.2253 90.5124 53.601 87.1208 53.6995 83.7152C53.6995 83.7152 44.7422 99.9152 30.4491 108.525C30.6708 108.15 44.757 84.6452 47.0037 61.0352C42.3921 56.0852 36.0215 50.7002 29.5327 50.0552C29.499 47.3309 28.5792 44.6942 26.9165 42.5552C26.7318 42.4672 26.5694 42.3377 26.4413 42.1766C26.3133 42.0155 26.223 41.8269 26.1774 41.6252C25.734 40.1252 27.8329 35.2802 32.0898 32.7302C31.6298 33.579 31.3197 34.5029 31.1734 35.4602C31.8856 34.553 32.7639 33.7941 33.76 33.2252C36.9195 31.4038 40.474 30.4041 44.1067 30.3152L42.6286 31.3202C44.5457 31.5996 46.442 32.0105 48.3045 32.5502C47.9269 33.8816 47.7329 35.2597 47.728 36.6452C47.8708 37.7859 48.3094 38.8678 48.9992 39.7802C48.6981 38.6671 48.6227 37.5037 48.7774 36.3602C48.9609 35.1742 49.4736 34.066 50.2555 33.1652C51.6093 29.3573 52.0971 25.288 51.6825 21.2618C51.2678 17.2356 49.9614 13.3567 47.861 9.91518C47.5916 9.49937 47.416 9.02824 47.347 8.53552C47.2781 8.0428 47.3173 7.5407 47.4619 7.06518C47.9054 5.70018 49.3982 3.93018 54.8524 3.93018C58.6561 4.19093 62.2795 5.6723 65.1991 8.16018C63.5922 7.68386 61.9019 7.57121 60.2474 7.83018V7.83018C69.116 12.2402 79.4626 23.2802 79.8026 44.0102C78.5056 41.0781 77.0448 38.2234 75.4274 35.4602V35.4602Z" fill="white"/>
<path d="M46.7081 54.9749C46.7081 54.9749 46.1612 57.9749 45.6882 59.6549C41.2539 55.1549 35.4154 50.6549 29.5326 50.0549C29.5427 49.9451 29.5427 49.8347 29.5326 49.7249C29.5393 49.6701 29.5393 49.6147 29.5326 49.5599C29.5326 49.3649 29.5326 49.1249 29.5326 48.8399C29.5326 48.5549 29.5326 48.6449 29.5326 48.5399L29.3405 47.9999V47.7449L29.2518 47.3699C29.2577 47.31 29.2577 47.2497 29.2518 47.1899C29.2518 47.1899 29.2518 47.1899 29.2518 47.0999C29.2518 47.0099 29.2518 46.8299 29.1483 46.6949C29.0449 46.5599 28.971 46.1099 28.8675 45.8099C28.8345 45.7074 28.795 45.6072 28.7492 45.5099L28.6458 45.2249C28.4991 44.8747 28.3313 44.5341 28.1432 44.2049C28.1145 44.1369 28.0799 44.0716 28.0398 44.0099C27.9511 43.8449 27.8476 43.6799 27.7441 43.5149C29.0206 44.5546 29.9918 45.9294 30.5525 47.4899C33.1063 48.0648 35.7116 48.3714 38.3273 48.4049C36.5644 48.9388 34.7413 49.2413 32.9027 49.3049C37.8224 50.2714 42.5108 52.1969 46.7081 54.9749V54.9749Z" fill="url(#paint4_linear_128_2)"/>
<path d="M46.7081 54.9749C46.7081 54.9749 46.5159 56.0549 46.2646 57.2699C46.0873 58.0949 45.8803 58.9799 45.6882 59.6549C41.2539 55.1549 35.4154 50.6549 29.5326 50.0549C29.5427 49.9451 29.5427 49.8347 29.5326 49.7249C29.5393 49.6701 29.5393 49.6147 29.5326 49.5599C29.5396 49.46 29.5396 49.3598 29.5326 49.2599V48.8399C29.5326 48.7349 29.5326 48.6449 29.5326 48.5399L29.3405 47.9999V47.7449L29.2518 47.3699C29.2577 47.31 29.2577 47.2497 29.2518 47.1899C29.2518 47.1899 29.2518 47.1899 29.2518 47.0999C29.2518 47.0099 29.2518 46.8299 29.1483 46.6949C29.0449 46.5599 28.971 46.1099 28.8675 45.8099C28.8345 45.7074 28.795 45.6072 28.7492 45.5099L28.6458 45.2249C28.4991 44.8747 28.3313 44.5341 28.1432 44.2049C28.1145 44.1369 28.0799 44.0716 28.0398 44.0099C27.9511 43.8449 27.8476 43.6799 27.7441 43.5149C29.0206 44.5546 29.9918 45.9294 30.5525 47.4899C33.1063 48.0648 35.7116 48.3714 38.3273 48.4049C36.5644 48.9388 34.7413 49.2413 32.9027 49.3049C37.8224 50.2714 42.5108 52.1969 46.7081 54.9749V54.9749Z" fill="url(#paint5_linear_128_2)"/>
<path d="M46.2642 57.27C46.0869 58.095 45.8799 58.98 45.6878 59.655C41.2535 55.155 35.415 50.655 29.5322 50.055C29.5423 49.9452 29.5423 49.8348 29.5322 49.725C29.5389 49.6702 29.5389 49.6148 29.5322 49.56C29.5392 49.4601 29.5392 49.3599 29.5322 49.26C29.5322 49.26 36.9818 49.575 46.2642 57.27Z" fill="#8F8FB1"/>
<path d="M32.4292 40.305C33.1708 40.1832 33.8953 39.9717 34.5872 39.675C34.8677 39.4212 35.0809 39.1002 35.2074 38.7411C35.3339 38.3821 35.3697 37.9967 35.3115 37.62C35.281 37.4009 35.2162 37.1882 35.1194 36.99L32.0449 40.185L32.4292 40.305Z" fill="url(#paint6_linear_128_2)"/>
<path d="M29.0889 43.305C29.0889 43.305 32.0451 41.625 32.6954 41.385C33.3458 41.145 35.8733 40.575 36.3906 40.35C37.4696 39.915 37.9574 37.665 37.7357 36.645C37.7357 36.645 37.2627 39.435 35.5925 39.975C35.9832 39.4629 36.2239 38.8495 36.2872 38.205C36.1175 38.6791 35.8329 39.1022 35.4594 39.435C35.4975 39.0239 35.447 38.6094 35.3116 38.22C35.2527 38.8221 35.0156 39.3921 34.6317 39.855C34.0405 40.38 32.5624 40.545 32.0155 41.01C31.4686 41.475 29.0889 43.305 29.0889 43.305Z" fill="url(#paint7_linear_128_2)"/>
<path d="M34.691 39.435C33.9817 39.7236 33.2562 39.9691 32.5182 40.17C33.9963 38.67 35.7847 36.435 36.7455 35.25C36.7455 35.25 29.7837 41.775 28.749 41.625C29.4758 41.8203 30.2462 41.7622 30.9366 41.46L31.2322 41.37L29.089 43.305L32.3408 40.995C33.2424 40.695 34.3066 40.35 34.7057 40.185C35.6074 39.84 35.2526 37.62 35.2526 37.62C35.2526 37.62 35.2378 39.075 34.691 39.435Z" fill="url(#paint8_linear_128_2)"/>
<path d="M29.3398 43.7851C30.3836 42.9422 31.5315 42.2412 32.7542 41.7001C33.9811 41.3551 36.2573 40.8601 36.2573 40.8601C33.8764 41.641 31.5627 42.6193 29.3398 43.7851V43.7851Z" fill="#8F8FB1"/>
<path d="M47.0181 61.0501C47.241 57.3657 47.1767 53.6692 46.8259 49.9951C46.692 53.5888 46.116 57.1514 45.1113 60.6001L47.0181 61.0501Z" fill="url(#paint9_linear_128_2)"/>
<path d="M69.3516 66.9451C67.8674 71.9415 65.6447 76.6804 62.7593 81.0001C59.5899 85.464 56.1905 89.7549 52.5753 93.8551C53.2245 90.5123 53.6002 87.1207 53.6986 83.7151C53.6986 83.7151 44.7562 99.9151 30.4482 108.525C30.803 108.15 42.3912 96.0901 46.1456 84.0001C45.8058 86.7639 45.2774 89.5005 44.564 92.1901C44.564 92.1901 52.9596 81.6901 55.8714 72.8551C55.8714 72.8551 55.8714 78.0451 55.8714 80.9401C55.8714 80.9401 61.4882 72.1801 62.242 66.3601C61.8676 71.0753 61.1613 75.7572 60.1283 80.3701C60.1283 80.3701 69.5586 68.7451 70.0907 49.0801C70.0907 49.3501 70.0907 49.6201 70.1941 49.9051V50.0251C70.9909 55.6674 70.7048 61.413 69.3516 66.9451Z" fill="url(#paint10_linear_128_2)"/>
<path d="M29.532 50.0549C29.532 50.0549 23.2797 49.6949 21.1364 50.9849C19.7311 51.703 18.5796 52.8454 17.8403 54.2549C17.8403 54.2549 16.4805 50.0849 19.3184 47.5049C21.6616 45.566 24.2156 43.9052 26.9306 42.5549C28.588 44.6959 29.5025 47.3324 29.532 50.0549V50.0549Z" fill="url(#paint11_linear_128_2)"/>
<path d="M64.0311 20.4899C64.0311 20.4899 70.6234 38.0249 68.1402 50.4899C68.1402 50.4899 65.8787 33.6899 59.6707 25.3799C59.6707 25.3799 61.7253 33.4949 60.1142 36.3749C59.5081 29.9699 56.1085 27.3749 56.1085 27.3749C55.1242 30.63 53.5281 33.6608 51.4082 36.2999C54.3223 31.1889 55.8949 25.4043 55.9755 19.4999C58.7987 20.6249 62.2278 25.4999 62.2278 25.4999C61.0254 21.9011 59.0974 18.5958 56.5667 15.7949C59.5229 15.7949 64.6519 17.8349 66.9134 18.7949L67.1647 18.8999L67.4899 19.0499H67.5785L67.7411 19.1249H67.8742C67.8742 19.1249 72.5154 25.5449 73.2544 31.7099C73.3135 31.6799 68.9975 23.5199 64.0311 20.4899Z" fill="url(#paint12_linear_128_2)"/>
<path d="M58.4287 73.05C59.368 68.9617 59.9809 64.8032 60.2616 60.615C59.4043 63.78 55.3987 69.99 55.2656 70.17C55.443 69.81 61.178 58.17 61.0597 48.405C61.0597 48.405 61.9318 51.15 62.0648 58.8C63.143 54.9746 63.846 51.0506 64.1637 47.085C64.0455 59.37 58.6505 72.63 58.4287 73.05Z" fill="url(#paint13_linear_128_2)"/>
<path d="M56.7584 44.28C56.7584 44.28 57.6304 61.11 55.2803 70.185C55.2803 70.185 61.1926 58.335 61.0744 48.405C61.8343 51.8141 62.172 55.3061 62.0795 58.8C62.0795 58.8 66.5138 44.13 62.9072 32.385C62.9072 32.385 63.2915 43.905 62.1534 46.905C62.1534 46.905 60.9118 42.015 59.685 40.905C60.115 45.7948 59.7656 50.723 58.6503 55.5C58.4391 51.6995 57.8044 47.9355 56.7584 44.28V44.28Z" fill="url(#paint14_linear_128_2)"/>
<path d="M62.2134 25.3652C60.7236 23.8214 59.0268 22.4984 57.1731 21.4352C55.0594 31.3952 51.9554 35.6702 51.4824 36.2852C55.4585 27.5702 54.4386 16.0802 54.2317 14.4452C54.8388 15.4411 55.3346 16.5027 55.7098 17.6102C55.5172 16.5009 55.2605 15.404 54.9412 14.3252C59.4215 14.9923 63.7356 16.5196 67.6527 18.8252L67.8892 18.9752C64.6055 17.5955 61.096 16.8527 57.5426 16.7852C57.134 16.7631 56.7244 16.7631 56.3158 16.7852C58.7251 18.9752 62.0951 25.1252 62.2134 25.3652Z" fill="#8F8FB1"/>
<path d="M58.1631 15.6602C59.8202 18.7561 61.1814 22.0059 62.2278 25.3652C62.2278 25.3652 58.7987 20.5502 55.9755 19.3652C55.9239 25.3353 54.3504 31.1901 51.4082 36.3602C54.7191 25.8602 54.8817 18.3602 51.4082 10.5752C53.1767 12.7162 54.6214 15.1125 55.6947 17.6852C55.2751 15.2582 54.5291 12.9012 53.4775 10.6802C56.3241 11.0045 59.0748 11.9188 61.5589 13.3663C64.043 14.8138 66.2076 16.7638 67.9185 19.0952C67.7411 18.9902 61.4445 15.6602 58.1631 15.6602Z" fill="url(#paint15_linear_128_2)"/>
<path d="M69.3516 66.9451C67.8674 71.9415 65.6447 76.6805 62.7593 81.0001C59.5899 85.464 56.1905 89.7549 52.5753 93.8551C53.2245 90.5123 53.6002 87.1207 53.6986 83.7151C53.6986 83.7151 44.7562 99.9151 30.4482 108.525C41.6817 100.695 54.689 79.5001 54.689 79.5001C55.3222 82.7854 55.4469 86.1508 55.0585 89.4751C71.5688 70.2451 70.6376 54.4201 70.2237 50.1001C71.0012 55.7199 70.7051 61.439 69.3516 66.9451V66.9451Z" fill="#8F8FB1"/>
<path d="M18.9199 49.2449C19.4386 48.1638 20.2753 47.2727 21.3144 46.6949C23.369 45.3149 27.0642 43.4399 27.0642 43.4399C27.0642 43.4399 27.3598 44.3699 26.7834 44.6849C26.7834 44.6849 20.4276 47.1299 18.9199 49.2449Z" fill="url(#paint16_linear_128_2)"/>
<path d="M29.2215 44.3701C27.9214 44.8535 26.6527 45.4196 25.4229 46.0651C25.4229 46.0651 28.6451 44.9701 29.1476 47.1151L29.2215 44.3701Z" fill="white"/>
<path d="M32.4887 73.5C31.5495 76.462 30.1579 79.256 28.3648 81.78C27.8623 81.135 27.3893 80.475 26.8867 79.8C28.9144 77.8528 30.7876 75.7463 32.4887 73.5V73.5Z" fill="url(#paint17_linear_128_2)"/>
<path d="M40.9139 77.145C39.7975 81.7297 38.2379 86.1913 36.2579 90.465C35.0754 89.43 33.9521 88.335 32.873 87.21C34.9056 85.0423 36.6951 82.6528 38.209 80.085C37.3896 82.702 36.284 85.2177 34.9128 87.585C37.3841 84.4067 39.4041 80.8925 40.9139 77.145V77.145Z" fill="url(#paint18_linear_128_2)"/>
<path d="M37.632 73.05C36.0513 77.4578 33.9836 81.6697 31.4684 85.605C30.8033 84.87 30.1677 84.105 29.5469 83.34C32.671 80.2811 35.389 76.822 37.632 73.05V73.05Z" fill="url(#paint19_linear_128_2)"/>
<path d="M47.9047 38.22C45.8058 35.55 40.0117 33.63 40.0117 33.63C42.2676 33.6793 44.508 34.0221 46.6779 34.65C45.3264 33.663 43.8299 32.8987 42.2436 32.385C44.129 32.6589 45.9952 33.0547 47.8308 33.57C47.5801 34.5745 47.4658 35.6091 47.4909 36.645C47.5457 37.1889 47.6854 37.7206 47.9047 38.22V38.22Z" fill="url(#paint20_linear_128_2)"/>
<path d="M52.9454 49.9951C52.9454 49.9951 53.7287 63.2851 47.166 80.4301C47.166 80.4301 56.6849 65.5201 52.9454 49.9951Z" fill="url(#paint21_linear_128_2)"/>
<path d="M14.589 100.815V80.8201L0.488036 77.8201L7.8785 76.4851L-0.0292969 73.6951L40.9139 66.4351V67.1551C42.193 66.2932 43.6397 65.7202 45.156 65.4751C46.4063 65.2359 47.6896 65.2359 48.9399 65.4751V65.0401L75.3978 60.3601V90.0001L47.5357 94.9501C46.991 95.1625 46.4264 95.3183 45.8507 95.4151C45.2755 95.5227 44.6914 95.5729 44.1065 95.5651L35.9623 97.0651H36.0362L14.589 100.815Z" fill="#FF0000"/>
<path d="M62.9616 96.856L63.2694 93.56L64.3505 93.3625L64.6529 96.5471L64.0499 96.6572L64.0046 96.1427L63.6207 96.2129L63.5809 96.7429L62.9616 96.856ZM63.666 95.6873L63.9557 95.6344L63.8163 94.0124L63.7873 94.0177L63.666 95.6873ZM64.8484 96.5114V93.2716L65.819 93.0943L66.087 95.0205L66.3532 92.9967L67.3329 92.8178V96.0575L66.7498 96.1641V93.8299L66.384 96.2309L65.8118 96.3354L65.4243 94.0721V96.4062L64.8484 96.5114Z" fill="#251066"/>
<path d="M73.4315 88.29V80.07L68.9972 80.865V79.89L73.0176 79.17V71.1L68.9972 71.82V71.595L73.195 70.83V62.655L60.7642 64.875V69.075L59.0349 69.39V65.19L50.8906 66.69V68.535C50.6566 68.3202 50.3987 68.1339 50.122 67.98C48.6979 67.2449 47.0595 67.0584 45.5103 67.455C44.1962 67.6127 42.9451 68.1146 41.88 68.9115C40.8149 69.7084 39.9724 70.7727 39.4354 72L39.125 68.73L28.9261 70.56L28.3349 70.665L7.6416 74.37L15.5346 77.16L10.8047 78L16.5249 79.185V98.475L41.549 93.975L41.4456 92.82C42.1449 93.2516 42.9351 93.5087 43.7514 93.57H43.6627H43.9879H44.2392C44.6657 93.5714 45.0914 93.5312 45.5103 93.45C46.0174 93.3609 46.5131 93.215 46.9884 93.015L73.4315 88.29Z" fill="url(#paint22_linear_128_2)"/>
<path d="M18.4617 96.1349V76.1099L15.3281 74.9999L27.0051 72.8999V77.0999L21.0927 78.1649L22.7777 78.5099V82.0799L26.8129 81.3599V85.4999L21.1223 86.5049L22.7777 87.2849V91.1849L27.212 90.3899V94.4999L18.4617 96.1349Z" fill="white"/>
<path d="M62.7002 88.2149V66.5249L71.2584 65.0249V69.2099L65.346 70.2749L67.031 70.6199V74.1899L71.081 73.4999V77.5799L65.4051 78.5849L67.0606 79.3799V83.2649L71.4949 82.4699V86.6999L62.7002 88.2149Z" fill="white"/>
<path d="M39.4355 92.3699L37.4253 71.0549L30.1826 72.3449L28.1133 94.4099L32.2667 93.6599L32.5328 90.1199L35.1047 89.6549L35.3264 92.1749L38.0904 91.6349L35.4151 93.1349L39.4355 92.3699ZM32.8284 86.5949L30.5669 86.9999L32.9023 85.6049L33.6413 75.4349H33.8335L34.7647 86.2949L32.8284 86.5949Z" fill="white"/>
<path d="M45.171 91.5C42.1261 92.055 40.5889 90.105 40.5889 85.665V76.365C40.5889 72.315 42.3478 69.975 45.8361 69.345C46.9442 69.0515 48.1179 69.1521 49.1618 69.63C49.5735 69.8915 49.9268 70.2374 50.1991 70.6455C50.4715 71.0536 50.6569 71.515 50.7434 72C51.0682 73.3188 51.2173 74.6759 51.1868 76.035L45.3483 76.995L46.9447 76.125V74.775C46.957 74.387 46.8968 74.0002 46.7673 73.635C46.6997 73.4917 46.5823 73.3789 46.4378 73.318C46.2932 73.2571 46.1316 73.2524 45.9839 73.305C45.7759 73.3227 45.5758 73.394 45.4025 73.5121C45.2292 73.6302 45.0884 73.7912 44.9936 73.98C44.8402 74.3453 44.7598 74.7379 44.7571 75.135V85.635C44.7349 86.107 44.8156 86.5782 44.9936 87.015C45.0653 87.1782 45.1943 87.3086 45.3555 87.3807C45.5167 87.4528 45.6985 87.4614 45.8657 87.405C46.0658 87.3844 46.2562 87.3075 46.4155 87.1829C46.5748 87.0584 46.6967 86.8911 46.7673 86.7C46.9344 86.2185 47.0145 85.7103 47.0038 85.2V82.125L45.8509 82.335V78.585L51.0833 77.655V90.285L49.3687 90.585L48.6297 88.89C48.3042 89.5764 47.8194 90.1725 47.217 90.6271C46.6146 91.0817 45.9125 91.3812 45.171 91.5V91.5Z" fill="white"/>
<path d="M51.3486 90.27L52.8267 89.145V68.295L57.1723 67.5V85.5L61.6066 84.72V88.5L51.3486 90.27Z" fill="white"/>
<path d="M22.8065 91.1251L27.2851 90.3301V94.5451L18.4609 96.1351V91.6501L22.8065 90.8701V91.1251Z" fill="url(#paint23_linear_128_2)"/>
<path d="M39.0364 87.96L39.4503 92.37L35.4003 93.105L38.0756 91.635L35.3264 92.175L35.1047 89.655L32.5328 90.12L32.2667 93.66L28.1133 94.41L28.5419 89.835L39.0364 87.96Z" fill="url(#paint24_linear_128_2)"/>
<path d="M46.8261 86.5499L51.0682 85.7849V90.2849L49.3684 90.5849L48.6441 88.8899C48.3141 89.576 47.8262 90.1713 47.2216 90.6256C46.617 91.0799 45.9135 91.3798 45.1706 91.4999C42.6135 91.9649 41.1206 90.6599 40.7363 87.6149L45.0228 86.8499L46.8261 86.5499Z" fill="url(#paint25_linear_128_2)"/>
<path d="M57.0984 85.515L61.4883 84.735V88.425L51.3486 90.27L52.8119 89.145V85.485L57.0984 84.72V85.515Z" fill="url(#paint26_linear_128_2)"/>
<path d="M71.5244 82.4099V86.6399L62.7002 88.2149V83.7149L67.0458 82.9349V83.2049L71.5244 82.4099Z" fill="url(#paint27_linear_128_2)"/>
<path d="M22.8065 87.2401V90.3751L18.4609 91.1551V87.6301L22.2301 86.9551L22.8065 87.2401Z" fill="url(#paint28_linear_128_2)"/>
<path d="M38.6517 84.0149L38.9917 87.4799L28.5859 89.3399L28.9259 85.7549L32.9463 85.0349L32.902 85.5899L30.5666 86.9849L32.8281 86.5949L34.7791 86.2499L34.6461 84.7349L38.6517 84.0149Z" fill="url(#paint29_linear_128_2)"/>
<path d="M44.8161 85.65C44.7991 85.9047 44.7991 86.1603 44.8161 86.415L40.6035 87.18C40.6035 86.73 40.6035 86.235 40.6035 85.68V83.67L44.8309 82.905L44.8161 85.65Z" fill="url(#paint30_linear_128_2)"/>
<path d="M47.0621 82.5L51.1268 81.78V85.305L47.0029 86.04C47.0198 85.7653 47.0198 85.4898 47.0029 85.215L47.0621 82.5Z" fill="url(#paint31_linear_128_2)"/>
<path d="M52.8125 81.48L57.099 80.7V84.225L52.8125 84.99V81.48Z" fill="url(#paint32_linear_128_2)"/>
<path d="M67.0458 79.3199V82.4549L62.7002 83.2199V79.6949L66.4546 79.0349L67.0458 79.3199Z" fill="url(#paint33_linear_128_2)"/>
<path d="M26.8417 85.4399L21.1511 86.4449L21.5502 86.6249L18.4609 87.1799V85.2749L26.8417 83.7749V85.4399Z" fill="url(#paint34_linear_128_2)"/>
<path d="M29.1482 83.3699L33.1243 82.6499L32.9765 84.5849L28.9561 85.3049L29.1482 83.3699Z" fill="url(#paint35_linear_128_2)"/>
<path d="M38.4302 81.7051L38.6075 83.5801L34.6019 84.2851L34.4541 82.4101L38.4302 81.7051Z" fill="url(#paint36_linear_128_2)"/>
<path d="M40.5889 81.3149L44.8162 80.5649V82.4549L40.5889 83.2199V81.3149Z" fill="url(#paint37_linear_128_2)"/>
<path d="M45.9092 80.3701L51.1268 79.425V81.33L45.9092 82.26V80.3701Z" fill="url(#paint38_linear_128_2)"/>
<path d="M52.8125 79.1251L57.099 78.3601V80.2651L52.8125 81.0301V79.1251Z" fill="url(#paint39_linear_128_2)"/>
<path d="M71.081 77.52L65.4051 78.525L65.7746 78.705L62.7002 79.26V77.355L71.081 75.855V77.52Z" fill="url(#paint40_linear_128_2)"/>
<path d="M26.8417 82.6201V83.3551L18.4609 84.8551V84.1051L26.8417 82.6201Z" fill="url(#paint41_linear_128_2)"/>
<path d="M29.2516 82.1701L33.2129 81.4651L33.1538 82.2301L29.1777 82.9351L29.2516 82.1701Z" fill="url(#paint42_linear_128_2)"/>
<path d="M38.3267 80.55L38.4006 81.285L34.4097 82.005L34.3506 81.27L38.3267 80.55Z" fill="url(#paint43_linear_128_2)"/>
<path d="M40.5889 80.145L44.8162 79.395V80.13L40.5889 80.895V80.145Z" fill="url(#paint44_linear_128_2)"/>
<path d="M45.9092 79.1999L51.1268 78.2549V79.0049L45.9092 79.9349V79.1999Z" fill="url(#paint45_linear_128_2)"/>
<path d="M52.8125 77.9549L57.099 77.1899V77.9399L52.8125 78.7049V77.9549Z" fill="url(#paint46_linear_128_2)"/>
<path d="M71.081 74.6851V75.4351L62.7002 76.9351V76.1851L71.081 74.6851Z" fill="url(#paint47_linear_128_2)"/>
<path d="M25.6452 74.565V75.945L20.8858 76.8L19.8215 76.995V75.615L25.6452 74.565ZM19.8215 79.305L20.8562 79.53L21.4474 79.65V83.73L23.0438 83.445L25.4678 83.01V84.27L20.9301 85.08L19.8215 85.26V79.26M19.8215 87.285L20.5754 87.645L21.4474 88.065V92.73L23.0438 92.445L26 91.935V93.345L19.8215 94.5V87.33M27.0051 72.915L15.3281 75L18.4617 76.095V96.135L27.3302 94.545V90.33L22.896 91.125V87.225L21.2405 86.445L26.8425 85.5V81.36L22.8073 82.08V78.51L21.1223 78.165L27.0346 77.1V72.915H27.0051Z" fill="white"/>
<path d="M69.8837 66.6451V68.0251L65.1391 68.8801L64.0748 69.0751V67.6951L69.8837 66.6451M64.0748 71.4001L65.0947 71.6101L65.6859 71.7301V75.8101L67.2971 75.5251L69.7211 75.0901V76.3501L65.1686 77.1601L64.0748 77.3551V71.3551M64.0748 79.3801L64.8139 79.7251L65.6859 80.1451V84.8101L67.2971 84.5251L70.1646 84.0001V85.5001L64.0748 86.5951V79.5001M71.2584 65.0701L62.7002 66.5701V88.2151L71.5688 86.6401V82.4101L67.1345 83.2051V79.3201L65.479 78.5251L71.1549 77.5201V73.5001L67.1345 74.2201V70.5901L65.4494 70.2451L71.3618 69.1801V64.9951L71.2584 65.0701Z" fill="white"/>
<path d="M36.2134 72.6749L37.9575 90.2699L36.6863 90.5249L36.4794 89.5199L36.3464 88.0199L34.8683 88.2899L32.2964 88.7399L31.247 88.9349L31.1731 89.9999L30.9809 92.4749L29.6506 92.7149L30.0349 88.4999L30.8035 88.3649L33.0798 87.9749L35.0013 87.6149L36.2429 87.3899L36.1247 86.1299L35.1935 75.2699L35.0604 73.7699L33.5824 74.0549H33.3902L32.3555 74.2499L32.2669 75.3149L31.5869 84.7649L30.301 85.5299L31.4243 73.5299L36.1986 72.6749M37.4106 71.0549L30.168 72.3449L28.0986 94.4099L32.2521 93.6599L32.5181 90.1199L35.09 89.6549L35.3117 92.1749L38.0758 91.6349L35.4004 93.1349L39.4356 92.3699L37.4254 71.0549H37.4106ZM30.567 86.9999L32.9024 85.6049L33.6415 75.4349H33.8336L34.7648 86.2949L32.8285 86.6399L30.567 86.9999Z" fill="white"/>
<path d="M47.2838 70.5899C47.6914 70.5701 48.0975 70.6525 48.4663 70.8299C48.7184 71.0006 48.9336 71.2217 49.0988 71.4795C49.2639 71.7374 49.3756 72.0268 49.427 72.3299C49.6353 73.139 49.7543 73.9691 49.7818 74.8049L48.3037 75.0599V74.7749C48.3177 74.1941 48.2119 73.6168 47.9933 73.0799C47.8422 72.7202 47.5881 72.4148 47.2639 72.2035C46.9397 71.9922 46.5604 71.8847 46.1752 71.8949H45.717C45.3003 71.9818 44.9123 72.1747 44.5891 72.4554C44.2659 72.7361 44.0183 73.0955 43.8694 73.4999C43.6335 74.0381 43.5126 74.6209 43.5146 75.2099V85.7099C43.5096 86.3574 43.6301 86.9996 43.8694 87.5999C44.0324 87.9728 44.3004 88.2884 44.6396 88.5073C44.9789 88.7261 45.3742 88.8383 45.7761 88.8299H46.2343C46.7912 88.7496 47.3087 88.4923 47.7124 88.0949L47.5942 88.3049C47.3624 88.8151 47.0082 89.2582 46.5641 89.5936C46.1199 89.929 45.6 90.1461 45.0519 90.2249C44.8179 90.2706 44.5806 90.2957 44.3424 90.2999C43.7216 90.2999 42.0809 90.2999 42.0809 85.7999V76.3649C42.0809 72.9599 43.3521 71.2199 46.19 70.7099C46.5902 70.637 46.9955 70.5969 47.402 70.5899M49.7818 79.3049V87.9299L48.8062 85.6499L48.2741 86.6999C48.3944 86.2096 48.4491 85.705 48.4367 85.1999V80.4749L47.2986 80.6849V79.7549L49.7818 79.3049M47.2986 69.2099C46.803 69.2129 46.3086 69.2581 45.8205 69.3449C42.3322 69.9749 40.5732 72.3449 40.5732 76.3649V85.7099C40.5732 89.6599 41.7853 91.6599 44.2093 91.7099C44.5267 91.7083 44.8432 91.6782 45.1553 91.6199C45.9119 91.5058 46.6289 91.2037 47.2426 90.7405C47.8564 90.2773 48.3478 89.6673 48.6732 88.9649L49.4122 90.6599L51.1268 90.3599V77.6549L45.8944 78.5849V82.3349L47.0473 82.1249V85.2149C47.058 85.7253 46.9779 86.2334 46.8108 86.7149C46.7402 86.906 46.6183 87.0733 46.459 87.1979C46.2997 87.3224 46.1093 87.3993 45.9092 87.4199H45.6874C45.5511 87.4285 45.4156 87.3923 45.3012 87.3166C45.1867 87.241 45.0993 87.1299 45.0519 86.9999C44.8739 86.5632 44.7931 86.0919 44.8154 85.6199V75.1199C44.8181 74.7228 44.8985 74.3302 45.0519 73.9649C45.1467 73.7762 45.2874 73.6151 45.4607 73.497C45.634 73.3789 45.8342 73.3076 46.0422 73.2899H46.2491C46.369 73.277 46.4897 73.3036 46.5935 73.3657C46.6973 73.4279 46.7787 73.5222 46.8256 73.6349C46.9551 74.0001 47.0152 74.3869 47.0029 74.7749V76.1249L45.3475 76.9949L51.2598 75.9599C51.2904 74.6008 51.1413 73.2437 50.8164 71.9249C50.7205 71.4533 50.5307 71.0065 50.2588 70.6119C49.9868 70.2173 49.6384 69.8831 49.2349 69.6299C48.6557 69.3269 48.0087 69.1822 47.3577 69.2099H47.2986Z" fill="white"/>
<path d="M55.6945 69.18V87.18L57.3057 86.88L60.1288 86.385V87.27L54.2164 88.335V69.465L55.6945 69.18M57.1726 67.5L52.9009 68.265V89.115L51.4229 90.24L61.4887 88.5V84.735L57.1726 85.5V67.5Z" fill="white"/>
</g>
<defs>
<linearGradient id="paint0_linear_128_2" x1="72.8847" y1="103.98" x2="-2.85389" y2="55.513" gradientUnits="userSpaceOnUse">
<stop stop-color="#326FFF"/>
<stop offset="1" stop-color="#32FFFF"/>
</linearGradient>
<linearGradient id="paint1_linear_128_2" x1="11.8252" y1="49.185" x2="19.2896" y2="49.185" gradientUnits="userSpaceOnUse">
<stop stop-color="#B3B3CE"/>
<stop offset="1" stop-color="#EDEDEA"/>
</linearGradient>
<linearGradient id="paint2_linear_128_2" x1="12.4155" y1="57.3" x2="38.2685" y2="88.0513" gradientUnits="userSpaceOnUse">
<stop stop-color="#B3B3CE"/>
<stop offset="1" stop-color="#EDEDEA"/>
</linearGradient>
<linearGradient id="paint3_linear_128_2" x1="27.1374" y1="68.625" x2="48.1116" y2="68.625" gradientUnits="userSpaceOnUse">
<stop stop-color="#B3B3CE"/>
<stop offset="1" stop-color="#EDEDEA"/>
</linearGradient>
<linearGradient id="paint4_linear_128_2" x1="48.5261" y1="59.6999" x2="21.2144" y2="40.7433" gradientUnits="userSpaceOnUse">
<stop stop-color="#B3B3CE"/>
<stop offset="1" stop-color="#EDEDEA"/>
</linearGradient>
<linearGradient id="paint5_linear_128_2" x1="48.5261" y1="59.6999" x2="21.2144" y2="40.7433" gradientUnits="userSpaceOnUse">
<stop stop-color="#B3B3CE"/>
<stop offset="1" stop-color="#EDEDEA"/>
</linearGradient>
<linearGradient id="paint6_linear_128_2" x1="32.0745" y1="38.64" x2="35.3411" y2="38.64" gradientUnits="userSpaceOnUse">
<stop stop-color="#326FFF"/>
<stop offset="1" stop-color="#32FFFF"/>
</linearGradient>
<linearGradient id="paint7_linear_128_2" x1="29.148" y1="39.975" x2="37.8392" y2="39.975" gradientUnits="userSpaceOnUse">
<stop stop-color="#B3B3CE"/>
<stop offset="1" stop-color="#EDEDEA"/>
</linearGradient>
<linearGradient id="paint8_linear_128_2" x1="28.749" y1="39.27" x2="36.7455" y2="39.27" gradientUnits="userSpaceOnUse">
<stop stop-color="#00002E"/>
<stop offset="1" stop-color="#251066"/>
</linearGradient>
<linearGradient id="paint9_linear_128_2" x1="22.9104" y1="32.5351" x2="77.6464" y2="84.9501" gradientUnits="userSpaceOnUse">
<stop stop-color="#1D5BFF"/>
<stop offset="1" stop-color="#251066"/>
</linearGradient>
<linearGradient id="paint10_linear_128_2" x1="72.9877" y1="55.6501" x2="29.2043" y2="116.497" gradientUnits="userSpaceOnUse">
<stop stop-color="#B3B3CE"/>
<stop offset="1" stop-color="#EDEDEA"/>
</linearGradient>
<linearGradient id="paint11_linear_128_2" x1="28.0391" y1="52.9349" x2="19.0259" y2="45.9239" gradientUnits="userSpaceOnUse">
<stop stop-color="#00002E"/>
<stop offset="1" stop-color="#251066"/>
</linearGradient>
<linearGradient id="paint12_linear_128_2" x1="53.8323" y1="10.9499" x2="69.0407" y2="49.5138" gradientUnits="userSpaceOnUse">
<stop stop-color="#B3B3CE"/>
<stop offset="1" stop-color="#EDEDEA"/>
</linearGradient>
<linearGradient id="paint13_linear_128_2" x1="61.6806" y1="48.225" x2="58.1213" y2="69.6132" gradientUnits="userSpaceOnUse">
<stop stop-color="#B3B3CE"/>
<stop offset="1" stop-color="#EDEDEA"/>
</linearGradient>
<linearGradient id="paint14_linear_128_2" x1="15.3127" y1="51.285" x2="81.2947" y2="51.285" gradientUnits="userSpaceOnUse">
<stop stop-color="#1D5BFF"/>
<stop offset="1" stop-color="#251066"/>
</linearGradient>
<linearGradient id="paint15_linear_128_2" x1="43.4413" y1="11.5502" x2="97.5926" y2="63.4038" gradientUnits="userSpaceOnUse">
<stop stop-color="#1D5BFF"/>
<stop offset="1" stop-color="#251066"/>
</linearGradient>
<linearGradient id="paint16_linear_128_2" x1="18.6834" y1="45.8099" x2="26.8164" y2="46.7862" gradientUnits="userSpaceOnUse">
<stop stop-color="#1D5BFF"/>
<stop offset="1" stop-color="#251066"/>
</linearGradient>
<linearGradient id="paint17_linear_128_2" x1="12.1945" y1="77.685" x2="87.1633" y2="77.685" gradientUnits="userSpaceOnUse">
<stop stop-color="#1D5BFF"/>
<stop offset="1" stop-color="#251066"/>
</linearGradient>
<linearGradient id="paint18_linear_128_2" x1="12.1945" y1="83.805" x2="87.1634" y2="83.805" gradientUnits="userSpaceOnUse">
<stop stop-color="#1D5BFF"/>
<stop offset="1" stop-color="#251066"/>
</linearGradient>
<linearGradient id="paint19_linear_128_2" x1="29.5469" y1="79.335" x2="37.632" y2="79.335" gradientUnits="userSpaceOnUse">
<stop stop-color="#B3B3CE"/>
<stop offset="1" stop-color="#EDEDEA"/>
</linearGradient>
<linearGradient id="paint20_linear_128_2" x1="48.7472" y1="36.315" x2="41.0938" y2="32.7126" gradientUnits="userSpaceOnUse">
<stop stop-color="#B3B3CE"/>
<stop offset="1" stop-color="#EDEDEA"/>
</linearGradient>
<linearGradient id="paint21_linear_128_2" x1="54.5121" y1="50.1001" x2="47.4272" y2="83.9138" gradientUnits="userSpaceOnUse">
<stop stop-color="#B3B3CE"/>
<stop offset="1" stop-color="#EDEDEA"/>
</linearGradient>
<linearGradient id="paint22_linear_128_2" x1="7.67116" y1="80.565" x2="73.4758" y2="80.565" gradientUnits="userSpaceOnUse">
<stop stop-color="#1D5BFF"/>
<stop offset="1" stop-color="#251066"/>
</linearGradient>
<linearGradient id="paint23_linear_128_2" x1="71.3471" y1="95.2201" x2="17.4089" y2="93.0643" gradientUnits="userSpaceOnUse">
<stop stop-color="#B3B3CE"/>
<stop offset="1" stop-color="#EDEDEA"/>
</linearGradient>
<linearGradient id="paint24_linear_128_2" x1="71.4362" y1="92.73" x2="17.5128" y2="90.5888" gradientUnits="userSpaceOnUse">
<stop stop-color="#B3B3CE"/>
<stop offset="1" stop-color="#EDEDEA"/>
</linearGradient>
<linearGradient id="paint25_linear_128_2" x1="71.5693" y1="89.6999" x2="17.646" y2="87.5442" gradientUnits="userSpaceOnUse">
<stop stop-color="#B3B3CE"/>
<stop offset="1" stop-color="#EDEDEA"/>
</linearGradient>
<linearGradient id="paint26_linear_128_2" x1="71.6281" y1="88.125" x2="17.6899" y2="85.9692" gradientUnits="userSpaceOnUse">
<stop stop-color="#B3B3CE"/>
<stop offset="1" stop-color="#EDEDEA"/>
</linearGradient>
<linearGradient id="paint27_linear_128_2" x1="71.7313" y1="85.4999" x2="17.8079" y2="83.3442" gradientUnits="userSpaceOnUse">
<stop stop-color="#B3B3CE"/>
<stop offset="1" stop-color="#EDEDEA"/>
</linearGradient>
<linearGradient id="paint28_linear_128_2" x1="71.5097" y1="91.1551" x2="17.5715" y2="88.9993" gradientUnits="userSpaceOnUse">
<stop stop-color="#B3B3CE"/>
<stop offset="1" stop-color="#EDEDEA"/>
</linearGradient>
<linearGradient id="paint29_linear_128_2" x1="71.628" y1="88.2299" x2="17.6899" y2="86.0887" gradientUnits="userSpaceOnUse">
<stop stop-color="#B3B3CE"/>
<stop offset="1" stop-color="#EDEDEA"/>
</linearGradient>
<linearGradient id="paint30_linear_128_2" x1="71.7026" y1="86.235" x2="17.7792" y2="84.0793" gradientUnits="userSpaceOnUse">
<stop stop-color="#B3B3CE"/>
<stop offset="1" stop-color="#EDEDEA"/>
</linearGradient>
<linearGradient id="paint31_linear_128_2" x1="71.761" y1="84.84" x2="17.8376" y2="82.6843" gradientUnits="userSpaceOnUse">
<stop stop-color="#B3B3CE"/>
<stop offset="1" stop-color="#EDEDEA"/>
</linearGradient>
<linearGradient id="paint32_linear_128_2" x1="71.806" y1="83.55" x2="17.8826" y2="81.3942" gradientUnits="userSpaceOnUse">
<stop stop-color="#B3B3CE"/>
<stop offset="1" stop-color="#EDEDEA"/>
</linearGradient>
<linearGradient id="paint33_linear_128_2" x1="71.8939" y1="81.4349" x2="17.9705" y2="79.2792" gradientUnits="userSpaceOnUse">
<stop stop-color="#B3B3CE"/>
<stop offset="1" stop-color="#EDEDEA"/>
</linearGradient>
<linearGradient id="paint34_linear_128_2" x1="71.6575" y1="87.4949" x2="17.7193" y2="85.3392" gradientUnits="userSpaceOnUse">
<stop stop-color="#B3B3CE"/>
<stop offset="1" stop-color="#EDEDEA"/>
</linearGradient>
<linearGradient id="paint35_linear_128_2" x1="71.7173" y1="85.6499" x2="17.7939" y2="83.4942" gradientUnits="userSpaceOnUse">
<stop stop-color="#B3B3CE"/>
<stop offset="1" stop-color="#EDEDEA"/>
</linearGradient>
<linearGradient id="paint36_linear_128_2" x1="71.776" y1="84.4351" x2="17.8378" y2="82.2939" gradientUnits="userSpaceOnUse">
<stop stop-color="#B3B3CE"/>
<stop offset="1" stop-color="#EDEDEA"/>
</linearGradient>
<linearGradient id="paint37_linear_128_2" x1="71.821" y1="83.0849" x2="17.8976" y2="80.9292" gradientUnits="userSpaceOnUse">
<stop stop-color="#B3B3CE"/>
<stop offset="1" stop-color="#EDEDEA"/>
</linearGradient>
<linearGradient id="paint38_linear_128_2" x1="71.8793" y1="81.81" x2="17.9559" y2="79.6543" gradientUnits="userSpaceOnUse">
<stop stop-color="#B3B3CE"/>
<stop offset="1" stop-color="#EDEDEA"/>
</linearGradient>
<linearGradient id="paint39_linear_128_2" x1="71.939" y1="80.3851" x2="18.0009" y2="78.2439" gradientUnits="userSpaceOnUse">
<stop stop-color="#B3B3CE"/>
<stop offset="1" stop-color="#EDEDEA"/>
</linearGradient>
<linearGradient id="paint40_linear_128_2" x1="72.0417" y1="77.76" x2="18.1036" y2="75.6188" gradientUnits="userSpaceOnUse">
<stop stop-color="#B3B3CE"/>
<stop offset="1" stop-color="#EDEDEA"/>
</linearGradient>
<linearGradient id="paint41_linear_128_2" x1="71.7166" y1="85.7551" x2="17.7932" y2="83.5994" gradientUnits="userSpaceOnUse">
<stop stop-color="#B3B3CE"/>
<stop offset="1" stop-color="#EDEDEA"/>
</linearGradient>
<linearGradient id="paint42_linear_128_2" x1="71.7911" y1="83.8651" x2="17.8678" y2="81.7239" gradientUnits="userSpaceOnUse">
<stop stop-color="#B3B3CE"/>
<stop offset="1" stop-color="#EDEDEA"/>
</linearGradient>
<linearGradient id="paint43_linear_128_2" x1="71.835" y1="82.74" x2="17.9116" y2="80.5843" gradientUnits="userSpaceOnUse">
<stop stop-color="#B3B3CE"/>
<stop offset="1" stop-color="#EDEDEA"/>
</linearGradient>
<linearGradient id="paint44_linear_128_2" x1="71.8949" y1="81.345" x2="17.9715" y2="79.1893" gradientUnits="userSpaceOnUse">
<stop stop-color="#B3B3CE"/>
<stop offset="1" stop-color="#EDEDEA"/>
</linearGradient>
<linearGradient id="paint45_linear_128_2" x1="71.9532" y1="80.0549" x2="18.015" y2="77.9137" gradientUnits="userSpaceOnUse">
<stop stop-color="#B3B3CE"/>
<stop offset="1" stop-color="#EDEDEA"/>
</linearGradient>
<linearGradient id="paint46_linear_128_2" x1="71.9981" y1="78.6449" x2="18.0748" y2="76.5038" gradientUnits="userSpaceOnUse">
<stop stop-color="#B3B3CE"/>
<stop offset="1" stop-color="#EDEDEA"/>
</linearGradient>
<linearGradient id="paint47_linear_128_2" x1="72.1009" y1="76.0201" x2="18.1775" y2="73.8789" gradientUnits="userSpaceOnUse">
<stop stop-color="#B3B3CE"/>
<stop offset="1" stop-color="#EDEDEA"/>
</linearGradient>
<clipPath id="clip0_128_2">
<rect width="84" height="120" fill="white"/>
</clipPath>
</defs>
</svg>
