<svg width="105" height="120" viewBox="0 0 105 120" fill="none" xmlns="http://www.w3.org/2000/svg">
<g clip-path="url(#clip0_128_202)">
<path d="M28.6018 9.18H28.4693L27.645 9.42L26.8795 9.705L26.2024 10.02L25.6577 10.5L25.0395 10.905C24.8396 11.038 24.6479 11.1833 24.4654 11.34L23.906 11.835L23.4202 12.315C23.2583 12.48 23.1111 12.645 22.9639 12.825C22.8167 13.005 22.6695 13.17 22.537 13.35C21.8507 14.2985 21.2403 15.3018 20.7117 16.35C20.2701 17.19 19.9021 18.045 19.5046 18.96L18.9747 20.175C18.8717 20.4 18.7833 20.64 18.695 20.865L18.3417 21.825C18.2681 22.02 18.2092 22.23 18.1356 22.425L17.8707 23.1L17.5027 24.15L17.2819 24.405H17.1788L16.222 24.99L15.4124 25.485C14.6175 25.95 13.8373 26.43 13.0866 26.895C12.3358 27.36 11.5262 27.885 10.7608 28.395C10.643 28.47 10.4664 28.575 10.2897 28.71L9.46538 29.25L7.83142 30.36C7.28677 30.735 6.7274 31.14 6.15331 31.59L5.77058 31.875L4.03358 33.165L3.63613 33.45C3.34173 33.645 3.16508 33.795 2.98844 33.93C2.87997 34.0209 2.76696 34.106 2.64987 34.185L2.10522 34.5L1.76665 34.77C1.35448 35.1 0.942313 35.43 0.574305 35.685L-0.0439453 36.105V36.855C0.107205 38.2664 0.333246 39.6685 0.633188 41.055V41.055C0.809832 42.03 0.957035 42.915 1.01592 43.275C1.0748 43.635 1.222 44.58 1.41337 45.495C1.60473 46.41 1.88442 47.655 2.1641 48.825C2.44379 49.995 2.78235 51.345 3.09148 52.47C3.40061 53.595 3.63613 54.435 3.84222 55.065L6.52131 63.105C6.52131 63.3 6.66852 63.48 6.75684 63.66C6.85151 63.8805 6.93503 64.1058 7.00709 64.335C7.12485 64.665 7.24261 64.95 7.36037 65.235L7.53701 65.655C7.71366 66.105 8.05223 66.9 8.44968 67.845C8.84713 68.79 9.25929 69.69 9.65674 70.59C10.0542 71.49 10.3044 72.09 10.5988 72.63C10.8932 73.17 11.0552 73.575 11.2024 73.815L11.4821 74.37L11.6587 74.715L11.8795 75.165V75.33C11.8795 75.435 11.8795 75.33 11.9825 75.51C12.4536 76.365 12.9099 77.265 13.3663 78.135H7.18373L7.58118 79.875C7.72629 80.3579 7.95567 80.8101 8.25831 81.21V81.21L10.1131 84.03C10.3044 84.03 10.3928 84.225 10.3928 84.51C10.3928 87.63 10.3928 90.735 10.3928 93.825C10.3928 95.67 10.3928 97.515 10.3928 100.2V107.475L10.2308 107.625L9.61258 108.135L9.46538 108.6L8.42024 109.32L9.00904 110.445C9.38302 111.12 9.81138 111.762 10.2897 112.365L10.4664 112.605L10.5988 112.8L10.7166 112.98C10.7166 112.98 10.7166 113.115 10.8196 113.145C10.8735 113.211 10.9227 113.282 10.9668 113.355C11.1017 113.569 11.2492 113.774 11.4085 113.97C11.5468 114.157 11.7047 114.328 11.8795 114.48L12.5714 114.99L14.8089 114L19.7696 111.465C21.3741 110.64 23.0669 109.875 24.7745 109.11C26.2465 108.435 27.7186 107.805 29.3084 107.16L29.4997 107.085C30.7657 106.575 32.0758 106.02 33.3712 105.585L33.6361 105.495C34.2985 106.14 34.9757 106.785 35.6087 107.445L35.8295 107.64L35.9914 107.775L36.0944 107.85C37.2426 109.02 38.9207 110.385 40.3044 111.525L40.8344 111.96L41.1729 112.23L42.2034 113.07L43.3221 114C43.6312 114.24 43.9698 114.48 44.3378 114.735L45.4418 115.515L46.0012 115.89L46.2367 116.055L46.4722 116.22L46.6783 116.355L47.0022 116.58L47.3407 116.79L47.6204 116.97L47.9443 117.18L52.3604 120L53.0522 119.625L53.9943 119.085L54.907 118.47C55.2456 118.23 55.5988 118.005 55.9521 117.795C56.747 117.27 58.1307 116.475 58.8962 115.905L59.5144 115.5L60.0444 115.125C60.4418 114.855 60.8982 114.54 61.3839 114.18L62.856 113.07L64.328 111.945C64.7696 111.585 65.1965 111.225 65.5792 110.88L65.9178 110.565L67.7578 108.96L68.1258 108.66L68.7882 108C68.9943 107.82 69.2151 107.625 69.4212 107.415C69.6273 107.205 69.8481 107.01 70.0542 106.8L70.6577 106.185H70.746L71.0257 105.885L72.7627 106.5L73.0424 106.605L73.4546 106.77C74.2789 107.085 75.1916 107.505 76.0601 107.91C76.2646 107.953 76.4626 108.024 76.6489 108.12L76.9286 108.24L77.1199 108.33L77.5174 108.51L77.8707 108.675L78.592 109.035L79.2986 109.365C79.9904 109.695 80.6823 110.025 81.33 110.385L84.1563 111.885C84.3771 112.005 84.5537 112.08 84.7156 112.185C84.9364 112.305 85.1425 112.425 85.3486 112.515L90.1916 115.5L90.854 114.195C90.854 114.09 91.0601 113.91 91.1926 113.73L91.2809 113.625C91.3051 113.577 91.3348 113.531 91.3692 113.49C91.4527 113.362 91.5463 113.242 91.6489 113.13L92.0758 112.56C92.5027 112.005 92.959 111.42 93.3859 110.76L94.1661 109.59L93.0032 108.795C92.9268 108.756 92.8649 108.693 92.8265 108.615L92.7088 108.51L92.2819 108L91.9727 107.745L91.7667 107.58L91.8991 107.4C91.8991 107.055 91.8991 106.65 91.8991 106.23C91.8296 105.276 91.8296 104.319 91.8991 103.365C91.8991 103.23 91.8991 102.675 91.8991 101.865C91.8991 101.055 91.8991 99.54 91.8991 98.01V92.01C91.8991 88.515 91.8991 85.41 91.8991 84.825C91.8955 84.6798 91.9257 84.5359 91.9875 84.405C92.0271 84.3069 92.0818 84.2157 92.1494 84.135C92.2966 83.895 92.4732 83.625 92.7088 83.19L92.8707 82.905C92.8707 82.905 93.0179 82.635 93.062 82.59C93.0844 82.5406 93.1142 82.4951 93.1504 82.455L93.3123 82.185C93.5184 81.855 93.7686 81.465 93.9747 81.06C94.1631 80.7454 94.3115 80.4077 94.4163 80.055L94.8432 78.27H91.5017L92.3408 76.77L92.5615 76.365C92.6444 76.238 92.7135 76.1022 92.7676 75.96V75.87L93.1798 76.08V75.975L92.9443 75.855C92.8412 75.855 92.7676 75.855 92.7824 75.765V75.615L92.8707 75.435V75.315V75.225L93.2534 74.445L93.4889 74.01C93.5293 73.938 93.5638 73.8628 93.592 73.785L93.7245 73.53V73.425C93.7515 73.3468 93.786 73.2714 93.8275 73.2L93.9747 72.87L94.1808 72.435L94.3427 72.105L94.6518 71.445C95.1376 70.455 95.6381 69.435 96.0208 68.445C96.2858 67.785 96.4919 67.29 96.7127 66.78C97.0218 66.075 97.3162 65.37 97.5812 64.65L98.0964 63.36L98.3908 62.565L98.5969 62.025L99.3623 59.85L99.539 59.4C99.7451 58.875 99.8923 58.38 100.039 57.9L100.201 57.345C100.201 57.15 100.334 56.955 100.422 56.73V56.625C100.717 55.995 101.202 53.97 101.453 53.16C101.556 52.71 101.659 52.335 101.747 52.02C101.835 51.705 101.88 51.525 101.953 51.225C102.336 49.83 102.704 48.45 102.969 47.04L103.366 45.12L103.469 44.58C103.469 44.46 103.469 44.325 103.572 44.1C103.675 43.875 103.572 43.74 103.661 43.575V43.275C103.661 43.2 103.661 43.455 103.793 42.54C104.088 40.845 104.588 38.04 104.588 37.155V36.405L103.955 35.985L103.778 35.835C103.554 35.7205 103.354 35.5625 103.19 35.37L102.866 35.115L102.689 34.98L95.329 29.64C95.2362 29.5871 95.1476 29.5269 95.064 29.46L94.8138 29.295L94.5488 29.115L93.8128 28.635C93.5478 28.44 93.3859 28.35 93.1945 28.23L89.1759 25.695L88.2485 25.125L87.483 24.135L86.4085 23.535L85.4075 23.01L79.9315 20.325L79.7107 20.085V19.95C79.4752 19.365 79.2249 18.735 78.9453 18.075C78.6914 17.4772 78.4014 16.8961 78.0768 16.335V16.335L77.856 15.96L77.6204 15.525C77.4585 15.24 77.3113 14.955 77.1347 14.67C76.9686 14.3799 76.7868 14.0994 76.59 13.83C76.3692 13.53 76.119 13.2 75.854 12.885C75.589 12.57 75.3093 12.24 75.0149 11.94C74.6939 11.62 74.3548 11.3195 73.9992 11.04C73.654 10.7656 73.2844 10.5245 72.8952 10.32H72.748C72.2794 10.0455 71.7924 9.80493 71.2907 9.6L71.0993 9.525V9.345C70.9384 8.95537 70.7308 8.58757 70.4811 8.25C70.2522 7.963 69.9846 7.71049 69.6862 7.5C69.3946 7.28179 69.0842 7.09101 68.7588 6.93C68.4055 6.78 68.0375 6.645 67.6106 6.495C66.999 6.28771 66.3744 6.12234 65.7411 6C65.1082 5.88 64.431 5.79 63.7833 5.7L63.1651 5.61C62.7971 5.61 62.694 5.445 62.6793 5.265C62.5795 5.1994 62.4763 5.13931 62.3702 5.085C62.2209 4.99016 62.0632 4.90981 61.8991 4.845C61.574 4.70571 61.2395 4.59041 60.8982 4.5L59.9119 4.23H59.7353L58.7195 3.99L57.5566 3.735L57.0562 3.63L56.5704 3.48H56.3054L56.2024 3.225C55.0984 0.675 52.9786 0.72 51.0355 0.765H50.4467C49.7696 0.765 49.063 0.765 48.3564 0.84H46.7372C46.5412 0.825848 46.3444 0.825848 46.1484 0.84H45.3388L45.0444 0.735C44.9316 0.642981 44.8137 0.557833 44.6911 0.48L44.2495 0.405C43.9179 0.266697 43.5723 0.166089 43.2191 0.105C42.8203 0.0352862 42.4165 0.00016033 42.012 0C39.4811 0.134681 36.9653 0.480843 34.4899 1.035L33.9894 1.125H33.7392C33.3312 1.14934 32.9406 1.30124 32.6204 1.56C32.4802 1.66079 32.3602 1.78809 32.2671 1.935C32.2029 2.06547 32.1487 2.20089 32.1052 2.34V2.34L31.9139 3L31.693 3.42C31.4722 3.825 31.2662 4.245 31.0601 4.65C30.854 5.055 30.6332 5.475 30.4418 5.895L29.853 7.125C29.6764 7.515 29.485 7.935 29.3084 8.37L29.2053 8.565L29.1023 8.775C29.0739 8.84789 29.0394 8.91815 28.9992 8.985L28.9109 9.195L28.6018 9.18ZM93.2829 75.87V75.78H93.0768L93.2829 75.87Z" fill="#00FFFF"/>
<path d="M49.0481 21.7801C43.4568 22.5344 37.9471 23.82 32.5908 25.6201C21.6978 28.9801 7.99316 39.6451 7.99316 39.6451C12.2915 67.5001 30.3828 97.0801 52.5074 111C74.5879 97.0801 92.7233 67.5001 96.9775 39.6451C96.9775 39.6451 83.3023 28.9801 72.424 25.6201C67.0625 23.8205 61.5479 22.5349 55.952 21.7801L52.5074 21.6001L49.0481 21.7801Z" fill="#FFDD01"/>
<path d="M19.7693 41.9999L16.8252 51.8399C18.6724 53.2979 20.6958 54.5078 22.8458 55.4399C23.1118 55.5361 23.3889 55.5966 23.6701 55.6199C25.8502 58.8618 28.9841 61.3146 32.6201 62.6249C33.9201 63.1821 35.3167 63.4677 36.7271 63.4649C35.9616 71.8799 33.6652 86.4149 33.6652 86.4149L68.0372 84.7499L66.6535 63.9899L72.1736 65.2349L71.1873 60.2399L82.3747 65.5199L80.9027 55.4999C82.1204 54.6721 83.126 53.5593 83.8354 52.2546C84.5448 50.9498 84.9373 49.4909 84.9802 47.9999C84.9295 43.7731 84.2851 39.5755 83.0666 35.5349L19.7693 41.9999Z" fill="#FF8401"/>
<path d="M100.643 34.6501C100.677 34.6432 100.712 34.6432 100.746 34.6501L103.675 36.9301L103.101 40.6051C101.917 48.1726 99.9433 55.5897 97.2132 62.7301C94.3147 70.2079 90.711 77.3815 86.4527 84.1501C82.3299 90.7863 77.5556 96.9781 72.2034 102.63C67.2765 107.859 61.7397 112.453 55.7166 116.31L52.5076 118.335L49.2839 116.31C43.2636 112.449 37.7273 107.855 32.7971 102.63C27.4453 96.9817 22.6755 90.7893 18.5626 84.1501C14.3646 77.3771 10.8248 70.2032 7.9934 62.7301C5.25683 55.5919 3.28274 48.1741 2.10527 40.6051L1.5459 36.9301L4.38692 34.7251H4.48996C6.21224 33.3901 7.9934 32.1151 9.78928 30.8851C13.6391 28.2088 17.6456 25.7743 21.7863 23.5951C24.7222 22.0324 27.7858 20.7326 30.9424 19.7101C35.2167 18.3718 39.555 17.2554 43.9404 16.3651C45.4124 16.0801 47.1053 15.7651 48.6509 15.6301H48.7539C49.9463 15.6301 51.1386 15.5251 52.331 15.4351H52.9345C54.1269 15.5251 55.3192 15.5701 56.5115 15.6301H56.6146C58.0866 15.7651 59.8236 16.0801 61.3398 16.3651C65.6897 17.2319 69.9936 18.3233 74.2348 19.6351C77.3961 20.6577 80.4645 21.9575 83.4056 23.5201C87.5416 25.6993 91.5431 28.1338 95.3879 30.8101C97.1396 32.0401 98.9355 33.3151 100.643 34.6501ZM52.5076 103.5C56.6207 100.512 60.4456 97.1314 63.9306 93.4051C68.488 88.501 72.5652 83.1557 76.1043 77.4451C79.7933 71.5515 82.9233 65.3133 85.4517 58.8151C87.5284 53.4993 89.144 48.0083 90.28 42.4051C88.0277 40.7851 85.7019 39.2551 83.3467 37.8001C79.3706 35.2246 75.1056 33.1447 70.643 31.6051C67.7971 30.7251 64.9267 29.9351 62.0317 29.2351C59.8928 28.6981 57.7253 28.2874 55.54 28.0051L52.5076 27.8401L49.4752 28.0051C47.2849 28.2861 45.1124 28.6968 42.9689 29.2351C40.0248 29.9251 37.1985 30.7351 34.3575 31.6051C29.8962 33.1479 25.6316 35.2276 21.6538 37.8001C19.2986 39.2601 16.9924 40.7951 14.7353 42.4051C15.8642 48.0101 17.4799 53.5017 19.5636 58.8151C22.098 65.3105 25.2277 71.5481 28.911 77.4451C32.45 83.1557 36.5272 88.501 41.0847 93.4051C44.5702 97.1309 48.395 100.511 52.5076 103.5V103.5Z" fill="#040440"/>
<path d="M49.2106 25.3199C46.8921 25.6164 44.592 26.0471 42.3215 26.6099C39.9957 27.1499 37.0811 27.9299 33.4894 29.0249C28.8391 30.6478 24.3924 32.8228 20.2411 35.5049C16.6199 37.7099 13.5433 39.8999 11.7622 41.2049C12.9236 47.5659 14.6935 53.7956 17.0468 59.8049C19.6611 66.4614 22.8896 72.85 26.6886 78.8849C30.3168 84.7496 34.5028 90.2361 39.1861 95.2649C43.1696 99.5933 47.613 103.457 52.4344 106.785C57.2757 103.454 61.7432 99.5906 65.7563 95.2649C70.4354 90.2324 74.6211 84.7464 78.2538 78.8849C82.0221 72.844 85.2256 66.456 87.822 59.8049C90.1799 53.796 91.9548 47.5663 93.1213 41.2049C91.3255 39.8999 88.2489 37.7099 84.6424 35.5049C80.4906 32.8237 76.0441 30.6487 71.3942 29.0249C67.8466 27.9299 64.9319 27.1499 62.562 26.6099C60.2912 26.0485 57.9912 25.6178 55.6729 25.3199L52.4344 25.1549L49.2106 25.3199ZM31.5463 22.2149C37.1353 20.3544 42.881 19.0237 48.7102 18.2399C49.9172 18.2399 51.1685 18.1349 52.3755 18.0449H52.5669C53.7739 18.1349 55.0252 18.1799 56.2322 18.2399C62.0617 19.022 67.8076 20.3527 73.3961 22.2149C84.8191 25.7249 98.877 36.6749 99.0684 36.8249L100.732 38.0999L100.408 40.1849C99.2341 47.5698 97.2898 54.8058 94.6081 61.7699C91.8181 69.0984 88.3324 76.1318 84.2008 82.7699C80.1834 89.2371 75.5272 95.2685 70.3049 100.77C65.5267 105.823 60.1635 110.266 54.3333 114L52.508 115.155L50.6827 114C44.8394 110.26 39.4702 105.802 34.6964 100.725C29.4651 95.2277 24.8036 89.1959 20.7857 82.7249C16.6599 76.0835 13.1745 69.0507 10.3785 61.7249C7.69674 54.7608 5.75245 47.5248 4.57866 40.1399L4.26953 38.0549L5.90349 36.7949C6.10957 36.6749 20.1675 25.7249 31.5463 22.2149Z" fill="#CCCCCC"/>
<path d="M49.0332 25.3499C46.7946 25.647 44.5735 26.0676 42.3796 26.6099C40.0538 27.1499 37.1392 27.9299 33.5474 29.0249C32.5612 29.3249 31.5602 29.6999 30.6034 30.1199L40.2893 19.8149C43.0798 19.1061 45.9119 18.58 48.7682 18.2399C49.9753 18.2399 51.2265 18.1349 52.4336 18.0449H52.625C53.6554 18.1199 54.73 18.1649 55.7751 18.2099L49.0332 25.3499ZM13.3953 48.3749C14.3788 52.1267 15.5731 55.8178 16.9724 59.4299L11.6878 65.0399C11.2314 63.9449 10.7898 62.8649 10.3777 61.7699C9.43557 59.2949 8.58179 56.7899 7.83105 54.2699L13.3953 48.3749ZM18.6505 63.5699C19.1657 64.7549 19.6956 65.9249 20.2403 67.0949L15.1029 72.5399C14.5435 71.3999 13.9989 70.2599 13.4689 69.1049L18.6505 63.5699ZM28.6014 81.8699C30.5445 84.7649 32.5906 87.5549 34.7545 90.1949L29.8968 95.3549C27.7182 92.7299 25.6574 89.9999 23.6701 87.1199L28.6014 81.8699ZM43.3217 99.3299C44.1853 100.14 45.0685 100.935 45.9714 101.715L41.1431 106.845C40.2452 106.065 39.362 105.345 38.4935 104.445L43.3217 99.3299ZM89.5141 55.3349C90.3875 52.8149 91.1431 50.2849 91.781 47.7449L100.731 38.2349L100.437 40.1849C100.216 41.6849 99.9508 43.1099 99.6564 44.5799L89.5141 55.3349ZM85.6574 36.0899L84.7153 35.5049C82.0509 33.8423 79.2935 32.3398 76.4572 31.0049L81.5945 25.6049C84.8036 27.2399 87.9243 29.1149 90.6328 30.8549L85.6574 36.0899ZM59.043 25.8449C57.1883 25.4849 56.099 25.3649 55.7457 25.3199H54.7005L60.5887 18.9749C61.7221 19.1999 63.0764 19.4849 64.6515 19.8599L59.043 25.8449ZM91.4277 69.4199L49.9017 113.52L50.6819 114L52.5072 115.155L54.3178 114L85.0244 81.3899C87.3599 77.523 89.4829 73.5268 91.3836 69.4199H91.4277Z" fill="#FEFEFE"/>
<path d="M39.4802 14.1151C39.4802 14.1151 37.2133 10.6801 31.1044 11.1151C24.9954 11.5501 22.7138 15.4501 19.1662 25.7701C15.6186 36.0901 14.3379 45.5251 16.2221 49.6801C18.1063 53.8351 23.6706 52.9501 27.6892 48.3751C30.7427 44.6538 33.5086 40.6969 35.9621 36.5401H62.65C65.1047 40.6866 67.8706 44.6334 70.9228 48.3451C74.9414 52.9201 80.4763 53.8051 82.3899 49.6501C84.3036 45.4951 83.0376 36.0601 79.4459 25.7401C75.8541 15.4201 73.5577 11.5051 67.5224 11.0851C61.4871 10.6651 59.1318 14.0851 59.1318 14.0851C51.8453 13.9351 46.8404 13.9651 39.4802 14.1151Z" fill="#2672B5"/>
<path d="M67.4933 13.8599C69.2402 13.8599 70.9478 14.3877 72.4002 15.3766C73.8527 16.3656 74.9847 17.7712 75.6532 19.4157C76.3217 21.0602 76.4966 22.8698 76.1558 24.6157C75.815 26.3615 74.9738 27.9652 73.7386 29.2238C72.5034 30.4825 70.9297 31.3397 69.2164 31.6869C67.5031 32.0342 65.7273 31.856 64.1134 31.1748C62.4995 30.4936 61.1201 29.34 60.1496 27.86C59.1791 26.38 58.6611 24.6399 58.6611 22.8599C58.6611 20.4729 59.5917 18.1837 61.248 16.4959C62.9044 14.8081 65.1509 13.8599 67.4933 13.8599V13.8599Z" fill="#0B528F"/>
<path d="M33.2238 13.875C35.0014 13.8839 36.7366 14.4294 38.2101 15.4425C39.6837 16.4556 40.8296 17.891 41.5031 19.5673C42.1767 21.2436 42.3476 23.0857 41.9944 24.861C41.6412 26.6363 40.7797 28.2651 39.5186 29.5417C38.2576 30.8184 36.6535 31.6856 34.9091 32.0339C33.1647 32.3822 31.3581 32.196 29.7174 31.4987C28.0768 30.8014 26.6757 29.6244 25.6912 28.1162C24.7066 26.6081 24.1827 24.8364 24.1856 23.025C24.1894 21.8195 24.4263 20.6266 24.8826 19.5143C25.3389 18.402 26.0057 17.3922 26.845 16.5426C27.6843 15.6929 28.6796 15.02 29.7741 14.5623C30.8685 14.1046 32.0408 13.8711 33.2238 13.875Z" fill="#0B528F"/>
<path d="M34.2254 11.22C33.1934 11.0566 32.1466 11.0114 31.1047 11.085C24.9811 11.505 22.7141 15.42 19.1665 25.74C16.2225 34.35 14.7504 42.33 15.5601 47.16H16.3255C17.4001 40.71 22.7583 8.05501 33.9899 13.35L34.2254 11.22ZM69.2598 11.325C68.6968 11.2042 68.1262 11.124 67.5522 11.085C66.964 11.0478 66.374 11.0478 65.7858 11.085L69.0537 12.105L69.2598 11.325Z" fill="#00FFFF"/>
<path d="M15.5303 46.9799C15.6424 47.9009 15.8854 48.8003 16.2516 49.6499C18.1652 53.8049 23.7001 52.9199 27.7187 48.3449C30.7608 44.6322 33.5168 40.6854 35.9621 36.5399H62.65C65.1047 40.6865 67.8706 44.6332 70.9228 48.3449C74.9415 52.9199 80.4763 53.8049 82.3899 49.6499C82.5303 49.3493 82.6484 49.0385 82.7432 48.7199L82.4783 48.3599C82.4783 48.3599 80.4469 50.8649 75.8983 48.5999C71.3497 46.3349 63.9307 32.7899 63.9307 32.7899L61.2663 32.1899H34.9316C34.9316 32.1899 26.4086 45.3899 22.7432 47.6399C21.7679 48.2932 20.6061 48.595 19.4429 48.4971C18.2797 48.3992 17.1821 47.9074 16.3252 47.0999L15.5303 46.9799Z" fill="#0B528F"/>
<path d="M38.9055 14.5649C38.9055 14.5649 36.8741 11.4899 31.2068 11.8799C29.967 11.8938 28.7469 12.1987 27.6415 12.7711C26.5361 13.3434 25.575 14.1677 24.8329 15.1799C23.1254 17.4149 21.6975 20.9249 19.9605 25.9949C18.3105 30.6184 17.1364 35.4041 16.4571 40.2749C15.986 44.2349 16.1332 47.4149 17.0164 49.2749C17.2385 49.7595 17.5481 50.1971 17.9291 50.5649C18.5872 51.1473 19.4274 51.4718 20.2991 51.4799C21.3775 51.495 22.4435 51.2428 23.405 50.7449C24.8534 50.0109 26.1443 48.9912 27.2029 47.7449C30.222 44.0703 32.9583 40.1637 35.3874 36.0599L35.6082 35.6699H63.091L63.3265 36.0599C65.7425 40.1687 68.4744 44.076 71.4963 47.7449C72.5549 48.9912 73.8458 50.0109 75.2942 50.7449C76.2603 51.2446 77.3315 51.4969 78.4149 51.4799C79.2816 51.4695 80.1165 51.1452 80.7701 50.5649C81.1558 50.1979 81.4704 49.7603 81.6975 49.2749C82.5807 47.3699 82.7132 44.1899 82.2421 40.2749C81.5609 35.406 80.3919 30.621 78.7534 25.9949C77.0017 20.9249 75.5738 17.4149 73.8663 15.1799C73.1242 14.1677 72.1631 13.3434 71.0577 12.7711C69.9523 12.1987 68.7322 11.8938 67.4924 11.8799C61.8251 11.4899 59.8084 14.5499 59.8084 14.5649L59.514 14.9099H59.0871C55.4217 14.8199 52.3452 14.7899 49.2834 14.7899C46.2215 14.7899 43.1155 14.7899 39.4355 14.9099H39.0233L38.9055 14.5649ZM31.1038 10.3049C36.4472 9.9449 39.0969 12.3899 39.936 13.3049C43.4541 13.2299 46.4423 13.1849 49.4306 13.1849C52.4188 13.1849 55.3187 13.1849 58.8957 13.3049C59.6906 12.3749 62.355 9.9299 67.7279 10.3049C69.1874 10.3223 70.6231 10.6834 71.9229 11.3599C73.2226 12.0365 74.3513 13.0102 75.2205 14.2049C77.0606 16.6199 78.5473 20.2049 80.3432 25.4849C82.0277 30.2149 83.2216 35.1116 83.9055 40.0949C84.4207 44.3249 84.2441 47.7899 83.2284 49.9799C82.9218 50.6637 82.4809 51.2763 81.933 51.7799C81.008 52.6098 79.8237 53.0776 78.5915 53.0999C77.2648 53.1196 75.9526 52.8162 74.7642 52.2149C73.131 51.4033 71.6743 50.2659 70.4806 48.8699C67.4794 45.248 64.7625 41.3911 62.355 37.3349H36.4178C34.0156 41.3946 31.2983 45.2519 28.2922 48.8699C27.0985 50.2659 25.6418 51.4033 24.0086 52.2149C22.8202 52.8162 21.508 53.1196 20.1813 53.0999C18.9427 53.0878 17.7504 52.6189 16.8251 51.7799C16.2681 51.2847 15.8257 50.67 15.5297 49.9799C14.514 47.7899 14.3226 44.3249 14.8378 40.0949C15.5393 35.117 16.7429 30.2261 18.4296 25.4999C20.2402 20.2499 21.7269 16.6349 23.5522 14.2199C24.42 13.0224 25.5479 12.0458 26.8478 11.3666C28.1477 10.6874 29.5842 10.324 31.0449 10.3049H31.1038Z" fill="#040440"/>
<path d="M39.7451 14.1151C41.7426 16.4115 43.18 19.1559 43.9404 22.1251H54.9659C55.7264 19.1559 57.1638 16.4115 59.1612 14.1151C51.9335 13.9351 47.0022 13.9501 39.7451 14.1151ZM60.1622 13.0801C59.8972 13.3051 59.6911 13.5001 59.5292 13.6651C59.4899 13.7113 59.4553 13.7616 59.4262 13.8151C59.6764 13.5001 59.9267 13.3051 60.1622 13.0801ZM59.3967 13.8151L59.1907 14.0701L59.4262 13.8151H59.3967Z" fill="#0B528F"/>
<path d="M41.364 14.8648C42.7752 16.8188 43.8458 19.0057 44.5288 21.3298H54.3767C55.0597 19.0057 56.1303 16.8188 57.5416 14.8648C54.5975 14.8648 52.0362 14.7748 49.4601 14.7748C46.8841 14.7748 44.308 14.8048 41.364 14.8648ZM43.1893 22.3648C42.4527 19.5262 41.0767 16.9018 39.1706 14.6998L38.0225 13.3498H39.73C43.3218 13.2448 46.413 13.1998 49.4601 13.1998C52.5072 13.1998 55.3483 13.1998 58.7928 13.3198L59.0578 13.0198L59.2933 12.7798L59.6466 12.4648L60.1471 13.0498H61.1628L60.6329 13.6198C60.5127 13.7272 60.3996 13.8424 60.2943 13.9648L59.9557 14.3098L59.676 14.5948C57.7654 16.7891 56.3976 19.4172 55.6868 22.2598L55.5396 22.8598H43.3218L43.1893 22.3648Z" fill="#040440"/>
<path d="M57.9398 40.1401C60.9641 40.1401 63.4158 37.662 63.4158 34.6051C63.4158 31.5482 60.9641 29.0701 57.9398 29.0701C54.9155 29.0701 52.4639 31.5482 52.4639 34.6051C52.4639 37.662 54.9155 40.1401 57.9398 40.1401Z" fill="#0B528F"/>
<path d="M57.9397 28.29C59.5929 28.2878 61.18 28.9509 62.3558 30.135C63.2329 31.0257 63.8309 32.1616 64.0741 33.3988C64.3172 34.6361 64.1946 35.919 63.7217 37.0852C63.2488 38.2513 62.447 39.2483 61.4177 39.9497C60.3884 40.6512 59.178 41.0256 57.9397 41.0256C56.7015 41.0256 55.491 40.6512 54.4618 39.9497C53.4325 39.2483 52.6306 38.2513 52.1577 37.0852C51.6849 35.919 51.5622 34.6361 51.8054 33.3988C52.0485 32.1616 52.6465 31.0257 53.5236 30.135C54.6995 28.9509 56.2866 28.2878 57.9397 28.29V28.29ZM61.2665 31.29C60.3816 30.396 59.1859 29.8944 57.9397 29.8944C56.6936 29.8944 55.4979 30.396 54.6129 31.29C54.179 31.7292 53.8346 32.2515 53.5996 32.8269C53.3646 33.4023 53.2436 34.0193 53.2436 34.6425C53.2436 35.2658 53.3646 35.8828 53.5996 36.4582C53.8346 37.0336 54.179 37.5559 54.6129 37.995C55.5034 38.8783 56.697 39.3726 57.9397 39.3726C59.1824 39.3726 60.3761 38.8783 61.2665 37.995C61.7005 37.5559 62.0449 37.0336 62.2799 36.4582C62.5149 35.8828 62.6359 35.2658 62.6359 34.6425C62.6359 34.0193 62.5149 33.4023 62.2799 32.8269C62.0449 32.2515 61.7005 31.7292 61.2665 31.29V31.29Z" fill="#040440"/>
<path d="M57.9395 37.26C59.3867 37.26 60.5598 36.0713 60.5598 34.605C60.5598 33.1386 59.3867 31.95 57.9395 31.95C56.4924 31.95 55.3193 33.1386 55.3193 34.605C55.3193 36.0713 56.4924 37.26 57.9395 37.26Z" fill="#2672B5"/>
<path d="M57.9393 31.155C58.6105 31.1529 59.2672 31.354 59.826 31.733C60.3847 32.1119 60.8203 32.6515 61.0775 33.2833C61.3346 33.9151 61.4017 34.6104 61.2702 35.2811C61.1386 35.9518 60.8144 36.5675 60.3387 37.05C59.6996 37.6931 58.8375 38.0537 57.9393 38.0537C57.0411 38.0537 56.1791 37.6931 55.5399 37.05C55.0714 36.5648 54.7535 35.9496 54.626 35.2813C54.4985 34.613 54.567 33.9213 54.8229 33.2925C55.0789 32.6636 55.5109 32.1256 56.0652 31.7454C56.6194 31.3653 57.2713 31.16 57.9393 31.155V31.155ZM59.2494 33.285C58.8981 32.9386 58.4283 32.745 57.9393 32.745C57.4504 32.745 56.9806 32.9386 56.6292 33.285C56.4574 33.4575 56.3207 33.6629 56.2273 33.8895C56.1338 34.1161 56.0853 34.3593 56.0846 34.605C56.0648 34.8593 56.0979 35.1149 56.1816 35.3553C56.2653 35.5957 56.3977 35.8154 56.5704 36C56.9181 36.3536 57.3892 36.5522 57.8805 36.5522C58.3717 36.5522 58.8428 36.3536 59.1906 36C59.3625 35.8284 59.4982 35.6228 59.5893 35.3958C59.6804 35.1688 59.7251 34.9253 59.7205 34.68C59.7404 34.427 59.7088 34.1725 59.6278 33.9325C59.5467 33.6924 59.4179 33.472 59.2494 33.285V33.285Z" fill="#040440"/>
<path d="M66.5211 29.8799C70.8949 29.8799 74.4406 26.2937 74.4406 21.8699C74.4406 17.4461 70.8949 13.8599 66.5211 13.8599C62.1473 13.8599 58.6016 17.4461 58.6016 21.8699C58.6016 26.2937 62.1473 29.8799 66.5211 29.8799Z" fill="#2672B5"/>
<path d="M66.5214 13.065C68.5265 13.072 70.4672 13.787 72.0131 15.0882C73.559 16.3893 74.6146 18.1963 75.0001 20.2013C75.3856 22.2064 75.0772 24.2856 74.1274 26.085C73.1776 27.8845 71.6451 29.2928 69.7908 30.0703C67.9366 30.8478 65.8752 30.9463 63.9577 30.3492C62.0401 29.7521 60.3849 28.4962 59.2739 26.7953C58.1629 25.0945 57.6648 23.0538 57.8643 21.0207C58.0639 18.9877 58.9487 17.088 60.3683 15.645C61.1767 14.8233 62.1364 14.1724 63.1923 13.7296C64.2482 13.2869 65.3796 13.061 66.5214 13.065V13.065ZM71.5705 16.77C70.2258 15.4161 68.4117 14.6569 66.5214 14.6569C64.6311 14.6569 62.8169 15.4161 61.4723 16.77C60.8065 17.4348 60.2775 18.2283 59.9164 19.104C59.5552 19.9797 59.3692 20.9201 59.3692 21.87C59.3692 22.8199 59.5552 23.7602 59.9164 24.636C60.2775 25.5117 60.8065 26.3052 61.4723 26.97C62.8169 28.3239 64.6311 29.0831 66.5214 29.0831C68.4117 29.0831 70.2258 28.3239 71.5705 26.97C72.2327 26.3031 72.7585 25.509 73.1174 24.6335C73.4762 23.7581 73.661 22.8187 73.661 21.87C73.661 20.9212 73.4762 19.9819 73.1174 19.1065C72.7585 18.231 72.2327 17.4369 71.5705 16.77V16.77Z" fill="#040440"/>
<path d="M66.4031 19.7549C67.4844 19.7549 68.3609 18.8684 68.3609 17.7749C68.3609 16.6814 67.4844 15.7949 66.4031 15.7949C65.3219 15.7949 64.4453 16.6814 64.4453 17.7749C64.4453 18.8684 65.3219 19.7549 66.4031 19.7549Z" fill="#F45B4D"/>
<path d="M66.4039 15C66.762 14.9985 67.1167 15.0693 67.4477 15.2083C67.7787 15.3473 68.0794 15.5518 68.3323 15.81C68.5866 16.064 68.788 16.3675 68.9246 16.7026C69.0611 17.0376 69.1301 17.3972 69.1272 17.76C69.1326 18.1263 69.0664 18.49 68.9325 18.83C68.7985 19.1699 68.5995 19.4793 68.347 19.74C67.8305 20.2513 67.1388 20.5374 66.4187 20.5374C65.6986 20.5374 65.0068 20.2513 64.4903 19.74C64.2369 19.4823 64.0362 19.1759 63.8998 18.8386C63.7633 18.5013 63.6939 18.1398 63.6954 17.775C63.6925 17.4122 63.7614 17.0526 63.898 16.7176C64.0346 16.3825 64.236 16.079 64.4903 15.825C64.7403 15.5659 65.038 15.3597 65.3664 15.2181C65.6948 15.0765 66.0474 15.0024 66.4039 15V15ZM67.243 16.92C67.0179 16.6982 66.7171 16.5743 66.4039 16.5743C66.0908 16.5743 65.79 16.6982 65.5649 16.92C65.3497 17.1449 65.2284 17.446 65.2263 17.76C65.2258 17.9158 65.2554 18.0702 65.3135 18.2144C65.3716 18.3585 65.457 18.4896 65.5649 18.6C65.79 18.8218 66.0908 18.9458 66.4039 18.9458C66.7171 18.9458 67.0179 18.8218 67.243 18.6C67.3509 18.4896 67.4363 18.3585 67.4944 18.2144C67.5525 18.0702 67.5821 17.9158 67.5816 17.76C67.5757 17.4512 67.4547 17.1562 67.243 16.935V16.92Z" fill="black"/>
<path d="M66.4031 27.6451C67.4844 27.6451 68.3609 26.7586 68.3609 25.6651C68.3609 24.5715 67.4844 23.6851 66.4031 23.6851C65.3219 23.6851 64.4453 24.5715 64.4453 25.6651C64.4453 26.7586 65.3219 27.6451 66.4031 27.6451Z" fill="#F89A28"/>
<path d="M66.404 22.905C67.1258 22.9084 67.8178 23.1991 68.3323 23.715C68.8402 24.2351 69.1253 24.9389 69.1253 25.6725C69.1253 26.4062 68.8402 27.11 68.3323 27.63C67.8195 28.1485 67.1264 28.4394 66.404 28.4394C65.6816 28.4394 64.9885 28.1485 64.4756 27.63C63.9677 27.11 63.6826 26.4062 63.6826 25.6725C63.6826 24.9389 63.9677 24.2351 64.4756 23.715C64.9901 23.1991 65.6821 22.9084 66.404 22.905V22.905ZM67.243 24.84C67.0179 24.6182 66.7171 24.4943 66.404 24.4943C66.0909 24.4943 65.79 24.6182 65.5649 24.84C65.3507 25.0594 65.2291 25.3555 65.2263 25.665C65.2291 25.9834 65.3501 26.2888 65.5649 26.52C65.7949 26.7319 66.0939 26.8492 66.404 26.8492C66.714 26.8492 67.013 26.7319 67.243 26.52C67.4578 26.2888 67.5788 25.9834 67.5816 25.665C67.5788 25.3555 67.4573 25.0594 67.243 24.84Z" fill="#040440"/>
<path d="M62.5319 23.7002C63.5969 23.7002 64.4602 22.8138 64.4602 21.7202C64.4602 20.6267 63.5969 19.7402 62.5319 19.7402C61.4669 19.7402 60.6035 20.6267 60.6035 21.7202C60.6035 22.8138 61.4669 23.7002 62.5319 23.7002Z" fill="#F89A28"/>
<path d="M59.8086 21.7199C59.8067 21.3549 59.8758 20.9931 60.012 20.6556C60.1481 20.318 60.3486 20.0113 60.6019 19.7532C60.8552 19.4951 61.1562 19.2908 61.4874 19.152C61.8187 19.0133 62.1737 18.9429 62.5319 18.9449C63.2499 18.9457 63.9382 19.2371 64.4455 19.7549C64.9543 20.2774 65.2398 20.9837 65.2398 21.7199C65.2398 22.456 64.9543 23.1623 64.4455 23.6849C64.1976 23.9467 63.9002 24.1547 63.5714 24.2965C63.2425 24.4383 62.889 24.5108 62.5319 24.5099C61.8083 24.5059 61.1157 24.2102 60.6054 23.6874C60.0951 23.1646 59.8086 22.4572 59.8086 21.7199V21.7199ZM61.7076 20.8799C61.5462 21.0476 61.4366 21.2599 61.3926 21.4904C61.3485 21.721 61.3717 21.9597 61.4595 22.1769C61.5473 22.3941 61.6957 22.5803 61.8863 22.7123C62.0769 22.8444 62.3014 22.9166 62.5319 22.9199C62.8417 22.9159 63.1374 22.7878 63.3551 22.5631C63.5728 22.3385 63.6948 22.0355 63.6948 21.7199C63.696 21.5626 63.6652 21.4068 63.6044 21.2622C63.5436 21.1177 63.4541 20.9875 63.3415 20.8799C63.2387 20.7656 63.1136 20.6745 62.9741 20.6125C62.8347 20.5505 62.684 20.5189 62.5319 20.5199C62.3776 20.5187 62.2246 20.5501 62.0828 20.612C61.9409 20.674 61.8132 20.7652 61.7076 20.8799V20.8799Z" fill="#040440"/>
<path d="M70.275 23.7002C71.34 23.7002 72.2034 22.8138 72.2034 21.7202C72.2034 20.6267 71.34 19.7402 70.275 19.7402C69.21 19.7402 68.3467 20.6267 68.3467 21.7202C68.3467 22.8138 69.21 23.7002 70.275 23.7002Z" fill="#F45B4D"/>
<path d="M67.5665 21.7199C67.5626 21.2609 67.6705 20.8081 67.8805 20.4021C68.0905 19.9961 68.3961 19.6494 68.7698 19.3933C69.1436 19.1371 69.5738 18.9794 70.0221 18.9343C70.4703 18.8892 70.9225 18.9581 71.3382 19.1348C71.7539 19.3116 72.1201 19.5906 72.404 19.9469C72.6878 20.3033 72.8806 20.7258 72.9648 21.1767C73.0491 21.6276 73.0223 22.0927 72.8869 22.5304C72.7514 22.9681 72.5115 23.3648 72.1887 23.6849C71.809 24.0711 71.3253 24.3338 70.799 24.4395C70.2726 24.5453 69.7273 24.4894 69.2321 24.2789C68.737 24.0684 68.3144 23.7128 68.0178 23.2572C67.7213 22.8016 67.5642 22.2666 67.5665 21.7199V21.7199ZM69.4654 20.8799C69.3546 20.9902 69.2665 21.1221 69.2064 21.2676C69.1463 21.4131 69.1153 21.5695 69.1153 21.7274C69.1153 21.8853 69.1463 22.0416 69.2064 22.1871C69.2665 22.3327 69.3546 22.4645 69.4654 22.5749C69.5711 22.6843 69.6971 22.7712 69.8361 22.8304C69.9752 22.8897 70.1244 22.9201 70.275 22.9199C70.5055 22.9166 70.73 22.8444 70.9206 22.7123C71.1113 22.5803 71.2597 22.3941 71.3474 22.1769C71.4352 21.9597 71.4585 21.721 71.4144 21.4905C71.3703 21.2599 71.2608 21.0476 71.0994 20.8799C70.9938 20.7652 70.866 20.674 70.7242 20.612C70.5823 20.5501 70.4294 20.5187 70.275 20.5199C70.1229 20.5189 69.9723 20.5505 69.8328 20.6125C69.6934 20.6745 69.5682 20.7656 69.4654 20.8799V20.8799Z" fill="#040440"/>
<path d="M32.0904 29.895C36.4643 29.895 40.01 26.3088 40.01 21.885C40.01 17.4612 36.4643 13.875 32.0904 13.875C27.7166 13.875 24.1709 17.4612 24.1709 21.885C24.1709 26.3088 27.7166 29.895 32.0904 29.895Z" fill="#0B528F"/>
<path d="M32.091 13.0801C34.3917 13.0776 36.5993 14.0055 38.2293 15.6601C39.0403 16.4726 39.6843 17.4414 40.124 18.5102C40.5636 19.579 40.79 20.7262 40.79 21.8851C40.79 23.0439 40.5636 24.1912 40.124 25.26C39.6843 26.3287 39.0403 27.2976 38.2293 28.1101C36.5945 29.7616 34.3857 30.6883 32.0836 30.6883C29.7816 30.6883 27.5727 29.7616 25.9379 28.1101C25.1305 27.2955 24.4896 26.326 24.0522 25.2575C23.6149 24.189 23.3896 23.0428 23.3896 21.8851C23.3896 20.7274 23.6149 19.5811 24.0522 18.5126C24.4896 17.4442 25.1305 16.4746 25.9379 15.6601C27.5742 14.006 29.7861 13.0786 32.091 13.0801V13.0801ZM37.14 16.7851C35.7954 15.4312 33.9813 14.6719 32.091 14.6719C30.2006 14.6719 28.3865 15.4312 27.0419 16.7851C26.376 17.4499 25.8471 18.2434 25.4859 19.1191C25.1248 19.9948 24.9388 20.9352 24.9388 21.8851C24.9388 22.835 25.1248 23.7753 25.4859 24.6511C25.8471 25.5268 26.376 26.3203 27.0419 26.9851C28.3865 28.339 30.2006 29.0982 32.091 29.0982C33.9813 29.0982 35.7954 28.339 37.14 26.9851C37.8023 26.3182 38.3281 25.524 38.6869 24.6486C39.0458 23.7731 39.2306 22.8338 39.2306 21.8851C39.2306 20.9363 39.0458 19.997 38.6869 19.1216C38.3281 18.2461 37.8023 17.4519 37.14 16.7851V16.7851Z" fill="#040440"/>
<path d="M31.6493 16.1548H33.0183C33.4439 16.1548 33.852 16.327 34.1529 16.6337C34.4538 16.9403 34.6228 17.3562 34.6228 17.7898V19.4998H36.2862C36.4962 19.4998 36.7042 19.5422 36.898 19.6245C37.0919 19.7069 37.2678 19.8275 37.4156 19.9796C37.5634 20.1316 37.6802 20.3119 37.7593 20.5102C37.8383 20.7085 37.878 20.9208 37.876 21.1348V22.4998C37.878 22.7138 37.8383 22.9261 37.7593 23.1243C37.6802 23.3226 37.5634 23.503 37.4156 23.655C37.2678 23.807 37.0919 23.9277 36.898 24.01C36.7042 24.0924 36.4962 24.1348 36.2862 24.1348H34.5639V25.8298C34.5493 26.2428 34.3818 26.6348 34.095 26.927C33.8083 27.2192 33.4236 27.3899 33.0183 27.4048H31.7082C31.495 27.4088 31.2832 27.3694 31.0851 27.289C30.8871 27.2087 30.7067 27.0889 30.5546 26.9366C30.4024 26.7844 30.2816 26.6028 30.1991 26.4025C30.1167 26.2021 30.0742 25.987 30.0743 25.7698V24.0748H28.3961C27.9806 24.0751 27.5812 23.9111 27.2819 23.6173C26.9826 23.3235 26.8069 22.9229 26.7916 22.4998V21.1798C26.7857 20.9613 26.8229 20.7439 26.9008 20.5403C26.9788 20.3367 27.0961 20.1511 27.2457 19.9945C27.3953 19.8378 27.5741 19.7134 27.7717 19.6284C27.9693 19.5434 28.1817 19.4997 28.3961 19.4998H30.0743V17.7898C30.0742 17.3613 30.2392 16.9499 30.5337 16.6441C30.8283 16.3384 31.2289 16.1626 31.6493 16.1548V16.1548Z" fill="#2672B5"/>
<path d="M31.6486 15.375H33.0176C33.6463 15.3754 34.2494 15.6288 34.6957 16.08V16.08C35.1426 16.5333 35.3964 17.1475 35.4023 17.79V18.69H36.2855C36.9098 18.6911 37.5081 18.9447 37.9489 19.395V19.395C38.1695 19.6192 38.3443 19.8858 38.463 20.1794C38.5818 20.4729 38.6422 20.7875 38.6408 21.105V22.5C38.6422 22.8175 38.5818 23.1321 38.463 23.4256C38.3443 23.7192 38.1695 23.9858 37.9489 24.21V24.21C37.5081 24.6603 36.9098 24.9139 36.2855 24.915H35.4023V25.815C35.3933 26.4568 35.14 27.0699 34.6957 27.525V27.525C34.2438 27.9639 33.6419 28.206 33.0176 28.2H31.7075C31.077 28.194 30.4742 27.9354 30.0294 27.48V27.48C29.5893 27.0234 29.3411 26.41 29.3376 25.77V24.87H28.4543C28.1428 24.8714 27.834 24.8099 27.546 24.6888C27.2579 24.5678 26.9963 24.3898 26.7762 24.165V24.165C26.5475 23.9524 26.3622 23.6959 26.2308 23.4102C26.0995 23.1245 26.0247 22.8152 26.0108 22.5V21.18C26.0094 20.8625 26.0698 20.5479 26.1885 20.2544C26.3073 19.9608 26.482 19.6942 26.7026 19.47V19.47C26.9227 19.2452 27.1843 19.0672 27.4723 18.9462C27.7604 18.8251 28.0692 18.7636 28.3807 18.765H29.264V17.865C29.2643 17.2244 29.513 16.6098 29.9558 16.155V16.155C30.1724 15.9162 30.4338 15.7241 30.7246 15.5901C31.0154 15.4561 31.3296 15.383 31.6486 15.375V15.375ZM33.0176 16.95H31.7075C31.601 16.9496 31.4955 16.9705 31.397 17.0117C31.2985 17.0529 31.2089 17.1135 31.1334 17.19V17.19C31.0532 17.2669 30.9895 17.3599 30.9465 17.4632C30.9034 17.5665 30.8818 17.6778 30.8832 17.79V20.28H28.3955C28.2866 20.2784 28.1786 20.2988 28.0775 20.34C27.9764 20.3812 27.8844 20.4424 27.8066 20.52V20.52C27.7305 20.5992 27.6704 20.693 27.63 20.796C27.5896 20.899 27.5696 21.0091 27.5711 21.12V22.5C27.5696 22.6109 27.5896 22.721 27.63 22.824C27.6704 22.927 27.7305 23.0208 27.8066 23.1C27.8844 23.1776 27.9764 23.2388 28.0775 23.28C28.1786 23.3212 28.2866 23.3416 28.3955 23.34H30.8243V25.83C30.823 25.9422 30.8445 26.0535 30.8876 26.1568C30.9307 26.2601 30.9943 26.3531 31.0746 26.43V26.43C31.1501 26.5065 31.2396 26.5671 31.3381 26.6083C31.4366 26.6495 31.5422 26.6704 31.6486 26.67H33.0176C33.2369 26.67 33.4477 26.5841 33.6064 26.43V26.43C33.7576 26.2682 33.842 26.0534 33.842 25.83V23.28H36.2855C36.392 23.2804 36.4975 23.2595 36.5961 23.2183C36.6946 23.1771 36.7841 23.1165 36.8596 23.04V23.04C37.0175 22.8815 37.1075 22.6658 37.1099 22.44V21.12C37.1075 20.8942 37.0175 20.6785 36.8596 20.52V20.52C36.7841 20.4435 36.6946 20.3829 36.5961 20.3417C36.4975 20.3005 36.392 20.2796 36.2855 20.28H33.7831V17.79C33.7831 17.5666 33.6988 17.3518 33.5476 17.19V17.19C33.4038 17.0494 33.2163 16.9645 33.0176 16.95Z" fill="#040440"/>
<path d="M40.7015 40.1401C43.7258 40.1401 46.1775 37.662 46.1775 34.6051C46.1775 31.5482 43.7258 29.0701 40.7015 29.0701C37.6773 29.0701 35.2256 31.5482 35.2256 34.6051C35.2256 37.662 37.6773 40.1401 40.7015 40.1401Z" fill="#242623"/>
<path d="M40.7014 28.29C42.3546 28.2878 43.9417 28.9509 45.1175 30.135C46.2888 31.3285 46.9467 32.9472 46.9467 34.635C46.9467 36.3229 46.2888 37.9416 45.1175 39.135C43.9463 40.3285 42.3578 40.999 40.7014 40.999C39.0451 40.999 37.4566 40.3285 36.2853 39.135C35.6978 38.5485 35.2311 37.8483 34.9125 37.0756C34.5938 36.3029 34.4297 35.4732 34.4297 34.635C34.4297 33.7969 34.5938 32.9672 34.9125 32.1945C35.2311 31.4218 35.6978 30.7216 36.2853 30.135C37.4612 28.9509 39.0483 28.2878 40.7014 28.29V28.29ZM44.0282 31.29C43.1458 30.397 41.9525 29.8957 40.7088 29.8957C39.4651 29.8957 38.2718 30.397 37.3894 31.29C36.9519 31.7272 36.6043 32.2488 36.367 32.8244C36.1297 33.4001 36.0075 34.0182 36.0075 34.6425C36.0075 35.2669 36.1297 35.885 36.367 36.4606C36.6043 37.0363 36.9519 37.5579 37.3894 37.995C38.2755 38.8809 39.4674 39.3772 40.7088 39.3772C41.9502 39.3772 43.1421 38.8809 44.0282 37.995C44.4622 37.5559 44.8066 37.0336 45.0416 36.4582C45.2766 35.8828 45.3976 35.2658 45.3976 34.6425C45.3976 34.0193 45.2766 33.4023 45.0416 32.8269C44.8066 32.2515 44.4622 31.7292 44.0282 31.29V31.29Z" fill="black"/>
<path d="M40.7022 37.26C42.1494 37.26 43.3225 36.0713 43.3225 34.605C43.3225 33.1386 42.1494 31.95 40.7022 31.95C39.2551 31.95 38.082 33.1386 38.082 34.605C38.082 36.0713 39.2551 37.26 40.7022 37.26Z" fill="#404042"/>
<path d="M40.702 31.155C41.3732 31.1529 42.0299 31.354 42.5887 31.733C43.1474 32.1119 43.583 32.6515 43.8402 33.2833C44.0973 33.9151 44.1644 34.6104 44.0328 35.2811C43.9013 35.9518 43.5771 36.5675 43.1014 37.05C42.7074 37.4498 42.2228 37.7444 41.6905 37.908C41.1582 38.0717 40.5945 38.0992 40.0493 37.9881C39.5041 37.8771 38.9941 37.631 38.5644 37.2714C38.1347 36.9119 37.7985 36.4501 37.5855 35.9268C37.3725 35.4034 37.2892 34.8347 37.3431 34.2708C37.3969 33.7069 37.5863 33.1652 37.8943 32.6936C38.2024 32.2219 38.6197 31.8348 39.1093 31.5665C39.599 31.2982 40.146 31.1569 40.702 31.155V31.155ZM42.0121 33.285C41.6625 32.9359 41.1916 32.7418 40.702 32.745C40.2131 32.745 39.7433 32.9387 39.3919 33.285C39.2221 33.4582 39.0877 33.6641 38.9967 33.8908C38.9057 34.1174 38.8599 34.3602 38.862 34.605C38.8574 34.8502 38.9021 35.0938 38.9932 35.3208C39.0843 35.5478 39.22 35.7534 39.3919 35.925C39.5634 36.1013 39.7675 36.2411 39.9924 36.3364C40.2173 36.4317 40.4585 36.4805 40.702 36.48C40.9458 36.4822 41.1875 36.4341 41.4127 36.3388C41.6378 36.2434 41.8417 36.1027 42.0121 35.925C42.186 35.7542 42.324 35.549 42.4176 35.3221C42.5112 35.0952 42.5586 34.8512 42.5568 34.605C42.5561 34.3593 42.5076 34.1161 42.4141 33.8895C42.3206 33.6629 42.184 33.4575 42.0121 33.285V33.285Z" fill="black"/>
<path d="M48.3716 34.1249C49.2414 34.423 50.0644 34.8473 50.8152 35.3849C50.9402 34.8651 51.2429 34.4078 51.669 34.0949V34.2899C51.6686 34.6468 51.6981 35.0031 51.7573 35.3549H49.3726L49.667 36.9449H52.2725C52.5821 37.5945 52.995 38.1875 53.4943 38.6999C54.6707 39.8834 56.2573 40.5471 57.9104 40.5471C59.5635 40.5471 61.1501 39.8834 62.3265 38.6999C62.5199 38.4956 62.7017 38.2803 62.8711 38.0549C64.8932 41.3662 67.1205 44.5427 69.5394 47.5649C69.1924 48.3271 68.794 49.0638 68.3471 49.7699C66.961 51.751 65.2476 53.4716 63.2833 54.8549L64.0782 55.4249L65.403 83.5499L36.2568 81.4649L36.6101 79.0649C37.2284 74.8199 37.8466 70.5749 38.406 66.3149C38.8623 62.961 38.8623 59.5589 38.406 56.2049L38.2146 54.9299C36.6471 53.4825 35.172 51.9343 33.7985 50.2949C31.8849 48.0899 30.0007 45.7949 28.2195 43.4699L27.6602 42.7499L27.7632 41.8499C27.9546 39.9299 28.4698 34.3499 29.353 33.0149C30.297 32.0451 31.4518 31.3154 32.7239 30.8849C34.3285 30.1649 35.9624 29.5049 37.5964 28.8449C40.0694 27.8399 42.5424 26.8799 44.9565 25.9349C45.4889 25.7702 46.0584 25.7784 46.586 25.9585C47.1136 26.1386 47.573 26.4816 47.9006 26.9399C48.4341 27.5947 48.803 28.3721 48.9752 29.2049C49.3078 30.868 49.0958 32.5964 48.3716 34.1249V34.1249Z" fill="#040440"/>
<path d="M29.8682 42.09C29.8682 42.09 30.5747 35.1 31.1341 34.23C31.6935 33.36 45.3245 28.23 45.7219 28.02C46.1194 27.81 48.5482 30.33 45.3687 34.95C42.1891 39.57 38.612 40.155 36.8162 39.975C35.6686 39.8245 34.5786 39.3751 33.6513 38.67C33.6513 38.67 33.9015 39.93 36.036 40.59C37.158 40.997 38.3602 41.1206 39.5394 40.95C38.7966 41.5858 37.9561 42.0926 37.0517 42.45C36.5221 42.6396 35.9813 42.7949 35.4324 42.915C35.4324 42.915 37.0958 43.86 40.4079 42.45C43.72 41.04 46.3844 36.06 46.3844 36.06C47.2027 36.0816 48.0076 36.2768 48.7477 36.6333C49.4878 36.9897 50.1468 37.4994 50.6827 38.13C52.0275 39.5317 52.9387 41.3051 53.3029 43.23C53.4256 42.3307 53.4748 41.4226 53.4501 40.515C53.4501 39.825 53.4501 39.195 53.4501 38.64C53.493 38.6761 53.5324 38.7163 53.5679 38.76C54.7442 39.9435 56.3308 40.6071 57.984 40.6071C59.6371 40.6071 61.2237 39.9435 62.4001 38.76C62.5934 38.5556 62.7753 38.3403 62.9447 38.115C64.034 39.87 65.8888 42.87 68.0674 45.615C67.668 46.6111 67.175 47.5655 66.5953 48.465C64.6798 51.0672 62.1949 53.1781 59.3382 54.63L62.0026 56.58L63.2244 81.09L38.7887 79.395C38.7887 79.395 39.8338 72.27 40.5845 66.63C41.0506 63.0506 41.0506 59.4243 40.5845 55.845C41.7295 56.0168 42.8893 56.0621 44.0438 55.98C45.5479 55.9466 47.0279 55.5888 48.3863 54.93C48.9294 55.7471 49.2356 56.7037 49.2695 57.69C49.2966 59.2017 49.1533 60.7115 48.8426 62.19C49.4818 61.189 49.9312 60.0747 50.1675 58.905C50.6128 57.5075 50.7878 56.0353 50.6827 54.57C50.6827 54.57 51.2421 54.705 52.3902 52.215C53.054 50.5459 53.054 48.6791 52.3902 47.01C52.2234 49.0136 51.2935 50.8712 49.7995 52.185C48.6684 53.1365 47.3551 53.8374 45.9434 54.2428C44.5317 54.6483 43.0525 54.7495 41.6003 54.54C39.0536 54 29.8682 42.09 29.8682 42.09Z" fill="#FFC296"/>
<path d="M42.8806 54.69C42.4502 54.6788 42.0216 54.6287 41.5999 54.54C39.4066 54.075 32.2378 45.09 30.3389 42.675L30.6333 40.665C30.6333 40.665 37.2133 49.665 39.9807 51.705C42.7481 53.745 42.8806 54.69 42.8806 54.69Z" fill="#00FFFF"/>
<path d="M46.9731 30.3149C46.9796 32.0024 46.4127 33.6402 45.3685 34.9499C42.2037 39.5699 38.6119 40.1549 36.816 39.9749C35.6685 39.8245 34.5784 39.375 33.6512 38.6699C33.6512 38.6699 33.9014 39.9299 36.0359 40.5899C37.1579 40.997 38.3601 41.1206 39.5393 40.9499C38.7965 41.5858 37.956 42.0925 37.0516 42.4499C36.522 42.6395 35.9811 42.7949 35.4323 42.9149C35.4323 42.9149 37.0957 43.8599 40.4078 42.4499C43.7199 41.0399 46.3842 36.0599 46.3842 36.0599C47.2026 36.0816 48.0074 36.2768 48.7475 36.6332C49.4876 36.9897 50.1467 37.4994 50.6826 38.1299C52.0274 39.5317 52.9386 41.3051 53.3028 43.2299C53.4255 42.3307 53.4747 41.4225 53.45 40.5149C53.45 39.8249 53.45 39.1949 53.45 38.6399C53.4929 38.6761 53.5323 38.7163 53.5678 38.7599C54.7441 39.9435 56.3307 40.6071 57.9838 40.6071C59.637 40.6071 61.2236 39.9435 62.3999 38.7599C62.5933 38.5556 62.7752 38.3403 62.9446 38.1149C64.0339 39.8699 65.8887 42.8699 68.0673 45.6149C67.6679 46.6111 67.1749 47.5655 66.5952 48.4649C64.6797 51.0672 62.1948 53.1781 59.3381 54.6299L62.0025 56.5799L63.2243 81.0899L61.1046 80.9999L59.5148 57.4349L55.2606 54.6449C56.8288 54.303 58.3243 53.6782 59.6767 52.7999C62.1055 51.2999 65.6826 45.5849 65.6826 45.5849L62.1202 41.1749C62.1202 41.1749 61.7522 41.9699 58.9848 42.1199C57.6605 42.2997 56.3132 42.1132 55.0839 41.5799C55.0839 41.5799 55.0839 41.8199 54.8484 43.0799C54.6546 43.9496 54.3213 44.7807 53.8622 45.5399C53.3996 44.0451 52.5743 42.6934 51.4627 41.6099C50.2281 40.3654 48.9205 39.1982 47.5471 38.1149C47.5471 38.1149 44.397 43.9349 39.6571 44.3399C34.9171 44.7449 33.8573 42.9599 33.8573 42.9599L36.1095 41.9999C36.1095 41.9999 35.5648 41.9999 34.4313 41.1449C33.6355 40.164 33.1663 38.9505 33.0918 37.6799C33.0918 37.6799 35.712 37.7849 41.3499 35.5049C46.9878 33.2249 46.9731 30.4949 46.9731 30.3149ZM40.8052 58.3199C40.6875 56.8199 40.5403 55.8449 40.5403 55.8449C41.6852 56.0168 42.8451 56.0621 43.9995 55.9799C45.5036 55.9466 46.9836 55.5888 48.342 54.9299C48.8852 55.7471 49.1913 56.7036 49.2253 57.6899C49.2523 59.2016 49.1091 60.7115 48.7984 62.1899C49.4376 61.1889 49.8869 60.0747 50.1232 58.9049C50.5835 57.5105 50.7735 56.0382 50.6826 54.5699C50.6826 54.5699 51.2419 54.7049 52.3901 52.2149C53.0538 50.5459 53.0538 48.679 52.3901 47.0099C52.2233 49.0136 51.2933 50.8712 49.7994 52.1849C47.8383 53.7945 45.3989 54.6777 42.8808 54.6899C44.554 54.3206 46.1492 53.6501 47.5913 52.7099C49.804 51.1549 51.4416 48.8894 52.2429 46.2749C52.2429 46.2749 53.818 46.7249 53.8474 50.3099C53.9271 51.2471 53.7685 52.1893 53.3869 53.0458C53.0053 53.9023 52.4136 54.6442 51.6688 55.1999C51.6921 57.0313 51.4742 58.8576 51.0211 60.6299C50.144 63.7612 49.047 66.8241 47.7385 69.7949C47.7385 69.7949 48.0918 65.0549 47.974 61.7549C48.0489 60.2726 47.7817 58.793 47.1939 57.4349C45.3879 58.0788 43.4836 58.3887 41.5707 58.3499L40.8052 58.3199Z" fill="#DC8567"/>
<path d="M29.8682 42.09C29.8682 42.09 30.5747 35.1 31.1341 34.23C31.6935 33.36 45.3245 28.23 45.7219 28.02C45.8544 28.02 46.193 28.2 46.4727 28.65L32.3706 36L31.193 43.74L29.8682 42.09Z" fill="#00FFFF"/>
<path d="M53.1704 21.2098C52.9393 21.3839 52.6803 21.5158 52.4049 21.5998C51.0031 21.8803 49.5527 21.7663 48.2096 21.2698C47.2448 20.9667 46.3127 20.5647 45.4275 20.0698C44.3204 20.6721 43.1207 21.0779 41.8799 21.2698C40.6827 21.5437 39.4551 21.6547 38.2293 21.5998C36.6248 21.4798 35.7563 19.9948 35.1822 18.5998C34.6897 17.3818 34.2863 16.1284 33.9751 14.8498C33.7101 13.8448 33.0036 11.3248 32.7828 10.3498L30.4717 11.1448L30.0742 10.0948L31.0458 7.91981L33.6218 2.68481L34.6964 2.47481C35.9918 2.23481 37.2872 2.00981 38.5826 1.79981C39.4216 1.67981 40.3784 1.49981 41.2175 1.49981C41.7644 1.36616 42.3348 1.36863 42.8805 1.507C43.4263 1.64538 43.9313 1.91559 44.3529 2.29481C44.4188 2.36386 44.4779 2.43921 44.5296 2.51981C45.8986 2.42981 47.2823 2.35481 48.6513 2.29481C49.5786 2.29481 50.5207 2.21981 51.4481 2.21981C52.3868 2.12463 53.3317 2.32348 54.1567 2.78981C54.4329 3.03801 54.6584 3.33936 54.82 3.67657C54.9817 4.01378 55.0764 4.3802 55.0988 4.75481L55.614 4.84481C56.6738 5.00981 57.7631 5.21981 58.823 5.45981C60.1954 5.63318 61.5049 6.14835 62.6356 6.95981L63.7101 7.09481C65.4797 7.24398 67.2017 7.75409 68.7739 8.59481C70.5404 9.92981 70.4226 13.8898 70.1429 15.8548C69.9588 17.3101 69.4557 18.7046 68.6709 19.9348C68.0847 20.7971 67.2869 21.4877 66.3571 21.9377C65.4272 22.3878 64.3978 22.5816 63.3716 22.4998C62.1572 22.4788 60.9715 22.121 59.9417 21.4648L59.7209 21.5848C58.0428 22.3048 54.981 21.7198 53.1704 21.2098Z" fill="#040440"/>
<path d="M32.3408 8.99982L32.6647 8.87982L35.0494 4.69482C35.0494 4.69482 42.3065 3.31482 42.7186 3.77982C43.7065 8.34367 44.3998 12.9686 44.7942 17.6248C44.6764 18.6148 40.0543 19.5148 38.4203 19.3798C36.7864 19.2448 34.9169 8.87982 34.9169 8.87982L32.3408 8.99982ZM63.489 9.38982C63.489 9.38982 61.0749 19.1548 61.1779 19.4998C61.281 19.8448 65.2849 21.1948 66.963 18.6598C68.6411 16.1248 68.2878 10.9498 67.5077 10.3648C66.2214 9.8409 64.8681 9.50752 63.489 9.37482V9.38982ZM55.334 7.04982L53.7147 19.0498C53.7147 19.0498 57.4831 20.0998 58.8079 19.4848C60.1328 18.8698 61.4429 9.64482 61.2957 8.81982C61.1485 7.99482 55.334 7.04982 55.334 7.04982ZM44.647 4.72482C44.647 4.72482 45.3094 16.9498 45.9424 17.6848C46.5754 18.4198 50.2407 19.9198 51.8305 19.4398C53.4203 18.9598 53.3025 4.90482 52.8904 4.55982C52.4782 4.21482 44.647 4.72482 44.647 4.72482Z" fill="#FFC296"/>
<path d="M44.5442 15.0001C44.6729 15.8948 44.7515 16.7963 44.7798 17.7001C44.662 18.6901 40.0398 19.5901 38.4059 19.4551C37.8318 19.4551 37.2282 18.0751 36.6836 16.3651C38.1947 16.3507 39.7037 16.2455 41.2027 16.0501C42.3641 15.8825 43.4919 15.5281 44.5442 15.0001ZM44.7062 5.82012H46.0604L46.7376 14.2651C47.0825 14.7866 47.5355 15.2247 48.0644 15.5486C48.5934 15.8725 49.1856 16.0744 49.7994 16.1401C50.7708 16.3201 51.7632 16.3504 52.7435 16.2301C52.5374 18.0301 52.2135 19.3351 51.7719 19.4701C50.2999 19.9501 46.5462 18.4351 45.8838 17.7151C45.2214 16.9951 44.8828 8.67012 44.7062 5.74512V5.82012ZM55.2017 8.19012L56.291 8.32512L55.4078 15.8251C55.4078 15.8251 58.9702 17.3251 59.9564 17.1451C59.6031 18.4051 59.2057 19.3651 58.8082 19.5451C57.4834 20.1601 53.715 19.1101 53.715 19.1101L55.2017 8.19012ZM63.3421 9.94512L64.2253 10.1401L62.9299 16.3201C62.9299 16.3201 62.9299 16.9951 65.3146 17.0251C65.9476 17.0251 66.7866 17.0251 67.7287 16.9351C67.5548 17.5535 67.2971 18.1442 66.9633 18.6901C65.2852 21.2251 61.296 19.8901 61.1782 19.5301C61.0604 19.1701 62.8269 12.0001 63.3421 9.94512Z" fill="#DC8567"/>
<path d="M32.3408 8.99982L32.6647 8.87982L35.0494 4.69482C35.0494 4.69482 42.3065 3.31482 42.7186 3.77982C42.8445 4.06583 42.9288 4.36902 42.9689 4.67982L35.6971 5.62482L34.6961 8.92482L32.3408 8.99982ZM44.7942 5.99982L53.1112 5.66982C53.0988 5.26592 53.0088 4.86841 52.8462 4.49982C52.3899 4.15482 44.647 4.66482 44.647 4.66482C44.647 4.66482 44.6617 5.23482 44.7942 5.99982ZM55.0984 8.41482L61.2074 9.71982C61.2413 9.4158 61.2413 9.10884 61.2074 8.80482C61.0602 7.97982 55.3192 7.04982 55.3192 7.04982L55.0984 8.41482ZM63.1946 10.3048L67.964 11.8048C67.9418 11.305 67.761 10.826 67.4488 10.4398C66.164 9.90563 64.8107 9.56212 63.4301 9.41982L63.1946 10.3048Z" fill="#00FFFF"/>
<path d="M57.9395 32.7449C57.45 32.7417 56.9791 32.9358 56.6294 33.2849C56.3124 33.6041 56.1208 34.0305 56.091 34.4836C56.0612 34.9368 56.1951 35.3854 56.4675 35.7449L56.5705 35.9999C56.4635 35.7596 56.4083 35.4988 56.4086 35.2349C56.4066 34.9875 56.4534 34.7423 56.5462 34.5137C56.6391 34.2851 56.7761 34.0779 56.9492 33.9044C57.1222 33.7308 57.3277 33.5945 57.5535 33.5036C57.7793 33.4126 58.0207 33.3689 58.2634 33.3749C58.7375 33.3774 59.1939 33.5591 59.544 33.8849C59.4475 33.6796 59.3182 33.492 59.1613 33.3299C58.8406 32.9854 58.4045 32.7766 57.9395 32.7449Z" fill="#00FFFF"/>
<path d="M53.2434 34.6049C53.2412 34.989 53.2857 35.3719 53.3759 35.7449C53.447 36.0174 53.5406 36.2833 53.6555 36.5399C53.7776 36.8157 53.9203 37.0815 54.0824 37.3349C54.2431 37.5583 54.4202 37.769 54.6124 37.9649C54.7588 38.1121 54.9163 38.2476 55.0834 38.3699C54.9206 38.2038 54.7728 38.0231 54.6418 37.8299C54.4774 37.5804 54.3298 37.3198 54.2002 37.0499C54.0943 36.7913 54.0058 36.5257 53.9352 36.2549C53.6472 35.0467 53.832 33.7717 54.4504 32.6999C54.6496 32.3588 54.8921 32.0461 55.1717 31.7699C55.9813 30.9555 57.0513 30.465 58.1863 30.3879C59.3214 30.3108 60.4458 30.6523 61.3543 31.3499L61.266 31.2599C60.381 30.3659 59.1853 29.8643 57.9392 29.8643C56.693 29.8643 55.4973 30.3659 54.6124 31.2599C54.3327 31.5323 54.0946 31.8458 53.9058 32.1899C53.4649 32.9147 53.2352 33.7522 53.2434 34.6049Z" fill="#00FFFF"/>
<path d="M33.5478 17.2049C33.3891 17.0508 33.1782 16.9649 32.959 16.9649H31.6489C31.5424 16.9644 31.4369 16.9854 31.3384 17.0266C31.2399 17.0678 31.1503 17.1283 31.0748 17.2049V17.2049C30.9946 17.2817 30.9309 17.3748 30.8878 17.4781C30.8448 17.5813 30.8232 17.6926 30.8246 17.8048V20.2948H28.3957C28.2869 20.2933 28.1788 20.3137 28.0777 20.3548C27.9767 20.396 27.8846 20.4572 27.8069 20.5348V20.5348C27.7307 20.6141 27.6707 20.7079 27.6303 20.8108C27.5898 20.9138 27.5698 21.0239 27.5714 21.1348V22.4998C27.5698 22.6108 27.5898 22.7209 27.6303 22.8239C27.6707 22.9268 27.7307 23.0206 27.8069 23.0998C27.8846 23.1775 27.9767 23.2387 28.0777 23.2799C28.1788 23.321 28.2869 23.3414 28.3957 23.3399H28.484C28.4069 23.2645 28.3461 23.1735 28.3055 23.0728C28.2649 22.972 28.2455 22.8637 28.2485 22.7548V21.4198C28.2474 21.3099 28.2691 21.2009 28.3122 21.1001C28.3554 20.9993 28.4189 20.9089 28.4988 20.8349V20.8349C28.6497 20.6762 28.856 20.5846 29.0728 20.5798H31.5459V17.9998C31.5459 17.7765 31.6302 17.5616 31.7814 17.3999V17.3999C31.8569 17.3233 31.9465 17.2628 32.045 17.2216C32.1435 17.1804 32.249 17.1594 32.3555 17.1598L33.5478 17.2049ZM30.8246 23.2048V25.6948C30.8232 25.8071 30.8448 25.9184 30.8878 26.0216C30.9309 26.1249 30.9946 26.218 31.0748 26.2949V26.2949C31.1503 26.3714 31.2399 26.4319 31.3384 26.4731C31.4369 26.5143 31.5424 26.5353 31.6489 26.5349H31.7372C31.5961 26.3738 31.5175 26.1658 31.5164 25.9498V23.2799L30.8246 23.2048Z" fill="#00FFFF"/>
<path d="M62.223 79.7249H93.1357L90.5155 84.2249V102.81C90.5155 104.64 90.4419 106.47 90.5155 108.285L90.6627 108.45L92.2819 109.95L89.647 113.475L87.807 112.29C59.6028 96.5399 44.6764 96.5399 12.8364 113.445L10.3487 109.83L11.9973 108.405L12.0857 108.33C12.174 104.19 12.0857 100.08 12.0857 95.9399V84.1799L9.1416 79.6799H62.223V79.7249Z" fill="#040440"/>
<path d="M17.6494 97.6801V102.285C17.6494 103.785 17.5758 105.285 17.6494 106.875C17.6494 107.295 18.0468 107.415 18.5326 107.265C16.8398 108.24 15.1469 109.245 13.4541 110.265C13.6994 110.093 13.9071 109.87 14.0641 109.612C14.2212 109.354 14.3242 109.066 14.3668 108.765C14.4845 104.115 14.3668 100.035 14.3668 95.9551V83.1001C14.3082 82.8738 14.1935 82.6666 14.0336 82.4985C13.8738 82.3303 13.6742 82.2069 13.4541 82.1401H25.3776C25.1712 82.1748 24.9772 82.2635 24.8146 82.3977C24.652 82.5318 24.5265 82.7066 24.4502 82.9051V92.3401C24.3177 92.4301 26.4816 91.0351 17.6494 97.6801ZM86.5993 95.4301V95.6251L88.0714 96.9451V102.81C88.0714 104.775 87.9683 106.725 88.0714 108.675C88.177 109.279 88.5097 109.817 88.9988 110.175C87.2912 109.08 85.5984 107.985 83.9055 106.935C84.3766 107.085 84.7593 106.935 84.7887 106.575C84.7887 105.075 84.7887 103.575 84.7887 102.075V97.5001C83.5964 96.4651 82.4041 95.4751 81.2264 94.5001V99.5701C81.2264 101.265 81.1234 102.945 81.2264 104.64C81.279 104.913 81.3875 105.172 81.5447 105.399C81.702 105.627 81.9045 105.818 82.1391 105.96C80.4463 105.015 78.7534 104.19 77.0606 103.38C77.5463 103.515 77.9291 103.38 77.9438 103.05C78.0468 99.3901 77.9438 96.1651 77.9438 92.9401C77.9438 89.7151 78.0468 86.4901 77.9438 82.8301C77.9438 82.4401 77.5463 82.2001 77.0606 82.0801H88.9546C88.7289 82.139 88.5234 82.2596 88.3599 82.4287C88.1965 82.5979 88.0815 82.8092 88.0272 83.0401V95.0401C87.5856 95.1901 87.0998 95.3251 86.5993 95.4301V95.4301ZM21.2411 91.5001V84.9751L17.7083 85.1851V94.1851C18.827 93.2251 20.0046 92.3401 21.2411 91.5001ZM37.2274 90.6451C37.2274 91.5301 37.1391 98.2951 37.2274 99.1651C37.2274 99.4951 37.6837 99.5701 38.1548 99.5401C34.0863 100.614 30.085 101.936 26.1725 103.5C26.6435 103.185 27.0851 102.825 27.0998 102.36C27.2176 98.8051 27.0998 95.7001 27.0998 92.5951V82.8751C27.0195 82.6822 26.8921 82.5135 26.7298 82.3848C26.5675 82.2562 26.3757 82.172 26.1725 82.1401H31.251C30.7799 82.2601 30.3825 82.4701 30.3825 82.8301C30.2794 85.9051 30.3825 88.5751 30.3825 91.2451V99.5401C31.5454 99.1651 32.723 98.8051 33.9006 98.4901V90.0901L37.2274 90.6451ZM46.619 84.0001H43.1008V87.4801C42.0501 88.0531 40.9516 88.53 39.8182 88.9051V82.7251C39.7201 82.5629 39.5868 82.4259 39.4286 82.3244C39.2704 82.223 39.0914 82.1599 38.9055 82.1401H50.829C50.642 82.1497 50.46 82.2051 50.2985 82.3018C50.1371 82.3984 50.0009 82.5333 49.9016 82.6951V90.0001C49.9016 92.3401 49.7986 94.6801 49.9016 97.3501C49.9016 97.6651 50.3432 97.8001 50.829 97.8601C46.8252 98.0785 42.8412 98.5797 38.9055 99.3601C39.3766 99.1801 39.7887 98.9551 39.8182 98.5801C39.9212 97.3801 39.8182 96.1651 39.8182 94.9651V91.3501C40.9958 90.7801 37.301 92.5801 46.619 88.4251V84.0001ZM46.619 90.5851L43.1008 92.0851V96.5851L46.619 96.2101V90.6301V90.5851ZM62.6347 98.2501C62.6347 98.6101 63.0616 98.8351 63.5473 99.0151C59.6063 98.3284 55.6211 97.9373 51.6239 97.8451C52.1096 97.7551 52.4777 97.5901 52.5071 97.2901C52.5807 96.3301 52.5071 95.3701 52.5071 94.4101V91.5001C58.8663 93.9451 53.3609 91.8001 55.7897 92.7151V96.0601C56.9674 96.0601 58.1597 96.2401 59.352 96.3751V91.8751C50.6818 88.8001 52.6249 89.4001 52.5071 89.3551V86.0251C52.5071 84.9151 52.5807 83.7901 52.5071 82.6801C52.5071 82.3951 52.1096 82.2301 51.6239 82.1401H56.7024C56.5179 82.152 56.3389 82.2086 56.1802 82.3051C56.0215 82.4016 55.8876 82.5353 55.7897 82.6951V88.3651C56.9674 88.8001 58.1597 89.2651 59.352 89.7301V86.2201C59.352 85.0501 59.4404 83.8651 59.352 82.7101C59.352 82.4101 58.9546 82.2301 58.4688 82.1401H63.5473C63.3598 82.154 63.1786 82.2146 63.0194 82.3166C62.8603 82.4186 62.7282 82.5589 62.6347 82.7251V90.4801C62.6347 93.0001 62.458 95.4301 62.6347 98.2501ZM68.5228 98.1001C69.7004 98.4001 70.8928 98.7151 72.0704 99.1201V95.0251C74.8672 94.5301 70.2598 95.3551 75.353 94.4101V98.1751C75.353 99.4351 75.25 100.695 75.353 101.94C75.353 102.39 75.7946 102.75 76.2804 103.08C72.4024 101.492 68.4178 100.188 64.3569 99.1801C64.828 99.1801 65.2107 99.0751 65.2254 98.7751C65.3285 95.8651 65.2254 93.3151 65.2254 90.7651C65.2254 88.2151 65.3285 85.6351 65.2254 82.7401C65.2254 82.4251 64.828 82.2451 64.3569 82.1401H76.2804C76.0803 82.1691 75.8904 82.2488 75.7284 82.372C75.5664 82.4952 75.4373 82.6578 75.353 82.8451V91.5751C74.2048 91.8751 77.8849 90.9751 68.5228 93.0751V98.1001ZM68.5228 90.6001L72.0704 89.6851V84.4351C70.8928 84.4351 69.7004 84.3301 68.5228 84.3001V90.6301V90.6001ZM81.2411 84.8851V91.3051C82.4188 92.1751 83.6111 93.0601 84.8035 94.0051V85.1551L81.2411 84.8851Z" fill="white"/>
<path d="M23.8623 92.175V82.8H14.8682C14.8765 82.8697 14.8765 82.9402 14.8682 83.01V96C14.8682 100.245 14.9712 104.475 14.8682 108.72L17.0615 107.43C17.0014 107.287 16.9666 107.135 16.9585 106.98C16.8701 105.48 16.9585 103.98 16.9585 102.36V97.38L17.2087 97.2C19.0193 95.835 20.8152 94.47 22.6111 93.075C23.0085 92.85 23.4943 92.49 23.8623 92.175ZM21.5217 91.98C20.3294 92.835 19.1665 93.72 18.0183 94.635L17.0615 95.385V84.63H17.6209L21.139 84.42H21.772V91.92L21.5217 91.98ZM85.2754 107.13L87.4835 108.54C87.3951 106.635 87.4835 104.73 87.4835 102.81V97.215L86.2028 96.075L86.0114 95.895V94.95L86.4678 94.845L87.4982 94.605V82.935C87.4982 82.935 87.4982 82.8 87.4982 82.74H78.5335C78.5407 82.7847 78.5407 82.8303 78.5335 82.875C78.6218 86.25 78.5335 89.625 78.5335 93C78.5335 96.375 78.6218 99.75 78.5335 103.125C78.5571 103.234 78.5571 103.346 78.5335 103.455L80.6827 104.52C80.5944 102.885 80.6827 101.265 80.6827 99.63V93.3L81.6395 94.08C82.8466 95.055 84.0389 96.045 85.2165 97.08L85.4226 97.26V102.09C85.4226 103.59 85.4226 105.09 85.4226 106.59C85.4095 106.778 85.3595 106.962 85.2754 107.13V107.13ZM81.2862 84.315L84.8338 84.555H85.3932V95.22L84.4364 94.47C83.2735 93.54 82.0958 92.655 80.8888 91.785L80.6532 91.605V84.27L81.2862 84.315ZM27.6896 82.74V92.655C27.6896 95.88 27.7926 99.09 27.6896 102.315C29.1616 101.745 30.6336 101.205 32.1057 100.695C33.5777 100.185 35.0497 99.75 36.5217 99.315C36.5149 99.2854 36.5149 99.2546 36.5217 99.225C36.5217 98.715 36.5217 98.1 36.5217 97.575C36.5217 96.675 36.5217 95.79 36.5217 94.89C36.5217 93.645 36.5217 92.4 36.5217 91.155L34.4903 90.81V99L34.0487 99.12C32.8711 99.42 31.7082 99.795 30.5453 100.155L29.7798 100.41V91.245C29.7798 88.425 29.6915 85.62 29.7798 82.8L27.6896 82.74ZM40.4079 91.74V94.905C40.4079 96.075 40.511 97.245 40.4079 98.415C41.8799 98.16 43.352 97.92 44.824 97.74C46.296 97.56 47.7681 97.425 49.2401 97.32C49.1371 94.86 49.2401 92.43 49.2401 89.97V82.74H40.3785V88.095L41.6591 87.585H41.7475H41.9388L42.3657 87.39V83.505H42.9398H46.458H47.0615V88.89L46.7082 89.055C44.8829 89.865 43.0576 90.69 41.2175 91.47C40.9447 91.5973 40.6645 91.7075 40.3785 91.8L40.4079 91.74ZM47.2087 90.57V96.705H46.6788L43.1606 97.08H42.5129V91.695L42.8662 91.545C44.0438 91.035 45.2215 90.555 46.3991 90.045L47.2087 89.715V90.57ZM55.1871 93.15L54.8633 93.015L53.0968 92.34V94.35C53.0968 95.31 53.0968 96.27 53.0968 97.245C54.5688 97.245 56.0409 97.395 57.5129 97.53C58.9849 97.665 60.457 97.89 61.929 98.115C61.826 95.535 61.929 93 61.929 90.42V82.74H59.9418C59.9418 83.895 59.9418 85.05 59.9418 86.22V90.615L59.1321 90.3C57.9545 89.82 56.7769 89.355 55.5846 88.935L55.1871 88.8V82.8H53.0968C53.0968 83.895 53.0968 84.99 53.0968 86.085V89.085C53.4354 89.235 53.8034 89.355 54.1125 89.475L59.5149 91.395L59.9123 91.545V97.08H59.2646C58.087 96.945 56.9094 96.825 55.7318 96.765H55.1577V93.21L55.1871 93.15ZM74.7651 91.02V82.74H65.8299C65.8299 85.41 65.8299 88.08 65.8299 90.765C65.8299 93.45 65.8299 96.105 65.8299 98.79V98.94C67.3019 99.345 68.774 99.765 70.246 100.245C71.718 100.725 73.19 101.265 74.6621 101.835C74.6621 100.62 74.6621 99.405 74.6621 98.175V95.175C74.1174 95.265 73.5728 95.355 73.0576 95.475C72.8943 95.5292 72.7269 95.5693 72.5571 95.595V99.99L71.7916 99.735C70.6287 99.345 69.4511 99.03 68.2587 98.715L67.8171 98.595V92.64L68.2735 92.535L73.72 91.305C74.0733 91.245 74.4413 91.14 74.7651 91.08V91.02ZM67.9202 90.57V83.67H68.5384L72.1007 83.82H72.6601V90.165L72.2185 90.27L68.6562 91.185L67.9202 91.365V90.57Z" fill="white"/>
<path d="M23.8618 92.175C22.802 92.315 21.7568 92.465 20.7264 92.625C19.799 93.3 18.9011 93.99 18.0179 94.695L17.0611 95.445V93.15L14.9561 93.525V96C14.9561 100.245 15.0591 104.475 14.9561 108.72L17.1494 107.43C17.0893 107.287 17.0545 107.135 17.0463 106.98C16.958 105.48 17.0463 103.98 17.0463 102.36V97.38L17.2966 97.2C19.1072 95.835 20.9031 94.47 22.6989 93.075C23.0081 92.85 23.4938 92.49 23.8618 92.175ZM56.8942 90.42H59.6764L59.9413 90.54V90.435L62.0316 90.525C62.0316 93.06 61.9286 95.565 62.0316 98.1C60.5596 97.875 59.0876 97.665 57.6155 97.515C56.1435 97.365 54.6715 97.29 53.1994 97.23C53.1994 96.255 53.1994 95.295 53.1994 94.335V92.4L54.9659 93.075L55.2897 93.21V96.675H55.8638C57.0414 96.675 58.2191 96.855 59.3967 96.99H60.0444V91.5L59.6469 91.35L56.8942 90.42ZM65.8295 90.825L67.9197 90.975V91.395L68.6558 91.215L69.171 91.08L73.1307 91.455C71.5409 91.8 69.9659 92.175 68.3761 92.535L67.9197 92.64V98.55L68.3614 98.67C69.5537 98.985 70.7313 99.3 71.8942 99.69L72.6597 99.945V95.55C72.8295 95.5243 72.9969 95.4842 73.1602 95.43C73.6754 95.31 74.22 95.22 74.7647 95.13V98.13C74.7647 99.36 74.6764 100.575 74.7647 101.79C73.2927 101.22 71.8206 100.68 70.3486 100.2C68.8766 99.72 67.4045 99.3 65.9325 98.895V98.745C65.9031 96.135 65.8295 93.48 65.8295 90.825V90.825ZM78.5478 92.1L81.904 92.565L84.4359 94.5L85.3928 95.25V93.135L87.4978 93.51V94.605L86.4673 94.845L86.011 94.95V95.895L86.2171 96.075L87.4978 97.215V102.81C87.4978 104.73 87.3947 106.635 87.4978 108.54L85.2897 107.13C85.3548 106.983 85.3946 106.826 85.4075 106.665C85.4075 105.165 85.4075 103.665 85.4075 102.165V97.26L85.2014 97.08C84.0238 96.045 82.8314 95.055 81.6244 94.08L80.6675 93.3V99.63C80.6675 101.265 80.5645 102.885 80.6675 104.52L78.4889 103.5C78.5125 103.391 78.5125 103.279 78.4889 103.17C78.5772 99.795 78.4889 96.42 78.4889 93.045L78.5478 92.1ZM27.6891 91.65C28.381 91.56 29.0876 91.485 29.7794 91.425V100.425L30.5449 100.17C31.7078 99.81 32.8707 99.435 34.0483 99.135L34.4899 99V90.99H35.2554L36.5802 91.2C36.5802 92.445 36.5802 93.69 36.5802 94.935C36.5802 95.835 36.5802 96.72 36.5802 97.62C36.5802 98.145 36.5802 98.76 36.5802 99.27C36.5733 99.2996 36.5733 99.3304 36.5802 99.36C35.1082 99.795 33.6361 100.245 32.1641 100.74C30.6921 101.235 29.22 101.79 27.748 102.36C27.851 99.135 27.748 95.925 27.748 92.7L27.6891 91.65ZM43.4693 90.48H45.5449L42.8658 91.5L42.5125 91.65V97.215H43.1602L46.6783 96.84H47.2083V90.375H49.3133C49.3133 92.715 49.2102 95.04 49.3133 97.395C47.8412 97.5 46.3692 97.635 44.8972 97.815C43.4251 97.995 41.9531 98.235 40.4811 98.49C40.5694 97.32 40.4811 96.15 40.4811 94.98V91.8C40.809 91.6881 41.1287 91.5527 41.4379 91.395L43.4693 90.48Z" fill="#CCCCCC"/>
<path d="M53.626 67.335H61.678L61.9429 69.435L61.3689 69.6V78.18L61.9282 78.3L61.7074 80.46H40.8635L40.6427 78.3L41.202 78.18V69.6L40.6279 69.435L40.8782 67.335H53.626Z" fill="#040440"/>
<path d="M44.0288 74.9999V78.8399C44.0619 78.9403 44.1224 79.0289 44.2033 79.0953C44.2841 79.1618 44.3819 79.2033 44.4852 79.2149H41.9238C42.0275 79.1995 42.1255 79.1568 42.2081 79.091C42.2907 79.0253 42.3551 78.9387 42.3949 78.8399V68.9099C42.3551 68.8111 42.2907 68.7246 42.2081 68.6588C42.1255 68.5931 42.0275 68.5504 41.9238 68.5349H47.9003C47.7992 68.5528 47.7043 68.5966 47.6244 68.6622C47.5446 68.7278 47.4825 68.813 47.4439 68.9099V73.4099C46.3377 74.0089 45.1973 74.5398 44.0288 74.9999V74.9999ZM53.0818 73.8599L53.8178 74.1899V78.7649C53.8564 78.8618 53.9185 78.9471 53.9983 79.0127C54.0782 79.0783 54.1731 79.1221 54.2742 79.1399H51.7423C51.8415 79.1264 51.9347 79.0838 52.0105 79.0172C52.0863 78.9506 52.1415 78.8629 52.1692 78.7649V74.9999L50.388 74.1899V78.8399C50.4278 78.9387 50.4922 79.0253 50.5748 79.091C50.6574 79.1568 50.7554 79.1995 50.8591 79.2149H48.3124C48.413 79.2006 48.5077 79.1579 48.5858 79.0916C48.6638 79.0254 48.7221 78.9382 48.7541 78.8399V68.9099C48.7221 68.8117 48.6638 68.7245 48.5858 68.6582C48.5077 68.5919 48.413 68.5492 48.3124 68.5349H54.2006C54.0995 68.5528 54.0046 68.5966 53.9247 68.6622C53.8449 68.7278 53.7828 68.813 53.7442 68.9099V73.5749L53.0818 73.8599ZM45.7953 72.7049V69.7049H44.0288V73.4999L45.7953 72.7049ZM50.388 69.7049V72.7049L52.1544 73.4999V69.7499L50.388 69.7049ZM60.1917 78.7799C60.2277 78.8784 60.2891 78.9652 60.3694 79.0312C60.4497 79.0972 60.546 79.14 60.6481 79.1549H54.7599C54.8605 79.1406 54.9552 79.0979 55.0332 79.0316C55.1113 78.9653 55.1696 78.8782 55.2016 78.7799V68.9099C55.1696 68.8117 55.1113 68.7245 55.0332 68.6582C54.9552 68.5919 54.8605 68.5492 54.7599 68.5349H60.6481C60.546 68.5499 60.4497 68.5926 60.3694 68.6586C60.2891 68.7246 60.2277 68.8114 60.1917 68.9099V78.7799ZM58.5431 77.9999V69.8099H56.7619V77.9999H58.5431Z" fill="#00FFFF"/>
<path d="M60.9867 53.1L58.7934 48.69L72.0416 53.64L70.7021 48.87C71.6295 49.815 74.5735 52.65 77.3851 53.055L80.1231 62.73L67.2281 56.73L69.2153 62.73L66.8012 61.23L59.7796 56.73C56.6738 54.753 53.7211 52.5365 50.9474 50.1C48.8942 48.5337 47.1803 46.5524 45.9131 44.28L60.9867 53.1ZM70.5843 48.42L70.2163 47.13L71.6884 47.61L70.5843 48.42Z" fill="#040440"/>
<path d="M48.1797 46.095C51.8748 49.7604 55.935 53.0231 60.2945 55.83L67.3161 60.33L65.4908 54.825L78.4888 60.825L76.163 52.755C74.6639 52.1537 73.2791 51.2908 72.0708 50.205L73.5428 55.305L60.8392 50.565L63.5477 55.995L48.1797 46.095Z" fill="#FFE001"/>
<path d="M48.6655 46.575C52.2356 50.04 56.1306 53.1398 60.2945 55.83L67.3161 60.33L66.6831 58.41C63.826 57.0438 61.0534 55.5009 58.3809 53.79C54.2298 51.015 48.5771 46.29 48.5771 46.29L48.6655 46.575ZM65.4908 54.81L78.4888 60.81L78.1061 59.475L65.1081 53.385L65.4908 54.81ZM72.0708 50.22L73.5428 55.305L75.0148 55.785L74.7057 52.05C73.7693 51.5318 72.8865 50.9187 72.0708 50.22V50.22Z" fill="#FF9E01"/>
<path d="M29.1026 48.66L31.8258 54H30.4421C35.6825 60 43.6904 61.9051 51.1536 63.7051L57.7925 65.295L57.498 67.02L50.6825 66.15C41.8504 64.965 27.6894 60.735 23.553 51.795L22.714 49.71L24.4362 49.98L22.0957 45.87L23.4205 45.36C23.9856 45.1589 24.5668 45.0084 25.1575 44.9101C26.6626 44.6351 28.194 44.5395 29.7208 44.625H30.3538H30.766L34.1664 49.23L31.973 48.885L30.7365 48.72C30.3832 48.72 30.0299 48.63 29.6767 48.615L29.1026 48.66Z" fill="#040440"/>
<path d="M32.0464 47.9999L30.7657 47.8199L29.6323 47.7299C28.9784 47.6899 28.3222 47.7201 27.6744 47.8199L30.3241 53.0849H28.5282C33.8717 60.5849 42.5125 62.6099 50.9473 64.6349L56.7618 66.0149L50.8737 65.2349C42.2917 64.0949 28.3957 59.9849 24.3771 51.4049L24.1857 50.8799L26.0994 51.1799L23.3467 46.3499L23.6705 46.2149C25.5765 45.6261 27.572 45.3974 29.5587 45.5399H30.1769L32.0464 47.9999Z" fill="#FFE001"/>
<path d="M32.0464 48.0001L30.7657 47.8201L29.6323 47.7301C28.9784 47.6901 28.3222 47.7203 27.6744 47.8201L27.8658 48.2101L26.909 46.5001L31.0307 46.6501L32.0464 48.0001ZM56.7618 66.0001L50.8737 65.2201C42.2917 64.0801 28.3957 59.9701 24.3771 51.3901L24.1857 50.8801L25.4075 51.0601L25.908 51.7801C32.4438 61.6651 46.0601 64.2151 56.7618 66.0001ZM26.0847 51.1801L23.3467 46.3501L23.6705 46.2151C23.6705 46.2151 23.9502 46.1101 24.4801 45.9751L27.9541 51.9751L26.0847 51.1801Z" fill="#FF9E01"/>
</g>
<defs>
<clipPath id="clip0_128_202">
<rect width="105" height="120" fill="white"/>
</clipPath>
</defs>
</svg>
