<svg width="135" height="120" viewBox="0 0 135 120" fill="none" xmlns="http://www.w3.org/2000/svg">
<g clip-path="url(#clip0_107_245)">
<path fill-rule="evenodd" clip-rule="evenodd" d="M109.05 98.7001C110.25 98.7001 111.45 98.7001 112.65 98.4001L114.15 98.2501L113.4 99.4501C99.5996 121.65 66.7496 121.65 53.0996 99.4501L52.3496 98.2501L53.8496 98.4001C55.0496 98.5501 56.2496 98.7001 57.4496 98.7001C67.9496 98.7001 77.3996 91.9501 80.6996 82.0501L80.8496 81.6001H85.4996L85.6496 82.0501C89.0996 92.1001 98.3996 98.7001 109.05 98.7001Z" fill="url(#paint0_linear_107_245)"/>
<path fill-rule="evenodd" clip-rule="evenodd" d="M123.3 54.8999C121.5 35.5499 109.5 19.4999 97.7999 11.9999C98.5499 19.9499 98.3999 19.3499 98.6999 26.2499C91.1999 15.8999 87.2999 9.7499 76.6499 3.8999C77.6999 21.8999 72.7499 26.0999 60.1499 34.3499C61.6499 29.9999 62.9999 25.1999 64.3499 20.8499C55.0499 26.8499 43.4999 36.5999 43.6499 55.0499C47.0999 53.2499 53.0999 51.5999 57.2999 51.5999L108.6 51.4499C112.65 51.4499 119.85 53.0999 123.3 54.8999Z" fill="url(#paint1_linear_107_245)"/>
<path fill-rule="evenodd" clip-rule="evenodd" d="M120.449 51.7503C119.999 37.6503 110.849 22.8003 99.2988 15.3003C100.049 23.2503 99.8988 24.3003 100.199 31.2003C92.6988 20.7003 88.7988 12.9003 78.1488 7.05029C84.1488 18.4503 83.8488 28.3503 77.5488 37.3503C81.5988 34.8003 84.4488 31.8003 86.2488 28.3503C86.5488 32.2503 86.2488 35.7003 85.0488 39.1503C87.1488 37.5003 88.4988 35.8503 88.7988 34.5003C89.2488 38.2503 89.2488 42.0003 88.7988 45.7503L62.5488 49.0503H109.049C113.099 48.9003 116.999 49.9503 120.449 51.7503Z" fill="url(#paint2_linear_107_245)"/>
<path fill-rule="evenodd" clip-rule="evenodd" d="M109.049 99.4501C98.0994 99.4501 88.4994 92.4001 85.1994 82.3501H80.9994C77.5494 92.4001 68.0994 99.4501 57.1494 99.4501C55.9494 99.4501 54.7494 99.4501 53.3994 99.1501C66.4494 103.35 78.8994 98.1001 82.9494 90.7501C82.4994 96.4501 82.7994 100.8 82.9494 104.25C83.0994 113.25 89.0994 115.35 94.3494 113.7C94.7994 113.55 95.0994 113.4 95.3994 113.25C102.299 110.7 108.449 106.05 112.649 99.1501C111.449 99.3001 110.249 99.4501 109.049 99.4501Z" fill="url(#paint3_linear_107_245)"/>
<path fill-rule="evenodd" clip-rule="evenodd" d="M57.1493 51.6002L109.649 51.4502C121.049 51.4502 131.399 62.2502 131.399 73.8002C131.399 85.2002 121.499 96.1502 108.899 96.1502C96.2993 96.1502 89.3993 89.4002 87.7493 79.6502L78.5993 79.3502C76.9493 89.1002 68.0993 96.3002 57.2993 96.3002C46.4993 96.3002 34.9493 85.9502 34.9493 74.5502C34.6493 63.1502 45.7493 51.6002 57.1493 51.6002Z" fill="url(#paint4_linear_107_245)"/>
<path fill-rule="evenodd" clip-rule="evenodd" d="M53.55 63.5999H60.6V70.6498H67.8V77.6999H60.6V84.7499H53.55V77.6999H46.5V70.6498H53.55V63.5999Z" fill="#01013F"/>
<path fill-rule="evenodd" clip-rule="evenodd" d="M116.099 70.6499C114.149 70.6499 112.649 72.1499 112.649 74.2499C112.649 76.1999 114.149 77.6999 116.099 77.6999C118.049 77.6999 119.699 76.1999 119.699 74.2499C119.699 72.1499 118.049 70.6499 116.099 70.6499Z" fill="#01013F"/>
<path fill-rule="evenodd" clip-rule="evenodd" d="M109.049 63.6001C107.099 63.6001 105.449 65.1001 105.449 67.0501C105.449 69.0001 107.099 70.6501 109.049 70.6501C110.999 70.6501 112.649 69.1501 112.649 67.0501C112.649 65.1001 110.999 63.6001 109.049 63.6001Z" fill="#01013F"/>
<path fill-rule="evenodd" clip-rule="evenodd" d="M101.85 70.6501C99.9 70.6501 98.25 72.1501 98.25 74.2501C98.25 76.2001 99.9 77.7001 101.85 77.7001C103.8 77.7001 105.3 76.2001 105.3 74.2501C105.45 72.1501 103.8 70.6501 101.85 70.6501Z" fill="#01013F"/>
<path fill-rule="evenodd" clip-rule="evenodd" d="M109.049 77.7C107.099 77.7 105.449 79.35 105.449 81.3C105.449 83.25 107.099 84.75 109.049 84.75C110.999 84.75 112.649 83.25 112.649 81.3C112.649 79.35 110.999 77.7 109.049 77.7Z" fill="#01013F"/>
<path fill-rule="evenodd" clip-rule="evenodd" d="M42.2998 48.8997C39.5998 40.0497 29.8498 33.1497 21.5998 29.6997C21.4498 37.4997 24.5998 50.6997 31.7998 54.8997C39.1498 57.5997 43.6498 55.4997 42.2998 48.8997Z" fill="url(#paint5_linear_107_245)"/>
<path fill-rule="evenodd" clip-rule="evenodd" d="M39.2992 57.15C26.2492 55.8 14.2492 60.6 5.69922 75C17.2492 79.95 29.8492 74.7 33.7492 71.55C33.8992 71.1 38.8492 57.6 39.2992 57.15Z" fill="url(#paint6_linear_107_245)"/>
<path fill-rule="evenodd" clip-rule="evenodd" d="M57.1494 53.55H109.049C120.449 53.55 129.749 62.85 129.749 74.25C129.749 85.65 120.449 94.95 109.049 94.95C98.8494 94.95 90.2994 87.6 88.6494 77.85H77.5494C75.8994 87.6 67.3494 94.95 57.1494 94.95C45.7494 94.95 36.4494 85.65 36.4494 74.25C36.4494 62.7 45.7494 53.55 57.1494 53.55ZM33.1494 66.45L14.8494 71.85L35.5494 61.2C36.1494 60.15 36.8994 59.25 37.4994 58.2C24.1494 56.85 15.2994 63.6 7.94941 74.1C15.8994 76.05 25.3494 75.9 32.0994 70.65C32.2494 69.45 32.6994 67.95 33.1494 66.45ZM41.0994 52.35L29.2494 39.75L37.1994 53.7C35.6994 53.55 34.1994 53.55 32.8494 53.55C31.3494 52.65 29.9994 51.6 28.9494 50.25C26.0994 46.95 24.2994 42.45 23.5494 37.2C23.3994 35.7 23.2494 34.05 23.2494 32.4C29.0994 34.8 33.5994 37.8 36.7494 41.55C38.6994 43.95 40.1994 46.65 41.0994 49.8C41.0994 50.7 41.0994 51.6 41.0994 52.35ZM112.649 99.15C99.1494 120.9 66.7494 120.9 53.3994 99.15C54.5994 99.3 55.7994 99.45 57.1494 99.45C68.0994 99.45 77.6994 92.4 80.9994 82.35H85.0494C88.4994 92.4 97.9494 99.45 108.899 99.45C110.249 99.45 111.449 99.3 112.649 99.15ZM47.2494 97.5C61.3494 127.5 104.699 127.5 118.799 97.5C127.799 93.6 134.099 84.75 134.099 74.25C134.099 66.3 130.649 59.4 124.949 54.75C125.999 36.45 112.649 13.95 92.3994 6.9C94.0494 9.9 94.3494 13.2 94.7994 16.2C89.8494 8.4 81.1494 1.95 72.1494 0C75.4494 8.55 73.6494 21.6 65.9994 26.55C66.8994 23.55 67.7994 20.1 68.3994 16.2C55.7994 20.55 46.4994 30.3 42.7494 42C37.3494 33.15 28.4994 29.25 19.1994 25.95C18.4494 34.8 18.8994 48.6 26.6994 54.3C14.2494 57.3 7.19941 66.6 0.899414 76.8C11.2494 80.1 22.0494 81.75 32.0994 76.2C32.6994 85.8 38.8494 93.9 47.2494 97.5ZM45.5994 51.9C46.0494 40.65 52.4994 30.6 61.7994 24.45C60.4494 28.95 58.7994 33.3 57.2994 37.8C69.8994 29.4 79.1994 25.05 78.1494 7.05C88.7994 12.9 92.5494 20.7 100.199 31.2C99.8994 24.3 100.049 23.25 99.2994 15.3C110.999 22.8 120.149 37.65 120.449 51.75C116.999 49.95 113.099 48.9 108.899 48.9H57.1494C53.5494 48.9 49.0494 50.1 45.5994 51.9Z" fill="#01013F"/>
</g>
<defs>
<linearGradient id="paint0_linear_107_245" x1="83.0573" y1="112.044" x2="83.0573" y2="82.6114" gradientUnits="userSpaceOnUse">
<stop stop-color="#006AFF"/>
<stop offset="1" stop-color="#0029FF"/>
</linearGradient>
<linearGradient id="paint1_linear_107_245" x1="83.4476" y1="53.0957" x2="83.4476" y2="22.2116" gradientUnits="userSpaceOnUse">
<stop stop-color="#FF4715"/>
<stop offset="1" stop-color="#FFFF00"/>
</linearGradient>
<linearGradient id="paint2_linear_107_245" x1="91.4855" y1="45.7377" x2="91.4855" y2="-4.95706" gradientUnits="userSpaceOnUse">
<stop stop-color="#F11F22"/>
<stop offset="1" stop-color="#F1A622"/>
</linearGradient>
<linearGradient id="paint3_linear_107_245" x1="83.0573" y1="81.0896" x2="83.0573" y2="115.501" gradientUnits="userSpaceOnUse">
<stop stop-color="#242BB2"/>
<stop offset="1" stop-color="#1446CC"/>
</linearGradient>
<linearGradient id="paint4_linear_107_245" x1="47.4104" y1="73.8818" x2="119.665" y2="73.8818" gradientUnits="userSpaceOnUse">
<stop stop-color="#0BDAD1"/>
<stop offset="0.505" stop-color="#7958EF"/>
<stop offset="1" stop-color="#EB00A7"/>
</linearGradient>
<linearGradient id="paint5_linear_107_245" x1="22.3848" y1="32.8575" x2="38.6229" y2="53.409" gradientUnits="userSpaceOnUse">
<stop stop-color="#006AFF"/>
<stop offset="1" stop-color="#0029FF"/>
</linearGradient>
<linearGradient id="paint6_linear_107_245" x1="7.56522" y1="73.8872" x2="33.9535" y2="63.7379" gradientUnits="userSpaceOnUse">
<stop stop-color="#242BB2"/>
<stop offset="1" stop-color="#1446CC"/>
</linearGradient>
<clipPath id="clip0_107_245">
<rect width="135" height="120" fill="white"/>
</clipPath>
</defs>
</svg>
