<svg width="114" height="121" viewBox="0 0 114 121" fill="none" xmlns="http://www.w3.org/2000/svg">
<g clip-path="url(#clip0_156_238)">
<path d="M56.4833 109.598C85.1929 109.598 108.467 85.659 108.467 56.1291C108.467 26.5992 85.1929 2.66052 56.4833 2.66052C27.7737 2.66052 4.5 26.5992 4.5 56.1291C4.5 85.659 27.7737 109.598 56.4833 109.598Z" fill="#EC1E24"/>
<path d="M68.1498 58.1864C68.0823 58.4794 68.0377 58.7775 68.0165 59.0779C67.6639 60.7019 66.9207 62.2089 65.8549 63.4609C64.7892 64.7128 63.435 65.6696 61.9165 66.2436C61.431 66.4462 60.936 66.6236 60.4332 66.775C59.2745 67.0808 58.0781 67.2079 56.8832 67.1522C55.6775 67.1992 54.4713 67.0723 53.2998 66.775C49.4665 65.4036 46.6332 63.3464 45.7332 59.0436C45.6994 58.7438 45.6493 58.4462 45.5832 58.1522C45.4568 57.92 45.2869 57.7161 45.0832 57.5522C44.5165 56.9693 43.9832 56.3522 43.4165 55.8379C43.4165 60.4493 44.5332 64.0836 46.8498 66.4836C48.1737 67.7917 49.7438 68.8072 51.4636 69.4676C53.1834 70.128 55.0165 70.4193 56.8498 70.3236C58.6855 70.4138 60.5196 70.1166 62.2394 69.4503C63.9592 68.784 65.5282 67.7627 66.8498 66.4493C69.1832 63.9979 70.1832 60.4493 70.1832 55.8036C69.8074 56.166 69.4513 56.5495 69.1165 56.9522C68.8832 57.3122 68.2998 57.7579 68.1498 58.1864Z" fill="#F2F2F2"/>
<path d="M75.1179 31.1181C75.1335 30.7314 75.0942 30.3445 75.0012 29.9695C74.8679 28.7866 74.6845 27.7066 74.5845 26.5409C74.4512 25.0152 74.5845 23.3181 74.3845 21.6895C74.3174 20.329 73.9036 19.0106 73.1845 17.8666C70.6679 13.7695 66.3345 11.2666 61.0179 10.0666C59.585 9.69123 58.1132 9.49552 56.6345 9.48376C53.8637 9.65413 51.1413 10.3092 48.5845 11.4209C46.364 12.2838 44.3308 13.5887 42.6012 15.2609C41.6432 16.0744 40.8543 17.0781 40.2816 18.212C39.7089 19.346 39.3641 20.5869 39.2679 21.8609C39.2679 23.3866 39.2679 25.1009 39.0845 26.6781C38.9012 28.2552 38.6512 29.5409 38.5679 31.1523C38.5679 31.1523 38.7012 31.1523 38.7345 31.0666C38.928 30.8699 39.134 30.6866 39.3512 30.5181C41.5126 28.8886 43.9082 27.6161 46.4512 26.7466C53.1276 24.0947 60.5248 24.0947 67.2012 26.7466C70.0061 27.6952 72.6206 29.1589 74.9179 31.0666C74.9179 31.0666 75.0679 31.2381 75.1179 31.1181Z" fill="#F2F2F2"/>
<path d="M75.2507 33.4664C75.1478 32.6698 74.7762 31.9356 74.2007 31.3921C74.2007 31.3921 74.034 31.1864 74.0007 31.3064C73.9719 31.534 73.9719 31.7645 74.0007 31.9921C74.0452 32.7286 74.0452 33.4671 74.0007 34.2036C73.8007 36.9807 73.784 40.2207 71.5173 40.8893C70.6493 41.0369 69.7599 40.9783 68.9173 40.7179C66.4173 40.135 64.484 39.1407 62.2507 38.3864C60.671 37.7956 59.0242 37.4154 57.3506 37.255C55.6166 37.2556 53.8961 37.5689 52.2673 38.1807C50.0007 38.8836 47.9006 39.895 45.6006 40.5464C44.7766 40.8234 43.9174 40.9736 43.0507 40.9921C40.834 40.9921 40.3007 38.9007 40.0673 36.7407C39.8277 34.9232 39.7441 33.0876 39.8173 31.255C39.1474 31.8402 38.7087 32.6572 38.584 33.5521C38.5986 34.3717 38.6543 35.1899 38.7506 36.0036C39.0006 38.9693 39.334 42.3636 42.084 42.5864C42.9943 42.6212 43.9018 42.4636 44.7507 42.1236C48.784 40.8207 51.6673 38.5407 56.834 38.5407C62.0007 38.5407 64.884 40.855 68.884 42.1236C69.7418 42.4515 70.6524 42.6085 71.5673 42.5864C74.7007 42.3807 74.9007 38.2321 75.084 34.9921C75.1712 34.4878 75.2268 33.9781 75.2507 33.4664V33.4664Z" fill="#C0272D"/>
<path d="M37.3666 38.2489C37.4666 39.6546 37.5999 41.0603 37.7499 42.3632C38.0666 45.0889 38.3499 47.8318 39.7666 49.3232C38.3666 44.5575 38.0999 38.6603 37.3666 33.1575C37.0855 34.8423 37.0855 36.5641 37.3666 38.2489V38.2489Z" fill="#4D4E4E"/>
<path d="M77.8342 32.4722C78.1196 32.5422 78.4163 32.5477 78.704 32.4885C78.9917 32.4294 79.2635 32.3068 79.5008 32.1294C79.9378 31.8222 80.2655 31.3768 80.4342 30.8608C80.4728 30.4274 80.4728 29.9913 80.4342 29.558C80.2675 26.7465 79.9008 23.1465 79.6842 20.6437C79.137 21.2037 78.4306 21.57 77.6675 21.6894C78.1082 25.2664 78.1641 28.8826 77.8342 32.4722V32.4722Z" fill="#4D4E4E"/>
<path d="M73.4664 30.8263C73.3831 30.6034 72.9164 30.312 72.7164 30.1577C70.6093 28.7399 68.3053 27.659 65.8831 26.952C62.662 25.853 59.2737 25.3651 55.8831 25.512C54.2946 25.5785 52.7128 25.7618 51.1497 26.0606C49.7603 26.3366 48.3905 26.7089 47.0497 27.1748C44.8654 27.8763 42.7932 28.9044 40.8997 30.2263C40.6331 30.4148 40.2664 30.6377 40.1997 30.8606C40.145 31.316 40.145 31.7766 40.1997 32.232C40.1997 32.7463 40.1164 33.2091 40.1997 33.5863C40.1997 34.5291 40.3497 35.3006 40.4497 36.2606C40.6664 37.9748 40.9664 39.6891 42.2164 40.3234C43.146 40.5481 44.1193 40.4885 45.0164 40.152C46.758 39.6084 48.4714 38.9733 50.1497 38.2491C51.2664 37.8206 52.4831 37.4606 53.7497 37.1177C55.0392 36.7452 56.3786 36.589 57.7164 36.6548C58.9235 36.7975 60.1131 37.0675 61.2664 37.4606C62.3997 37.7863 63.4997 38.2148 64.5997 38.6091C66.1842 39.3188 67.8232 39.8922 69.4997 40.3234C70.126 40.4877 70.7786 40.5169 71.4164 40.4091C73.0831 39.9291 73.3164 37.5463 73.5164 35.3691C73.5905 34.6174 73.6128 33.8612 73.5831 33.1063C73.5831 32.7463 73.5831 32.3177 73.5831 31.9234C73.5891 31.5541 73.5499 31.1855 73.4664 30.8263Z" fill="#C0272D"/>
<path d="M79.9826 42.0377C79.9265 42.719 80.0412 43.4037 80.316 44.0263C80.4174 44.359 80.6151 44.6521 80.8827 44.8663C81.4902 42.8287 81.9251 40.7409 82.1827 38.6263C82.4493 36.3977 82.716 33.6891 81.5493 32.2148C81.7442 33.9427 81.591 35.6934 81.0993 37.3577C80.5898 38.8796 80.216 40.4461 79.9826 42.0377V42.0377Z" fill="#4D4E4E"/>
<path d="M76.3495 38.2494C76.646 36.5775 76.646 34.8642 76.3495 33.1923C75.9718 38.635 75.1862 44.0396 73.9995 49.358C73.9995 49.358 73.9995 49.358 73.9995 49.358C75.4328 47.8837 75.6662 45.1237 76.0162 42.398C76.0995 41.0265 76.2495 39.6208 76.3495 38.2494Z" fill="#4D4E4E"/>
<path d="M76.1988 16.9923C76.6398 17.8954 76.9702 18.8513 77.1821 19.8381C77.6488 19.6495 78.0821 19.4095 78.5321 19.1866C77.7755 14.7648 75.6332 10.719 72.4321 7.66663C72.5446 8.11169 72.534 8.58022 72.4015 9.01941C72.269 9.4586 72.0198 9.85098 71.6821 10.1523C73.6611 12.0606 75.2037 14.3967 76.1988 16.9923Z" fill="#4D4E4E"/>
<path d="M78.2838 33.7405C77.9172 33.7405 77.5672 33.4662 77.3505 33.4662C77.9252 38.6591 77.4195 43.9183 75.8672 48.8948C77.5339 48.1576 79.6838 47.8662 80.4005 46.1348C79.834 45.7358 79.3811 45.1888 79.0881 44.5501C78.7952 43.9113 78.6729 43.2039 78.7338 42.5005C78.8672 39.6891 81.0505 36.8776 80.7672 32.4719C80.4948 32.8857 80.1229 33.22 79.6878 33.4423C79.2526 33.6646 78.769 33.7673 78.2838 33.7405V33.7405Z" fill="#C0272D"/>
<path d="M60.5492 53.9181C60.2235 53.7738 59.8822 53.6702 59.5326 53.6095C59.1026 53.6185 58.6737 53.6586 58.2492 53.7295C57.7992 53.7295 57.3159 53.7295 56.8492 53.7295C56.3826 53.7295 55.9159 53.7295 55.4492 53.7295C54.9065 53.5808 54.337 53.5686 53.7887 53.6939C53.2405 53.8192 52.7296 54.0784 52.2992 54.4495C51.7881 54.8142 51.4029 55.3364 51.1992 55.941C52.9755 56.7633 54.9013 57.1885 56.8492 57.1885C58.7971 57.1885 60.7229 56.7633 62.4992 55.941C62.3341 55.4797 62.0746 55.0604 61.7381 54.7114C61.4017 54.3624 60.9962 54.0918 60.5492 53.9181V53.9181Z" fill="#C0272D"/>
<path d="M61.5166 50.0435C60.183 50.4264 58.8148 50.6677 57.4333 50.7635C55.7162 50.7969 54.0036 50.5716 52.35 50.0949C51.0063 49.5685 49.568 49.3463 48.1333 49.4435C48.4166 49.9063 48.4666 50.6949 48.8 51.1577C49.2354 51.6008 49.7752 51.9198 50.3666 52.0835C53.9398 53.1916 57.7228 53.38 61.3833 52.632C62.55 52.392 64.35 51.9635 64.9 51.1406C65.1598 50.5833 65.388 50.0109 65.5833 49.4263C64.2018 49.3611 62.821 49.5706 61.5166 50.0435Z" fill="white"/>
<path d="M72.1497 47.8494C72.0355 48.0752 71.8765 48.2738 71.683 48.4323C72.3814 47.1148 72.9402 45.724 73.3497 44.2837C72.1502 44.8028 70.8672 45.0877 69.5663 45.1237C67.033 45.2437 62.5497 44.198 58.9997 44.0266C56.5239 43.8973 54.0419 43.9949 51.583 44.318C49.2746 44.748 46.9422 45.0285 44.5997 45.158C43.184 45.1357 41.7839 44.8512 40.4663 44.318C40.8586 45.7665 41.3716 47.1774 41.9997 48.5352C41.3663 47.7294 40.8163 46.8209 40.333 45.9637C40.5836 48.245 41.336 50.4375 42.533 52.3752C43.7184 54.0329 45.0161 55.6025 46.4163 57.0723C47.7431 58.6026 49.1567 60.0508 50.6497 61.4094C52.4475 62.851 54.6618 63.6339 56.9413 63.6339C59.2209 63.6339 61.4352 62.851 63.233 61.4094C64.7166 60.0463 66.1244 58.5983 67.4497 57.0723C70.133 54.038 73.0663 51.1923 73.5163 45.9637C73.0925 46.616 72.6363 47.2454 72.1497 47.8494V47.8494ZM53.183 46.8209C54.2038 47.5168 55.3304 48.0324 56.5163 48.3466C58.183 48.5523 59.4163 47.2494 60.5663 46.8552C60.5663 47.3352 60.0497 47.6266 59.683 47.9352C59.3163 48.2437 58.6997 49.1694 57.6163 49.2723C57.1225 49.3066 56.6269 49.3066 56.133 49.2723C55.0663 49.1866 54.683 48.5523 54.033 47.9694C53.7163 47.6952 53.2163 47.318 53.133 46.8552L53.183 46.8209ZM56.9163 61.3409C55.7642 61.4087 54.616 61.1505 53.5964 60.5944C52.5769 60.0383 51.7249 59.2056 51.133 58.1866C51.133 58.1866 51.133 58.1866 51.133 58.1866C52.774 59.5096 54.8375 60.1519 56.9163 59.9866C58.0437 60.0268 59.1698 59.8762 60.2497 59.5409C61.1027 59.1824 61.9089 58.716 62.6497 58.1523C62.0593 59.1633 61.2158 59.9926 60.2072 60.5535C59.1986 61.1144 58.0621 61.3864 56.9163 61.3409V61.3409ZM66.9163 50.078C66.733 49.9237 66.5663 49.7523 66.3997 49.6323C66.2663 50.4894 66.033 51.2094 65.8497 51.9466C65.3997 53.6609 65.6997 55.3752 62.233 56.8666C60.7421 57.456 59.1632 57.775 57.5663 57.8094C56.2772 57.8291 54.9888 57.7315 53.7163 57.518C52.5274 57.3553 51.3886 56.9219 50.383 56.2494C48.1497 54.8952 48.383 53.7466 47.983 52.2209C47.7497 51.3809 47.4997 50.5066 47.333 49.6666C47.0656 49.8552 46.8146 50.0674 46.583 50.3009C46.583 50.3009 46.4497 50.5237 46.383 50.438C46.8663 49.4437 47.3163 48.4152 47.733 47.3352C47.933 47.558 47.833 48.2094 47.8163 48.5523C48.8244 48.4094 49.8512 48.5333 50.7997 48.9123C52.7628 49.5626 54.8049 49.9261 56.8663 49.9923C58.9282 49.9312 60.9711 49.5675 62.933 48.9123C63.8702 48.5348 64.8845 48.4051 65.883 48.5352C65.883 48.2437 65.883 47.5752 65.9663 47.318C66.1912 47.7263 66.3595 48.1648 66.4663 48.6209C66.5663 48.8266 66.733 48.998 66.833 49.2209C66.9622 49.6363 67.1296 50.0381 67.333 50.4209C67.233 50.4723 67.033 50.2494 66.9163 50.078Z" fill="#FCCB8A"/>
<path d="M20.8661 75.4153C20.6334 74.0801 20.2589 72.7752 19.7495 71.5239C19.6464 74.7518 18.5946 77.8718 16.7328 80.4725C16.7328 80.4725 16.7328 80.4725 16.7328 80.4725C17.1307 79.481 17.3889 78.4362 17.4995 77.3696C17.6328 76.2725 17.9328 75.1925 18.0161 74.0782C18.2496 71.6785 18.2496 69.2608 18.0161 66.8611C17.5161 62.3696 16.3495 58.0668 15.8661 53.7811C15.5201 53.7982 15.1741 53.745 14.8481 53.6244C14.522 53.5038 14.2223 53.3182 13.9661 53.0782C15.0409 52.5616 16.0627 51.9357 17.0162 51.2096C18.3899 50.107 19.5539 48.7529 20.4495 47.2153C20.5661 47.0611 20.7662 46.9068 20.7328 46.7525C20.3079 46.6507 19.9023 46.4769 19.5328 46.2382C19.3495 46.1353 19.0995 46.0839 19.0328 45.8611C19.9995 45.7411 21.0995 45.9982 22.1328 45.8611C22.7662 45.8611 23.3995 45.7582 23.9495 45.6553C24.4995 45.5525 24.8828 45.0039 25.3495 44.8839C25.0662 45.8268 24.1661 46.1696 23.3995 46.5982C23.0328 46.8211 22.6828 47.0096 22.3495 47.2325C22.3495 47.2325 22.0662 47.4211 22.1328 47.4553C23.0151 47.4466 23.8629 47.1018 24.5124 46.4875C25.162 45.8733 25.5671 45.0332 25.6495 44.1296C25.6661 44.0448 25.6661 43.9574 25.6495 43.8725C25.4828 42.3125 22.9828 42.4839 21.5161 42.2782C20.0495 42.0725 19.1328 41.7811 18.7162 40.7525C20.5328 41.3182 23.4495 40.9068 25.3828 41.3696C25.5495 40.3411 25.3828 39.3639 24.7661 38.9525C24.1765 38.6826 23.5439 38.5257 22.8995 38.4896C22.2161 38.3868 21.4661 38.3182 20.8328 38.1982C19.6061 38.0997 18.4403 37.608 17.4995 36.7925C17.2569 36.447 17.045 36.0798 16.8662 35.6953C17.3995 35.9011 17.8995 36.2611 18.5328 36.4668C20.5478 36.9908 22.6074 37.3123 24.6828 37.4268C24.6828 34.8725 22.8328 34.3582 20.6495 33.8782C17.8328 33.2782 16.0162 33.1411 15.6495 31.7868C16.9257 32.2367 18.2536 32.5133 19.5995 32.6096C19.9328 32.2325 19.8328 31.4268 20.1662 31.0325C20.3922 31.5746 20.4276 32.1808 20.2661 32.7468C20.9828 32.8496 21.7828 32.8668 22.5162 32.9696C22.2157 32.1868 21.7553 31.4794 21.1661 30.8953C20.6919 30.2274 20.0837 29.6721 19.3828 29.2668C17.9837 28.9026 16.5017 29.1116 15.2495 29.8496C13.5828 30.5696 12.1495 31.5639 10.5495 32.2153C11.1744 31.133 11.8941 30.1117 12.6995 29.1639C12.4515 28.146 12.0024 27.1914 11.3802 26.3597C10.758 25.528 9.97594 24.837 9.08282 24.3296C8.43536 23.9109 7.68051 23.7018 6.91615 23.7296C6.63443 23.7443 6.36338 23.8451 6.13771 24.0192C5.91205 24.1933 5.74204 24.4327 5.64948 24.7068C5.64948 25.3411 6.19948 26.0953 6.54948 26.6611C7.87511 28.6725 8.46555 31.1017 8.21615 33.5182C8.0391 35.1713 7.7495 36.8096 7.34948 38.4211C6.98282 39.9811 6.61615 41.5068 6.31615 43.1353C5.34948 48.2782 5.74948 52.8211 4.04948 63.8953C3.32427 67.2948 2.98865 70.7699 3.04948 74.2496C3.42988 77.2335 4.54896 80.0669 6.29948 82.4782C7.02241 83.6253 7.83629 84.709 8.73282 85.7182C9.17672 86.3173 9.75283 86.7993 10.4136 87.1242C11.0743 87.4491 11.8007 87.6077 12.5328 87.5868C14.0557 87.393 15.5368 86.9411 16.9161 86.2496C18.2828 85.6839 19.4828 85.1696 20.8328 84.5353C22.0161 81.8782 21.4161 78.1239 20.8661 75.4153Z" fill="#FCCB8A"/>
<path d="M91.4999 86.4549C91.3429 86.2265 91.2035 85.9858 91.0832 85.7349C90.4036 84.1167 90.1507 82.3429 90.3499 80.5921C90.4048 79.1312 90.5945 77.6789 90.9166 76.2549C91.3285 74.0572 92.1369 71.9581 93.2999 70.0664C93.4853 69.8359 93.6421 69.5825 93.7666 69.3121C93.7979 68.9013 93.7979 68.4886 93.7666 68.0778C93.7249 67.2383 93.7249 66.3972 93.7666 65.5578C93.8116 65.1419 93.8116 64.7222 93.7666 64.3064C93.7666 64.1349 93.1332 63.8264 92.8832 63.6549C91.9166 62.9864 90.9499 62.3349 90.0832 61.7006C89.201 60.9782 88.2831 60.303 87.3332 59.6778C86.8354 59.3315 86.2637 59.1139 85.6666 59.0435C85.9666 58.5978 86.7832 58.4949 87.5332 58.5978C87.6166 58.5978 87.5332 58.4606 87.5332 58.4435C87.0767 58.0841 86.5785 57.7847 86.0499 57.5521C81.8166 55.4949 77.1999 53.6778 72.8166 51.9635C72.5099 52.5581 72.1647 53.1309 71.7832 53.6778C71.6289 53.8614 71.505 54.0699 71.4166 54.2949C71.384 54.637 71.384 54.9815 71.4166 55.3235C71.4366 56.3631 71.3585 57.4023 71.1832 58.4264C70.8582 61.8639 69.4474 65.0973 67.1666 67.6321C65.5783 69.1362 63.6643 70.2293 61.5832 70.8206C61.0373 71.0006 60.4806 71.1438 59.9166 71.2492C58.5624 71.4238 57.1956 71.4697 55.8332 71.3864C55.1332 71.3864 54.4332 71.3864 53.7832 71.2492C52.8628 71.0593 51.9596 70.7898 51.0832 70.4435C48.6271 69.6536 46.4979 68.0427 45.0332 65.8664C42.9972 62.3999 42.0595 58.3681 42.3499 54.3292C41.8107 53.5713 41.3154 52.7814 40.8666 51.9635C37.1166 53.5064 33.1832 55.0835 29.5666 56.7635C28.4901 57.237 27.4581 57.8109 26.4832 58.4778C26.3666 58.5635 26.1499 58.6664 26.1999 58.7692C26.5256 58.683 26.8666 58.6784 27.1944 58.756C27.5221 58.8336 27.827 58.991 28.0832 59.2149C27.4349 59.2632 26.812 59.4946 26.2832 59.8835C25.9496 60.0668 25.6318 60.279 25.3332 60.5178C23.8805 61.7003 22.3612 62.7936 20.7832 63.7921C20.5332 63.9635 19.9332 64.3235 19.8832 64.4778C19.8468 64.8826 19.8468 65.2901 19.8832 65.6949C19.9246 66.5401 19.9246 67.3869 19.8832 68.2321C19.8527 68.6486 19.8527 69.067 19.8832 69.4835C20.0239 69.7761 20.2034 70.0473 20.4166 70.2892C21.7056 72.4081 22.5566 74.7773 22.9166 77.2492C23.4332 80.2492 23.7832 84.4492 22.1832 86.5406C21.7966 86.9755 21.3327 87.3305 20.8166 87.5864C20.2927 87.8696 19.7311 88.0718 19.1499 88.1864C19.5802 88.4458 20.0679 88.5875 20.5666 88.5978C21.1476 88.4826 21.6883 88.2104 22.1332 87.8092C22.6166 87.4492 23.0332 87.0549 23.4332 86.7121C26.1303 84.5901 29.0023 82.7144 32.0166 81.1064C32.2234 77.0473 32.0503 72.9771 31.4999 68.9521C31.0357 65.6418 29.8132 62.4924 27.9332 59.7635C31.7832 63.0549 33.2332 68.5406 33.9999 74.9521C34.234 76.6092 34.3288 78.2839 34.2832 79.9578C34.1832 81.6721 33.9666 83.2492 33.8332 84.8778C33.8267 89.0359 34.7445 93.1405 36.5166 96.8778C35.4943 95.5779 34.6374 94.1493 33.9666 92.6264C34.0602 95.8807 33.9656 99.1379 33.6832 102.381C33.4666 104.918 32.9999 107.524 32.7666 110.249C32.6939 110.628 32.6548 111.012 32.6499 111.398C32.6499 111.621 33.3999 112.135 33.6832 112.358C36.5766 114.391 39.7667 115.936 43.1332 116.935C45.2362 117.605 47.3797 118.132 49.5499 118.512C54.3214 119.472 59.2285 119.472 63.9999 118.512C69.6636 117.682 75.0805 115.581 79.8666 112.358C80.1832 112.101 80.8666 111.638 80.9166 111.398C80.9273 111.024 80.8938 110.649 80.8166 110.283C80.5499 107.541 80.1166 104.986 79.8832 102.381C79.6214 99.1366 79.5213 95.8809 79.5832 92.6264C78.9443 94.1589 78.097 95.5904 77.0666 96.8778C77.0666 96.8778 77.0666 96.8778 77.0666 96.8778C77.2666 96.3806 77.4332 95.9006 77.6332 95.3692C77.8332 94.8378 80.0666 88.9578 79.7332 84.9635C79.5832 83.2492 79.3666 81.7064 79.2832 80.0778C79.2284 78.3924 79.3233 76.7054 79.5666 75.0378C80.3166 68.6264 81.7666 63.0378 85.6332 59.8835C84.7963 61.1996 84.05 62.5744 83.3999 63.9978C82.7246 65.6052 82.2702 67.3015 82.0499 69.0378C81.5055 73.0634 81.3381 77.1335 81.5499 81.1921C84.5302 82.7753 87.3641 84.6344 90.0166 86.7464C90.7932 87.5962 91.752 88.2478 92.8166 88.6492C93.4023 88.7261 93.9952 88.5798 94.4832 88.2378C93.3224 88.0049 92.2715 87.3769 91.4999 86.4549V86.4549Z" fill="#F2F2F2"/>
<path d="M109.685 63.8438C108.018 52.7181 108.385 48.1924 107.418 43.0838C106.685 39.1753 105.751 36.4496 105.518 33.4667C105.26 31.0496 105.851 28.6173 107.185 26.6096C107.618 25.9067 108.468 24.8953 107.835 24.1581C107.492 23.8878 107.083 23.7207 106.653 23.6753C106.224 23.6299 105.79 23.708 105.401 23.901C104.313 24.3408 103.345 25.0467 102.581 25.9577C101.817 26.8687 101.281 27.9574 101.018 29.1296C101.825 30.0621 102.534 31.0791 103.135 32.1638C100.685 31.0838 100.418 30.7067 98.8345 29.9696C97.6589 29.3063 96.3419 28.9529 95.0012 28.941C94.0553 29.1501 93.2182 29.7119 92.6512 30.5181C92.3434 30.8676 92.054 31.2338 91.7845 31.6153C91.4531 31.979 91.2128 32.4203 91.0845 32.901C91.8012 32.781 92.7512 32.8153 93.3178 32.6438C93.233 32.3784 93.204 32.0975 93.2327 31.8197C93.2615 31.5419 93.3473 31.2735 93.4845 31.0324C93.7178 31.5124 93.6678 32.2667 94.0178 32.6096C95.3624 32.5032 96.689 32.2268 97.9678 31.7867C97.5845 32.9696 96.3012 33.1924 94.9512 33.501L92.2345 34.101C90.3845 34.5296 88.9012 35.181 88.9012 37.4438C90.9824 37.3333 93.048 37.0118 95.0678 36.4838C95.6678 36.261 96.1345 35.901 96.7345 35.7467C96.533 36.1198 96.3104 36.4804 96.0678 36.8267C95.0012 38.0953 91.9678 38.3181 90.7178 38.541C90.0633 38.5814 89.4205 38.738 88.8178 39.0038C88.1345 39.4153 88.0512 40.4096 88.2012 41.421C90.1845 40.9581 93.0345 41.421 94.8678 40.8038C94.4178 41.8153 93.4012 42.141 92.0345 42.3296C90.7874 42.3282 89.5506 42.5606 88.3845 43.0153C87.3345 43.8553 88.2178 45.7924 88.9678 46.4438C89.6597 47.064 90.5345 47.4263 91.4512 47.4724C90.5678 46.5467 88.6512 46.2724 88.2345 44.8667C88.6678 45.021 89.1012 45.5524 89.6012 45.6381C90.1012 45.7238 90.8178 45.7924 91.4512 45.8438C92.4779 45.7758 93.5078 45.7758 94.5345 45.8438C94.0503 46.2573 93.48 46.5506 92.8678 46.701C93.6968 48.0304 94.6394 49.281 95.6845 50.4381C96.2727 50.9654 96.9027 51.4414 97.5678 51.861C98.2178 52.3067 98.9512 52.6667 99.6512 53.061C99.1184 53.515 98.4426 53.7528 97.7512 53.7296C97.2012 58.1353 96.0845 62.301 95.6012 66.861C95.3507 69.2713 95.3507 71.7021 95.6012 74.1124C95.7178 75.2267 95.9845 76.341 96.1345 77.421C96.2605 78.4698 96.524 79.4963 96.9178 80.4724C96.0459 79.2777 95.3548 77.9541 94.8678 76.5467C94.4332 74.9099 94.1157 73.2426 93.9178 71.5581C93.6119 72.3594 93.3504 73.1778 93.1345 74.0096C92.3678 77.0953 91.5512 81.3981 92.9178 84.5696C94.2678 85.221 95.4345 85.7696 96.8012 86.2838C98.1711 86.9502 99.6327 87.3954 101.134 87.6038C101.867 87.6276 102.594 87.4702 103.256 87.1451C103.917 86.82 104.492 86.3365 104.934 85.7353C105.842 84.7266 106.667 83.6429 107.401 82.4953C109.152 80.0795 110.266 77.239 110.635 74.2496C110.778 72.4421 110.711 70.6235 110.434 68.8324C110.251 67.1353 109.935 65.5067 109.685 63.8438Z" fill="#FCCB8A"/>
<path d="M33.7339 42.8781C33.7512 41.9554 33.6275 41.0356 33.3672 40.1524C32.4728 37.6111 32.0653 34.9158 32.1672 32.2152C32.1672 32.2152 32.1672 32.2152 32.1672 32.2152C31.6103 33.1054 31.3098 34.1396 31.3005 35.1981C31.288 36.3462 31.3716 37.4933 31.5505 38.6266C31.7808 40.7445 32.2106 42.8343 32.8339 44.8666C33.1005 44.7295 33.2505 44.3524 33.4005 44.0266C33.5764 43.6669 33.6892 43.2781 33.7339 42.8781V42.8781Z" fill="#4D4E4E"/>
<path d="M36.3494 33.4493C36.0387 33.566 35.7215 33.6634 35.3994 33.7407C34.8996 33.749 34.4061 33.6258 33.9656 33.3828C33.5252 33.1397 33.1524 32.785 32.8827 32.3522C32.8091 34.8674 33.2995 37.3662 34.316 39.655C34.7788 40.8405 34.9781 42.1173 34.8994 43.3922C34.8376 43.9358 34.6646 44.4597 34.3916 44.9295C34.1187 45.3993 33.7522 45.8044 33.316 46.1179C34.0327 47.8322 36.1827 48.1922 37.8327 48.8265C36.2864 43.8664 35.7809 38.6253 36.3494 33.4493V33.4493Z" fill="#C0272D"/>
<path d="M55.4827 5.48901H58.2494C60.6651 5.52142 63.0716 5.80282 65.4327 6.32901C67.515 6.70692 69.5314 7.40016 71.416 8.38615C71.2081 7.07136 70.5807 5.86514 69.6327 4.95758C68.7085 4.42089 67.707 4.03897 66.666 3.82615C60.0578 2.16431 53.1523 2.21142 46.566 3.9633C45.6856 4.14335 44.8406 4.47362 44.066 4.94044C43.1108 5.84221 42.4819 7.05121 42.2827 8.36901C44.1674 7.38302 46.1838 6.68977 48.266 6.31187C50.6377 5.78304 53.056 5.5073 55.4827 5.48901V5.48901Z" fill="#4D4E4E"/>
<path d="M34.2664 32.0952C34.501 32.2786 34.7716 32.4072 35.0594 32.4724C35.3472 32.5375 35.6453 32.5375 35.933 32.4724C35.6473 28.8777 35.7479 25.2615 36.233 21.6895C35.4734 21.5334 34.7633 21.1859 34.1664 20.6781C34.1664 22.3067 33.6664 26.421 33.4664 29.5581C33.4188 29.9967 33.4188 30.4395 33.4664 30.8781C33.6028 31.3599 33.8826 31.7855 34.2664 32.0952Z" fill="#4D4E4E"/>
<path d="M39.15 17.4211C39.4 16.3926 39.8333 15.5526 40.0833 14.524C38.66 16.553 37.7338 18.9053 37.3833 21.3811C37.1999 23.5583 37.5833 26.0097 37.4999 28.2383C37.272 29.3772 37.3293 30.557 37.6666 31.6668C37.6666 29.1468 38.4833 27.0554 38.5666 24.6211C38.5666 23.7811 38.5666 22.9068 38.5666 22.0326C38.6011 20.6617 38.9158 19.3138 39.49 18.0762C40.0643 16.8387 40.8854 15.7394 41.9 14.8497C43.7294 13.049 45.8876 11.639 48.2499 10.7011C49.5108 10.1558 50.8158 9.72559 52.1499 9.41542C55.1668 8.61111 58.3331 8.61111 61.3499 9.41542C62.6989 9.73084 64.0201 10.1609 65.2999 10.7011C67.6633 11.6369 69.8219 13.0472 71.6499 14.8497C72.6637 15.7401 73.4842 16.8396 74.0584 18.0769C74.6326 19.3143 74.9477 20.6619 74.9833 22.0326C74.9833 22.924 74.9833 23.7468 74.9833 24.604C74.9833 27.0897 75.8166 29.1811 75.8999 31.6668C76.1569 30.1036 76.2018 28.5113 76.0333 26.9354C76.187 25.289 76.2426 23.6345 76.1999 21.9811C76.014 19.3639 75.1697 16.8415 73.7499 14.6611C73.7499 14.6611 73.7499 14.524 73.6333 14.5411C73.8499 15.5183 74.3666 16.5126 74.5333 17.3868C74.154 16.6211 73.7252 15.8823 73.25 15.1754C72.7833 14.4897 72.4333 13.7526 71.9333 13.1183C71.4419 12.4844 70.8829 11.9094 70.2666 11.404C69.645 10.8483 68.9345 10.4075 68.1666 10.1011C67.2083 9.83957 66.2338 9.64484 65.2499 9.51828C60.1939 8.21629 54.9158 8.11662 49.8166 9.22685C47.9211 9.39664 46.0671 9.8951 44.3333 10.7011C43.7398 11.0944 43.182 11.542 42.6666 12.0383C41.6646 13.0526 40.8062 14.2067 40.1166 15.4668C39.8333 16.1354 39.5 16.804 39.15 17.4211Z" fill="#C0272D"/>
<path d="M37.4833 16.992C38.5163 14.4037 40.0664 12.0676 42.0333 10.1349C41.3333 9.79204 41.2 8.72919 41.25 7.68347C38.0976 10.7529 35.9932 14.7874 35.25 19.1863C35.7 19.4092 36.1167 19.6492 36.5833 19.8378C36.793 18.8614 37.0944 17.9084 37.4833 16.992V16.992Z" fill="#4D4E4E"/>
<path d="M42.5332 9.19182C43.4499 9.8261 44.4999 9.19182 45.3332 8.96896C52.8745 6.81999 60.8419 6.81999 68.3832 8.96896C69.2165 9.2261 70.3832 9.84325 71.1665 9.17468C66.6934 7.10876 61.8163 6.13482 56.9165 6.32896C51.9694 6.09947 47.04 7.08063 42.5332 9.19182V9.19182Z" fill="#4D4E4E"/>
<path d="M44.8326 19.3919C45.338 17.1057 46.2659 14.9407 47.566 13.0148C47.566 13.0148 47.566 13.0148 47.566 13.0148C46.4107 13.7726 45.2978 14.5968 44.2326 15.4833C43.2099 16.4463 42.3878 17.6127 41.816 18.9119C40.8047 21.301 40.3756 23.9079 40.566 26.5062C40.5467 27.3962 40.6477 28.2847 40.866 29.1462C40.8838 29.1976 40.9122 29.2444 40.9493 29.2833C41.9905 28.6312 43.0768 28.0582 44.1993 27.5691C44.1685 24.8292 44.3805 22.0922 44.8326 19.3919V19.3919Z" fill="#CCCBCB"/>
<path d="M55.9328 25.5122C54.3443 25.5787 52.7625 25.762 51.1994 26.0608C49.8099 26.3368 48.4401 26.7091 47.0994 27.175C44.9742 27.8542 42.9539 28.8412 41.0994 30.1065C41.0857 30.2031 41.0857 30.3013 41.0994 30.3979C40.6994 33.1579 40.7328 36.9979 41.8494 38.7636C42.1147 39.1692 42.4897 39.486 42.9281 39.6748C43.3664 39.8637 43.8489 39.9164 44.3161 39.8265C44.7413 39.6911 45.1587 39.5309 45.5661 39.3465C46.9161 38.8665 48.1494 38.5065 49.3994 37.9408C48.4528 38.0347 47.4978 37.9827 46.5661 37.7865C46.217 37.6507 45.9033 37.4336 45.6494 37.1522C45.3684 36.9348 45.1211 36.6747 44.9161 36.3808C44.4565 35.2609 44.3975 34.0097 44.7494 32.8493C44.9496 31.8325 45.3526 30.8694 45.9328 30.0208C46.262 29.7419 46.6197 29.5005 46.9994 29.3008C50.0457 27.5351 53.5047 26.6634 56.9994 26.7808C60.4591 26.695 63.8779 27.5653 66.8994 29.3008C67.2844 29.505 67.6428 29.7585 67.9661 30.055C68.2512 30.4583 68.4759 30.9032 68.6328 31.375C69.0137 32.1434 69.2382 32.9836 69.2926 33.8443C69.3471 34.705 69.2303 35.5681 68.9494 36.3808C68.7555 36.6937 68.5069 36.9669 68.2161 37.1865C67.9595 37.4564 67.6458 37.6617 67.2994 37.7865C67.0828 37.7865 66.8494 37.7865 66.6161 37.8722C65.9024 37.9677 65.1797 37.9677 64.4661 37.8722C65.7494 38.3693 67.0161 38.8322 68.2994 39.2779C68.7238 39.4727 69.1645 39.6277 69.6161 39.7408C70.0549 39.8123 70.5044 39.7535 70.9119 39.5713C71.3193 39.3891 71.6677 39.0911 71.9161 38.7122C72.9994 36.8779 73.0328 33.055 72.6494 30.3636C72.6494 30.2608 72.6494 30.1579 72.5661 30.055C70.503 28.6916 68.257 27.6462 65.8994 26.9522C62.6889 25.8573 59.3123 25.3694 55.9328 25.5122V25.5122Z" fill="#971B1E"/>
<path d="M73.1496 26.6266C73.3829 21.6038 71.9329 17.7638 69.4329 15.5523C68.9058 15.0914 68.3489 14.6676 67.7663 14.2838C67.2363 13.8578 66.6796 13.4683 66.0996 13.118C68.6996 16.4438 69.5996 21.6895 69.5496 27.6552C70.7031 28.135 71.8177 28.7082 72.8829 29.3695C72.892 29.3127 72.892 29.2548 72.8829 29.198C73.0753 28.3556 73.1648 27.4918 73.1496 26.6266V26.6266Z" fill="#CCCBCB"/>
<path d="M22.5488 36.2608C22.2988 36.2608 22.0488 36.2608 21.8155 36.2608C19.8354 36.072 17.8927 35.5869 16.0488 34.8208C16.0488 34.8208 16.0488 34.8208 16.0488 34.8208C16.431 35.3792 16.8545 35.9065 17.3155 36.3979C17.2155 36.2094 17.0988 36.0208 16.9988 35.7979C17.5322 36.0037 18.0322 36.3637 18.6655 36.5694C20.6804 37.0934 22.7401 37.4149 24.8155 37.5294V37.3408C24.5483 36.9885 24.2033 36.7067 23.8091 36.5189C23.4149 36.3311 22.9829 36.2426 22.5488 36.2608V36.2608Z" fill="#ECAB5F"/>
<path d="M94.8492 35.7468C93.86 36.0407 92.8431 36.2246 91.8158 36.2954H91.0825C90.6831 36.2877 90.2868 36.3695 89.9212 36.5353C89.5557 36.7011 89.2297 36.9468 88.9658 37.2554C88.9731 37.3409 88.9731 37.427 88.9658 37.5125C91.0471 37.402 93.1126 37.0805 95.1325 36.5525C95.7325 36.3297 96.1991 35.9697 96.7991 35.8154L96.5325 36.2611C96.9415 35.802 97.3201 35.3152 97.6658 34.804C96.7478 35.1807 95.8069 35.4956 94.8492 35.7468V35.7468Z" fill="#ECAB5F"/>
<path d="M16.916 39.8093C17.242 40.1276 17.6129 40.3935 18.016 40.5979C18.2751 40.7901 18.5547 40.9511 18.8493 41.0779H19.0827C19.0079 40.9658 18.9464 40.845 18.8993 40.7179C20.716 41.2836 23.6327 40.8722 25.566 41.335C25.5893 41.0785 25.5893 40.8202 25.566 40.5636C24.9701 40.3023 24.3304 40.1625 23.6827 40.1522C21.4327 39.9636 18.9493 40.0665 16.916 39.8093Z" fill="#ECAB5F"/>
<path d="M96.4506 40.1522C96.5839 40.0493 96.7839 39.9293 96.7672 39.8093C95.5006 39.8093 94.2006 40.0836 92.6006 40.0836C91.9339 40.0836 91.2672 40.0836 90.6339 40.1693C89.7812 40.1604 88.934 40.3114 88.1339 40.615C88.1181 40.8834 88.1181 41.1524 88.1339 41.4208C90.1172 40.9579 92.9672 41.4208 94.8006 40.8036C94.7495 40.9233 94.6882 41.038 94.6172 41.1465L94.9672 41.0093C95.4888 40.7764 95.9859 40.4892 96.4506 40.1522V40.1522Z" fill="#ECAB5F"/>
<path d="M42.2832 45.7065C44.8831 46.2041 47.5499 46.2041 50.1498 45.7065C51.4929 47.276 53.0086 48.6797 54.6665 49.8894C55.3893 50.0011 56.119 50.0584 56.8498 50.0608C57.5412 50.0552 58.2316 50.0036 58.9165 49.9065C60.4109 48.8698 61.7814 47.6557 62.9998 46.2894C63.1498 46.1179 63.3832 45.7408 63.5332 45.7065C63.7697 45.7237 64.0041 45.7638 64.2332 45.8265C65.5652 46.0587 66.916 46.1563 68.2665 46.1179C69.7604 46.1606 71.2468 45.8863 72.6332 45.3122C72.8238 45.2015 72.9978 45.0629 73.1498 44.9008L73.2998 44.3522C72.1004 44.8713 70.8174 45.1562 69.5165 45.1922C66.9832 45.3122 62.4998 44.2665 58.9498 44.0951C56.4741 43.9658 53.9921 44.0633 51.5332 44.3865C49.2248 44.8165 46.8924 45.097 44.5498 45.2265C43.1342 45.2042 41.734 44.9196 40.4165 44.3865C40.4621 44.5893 40.5177 44.7895 40.5832 44.9865C40.7029 45.1188 40.8438 45.229 40.9998 45.3122C41.4097 45.4988 41.8409 45.6312 42.2832 45.7065V45.7065ZM54.6498 45.2951C56.0951 45.4664 57.5546 45.4664 58.9998 45.2951C58.6332 45.6036 58.1832 45.8094 57.8332 46.1351C59.1808 45.9329 60.5163 45.6525 61.8332 45.2951C61.8332 45.4151 61.7332 45.4665 61.6665 45.5351C60.7718 46.4876 59.7299 47.2812 58.5832 47.8836L58.2165 48.0894C59.1165 47.7294 59.8832 47.0951 60.6165 46.8551C60.6165 47.3351 60.0998 47.6265 59.7332 47.9351C59.3665 48.2436 58.7498 49.1694 57.6665 49.2722C57.1726 49.3065 56.6771 49.3065 56.1832 49.2722C55.1165 49.1865 54.7332 48.5522 54.0832 47.9694C53.7665 47.6951 53.2665 47.3179 53.1832 46.8551C53.8665 47.1979 54.5665 47.6951 55.3332 48.0379L55.1165 47.9179C53.8743 47.2499 52.748 46.3753 51.7832 45.3294C53.1665 45.4494 54.2832 46.0665 55.8165 46.1351C55.4537 45.8186 55.0631 45.5374 54.6498 45.2951V45.2951Z" fill="#ECAB5F"/>
<path d="M46.7329 50.1465C46.9655 50.9118 47.3776 51.6066 47.9329 52.1693V52.1693C47.7162 51.3293 47.4662 50.4551 47.2996 49.6322C47.0918 49.7803 46.9016 49.9529 46.7329 50.1465Z" fill="#ECAB5F"/>
<path d="M65.833 51.9637V52.0837C66.1047 51.7702 66.3553 51.438 66.583 51.0894C66.7722 50.785 66.8866 50.4379 66.9163 50.078C66.758 49.9251 66.5911 49.782 66.4163 49.6494C66.2497 50.4894 66.0163 51.2094 65.833 51.9637Z" fill="#ECAB5F"/>
<path d="M20.5501 32.1808C20.5561 32.1238 20.5561 32.0664 20.5501 32.0094C20.5667 32.2527 20.5384 32.4969 20.4668 32.7294H20.9835C20.8668 32.5237 20.6335 32.318 20.5501 32.1808Z" fill="#ECAB5F"/>
<path d="M20.0514 31.649C19.0539 32.07 17.9779 32.2574 16.9014 32.1976C17.8286 32.4196 18.7698 32.5743 19.718 32.6605C19.9104 32.3577 20.025 32.0097 20.0514 31.649V31.649Z" fill="#ECAB5F"/>
<path d="M93.6665 31.6666C93.6904 32.0252 93.8117 32.3697 94.0165 32.6609C94.9593 32.575 95.895 32.4203 96.8165 32.1981C95.7408 32.2716 94.663 32.0897 93.6665 31.6666Z" fill="#ECAB5F"/>
<path d="M93.2338 31.8893C93.1962 31.9896 93.1516 32.087 93.1004 32.1807C93.1004 32.335 92.7838 32.5407 92.7671 32.7807C92.9532 32.7646 93.1374 32.7302 93.3171 32.6779C93.2467 32.4216 93.2185 32.1551 93.2338 31.8893Z" fill="#ECAB5F"/>
<path d="M25.4177 44.9005C25.1344 45.8434 24.2344 46.1863 23.4677 46.6148C23.1011 46.8377 22.7511 47.0263 22.4177 47.2491C22.4177 47.2491 22.1344 47.4377 22.2011 47.472C23.0121 47.4559 23.7949 47.1623 24.4257 46.6377C25.0565 46.113 25.4994 45.3872 25.6844 44.5748V44.5748L25.4177 44.9005Z" fill="#ECAB5F"/>
<path d="M89.0166 46.4777C89.7085 47.0979 90.5833 47.4602 91.4999 47.5063C90.6333 46.5806 88.7666 46.3234 88.2999 44.9692C88.214 44.8637 88.1192 44.7661 88.0166 44.6777C88.1791 45.3624 88.5256 45.9862 89.0166 46.4777V46.4777Z" fill="#ECAB5F"/>
<path d="M42.4502 52.3064C43.6357 53.9641 44.9333 55.5337 46.3336 57.0035C47.6603 58.5338 49.0739 59.982 50.5669 61.3407C52.3647 62.7822 54.579 63.5651 56.8586 63.5651C59.1381 63.5651 61.3524 62.7822 63.1502 61.3407C64.6338 59.9775 66.0416 58.5295 67.3669 57.0035C70.0502 53.9692 72.9836 51.1235 73.4336 45.8949C73.1051 46.4875 72.7434 47.0599 72.3502 47.6092C72.0502 48.2778 71.7336 48.9292 71.4169 49.5978C70.6559 51.3235 69.6506 52.9238 68.4336 54.3464C67.2336 55.7521 65.9169 57.0035 64.6336 58.2549C63.3351 59.5807 61.8791 60.7327 60.3002 61.6835C61.0587 60.9028 61.6791 59.992 62.1336 58.9921V58.9921C61.3893 59.9422 60.3937 60.6507 59.2669 61.0321V61.0321C58.5333 61.2673 57.7685 61.383 57.0002 61.375C56.1818 61.3983 55.3653 61.2825 54.5836 61.0321C54.2347 60.9017 53.8996 60.7352 53.5836 60.5349C52.851 60.1133 52.1965 59.562 51.6502 58.9064H51.5169C51.9772 59.907 52.6032 60.8177 53.3669 61.5978V61.5978C51.7995 60.6296 50.3455 59.4792 49.0336 58.1692C47.7669 56.9349 46.4336 55.5978 45.2669 54.2607C44.0569 52.836 43.0573 51.236 42.3002 49.5121L41.2669 47.3349C40.9336 46.8549 40.6336 46.3578 40.3169 45.8778C40.5448 48.1594 41.2743 50.3577 42.4502 52.3064V52.3064Z" fill="#ECAB5F"/>
<path d="M45.0324 60.1062C45.3158 60.7748 45.4324 61.392 45.6991 61.9748C46.4284 63.3462 47.4351 64.5409 48.6512 65.4783C49.8673 66.4157 51.2647 67.0741 52.7491 67.4091C53.3991 67.5977 54.0158 67.8205 54.6491 67.9748C55.3699 68.1016 56.1026 68.1418 56.8324 68.0948C57.5629 68.1384 58.2958 68.0924 59.0158 67.9577C62.3491 67.0834 65.2324 65.9348 66.9824 63.4834C67.3404 62.9886 67.6529 62.4606 67.9158 61.9062C68.1824 61.3577 68.3324 60.7577 68.6158 60.1062C68.7891 59.7386 68.9955 59.3885 69.2324 59.0605C69.5824 58.4605 69.8991 57.8605 70.1991 57.2091C70.1991 56.7462 70.1991 56.2491 70.1991 55.752C69.8233 56.1144 69.4672 56.4978 69.1324 56.9005C68.7991 57.2434 68.2158 57.6891 68.0658 58.1177C67.9982 58.4107 67.9536 58.7088 67.9324 59.0091C67.5978 60.6363 66.8717 62.1512 65.8206 63.4151C64.7694 64.6789 63.4269 65.6514 61.9158 66.2434C61.4303 66.446 60.9352 66.6234 60.4324 66.7748C59.2738 67.0806 58.0774 67.2077 56.8824 67.152C55.6767 67.199 54.4705 67.0721 53.2991 66.7748C49.4658 65.4034 46.6324 63.3462 45.7324 59.0434C45.6987 58.7436 45.6486 58.446 45.5824 58.152C45.4561 57.9198 45.2861 57.7159 45.0824 57.552L44.6324 57.1062L43.4824 55.8377C43.4824 56.3691 43.4824 56.9005 43.4824 57.4148L43.7991 58.0834C44.1991 58.8205 44.6491 59.4377 45.0324 60.1062Z" fill="#CCCBCB"/>
<path d="M38.5844 57.1064C37.9176 57.7556 37.1857 58.3302 36.401 58.8206C35.5844 59.3692 34.7344 59.7464 33.9844 60.3464C38.3903 62.4794 42.4048 65.3791 45.851 68.9178C46.0677 69.1578 46.2344 69.4492 46.4677 69.6892C47.0796 70.2656 47.7634 70.7556 48.501 71.1464C49.2628 71.5924 50.0602 71.9709 50.8844 72.2778C54.784 73.581 58.9847 73.581 62.8844 72.2778C64.5145 71.726 66.0215 70.8461 67.3177 69.6892C67.7844 69.2092 68.1344 68.6778 68.5844 68.2149C71.9281 65.0316 75.7071 62.369 79.801 60.3121C78.951 59.7635 78.1344 59.3692 77.3844 58.8206C76.6022 58.3341 75.8755 57.7591 75.2177 57.1064C74.224 55.91 73.5823 54.4472 73.3677 52.8892C73.3677 52.7178 73.3677 52.3578 73.2344 52.0149L72.8177 51.9635C72.511 52.5581 72.1658 53.1309 71.7844 53.6778C71.63 53.8614 71.5062 54.0699 71.4177 54.2949C71.3852 54.637 71.3852 54.9815 71.4177 55.3235C71.4377 56.3631 71.3596 57.4023 71.1844 58.4264C70.8593 61.8639 69.4485 65.0973 67.1677 67.6321C65.5794 69.1362 63.6654 70.2293 61.5844 70.8206C61.0385 71.0006 60.4817 71.1438 59.9177 71.2492C58.5636 71.4238 57.1967 71.4697 55.8344 71.3864C55.1344 71.3864 54.4344 71.3864 53.7844 71.2492C52.8639 71.0593 51.9607 70.7898 51.0844 70.4435C48.6283 69.6536 46.499 68.0427 45.0344 65.8664C42.9983 62.3999 42.0606 58.3681 42.351 54.3292C41.8118 53.5713 41.3165 52.7814 40.8677 51.9635L40.4844 52.1178C40.4844 52.4606 40.3844 52.8206 40.351 52.9749C40.1489 54.4948 39.5369 55.926 38.5844 57.1064Z" fill="#CCCBCB"/>
<path d="M20.8668 75.415C20.634 74.0797 20.2595 72.7748 19.7501 71.5236C19.647 74.7515 18.5952 77.8714 16.7334 80.4721C16.7334 80.4721 16.7334 80.4721 16.7334 80.4721C16.9334 79.9407 16.1834 81.2093 15.8501 81.7921C15.2334 82.855 14.5001 83.7978 13.8834 84.8093C13.8834 84.9636 13.6501 85.1007 13.6834 85.2207C14.7255 85.3707 15.787 85.1787 16.7168 84.6721C17.4501 84.3807 18.2334 84.0036 18.9168 83.695C19.7952 83.3138 20.6283 82.8307 21.4001 82.255C21.5792 79.9603 21.3992 77.651 20.8668 75.415V75.415Z" fill="#ECAB5F"/>
<path d="M27.3503 59.2321C27.7131 60.071 27.9977 60.9435 28.2003 61.8378C28.7662 63.8819 29.0137 66.0054 28.9336 68.1292C28.8169 70.8035 28.0669 73.8378 25.6003 74.0263C25.0174 74.0451 24.4377 73.9319 23.9021 73.695C23.3664 73.458 22.8879 73.103 22.5003 72.6549L21.4336 71.7292C21.7569 72.426 22.0407 73.1415 22.2836 73.8721V73.8721C22.6245 74.9487 22.8918 76.0485 23.0836 77.1635C23.4695 79.1662 23.5872 81.2137 23.4336 83.2492V83.2492C23.6836 82.9406 23.8503 82.5463 24.0669 82.2206C25.2928 80.5119 27.0619 79.2988 29.0669 78.7921C30.0564 78.4381 31.1049 78.2924 32.1503 78.3635C32.1884 75.198 31.9878 72.0342 31.5503 68.9006C31.0861 65.5903 29.8636 62.4409 27.9836 59.7121L28.3836 60.0892C28.116 59.7174 27.7602 59.4223 27.3503 59.2321V59.2321Z" fill="#CCCBCB"/>
<path d="M96.9163 84.6206C97.8509 85.1308 98.9188 85.3229 99.9663 85.1692C99.3496 83.9863 98.4829 82.9235 97.7829 81.7406C97.4329 81.1578 96.8329 80.1806 96.9662 80.5063C96.0944 79.3116 95.4032 77.988 94.9163 76.5806C94.4817 74.9438 94.1641 73.2765 93.9663 71.592C93.6603 72.3933 93.3988 73.2118 93.1829 74.0435C92.4021 76.7369 92.1195 79.5571 92.3496 82.3578L92.6829 82.5806C94.0146 83.4229 95.4348 84.1072 96.9163 84.6206V84.6206Z" fill="#ECAB5F"/>
<path d="M90.3508 80.6435C90.4056 79.1826 90.5954 77.7304 90.9174 76.3064C91.1174 75.4321 91.3341 74.5921 91.5841 73.8035C91.5841 73.8035 91.5841 73.8035 91.5841 73.7178C91.8223 72.9663 92.112 72.233 92.4508 71.5235L92.2174 71.7292C91.8674 72.0721 91.5008 72.3464 91.1674 72.6549C90.4839 73.4021 89.5722 73.8861 88.5841 74.0264C87.8277 74.0836 87.0763 73.8612 86.4652 73.3992C85.8541 72.9372 85.4234 72.266 85.2508 71.5064C84.7427 69.9868 84.5331 68.3785 84.6341 66.7749C84.7254 64.4404 85.1407 62.1314 85.8674 59.9178C86.0419 59.6906 86.167 59.4275 86.2341 59.1464V59.1464C85.6538 59.4041 85.1567 59.8262 84.8008 60.3635C85.0674 60.0892 85.3341 59.8492 85.6174 59.6092C84.7805 60.9253 84.0342 62.3001 83.3841 63.7235C82.7088 65.3309 82.2544 67.0272 82.0341 68.7635C81.6108 71.8984 81.4158 75.0615 81.4508 78.2264C82.4744 78.1515 83.5019 78.2975 84.4674 78.6549C86.4765 79.1521 88.2486 80.3672 89.4674 82.0835C89.7008 82.4264 89.8674 82.8035 90.1341 83.1292L90.2508 83.2492C90.2193 82.3793 90.2528 81.5082 90.3508 80.6435Z" fill="#CCCBCB"/>
<path d="M77.8338 32.4721C78.2682 32.5655 78.7204 32.5051 79.1172 32.3007C79.1772 28.7722 78.999 25.2437 78.5838 21.7407C78.5838 21.6035 78.5838 21.4664 78.5838 21.3292C78.2376 21.4924 77.874 21.6132 77.5005 21.6892C77.9968 25.26 78.1086 28.8761 77.8338 32.4721V32.4721Z" fill="#333333"/>
<path d="M75.1503 24.6204C75.1503 27.1061 75.9837 29.1975 76.067 31.6833C76.3239 30.12 76.3688 28.5277 76.2003 26.9518C76.354 25.3054 76.4097 23.6509 76.367 21.9975C76.1342 19.3584 75.2319 16.8284 73.7503 14.6604C73.7503 14.6604 73.7503 14.5233 73.6337 14.5404C73.8503 15.5175 74.367 16.5118 74.5337 17.3861C74.1544 16.6203 73.7256 15.8815 73.2503 15.1747C72.5097 13.7259 71.4888 12.4483 70.2503 11.4204C69.6287 10.8647 68.9182 10.4239 68.1503 10.1175C67.1978 9.85095 66.229 9.6505 65.2503 9.51754C60.1942 8.21555 54.9162 8.11589 49.817 9.22612C47.9215 9.3959 46.0675 9.89437 44.3337 10.7004C43.7402 11.0937 43.1824 11.5412 42.667 12.0375C41.665 13.0518 40.8066 14.206 40.117 15.4661C39.7337 16.0833 39.4003 16.7518 39.0503 17.369C39.3003 16.3404 39.7337 15.5004 39.9837 14.4718C38.5604 16.5008 37.6342 18.8531 37.2837 21.329C37.1003 23.5061 37.4837 25.9575 37.4003 28.1861C37.1724 29.325 37.2297 30.5048 37.567 31.6147C37.567 29.0947 38.3837 27.0033 38.467 24.569C38.467 23.729 38.467 22.8547 38.467 21.9804C38.4621 20.858 38.6717 19.7455 39.0837 18.7061C39.0837 18.4147 39.2003 18.1404 39.267 17.8661C39.3581 17.4061 39.4979 16.9577 39.6837 16.529C39.8968 16.169 40.1423 15.8303 40.417 15.5175C42.4455 12.6685 45.4038 10.6663 48.7503 9.87754C47.8579 10.3793 47.0053 10.9525 46.2003 11.5918C46.8559 11.249 47.5392 10.9233 48.2503 10.6147C49.5112 10.0694 50.8162 9.63914 52.1503 9.32897C55.1672 8.52467 58.3335 8.52467 61.3503 9.32897C62.6993 9.64439 64.0205 10.0744 65.3003 10.6147C65.9503 10.889 66.5837 11.1975 67.2003 11.5061C66.4377 10.8407 65.6047 10.2657 64.717 9.79183C68.0504 10.5397 71.0094 12.4997 73.0503 15.3118C73.3652 15.6606 73.6393 16.0461 73.867 16.4604C74.0857 17.013 74.2477 17.5875 74.3503 18.1747V18.3461C74.8164 19.426 75.0604 20.5932 75.067 21.7747C75.117 22.9404 75.117 23.7633 75.1503 24.6204Z" fill="#971B1E"/>
<path d="M80.8168 32.3866C80.5557 32.8278 80.1847 33.1891 79.7422 33.4333C79.2997 33.6774 78.8018 33.7955 78.3001 33.7752C77.9334 33.7752 77.5834 33.5009 77.3668 33.5009C77.9016 38.4246 77.4709 43.4086 76.1001 48.158C76.7501 47.678 77.3334 47.078 78.0168 46.6495C77.8431 44.4531 78.0119 42.2424 78.5168 40.1009C78.7501 39.1066 79.0168 38.1809 79.1834 37.1866C79.3463 36.209 79.5634 35.2417 79.8334 34.2895C80.1668 34.0837 80.5334 33.8952 80.8501 33.6552C80.8652 33.232 80.854 32.8083 80.8168 32.3866V32.3866Z" fill="#971B1E"/>
<path d="M34.2009 35.7122C34.3176 36.2779 34.4009 36.775 34.4843 37.2207C34.6676 38.2665 34.9343 39.1579 35.1509 40.0836C35.6697 42.2111 35.8387 44.413 35.6509 46.5979C36.3509 47.095 36.9509 47.6779 37.6343 48.175C36.2591 43.403 35.8228 38.3968 36.3509 33.4493C36.0403 33.566 35.723 33.6634 35.4009 33.7407C34.9012 33.749 34.4077 33.6258 33.9672 33.3828C33.5268 33.1397 33.154 32.785 32.8843 32.3522C32.8843 32.8322 32.8843 33.2607 32.8843 33.6722C33.1843 33.8607 33.5176 34.015 33.8009 34.2207C33.9966 34.6979 34.1311 35.1993 34.2009 35.7122Z" fill="#971B1E"/>
<path d="M71.6821 10.1523C73.6631 12.0655 75.2059 14.4077 76.1988 17.0094C76.6398 17.9125 76.9702 18.8684 77.1821 19.8552C77.5155 19.718 77.8155 19.5637 78.1155 19.4094L77.8321 18.5694C76.7419 15.2984 75.0437 12.2766 72.8321 9.6723L72.3155 9.02087C72.2577 9.46918 72.0301 9.87585 71.6821 10.1523V10.1523Z" fill="#333333"/>
<path d="M35.8838 32.4724C35.598 28.8777 35.6986 25.2615 36.1838 21.6895C35.7996 21.6264 35.428 21.499 35.0838 21.3124C34.6352 24.9446 34.4514 28.6062 34.5338 32.2667C34.9445 32.5018 35.4244 32.5749 35.8838 32.4724V32.4724Z" fill="#333333"/>
<path d="M37.4833 16.9917C38.5162 14.4034 40.0664 12.0672 42.0333 10.1346C41.8341 10.0108 41.6656 9.84101 41.5412 9.63868C41.4169 9.43636 41.3399 9.20704 41.3166 8.96887C41.0999 9.19173 40.9166 9.48316 40.7666 9.63744C38.4301 12.5164 36.6483 15.8268 35.5166 19.3917C35.8418 19.569 36.1756 19.7292 36.5166 19.8717C36.7456 18.8813 37.0695 17.9166 37.4833 16.9917V16.9917Z" fill="#333333"/>
<path d="M45.3337 8.9694C52.875 6.82042 60.8424 6.82042 68.3837 8.9694C69.1183 9.33699 69.9367 9.49111 70.7503 9.41511C70.4521 9.23674 70.1328 9.09847 69.8003 9.00368C67.1112 8.00567 64.312 7.35497 61.467 7.06654C60.167 6.94654 58.8003 6.84368 57.5503 6.82654H56.1003C51.928 6.85033 47.7885 7.58603 43.8503 9.00368C43.5256 9.09815 43.2125 9.23043 42.917 9.39797C43.7461 9.50877 44.5885 9.35939 45.3337 8.9694Z" fill="#333333"/>
<path d="M74.7994 97.529C73.96 98.4088 73.0574 99.2226 72.0994 99.9633C71.1161 100.683 70.0827 101.352 69.0161 102.003C67.8855 102.658 66.6824 103.17 65.4327 103.529C64.1076 103.968 62.7543 104.312 61.3827 104.558C58.3829 105.266 55.2659 105.266 52.266 104.558C50.8945 104.312 49.5412 103.968 48.216 103.529C46.9674 103.167 45.7647 102.655 44.6327 102.003C43.5827 101.335 42.5327 100.649 41.5494 99.9633C40.5919 99.2281 39.6894 98.4201 38.8494 97.5461C38.4065 97.1369 38.0045 96.6833 37.6494 96.1918C36.2053 93.8993 35.0357 91.4357 34.166 88.8547C34.6793 91.5688 35.49 94.2142 36.5827 96.7404C35.5604 95.4405 34.7035 94.0119 34.0327 92.489C34.0327 93.1061 34.0327 93.7233 34.0327 94.3404C34.605 96.829 35.0115 99.3549 35.2494 101.9C35.6869 105.747 35.9151 109.616 35.9327 113.489V113.678C38.2238 114.961 40.6363 116.001 43.1327 116.78C45.2357 117.45 47.3792 117.977 49.5494 118.358C54.3208 119.318 59.2279 119.318 63.9994 118.358C68.7777 117.596 73.3976 116.014 77.666 113.678C77.6493 113.472 77.6493 113.266 77.666 113.06C77.666 111.346 77.6661 109.632 77.8327 108.055C77.9327 105.929 78.1327 103.769 78.3661 101.695C78.5529 99.6748 78.8422 97.6664 79.2327 95.6776C79.3327 95.129 79.4827 94.5976 79.6327 93.9633C79.7827 93.329 79.6327 92.9004 79.6327 92.369C78.9938 93.9016 78.1465 95.333 77.1161 96.6204C77.1161 96.6204 77.1161 96.6204 77.1161 96.6204C77.3161 96.1233 77.4827 95.6433 77.6827 95.1118C78.4742 93.0116 79.0821 90.843 79.4994 88.6318C78.6114 91.2544 77.4313 93.7626 75.9827 96.1061C75.6306 96.616 75.2346 97.0922 74.7994 97.529V97.529Z" fill="#CCCBCB"/>
<path d="M69.6332 4.97472C68.709 4.43803 67.7076 4.05611 66.6666 3.84329C60.0597 2.17582 53.1542 2.21705 46.5666 3.96329C45.6861 4.14334 44.8411 4.47362 44.0666 4.94043C43.173 5.82522 42.5873 6.98787 42.3999 8.249C42.4798 8.14607 42.5522 8.0372 42.6166 7.92329C43.5999 6.329 45.9499 5.78043 48.0999 5.33472C50.78 4.80554 53.4917 4.46191 56.2166 4.30614C57.6368 4.26147 59.0581 4.336 60.4666 4.529C63.0809 4.7285 65.6674 5.21117 68.1832 5.969C69.2896 6.23048 70.2941 6.8277 71.0666 7.68329C71.1832 7.85472 71.2832 8.11186 71.4332 8.30043C71.2001 7.0203 70.5683 5.85296 69.6332 4.97472V4.97472Z" fill="#676767"/>
<path d="M33.3667 30.8778C33.4589 31.2119 33.6374 31.5141 33.8833 31.7521C33.8833 31.4264 33.8833 31.0664 33.8833 30.7407C34.1333 27.4492 34.45 24.3121 34.9 21.2264C34.629 21.0652 34.3674 20.8877 34.1167 20.6949V20.8321C34.0167 22.5464 33.6 26.5064 33.4167 29.5578C33.3524 29.9945 33.3356 30.4373 33.3667 30.8778V30.8778Z" fill="#676767"/>
<path d="M41.25 7.66663C38.0945 10.7406 35.9898 14.7816 35.25 19.1866L35.5167 19.3238C35.6667 18.8609 35.7167 18.3638 35.8333 17.9181C36.4357 15.4713 37.5004 13.1705 38.9667 11.1466L39.8 10.0323C40.2004 9.37111 40.7143 8.79025 41.3167 8.31805C41.2814 8.10254 41.2591 7.88498 41.25 7.66663V7.66663Z" fill="#676767"/>
<path d="M72.4336 7.66663C72.4495 7.93495 72.4495 8.20402 72.4336 8.47234L73.0669 8.9352C74.2421 10.4115 75.3169 11.9695 76.2836 13.5981C76.9595 14.98 77.4849 16.4345 77.8503 17.9352C77.9669 18.3981 78.0169 18.8952 78.1669 19.3409L78.5003 19.1866C77.7527 14.7692 75.6224 10.724 72.4336 7.66663V7.66663Z" fill="#676767"/>
<path d="M79.7331 30.7924C79.7331 31.1181 79.7331 31.4952 79.7331 31.821C80.0008 31.5547 80.201 31.2251 80.3165 30.861C80.3551 30.4276 80.3551 29.9915 80.3165 29.5581C80.1498 26.8324 79.7998 23.3352 79.5831 20.8495V20.6781C79.3582 20.9193 79.0929 21.1167 78.7998 21.261C79.1831 24.3124 79.4998 27.4324 79.7331 30.7924Z" fill="#676767"/>
<path d="M6.3997 25.2553C7.37256 25.4097 8.31678 25.7161 9.1997 26.1638C10.0285 26.5606 10.7582 27.147 11.333 27.8781C11.5685 28.2758 11.78 28.688 11.9664 29.1124C11.9664 29.2838 12.133 29.5753 12.2664 29.8324C12.4164 29.6267 12.5664 29.4381 12.6997 29.2324C12.4517 28.2144 12.0026 27.2599 11.3804 26.4282C10.7582 25.5965 9.97615 24.9055 9.08303 24.3981C8.44308 23.9552 7.68767 23.7221 6.91636 23.7295H6.6497H6.53303C6.31802 23.7889 6.12116 23.9034 5.96085 24.0623C5.80054 24.2212 5.68202 24.4193 5.61636 24.6381C5.61154 25.0071 5.7226 25.3678 5.93303 25.6667C6.08303 25.581 6.23303 25.4095 6.3997 25.2553Z" fill="#FFD9AE"/>
<path d="M67.7675 32.4719C67.2341 30.7576 62.7675 28.1862 56.8341 28.1862C50.9008 28.1862 47.4508 29.9004 46.3675 31.4947C46.1155 31.8763 45.9295 32.2996 45.8175 32.7462C45.6697 33.2661 45.5747 33.8004 45.5341 34.3404C45.5005 34.8662 45.6269 35.3896 45.8957 35.8381C46.1645 36.2867 46.5624 36.638 47.0341 36.8433C47.7725 37.1539 48.5741 37.2717 49.3675 37.1862C49.6415 37.112 49.9091 37.0146 50.1675 36.8947L51.0675 36.6719C52.9637 36.0782 54.9353 35.7778 56.9175 35.7804C59.1824 35.7945 61.4314 36.1704 63.5841 36.8947C63.8548 37.0122 64.1333 37.1096 64.4175 37.1862C65.2333 37.2691 66.056 37.1271 66.8008 36.7747C67.3885 36.4678 67.843 35.9454 68.0744 35.3106C68.3058 34.6758 68.2974 33.9749 68.0508 33.3462C67.8841 33.1062 67.8508 32.7462 67.7675 32.4719Z" fill="#EC1E24"/>
<path d="M32.1672 32.2152C31.6103 33.1054 31.3098 34.1396 31.3005 35.1981C31.288 36.3462 31.3716 37.4933 31.5505 38.6266C31.7808 40.7445 32.2106 42.8343 32.8339 44.8666C33.0386 44.7246 33.1958 44.5211 33.2839 44.2838C33.2839 43.9924 33.1005 43.7181 33.0339 43.4609C32.6016 41.7755 32.3116 40.0548 32.1672 38.3181C32.084 37.2169 32.084 36.1107 32.1672 35.0095C32.0571 34.0815 32.0571 33.1432 32.1672 32.2152Z" fill="#676767"/>
<path d="M80.8835 44.8666C81.491 42.8291 81.9259 40.7413 82.1835 38.6266C82.4501 36.3981 82.7168 33.6895 81.5501 32.2152C81.7003 33.2207 81.7003 34.244 81.5501 35.2495C81.6415 36.2931 81.6415 37.343 81.5501 38.3866C81.3652 40.3654 81.0025 42.3223 80.4668 44.2324C80.5368 44.4839 80.6827 44.706 80.8835 44.8666Z" fill="#676767"/>
<path d="M17.417 41.6777C17.7564 41.9819 18.1315 42.2411 18.5337 42.4492C18.8767 42.6978 19.2328 42.9267 19.6003 43.1349C20.4781 43.4585 21.4014 43.6322 22.3337 43.6492C23.2682 43.6551 24.196 43.8113 25.0837 44.112C25.2837 44.2149 25.4837 44.472 25.7337 44.5406C25.7419 44.3921 25.7419 44.2433 25.7337 44.0949C25.7503 44.01 25.7503 43.9226 25.7337 43.8377C25.7227 43.6767 25.6783 43.52 25.6036 43.3781C25.5288 43.2361 25.4254 43.1123 25.3003 43.0149C24.3683 42.5955 23.3671 42.3627 22.3503 42.3292L21.6003 42.2434C21.0295 42.1936 20.4683 42.0609 19.9337 41.8492H19.817C19.0146 41.8363 18.2134 41.7791 17.417 41.6777V41.6777Z" fill="#FFD9AE"/>
<path d="M94.083 43.2206C94.4769 43.0087 94.8557 42.7681 95.2163 42.5006C95.5137 42.342 95.798 42.1585 96.0663 41.9521C96.0663 41.9521 96.233 41.8149 96.1996 41.7292C96.1176 41.7074 96.0316 41.7074 95.9496 41.7292C95.283 41.8321 94.583 41.8149 93.7663 41.9006C93.2318 42.1128 92.6706 42.2456 92.0996 42.2949L91.283 42.3806C90.3237 42.4501 89.3771 42.646 88.4663 42.9635C88.2508 43.1569 88.095 43.4108 88.018 43.6941C87.941 43.9773 87.9462 44.2775 88.033 44.5578C88.2303 44.4461 88.4197 44.3201 88.5996 44.1806C90.033 43.4949 92.433 43.9749 94.083 43.2206Z" fill="#FFD9AE"/>
<path d="M50.7831 48.9122C51.6331 49.1522 52.4498 49.3922 53.3998 49.5979C52.9164 49.3408 52.4831 48.9979 52.0164 48.775C51.5147 48.5755 51.0028 48.4038 50.4831 48.2608C49.944 48.0496 49.3856 47.8945 48.8164 47.7979C48.706 47.7807 48.5936 47.7807 48.4831 47.7979C48.1998 47.7979 48.2164 48.0208 48.0331 48.175L47.7831 48.3122C47.7754 48.392 47.7754 48.4724 47.7831 48.5522C48.7966 48.4063 49.8295 48.5303 50.7831 48.9122V48.9122Z" fill="#FFD9AE"/>
<path d="M65.8837 48.5349C65.8928 48.4724 65.8928 48.4089 65.8837 48.3464C65.767 48.2435 65.617 48.2264 65.5337 48.1578C65.4504 48.0892 65.4004 47.8835 65.317 47.8321C65.13 47.7933 64.9374 47.7933 64.7504 47.8321C64.1807 47.9266 63.6222 48.0817 63.0837 48.2949C62.5837 48.4664 62.0337 48.5864 61.5504 48.8092C61.067 49.0321 60.967 49.2035 60.6504 49.3578L60.0337 49.6664C61.0004 49.4606 61.917 49.2035 62.8337 48.9464C63.7985 48.5397 64.8495 48.3979 65.8837 48.5349V48.5349Z" fill="#FFD9AE"/>
<path d="M56.9152 59.9865C58.0426 60.0266 59.1687 59.876 60.2486 59.5407C60.9503 59.2587 61.6163 58.8903 62.2319 58.4436H61.7486C61.8652 58.2722 62.1319 58.135 62.0819 57.895C60.8228 58.2194 59.5412 58.4429 58.2486 58.5636C57.3319 58.5636 56.3652 58.5636 55.4319 58.5636C54.1628 58.4308 52.9042 58.2074 51.6652 57.895V57.895C51.6652 58.135 51.9819 58.255 51.9986 58.4093H51.6152C53.1565 59.5388 55.0257 60.095 56.9152 59.9865Z" fill="#FFD9AE"/>
<path d="M28.0845 81.3123C26.1346 82.5827 24.3192 84.0593 22.6678 85.718C22.5531 85.9703 22.4074 86.2065 22.2345 86.4209C21.8478 86.8557 21.384 87.2107 20.8678 87.4666C20.344 87.7498 19.7824 87.952 19.2012 88.0666C19.6314 88.3261 20.1192 88.4677 20.6178 88.478V88.478L21.0012 88.3237C21.4008 88.1461 21.7762 87.9156 22.1178 87.638C22.6012 87.278 23.0178 86.8837 23.4178 86.5409C26.1149 84.4189 28.9869 82.5432 32.0012 80.9352C32.0012 80.678 32.0012 80.4209 32.0012 80.1637C30.609 80.099 29.2342 80.5021 28.0845 81.3123V81.3123Z" fill="white"/>
<path d="M81.6006 80.1808C81.6006 80.4551 81.6006 80.7294 81.6006 80.9865C84.5809 82.5697 87.4148 84.4288 90.0673 86.5408C90.7908 87.3 91.6439 87.916 92.5839 88.3579L92.9173 88.4951C93.4546 88.525 93.9869 88.3746 94.4339 88.0665C93.293 87.8928 92.2391 87.3388 91.4339 86.4894C91.3083 86.3042 91.1969 86.1094 91.1006 85.9065C89.3082 84.0637 87.3046 82.4519 85.1339 81.1065C84.0669 80.4557 82.8403 80.1344 81.6006 80.1808V80.1808Z" fill="white"/>
<path d="M34.7658 102.672C34.5825 100.958 34.3158 99.2436 34.0325 97.5293C34.0325 99.1236 33.8825 100.684 33.7492 102.226C33.5325 104.764 33.0658 107.369 32.8325 110.095C32.7598 110.473 32.7208 110.858 32.7158 111.244C32.7158 111.466 33.4658 111.981 33.7492 112.204L34.6158 112.821C34.7267 112.343 34.7937 111.855 34.8158 111.364C35.0745 108.472 35.0577 105.561 34.7658 102.672V102.672Z" fill="white"/>
<path d="M78.8335 111.398C78.8585 111.884 78.9311 112.367 79.0502 112.838L79.9335 112.204C80.2502 111.947 80.9335 111.484 80.9835 111.244C80.9943 110.87 80.9607 110.495 80.8835 110.129C80.6168 107.387 80.1835 104.832 79.9502 102.227C79.8168 100.512 79.7168 98.918 79.6835 97.2037C79.3668 98.918 79.0835 100.821 78.8835 102.758C78.608 105.63 78.5913 108.523 78.8335 111.398Z" fill="white"/>
<path d="M10.2495 33.1068C10.9915 32.8603 11.7487 32.6656 12.5162 32.524C13.2214 32.3201 13.9031 32.0385 14.5495 31.684C15.9658 31.0129 17.4811 30.59 19.0328 30.4325C19.2971 30.3807 19.5686 30.3807 19.8328 30.4325C20.1805 30.6711 20.4711 30.9876 20.6828 31.3583C20.9207 31.9065 21.211 32.4291 21.5495 32.9183V32.9183C21.9162 32.9183 22.2662 32.9183 22.6162 33.0211C22.3157 32.2383 21.8553 31.5309 21.2662 30.9468C20.7919 30.2789 20.1838 29.7236 19.4828 29.3183C18.7779 29.1163 18.0411 29.0593 17.3147 29.1504C16.5883 29.2416 15.8865 29.4792 15.2495 29.8497C14.0995 30.364 13.0162 31.0325 11.9162 31.564C11.3828 32.044 10.7828 32.4383 10.2495 32.9525C10.2495 32.9868 10.2495 33.004 10.2495 33.1068Z" fill="#FFD9AE"/>
<path d="M93.8168 30.3637C94.0874 30.3206 94.3628 30.3206 94.6334 30.3637C96.1616 30.5334 97.653 30.956 99.0501 31.6151C99.7083 31.9469 100.394 32.2166 101.1 32.4208C101.833 32.5923 102.583 32.7808 103.367 33.038V32.9523C102.883 32.438 102.183 32.0094 101.7 31.5465C100.5 30.9465 100.033 30.6037 98.8501 30.038C97.6745 29.3747 96.3575 29.0213 95.0168 29.0094C94.0709 29.2186 93.2338 29.7803 92.6668 30.5865C92.3589 30.936 92.0696 31.3022 91.8001 31.6837C91.4687 32.0474 91.2284 32.4887 91.1001 32.9694C91.4168 32.9694 91.7501 32.9694 92.0834 32.8665C92.4371 32.3722 92.7335 31.8372 92.9668 31.2723C93.197 30.9212 93.4846 30.6138 93.8168 30.3637Z" fill="#FFD9AE"/>
<path d="M15.4673 32.4379C15.9035 32.9494 16.3831 33.4199 16.9006 33.8437C17.6901 34.2857 18.5467 34.5871 19.4339 34.7351C20.4173 34.9408 21.4673 34.9922 22.3673 35.2322C22.863 35.4021 23.3298 35.6508 23.7506 35.9694C23.9673 36.1579 24.334 36.7237 24.7173 36.8951C24.434 34.8379 22.7173 34.3579 20.7173 33.9294C18.4173 33.4322 16.7839 33.2608 16.1006 32.4722H15.5006C15.5006 32.4722 15.4673 32.4037 15.4673 32.4379Z" fill="#FFD9AE"/>
<path d="M91.2495 35.2492C92.1328 34.9577 93.2328 34.9406 94.2162 34.7349C95.1061 34.5762 95.9665 34.2754 96.7662 33.8434C97.296 33.4389 97.7625 32.9532 98.1495 32.4034C97.9638 32.4512 97.774 32.4799 97.5828 32.4892C96.8169 33.0832 95.9048 33.4454 94.9495 33.5349L92.2328 34.1349C90.5662 34.512 89.2662 35.0777 88.9995 36.8434C89.1227 36.7548 89.2396 36.6574 89.3495 36.552C89.8767 35.9728 90.5269 35.5269 91.2495 35.2492Z" fill="#FFD9AE"/>
<path d="M17.0669 36.7579C17.2262 37.1526 17.4713 37.5045 17.7836 37.7865C17.9857 38.0509 18.2148 38.2922 18.4669 38.5065C19.4209 39.0498 20.479 39.3717 21.5669 39.4493C22.7343 39.4965 23.8898 39.7099 25.0002 40.0836C25.1836 40.1865 25.3669 40.3922 25.5669 40.5122C25.5869 40.2218 25.5347 39.9308 25.4152 39.6669C25.2956 39.403 25.1126 39.1747 24.8836 39.0036C24.2939 38.7337 23.6613 38.5769 23.0169 38.5408C22.3336 38.4379 21.5836 38.3693 20.9502 38.2493C19.7934 38.1363 18.6878 37.7039 17.7502 36.9979L17.0836 36.7579C17.0836 36.7579 17.0669 36.7236 17.0669 36.7579Z" fill="#FFD9AE"/>
<path d="M92.0838 39.4495C93.1931 39.374 94.2735 39.0524 95.2505 38.5066C95.4891 38.2956 95.712 38.0664 95.9171 37.8209C96.2223 37.5227 96.4611 37.1601 96.6171 36.7581C96.6171 36.7581 96.6171 36.7581 96.6171 36.7581L96.0005 37.0323C94.8505 38.1809 91.9671 38.4038 90.7671 38.5752C90.1126 38.6156 89.4697 38.7722 88.8671 39.0381C88.6405 39.2075 88.4591 39.433 88.3397 39.6937C88.2202 39.9544 88.1666 40.2418 88.1838 40.5295C88.3838 40.3923 88.5671 40.2038 88.7338 40.1181C89.8151 39.7373 90.9425 39.5123 92.0838 39.4495V39.4495Z" fill="#FFD9AE"/>
<path d="M23.584 80.0952C23.6673 79.9923 23.8173 79.9752 23.9006 79.8723C23.984 79.7695 23.584 80.0095 23.584 80.0952Z" fill="white"/>
<path d="M68.0174 24.6722C67.9736 22.043 67.5409 19.436 66.7341 16.9408C66.1833 15.7369 65.3404 14.6991 64.2866 13.9275C63.2328 13.1559 62.0036 12.6763 60.7174 12.5351C60.2622 12.5067 59.8059 12.5067 59.3507 12.5351C58.8174 12.5351 58.2507 12.3636 57.684 12.3636C57.384 12.3636 57.1007 12.3636 56.8174 12.3636C56.534 12.3636 56.084 12.3636 55.834 12.3636C54.4595 12.4049 53.092 12.5829 51.7507 12.8951C51.0433 13.1296 50.3618 13.4399 49.7174 13.8208C47.084 15.3808 46.2341 18.0036 45.8841 21.9294C45.8841 22.9236 45.7507 23.6436 45.6507 24.7236C45.5175 25.5063 45.5175 26.3067 45.6507 27.0894L46.4507 26.7979C53.1271 24.146 60.5243 24.146 67.2007 26.7979L67.9507 27.0722C67.9942 26.7825 67.9942 26.4876 67.9507 26.1979C68.0674 25.6322 68.0507 25.2722 68.0174 24.6722Z" fill="white"/>
<path d="M14.6822 86.1123C13.6968 86.555 12.6028 86.6747 11.5489 86.4552C10.9322 86.2152 10.7822 85.6494 10.5489 85.0152C10.1787 83.9427 9.91623 82.834 9.76554 81.7066C9.51554 80.1123 9.28221 78.4666 8.98221 77.0266C8.34887 73.958 7.56554 71.1295 7.01554 68.0437C7.01554 69.4152 7.01554 70.7866 7.01554 72.158C6.90258 73.6853 6.9585 75.2208 7.18221 76.7352C7.18221 76.8895 7.3322 77.3009 7.26554 77.2495C7.19887 77.198 7.11554 76.7009 7.08221 76.3923C7.08221 76.3923 7.08221 76.4952 6.91554 76.3923C6.68662 75.9033 6.55085 75.3738 6.51554 74.8323C6.19408 73.0839 5.9991 71.3133 5.93221 69.5352C5.96865 65.8277 6.20233 62.125 6.63221 58.4437C6.89887 54.7923 7.34887 51.1752 7.38221 47.4037C7.72669 48.0363 8.15901 48.6138 8.66554 49.118C8.94146 49.4131 9.27289 49.6474 9.63965 49.8065C10.0064 49.9657 10.4008 50.0464 10.7989 50.0437C11.7822 49.9409 12.3322 49.0495 12.2489 47.8152C12.0471 46.3626 11.5837 44.9615 10.8822 43.6837C9.67994 40.9276 8.9039 37.995 8.58221 34.9923C8.39887 33.6209 8.4322 32.4552 8.26554 31.1695C8.23828 30.9623 8.18215 30.7602 8.09887 30.5695C8.25896 31.526 8.29818 32.4997 8.21554 33.4666C8.03849 35.1197 7.74889 36.758 7.34887 38.3695C6.98221 39.9295 6.61554 41.4552 6.31554 43.0837C5.34887 48.2266 5.74887 52.7695 4.04887 63.8437C3.31976 67.2599 2.98412 70.7525 3.04887 74.2495C3.42926 77.2333 4.54834 80.0667 6.29887 82.478C7.0218 83.6251 7.83568 84.7088 8.73221 85.718C9.1761 86.3172 9.75222 86.7991 10.413 87.124C11.0737 87.4489 11.8001 87.6075 12.5322 87.5866C14.0551 87.3928 15.5362 86.941 16.9155 86.2495C18.2822 85.6837 19.4822 85.1695 20.8322 84.5352C20.9605 84.2451 21.0718 83.9475 21.1655 83.6437L20.0489 84.038C18.2322 84.7237 16.5322 85.478 14.6822 86.1123Z" fill="#FFD9AE"/>
<path d="M96.8164 86.2494C98.1863 86.9157 99.6479 87.3609 101.15 87.5694C101.882 87.5931 102.61 87.4358 103.271 87.1107C103.932 86.7855 104.508 86.3021 104.95 85.7008C105.857 84.6921 106.682 83.6085 107.416 82.4608C109.156 80.0532 110.264 77.2252 110.633 74.2494C110.777 72.4419 110.709 70.6233 110.433 68.8322C110.216 67.1179 109.933 65.4036 109.683 63.8265C108.016 52.7008 108.383 48.1751 107.416 43.0665C106.683 39.1579 105.75 36.4322 105.516 33.4494C105.422 32.4194 105.466 31.3809 105.65 30.3636C105.525 30.6109 105.441 30.8772 105.4 31.1522C105.4 31.6665 105.4 32.0436 105.4 32.4551C105.4 32.8665 105.266 34.1694 105.183 35.0094C104.985 36.5801 104.696 38.1371 104.316 39.6722C103.924 41.0526 103.428 42.3995 102.833 43.7008C102.135 44.9907 101.677 46.4035 101.483 47.8665C101.366 49.9579 103.016 50.5408 104.483 49.5808C105.256 48.9938 105.893 48.2387 106.35 47.3694C106.466 51.7408 106.883 55.6494 107.183 59.9351C107.183 60.5865 107.366 61.2551 107.433 61.9237C107.666 64.0526 107.788 66.1927 107.8 68.3351C107.789 69.7506 107.7 71.1643 107.533 72.5694C107.453 73.8601 107.207 75.1342 106.8 76.3579C106.8 76.5294 106.683 76.2208 106.666 76.3579C106.65 76.4951 106.666 76.6665 106.55 76.8208C106.433 76.9751 106.55 77.2322 106.433 77.1979C106.433 76.8037 106.633 76.4265 106.683 76.0151C106.717 75.347 106.717 74.6775 106.683 74.0094C106.683 72.1751 106.683 69.9979 106.683 67.9922C106.183 71.1122 105.4 73.9065 104.75 76.9751C104.45 78.4151 104.216 80.0437 103.966 81.6379C103.87 82.4012 103.725 83.1571 103.533 83.9008C103.363 84.601 103.117 85.2795 102.8 85.9237C102.15 86.9694 100.066 86.4036 99.0497 86.0608C96.833 85.2894 94.7997 84.3465 92.6997 83.6265C92.7906 83.9177 92.8963 84.2038 93.0164 84.4837C94.283 85.1865 95.4497 85.7351 96.8164 86.2494Z" fill="#FFD9AE"/>
<path d="M32.5836 66.2606C32.2956 64.3807 31.6193 62.5862 30.6002 60.9977C30.2169 60.3977 29.7669 59.8835 29.4169 59.2835C32.5785 57.8092 35.5787 55.9932 38.3669 53.8663C38.7669 53.5235 39.2169 53.1806 39.6502 52.752C39.8471 52.5646 40.0257 52.3579 40.1836 52.1349C36.6502 53.592 32.9669 55.0835 29.5669 56.6606C28.4905 57.1341 27.4584 57.708 26.4836 58.3749C26.3669 58.4606 26.1502 58.5635 26.2002 58.6663C26.5259 58.5801 26.867 58.5755 27.1947 58.6531C27.5225 58.7307 27.8273 58.8881 28.0836 59.112C27.7763 59.1296 27.4731 59.1931 27.1836 59.3006C27.6429 59.6048 28.0581 59.9741 28.4169 60.3977C28.2836 60.1577 28.1336 59.9177 28.0002 59.6606C30.2147 61.6787 31.8078 64.3182 32.5836 67.2549C32.644 66.9264 32.644 66.5891 32.5836 66.2606V66.2606Z" fill="white"/>
<path d="M18.0337 74.0265C18.2671 71.6268 18.2671 69.2091 18.0337 66.8094C17.5337 62.3179 16.367 58.0151 15.8837 53.7294H15.3503C15.3503 54.0551 15.3503 54.3979 15.3503 54.7237C15.4337 56.4379 15.5837 58.2379 15.6503 60.0208C15.8973 64.6884 15.6289 69.3697 14.8503 73.9751C14.6503 75.0037 14.3837 75.9979 14.2003 77.0437C14.017 78.0894 13.817 79.1694 13.667 80.2322C13.8503 81.0379 14.4503 81.6722 15.3337 81.2951C15.9508 80.9982 16.459 80.5055 16.7837 79.8894C17.063 79.0746 17.2476 78.2287 17.3337 77.3694C17.6503 76.2208 17.9503 75.1408 18.0337 74.0265Z" fill="#FFD9AE"/>
<path d="M22.1013 68.7638C22.8582 69.5107 23.8399 69.9702 24.8846 70.0667C26.7179 70.0667 27.1179 67.9753 27.2679 66.1238C27.3355 65.0907 27.3355 64.0541 27.2679 63.021C27.2867 61.7816 27.203 60.5429 27.0179 59.3181C26.7374 59.45 26.4647 59.5988 26.2013 59.7638C25.8677 59.9472 25.5499 60.1593 25.2513 60.3981C23.7985 61.5806 22.2792 62.674 20.7013 63.6724C20.4513 63.8438 19.8513 64.2038 19.8013 64.3581C19.7648 64.763 19.7648 65.1704 19.8013 65.5753C19.8013 66.021 19.8013 66.3981 19.8013 66.7581C20.4606 67.5469 21.2368 68.2238 22.1013 68.7638Z" fill="white"/>
<path d="M98.1336 81.2435C98.3687 81.3509 98.6309 81.3789 98.8824 81.3234C99.134 81.268 99.3619 81.1319 99.5336 80.9349C99.6741 80.7047 99.7621 80.4447 99.7909 80.1745C99.8198 79.9044 99.7888 79.631 99.7003 79.3749C99.5669 78.552 99.4336 77.6606 99.3003 76.992C99.1169 75.8949 98.8503 74.9177 98.667 73.9235C97.8846 69.3185 97.6106 64.6374 97.8503 59.9692C97.8503 58.1692 98.0836 56.3692 98.1503 54.7063C98.1503 54.3634 98.2336 54.0206 98.1503 53.6777H97.6669C97.1169 58.0834 96.0003 62.2492 95.517 66.8092C95.2665 69.2194 95.2665 71.6503 95.517 74.0606C95.6336 75.1749 95.9003 76.2892 96.0503 77.3692C96.2298 78.3107 96.5209 79.2261 96.9169 80.0949C97.2018 80.5942 97.6256 80.9942 98.1336 81.2435V81.2435Z" fill="#FFD9AE"/>
<path d="M85.6333 59.0948C85.9333 58.6491 86.7333 58.5462 87.5 58.6491C87.4931 58.6094 87.4931 58.5688 87.5 58.5291V58.5291C87.0435 58.1697 86.5452 57.8702 86.0167 57.6377C82.0667 55.6319 77.6833 53.9177 73.5 52.2034C73.6863 52.4653 73.8985 52.7066 74.1333 52.9234C77.2382 55.5313 80.6618 57.7098 84.3167 59.4034C83.5051 60.3532 82.8263 61.4149 82.3 62.5577C81.638 63.8027 81.2297 65.1734 81.1 66.5862C81.0488 66.8522 81.0488 67.126 81.1 67.3919C81.8644 64.4136 83.4781 61.7388 85.7333 59.7119L85.4333 60.1919C85.7549 59.8521 86.1193 59.5581 86.5167 59.3177C86.2375 59.1899 85.9383 59.1144 85.6333 59.0948V59.0948Z" fill="white"/>
<path d="M93.8162 64.358C93.8162 64.1866 93.1829 63.878 92.9329 63.7066C91.9662 63.038 90.9996 62.3866 90.1329 61.7523C89.2507 61.0299 88.3328 60.3547 87.3829 59.7295C87.0996 59.5752 86.8496 59.4209 86.5829 59.3009C86.3629 60.4867 86.279 61.695 86.3329 62.9009C86.2829 63.8945 86.2829 64.8901 86.3329 65.8838C86.4496 67.6838 86.7829 69.7238 88.3329 70.0323C88.9237 70.071 89.5157 69.9777 90.0681 69.7587C90.6205 69.5397 91.1202 69.2003 91.5329 68.7638C92.2994 68.1913 92.9888 67.5169 93.5829 66.7581V66.7581C93.5829 66.3809 93.5829 66.0209 93.5829 65.5923C93.705 65.1911 93.7833 64.7771 93.8162 64.358Z" fill="white"/>
<path d="M78.1827 68.0265C77.7023 68.503 77.1899 68.9441 76.6493 69.3465C71.0229 73.8774 64.0611 76.2966 56.916 76.2036C48.825 76.3547 40.9904 73.2837 35.0493 67.6322V67.6322C35.3907 69.7511 35.558 71.8958 35.5493 74.0436C35.5493 76.2893 35.716 78.5522 35.716 80.7465C35.6767 82.8815 35.8667 85.0144 36.2826 87.1065C36.664 88.8436 37.3411 90.4977 38.2826 91.9922C39.6956 94.1398 41.5306 95.9589 43.6693 97.3319C45.8081 98.705 48.2029 99.6015 50.6993 99.9636C51.1826 99.9636 51.6493 100.101 52.1326 100.221C53.6858 100.529 55.27 100.638 56.8493 100.546C58.412 100.641 59.98 100.531 61.516 100.221C61.9993 100.101 62.4993 100.049 62.9826 99.9636C64.7652 99.6578 66.5018 99.1161 68.1493 98.3522C70.4692 97.3941 72.5303 95.8749 74.158 93.9232C75.7856 91.9715 76.9318 89.645 77.4993 87.1408C77.901 85.0468 78.0853 82.9148 78.0493 80.7808C78.0493 78.6036 78.216 76.3236 78.216 74.0779C78.2171 71.9191 78.3843 69.7638 78.716 67.6322C78.4826 67.6665 78.3327 67.8722 78.1827 68.0265Z" fill="white"/>
<path fill-rule="evenodd" clip-rule="evenodd" d="M60.5661 46.8208C60.5661 47.3008 60.0495 47.5922 59.6828 47.9008C59.3161 48.2094 58.6995 49.1351 57.6161 49.2379C57.1223 49.2722 56.6267 49.2722 56.1328 49.2379C55.0661 49.1522 54.6828 48.5179 54.0328 47.9351C53.7161 47.6608 53.2161 47.2837 53.1328 46.8208C54.1536 47.5167 55.2802 48.0323 56.4661 48.3465C58.1828 48.5351 59.4161 47.2494 60.5661 46.8208Z" fill="black"/>
<path fill-rule="evenodd" clip-rule="evenodd" d="M51.0996 58.1864C52.7493 59.5177 54.8263 60.1605 56.9163 59.9864C58.0436 60.0266 59.1697 59.876 60.2496 59.5407C61.1026 59.1822 61.9088 58.7158 62.6496 58.1521C62.0593 59.1631 61.2157 59.9924 60.2071 60.5533C59.1986 61.1142 58.062 61.3862 56.9163 61.3407C55.7641 61.4085 54.6159 61.1503 53.5964 60.5942C52.5768 60.0381 51.7248 59.2054 51.1329 58.1864H51.0996Z" fill="black"/>
<path fill-rule="evenodd" clip-rule="evenodd" d="M76.3998 50.9696C80.0332 52.581 83.9332 54.021 87.3332 55.9067C88.2104 56.2944 88.9579 56.9381 89.4832 57.7582C89.6332 58.0325 89.6498 58.3753 89.8165 58.7353C90.1109 59.0727 90.4537 59.3618 90.8332 59.5925C91.8332 60.3467 92.9998 61.1696 93.9832 61.8382C94.5332 58.9753 95.1332 56.1639 95.6498 53.3525C94.2299 52.5011 93.074 51.2528 92.3165 49.7525C91.4098 50.0273 90.4364 49.948 89.5832 49.5296C88.8181 49.2875 88.1125 48.879 87.5144 48.3318C86.9163 47.7846 86.4395 47.1115 86.1165 46.3582C85.837 45.8078 85.6705 45.2042 85.6275 44.5849C85.5845 43.9656 85.6659 43.3438 85.8665 42.7582C85.6447 41.4784 85.7189 40.1629 86.0832 38.9182C86.0832 38.7639 86.2165 38.5925 86.2998 38.421C86.3989 38.2852 86.4881 38.1419 86.5665 37.9925C86.5665 37.7182 86.5665 37.4267 86.5665 37.1867C86.6458 35.8375 87.1893 34.5614 88.0998 33.5867C88.2165 33.4667 88.4332 33.3467 88.5165 33.1925C88.6229 32.891 88.7065 32.5815 88.7665 32.2667C89.0546 31.4691 89.4716 30.7273 89.9998 30.0725C91.2332 28.5639 92.9332 26.4725 95.7665 26.7982C96.9573 26.9684 98.1155 27.3269 99.1998 27.861C99.7179 26.2187 100.656 24.7502 101.917 23.6096C103.197 22.319 104.907 21.5775 106.7 21.5353C107.608 21.5123 108.487 21.8601 109.147 22.5027C109.806 23.1452 110.19 24.0302 110.217 24.9639C110.132 25.8757 109.797 26.744 109.25 27.4667C108.178 29.0149 107.628 30.8812 107.683 32.781C107.85 35.9353 109.35 40.461 109.967 44.4382C110.117 45.4839 110.1 46.5639 110.166 47.7125C110.533 54.3125 111.483 60.3125 112.4 66.4153C112.76 68.5331 112.955 70.6771 112.983 72.8267C112.955 76.6157 111.791 80.3034 109.65 83.3867C108.787 84.795 107.818 86.1307 106.75 87.381C105.688 88.7556 104.178 89.6875 102.5 90.0039C101.48 90.1438 100.443 90.0739 99.4498 89.7982C98.5528 89.5794 97.6726 89.2929 96.8165 88.941C96.2998 89.4796 95.6851 89.9082 95.0073 90.2024C94.3296 90.4965 93.6021 90.6504 92.8665 90.6553C91.4694 90.3969 90.1835 89.7027 89.1832 88.6667C87.1091 86.8673 84.8248 85.3412 82.3832 84.1239C81.9998 84.501 82.0332 85.1182 81.9665 85.6153C81.7716 87.431 81.6881 89.2574 81.7165 91.0839C81.7165 103.084 83.0165 106.512 83.1998 110.73C83.2163 111.267 83.0958 111.8 82.8502 112.276C82.6047 112.751 82.2425 113.151 81.7998 113.438C80.6076 114.503 79.2921 115.413 77.8832 116.147C75.9092 117.213 73.852 118.107 71.7332 118.821C66.9615 120.493 61.9573 121.356 56.9165 121.375C51.8148 121.367 46.7485 120.504 41.9165 118.821C38.7719 117.837 35.7928 116.363 33.0832 114.45C32.6638 114.137 32.2631 113.8 31.8832 113.438C31.1165 112.684 30.4332 112.272 30.5165 110.712C30.5998 109.152 30.8832 107.13 31.0998 105.57C31.7343 100.798 32.0351 95.9856 31.9998 91.1696C32.0187 89.3547 31.9353 87.5403 31.7498 85.7353C31.7592 85.2025 31.6328 84.6765 31.3832 84.2096C31.0464 84.2643 30.7267 84.3993 30.4498 84.6039C28.3615 85.7833 26.3812 87.1546 24.5332 88.701C23.5286 89.7621 22.2204 90.4649 20.7998 90.7067C19.3237 90.6743 17.9159 90.0607 16.8665 88.9925C15.1182 89.85 13.1804 90.2166 11.2498 90.0553C9.54138 89.7244 8.00436 88.7758 6.9165 87.381C5.85075 86.1126 4.87597 84.7662 3.99984 83.3525C1.88361 80.2563 0.722148 76.5768 0.666504 72.7925C0.694301 70.6541 0.889376 68.5215 1.24984 66.4153C2.34921 60.228 3.12809 53.9849 3.58317 47.7125C3.58317 46.5639 3.58317 45.4667 3.7665 44.4039C4.19984 41.3696 5.03317 38.7296 5.6165 35.8325C6.33317 32.2839 6.38317 30.6896 4.49984 27.4667C3.93756 26.7515 3.59521 25.8801 3.5165 24.9639C3.54269 24.0332 3.92512 23.1509 4.58058 22.5088C5.23605 21.8667 6.11151 21.5168 7.0165 21.5353C8.81157 21.5653 10.5257 22.3087 11.7998 23.6096C13.0684 24.7291 13.9995 26.1982 14.4832 27.8439C15.5816 27.3519 16.7347 27.0007 17.9165 26.7982C20.7832 26.4553 22.4332 28.5125 23.6832 30.0725C24.2257 30.7071 24.6495 31.4394 24.9332 32.2325C24.9954 32.5597 25.0846 32.8808 25.1998 33.1925C25.1998 33.3467 25.4998 33.501 25.6165 33.621C26.5384 34.5878 27.0839 35.8685 27.1498 37.221C27.1332 37.4779 27.1332 37.7356 27.1498 37.9925C27.1498 38.1125 27.3332 38.301 27.3998 38.4553C27.8574 39.3437 28.0433 40.3535 27.9332 41.3525C27.9762 41.7913 27.9762 42.2336 27.9332 42.6725C27.9332 42.8782 28.1665 43.3753 28.1832 43.6325C28.244 44.5128 28.1073 45.3958 27.7836 46.2132C27.46 47.0306 26.958 47.7606 26.3165 48.3467C25.6891 48.8642 24.9783 49.2645 24.2165 49.5296C23.3786 49.9348 22.4294 50.0258 21.5332 49.7867C21.3498 49.8896 21.2998 50.1125 21.1998 50.2667C20.4434 51.5479 19.3823 52.6098 18.1165 53.3525C18.6998 56.1639 19.2998 58.9582 19.7832 61.8039C20.1711 61.6189 20.5305 61.3763 20.8498 61.0839C21.9003 60.387 22.9129 59.6316 23.8832 58.821C24.0832 57.3639 25.2665 56.6267 26.4332 55.9753C29.9723 54.1477 33.5992 52.5056 37.2998 51.0553C35.3665 50.2839 33.3165 49.7867 32.1332 48.3296C30.9863 46.6005 30.2395 44.6243 29.9498 42.5525C29.3979 40.217 29.1071 37.8244 29.0832 35.421C29.0703 33.5159 29.694 31.664 30.8498 30.1753C30.9665 29.9867 31.2332 29.7639 31.2332 29.541C31.2332 27.3639 31.6332 25.2039 31.8332 23.0439C31.9998 21.2096 32.0332 19.0325 32.9998 18.0382C33.1165 17.9182 33.3332 17.7982 33.4165 17.6096C33.5349 17.265 33.6187 16.9089 33.6665 16.5467C34.2921 14.3133 35.2357 12.1874 36.4665 10.2382C37.694 8.08852 39.4096 6.27683 41.4665 4.95817C42.6165 2.90103 45.0165 2.2496 47.5165 1.59817C50.2049 1.01453 52.9373 0.670394 55.6832 0.569599C58.8929 0.466705 62.1035 0.748604 65.2498 1.4096C68.1498 1.99246 70.9832 2.71246 72.1498 4.83817C74.2259 6.1248 75.9472 7.93658 77.1498 10.101C78.3698 12.038 79.3128 14.1452 79.9498 16.3582C79.9498 16.701 80.0832 17.061 80.1998 17.4039C80.3165 17.7467 80.5165 17.781 80.6665 17.9525C81.6332 18.981 81.6165 21.0553 81.8165 22.9753C82.0165 24.8953 82.1998 26.781 82.3498 28.6496C82.3322 28.9179 82.3322 29.187 82.3498 29.4553C82.4501 29.6767 82.5852 29.8794 82.7498 30.0553C83.8822 31.5561 84.4978 33.4013 84.4998 35.301C84.4759 37.7044 84.1851 40.097 83.6332 42.4325C83.3488 44.5057 82.6015 46.4831 81.4498 48.2096C80.021 49.5547 78.2833 50.5044 76.3998 50.9696V50.9696ZM69.6332 4.97531C68.7089 4.43863 67.7075 4.0567 66.6665 3.84388C60.0596 2.17642 53.1541 2.21765 46.5665 3.96389C45.686 4.14394 44.841 4.47421 44.0665 4.94103C43.1112 5.8428 42.4824 7.0518 42.2832 8.3696C44.1679 7.38361 46.1842 6.69036 48.2665 6.31246C50.6376 5.77787 53.0559 5.49638 55.4832 5.47246H58.2498C60.6656 5.50486 63.072 5.78627 65.4332 6.31246C67.5155 6.69036 69.5318 7.38361 71.4165 8.3696C71.2016 7.06708 70.5747 5.87394 69.6332 4.97531V4.97531ZM56.9165 6.3296C51.9917 6.111 47.0863 7.09192 42.5998 9.19246C43.5165 9.82674 44.5665 9.19246 45.3998 8.9696C52.9411 6.82062 60.9085 6.82062 68.4498 8.9696C69.2832 9.22674 70.4498 9.84389 71.2332 9.17531C66.7396 7.09897 61.8386 6.12479 56.9165 6.3296ZM41.3165 7.66674C38.1365 10.731 36.0078 14.773 35.2498 19.1867C35.6998 19.4096 36.1165 19.6496 36.5832 19.8382C36.8143 18.8594 37.1381 17.9063 37.5498 16.9925C38.5828 14.4042 40.1329 12.068 42.0998 10.1353C41.3332 9.77531 41.1998 8.71246 41.2498 7.66674H41.3165ZM71.6832 10.1525C73.6642 12.0656 75.207 14.4078 76.1998 17.0096C76.6409 17.9126 76.9712 18.8685 77.1832 19.8553C77.6498 19.6667 78.0832 19.4267 78.5332 19.2039C77.7765 14.7821 75.6342 10.7363 72.4332 7.68389C72.5423 8.12645 72.53 8.59148 72.3976 9.02728C72.2652 9.46308 72.0179 9.85258 71.6832 10.1525V10.1525ZM74.5332 17.4039C74.1544 16.6288 73.7199 15.8838 73.2332 15.1753C72.7832 14.4896 72.4332 13.7525 71.9332 13.1182C71.4418 12.4843 70.8828 11.9093 70.2665 11.4039C69.6449 10.8482 68.9344 10.4074 68.1665 10.101C67.2081 9.83946 66.2337 9.64473 65.2498 9.51817C60.1937 8.21618 54.9157 8.11652 49.8165 9.22674C47.921 9.39653 46.067 9.895 44.3332 10.701C43.7397 11.0943 43.1819 11.5419 42.6665 12.0382C41.6645 13.0525 40.8061 14.2066 40.1165 15.4667C39.7332 16.0839 39.3998 16.7525 39.0498 17.3696C39.2998 16.341 39.7332 15.501 39.9832 14.4725C38.5599 16.5014 37.6337 18.8537 37.2832 21.3296C37.0998 23.5067 37.4832 25.9582 37.3998 28.1867C37.1719 29.3256 37.2292 30.5055 37.5665 31.6153C37.5665 29.0953 38.3832 27.0039 38.4665 24.5696C38.4665 23.7296 38.4665 22.8553 38.4665 21.981C38.501 20.6102 38.8156 19.2622 39.3899 18.0247C39.9642 16.7872 40.7853 15.6878 41.7998 14.7982C43.6293 12.9974 45.7875 11.5874 48.1498 10.6496C49.4107 10.1043 50.7157 9.67406 52.0498 9.36389C55.0667 8.55958 58.233 8.55958 61.2498 9.36389C62.5988 9.67931 63.92 10.1094 65.1998 10.6496C67.5632 11.5854 69.7217 12.9956 71.5498 14.7982C72.5635 15.6885 73.3841 16.788 73.9583 18.0254C74.5325 19.2628 74.8476 20.6104 74.8832 21.981C74.8832 22.8725 74.8832 23.6953 74.8832 24.5525C74.8832 27.0382 75.7165 29.1296 75.7998 31.6153C76.0568 30.0521 76.1017 28.4598 75.9332 26.8839C76.0868 25.2375 76.1425 23.583 76.0998 21.9296C75.9353 19.3396 75.1261 16.8366 73.7498 14.661C73.7498 14.661 73.7498 14.5239 73.6332 14.541C73.8665 15.5353 74.3832 16.5467 74.5332 17.421V17.4039ZM38.7665 31.1182C38.96 30.9214 39.166 30.7382 39.3832 30.5696C41.5446 28.9401 43.9401 27.6676 46.4832 26.7982C53.1596 24.1463 60.5568 24.1463 67.2332 26.7982C70.038 27.7468 72.6525 29.2104 74.9498 31.1182C74.9498 31.1182 75.0665 31.2896 75.1165 31.1182C75.1321 30.7315 75.0928 30.3446 74.9998 29.9696C74.8665 28.7867 74.6832 27.7067 74.5832 26.541C74.4498 25.0153 74.5832 23.3182 74.3832 21.6896C74.3161 20.3291 73.9022 19.0107 73.1832 17.8667C70.6665 13.7696 66.3332 11.2667 61.0165 10.0667C59.5836 9.69135 58.1118 9.49564 56.6332 9.48388C53.8623 9.65425 51.1399 10.3093 48.5832 11.421C46.3626 12.2839 44.3294 13.5888 42.5998 15.261C41.6418 16.0745 40.8529 17.0782 40.2802 18.2121C39.7075 19.3461 39.3627 20.5871 39.2665 21.861C39.2665 23.3867 39.2665 25.101 39.0832 26.6782C38.8998 28.2553 38.6498 29.541 38.5665 31.1525C38.6665 31.2039 38.7332 31.0839 38.7665 31.0667V31.1182ZM34.1165 20.7296C34.1165 22.3582 33.6165 26.4725 33.4165 29.6096C33.3689 30.0482 33.3689 30.491 33.4165 30.9296C33.5795 31.4254 33.8955 31.8528 34.3165 32.1467C34.5511 32.3301 34.8217 32.4587 35.1095 32.5239C35.3973 32.589 35.6954 32.589 35.9832 32.5239C35.6974 28.9292 35.798 25.313 36.2832 21.741C35.4834 21.5864 34.7367 21.2201 34.1165 20.6782V20.7296ZM79.4165 32.1296C79.8535 31.8224 80.1811 31.377 80.3498 30.861C80.3885 30.4277 80.3885 29.9915 80.3498 29.5582C80.1832 26.7467 79.8165 23.1467 79.5998 20.6439C79.0527 21.204 78.3463 21.5702 77.5832 21.6896C78.0739 25.261 78.1801 28.8771 77.8998 32.4725C78.4296 32.5691 78.975 32.4458 79.4165 32.1296ZM16.7332 80.4725C17.1311 79.481 17.3892 78.4362 17.4998 77.3696C17.6332 76.2725 17.9332 75.1925 18.0165 74.0782C18.25 71.6785 18.25 69.2607 18.0165 66.861C17.5165 62.3696 16.3498 58.0667 15.8665 53.781C15.5204 53.7982 15.1744 53.745 14.8484 53.6243C14.5224 53.5037 14.2227 53.3181 13.9665 53.0782C15.0413 52.5616 16.063 51.9356 17.0165 51.2096C18.3903 50.107 19.5543 48.7528 20.4498 47.2153C20.5665 47.061 20.7665 46.9067 20.7332 46.7525C20.3082 46.6507 19.9027 46.4769 19.5332 46.2382C19.3498 46.1353 19.0998 46.0839 19.0332 45.861C19.9998 45.741 21.0998 45.9982 22.1332 45.861C22.7665 45.861 23.3998 45.7582 23.9498 45.6553C24.4998 45.5525 24.8832 45.0039 25.3498 44.8839C25.0665 45.8267 24.1665 46.1696 23.3998 46.5982C23.0332 46.821 22.6832 47.0096 22.3498 47.2325C22.3498 47.2325 22.0665 47.421 22.1332 47.4553C23.0155 47.4466 23.8633 47.1017 24.5128 46.4875C25.1623 45.8732 25.5674 45.0332 25.6498 44.1296C25.6665 44.0447 25.6665 43.9573 25.6498 43.8725C25.4832 42.3125 22.9832 42.4839 21.5165 42.2782C20.0498 42.0725 19.1332 41.781 18.7165 40.7525C20.5332 41.3182 23.4498 40.9067 25.3832 41.3696C25.5498 40.341 25.3832 39.3639 24.7665 38.9525C24.1769 38.6826 23.5443 38.5257 22.8998 38.4896C22.2165 38.3867 21.4665 38.3182 20.8332 38.1982C19.6065 38.0996 18.4407 37.608 17.4998 36.7925C17.2573 36.4469 17.0453 36.0798 16.8665 35.6953C17.3998 35.901 17.8998 36.261 18.5332 36.4667C20.5481 36.9908 22.6078 37.3123 24.6832 37.4267C24.6832 34.8725 22.8332 34.3582 20.6498 33.8782C17.8332 33.2782 16.0165 33.141 15.6498 31.7867C16.9261 32.2367 18.254 32.5133 19.5998 32.6096C19.9332 32.2325 19.8332 31.4267 20.1665 31.0325C20.3926 31.5746 20.4279 32.1807 20.2665 32.7467C20.9832 32.8496 21.7832 32.8667 22.5165 32.9696C22.216 32.1868 21.7556 31.4794 21.1665 30.8953C20.6922 30.2274 20.0841 29.672 19.3832 29.2667C17.984 28.9026 16.5021 29.1115 15.2498 29.8496C13.5832 30.5696 12.1498 31.5639 10.5498 32.2153C11.1748 31.133 11.8944 30.1116 12.6998 29.1639C12.4518 28.1459 12.0027 27.1914 11.3805 26.3597C10.7583 25.528 9.97629 24.837 9.08317 24.3296C8.43571 23.9108 7.68086 23.7018 6.9165 23.7296C6.63478 23.7443 6.36373 23.8451 6.13806 24.0192C5.9124 24.1933 5.7424 24.4327 5.64984 24.7067C5.64984 25.341 6.19984 26.0953 6.54984 26.661C7.87546 28.6725 8.4659 31.1017 8.2165 33.5182C8.03946 35.1713 7.74986 36.8096 7.34984 38.421C6.98317 39.981 6.6165 41.5067 6.3165 43.1353C5.34984 48.2782 5.74984 52.821 4.04984 63.8953C3.32463 67.2947 2.98901 70.7699 3.04984 74.2496C3.43023 77.2335 4.54931 80.0668 6.29984 82.4782C7.02276 83.6253 7.83665 84.709 8.73317 85.7182C9.17707 86.3173 9.75318 86.7993 10.4139 87.1242C11.0747 87.4491 11.8011 87.6076 12.5332 87.5867C14.056 87.3929 15.5372 86.9411 16.9165 86.2496C18.2832 85.6839 19.4832 85.1696 20.8332 84.5353C22.0665 81.8782 21.4665 78.1239 20.8332 75.4153C20.6004 74.0801 20.226 72.7751 19.7165 71.5239C19.6231 74.7481 18.583 77.8678 16.7332 80.4725ZM95.5832 66.861C95.3327 69.2713 95.3327 71.7022 95.5832 74.1125C95.6998 75.2267 95.9665 76.341 96.1165 77.421C96.2479 78.4707 96.517 79.4972 96.9165 80.4725C96.9165 80.4725 96.9165 80.4725 96.9165 80.4725C96.0446 79.2777 95.3534 77.9542 94.8665 76.5467C94.4319 74.91 94.1144 73.2426 93.9165 71.5582C93.6106 72.3594 93.349 73.1779 93.1332 74.0096C92.3665 77.0953 91.5498 81.3982 92.9165 84.5696C94.2665 85.221 95.4332 85.7696 96.7998 86.2839C98.1698 86.9502 99.6314 87.3955 101.133 87.6039C101.866 87.6276 102.593 87.4703 103.254 87.1452C103.915 86.82 104.491 86.3366 104.933 85.7353C105.84 84.7266 106.665 83.643 107.4 82.4953C109.151 80.0796 110.265 77.239 110.633 74.2496C110.777 72.4421 110.71 70.6235 110.433 68.8325C110.217 67.1182 109.933 65.4039 109.683 63.8267C108.017 52.701 108.383 48.1753 107.417 43.0667C106.683 39.1582 105.75 36.4325 105.517 33.4496C105.258 31.0325 105.849 28.6002 107.183 26.5925C107.617 25.8896 108.467 24.8782 107.833 24.141C107.49 23.8707 107.082 23.7036 106.652 23.6582C106.222 23.6128 105.789 23.6909 105.4 23.8839C104.311 24.3237 103.343 25.0296 102.58 25.9406C101.816 26.8517 101.279 27.9403 101.016 29.1125C101.823 30.045 102.533 31.062 103.133 32.1467C100.683 31.0667 100.417 30.6896 98.8332 29.9525C97.6576 29.2892 96.3406 28.9358 94.9998 28.9239C94.054 29.133 93.2169 29.6948 92.6498 30.501C92.342 30.8505 92.0527 31.2167 91.7832 31.5982C91.4518 31.9619 91.2115 32.4032 91.0832 32.8839C91.7998 32.7639 92.7498 32.7982 93.3165 32.6267C93.2317 32.3613 93.2027 32.0804 93.2314 31.8026C93.2601 31.5248 93.346 31.2564 93.4832 31.0153C93.7165 31.4953 93.6665 32.2496 94.0165 32.5925C95.361 32.4861 96.6877 32.2097 97.9665 31.7696C97.5832 32.9525 96.2998 33.1753 94.9498 33.4839L92.2332 34.0839C90.3832 34.5125 88.8998 35.1639 88.8998 37.4267C90.9811 37.3162 93.0467 36.9947 95.0665 36.4667C95.6665 36.2439 96.1332 35.8839 96.7332 35.7296C96.5317 36.1027 96.3091 36.4633 96.0665 36.8096C94.9998 38.0782 91.9665 38.301 90.7165 38.5239C90.0619 38.5643 89.4191 38.7209 88.8165 38.9867C88.1332 39.3982 88.0498 40.3925 88.1998 41.4039C90.1832 40.941 93.0332 41.4039 94.8665 40.7867C94.4165 41.7982 93.3998 42.1239 92.0332 42.3125C90.7861 42.3111 89.5492 42.5435 88.3832 42.9982C87.3332 43.8382 88.2165 45.7753 88.9665 46.4267C89.6584 47.0469 90.5332 47.4092 91.4498 47.4553C90.5665 46.5296 88.6498 46.2553 88.2332 44.8496C88.6665 45.0039 89.0998 45.5353 89.5998 45.621C90.0998 45.7067 90.8165 45.7753 91.4498 45.8267C92.4766 45.7587 93.5065 45.7587 94.5332 45.8267C94.0489 46.2402 93.4787 46.5335 92.8665 46.6839C93.6955 48.0133 94.6381 49.2639 95.6832 50.421C96.2714 50.9483 96.9014 51.4243 97.5665 51.8439C98.2165 52.2896 98.9498 52.6496 99.6498 53.0439C99.1171 53.4979 98.4413 53.7357 97.7498 53.7125C97.1832 58.1353 96.0832 62.2496 95.5832 66.861ZM51.1998 26.061C49.8103 26.3371 48.4406 26.7094 47.0998 27.1753C44.9155 27.8768 42.8433 28.9049 40.9498 30.2267C40.6832 30.4153 40.3165 30.6382 40.2498 30.861C40.1951 31.3164 40.1951 31.777 40.2498 32.2325C40.2498 32.7467 40.1665 33.2096 40.2498 33.5867C40.2498 34.5296 40.3998 35.301 40.4998 36.261C40.7165 37.9753 41.0165 39.6896 42.2665 40.3239C43.1961 40.5486 44.1693 40.489 45.0665 40.1525C46.7912 39.6072 48.4878 38.9721 50.1498 38.2496C51.2665 37.821 52.4832 37.461 53.7498 37.1182C55.0393 36.7457 56.3787 36.5894 57.7165 36.6553C58.9236 36.798 60.1132 37.068 61.2665 37.461C62.3998 37.7867 63.4998 38.2153 64.5998 38.6096C66.1843 39.3193 67.8233 39.8926 69.4998 40.3239C70.1261 40.4882 70.7787 40.5174 71.4165 40.4096C73.0832 39.9296 73.3165 37.5467 73.5165 35.3696C73.5906 34.6179 73.6129 33.8617 73.5832 33.1067C73.5832 32.7467 73.5832 32.3182 73.5832 31.9239C73.6319 31.5427 73.6319 31.1565 73.5832 30.7753C73.4998 30.5525 73.0332 30.261 72.8332 30.1067C70.7261 28.6889 68.4221 27.6081 65.9998 26.901C62.7788 25.802 59.3905 25.3141 55.9998 25.461C54.3878 25.5412 52.7836 25.7418 51.1998 26.061V26.061ZM38.5832 33.5525C38.5978 34.372 38.6534 35.1902 38.7498 36.0039C38.9998 38.9696 39.3332 42.3639 42.0832 42.5867C42.9935 42.6215 43.901 42.4639 44.7498 42.1239C48.7832 40.821 51.6665 38.541 56.8332 38.541C61.9998 38.541 64.8832 40.8553 68.8832 42.1239C69.741 42.4518 70.6516 42.6088 71.5665 42.5867C74.6998 42.381 74.8998 38.2325 75.0832 34.9925C75.1146 34.4844 75.1146 33.9748 75.0832 33.4667C75.0256 32.6924 74.7142 31.961 74.1998 31.3925C74.1998 31.3925 74.0332 31.1867 73.9998 31.3067C73.971 31.5344 73.971 31.7648 73.9998 31.9925C74.0444 32.7289 74.0444 33.4675 73.9998 34.2039C73.7998 36.981 73.7832 40.221 71.5165 40.8896C70.6485 41.0372 69.7591 40.9786 68.9165 40.7182C66.4165 40.1353 64.4832 39.141 62.2498 38.3867C60.6702 37.796 59.0234 37.4157 57.3498 37.2553C55.6158 37.2559 53.8953 37.5692 52.2665 38.181C49.9998 38.8839 47.8998 39.8953 45.5998 40.5467C44.7758 40.8237 43.9165 40.9739 43.0498 40.9925C40.8332 40.9925 40.2998 38.901 40.0665 36.741C39.8269 34.9235 39.7433 33.0879 39.8165 31.2553C39.1465 31.8405 38.7079 32.6576 38.5832 33.5525V33.5525ZM31.3498 35.1639C31.3373 36.312 31.4209 37.4591 31.5998 38.5925C31.8301 40.7103 32.2599 42.8001 32.8832 44.8325C33.1498 44.6953 33.2998 44.3182 33.4498 43.9925C33.6257 43.6327 33.7385 43.2439 33.7832 42.8439C33.8005 41.9212 33.6768 41.0014 33.4165 40.1182C32.5221 37.577 32.1146 34.8816 32.2165 32.181C31.6419 33.0657 31.324 34.1003 31.2998 35.1639H31.3498ZM81.1165 37.3925C80.6202 38.9043 80.2577 40.4592 80.0332 42.0382C79.977 42.7194 80.0918 43.4042 80.3665 44.0267C80.4679 44.3595 80.6656 44.6525 80.9332 44.8667C81.5407 42.8292 81.9756 40.7414 82.2332 38.6267C82.4998 36.3982 82.7665 33.6896 81.5998 32.2153C81.7724 33.9604 81.5908 35.7233 81.0665 37.3925H81.1165ZM34.4498 39.6553C34.8673 40.8513 35.021 42.1278 34.8998 43.3925C34.8381 43.936 34.665 44.46 34.3921 44.9298C34.1192 45.3996 33.7526 45.8046 33.3165 46.1182C34.0332 47.8325 36.1832 48.1925 37.8332 48.8267C36.294 43.8828 35.7885 38.66 36.3498 33.501C36.0392 33.6177 35.7219 33.7151 35.3998 33.7925C34.9001 33.8007 34.4066 33.6775 33.9661 33.4345C33.5257 33.1914 33.1529 32.8367 32.8832 32.4039C32.8172 34.9018 33.3075 37.3822 34.3165 39.6553H34.4498ZM78.4165 33.741C78.0498 33.741 77.6998 33.4667 77.4832 33.4667C78.0578 38.6596 77.5522 43.9188 75.9998 48.8953C77.6665 48.1582 79.8165 47.8667 80.5332 46.1353C79.9667 45.7363 79.5137 45.1893 79.2208 44.5506C78.9279 43.9119 78.8056 43.2045 78.8665 42.501C78.9998 39.6896 81.1832 36.8782 80.8998 32.4725C80.616 32.9075 80.2227 33.2553 79.7619 33.4786C79.3011 33.702 78.7901 33.7927 78.2832 33.741H78.4165ZM37.3665 38.2496C37.4665 39.6553 37.5998 41.061 37.7498 42.3639C38.0665 45.0896 38.3498 47.8325 39.7665 49.3239C38.3665 44.5582 38.0998 38.661 37.3665 33.1582C37.0854 34.843 37.0854 36.5648 37.3665 38.2496V38.2496ZM73.9332 49.3239C75.3665 47.8496 75.5998 45.0896 75.9498 42.3639C76.0998 41.061 76.2498 39.6553 76.3498 38.2496C76.6463 36.5777 76.6463 34.8644 76.3498 33.1925C75.9722 38.6352 75.1865 44.0398 73.9998 49.3582C73.9998 49.3582 73.9498 49.3582 73.9332 49.2896V49.3239ZM73.2998 44.3182C72.1003 44.8373 70.8174 45.1221 69.5165 45.1582C66.9832 45.2782 62.4998 44.2325 58.9498 44.061C56.4741 43.9318 53.9921 44.0293 51.5332 44.3525C49.2248 44.7824 46.8924 45.063 44.5498 45.1925C43.1342 45.1701 41.734 44.8856 40.4165 44.3525C40.8267 45.7909 41.3564 47.1903 41.9998 48.5353C41.3665 47.7296 40.8165 46.821 40.3332 45.9639C40.5838 48.2451 41.3361 50.4377 42.5332 52.3753C43.7186 54.033 45.0163 55.6026 46.4165 57.0725C47.7433 58.6027 49.1568 60.051 50.6498 61.4096C52.4477 62.8512 54.6619 63.634 56.9415 63.634C59.2211 63.634 61.4354 62.8512 63.2332 61.4096C64.7168 60.0465 66.1246 58.5984 67.4498 57.0725C70.1332 54.0382 73.0665 51.1925 73.5165 45.9639C73.1216 46.6375 72.6933 47.2898 72.2332 47.9182C72.119 48.1439 71.96 48.3425 71.7665 48.501C72.4234 47.1561 72.9375 45.7422 73.2998 44.2839V44.3182ZM77.1332 96.7582C77.3332 96.261 77.4998 95.781 77.6998 95.2496C77.8998 94.7182 80.1332 88.8382 79.7998 84.8439C79.6498 83.1296 79.4332 81.5867 79.3498 79.9582C79.295 78.2728 79.3899 76.5858 79.6332 74.9182C80.3832 68.5067 81.8332 62.9182 85.6998 59.7639C84.8629 61.08 84.1166 62.4548 83.4665 63.8782C82.7912 65.4856 82.3368 67.1819 82.1165 68.9182C81.5721 72.9438 81.4047 77.0139 81.6165 81.0725C84.5968 82.6557 87.4307 84.5148 90.0832 86.6267C90.8598 87.4766 91.8186 88.1282 92.8832 88.5296C93.4689 88.6065 94.0618 88.4602 94.5498 88.1182C93.4089 87.9445 92.355 87.3904 91.5498 86.541C91.3928 86.3126 91.2535 86.0719 91.1332 85.821C90.4535 84.2028 90.2006 82.429 90.3998 80.6782C90.4547 79.2173 90.6445 77.765 90.9665 76.341C91.3785 74.1433 92.1868 72.0442 93.3498 70.1525C93.5353 69.922 93.692 69.6686 93.8165 69.3982C93.8478 68.9874 93.8478 68.5747 93.8165 68.1639C93.7748 67.3244 93.7748 66.4833 93.8165 65.6439C93.8615 65.228 93.8615 64.8083 93.8165 64.3925C93.8165 64.221 93.1832 63.9125 92.9332 63.741C91.9665 63.0725 90.9998 62.421 90.1332 61.7867C89.2509 61.0643 88.333 60.3891 87.3832 59.7639C86.8853 59.4176 86.3136 59.2 85.7165 59.1296C86.0165 58.6839 86.8332 58.581 87.5832 58.6839C87.6665 58.6839 87.5832 58.5467 87.5832 58.5296C87.1267 58.1702 86.6284 57.8708 86.0998 57.6382C81.8165 55.4953 77.1998 53.6782 72.8165 51.9639C72.5098 52.5585 72.1646 53.1312 71.7832 53.6782C71.6288 53.8618 71.505 54.0703 71.4165 54.2953C71.384 54.6374 71.384 54.9818 71.4165 55.3239C71.4365 56.3635 71.3584 57.4027 71.1832 58.4267C70.8581 61.8643 69.4473 65.0977 67.1665 67.6325C65.5782 69.1366 63.6642 70.2297 61.5832 70.821C61.0373 71.001 60.4805 71.1442 59.9165 71.2496C58.5624 71.4242 57.1955 71.4701 55.8332 71.3867C55.1332 71.3867 54.4332 71.3867 53.7832 71.2496C52.8627 71.0597 51.9595 70.7902 51.0832 70.4439C48.6271 69.654 46.4978 68.0431 45.0332 65.8667C42.9971 62.4003 42.0594 58.3685 42.3498 54.3296C41.8106 53.5717 41.3153 52.7818 40.8665 51.9639C37.1165 53.5067 33.1832 55.0839 29.5665 56.7639C28.4901 57.2374 27.458 57.8112 26.4832 58.4782C26.3665 58.5639 26.1498 58.6667 26.1998 58.7696C26.5255 58.6834 26.8666 58.6788 27.1943 58.7564C27.5221 58.834 27.8269 58.9913 28.0832 59.2153C27.4348 59.2636 26.812 59.495 26.2832 59.8839C25.9496 60.0672 25.6318 60.2794 25.3332 60.5182C23.8804 61.7007 22.3611 62.794 20.7832 63.7925C20.5332 63.9639 19.9332 64.3239 19.8832 64.4782C19.8467 64.883 19.8467 65.2905 19.8832 65.6953C19.9245 66.5405 19.9245 67.3873 19.8832 68.2325C19.8526 68.649 19.8526 69.0673 19.8832 69.4839C20.0239 69.7765 20.2034 70.0477 20.4165 70.2896C21.7055 72.4085 22.5565 74.7777 22.9165 77.2496C23.4332 80.2496 23.7832 84.4496 22.1832 86.541C21.7965 86.9759 21.3326 87.3308 20.8165 87.5867C20.2927 87.87 19.7311 88.0721 19.1498 88.1867C19.5801 88.4462 20.0678 88.5879 20.5665 88.5982C21.1475 88.483 21.6883 88.2108 22.1332 87.8096C22.6165 87.4496 23.0332 87.0553 23.4332 86.7125C26.1302 84.5905 29.0022 82.7148 32.0165 81.1067C32.2233 77.0476 32.0503 72.9775 31.4998 68.9525C31.0357 65.6422 29.8132 62.4928 27.9332 59.7639C31.7832 63.0553 33.2332 68.541 33.9998 74.9525C34.2339 76.6096 34.3287 78.2843 34.2832 79.9582C34.1832 81.6725 33.9665 83.2496 33.8332 84.8782C33.8266 89.0363 34.7444 93.1409 36.5165 96.8782C35.4942 95.5783 34.6373 94.1496 33.9665 92.6267C34.0601 95.8811 33.9655 99.1383 33.6832 102.381C33.4665 104.918 32.9998 107.524 32.7665 110.25C32.6938 110.628 32.6548 111.012 32.6498 111.398C32.6498 111.621 33.3998 112.135 33.6832 112.358C36.5765 114.391 39.7666 115.936 43.1332 116.935C45.2362 117.605 47.3797 118.132 49.5498 118.512C54.3213 119.473 59.2284 119.473 63.9998 118.512C69.6636 117.683 75.0805 115.582 79.8665 112.358C80.1832 112.101 80.8665 111.638 80.9165 111.398C80.9273 111.024 80.8937 110.65 80.8165 110.284C80.5498 107.541 80.1165 104.987 79.8832 102.381C79.6213 99.137 79.5212 95.8813 79.5832 92.6267C78.9526 94.1013 78.1282 95.4799 77.1332 96.7239V96.7582ZM69.2165 56.9696C68.8832 57.3125 68.2998 57.7582 68.1498 58.1867C68.0823 58.4797 68.0377 58.7778 68.0165 59.0782C67.6639 60.7022 66.9207 62.2092 65.8549 63.4612C64.7892 64.7131 63.435 65.6699 61.9165 66.2439C61.431 66.4465 60.936 66.6239 60.4332 66.7753C59.2745 67.0811 58.0781 67.2082 56.8832 67.1525C55.6775 67.1995 54.4713 67.0726 53.2998 66.7753C49.4665 65.4039 46.6332 63.3467 45.7332 59.0439C45.6994 58.7441 45.6493 58.4465 45.5832 58.1525C45.4568 57.9203 45.2869 57.7164 45.0832 57.5525C44.5165 56.9696 43.9832 56.3525 43.4165 55.8382C43.4165 60.4496 44.5332 64.0839 46.8498 66.4839C48.1737 67.792 49.7438 68.8075 51.4636 69.4679C53.1834 70.1283 55.0165 70.4196 56.8498 70.3239C58.6855 70.4141 60.5196 70.1169 62.2394 69.4506C63.9592 68.7843 65.5282 67.763 66.8498 66.4496C69.1832 63.9982 70.1832 60.4496 70.1832 55.8039C69.8411 56.1746 69.5185 56.5637 69.2165 56.9696Z" fill="black"/>
<path fill-rule="evenodd" clip-rule="evenodd" d="M47.7167 47.3349C47.9167 47.5577 47.8167 48.2092 47.8 48.552C48.8081 48.4092 49.8349 48.5331 50.7834 48.912C52.7465 49.5623 54.7886 49.9259 56.85 49.992C58.9119 49.9309 60.9548 49.5672 62.9167 48.912C63.859 48.5316 64.8794 48.4019 65.8834 48.5349C65.8834 48.2435 65.8834 47.5749 65.9667 47.3177C66.1915 47.726 66.3598 48.1645 66.4667 48.6206C66.5667 48.8263 66.7334 48.9977 66.8334 49.2206C66.9625 49.6361 67.13 50.0379 67.3334 50.4206C67.2334 50.4206 67.0334 50.1806 66.9 50.0606C66.7667 49.9406 66.55 49.7349 66.3834 49.6149C66.25 50.472 66.0167 51.192 65.8334 51.9292C65.3834 53.6435 65.6834 55.3577 62.2167 56.8492C60.7258 57.4385 59.1469 57.7576 57.55 57.792C56.2609 57.8117 54.9725 57.7141 53.7 57.5006C52.511 57.3379 51.3723 56.9045 50.3667 56.232C48.1334 54.8778 48.3667 53.7292 47.9667 52.2035C47.7334 51.3635 47.4834 50.4892 47.3167 49.6492C47.0493 49.8378 46.7983 50.05 46.5667 50.2835C46.5667 50.2835 46.4334 50.5063 46.3667 50.4206C46.9167 49.4435 47.3 48.4149 47.7167 47.3349ZM61.5167 50.0435C60.1831 50.4264 58.8148 50.6677 57.4334 50.7635C55.7163 50.7969 54.0037 50.5717 52.35 50.0949C51.0064 49.5685 49.5681 49.3463 48.1334 49.4435C48.4167 49.9063 48.4667 50.6949 48.8 51.1577C49.2354 51.6008 49.7753 51.9198 50.3667 52.0835C53.9398 53.1916 57.7229 53.38 61.3834 52.632C62.55 52.392 64.35 51.9635 64.9 51.1406C65.1599 50.5833 65.3881 50.0109 65.5834 49.4263C64.2018 49.3611 62.821 49.5706 61.5167 50.0435V50.0435ZM60.55 53.9177C60.2244 53.7734 59.883 53.6698 59.5334 53.6092C59.1034 53.6182 58.6745 53.6583 58.25 53.7292C57.8 53.7292 57.3167 53.7292 56.85 53.7292C56.3834 53.7292 55.9167 53.7292 55.45 53.7292C54.9073 53.5804 54.3378 53.5682 53.7896 53.6935C53.2413 53.8188 52.7304 54.078 52.3 54.4492C51.7889 54.8138 51.4037 55.3361 51.2 55.9406C52.9764 56.7629 54.9021 57.1881 56.85 57.1881C58.798 57.1881 60.7237 56.7629 62.5 55.9406C62.335 55.4794 62.0754 55.06 61.739 54.711C61.4025 54.362 60.997 54.0915 60.55 53.9177V53.9177Z" fill="black"/>
<path d="M26.25 121.285C24.6 121.285 23.25 120.535 22.35 118.885C21.45 117.235 21 114.385 21 110.785C21 105.685 21 100.735 21 95.635C21 92.335 21.45 90.385 22.2 89.785C22.95 89.185 24.3 90.085 26.25 92.185C28.65 94.585 30.3 96.835 31.05 99.085C31.5 100.435 31.8 101.935 31.8 103.885C31.8 104.485 31.8 105.085 31.95 105.535C30.75 104.935 29.55 104.335 28.35 103.585C28.35 102.685 28.35 101.635 28.2 100.735C28.2 99.535 28.05 98.485 27.75 97.885C27.45 97.135 27 96.535 26.4 95.935C25.8 95.335 25.35 95.185 25.05 95.635C24.75 96.085 24.75 97.135 24.75 98.785C24.9 103.135 24.9 107.635 25.05 111.985C25.05 113.935 25.2 115.435 25.5 116.185C25.8 116.935 26.25 117.385 27 117.535C27.75 117.685 28.2 117.235 28.5 116.635C28.8 115.885 28.95 114.685 28.8 113.035C28.8 111.835 28.65 110.635 28.65 109.435C28.05 109.135 27.3 108.985 26.7 108.685C26.7 107.635 26.7 106.585 26.55 105.535C28.35 106.435 30.15 107.335 31.95 108.085C32.1 112.435 32.4 116.785 32.55 121.135C31.95 121.135 31.35 121.135 30.75 121.135C30.45 120.235 30.3 119.485 30 118.585C29.85 119.485 29.4 120.085 28.65 120.535C28.05 120.985 27.15 121.285 26.25 121.285Z" fill="black"/>
<path d="M33.75 120.985C34.65 113.335 35.55 106.435 36.45 99.985C38.25 100.885 40.2 101.635 42 102.385C43.8 109.135 45.45 115.285 46.95 121.135C45.75 121.135 44.4 121.135 43.2 121.135C42.9 120.085 42.6 118.885 42.45 117.835C40.95 117.685 39.6 117.685 38.1 117.535C37.95 118.735 37.8 119.935 37.8 121.135C36.3 120.985 35.1 120.985 33.75 120.985ZM41.85 115.285C41.1 111.985 40.35 108.685 39.45 105.235C39 108.385 38.7 111.535 38.4 114.985C39.45 114.985 40.65 115.135 41.85 115.285Z" fill="black"/>
<path d="M48.3002 120.985C48.1502 115.285 47.8502 109.585 47.7002 103.735C49.5002 104.035 51.3002 104.335 53.1002 104.485C54.4502 108.535 55.8002 112.585 57.1502 116.635C58.3502 112.585 59.7002 108.535 61.0502 104.335C62.8502 104.185 64.6502 103.735 66.4502 103.285C66.1502 109.135 66.0002 115.135 65.7002 120.985C64.5002 120.985 63.3002 120.985 62.1002 120.985C62.1002 118.885 62.2502 116.785 62.2502 114.685C62.4002 112.735 62.4002 110.785 62.5502 108.835C61.2002 113.035 59.8502 116.935 58.6502 120.835C57.6002 120.835 56.5502 120.835 55.3502 120.835C54.1502 116.935 52.8002 113.035 51.3002 108.985C51.4502 110.935 51.4502 112.735 51.6002 114.685C51.6002 116.785 51.7502 118.885 51.7502 120.835C50.7002 120.985 49.5002 120.985 48.3002 120.985Z" fill="black"/>
<path d="M68.3994 120.985C68.6994 114.835 68.9994 108.685 69.2994 102.535C72.4494 101.485 75.4494 100.135 78.4494 98.335C78.4494 99.385 78.2994 100.285 78.2994 101.335C76.6494 102.235 74.9994 102.985 73.3494 103.585C73.1994 105.535 73.1994 107.485 73.0494 109.435C74.5494 108.985 76.1994 108.535 77.6994 107.935C77.6994 108.835 77.5494 109.885 77.5494 110.785C76.0494 111.235 74.3994 111.535 72.8994 111.835C72.7494 113.935 72.5994 116.035 72.5994 118.135C74.2494 117.985 76.0494 117.835 77.6994 117.685C77.6994 118.735 77.5494 119.635 77.5494 120.685C74.3994 120.985 71.3994 120.985 68.3994 120.985Z" fill="black"/>
<path d="M85.0506 107.635C84.6006 107.785 84.1506 107.935 83.8506 108.085C83.7006 112.285 83.5506 116.635 83.4006 120.835C82.0506 120.835 80.7006 120.835 79.3506 120.835C79.8006 112.885 80.1006 104.935 80.5506 96.835C82.8006 95.335 84.9006 93.385 86.8506 91.285C88.0506 89.935 88.9506 89.185 89.5506 89.035C90.1506 89.035 90.4506 89.485 90.7506 90.535C90.9006 91.585 91.0506 93.235 91.0506 95.335C91.0506 97.435 90.9006 99.235 90.6006 100.585C90.3006 101.935 89.7006 102.985 88.8006 103.885C89.7006 103.585 90.1506 103.885 90.6006 105.085C90.9006 106.285 91.0506 109.135 91.0506 113.635C91.0506 118.135 91.0506 120.535 91.2006 120.835C89.8506 120.835 88.5006 120.835 87.1506 120.835C87.0006 120.535 87.1506 116.935 87.3006 110.035C87.3006 108.685 87.1506 107.935 87.0006 107.485C86.4006 107.335 85.9506 107.335 85.0506 107.635ZM84.0006 104.935C84.4506 104.635 85.0506 104.335 85.5006 104.035C85.9506 103.735 86.4006 103.435 86.5506 102.985C86.8506 102.535 87.0006 102.085 87.0006 101.335C87.1506 100.585 87.1506 99.685 87.1506 98.335V98.185C87.1506 96.535 87.1506 95.635 86.8506 95.335C86.7006 95.035 86.1006 95.335 85.3506 95.935C84.9006 96.235 84.4506 96.685 84.0006 96.985C84.1506 99.685 84.1506 102.235 84.0006 104.935Z" fill="black"/>
</g>
<defs>
<clipPath id="clip0_156_238">
<rect width="114" height="120" fill="white" transform="translate(0 0.535034)"/>
</clipPath>
</defs>
</svg>
