<svg width="59" height="73" viewBox="0 0 59 73" fill="none" xmlns="http://www.w3.org/2000/svg">
<path d="M49.3364 47.6622H54.0982L55.4727 52.5344L54.3927 52.8592V59.6802L54.5891 59.7344L55.0309 64.7148H37.3582C35.2964 66.9885 33.1364 69.0456 30.8291 70.9945L29.5036 72.1855L28.1782 70.9945C25.92 69.0456 23.76 66.9344 21.6491 64.7148H4.95818L3.63273 59.7885L4.71273 59.5178V52.5885L4.41818 52.4802L4.07455 47.5539H9.76909C7.06909 42.1404 5.05636 36.3479 4.02545 30.3389L1.76727 28.8772C1.12909 28.4983 0.883636 27.578 1.17818 26.8201L1.47273 26.2246L1.22727 26.1163C1.17818 26.0622 1.12909 26.0622 1.12909 26.008C0.981818 25.8998 0.834546 25.7374 0.736364 25.575L0 25.1419L2.55273 20.4321L3.19091 20.8652V20.1614L4.66364 19.5118C7.60909 18.2667 10.5545 17.0757 13.5491 15.9389C14.6291 15.5599 15.7091 15.1268 16.74 14.7479C17.1818 12.6907 17.9182 10.6877 19.0473 9.00954C19.8818 7.81857 20.8145 6.68172 21.8455 5.65315C23.1218 4.40804 24.4964 3.21706 25.8709 2.13436C26.5091 1.64714 27.1964 1.15992 27.8836 0.672701L28.8655 0.131348L29.7 0.618566C30.24 0.943378 30.78 1.26819 31.2709 1.53887C32.1545 2.08022 33.0382 2.67571 33.8727 3.2712C34.8545 3.75842 36.0327 4.78699 36.8182 5.54488C37.26 5.92383 37.6527 6.35691 38.0455 6.84413C38.8309 7.81857 39.5673 8.84714 40.1564 9.92984C40.3036 10.2005 40.4509 10.5253 40.5491 10.8501C41.1382 11.987 41.58 13.3404 41.8746 14.6938C43.0036 15.0727 44.1818 15.4516 45.3109 15.8847C48.2564 17.0757 51.2509 18.2667 54.1964 19.4577L55.6691 20.1073V20.811L56.3073 20.378L58.86 25.0877L58.2218 25.4667C58.1236 25.6291 57.9764 25.8456 57.8291 25.8998C57.78 25.9539 57.7309 25.9539 57.7309 26.008L57.4855 26.1163L57.78 26.7659C58.1236 27.5238 57.8782 28.4441 57.1909 28.8231L54.9327 30.2847C54.0491 36.4562 52.0364 42.2486 49.3364 47.6622Z" fill="url(#paint0_linear_211_942)"/>
<path d="M5.54736 21.8939C5.69464 41.0036 16.7892 58.0021 29.5528 68.9375C42.3655 57.948 53.411 41.0036 53.5583 21.8939C53.5583 21.8939 50.4655 20.5946 44.7219 18.2668C38.9783 15.939 29.5037 13.8818 29.5037 13.8818C29.5037 13.8818 20.0783 15.9931 14.2855 18.2668C8.64009 20.5946 5.54736 21.8939 5.54736 21.8939Z" fill="#873720"/>
<path d="M6.7255 22.8682C6.97096 31.0967 9.27823 39.0005 12.911 46.0381C17.0837 54.2667 23.0728 61.5208 29.5528 67.205C35.9837 61.4667 41.9728 54.2667 46.1946 46.0381C49.8273 38.9464 52.1346 31.0967 52.3801 22.8682C51.1037 22.3268 48.4528 21.2441 44.3782 19.6201C39.2728 17.5629 31.0255 15.6682 29.6019 15.2892C28.1291 15.6682 19.9801 17.5629 14.8255 19.6201C10.7019 21.2441 8.00187 22.381 6.7255 22.8682ZM10.8491 47.4456C6.92187 39.7043 4.41823 31.0426 4.36914 21.8937V20.9193L5.20369 20.5945C5.20369 20.5945 8.3946 19.2411 14.0891 16.9674C19.8819 14.6937 29.4055 12.5283 29.4055 12.5283H29.8473C29.8964 12.5283 39.371 14.6937 45.1637 16.9674C50.8582 19.2411 54.0001 20.5945 54.0491 20.5945L54.8837 20.9193V21.8937C54.7855 31.0426 52.331 39.6501 48.3546 47.4456C43.8382 56.3779 37.3582 64.1193 30.3873 70.0742L29.651 70.7238L28.9146 70.0742C21.8946 64.1193 15.4146 56.3779 10.8491 47.4456Z" fill="#240347"/>
<path d="M15.071 26.387L7.46191 32.1253C7.46191 32.1253 10.8492 47.608 18.7528 57.5689C26.6565 67.5298 29.9456 68.6667 29.9456 68.6667C29.9456 68.6667 39.4201 60.005 44.1819 52.805C48.8456 45.605 52.7728 32.6125 52.7728 32.6125L46.2437 32.2877L15.071 26.387Z" fill="#240347"/>
<path d="M47.4709 29.4726L47.7655 30.3387L42.4146 27.0906L43.2 26.9282L43.7891 27.253L43.5436 27.5778L46.3418 29.256L46.6855 28.9312L47.4709 29.4726Z" fill="#3875DA"/>
<path d="M43.5436 27.7403L42.4146 27.0906L43.2 26.9282L43.7891 27.253L43.5436 27.5778L43.6418 27.632L43.5436 27.7403Z" fill="#12EBFA"/>
<path d="M47.9126 30.6637L47.4708 31.0426L42.0708 27.9028L42.169 27.2532L47.9126 30.6637Z" fill="#3875DA"/>
<path d="M47.9126 30.6637L47.6672 30.9344L43.0526 28.2817L42.9544 28.4442L42.0708 27.9028L42.169 27.2532L47.9126 30.6637Z" fill="#12EBFA"/>
<path d="M46.2929 30.8261L37.702 47.4457L36.7202 47.0667L45.5075 30.3931L46.2929 30.8261Z" fill="white"/>
<path d="M45.1146 30.1223L36.2783 46.9584L34.2165 45.8215L33.8237 45.0095L42.611 28.6606L45.1146 30.1223Z" fill="#C6C8C9"/>
<path d="M34.3637 45.8757L34.2165 45.8215L33.8237 45.0095L42.611 28.6606L43.3474 29.0937L34.3637 45.8757Z" fill="#12EBFA"/>
<path d="M15.0219 25.3584C15.0219 25.2501 15.0219 25.2501 15.0219 25.1419L17.0346 23.3013L20.7165 20.7569L19.8328 13.99L35.4437 17.0216L37.5546 21.0276L40.8437 23.3013L42.8565 25.1419C42.8565 25.2501 42.8565 25.2501 42.8565 25.3584L50.2201 30.5013C49.8765 31.6381 49.4346 33.1539 48.8946 35.1569C48.3056 37.1599 46.7346 39.8125 44.7219 42.5193C44.6237 42.5734 44.4274 42.6276 44.3292 42.6817L41.9728 44.5223C40.451 46.4712 39.2728 48.799 37.6528 50.6396C36.8183 51.6141 35.8856 52.6426 34.9528 53.5629C33.4801 55.0246 32.1546 56.5404 30.6819 58.0562L29.7492 59.3013L27.7365 57.0817C26.3128 55.5659 24.8401 53.996 23.3674 52.5344C22.4346 51.6141 21.6001 50.5855 20.6674 49.611C18.9983 47.7163 17.3783 45.7674 15.8074 43.8186L14.8256 43.3855C12.4201 38.5674 10.0637 33.0456 8.73828 29.6351L15.0219 25.3584ZM36.8674 19.9449L34.3637 16.4261L37.0146 19.9449C37.0146 19.9449 36.9165 19.9449 36.8674 19.9449Z" fill="#240347"/>
<path d="M21.7472 22.8682C21.7472 22.8682 21.2563 24.8712 23.3672 29.0937C25.1836 32.7749 28.2763 34.7779 28.9636 35.211C29.6018 34.5073 30.5345 33.5328 31.369 31.4757C32.2036 29.4185 32.4 28.6065 32.4 28.6065L29.7981 31.0967V26.2246L30.8781 27.2531C30.8781 27.2531 31.6636 27.0366 33.1363 25.9539C34.6581 24.8712 36.5727 23.0306 36.5727 23.0306L36.4745 22.9223C36.1309 23.193 34.4618 24.4922 32.5963 25.196C30.5836 25.9539 31.0745 25.6291 31.0745 25.6291L29.0618 25.2501L27.049 25.6291C27.049 25.6291 27.589 25.9539 25.5272 25.196C23.6127 24.384 21.7472 22.8682 21.7472 22.8682Z" fill="#55526F"/>
<path d="M23.269 28.9855C23.3181 29.0397 23.3181 29.0938 23.3672 29.0938C25.1836 32.8291 28.2272 34.8321 28.9636 35.2652C29.6018 34.5615 30.5345 33.587 31.369 31.5299C32.2036 29.4727 32.4 28.6607 32.4 28.6607L29.7981 31.1509V26.2246L30.8781 27.2532C30.8781 27.2532 31.6636 27.0367 33.1363 25.9539C34.6581 24.8712 36.5727 23.0306 36.5727 23.0306L36.4745 22.9224C36.1309 23.193 34.4618 24.4923 32.5963 25.196C30.5836 25.9539 31.0745 25.6291 31.0745 25.6291L29.0618 25.2502L29.209 32.0712L30.4854 31.2051L28.7672 33.7494C28.7672 33.7494 25.5763 31.6923 24.2018 30.1765C23.76 29.7434 23.5145 29.3103 23.269 28.9855Z" fill="#2D2846"/>
<path d="M27.393 23.4636L23.1221 21.623C23.1221 21.623 24.8893 23.6261 25.6257 23.8967C26.4603 24.1674 27.393 23.4636 27.393 23.4636ZM30.6821 23.4636L34.953 21.623C34.953 21.623 33.1857 23.6261 32.4493 23.8967C31.6148 24.1674 30.6821 23.4636 30.6821 23.4636Z" fill="#FDDB34"/>
<path d="M29.0618 41.2201C29.0618 41.2201 26.1164 39.5961 24.3982 37.5389C22.6309 35.4818 21.9437 33.9119 21.9437 33.9119L22.9255 38.4051C22.9255 38.4051 21.6 35.3194 20.9127 33.2081C20.2746 31.151 20.2255 29.6352 20.2255 29.6352L19.6364 30.9885C19.6364 30.9885 19.6855 29.8517 19.9309 28.9855C20.1764 28.0652 20.5691 27.6322 20.5691 27.6322L20.6182 25.7916L17.7218 27.7404C17.7218 27.7404 17.82 28.7149 18.3109 30.7179C18.8018 32.7209 18.9982 33.2622 18.9982 33.2622C18.9982 33.2622 18.0164 32.1254 17.3291 30.4472C16.6909 28.6066 16.4455 28.2818 16.4455 28.2818C16.4455 28.2818 16.1509 31.6382 17.8691 36.1314C19.5873 40.6246 24.84 44.3058 24.84 44.3058L24.4964 42.6818L29.0127 46.3089L33.5291 42.6818L33.1855 44.3058C33.1855 44.3058 38.4873 40.6788 40.1564 36.1314C41.8746 31.6382 41.5309 28.2818 41.5309 28.2818C41.5309 28.2818 41.3346 28.6607 40.6473 30.2848C39.96 31.963 38.9782 33.0998 38.9782 33.0998C38.9782 33.0998 39.2237 32.6126 39.6655 30.5555C40.1564 28.5525 40.2546 27.578 40.2546 27.578L37.3582 25.6292L37.4073 27.4698C37.4073 27.4698 37.8 27.9028 38.0455 28.8231C38.2909 29.7434 38.34 30.8261 38.34 30.8261L37.7509 29.4728C37.7509 29.4728 37.7018 30.9344 37.0637 33.0457C36.4255 35.157 35.1491 38.2427 35.1491 38.2427L36.0818 33.7495C36.0818 33.7495 35.4437 35.3194 33.6273 37.3765C32.0073 39.5961 29.0618 41.2201 29.0618 41.2201Z" fill="#FDDB34"/>
<path d="M29.0621 41.2202C29.0621 41.2202 26.1167 39.5961 24.3985 37.539C23.3676 36.348 22.6803 35.2653 22.3858 34.6157C22.7294 36.7811 27.0985 42.1405 29.1112 42.4653C30.8785 42.1946 35.3948 36.9435 35.8367 34.6157C35.493 35.2653 34.8058 36.348 33.8239 37.539C32.0076 39.5961 29.0621 41.2202 29.0621 41.2202ZM20.1276 28.5525C20.373 27.9029 20.6676 27.5781 20.6676 27.5781L20.7167 25.7375L18.7039 27.0909L18.4585 27.1991L17.9676 27.5239L17.8203 27.6322C17.8203 27.6322 17.9185 28.4984 18.3112 30.2307C18.7039 31.151 19.1458 31.963 19.5385 32.4503C20.5694 33.8578 20.6185 33.8578 20.6185 33.8578L23.2203 39.3255L22.9258 38.2969C22.6803 37.7555 21.5512 35.0488 20.9621 33.2082C20.3239 31.151 20.2748 29.6352 20.2748 29.6352L19.6858 30.9886C19.6858 30.9886 19.7348 29.8518 19.9803 28.9856V28.9315V28.8773V28.8232L20.1276 28.5525ZM40.1567 27.4698L37.5058 25.6833L37.5548 27.5239C37.5548 27.5239 37.8494 27.8488 38.0948 28.4984V28.5525V28.6067V28.6608V28.7149V28.7691C38.3403 29.6894 38.3894 30.7721 38.3894 30.7721L37.8003 29.4187C37.8003 29.4187 37.7512 30.8803 37.113 33.0458C36.5239 34.8864 35.3948 37.5931 35.1494 38.1345L34.8548 39.163L37.3585 33.6954C37.3585 33.6954 37.3585 33.6954 38.4385 32.2879C38.7821 31.8006 39.273 30.9886 39.6658 30.0683C40.1076 28.2818 40.1567 27.4698 40.1567 27.4698ZM16.4948 28.2818C16.4948 28.2818 16.1512 31.6382 17.8694 36.1315C19.5876 40.6247 24.8403 44.3059 24.8403 44.3059L24.4967 42.6818L29.013 46.3089L33.5294 42.6818L33.1858 44.3059C33.1858 44.3059 38.4876 40.6788 40.1567 36.1315C41.8749 31.6382 41.5312 28.2818 41.5312 28.2818C41.5312 28.2818 41.4821 33.0999 39.1258 36.6728C36.8676 40.2458 34.3639 42.1405 34.3639 42.1405L34.413 40.4623L29.1112 44.6307L23.8094 40.4623L23.8585 42.1405C23.8585 42.1405 21.3549 40.2999 18.9985 36.6728C16.5439 33.0458 16.4948 28.2818 16.4948 28.2818Z" fill="#EE7E24"/>
<path d="M17.3291 31.2593C17.3291 31.2593 17.5255 32.9375 19.2436 35.8608C20.9618 38.7841 23.2691 41.1119 23.2691 41.1119L23.7109 39.9209C23.7109 39.9209 25.0855 41.0578 26.2146 41.9781C27.3436 42.8984 27.6382 43.0066 27.6382 43.0066C27.6382 43.0066 25.6255 41.0036 24.6436 40.1916C23.7109 39.3254 23.4164 38.9465 23.4164 38.9465L23.0727 40.2457C23.0727 40.2457 20.0291 36.7811 18.9491 34.8322C17.8691 32.8833 17.3291 31.2593 17.3291 31.2593Z" fill="#FDDB34"/>
<path d="M17.4764 20.9735L17.4274 19.0787C17.3783 18.1043 17.5255 16.8592 17.6728 15.8847C18.0164 13.6652 18.7528 11.4998 19.9801 9.65917C20.7655 8.46819 21.6983 7.43962 22.631 6.51932C23.9074 5.27421 25.1837 4.13737 26.5583 3.05466C27.1474 2.56744 27.8346 2.08022 28.5219 1.59301L28.8655 1.37646L29.2092 1.59301C29.7492 1.86368 30.2892 2.18849 30.731 2.51331C31.6146 3.05466 32.4983 3.65015 33.3819 4.24564C33.3819 4.24564 34.5601 4.78699 36.0819 6.41105C36.4746 6.79 36.9164 7.16895 37.211 7.60203C37.9474 8.52233 38.6837 9.49677 39.2237 10.5253C39.3219 10.7419 39.5183 11.0667 39.5674 11.3374C42.5128 16.9674 41.8255 29.6892 41.8255 29.6892L41.9237 30.0682L38.8801 25.3584C38.5855 24.9253 38.291 24.4381 37.9474 24.005C37.2601 23.0847 36.5728 22.1103 35.7874 21.19C35.1001 20.378 34.1674 19.4035 33.2837 18.808C32.351 18.2126 31.3201 17.6712 30.3383 17.2923C29.9946 17.184 29.7001 17.0216 29.3564 16.9133C28.7183 17.184 28.031 17.5088 27.3437 17.7795L27.7855 18.8622L27.1964 19.2411C26.7055 19.6201 26.2146 19.9449 25.7237 20.3238C24.6437 21.1359 23.6619 21.9479 22.631 22.8682C21.7474 23.6802 20.7164 24.7088 20.0292 25.7374C19.3419 26.8742 18.6546 28.011 17.9674 29.0938C17.771 29.4727 17.5255 29.8517 17.3292 30.2847L15.8564 33.1539L15.9546 29.8517C16.0037 29.0938 16.0528 28.2817 16.1019 27.5238C16.2492 25.8456 16.4455 24.1674 16.8383 22.5434C17.1819 22.0562 17.3292 21.5148 17.4764 20.9735Z" fill="#240347"/>
<path d="M39.7144 24.9253C39.7144 24.9253 36.3271 19.7283 33.9217 18.2125C31.418 16.6967 29.5526 16.2095 29.5526 16.2095C29.5526 16.2095 25.6253 17.7794 24.2508 18.8621C22.778 19.8907 22.238 20.7568 22.238 20.7568C22.238 20.7568 23.4653 20.1072 25.1344 19.5117C26.8035 18.8621 27.1471 18.7538 27.1471 18.7538C27.1471 18.7538 21.698 22.435 19.7835 25.4666C17.869 28.4982 17.0835 30.1223 17.0835 30.1223C17.0835 30.1223 17.1817 24.9253 18.3599 20.9734C19.538 17.0215 22.4344 13.232 22.4344 13.232C22.4344 13.232 21.2562 13.7734 20.078 15.7223C18.8017 17.617 18.1635 19.0787 18.1635 19.0787C18.1635 19.0787 18.0653 14.0982 20.618 10.2005C23.1708 6.30271 28.9635 2.35083 28.9635 2.35083C28.9635 2.35083 34.7562 5.54482 36.818 8.14331C38.8799 10.6877 39.1253 11.8245 39.1253 11.8245C39.1253 11.8245 38.2908 10.3629 36.7199 9.00948C35.149 7.71023 32.8908 6.41098 32.8908 6.41098C32.8908 6.41098 34.4126 7.71023 35.3453 9.33429C36.278 10.9583 37.309 14.6396 37.309 14.6396C37.309 14.6396 36.769 13.7193 35.0017 12.4741C33.2344 11.229 31.1726 10.4711 31.1726 10.4711C31.1726 10.4711 35.5908 14.1523 37.4562 16.9132C39.3217 19.6741 39.469 20.9193 39.469 20.9193C39.469 20.9193 38.6344 19.8907 37.309 19.0245C35.9835 18.1042 35.0017 17.6711 35.0017 17.6711C35.0017 17.6711 37.2108 19.6741 38.1435 21.2982C38.978 22.8681 39.7144 24.9253 39.7144 24.9253Z" fill="#55526F"/>
<path d="M29.4544 16.1553C29.4544 16.1553 25.5272 17.7253 24.1526 18.808C22.6799 19.8365 22.1399 20.7027 22.1399 20.7027C22.1399 20.7027 23.3672 20.0531 25.0363 19.4576C26.7054 18.8621 27.049 18.6997 27.049 18.6997C27.049 18.6997 21.5999 22.3809 19.6854 25.4125C17.7708 28.4441 16.9854 30.0681 16.9854 30.0681C16.9854 30.0681 17.1326 24.8711 18.3108 20.9193C19.489 16.9132 22.3363 13.1238 22.3363 13.1238C22.3363 13.1238 22.2381 13.1779 22.1399 13.232L24.3981 11.4456C24.3981 11.4456 23.1217 12.3117 21.2072 16.0471C19.2926 19.8365 18.1144 25.7914 18.1144 25.7914C18.1144 25.7914 18.5072 24.8711 19.7835 23.5177C21.0108 22.1644 21.9435 21.4065 21.9435 21.4065L20.6181 21.7313C20.6181 21.7313 22.3363 19.4035 24.9381 17.7794C27.4417 16.1553 29.4544 16.1553 29.4544 16.1553ZM18.949 17.4005C18.409 18.3749 18.1144 19.0245 18.1144 19.0245C18.1144 19.0245 18.0163 14.0441 20.569 10.1463C23.1217 6.24857 28.9635 2.35083 28.9635 2.35083C28.9635 2.35083 25.0363 5.70722 22.0417 9.55083C19.6363 12.5824 19.0472 16.1012 18.949 17.4005Z" fill="#7E7F9D"/>
<path d="M15.5128 27.3613C15.5128 27.3613 14.9237 33.9658 18.5564 40.029C22.1891 46.0922 25.1837 48.4741 25.1837 48.4741L21.4528 42.7358C21.4528 42.7358 25.4291 46.6876 27.4419 47.9328C29.4546 49.1779 29.4546 49.1779 29.4546 49.1779C29.4546 49.1779 36.2291 45.0636 39.42 40.6786C42.6109 36.2937 43.2491 30.3929 43.2491 30.3929C43.2491 30.3929 43.8382 32.5583 41.9237 38.026C39.96 43.4937 38.5855 45.4967 38.5855 45.4967C38.5855 45.4967 39.7637 44.1974 41.2855 41.9237C42.8073 39.65 43.5437 37.8094 43.5437 37.8094C43.5437 37.8094 42.12 43.223 39.96 46.3628C37.8 49.611 37.8 49.611 37.8 49.611L40.1564 48.42C40.1564 48.42 36.72 53.0756 34.1182 55.3493C31.5164 57.623 30.1419 58.435 30.1419 58.435C30.1419 58.435 23.76 52.8049 20.2746 48.42C16.8382 43.9809 15.0709 39.9207 15.0709 39.9207C15.0709 39.9207 15.66 41.9779 16.3964 44.035C17.1818 46.0922 17.5746 46.8501 17.5746 46.8501C17.5746 46.8501 15.3655 44.1433 13.2055 38.6756C11.0946 33.2079 10.8491 31.3132 10.8491 31.3132C10.8491 31.3132 11.7818 30.2846 12.3218 29.7433C12.8618 29.2561 12.8618 29.2561 12.8618 29.2561C12.8618 29.2561 13.6473 32.0711 13.9909 33.3704C14.3346 34.5613 14.8255 35.2651 14.8255 35.2651C14.8255 35.2651 13.7455 29.6891 13.8928 28.8771C13.9909 28.0651 15.5128 27.3613 15.5128 27.3613Z" fill="#55526F"/>
<path d="M21.4528 42.6817C21.4528 42.6817 25.4292 46.6335 27.4419 47.8787C29.4547 49.1238 29.4547 49.1238 29.4547 49.1238C29.4547 49.1238 36.2292 44.9553 39.4692 40.5704C42.6601 36.1854 43.2983 30.2847 43.2983 30.2847C43.2983 30.2847 43.8874 32.4501 41.9728 37.9178C40.0092 43.3854 38.6347 45.3884 38.6347 45.3884C38.6347 45.3884 39.8128 44.0892 41.3347 41.8155C42.8565 39.5418 43.5928 37.7012 43.5928 37.7012C43.5928 37.7012 42.1692 43.1147 40.0092 46.2546C37.8001 49.5568 37.8001 49.5569 37.8001 49.5569L40.1565 48.3659C40.1565 48.3659 36.7201 53.0215 34.1183 55.2952C31.5165 57.5689 30.1419 58.3809 30.1419 58.3809C30.1419 58.3809 23.7601 52.805 20.2747 48.3659C18.4092 45.9839 17.0837 43.7102 16.151 42.0862C17.0347 43.5478 18.5074 45.605 21.011 47.9328C25.871 52.5884 29.0128 52.805 29.7983 52.9132C30.5837 53.0756 33.7256 51.4516 33.7256 51.4516C33.7256 51.4516 30.8292 53.7794 30.3874 53.9418C29.9456 54.0501 25.8219 52.3719 25.8219 52.3719L30.191 56.2155C30.191 56.2155 34.4619 53.1298 35.591 51.5599C36.7692 49.9899 38.2419 46.9584 38.2419 46.9584L34.8547 49.8817C34.8547 49.8817 36.0328 48.42 37.5056 45.9298C38.9292 43.3854 39.7147 41.6531 39.7147 41.6531C39.7147 41.6531 39.5674 41.7614 37.2601 44.414C34.9037 47.1208 29.5037 50.4771 29.5037 50.4771C29.5037 50.4771 29.2092 50.1523 26.8037 48.4741C24.4474 46.7959 21.4528 42.6817 21.4528 42.6817ZM15.9547 42.8441C16.0528 43.223 16.2492 43.602 16.3474 44.035C17.1328 46.0922 17.5256 46.8501 17.5256 46.8501C17.5256 46.8501 15.3165 44.1433 13.1565 38.6756C12.9601 38.1343 12.7637 37.5929 12.5674 37.1599C13.5983 39.0005 15.1201 41.4907 15.9547 42.8441Z" fill="#2D2846"/>
<path d="M15.5128 27.3613C15.5128 27.3613 14.9237 33.9658 18.5564 40.029C22.1891 46.0922 25.1837 48.4741 25.1837 48.4741C18.7037 43.7643 15.6109 37.8094 14.4818 29.4185L13.8928 29.7974C13.8437 29.4185 13.8437 29.0937 13.8437 28.8771C13.9909 28.0651 15.5128 27.3613 15.5128 27.3613ZM11.1928 32.7749C10.8982 31.6922 10.8491 31.3132 10.8491 31.3132C10.8491 31.3132 11.7818 30.2846 12.3218 29.7433C12.8618 29.2561 12.8618 29.2561 12.8618 29.2561C12.8618 29.2561 12.96 29.7433 13.2055 30.447L11.1928 32.7749Z" fill="#7E7F9D"/>
<path d="M39.7146 24.9254C39.7146 24.9254 36.3273 19.7284 33.9219 18.2126C31.4182 16.6968 29.5528 16.2096 29.5528 16.2096C29.5528 16.2096 25.6255 17.7795 24.251 18.8622C23.171 19.6201 22.5819 20.3239 22.3364 20.5946C22.4346 20.378 22.8764 19.6743 24.0546 18.5915C25.5764 17.1299 28.1782 15.5058 29.1601 15.181C30.1419 14.8562 33.5292 16.6427 33.5292 16.6427L31.9092 15.0186C31.9092 15.0186 32.4001 15.0728 33.3328 15.2352C34.2164 15.4517 35.0019 15.6141 35.0019 15.6141C35.0019 15.6141 30.1419 10.4171 29.7001 10.4171C29.2582 10.4171 25.2819 12.6908 25.2819 12.6908C25.2819 12.6908 29.0619 9.11786 29.7001 9.11786C30.3382 9.06373 35.1492 11.0667 35.1492 11.0667C35.1492 11.0667 35.1492 11.0667 34.3146 9.82162C33.4801 8.57651 30.4364 4.94944 30.4364 4.94944C30.4364 4.94944 30.8782 5.00358 31.7619 5.27425C32.6946 5.4908 33.5782 5.92388 33.5782 5.92388C33.5782 5.92388 33.2346 5.54493 32.351 4.78704C31.5164 4.08328 28.8655 2.24268 28.8655 2.24268C28.8655 2.24268 34.7073 5.54493 36.7692 8.14343C38.831 10.6878 39.0764 11.8246 39.0764 11.8246C39.0764 11.8246 38.2419 10.363 36.671 9.00959C35.1492 7.71035 32.891 6.4111 32.891 6.4111C32.891 6.4111 34.4128 7.71035 35.3455 9.33441C36.2782 10.9585 37.3092 14.6397 37.3092 14.6397C37.3092 14.6397 36.7692 13.7194 35.0019 12.4743C33.2346 11.2291 31.1728 10.4712 31.1728 10.4712C31.1728 10.4712 35.591 14.1525 37.4564 16.9134C39.3219 19.6743 39.4692 20.9194 39.4692 20.9194C39.4692 20.9194 38.6346 19.8908 37.3092 19.0246C35.9837 18.1043 35.0019 17.6712 35.0019 17.6712C35.0019 17.6712 37.211 19.6743 38.1437 21.2983C38.9782 22.8682 39.7146 24.9254 39.7146 24.9254Z" fill="#2D2846"/>
<path d="M10.5547 33.2081C10.6529 33.0998 10.7511 32.9915 10.8983 32.8833C11.3401 32.4502 12.862 32.1795 14.9729 32.0171C18.8511 35.6983 28.0801 45.2802 28.0801 45.2802C28.0801 45.2802 23.3674 47.7163 19.7347 49.5028C19.0474 46.6336 17.4274 39.7584 17.6238 38.8381C17.8692 37.6472 14.482 33.3705 14.482 33.3705C14.482 33.3705 12.6656 33.3163 10.5547 33.2081Z" fill="#2D2846"/>
<path d="M18.8508 30.826L16.8381 29.5809C16.789 29.4726 16.7399 29.4726 16.6417 29.4185L13.3527 27.3614C13.3527 27.199 13.2545 27.199 13.2054 27.1448L9.13084 24.4922L9.47447 23.626C9.57266 23.4095 9.47447 23.0847 9.22902 22.9764L6.0872 21.2441C5.89084 21.1358 5.69447 21.1899 5.5472 21.3523L5.15447 21.8396C5.05629 21.7854 4.90902 21.7854 4.81084 21.8396L3.73084 22.4351L2.99447 21.9478L1.47266 24.7087L1.57084 24.7629C1.57084 24.8711 1.66902 25.0335 1.7672 25.1418L1.81629 25.196L2.40538 25.5749L2.65084 26.3869L2.20902 27.4155C2.11084 27.632 2.15993 27.9027 2.35629 28.0651L6.13629 30.5012L6.03811 30.6636C5.93993 30.8802 5.98902 31.205 6.18538 31.3132L10.7508 34.4531C10.6036 34.4531 10.4072 34.5072 10.309 34.5614C10.309 34.5614 10.309 34.5614 10.2599 34.5614C10.0145 34.6696 9.81811 34.8862 9.67084 35.1569C9.52357 35.3734 9.42538 35.6441 9.3272 35.8606C9.22902 36.2396 9.13084 36.7268 9.22902 37.1057C9.3272 37.4847 9.47447 37.8095 9.81811 38.026C9.96538 38.1343 10.1617 38.1884 10.4072 38.1884C10.5545 38.1884 10.7508 38.1884 10.849 38.1884C10.9472 38.2426 10.9472 38.2426 11.0454 38.2967C11.1436 38.3508 11.2417 38.405 11.389 38.405C11.4872 38.4591 11.6345 38.5132 11.7327 38.5132L12.0763 38.6215C12.3217 38.6757 12.469 38.7298 12.5672 38.7298C12.469 38.8381 12.469 38.8922 12.4199 39.0005C12.3708 39.1087 12.3217 39.1629 12.3217 39.2711C12.2727 39.2711 12.2727 39.3253 12.2236 39.3253C12.1254 39.3794 12.0763 39.4335 11.9781 39.4877C11.7327 39.6501 11.5363 39.9208 11.389 40.2456C11.2908 40.408 11.2908 40.6245 11.2908 40.8411V40.9493C11.1927 41.0576 11.1436 41.1117 11.0454 41.22L10.1617 42.411C10.0145 42.5734 10.0636 42.8982 10.1617 43.0606C10.1617 43.1689 10.1617 43.3313 10.2108 43.4396C10.2599 43.602 10.309 43.7644 10.3581 43.8726C10.4072 43.9268 10.4563 43.9809 10.4563 44.0351L10.6036 46.0381C10.6036 46.2005 10.7017 46.3629 10.849 46.417L15.4145 48.9614C15.4145 48.9614 15.6108 49.0696 15.8563 49.2862L15.9054 49.3403C16.0036 49.4486 16.0527 49.4486 16.1508 49.4486C16.249 49.5569 16.4454 49.611 16.5436 49.7193C16.9854 49.9899 19.5381 49.9899 19.5381 49.9899L19.7345 50.0982L20.7163 50.802C20.8636 50.9102 21.0599 50.9102 21.2563 50.802L21.6981 50.423C22.189 50.0441 22.729 49.5027 23.1708 48.9072C23.6127 48.3117 24.0545 47.7163 24.3981 47.0666C24.7417 46.417 24.9872 45.6591 25.2327 44.8471C25.429 44.0351 25.5763 43.1148 25.6745 42.3569L25.7236 41.8155C25.7236 41.599 25.6254 41.4366 25.4781 41.3283L21.109 38.5132L21.1581 38.4591C21.2072 38.3508 21.2563 38.2967 21.2563 38.1884V32.6125C21.2563 32.4501 21.1581 32.2335 21.0108 32.1794L18.8508 30.826Z" fill="#240347"/>
<path d="M19.4398 32.7748V36.5101L20.0289 36.8891V33.1538L19.4398 32.7748ZM15.218 34.0741L14.9234 34.6695L15.4143 35.5357L19.7343 38.1883L19.8816 37.3763L15.218 34.0741ZM8.09978 29.4184L7.51069 30.5553L7.80524 30.7177L8.14887 30.2304L8.49251 30.3387C8.49251 30.3387 8.34524 30.6094 8.14887 30.9342L8.59069 31.259L8.83615 30.7718L9.0816 30.9342L8.78706 31.4214L9.22887 31.7462L9.37615 31.3131L9.71978 31.4214L9.52342 31.9628L14.9234 35.6981L14.3834 34.9402L14.7761 34.0741L8.09978 29.4184ZM3.97615 26.3868L3.63251 27.1989L7.21615 29.5267L7.55978 29.1477L4.12342 26.9282L4.31978 26.5492L3.92706 26.3327L3.97615 26.3868ZM5.59615 23.3553L6.08706 22.7598L8.09978 23.8966L6.13615 23.247L5.8416 23.5718L5.59615 23.3553ZM3.6816 23.5718L3.1416 24.4921L11.6343 29.9056V31.0425L12.1252 31.4214V29.3643L3.6816 23.5718ZM12.1743 28.0109L12.0761 28.9312L4.12342 23.6801L4.90887 23.3011L12.1743 28.0109ZM15.7089 30.3387V33.9116L12.3707 31.638L12.4689 28.3357L15.7089 30.3387ZM15.9543 30.5011V34.0741L16.5434 34.453V30.8801L15.9543 30.5011ZM16.6416 30.9342V34.5071L17.2307 34.8861V31.259L16.6416 30.9342ZM17.3289 31.4214V35.0485L17.918 35.4274V31.8004L17.3289 31.4214ZM18.0652 31.8545V35.4816L18.6543 35.8605V32.1793L18.0652 31.8545ZM18.7525 32.3417V36.0229L19.3416 36.4019V32.7207L18.7525 32.3417Z" fill="#55526F"/>
<path d="M19.4398 35.3733V36.5102L20.0289 36.8891V35.7523L19.4398 35.3733ZM3.28887 24.2214L12.1252 29.9056V31.4214L11.6343 31.0425V29.9056L3.1416 24.438L3.28887 24.2214ZM12.4198 30.6094L15.7089 32.9372V33.8575L12.3707 31.5838L12.4198 30.6094ZM15.9543 33.0455L16.5434 33.4244V34.453L15.9543 34.0741V33.0455ZM16.6416 33.5327L17.2307 33.9117V34.9402L16.6416 34.5613V33.5327ZM17.3289 34.0199L17.918 34.3989V35.4816L17.3289 35.1026V34.0199ZM18.0652 34.453L18.6543 34.832V35.9147L18.0652 35.5357V34.453ZM18.7525 34.9402L19.3416 35.3192V36.4019L18.7525 36.0229V34.9402ZM15.5125 34.2365L15.4143 34.6154L15.6107 35.0485L19.7834 37.5929L19.6852 38.0259L15.4143 35.3733L14.9234 34.5072L15.218 33.9117L15.5125 34.2365ZM3.6816 27.0906L7.36342 29.3643L7.21615 29.5267L3.63251 27.1989L3.6816 27.0906ZM7.85433 29.8515L14.5798 34.3989L14.3834 34.832L14.9234 35.5899L9.57251 31.9087L9.76887 31.3673L9.42524 31.259L9.27797 31.6921L8.83615 31.3673L9.13069 30.8801L8.83615 30.7718L8.49251 31.259L8.09978 30.9884C8.29615 30.6635 8.44342 30.3929 8.44342 30.3929L8.09978 30.2846L7.75615 30.7718L7.4616 30.6094L7.85433 29.8515Z" fill="#2D2846"/>
<path d="M19.4397 32.7748V33.2079L20.0288 33.5868V33.1538L19.4397 32.7748ZM19.2924 33.0996L18.7033 32.7207V32.2876L19.2924 32.6665V33.0996ZM18.5561 32.6665L17.967 32.2876V31.9086L18.5561 32.2876V32.6665ZM17.8688 32.2334L17.2797 31.8545V31.4756L17.8688 31.8545V32.2334ZM17.1815 31.7462L16.5924 31.3673V30.9883L17.1815 31.3673V31.7462ZM16.4452 31.259L15.8561 30.8801V30.5011L16.4452 30.8801V31.259ZM15.7088 30.7718L12.5179 28.6605V28.3357L15.7088 30.3387V30.7718ZM12.1743 28.3898L4.61426 23.4635L4.9088 23.3553L12.1743 28.065V28.3898ZM5.59608 23.3553L6.08699 22.7598L8.09971 23.8966L6.13608 23.247L5.84153 23.5718L5.59608 23.3553Z" fill="#7E7F9D"/>
<path d="M14.1379 35.8066L13.3524 37.5389C13.3524 37.5389 11.4379 37.1058 11.4379 36.9976C11.4379 36.8893 11.8306 36.781 11.7815 36.781C11.7324 36.781 10.6034 36.9434 10.4561 36.8893C10.3088 36.8352 10.5543 35.8607 10.7997 35.7525C10.9961 35.6983 14.1379 35.8066 14.1379 35.8066Z" fill="#55526F"/>
<path d="M19.7344 39.0005C19.7344 39.0005 17.2798 36.9975 16.3471 36.4561C15.4634 35.9689 14.8253 36.023 14.8253 36.023C14.8253 36.023 13.9907 37.5388 13.9907 37.7012C14.0398 37.8095 14.3834 37.9178 14.3834 37.9178L14.678 37.4847L14.7271 37.8095L16.298 38.6757C16.298 38.6757 17.7216 38.7839 18.8016 38.9463C19.9307 39.1629 19.7344 39.0005 19.7344 39.0005Z" fill="#FEC013"/>
<path d="M19.4888 40.1914L17.9179 41.5448C17.9179 41.5448 14.7761 40.6786 13.9907 40.6786C13.2052 40.6786 12.6652 41.0034 12.6161 40.841C12.567 40.7328 13.3034 40.2997 13.647 40.1914C13.9907 40.0831 14.1379 39.9749 14.1379 39.9749C14.1379 39.9749 13.647 39.9749 13.5488 39.9749C13.4507 39.9207 13.7943 39.3253 14.3834 39.3253C14.8743 39.1628 19.4888 40.1914 19.4888 40.1914Z" fill="#FEC013"/>
<path d="M17.3781 41.9238C17.329 42.0321 16.1999 43.4396 16.1999 43.4396C16.1999 43.4396 13.8926 43.0606 12.8617 43.0606C11.8308 43.1148 11.3399 43.1689 11.4381 43.1689C11.5363 43.1148 11.8308 42.8441 12.2726 42.5734C12.7144 42.3569 12.9108 42.2486 12.9108 42.2486L11.9781 42.0862C11.9781 42.0862 12.4199 41.5449 13.4508 41.4907C14.4817 41.4907 17.3781 41.9238 17.3781 41.9238Z" fill="#FEC013"/>
<path d="M15.5616 43.9809C15.6106 44.1974 15.2179 46.4711 15.2179 46.4711C15.2179 46.4711 14.5306 45.605 14.4325 45.605C14.3343 45.5508 12.7143 45.4967 12.7143 45.4967L13.1561 46.2004L11.7325 45.4425L11.6343 44.1433C11.6343 44.1433 11.8797 43.9268 12.8616 43.9268C13.9416 43.9268 15.5616 43.9809 15.5616 43.9809Z" fill="#FEC013"/>
<path d="M20.5199 39.7043C20.5199 39.7043 16.3471 44.0893 16.1999 44.36C16.0526 44.6307 18.458 48.5284 18.458 48.5284H19.0471C19.0471 48.5284 18.0653 47.2833 18.3599 47.4457C18.6544 47.6081 21.0599 49.4487 21.0599 49.4487C21.0599 49.4487 22.4835 48.2577 23.4162 46.4713C24.3489 44.7389 24.4962 42.4111 24.4962 42.4111L20.5199 39.7043ZM19.0471 45.4968C19.2926 45.9299 21.0108 48.0412 21.0108 48.0412C21.0108 48.0412 20.5689 47.9329 19.7835 47.2833C18.9489 46.6337 17.6726 45.0637 17.6726 45.0637L20.9126 40.5705L21.5017 41.2201C21.5017 41.2201 18.8017 45.0637 19.0471 45.4968Z" fill="#FEC013"/>
<path d="M16.6417 43.8727C16.3963 44.1434 16.249 44.2516 16.1999 44.3058C16.1017 44.5223 18.4581 48.4742 18.4581 48.4742H19.0472C19.0472 48.4742 18.0654 47.2291 18.3599 47.3915C18.6544 47.5539 21.0599 49.3945 21.0599 49.3945C21.0599 49.3945 21.3054 49.178 21.649 48.799L21.109 48.4201C21.109 48.4201 20.7654 48.3118 20.2254 47.987C19.6363 47.6622 18.0163 46.0381 18.0163 46.0381V46.2547C18.0163 46.2547 17.6235 46.0922 17.4763 45.6592C17.329 45.4968 16.8872 44.4141 16.6417 43.8727ZM18.1144 38.8922C17.329 38.4592 15.5617 37.4306 15.4144 37.2682C15.2672 37.0516 15.3163 36.6186 15.3163 36.6186L15.5617 36.2396C15.0708 36.1313 14.7763 36.1313 14.7763 36.1313C14.7763 36.1313 13.9417 37.6471 13.9417 37.8095C13.9908 37.9178 14.3344 38.0261 14.3344 38.0261L14.629 37.593L14.6781 37.9178L16.249 38.784C16.249 38.6757 17.1817 38.7298 18.1144 38.8922ZM14.3344 39.2171H14.4326C14.4326 39.2171 14.089 39.4877 14.1872 39.596C14.2854 39.7043 14.7272 39.8667 14.7272 39.8667C14.7272 39.8667 14.1381 40.2456 14.2363 40.2998C14.3344 40.2998 17.8199 40.7329 18.6054 40.9494L17.9672 41.5449C17.9672 41.5449 14.8254 40.6787 14.0399 40.6787C13.2544 40.6787 12.7144 41.0035 12.6654 40.8411C12.6163 40.7328 13.3526 40.2998 13.6963 40.1915C14.0399 40.0832 14.1872 39.975 14.1872 39.975C14.1872 39.975 13.6963 39.975 13.5981 39.975C13.4017 39.8667 13.7454 39.2712 14.3344 39.2171ZM13.0581 41.5449C13.009 41.978 13.5981 42.2486 13.5981 42.2486C13.5981 42.2486 13.2054 42.4652 13.2544 42.5193C13.3035 42.5735 15.8563 42.6276 16.789 42.6276C16.6908 42.8983 16.1999 43.4396 16.1999 43.4396C16.1999 43.4396 13.8926 43.0607 12.8617 43.0607C11.8308 43.0607 11.3399 43.1689 11.4381 43.1689C11.5363 43.1148 11.8308 42.8441 12.2726 42.5735C12.7144 42.3569 12.9108 42.2486 12.9108 42.2486L11.9781 42.0862C11.9781 42.1404 12.3217 41.7073 13.0581 41.5449ZM12.3708 43.9268C12.2235 44.0892 12.0763 44.3058 12.1254 44.4141C12.1744 44.6306 12.5672 45.0637 12.5672 45.0637C12.5672 45.0637 14.5799 45.1178 14.7763 45.1719C14.8744 45.1719 15.0217 45.1719 15.169 45.1178C15.2181 45.7674 15.2672 46.4712 15.2672 46.4712C15.2672 46.4712 14.5799 45.605 14.5308 45.605C14.4326 45.5509 12.8126 45.4968 12.8126 45.4968L13.2544 46.1464L11.8308 45.3885L11.7326 44.0892C11.6835 44.1434 11.8308 43.981 12.3708 43.9268ZM21.5017 41.2201L21.7472 41.599C21.7472 41.599 20.4217 44.0351 20.3726 44.5223C20.3235 45.0095 21.8454 47.608 21.8454 47.608L21.0108 48.0411C21.0108 48.0411 19.3417 45.984 19.0472 45.4968C18.8017 45.0637 21.5017 41.2201 21.5017 41.2201Z" fill="#FA6F19"/>
<path d="M29.7979 44.1976C29.8961 44.1434 29.9452 44.0893 30.0434 44.0893C30.5343 43.8728 31.0743 43.6021 31.5652 43.3855C32.3997 43.0066 33.2834 42.6277 34.1179 42.2487L34.7561 41.978L38.487 50.6397L35.1979 53.4006L35.2961 53.4547L28.4725 59.0848L23.6125 54.1585C23.6125 54.1585 19.3906 50.748 16.5434 51.4517C16.0525 51.56 15.6106 51.6683 15.2179 51.7765C15.1197 51.56 14.9725 51.3976 14.8252 51.181C15.0706 51.0728 15.267 51.0728 15.5125 50.9645C16.2979 50.6938 17.1325 50.3149 17.8688 49.9359C19.047 49.3946 20.1761 48.7991 21.3052 48.2036C23.4161 47.1209 25.4779 45.984 27.5888 44.8472L28.8652 44.4141L29.7979 44.1976Z" fill="#240347"/>
<path d="M34.4128 43.0066C34.4128 43.0066 29.2582 45.8216 28.6691 46.3089C28.08 46.7961 26.3619 50.1525 26.3619 50.6938C26.3619 51.2352 28.1291 52.1555 28.1291 52.1555C28.1291 52.1555 26.0673 51.8307 25.4782 51.2893C24.8891 50.7479 26.8037 46.1464 26.8037 46.1464C26.8037 46.1464 18.1637 50.9104 15.7582 51.7224L15.3164 51.8307C16.8873 54.1585 18.851 57.0276 20.7655 59.4096C22.4837 59.3013 27.2455 58.8682 27.2455 58.8682L33.7255 53.563C33.7255 53.563 32.6455 53.184 32.2528 51.7765C31.86 50.369 31.7619 49.8276 31.7619 49.8276C31.7619 49.8276 32.5473 51.2893 33.48 52.0472C34.4128 52.8051 34.56 52.8051 34.56 52.8051L37.7019 50.2607L34.4128 43.0066Z" fill="#55526F"/>
<path d="M32.8419 43.9268C31.271 44.7929 29.0619 46.038 28.6691 46.3628C28.571 46.4711 28.3255 46.7418 28.08 47.0666C29.16 46.5794 32.8419 44.7929 32.8419 44.7929V43.9268ZM27.491 52.1553C26.8528 52.0471 25.871 51.7764 25.4782 51.4516C24.8891 50.9102 26.8037 46.3087 26.8037 46.3087C26.8037 46.3087 18.1637 50.9644 15.7582 51.7764L15.3164 51.8847C15.4146 51.9929 15.4146 52.1012 15.5128 52.2095C16.3964 52.1553 17.4273 52.0471 18.311 51.5598C20.8146 50.3147 25.6746 47.7704 25.6746 47.7704C25.6746 47.7704 24.3491 50.7478 24.5946 51.3974C24.7909 52.1553 27.54 52.2095 27.491 52.1553C27.54 52.1553 27.54 52.2095 27.491 52.1553Z" fill="#7E7F9D"/>
<path d="M33.9707 43.3313C33.627 43.5478 33.087 43.8185 32.4489 44.1975C32.498 44.5764 32.6943 45.226 33.5289 46.7418C35.0016 49.5569 35.8852 50.5313 35.8852 50.5313C35.8852 50.5313 33.9707 51.7223 33.3816 52.1012C33.4307 52.1012 33.4307 52.1554 33.4798 52.1554C34.4125 52.9133 34.5598 52.9133 34.5598 52.9133L37.7016 50.3689L37.6034 50.2065C36.7689 49.3403 34.4125 46.8501 34.3143 45.3343C34.118 44.1433 34.0198 43.5478 33.9707 43.3313ZM28.1289 47.0125C27.3925 48.2035 26.3616 50.2606 26.3616 50.7478C26.3616 51.3433 28.1289 52.2095 28.1289 52.2095C28.1289 52.2095 27.7852 52.1554 27.2943 52.0471C28.5707 52.5343 30.5343 52.0471 30.5343 52.0471C30.5343 52.0471 28.0307 51.3975 27.5889 50.2606C27.3434 49.5027 27.7852 47.9328 28.1289 47.0125ZM25.0361 59.193C26.3125 59.0847 27.2943 59.0305 27.2943 59.0305L33.7252 53.7253C33.7252 53.7253 32.6452 53.3463 32.2525 51.9388C31.8598 50.5313 31.7616 49.9899 31.7616 49.9899C31.7616 49.9899 31.3689 49.8275 31.6143 51.4516C31.8598 53.0757 31.958 53.4546 31.958 53.4546L25.1834 59.0305L25.0361 59.193ZM31.7616 49.9358C31.7616 49.9358 31.9089 50.2606 32.2034 50.6396C31.958 50.2606 31.7616 49.9358 31.7616 49.9358Z" fill="#2D2846"/>
<path d="M40.2543 30.826L42.2671 29.5809C42.3162 29.4726 42.3652 29.4726 42.4634 29.4185L45.7525 27.3614C45.8016 27.2531 45.8507 27.2531 45.8998 27.199L49.9743 24.5463L49.6307 23.6802C49.5325 23.4636 49.6307 23.1388 49.8762 23.0305L53.018 21.2441C53.2143 21.1358 53.4107 21.1899 53.558 21.3523L53.9507 21.8396C54.0489 21.7854 54.1962 21.7854 54.2943 21.8396L55.3743 22.4351L56.1107 21.9478L57.6325 24.7087L57.5834 24.7629C57.5834 24.8711 57.4852 25.0335 57.3871 25.1418L57.338 25.196L56.7489 25.5749L56.4543 26.3869L56.8962 27.4155C56.9943 27.632 56.9452 27.9027 56.7489 28.0651L52.9689 30.5012L53.0671 30.6636C53.1652 30.8802 53.1162 31.205 52.9198 31.3132L48.3052 34.4531C48.4525 34.4531 48.6489 34.5072 48.7471 34.5614C48.7471 34.5614 48.7471 34.5614 48.7962 34.5614C49.0416 34.6696 49.238 34.8862 49.3852 35.1569C49.4834 35.3734 49.6307 35.6441 49.7289 35.8606C49.8271 36.2396 49.9252 36.7268 49.8271 37.1057C49.7289 37.4847 49.5816 37.8095 49.238 38.026C49.0907 38.1343 48.8943 38.1884 48.6489 38.1884C48.5016 38.1884 48.3052 38.1884 48.2071 38.1884C48.1089 38.2426 48.1089 38.2426 48.0107 38.2967C47.9125 38.3508 47.8143 38.405 47.6671 38.405C47.5689 38.4591 47.4216 38.5132 47.3234 38.5132L46.9798 38.5674C46.7343 38.6215 46.5871 38.6757 46.4889 38.6757C46.5871 38.7839 46.5871 38.8381 46.6362 38.9463C46.6852 39.0546 46.7343 39.1087 46.7343 39.217C46.7834 39.217 46.7834 39.2711 46.8325 39.2711C46.9307 39.3253 46.9798 39.3794 47.078 39.4335C47.3234 39.596 47.5198 39.8666 47.6671 40.1914C47.7652 40.3538 47.7652 40.5704 47.7652 40.7869L47.8143 40.8411C47.9125 40.9493 47.9616 41.0035 48.0598 41.1117L48.9434 42.3027C49.0907 42.4651 49.0416 42.7899 48.8943 42.9523C48.8943 43.0606 48.8943 43.223 48.8452 43.3313C48.7962 43.4937 48.7471 43.6561 48.698 43.7644C48.5998 43.8185 48.5998 43.9268 48.5507 43.9809L48.4034 45.9839C48.4034 46.1463 48.3052 46.3087 48.158 46.3629L43.5925 48.8531C43.5925 48.8531 43.3962 48.9614 43.1507 49.1779L43.1016 49.232C43.0034 49.3403 42.9543 49.3403 42.8562 49.3403C42.758 49.4486 42.5616 49.5027 42.4634 49.611C42.0216 49.8817 39.4689 49.8817 39.4689 49.8817L39.2725 49.9899L38.2907 50.6937C38.1434 50.802 37.9471 50.802 37.7507 50.6937L37.3089 50.3148C36.818 49.9358 36.278 49.3945 35.8362 48.799C35.3943 48.2035 34.9525 47.608 34.6089 46.9584C34.2652 46.3087 34.0198 45.5508 33.7743 44.7388C33.578 43.9268 33.4307 43.0065 33.3325 42.2486L33.4307 41.8696C33.4307 41.6531 33.5289 41.4907 33.6762 41.3824L38.0452 38.5674L37.9962 38.5132C37.9471 38.405 37.898 38.3508 37.898 38.2426V32.6125C37.898 32.4501 37.9962 32.2335 38.1434 32.1794L40.2543 30.826Z" fill="#240347"/>
<path d="M39.6653 32.7748V36.5101L39.0762 36.8891V33.1538L39.6653 32.7748ZM43.8871 34.0741L44.1816 34.6695L43.6907 35.5357L39.3707 38.1883L39.2234 37.3763L43.8871 34.0741ZM51.0053 29.4184L51.5944 30.5553L51.2998 30.7177L50.9562 30.2304L50.6125 30.3387C50.6125 30.3387 50.7598 30.6094 50.9562 30.9342L50.5144 31.259L50.2689 30.7718L50.0234 30.9342L50.2689 31.4214L49.8271 31.7462L49.6798 31.3131L49.3362 31.4214L49.5325 31.9628L44.1816 35.6981L44.7216 34.9402L44.3289 34.0741L51.0053 29.4184ZM55.1289 26.3868L55.4725 27.253L51.8889 29.5808L51.5453 29.2019L54.9816 26.9823L54.7853 26.6034L55.1289 26.3868ZM53.5089 23.3553L53.018 22.7598L51.0053 23.8966L52.9689 23.247L53.2144 23.5718L53.5089 23.3553ZM55.4234 23.5718L55.9634 24.4921L47.4707 29.9056V31.0425L46.9798 31.4214V29.3643L55.4234 23.5718ZM46.9307 28.0109L47.0289 28.9312L54.9816 23.6801L54.1962 23.3011L46.9307 28.0109ZM43.3962 30.3387V33.9116L46.7344 31.638L46.5871 28.2816L43.3962 30.3387ZM43.1998 30.5011V34.0741L42.6107 34.453V30.8801L43.1998 30.5011ZM42.4634 30.9342V34.5071L41.8744 34.8861V31.259L42.4634 30.9342ZM41.7762 31.4214V35.0485L41.2362 35.4274V31.8004L41.7762 31.4214ZM41.0398 31.8545V35.4816L40.4998 35.8605V32.1793L41.0398 31.8545ZM40.3525 32.3417V36.0229L39.8125 36.4019V32.7207L40.3525 32.3417Z" fill="#55526F"/>
<path d="M39.6653 35.3733V36.5102L39.0762 36.8891V35.7523L39.6653 35.3733ZM55.8162 24.2214L46.9798 29.9056V31.4214L47.4707 31.0425V29.9056L55.9634 24.438L55.8162 24.2214ZM46.6853 30.6094L43.3962 32.9372V33.8575L46.7344 31.5838L46.6853 30.6094ZM43.1998 33.0455L42.6107 33.4244V34.453L43.1998 34.0741V33.0455ZM42.4634 33.5327L41.8744 33.9117V34.9402L42.4634 34.5613V33.5327ZM41.7762 34.0199L41.2362 34.3989V35.4816L41.8253 35.1026V34.0199H41.7762ZM41.0398 34.453L40.4507 34.832V35.9147L41.0398 35.5357V34.453ZM40.3525 34.9402L39.7634 35.3192V36.4019L40.3525 36.0229V34.9402ZM43.6416 34.2365L43.7398 34.6154L43.5434 35.0485L39.3707 37.5929L39.4689 38.0259L43.7889 35.3733L44.2798 34.5072L43.9853 33.9117L43.6416 34.2365ZM55.4725 27.0906L51.7907 29.3643L51.938 29.5267L55.5216 27.1989L55.4725 27.0906ZM51.2507 29.8515L44.5253 34.3989L44.7216 34.832L44.1816 35.644L49.5325 31.9628L49.3362 31.4214L49.6798 31.3132L49.8271 31.7462L50.2689 31.4214L50.0234 30.9342L50.2689 30.7718L50.5144 31.259L50.9562 30.9342C50.7598 30.6094 50.6125 30.3387 50.6125 30.3387L50.9562 30.2305L51.2998 30.7177L51.5944 30.5553L51.2507 29.8515Z" fill="#2D2846"/>
<path d="M39.6653 32.7748V33.2079L39.0762 33.5868V33.1538L39.6653 32.7748ZM39.8616 33.0996L40.4507 32.7207V32.2876L39.8616 32.6665V33.0996ZM40.5489 32.6665L41.138 32.2876V31.9086L40.5489 32.2876V32.6665ZM41.2362 32.2334L41.8253 31.8545V31.4756L41.2362 31.8004V32.2334ZM41.9234 31.7462L42.5125 31.3673V30.9883L41.9234 31.3673V31.7462ZM42.6598 31.259L43.2489 30.8801V30.5011L42.6598 30.8801V31.259ZM43.3962 30.7718L46.5871 28.6605V28.3357L43.3962 30.3387V30.7718ZM46.9798 28.3898L54.4907 23.4094L54.1962 23.3011L46.9307 28.065L46.9798 28.3898ZM53.5089 23.3553L53.018 22.7598L51.0053 23.8966L52.9689 23.247L53.2144 23.5718L53.5089 23.3553Z" fill="#7E7F9D"/>
<path d="M44.9673 35.8066L45.7036 37.5389C45.7036 37.5389 47.6182 37.1058 47.6182 36.9976C47.6182 36.8893 47.2255 36.781 47.2746 36.781C47.3237 36.781 48.4527 36.9434 48.6 36.8893C48.7473 36.781 48.5018 35.8607 48.2564 35.7525C48.1091 35.6983 44.9673 35.8066 44.9673 35.8066Z" fill="#55526F"/>
<path d="M39.3707 39.0005C39.3707 39.0005 41.8252 36.9975 42.7579 36.4561C43.6416 35.9689 44.2798 36.023 44.2798 36.023C44.2798 36.023 45.1143 37.5388 45.1143 37.7012C45.0652 37.8095 44.7216 37.9178 44.7216 37.9178L44.4761 37.4847L44.427 37.8095L42.8561 38.6757C42.8561 38.6757 41.4325 38.7839 40.3525 38.9463C39.1743 39.1629 39.3707 39.0005 39.3707 39.0005Z" fill="#FEC013"/>
<path d="M39.8618 39.6502L41.5309 41.3825C41.5309 41.3825 44.3782 40.6788 45.1636 40.6788C45.9491 40.6788 46.4891 41.0036 46.5382 40.8412C46.5873 40.7329 45.8509 40.2998 45.5073 40.1915C45.1636 40.0833 45.0164 39.975 45.0164 39.975C45.0164 39.975 45.5073 39.975 45.6055 39.975C45.7036 39.9209 45.36 39.3254 44.7709 39.3254C44.2309 39.163 39.8618 39.6502 39.8618 39.6502Z" fill="#FEC013"/>
<path d="M41.8252 41.9778C41.9234 42.0861 43.1997 43.4395 43.1997 43.4395C43.1997 43.4395 45.2125 43.0605 46.2434 43.1147C47.2743 43.1688 47.7652 43.2229 47.667 43.2229C47.5688 43.1688 47.2743 42.8981 46.8325 42.6274C46.3907 42.4109 46.1943 42.3026 46.1943 42.3026L47.127 42.1402C47.127 42.1402 46.7343 41.5989 45.6543 41.5447C44.6234 41.4906 41.8252 41.9778 41.8252 41.9778Z" fill="#FEC013"/>
<path d="M43.3962 43.9809C43.3471 44.1974 43.8871 46.4711 43.8871 46.4711C43.8871 46.4711 44.5744 45.605 44.6726 45.605C44.7708 45.5508 46.3908 45.4967 46.3908 45.4967L45.9489 46.2004L47.3726 45.4425L47.4708 44.1433C47.4708 44.1433 47.2253 43.9268 46.2435 43.9268C45.1635 43.9268 43.3962 43.9809 43.3962 43.9809Z" fill="#FEC013"/>
<path d="M42.9546 44.3057C42.8564 44.0892 38.88 39.3794 38.88 39.3794L34.6582 42.4651C34.6582 42.4651 34.8055 44.7388 35.7382 46.5253C36.6709 48.3117 38.0946 49.5027 38.0946 49.5027C38.0946 49.5027 40.5 47.7162 40.7946 47.4997C41.0891 47.3373 40.1073 48.5824 40.1073 48.5824H40.6964C40.6473 48.5283 43.1018 44.5223 42.9546 44.3057ZM39.3709 47.229C38.5364 47.8786 38.1437 47.9869 38.1437 47.9869C38.1437 47.9869 39.8127 45.9298 40.1073 45.4426C40.3527 45.0095 37.7018 41.1659 37.7018 41.1659L38.5364 40.2997L41.4818 45.0095C41.5309 45.0636 40.1564 46.6335 39.3709 47.229Z" fill="#FEC013"/>
<path d="M42.4634 43.8727C42.7089 44.1434 42.8561 44.2516 42.9052 44.3058C43.0034 44.5223 40.647 48.4742 40.647 48.4742H40.0579C40.0579 48.4742 41.0398 47.2291 40.7452 47.3915C40.4507 47.5539 38.0452 49.3945 38.0452 49.3945C38.0452 49.3945 37.7998 49.2321 37.4561 48.8532L37.9961 48.4742C37.9961 48.4742 38.3398 48.3659 38.8798 48.0411C39.4689 47.7163 41.0889 46.0923 41.0889 46.0923V46.3088C41.0889 46.3088 41.4816 46.1464 41.6289 45.7133C41.7761 45.4968 42.2179 44.4141 42.4634 43.8727ZM40.9907 38.8922C41.7761 38.4592 43.5434 37.4306 43.6907 37.2682C43.8379 37.0516 43.7889 36.6186 43.7889 36.6186L43.5434 36.2396C44.0343 36.1313 44.3289 36.1313 44.3289 36.1313C44.3289 36.1313 45.1634 37.6471 45.1634 37.8095C45.1143 37.9178 44.7707 38.0261 44.7707 38.0261L44.4761 37.593L44.427 37.9178L42.8561 38.784C42.8561 38.6757 41.9234 38.7298 40.9907 38.8922ZM44.8198 39.2171H44.7216C44.7216 39.2171 45.0652 39.4877 44.967 39.596C44.8689 39.7043 44.427 39.8667 44.427 39.8667C44.427 39.8667 45.0161 40.2456 44.9179 40.2998C44.8198 40.2998 41.727 40.5163 40.8925 40.6787L41.5307 41.3283C41.5307 41.3283 44.3779 40.6246 45.1634 40.6246C45.9489 40.6246 46.4889 40.9494 46.5379 40.787C46.587 40.6787 45.8507 40.2456 45.507 40.1374C45.1634 40.0291 45.0161 39.9208 45.0161 39.9208C45.0161 39.9208 45.507 39.9208 45.6052 39.9208C45.7034 39.8667 45.3598 39.2712 44.8198 39.2171ZM46.047 41.5449C46.0961 41.978 45.507 42.2486 45.507 42.2486C45.507 42.2486 45.8998 42.4652 45.8507 42.5193C45.7525 42.5735 43.8379 42.8983 42.9543 42.8983C43.0525 43.1148 43.1998 43.2772 43.1998 43.2772C43.1998 43.2772 45.2125 42.8983 46.2434 42.9524C47.2743 43.0065 47.7652 43.0607 47.667 43.0607C47.5689 43.0065 47.2743 42.7359 46.8325 42.4652C46.3907 42.2486 46.1943 42.1404 46.1943 42.1404L47.127 41.978C47.127 42.1404 46.7834 41.7073 46.047 41.5449ZM46.7343 43.9268C46.8816 44.0892 47.0289 44.3058 46.9798 44.4141C46.9307 44.6306 46.5379 45.0637 46.5379 45.0637C46.5379 45.0637 44.5252 45.1178 44.3289 45.1719C44.2307 45.1719 44.0834 45.1719 43.9361 45.1178C43.887 45.7674 43.8379 46.4712 43.8379 46.4712C43.8379 46.4712 44.5252 45.605 44.6234 45.605C44.7216 45.5509 46.3416 45.4968 46.3416 45.4968L45.8507 46.1464L47.2743 45.3885L47.3725 44.0892C47.4216 44.1434 47.2743 43.981 46.7343 43.9268ZM37.6034 41.2201L37.3579 41.599C37.3579 41.599 38.6834 44.0351 38.7325 44.5223C38.7816 45.0095 37.2598 47.608 37.2598 47.608L38.0943 48.0411C38.0943 48.0411 39.7634 45.984 40.0579 45.4968C40.3525 45.0637 37.6034 41.2201 37.6034 41.2201Z" fill="#FA6F19"/>
<path d="M26.7053 63.578H5.79255L4.95801 60.5464L5.74346 60.384V51.7765L5.39983 51.7224L5.20346 48.7991H38.3889H53.3616L54.1471 51.7224L53.3616 51.9389V60.5464L53.6562 60.6006L53.9507 63.578H45.5562H36.5726H26.7053Z" fill="#240347"/>
<path d="M8.78692 61.5208V56.5404L10.5051 57.4066V61.5208C10.456 61.7374 10.3087 61.8998 10.1124 61.8998H12.5669C12.3215 61.8457 12.2233 61.7374 12.1251 61.5208V50.802C12.2233 50.6396 12.3215 50.4772 12.5669 50.4231H6.7251C6.97055 50.5314 7.06873 50.5855 7.16692 50.802V61.4667C7.06873 61.6832 6.97055 61.8457 6.7251 61.8457H9.17964C8.98328 61.8457 8.83601 61.7374 8.78692 61.5208ZM13.3524 57.3524V61.575C13.3033 61.7915 13.156 61.9539 12.9596 61.9539H18.7524C18.5069 61.8998 18.4087 61.7915 18.3106 61.575V56.7028C16.9851 56.0532 19.096 57.0817 15.0215 55.0246V51.8847H16.6906V54.3208C18.016 54.9705 16.1015 53.996 18.2615 55.1329V50.9103C18.3596 50.7479 18.4578 50.5855 18.7033 50.5314H12.9106C13.156 50.5855 13.2542 50.6938 13.3033 50.9103V55.7825C13.8924 56.1073 13.4996 55.8908 16.5924 57.4607V60.6005H14.8742V58.1644C14.2851 57.8396 14.2851 57.8396 14.2851 57.8396C14.236 57.7855 13.9906 57.6231 13.3524 57.3524ZM37.996 57.3524V61.575C37.9469 61.7915 37.7996 61.9539 37.6033 61.9539H43.396C43.1506 61.8998 43.0524 61.7915 42.9542 61.575V56.7028L42.5615 56.5404C42.4633 56.4863 43.0033 56.7569 39.616 55.0787V51.9389H41.3342V54.375C42.6596 55.0246 40.7451 54.0502 42.9051 55.187V50.9644C43.0033 50.7479 43.1015 50.6396 43.3469 50.5855H37.5051C37.7506 50.6396 37.8978 50.7479 37.8978 50.9644V55.8366L41.1869 57.5148V60.6547H39.4687V58.2186C38.8796 57.8938 38.8796 57.8938 38.8796 57.8938C38.8796 57.7855 38.6342 57.6231 37.996 57.3524ZM46.9796 50.8562V61.5208C46.9306 61.7374 46.7833 61.8998 46.5869 61.8998H49.0415C48.796 61.8457 48.6978 61.7374 48.5996 61.5208V51.993L50.3178 52.9133V61.5208C50.2687 61.7374 50.1215 61.8998 49.9251 61.8998H52.3796C52.1342 61.8457 52.036 61.7374 51.9378 61.5208V50.8562C52.036 50.6938 52.1342 50.5314 52.3796 50.4772H49.9251C50.1706 50.5314 50.2687 50.6396 50.3178 50.8562V51.3434L48.5996 50.4231H46.5869C46.8324 50.4772 46.9796 50.6396 46.9796 50.8562ZM44.1324 50.8562V61.5208C44.0833 61.7374 43.936 61.8998 43.7396 61.8998H46.1942C45.9487 61.8457 45.8506 61.7374 45.7524 61.5208V51.7765V50.8562C45.8506 50.6938 45.9487 50.5314 46.1942 50.4772H43.7396C43.936 50.5314 44.1324 50.6396 44.1324 50.8562ZM32.056 57.2983V61.5208C32.0069 61.7374 31.8596 61.8998 31.6633 61.8998H37.456C37.2106 61.8457 37.1124 61.7374 37.0142 61.5208V56.6487L36.6215 56.4863C36.5233 56.4321 37.0633 56.7028 33.676 55.0246V51.8847H35.3942V54.3208C36.7196 54.9705 34.8051 53.996 36.9651 55.1329V50.9103C37.0633 50.6938 37.1615 50.5855 37.4069 50.5314H31.6142C31.8596 50.5855 32.0069 50.6938 32.0069 50.9103V55.7825L35.296 57.4607V60.6005H33.5778V58.1644C32.9887 57.8396 32.9887 57.8396 32.9887 57.8396C32.9887 57.7855 32.7433 57.6231 32.056 57.2983ZM25.9196 50.8562V61.5208C25.8215 61.7374 25.7233 61.8998 25.4778 61.8998H27.9324C27.6869 61.8457 27.5887 61.7374 27.5396 61.5208V56.5404L29.2578 57.4066V61.5208C29.2087 61.7374 29.0615 61.8998 28.8651 61.8998H31.3196C31.0742 61.8457 30.976 61.7374 30.8778 61.5208V50.802C30.976 50.6396 31.0742 50.4772 31.3196 50.4231H25.4778C25.7233 50.4772 25.9196 50.6396 25.9196 50.8562ZM27.5396 54.9163V51.7765H29.2578V55.7825L27.5396 54.9163ZM19.7833 57.3524V61.575C19.7342 61.7915 19.5869 61.9539 19.3906 61.9539H25.1833C24.9378 61.8998 24.8396 61.7915 24.7415 61.575V56.7028C23.416 56.0532 25.5269 57.0817 21.4524 55.0246V51.8847H23.1706V54.3208C24.496 54.9705 22.5815 53.996 24.7415 55.1329V50.9103C24.8396 50.7479 24.9378 50.5855 25.1833 50.5314H19.3415C19.5869 50.5855 19.6851 50.6938 19.7342 50.9103V55.7825C20.3233 56.1073 19.9306 55.8908 23.0233 57.4607V60.6005H21.3051V58.1644C20.716 57.8396 20.716 57.8396 20.716 57.8396C20.716 57.7855 20.4215 57.6231 19.7833 57.3524ZM8.78692 54.9705V51.8306H10.5051V55.8366L8.78692 54.9705Z" fill="white"/>
<path d="M11.1924 51.235V61.1418H11.3888V51.235H11.1924ZM8.09968 51.235H7.90332V61.1418H8.09968V51.235ZM14.0397 58.435V61.0877H14.236V58.5433C14.236 58.5433 14.187 58.5433 14.187 58.4892C14.1379 58.4892 14.0888 58.4892 14.0397 58.435ZM17.3288 61.0877H17.5251V57.0275C17.427 56.9734 17.427 56.9734 17.3288 56.9193V61.0877ZM14.236 55.4035V51.2892H14.0397V55.3493C14.0888 55.2952 14.1379 55.3493 14.236 55.4035ZM17.3288 51.235V53.7794C17.3779 53.8335 17.427 53.8335 17.427 53.8877C17.427 53.8877 17.476 53.8877 17.476 53.9418V51.2892L17.3288 51.235ZM38.6833 58.435V61.0877H38.8797V58.5433C38.8797 58.5433 38.8306 58.5433 38.8306 58.4892H38.7815C38.7324 58.4892 38.6833 58.4892 38.6833 58.435ZM41.9724 61.0877H42.2179V57.0275C42.1688 56.9734 42.1197 56.9734 42.0215 56.9193V61.0877H41.9724ZM38.8797 55.4035V51.2892H38.6833V55.3493L38.8797 55.4035ZM41.9724 51.235V53.7794C42.0215 53.8335 42.0706 53.8335 42.0706 53.8877C42.0706 53.8877 42.1197 53.8877 42.1197 53.9418V51.2892L41.9724 51.235ZM47.716 61.0877H47.9124V51.1809H47.716V61.0877ZM51.0051 52.4802V61.1418H51.2015V51.1809H51.0051V52.4802ZM44.8197 61.0877H45.016V51.1809H44.8197V61.0877ZM32.7433 58.435V61.0877H32.9397V58.5433C32.9397 58.5433 32.8906 58.5433 32.8906 58.4892V58.4892C32.8415 58.4892 32.7924 58.435 32.7433 58.435ZM36.0815 61.0877H36.2779V57.0275C36.1797 56.9734 36.1797 56.9734 36.0815 56.9193V61.0877ZM32.9888 55.3493V51.235H32.7924V55.2952L32.9888 55.3493ZM36.0815 51.1809V53.7253C36.1306 53.7794 36.1797 53.7794 36.1797 53.8335C36.1797 53.8335 36.2288 53.8335 36.2288 53.8877V51.235L36.0815 51.1809ZM26.8524 55.4035V51.2892H26.656V61.1959H26.8524V55.4035ZM29.9451 56.9734V61.0877H30.1415V51.1809H29.9451V56.9734ZM20.4706 58.435V61.0877H20.667V58.5433C20.667 58.5433 20.6179 58.5433 20.6179 58.4892C20.5197 58.4892 20.5197 58.435 20.4706 58.435ZM23.7597 61.0877H23.956V57.0275C23.8579 56.9734 23.8579 56.9734 23.7597 56.9193V61.0877ZM20.667 55.4035V51.2892H20.4706V55.3493C20.5197 55.2952 20.6179 55.3493 20.667 55.4035ZM23.7597 51.235V53.7794C23.8088 53.8335 23.8579 53.8335 23.8579 53.8877C23.8579 53.8877 23.907 53.8877 23.907 53.9418V51.2892L23.7597 51.235Z" fill="#02344D"/>
<path d="M8.78714 61.5208V56.5404L8.29623 56.2697V61.4667C8.34532 61.6832 8.4926 61.8457 8.68896 61.8457H9.17987C8.98351 61.8457 8.83623 61.7374 8.78714 61.5208ZM12.0271 61.8998H12.4199H12.469C12.2726 61.8456 12.1253 61.7374 12.0762 61.5208V50.9103C12.1253 50.7479 12.2726 50.5855 12.469 50.5314H12.4199H6.77441H12.0762C11.8308 50.5855 11.7326 50.6938 11.6344 50.9103V61.575C11.6344 61.7374 11.7817 61.8456 12.0271 61.8998ZM12.5181 50.4231H12.4199H12.5181ZM13.3526 57.3524V57.6231C13.6471 57.7314 13.7944 57.8396 13.8926 57.8938C13.8435 57.8938 13.8926 57.8938 14.4817 58.2186V60.6547H16.1999H14.9726V58.2186C14.3835 57.8938 14.3835 57.8938 14.3835 57.8938C14.2362 57.7855 13.9908 57.6231 13.3526 57.3524ZM18.1635 61.8998H18.6544C18.409 61.8456 18.3108 61.7374 18.2126 61.5208V56.6487C16.8871 55.999 18.998 57.0276 14.9235 54.9705V51.8306H14.4326V54.9705C18.5562 57.0276 16.4453 55.9449 17.7217 56.6487V61.5208C17.8199 61.7374 17.9181 61.8456 18.1635 61.8998ZM17.7217 54.8081C17.8199 54.9163 18.0162 54.9163 18.2126 55.0787V50.8562C18.3108 50.6938 18.409 50.5314 18.6544 50.4772H12.9108H18.1635C17.9181 50.5855 17.8199 50.6938 17.7217 50.8562V54.8081ZM37.9962 57.3524V57.6231C38.2908 57.7314 38.438 57.8396 38.5362 57.8938C38.4871 57.8938 38.5362 57.8938 39.1253 58.2186V60.6547H40.8435H39.6162V58.2186C39.0271 57.8938 39.0271 57.8938 39.0271 57.8938C38.8799 57.7855 38.6344 57.6231 37.9962 57.3524ZM42.8562 61.8998H43.249C43.298 61.8998 43.298 61.8998 43.298 61.8998C43.1017 61.8456 42.9544 61.7374 42.9053 61.5208V56.6487L42.5126 56.4863C42.4144 56.4321 42.9544 56.7028 39.5671 55.0246V51.8847H39.0271V55.0246C42.3653 56.7569 41.8253 56.4863 41.9726 56.4863L42.3653 56.6487V61.5208C42.4635 61.7374 42.6108 61.8456 42.8562 61.8998ZM42.4144 54.8081C42.5126 54.9163 42.709 54.9163 42.9053 55.0787V50.8562C42.9544 50.6938 43.1017 50.5314 43.298 50.4772H43.249H43.3471H42.8562H37.6035H42.8562C42.6108 50.5314 42.5126 50.6396 42.4144 50.8562V54.8081V54.8081ZM48.5508 61.8998H49.0417C48.7962 61.8456 48.698 61.7374 48.5999 61.5208V51.993L48.109 51.7223V61.4667C48.158 61.7374 48.3053 61.8456 48.5508 61.8998ZM51.8399 61.8998H52.3308C52.0853 61.8456 51.9871 61.7374 51.889 61.5208V50.8562C51.9871 50.6938 52.0853 50.5314 52.3308 50.4772H51.8399H49.8762H51.8399C51.5944 50.5855 51.4962 50.6396 51.398 50.8562V61.5208C51.4471 61.7374 51.6435 61.8456 51.8399 61.8998ZM50.318 51.3434L48.5999 50.4231H46.6362H48.158L50.3671 51.5599V51.3434H50.318ZM45.7035 61.8998H46.0962H46.1453C45.949 61.8456 45.8017 61.7374 45.7526 61.5208V51.7765V50.8562C45.8017 50.6938 45.949 50.5314 46.1453 50.4772H46.0962H46.1944H45.7035H43.7399H45.7035C45.458 50.5314 45.3599 50.6396 45.2617 50.8562V51.7765V61.5208C45.3108 61.7374 45.458 61.8456 45.7035 61.8998ZM32.0562 57.2983V57.569C32.3508 57.6772 32.4981 57.7855 32.5962 57.8396C32.5471 57.8396 32.5962 57.8396 33.1853 58.1644V60.6005H34.9035H33.6762V58.1644C33.0871 57.8396 33.0871 57.8396 33.0871 57.8396C32.989 57.7855 32.7435 57.6231 32.0562 57.2983ZM36.9162 61.8998H37.1126C37.1617 61.8998 37.2108 61.8457 37.2108 61.8457C37.1126 61.7374 36.9653 61.6832 36.9162 61.4667V56.5945L36.5235 56.4321C36.4253 56.378 36.9653 56.6487 33.5781 54.9705V51.8306H33.0871V54.9705C36.4253 56.7028 35.8853 56.4321 36.0326 56.4321L36.4253 56.5945V61.4667C36.5726 61.7374 36.6708 61.8456 36.9162 61.8998ZM36.4744 54.8081C36.5726 54.9163 36.769 54.9163 36.9653 55.0787V50.8562C37.0144 50.7479 37.0635 50.6396 37.2108 50.5314C37.1617 50.4772 37.0635 50.4772 37.0144 50.4772H37.3581H37.4071H36.9162H31.6144H36.9162C36.6708 50.5314 36.5726 50.6396 36.4744 50.8562C36.4744 50.9103 36.4744 54.8081 36.4744 54.8081ZM27.4417 61.8998H27.9326C27.6871 61.8456 27.589 61.7374 27.5399 61.5208V56.5404L27.049 56.2697V61.4667C27.0981 61.7374 27.2453 61.8456 27.4417 61.8998ZM30.7799 61.8998H31.1235C31.1726 61.8998 31.1726 61.8998 31.1726 61.8998C30.9762 61.8456 30.829 61.7374 30.7799 61.5208V50.9103C30.829 50.7479 30.9762 50.5855 31.1726 50.5314H31.1235H31.2217H25.4781H30.7799C30.5344 50.6396 30.4362 50.6938 30.3381 50.9103V61.575C30.3871 61.7374 30.5344 61.8456 30.7799 61.8998ZM27.5399 54.9163V51.7765H27.049V54.9163L29.2581 56.0532V55.7825L27.5399 54.9163ZM19.7835 57.3524V57.6231C20.0781 57.7314 20.2253 57.8396 20.3235 57.8938C20.2744 57.8938 20.3235 57.8938 20.9126 58.2186V60.6547H22.5817H21.3544V58.2186C20.7653 57.8938 20.7653 57.8938 20.7653 57.8938C20.7162 57.7855 20.4217 57.6231 19.7835 57.3524ZM24.6435 61.8998H25.1344H25.0362C24.8399 61.8456 24.6926 61.7374 24.6435 61.5208V56.6487C23.3181 55.999 25.429 57.0276 21.3544 54.9705V51.8306H20.8635V54.9705C24.9871 57.0276 22.8762 55.9449 24.1526 56.6487V61.5208C24.2508 61.7374 24.3981 61.8456 24.6435 61.8998ZM24.2017 54.8081C24.2999 54.9163 24.4962 54.9163 24.6926 55.0787V50.8562C24.7417 50.6938 24.889 50.5314 25.0853 50.4772H25.0362H24.6435H19.3417H24.6435C24.3981 50.5314 24.2999 50.6396 24.2017 50.8562C24.2017 50.9103 24.2017 54.8081 24.2017 54.8081ZM8.78714 54.9705V51.8306H8.29623V54.9705L10.5053 56.1073V55.8366L8.78714 54.9705Z" fill="#A9C0DE"/>
<defs>
<linearGradient id="paint0_linear_211_942" x1="29.0219" y1="4.71058" x2="30.5765" y2="65.0841" gradientUnits="userSpaceOnUse">
<stop stop-color="#FDE32B"/>
<stop offset="1" stop-color="#EE563C"/>
</linearGradient>
</defs>
</svg>
