<svg width="59" height="73" viewBox="0 0 59 73" fill="none" xmlns="http://www.w3.org/2000/svg">
<path d="M29.2067 72.9313C24.4474 70.5883 20.2575 67.1641 16.7593 62.7485L5.20676 64.1002L6.83387 52.5658L0 41.1215L0.854234 40.761C3.21355 39.7248 5.65421 39.0489 6.26438 38.8687C4.31185 29.9025 4.35253 22.9187 4.35253 22.6484V22.0176L4.92201 21.8374C8.29827 20.8462 12.8542 18.8637 18.5084 15.8449C18.6304 15.5746 18.7525 15.3493 18.8745 15.1691C18.8745 15.124 18.8745 15.0789 18.8745 15.0339C18.8745 14.8987 18.8745 14.7185 18.8745 14.5833C18.8745 14.2679 18.9152 13.9075 18.9559 13.547C19.0372 12.8712 19.1999 12.2404 19.3626 11.6096C19.444 11.2942 19.566 11.0239 19.6474 10.7986C19.7694 10.4832 19.8914 10.2129 20.0542 9.94253C20.1762 9.67219 20.3389 9.44691 20.5016 9.22162C20.9897 8.54578 21.5186 8.09522 21.9253 7.82488C22.5355 5.21161 24.244 4.13026 25.2202 3.72475C25.505 3.31925 25.8304 2.91374 26.1965 2.55329C26.4813 2.28295 26.8067 2.05767 27.1728 1.87744C27.3762 1.74228 27.5796 1.65216 27.7829 1.56205C28.1084 1.42688 28.3931 1.33677 28.6779 1.24666L29.4914 0.976318L30.3456 1.2016C31.2812 1.47194 32.827 2.14778 33.7626 3.63464C34.7388 4.04015 36.4473 5.1215 37.0575 7.73477C37.6676 8.14027 38.6439 8.99634 39.3354 10.7085C39.6609 11.5195 39.9049 12.4657 40.027 13.4569C40.0676 13.8174 40.1083 14.1778 40.1083 14.4932C40.1083 14.6734 40.1083 14.8086 40.1083 14.9438C40.1083 14.9888 40.1083 15.0339 40.1083 15.0789C40.2304 15.2592 40.3524 15.4845 40.4744 15.7548C46.1286 18.7736 50.6845 20.756 54.0608 21.7473L54.6303 21.9275V22.5583C54.6303 22.8737 54.671 29.8124 52.7184 38.7786C53.3286 38.9588 55.7693 39.6346 58.1286 40.6709L58.9828 41.0314L52.1489 52.4757L53.7761 64.0101L42.2236 62.6584C38.7253 67.0739 34.5355 70.4982 29.7762 72.8411L29.4914 72.9763L29.2067 72.9313Z" fill="#00E7FF"/>
<path d="M51.7017 51.8448L57.844 41.5269C55.2406 40.4005 52.4339 39.6345 52.4339 39.6345C52.4339 39.6345 52.1898 39.5895 51.8237 39.4994C53.9796 30.1276 53.8983 22.6483 53.8983 22.6483C49.8305 21.4768 44.5424 18.9537 39.9458 16.4756C39.7424 16.025 39.539 15.6646 39.3763 15.3942C39.3763 15.2591 39.3763 15.1239 39.3763 14.9887C39.3763 14.8536 39.3763 14.7184 39.3763 14.5382C39.3763 14.2228 39.3356 13.9074 39.2949 13.5469C39.1729 12.5557 38.9288 11.7447 38.6441 11.0238C37.9932 9.49185 37.0983 8.63578 36.3661 8.27533C35.878 5.52689 34.0882 4.58071 33.2339 4.31037C32.1763 2.37295 29.8984 1.87733 29.4916 1.83228C29.4916 1.83228 29.4916 1.83228 29.4509 1.83228H29.4102C29.3696 1.83228 29.3696 1.83228 29.3289 1.83228C29.0848 1.87733 28.6374 2.0125 28.0679 2.23778C27.9052 2.32789 27.7018 2.41801 27.4984 2.50812C27.2136 2.68835 26.9289 2.86857 26.6441 3.09385C26.278 3.40925 25.9526 3.81475 25.6679 4.26532C24.8136 4.58071 23.0238 5.52689 22.5357 8.23027C22.0882 8.45555 21.5594 8.90612 21.0306 9.58196C20.9086 9.76219 20.7459 9.98747 20.6238 10.2128C20.5018 10.438 20.3798 10.7084 20.2577 10.9787C20.1764 11.204 20.095 11.4743 20.0137 11.6996C19.851 12.2403 19.7289 12.826 19.6476 13.4568C19.6069 13.8173 19.5662 14.1327 19.5662 14.448C19.5662 14.5832 19.5662 14.7184 19.5662 14.8986C19.5662 15.0338 19.5662 15.1689 19.5662 15.3041C19.4035 15.5745 19.2001 15.9349 18.9967 16.3855C14.4408 18.9086 9.15269 21.4318 5.08491 22.6032C5.08491 22.6032 5.00355 30.0826 7.15948 39.4543L6.54931 39.5895C6.54931 39.5895 3.74254 40.3554 1.13916 41.4818L7.32219 51.7997L7.64761 52.3404L6.10185 63.1539L17.0442 61.8473C20.2577 65.9925 24.3255 69.642 29.4916 72.1201C34.6577 69.597 38.7254 65.9925 41.8983 61.8473L52.8813 63.1539L51.3762 52.3855L51.7017 51.8448Z" fill="#1B1464"/>
<path d="M6.50872 49.1414L6.26465 50.0875L8.17651 53.3316L11.4714 50.8535L10.6579 49.3666L6.50872 49.1414Z" fill="black"/>
<path d="M52.4744 49.1414L52.7185 50.0875L50.8066 53.3316L47.5117 50.8535L48.3253 49.3666L52.4744 49.1414Z" fill="black"/>
<path d="M6.06104 23.189C6.06104 23.189 19.3627 17.7372 29.6135 11.7898C29.6135 11.7898 47.8778 21.8374 52.8812 23.189C52.8812 23.189 55.1185 55.4944 29.4508 70.7685C29.4508 70.7685 7.89154 61.4419 6.06104 23.189Z" fill="#357584"/>
<path d="M48.2031 50.8537C54.0201 37.0215 53.898 22.6485 53.898 22.6485C44.7049 19.9902 29.4914 10.4382 29.4914 10.4382C29.4914 10.4382 14.2779 19.9451 5.08467 22.6034C5.08467 22.6034 4.96264 36.9764 10.7796 50.8087L7.68805 51.7999L6.10162 63.1541L17.0439 61.8475C20.2575 65.9927 24.3253 69.6422 29.4914 72.1203C34.6574 69.5972 38.7252 65.9927 41.8981 61.8475L52.8811 63.1541L51.2947 51.845L48.2031 50.8537ZM8.98974 33.6873L7.85076 33.7774C7.85076 33.7774 6.83382 27.3794 7.0372 23.9551C7.0372 23.9551 20.8677 18.5934 28.5151 13.5021C28.8405 13.2768 29.2066 13.0515 29.4914 12.8262C29.8168 13.0515 30.1422 13.2768 30.4676 13.5021C38.115 18.5934 51.9455 23.9551 51.9455 23.9551C52.1489 27.3794 51.1319 33.7774 51.1319 33.7774L49.993 33.6873C50.9286 30.0377 50.9286 24.7211 50.9286 24.7211C42.6303 22.0177 31.5252 15.3494 29.8168 14.3131C29.7761 14.268 29.6947 14.268 29.6947 14.223L29.6134 14.1779L29.4914 14.0878L29.3693 14.1779L29.288 14.268C29.2473 14.268 29.2066 14.3131 29.1659 14.3581C27.4575 15.3944 16.3524 22.0628 8.05415 24.7661C8.05415 24.7661 8.09483 30.0377 8.98974 33.6873ZM7.97279 61.0815L8.90838 53.3318L10.5355 53.1516L9.96601 59.1441L15.1728 60.4507L7.97279 61.0815ZM29.4914 69.3719C29.4914 69.3719 23.6338 66.7586 19.8914 62.2981C20.0948 62.4332 26.3185 66.3531 29.4914 67.2993C32.6642 66.3982 38.8879 62.4332 39.0913 62.2981C35.349 66.7136 29.4914 69.3719 29.4914 69.3719ZM29.4914 55.9001C20.949 55.9001 11.7558 57.3869 11.7558 57.3869L12.244 51.4395C22.8202 50.268 29.4914 50.268 29.4914 50.268C29.4914 50.268 36.1625 50.268 46.7387 51.4395L47.2269 57.3869C47.2269 57.3869 38.0337 55.9001 29.4914 55.9001ZM43.8506 60.4507L49.0574 59.1441L48.4879 53.1516L50.115 53.3318L51.0506 61.0815L43.8506 60.4507Z" fill="black"/>
<path d="M29.4914 59.5496L30.1422 61.0815L31.6473 61.3518L30.5897 62.5233L30.8337 64.1904L29.4914 63.4244L28.149 64.1904L28.3931 62.5233L27.3354 61.3518L28.8405 61.0815L29.4914 59.5496Z" fill="#E6E6E6"/>
<path d="M42.1422 61.0814C41.0846 60.3605 34.8202 56.3054 29.4914 56.3054C24.1626 56.3054 17.8982 60.4056 16.8406 61.0814L6.99658 62.2529L8.33895 52.5207L11.4305 51.4844L11.5525 50.4932C13.1796 50.1327 19.0372 49.0964 29.4914 49.0964C39.9456 49.0964 45.8032 50.1778 47.4303 50.4932L47.5524 51.4844L50.6439 52.5207L51.9862 62.2529L42.1422 61.0814Z" fill="#357584"/>
<path d="M51.2946 51.8448L48.2031 50.8535L48.0811 49.8172C48.0811 49.8172 42.0607 47.6545 29.3693 47.6545C16.6371 47.6545 10.9015 49.8172 10.9015 49.8172L10.7795 50.8535L7.688 51.8448L6.10156 63.1539L17.0439 61.8473C17.0439 61.8473 23.8778 57.0713 29.4913 57.0713C35.0642 57.0713 41.9387 61.8473 41.9387 61.8473L52.881 63.1539L51.2946 51.8448ZM7.97274 61.0813L8.90833 53.3316L10.5354 53.1514L9.96595 59.1439L15.1727 60.4505L7.97274 61.0813ZM29.4913 55.5845C20.949 55.5845 11.7558 57.3416 11.7558 57.3416L12.2439 51.3942C22.0473 49.637 25.1388 49.6821 29.4913 49.7271C33.8031 49.7722 36.1218 49.8172 46.7387 51.3942L47.2268 57.3416C47.2268 57.3867 38.0336 55.5845 29.4913 55.5845ZM43.8506 60.4505L49.0573 59.1439L48.4878 53.1514L50.1149 53.3316L51.0505 61.0813L43.8506 60.4505Z" fill="black"/>
<path d="M20.6641 52.4757C20.6641 52.3405 20.6235 52.1603 20.6235 52.0251C19.8506 52.1153 19.037 52.2054 18.2642 52.2955C18.3455 52.9713 18.3862 53.6472 18.4675 54.278C19.2404 54.1878 20.0133 54.0977 20.7862 54.0076C20.7862 53.8725 20.7455 53.6922 20.7455 53.5571C20.1353 53.6021 19.5252 53.6922 18.915 53.7373C18.915 53.6021 18.8743 53.512 18.8743 53.3768C19.4031 53.3318 19.9319 53.2417 20.4608 53.1966C20.4608 53.0614 20.4201 52.9263 20.4201 52.746C19.8913 52.7911 19.3625 52.8362 18.8336 52.9263C18.8336 52.8362 18.8336 52.701 18.793 52.6109C19.4438 52.6109 20.054 52.5208 20.6641 52.4757Z" fill="white"/>
<path d="M24.4879 52.701C24.3658 52.5658 24.2031 52.5207 23.9997 52.5207C23.8777 52.5207 23.6743 52.5207 23.3896 52.5658C23.1048 52.5658 22.9421 52.6108 22.7794 52.6108C22.7387 52.6108 22.6981 52.6108 22.6574 52.5658C22.6167 52.5207 22.6167 52.5207 22.6167 52.4757C22.6167 52.4306 22.6167 52.3856 22.6574 52.3856C22.6981 52.3405 22.7387 52.3405 22.7794 52.3405C23.1455 52.2954 23.5116 52.2954 23.8777 52.2504C23.9184 52.2504 23.9591 52.2504 23.9997 52.2954C24.0404 52.3405 24.0404 52.3405 24.0404 52.3856C24.2031 52.3856 24.3658 52.3856 24.5692 52.3405C24.5692 52.1603 24.4879 52.0251 24.3658 51.935C24.2438 51.8449 24.0811 51.7548 23.9184 51.7998C23.5116 51.8449 23.1048 51.8449 22.6981 51.8899C22.5353 51.8899 22.3726 51.9801 22.2506 52.1152C22.1286 52.2504 22.0879 52.3856 22.0879 52.5658C22.0879 52.746 22.1692 52.8812 22.2913 52.9713C22.4133 53.0614 22.576 53.1065 22.7387 53.1065C23.1455 53.0614 23.5523 53.0614 23.9591 53.0163C23.9997 53.0163 24.0404 53.0163 24.0811 53.0614C24.1218 53.1065 24.1218 53.1515 24.1218 53.1966C24.1218 53.2416 24.1218 53.2867 24.0811 53.3317C24.0404 53.3768 23.9997 53.3768 23.9591 53.3768C23.5523 53.4219 23.1862 53.4219 22.7794 53.4669C22.7387 53.4669 22.6981 53.4669 22.6574 53.4219C22.6167 53.3768 22.6167 53.3317 22.576 53.2867C22.4133 53.2867 22.2506 53.3317 22.0879 53.3317C22.0879 53.512 22.1692 53.6471 22.2913 53.7372C22.4133 53.8274 22.576 53.9175 22.7387 53.8724C23.1455 53.8274 23.593 53.8274 23.9997 53.7823C24.1625 53.7823 24.3252 53.6922 24.4472 53.557C24.5692 53.4219 24.6099 53.2867 24.6099 53.1065C24.6913 52.9262 24.6099 52.7911 24.4879 52.701Z" fill="white"/>
<path d="M28.5559 51.9349C28.4745 51.8448 28.3932 51.7547 28.2711 51.6646C28.1491 51.6195 28.0271 51.5745 27.905 51.5745C27.2542 51.5745 26.644 51.6195 25.9932 51.6195C25.9932 52.2954 26.0338 52.9712 26.0338 53.6471C26.1966 53.6471 26.3593 53.6471 26.5627 53.6471C26.5627 53.1064 26.522 52.6108 26.522 52.0701C26.9694 52.0701 27.4169 52.025 27.8643 52.025C27.9457 52.025 27.9864 52.025 28.0677 52.0701C28.1084 52.1151 28.1491 52.1602 28.1491 52.2503C28.1491 52.3404 28.1084 52.3855 28.0677 52.4305C28.0271 52.4756 27.9457 52.5206 27.905 52.5206C27.6203 52.5206 27.3355 52.5206 27.0508 52.5206C27.0508 52.6558 27.0508 52.836 27.0508 52.9712C27.3355 52.9712 27.6203 52.9712 27.9457 52.9712C28.0677 52.9712 28.1898 52.9261 28.3118 52.8811C28.4338 52.836 28.5152 52.7459 28.5559 52.6108C28.6372 52.5206 28.6372 52.3855 28.6372 52.2503C28.6779 52.1602 28.6372 52.0701 28.5559 51.9349Z" fill="white"/>
<path d="M32.6232 51.8449C32.5012 51.7097 32.3792 51.6647 32.1758 51.6647C31.6877 51.6647 31.1588 51.6196 30.6707 51.6196C30.508 51.6196 30.3453 51.6647 30.2233 51.7999C30.1012 51.935 30.0605 52.0702 30.0605 52.2054C30.0605 52.4757 30.0605 52.746 30.0605 53.0614C30.0605 53.2417 30.1012 53.3768 30.2233 53.4669C30.3453 53.6021 30.4673 53.6472 30.6707 53.6472C31.1588 53.6472 31.647 53.6472 32.1351 53.6922C32.2978 53.6922 32.4605 53.6472 32.5826 53.512C32.7046 53.4219 32.786 53.2867 32.786 53.1065C32.786 52.8361 32.786 52.5658 32.8266 52.2504C32.786 52.0702 32.7453 51.935 32.6232 51.8449ZM32.2571 52.9713C32.2571 53.0164 32.2165 53.1065 32.1758 53.1515C32.1351 53.1966 32.0538 53.1966 32.0131 53.1966C31.6063 53.1966 31.2402 53.1966 30.8334 53.1515C30.7521 53.1515 30.7114 53.1065 30.6707 53.0614C30.63 53.0164 30.5894 52.9713 30.5894 52.8812C30.5894 52.6559 30.5894 52.4306 30.5894 52.2504C30.5894 52.1603 30.63 52.1152 30.6707 52.0702C30.7114 52.0251 30.7927 51.9801 30.8334 51.9801C31.2402 51.9801 31.647 51.9801 32.0131 52.0251C32.0944 52.0251 32.1351 52.0702 32.1758 52.1152C32.2165 52.1603 32.2571 52.2054 32.2571 52.2955C32.2571 52.5208 32.2571 52.746 32.2571 52.9713Z" fill="white"/>
<path d="M36.1218 53.1065C36.2845 53.1065 36.4472 53.0614 36.5693 52.9262C36.6913 52.8361 36.7727 52.701 36.7727 52.5207C36.7727 52.3405 36.732 52.2053 36.61 52.0702C36.4879 51.935 36.3252 51.8449 36.1625 51.8449C35.5523 51.7998 34.9015 51.7548 34.2913 51.7097C34.2506 52.3856 34.2506 53.0614 34.21 53.7373C34.3727 53.7373 34.5354 53.7373 34.7388 53.7823C34.7795 53.2416 34.7795 52.746 34.8201 52.2053C35.2676 52.2504 35.6744 52.2504 36.1218 52.2955C36.1625 52.2955 36.2439 52.3405 36.2845 52.3405C36.3252 52.3856 36.3252 52.4306 36.3252 52.4757C36.3252 52.5207 36.2845 52.5658 36.2439 52.6108C36.2032 52.6559 36.1625 52.6559 36.0811 52.6559C35.7964 52.6559 35.5117 52.6108 35.2676 52.6108C35.2676 52.746 35.2676 52.9262 35.2269 53.0614C35.3489 53.0614 35.471 53.0614 35.6337 53.1065C35.7964 53.3768 35.9998 53.6021 36.1625 53.8724C36.3659 53.8724 36.5693 53.9175 36.7727 53.9175C36.4879 53.6471 36.2845 53.3768 36.1218 53.1065Z" fill="white"/>
<path d="M38.1964 52.0251C38.1964 52.1603 38.1558 52.3405 38.1558 52.4757C38.4812 52.5208 38.8066 52.5208 39.132 52.5658C39.0913 53.1065 39.0507 53.6021 39.01 54.1428C39.1727 54.1428 39.3354 54.1878 39.5388 54.1878C39.5795 53.6922 39.6202 53.1516 39.6608 52.6559C39.9863 52.701 40.3117 52.746 40.6371 52.7911C40.6371 52.6559 40.6778 52.4757 40.6778 52.3405C39.8642 52.2054 39.0507 52.1153 38.1964 52.0251Z" fill="white"/>
<path d="M14.5623 53.0162L11.3895 53.5118L11.3081 52.6558L14.6437 52.1602L14.5623 53.0162Z" fill="black"/>
<path d="M14.5623 54.4583L11.3895 54.9088L11.3081 54.0528L14.6437 53.5571L14.5623 54.4583Z" fill="black"/>
<path d="M14.5623 55.8547L11.3895 56.3053L11.3081 55.4492L14.6437 54.9536L14.5623 55.8547Z" fill="black"/>
<path d="M44.4202 53.0162L47.5931 53.5118L47.6744 52.6558L44.3389 52.1602L44.4202 53.0162Z" fill="black"/>
<path d="M44.4202 54.4583L47.5931 54.9088L47.6744 54.0528L44.3389 53.5571L44.4202 54.4583Z" fill="black"/>
<path d="M44.4202 55.8547L47.5931 56.3053L47.6744 55.4492L44.3389 54.9536L44.4202 55.8547Z" fill="black"/>
<path d="M29.4912 56.9814C22.0065 57.0265 16.6777 58.5134 16.6777 58.5134C21.0303 57.7023 25.5048 57.4771 29.4912 57.4771C33.4777 57.432 37.9522 57.7023 42.3048 58.5134C42.3048 58.4683 36.976 56.9814 29.4912 56.9814Z" fill="#00E7FF"/>
<path d="M57.8439 41.5269C55.2405 40.4005 52.4337 39.6346 52.4337 39.6346C52.4337 39.6346 47.7151 38.418 45.2744 38.1928C45.1117 38.1477 44.9897 38.1477 44.827 38.1026L44.4609 38.0576L43.8914 37.9675L43.3626 37.8774L42.9965 37.8323C41.4914 37.607 39.9863 37.4268 38.4812 37.2916V37.2466L37.1389 37.1565L36.4473 37.1114H36.3253C35.5524 37.0663 34.8202 37.0213 34.0474 36.9762H33.8846H33.2338H32.9084H32.3796C31.7287 36.9762 31.0372 36.9312 30.3863 36.9312H28.9219V37.2015C28.0677 36.9762 27.2135 36.8411 26.4406 36.8411C26.3592 36.8411 26.2779 36.8411 26.1965 36.8411C25.2203 36.8861 24.4881 37.0663 23.8779 37.4719C23.4304 37.7422 22.8203 38.3279 22.4542 39.3642C22.3728 39.0939 22.3321 38.8235 22.2508 38.5532L21.9254 37.2466L20.705 37.3367C19.4847 37.4268 18.2644 37.607 17.0847 37.7422L15.8644 37.7872L15.7423 39.1389C15.7423 39.229 15.7423 39.2741 15.7423 39.3642L15.539 37.8323L14.0746 38.0576C13.4237 38.1477 12.7322 38.2829 12.0813 38.418L11.4712 38.5532L11.0644 38.6433L10.6576 38.7334L10.0474 38.8686C9.3966 39.0038 8.74576 39.1389 8.05424 39.3192L6.58984 39.6796C6.58984 39.6796 3.78307 40.4456 1.17969 41.572L7.36271 51.8899L8.62373 50.5382L10.0881 50.1777C10.6983 50.0426 11.2678 49.9074 11.878 49.7722L12.8135 49.592L13.7491 49.4118C14.3593 49.2766 14.9695 49.1865 15.5796 49.0964L16.2712 48.9612L16.9627 48.8711C17.5728 48.781 18.183 48.6909 18.7932 48.6008L19.8915 48.4656L21.0305 48.3304C21.6406 48.2854 22.2508 48.1953 22.861 48.1502L24.6508 48.015L24.5694 47.7447C25.0982 47.97 25.7084 48.1051 26.4406 48.1051C26.522 48.1051 26.6033 48.1051 26.6847 48.1051C27.3355 48.1051 28.0677 47.97 28.8813 47.7898V47.9249H30.3457C30.9558 47.9249 31.566 47.9249 32.1762 47.97L32.8677 48.015L33.6406 48.0601C34.3321 48.1051 35.0236 48.1502 35.7151 48.1953L36.4473 48.2403L37.1795 48.2854C38.7253 48.4205 40.2304 48.6008 41.7761 48.826L42.6304 48.9612L43.4439 49.0964C44.0541 49.1865 44.6236 49.3217 45.2337 49.4118L45.9253 49.5469L46.6168 49.6821C47.2676 49.8173 47.9185 49.9525 48.5693 50.1327L50.5219 50.5832V50.5382L51.7015 51.7998L57.8439 41.5269Z" fill="black"/>
<path d="M29.4913 47.9702C20.176 48.0153 13.5049 49.5021 13.5049 49.5021C18.9557 48.6911 24.5286 48.4658 29.4913 48.4658C34.454 48.4208 40.0268 48.6911 45.4776 49.5021C45.4776 49.4571 38.8065 47.9702 29.4913 47.9702Z" fill="#E6E6E6"/>
<path d="M50.5627 37.3369C50.0746 38.0578 47.9593 38.5534 46.6983 38.7787C45.4373 39.004 44.1763 38.7787 43.1593 39.0941C42.1831 39.3644 39.7831 39.9051 39.0102 39.7699C38.278 39.6347 37.8305 39.3644 37.8305 39.3644C37.8305 39.3644 35.7153 39.6347 35.2272 39.5446C34.739 39.4545 29.4509 39.5446 29.4509 39.5446C29.4509 39.5446 24.2035 39.4545 23.6747 39.5446C23.1865 39.6347 21.0713 39.3644 21.0713 39.3644C21.0713 39.3644 20.6238 39.6347 19.8916 39.7699C19.1594 39.9051 16.7594 39.3644 15.7425 39.0941C14.7662 38.8237 13.5052 39.004 12.2035 38.7787C10.9425 38.5534 8.82727 38.0578 8.33914 37.3369C7.85101 36.616 7.40355 34.3181 7.60694 33.0565C7.81033 31.7949 9.5188 28.7762 9.76286 28.2355C10.0069 27.6948 10.4544 26.9289 10.9425 25.7123C11.2679 24.8563 12.2442 24.1354 12.8137 23.7749C12.8137 23.4145 12.8544 23.054 12.9357 22.7837C13.4239 21.0265 18.0205 19.81 18.0205 19.81C18.1425 17.9176 19.0374 16.2505 19.5255 15.4395C19.4849 14.9439 19.5255 14.3582 19.6069 13.6373C20.0137 10.4833 21.4781 8.90634 22.5357 8.36566C23.0238 5.61723 24.8136 4.67104 25.6679 4.4007C26.7255 2.46328 29.0035 1.96766 29.4102 1.92261C29.4102 1.92261 29.4102 1.92261 29.4509 1.92261C29.4916 1.92261 29.4916 1.92261 29.4916 1.92261C29.8984 2.01272 32.1763 2.50834 33.234 4.4007C34.0882 4.7161 35.878 5.66228 36.3661 8.36566C37.4238 8.86128 38.8882 10.4383 39.2949 13.5922C39.3763 14.268 39.417 14.8988 39.3763 15.3944C39.8644 16.2055 40.7593 17.8725 40.8814 19.7649C40.8814 19.7649 45.478 20.9814 45.9661 22.7386C46.0475 23.054 46.0881 23.3694 46.0881 23.7299C46.6576 24.0903 47.6339 24.8112 47.9593 25.6673C48.4068 26.8838 48.8542 27.6948 49.0983 28.1904C49.3424 28.6861 51.0508 31.7499 51.2542 33.0115C51.4983 34.273 51.0915 36.616 50.5627 37.3369Z" fill="#357584"/>
<path d="M29.3695 11.4294C29.3695 11.4294 27.9458 14.268 27.2542 14.9438C26.5627 15.6647 24.122 17.9626 24.4068 19.4945C24.6915 21.0264 25.9119 24.676 26.0339 25.1266C26.1559 25.5771 29.3695 27.7849 29.3695 27.7849C29.3695 27.7849 32.6237 26.253 33.0305 25.0365C33.4779 23.8199 34.6983 19.4945 34.6983 19.4945C34.6983 19.4945 33.722 16.4307 32.7864 15.7548C31.8508 15.079 29.3695 11.4294 29.3695 11.4294Z" fill="#38484C"/>
<path d="M25.3829 26.7486C25.3829 26.7486 22.9016 25.1716 22.5355 23.7298C22.1694 22.2429 23.1456 15.5746 23.349 14.9889C23.5931 14.4031 24.4066 11.9701 25.4236 11.4294C26.4405 10.8887 28.5558 10.2129 28.5558 10.2129C28.5558 10.2129 29.0439 11.1591 28.7185 12.3305C28.3931 13.502 27.2134 14.8537 26.0338 15.89C24.8948 16.9713 23.8372 18.9088 24.5694 20.5308C25.2609 22.1528 25.4236 22.333 25.5049 23.3693C25.627 24.4056 25.3829 26.7486 25.3829 26.7486Z" fill="#024C4A"/>
<path d="M33.7219 26.7486C33.7219 26.7486 36.2032 25.1716 36.5693 23.7298C36.9354 22.2429 35.9591 15.5746 35.7557 14.9889C35.5117 14.4031 34.6981 11.9701 33.6812 11.4294C32.6642 10.8887 30.549 10.2129 30.549 10.2129C30.549 10.2129 30.0609 11.1591 30.3863 12.3305C30.7117 13.502 31.8914 14.8537 33.071 15.89C34.21 16.9713 35.2676 18.9088 34.5354 20.5308C33.8439 22.1528 33.6812 22.333 33.5998 23.3693C33.4778 24.4056 33.7219 26.7486 33.7219 26.7486Z" fill="#024C4A"/>
<path d="M22.0883 30.218C22.0883 30.218 21.4375 29.7224 21.1527 29.8576C20.868 29.9928 20.7866 31.0741 20.5426 31.5697C20.3392 32.0203 19.3629 31.795 18.8341 32.9214C18.3053 34.0478 17.9392 37.2919 19.1189 37.8326C20.2985 38.3732 23.3087 38.959 23.8782 38.8238C24.4477 38.6886 25.668 37.0215 25.79 36.2556C25.9121 35.4896 25.9934 33.8225 25.4646 33.5071C24.9358 33.1918 22.4544 33.5522 22.251 32.9214C22.0477 32.2906 22.1697 30.5334 22.0883 30.218Z" fill="#0C343D"/>
<path d="M36.8947 30.218C36.8947 30.218 37.5455 29.7224 37.8303 29.8576C38.115 29.9928 38.1964 31.0741 38.4405 31.5697C38.6438 32.0203 39.6201 31.795 40.1489 32.9214C40.6777 34.0478 41.0438 37.2919 39.8642 37.8326C38.6845 38.3732 35.6744 38.959 35.1049 38.8238C34.5354 38.6886 33.315 37.0215 33.193 36.2556C33.071 35.4896 32.9896 33.8225 33.5184 33.5071C34.0472 33.1918 36.5286 33.5522 36.732 32.9214C36.9354 32.2906 36.8133 30.5334 36.8947 30.218Z" fill="#0C343D"/>
<path d="M40.7592 20.6208C40.5965 19.1339 39.7016 17.8723 39.2948 16.4756C38.766 14.5382 39.0914 12.2403 37.9524 10.6633C37.4643 9.98748 36.6914 9.53692 36.2846 8.77096C35.7965 7.95994 35.7151 6.92365 35.1863 6.15769C34.8202 5.66207 34.2914 5.34668 33.7626 5.16645C33.3965 5.03128 33.0304 4.89612 32.8677 4.58072C32.7457 4.35544 32.705 4.0851 32.6236 3.85982C32.4202 3.27409 31.8508 2.95869 31.3219 2.73341C31.2406 2.68836 31.1186 2.6433 31.0372 2.59824C30.6711 2.37296 30.2236 2.23779 29.7762 2.23779C29.6948 2.23779 29.6135 2.23779 29.4914 2.23779C29.4101 2.23779 29.3287 2.23779 29.2067 2.23779C28.7592 2.23779 28.3525 2.37296 27.9457 2.59824C27.8643 2.6433 27.7423 2.68836 27.6609 2.73341C27.1321 2.95869 26.5626 3.27409 26.3593 3.85982C26.2779 4.0851 26.2372 4.4005 26.1152 4.58072C25.9118 4.89612 25.5457 5.03128 25.2203 5.16645C24.6915 5.39174 24.1626 5.66207 23.7965 6.15769C23.2677 6.92365 23.1457 7.95994 22.6982 8.77096C22.2508 9.49186 21.5186 9.94242 21.0305 10.6633C19.8915 12.2403 20.2576 14.5382 19.6881 16.4756C19.2813 17.9174 18.3864 19.1339 18.2237 20.6208C18.1017 21.612 18.3457 22.5582 18.7932 23.4143C19.1186 24.0451 20.0135 25.4869 20.7457 25.622C21.6813 25.7572 20.7457 24.1802 20.583 23.6846C20.1762 22.5582 19.9728 21.3417 19.8915 20.1702C19.8915 19.8548 19.9322 19.4042 20.2169 19.3592C20.3389 19.3592 20.461 19.4042 20.583 19.3592C20.8677 19.3141 20.9491 18.8185 20.9084 18.5031C20.8271 16.5657 21.0711 14.6283 21.6813 12.826C21.722 12.7359 21.7627 12.6458 21.844 12.6007C22.0474 12.5106 22.1694 12.826 22.2508 13.0513C22.2915 13.2766 22.5762 13.5469 22.6982 13.3667C23.1457 11.5645 23.6745 9.80725 24.366 8.09511C24.4474 8.005 24.6101 8.09511 24.6915 8.23028C24.7728 8.36545 24.7728 8.50062 24.8135 8.63579C24.9355 8.86107 25.2203 8.95118 25.4643 8.86107C25.7084 8.77096 25.8711 8.54568 26.0338 8.36545C26.7254 7.59949 27.4169 6.74342 28.1898 6.11264C28.9626 5.48185 30.0203 5.48185 30.8338 6.11264C31.6067 6.74342 32.3389 7.55444 32.9897 8.36545C33.1524 8.54568 33.3558 8.77096 33.5592 8.86107C33.8033 8.95118 34.088 8.90613 34.2101 8.63579C34.2914 8.50062 34.2914 8.36545 34.3321 8.23028C34.4135 8.09511 34.5762 8.005 34.6575 8.09511C35.3084 9.80725 35.8779 11.5645 36.3253 13.3667C36.4473 13.5469 36.6914 13.2766 36.7728 13.0513C36.8134 12.826 36.9762 12.5106 37.1795 12.6007C37.2609 12.6458 37.3016 12.7359 37.3423 12.826C37.9524 14.6283 38.1965 16.5657 38.1151 18.5031C38.1151 18.8636 38.1558 19.3141 38.4406 19.3592C38.5626 19.3592 38.6846 19.3141 38.8067 19.3592C39.0914 19.4042 39.1728 19.8548 39.1321 20.1702C39.0507 21.3867 38.8473 22.5582 38.4406 23.6846C38.2778 24.1802 37.3423 25.7572 38.2778 25.622C39.01 25.4869 39.905 24.0451 40.2304 23.4143C40.5965 22.5582 40.8405 21.567 40.7592 20.6208Z" fill="#0C343D"/>
<path d="M18.9965 38.9137C18.9558 38.3279 18.5897 37.7873 18.1423 37.607C17.8575 37.5169 17.5728 37.4719 17.3287 37.2916C17.044 37.0664 16.9219 36.6608 16.7185 36.3455C16.6779 36.2553 16.5558 36.1202 16.4745 36.1652C16.4338 36.1652 16.3931 36.2103 16.3931 36.2553C16.1897 36.5257 16.3524 36.9312 16.4745 37.2466C16.5965 37.562 16.6372 38.0125 16.3931 38.1928C16.1897 37.562 15.7829 37.0213 15.2541 36.751C14.9694 36.6158 14.5626 36.4806 14.4813 36.1202C14.3999 35.8498 14.5219 35.5344 14.6846 35.3092C14.8474 35.0839 15.0101 34.8135 15.0507 34.5432C15.0507 34.4531 15.0507 34.363 15.0101 34.3179C14.9694 34.2729 14.888 34.2729 14.8067 34.2729C13.9524 34.2729 13.0575 34.3179 12.2033 34.3179C11.9592 34.3179 11.7152 34.3179 11.5118 34.2278C11.3084 34.1377 11.105 33.8674 11.1457 33.597C11.1457 33.4619 11.227 33.2816 11.1457 33.1465C11.105 33.1014 11.0236 33.1014 10.983 33.0563C10.7796 33.0563 10.5762 33.0563 10.4135 33.0563C10.3321 32.9212 10.2914 32.6959 10.2914 32.5157C10.2914 32.1102 10.4135 31.7047 10.5355 31.2991C10.6575 30.9387 10.7796 30.6233 10.9423 30.2629C11.0236 30.0826 11.105 29.9024 11.227 29.8123C11.5118 29.542 11.8779 29.587 12.244 29.542C12.4474 29.4969 12.6508 29.4518 12.8135 29.4068C13.1389 29.3167 13.9118 29.3617 14.2372 29.2266C13.9931 29.0463 13.383 28.5507 13.6677 27.6496C13.8304 27.0188 14.5219 26.9737 14.8067 26.9287C14.888 26.7935 14.8067 26.5682 14.6846 26.4781C14.6033 26.4331 14.3999 26.0276 14.1558 25.577C14.2372 25.2165 14.4813 23.7297 14.8067 23.2791C15.1321 22.7835 15.8643 23.0088 16.1897 23.2341C16.5558 23.5044 18.2643 20.801 18.2643 20.801C18.2643 20.801 14.644 21.7923 14.2372 22.2428C13.7897 22.6934 13.383 24.3605 13.383 24.3605C13.383 24.3605 13.3423 24.4055 13.2202 24.4506C12.8948 24.5407 12.6508 24.811 12.4067 25.1264C12.244 25.3067 12.0813 25.4869 12.0406 25.6221C12.0406 25.6671 11.9999 25.7122 11.9999 25.7572C11.5525 26.5232 11.1457 27.4694 10.6575 28.01C10.1694 28.5507 9.76263 29.2266 9.43721 29.9024C9.31517 30.1727 9.15246 30.4431 9.03043 30.7134C8.58297 31.2541 8.46094 32.0651 8.46094 32.786C8.46094 33.4168 8.50162 34.0025 8.58297 34.5883C8.66433 35.2641 8.86772 35.9399 9.19314 36.5257C9.27449 36.3905 9.47788 36.2553 9.64059 36.2553C10.0067 36.2553 11.9592 36.8411 13.3423 36.3455C13.3423 36.3455 12.0406 37.9675 10.2914 37.4268C10.0474 37.3367 9.84398 37.2466 9.68127 37.2015C9.72195 37.2466 9.76263 37.2916 9.80331 37.2916C10.1287 37.607 10.5355 37.7873 10.983 37.9675C11.9999 38.373 13.0169 38.5532 14.0745 38.5983C14.6846 38.5983 15.2541 38.5532 15.8643 38.6433C16.8812 38.7785 17.8575 39.3192 18.8745 39.2291C18.9965 39.2291 19.1185 39.184 19.1592 39.0488C18.9965 39.0488 18.9965 38.9587 18.9965 38.9137Z" fill="#0C343D"/>
<path d="M39.986 38.9137C40.0266 38.3279 40.3927 37.7873 40.8402 37.607C41.1249 37.5169 41.4097 37.4719 41.6537 37.2916C41.9385 37.0664 42.0605 36.6608 42.2639 36.3455C42.3046 36.2553 42.4266 36.1202 42.508 36.1652C42.5487 36.1652 42.5893 36.2103 42.5893 36.2553C42.7927 36.5257 42.63 36.9312 42.508 37.2466C42.3859 37.562 42.3453 38.0125 42.5893 38.1928C42.7927 37.562 43.1995 37.0213 43.7283 36.751C44.0131 36.6158 44.4198 36.4806 44.5012 36.1202C44.5825 35.8498 44.4605 35.5344 44.2978 35.3092C44.1351 35.0839 43.9724 34.8135 43.9317 34.5432C43.9317 34.4531 43.9317 34.363 43.9724 34.3179C44.0131 34.2729 44.0944 34.2729 44.1758 34.2729C45.03 34.2729 45.9249 34.3179 46.7791 34.3179C47.0232 34.3179 47.2673 34.3179 47.4707 34.2278C47.6741 34.1377 47.8774 33.8674 47.8368 33.597C47.8368 33.4619 47.7554 33.2816 47.8368 33.1465C47.8774 33.1014 47.9588 33.1014 47.9995 33.0563C48.2029 33.0563 48.4063 33.0563 48.569 33.0563C48.6503 32.9212 48.691 32.6959 48.691 32.5157C48.691 32.1102 48.569 31.7047 48.4469 31.2991C48.3249 30.9387 48.2029 30.6233 48.0402 30.2629C47.9588 30.0826 47.8774 29.9024 47.7554 29.8123C47.4707 29.542 47.1046 29.587 46.7385 29.542C46.5351 29.4969 46.3317 29.4518 46.169 29.4068C45.8436 29.3167 45.0707 29.3617 44.7453 29.2266C44.9893 29.0463 45.5995 28.5507 45.3147 27.6496C45.152 27.0188 44.4605 26.9737 44.1758 26.9287C44.0944 26.7935 44.1758 26.5682 44.2978 26.4781C44.3792 26.4331 44.5825 26.0276 44.8266 25.577C44.7453 25.2165 44.5012 23.7297 44.1758 23.2791C43.8503 22.7835 43.1181 23.0088 42.7927 23.2341C42.4266 23.5044 40.7182 20.801 40.7182 20.801C40.7182 20.801 44.3385 21.7923 44.7453 22.2428C45.1927 22.6934 45.5995 24.3605 45.5995 24.3605C45.5995 24.3605 45.6402 24.4055 45.7622 24.4506C46.0876 24.5407 46.3317 24.811 46.5758 25.1264C46.7385 25.3067 46.9012 25.4869 46.9419 25.6221C46.9419 25.6671 46.9825 25.7122 46.9825 25.7572C47.43 26.5232 47.8368 27.4694 48.3249 28.01C48.813 28.5507 49.2198 29.2266 49.5452 29.9024C49.6673 30.1727 49.83 30.4431 49.952 30.7134C50.3995 31.2541 50.5215 32.0651 50.5215 32.786C50.5215 33.4168 50.4808 34.0025 50.3995 34.5883C50.3181 35.2641 50.1147 35.9399 49.7893 36.5257C49.7079 36.3905 49.5046 36.2553 49.3418 36.2553C48.9757 36.2553 47.0232 36.8411 45.6402 36.3455C45.6402 36.3455 46.9419 37.9675 48.691 37.4268C48.9351 37.3367 49.1385 37.2466 49.3012 37.2015C49.2605 37.2466 49.2198 37.2916 49.1791 37.2916C48.8537 37.607 48.4469 37.7873 47.9995 37.9675C46.9825 38.373 45.9656 38.5532 44.908 38.5983C44.2978 38.5983 43.7283 38.5532 43.1181 38.6433C42.1012 38.7785 41.1249 39.3192 40.108 39.2291C39.986 39.2291 39.8639 39.184 39.8232 39.0488C39.986 39.0488 39.986 38.9587 39.986 38.9137Z" fill="#0C343D"/>
<path d="M37.7086 19.5396C36.6509 14.7637 34.8611 11.3394 34.1289 10.4383C33.4374 9.49208 29.9798 8.63601 29.5323 8.5459C29.0849 8.63601 25.6272 9.49208 24.9357 10.4383C24.2035 11.3844 22.373 14.7637 21.3561 19.5396C20.2985 24.3156 22.7391 25.5321 22.7391 25.5321C22.7391 25.5321 21.8442 22.6485 22.1696 20.3957C22.4951 18.1429 24.1222 13.5471 25.0984 12.1504C25.9933 10.8888 29.1255 9.49208 29.573 9.31186C30.0204 9.49208 33.112 10.8888 34.0476 12.1504C35.0238 13.5021 36.6509 18.1429 36.9764 20.3507C37.3018 22.5584 36.4069 25.4871 36.4069 25.4871C36.4069 25.4871 38.7255 24.3156 37.7086 19.5396Z" fill="#00E7FF"/>
<path d="M18.7527 34.5883C18.7527 34.5883 19.0781 33.3718 19.973 33.0113C20.8679 32.6509 21.3154 32.1102 21.356 31.3443C21.3967 30.5783 21.6815 30.8486 21.8848 30.9838C21.8848 30.9838 21.8035 30.353 21.3967 30.1728C20.9899 29.9926 20.7459 30.0827 20.7052 30.5783C20.6645 31.0739 20.5018 32.0201 19.851 32.2003C19.2001 32.3806 18.4272 33.3267 18.7527 34.5883Z" fill="#00E7FF"/>
<path d="M40.2303 34.5883C40.2303 34.5883 39.9049 33.3718 39.01 33.0113C38.1151 32.6509 37.6676 32.1102 37.627 31.3443C37.5863 30.5783 37.3015 30.8486 37.0981 30.9838C37.0981 30.9838 37.1795 30.353 37.5863 30.1728C37.9931 29.9926 38.2371 30.0827 38.2778 30.5783C38.3185 31.0739 38.4812 32.0201 39.132 32.2003C39.7829 32.3355 40.5558 33.3267 40.2303 34.5883Z" fill="#00E7FF"/>
<path d="M31.6473 23.1441C31.2812 22.2429 28.3117 24.2705 28.3931 21.8825C28.3931 21.7023 28.3117 20.711 29.41 19.9451C29.2473 17.1966 26.4405 17.6021 25.4236 18.0977C25.2202 18.1428 25.1389 17.5571 25.2202 17.3318C24.2033 18.0076 24.5287 20.5758 25.6677 21.522C25.5456 21.9275 25.6677 22.4682 26.1151 22.6484C26.2778 22.6935 26.4812 23.0539 26.6846 23.1441C27.01 23.3243 27.3761 23.3693 27.7829 23.3693C28.8812 23.4144 29.6541 23.8199 30.7117 23.8199C31.688 23.8199 32.5829 23.099 31.6473 23.1441Z" fill="#00E7FF"/>
<path d="M30.2642 19.0889C30.2642 19.0889 30.3048 18.1427 31.3218 17.8723C32.3387 17.602 33.1116 17.9625 33.5591 18.1877L33.0302 18.368C33.0302 18.368 33.7218 19.179 33.0302 19.99C32.6235 20.1702 30.2642 19.0889 30.2642 19.0889Z" fill="#00E7FF"/>
<path d="M25.9523 23.9101C25.9523 24.3606 25.8303 24.7211 26.0337 25.1717C26.2371 25.5772 26.6032 25.7574 26.9286 25.9376C27.8642 26.4783 28.7998 27.019 29.7354 27.6047C30.5896 28.1003 32.0133 26.5233 31.1591 26.0277C28.7591 26.8838 26.6845 24.8112 27.3354 23.7749C27.2947 22.6936 25.9116 22.8287 25.9523 23.9101Z" fill="#00E7FF"/>
<path d="M29.5728 20.4407C29.5728 20.4407 30.0202 20.3055 30.1829 20.6209C30.4677 21.3868 30.0202 21.5671 30.0202 21.5671L29.5728 20.4407Z" fill="#00E7FF"/>
<path d="M27.0508 23.8649C27.0508 23.8649 29.7762 26.388 32.3796 23.2341L32.2575 23.0088C32.2575 23.0088 31.0779 23.6396 29.9389 23.6396C28.7999 23.6396 27.2135 23.2791 27.2135 23.2791L27.0508 23.8649Z" fill="#00E7FF"/>
<path d="M21.6002 27.9201C21.3561 27.6948 21.0307 27.6047 20.7053 27.4245C20.6239 27.3794 20.5019 27.2893 20.4612 27.1992C20.4612 26.9739 20.7866 26.9289 20.868 26.7036C20.9493 26.5234 20.8273 26.3431 20.7053 26.253C20.1358 25.5772 19.3222 25.2618 18.59 24.9464C18.1832 24.8112 17.8171 24.631 17.451 24.4508C17.0849 24.2705 16.8002 24.0002 16.4341 23.7749C16.1493 23.5947 15.4578 23.5046 15.4578 24.0903C15.4578 24.2255 15.5392 24.4057 15.6205 24.4958C16.19 25.3068 17.0443 25.8475 17.8578 26.3431C17.6544 26.4783 17.3697 26.4783 17.1663 26.4332C17.0849 26.7486 17.329 27.064 17.5731 27.2893C17.9392 27.6047 18.2646 27.9201 18.6307 28.2355C18.6714 28.2806 18.7527 28.3256 18.7934 28.4157C18.8748 28.5509 18.8341 28.7311 18.7527 28.8663C18.6307 29.0916 18.3866 29.2267 18.1426 29.2718C17.8985 29.3168 17.6544 29.3168 17.4104 29.2718C17.0036 29.2267 16.5561 29.1817 16.1493 29.1366C15.8646 29.0916 15.5392 29.0916 15.3358 29.3168C15.1324 29.5872 15.1731 30.0377 15.4171 30.3081C15.4985 30.3982 15.5799 30.4883 15.7019 30.5334L16.3934 32.0202L18.1426 32.2455L18.7527 30.218C18.9154 30.8037 18.5493 31.4345 18.6307 32.0202C18.6307 32.0653 18.6307 32.1103 18.6714 32.1103C18.712 32.1554 18.7527 32.1554 18.7934 32.1554C19.1595 32.1554 19.4849 32.1103 19.8103 32.0202C20.1358 31.8851 20.4612 31.6598 20.5832 31.2993C20.7053 30.9839 20.7053 30.6685 20.7053 30.3531C20.7459 30.0377 20.7866 29.6773 21.0307 29.4971C21.2341 29.2718 21.6002 29.2718 21.7629 29.0015C22.007 28.5959 21.8849 28.1904 21.6002 27.9201Z" fill="#00E7FF"/>
<path d="M43.6068 29.3168C43.4034 29.0915 43.078 29.0915 42.7932 29.1366C42.3864 29.1817 41.939 29.2267 41.5322 29.2718C41.2881 29.2718 41.0441 29.3168 40.8 29.2718C40.5559 29.2267 40.3525 29.0915 40.1898 28.8663C40.1085 28.7311 40.0678 28.5509 40.1492 28.4157C40.1898 28.3256 40.2305 28.2805 40.3119 28.2355C40.678 27.9201 41.0034 27.6047 41.3695 27.2893C41.6136 27.064 41.8576 26.7937 41.7763 26.4332C41.5322 26.5233 41.2881 26.4783 41.0847 26.3431C41.8983 25.8475 42.7525 25.3068 43.322 24.4958C43.4034 24.3606 43.4847 24.2255 43.4847 24.0903C43.4847 23.5496 42.7932 23.5947 42.5085 23.7749C42.183 24.0002 41.8576 24.2705 41.4915 24.4507C41.1254 24.631 40.7186 24.8112 40.3525 24.9464C39.5797 25.2618 38.8068 25.5771 38.2373 26.253C38.1153 26.3882 38.0339 26.5684 38.0746 26.7036C38.1559 26.9288 38.522 26.9739 38.4814 27.1992C38.4814 27.3343 38.3593 27.3794 38.2373 27.4245C37.9526 27.5596 37.5865 27.6497 37.3424 27.9201C37.0983 28.1454 36.9356 28.5959 37.139 28.9113C37.3017 29.1817 37.6271 29.2267 37.8712 29.4069C38.0746 29.6322 38.1559 29.9476 38.1966 30.263C38.2373 30.5784 38.1966 30.9389 38.3187 31.2092C38.4407 31.5696 38.7661 31.7949 39.0915 31.9301C39.417 32.0653 39.7831 32.0653 40.1085 32.0653C40.1492 32.0653 40.2305 32.0653 40.2305 32.0202C40.2712 31.9751 40.2712 31.9751 40.2712 31.9301C40.3525 31.3444 39.9864 30.7136 40.1492 30.1278L40.7593 32.1554L42.5085 31.9301L43.2 30.4432C43.322 30.3982 43.4034 30.3081 43.4847 30.218C43.7695 30.0377 43.8102 29.5872 43.6068 29.3168Z" fill="#00E7FF"/>
<path d="M23.0645 19.5394C23.0645 19.5394 23.0645 16.2053 25.3424 15.1239L25.2611 15.6195C25.2611 15.6195 25.4238 15.2591 25.9526 14.8536C26.4814 14.4931 27.5797 13.6371 28.0271 11.6546L28.3932 11.0688C28.3932 11.0688 28.7593 11.5645 28.678 11.8799C28.5966 12.1953 27.8238 14.2678 27.3763 14.7184C26.9288 15.1239 23.0645 19.5394 23.0645 19.5394Z" fill="#00E7FF"/>
<path d="M24.4473 13.4568C24.4473 13.4568 24.6507 12.6908 25.6676 12.2853C26.7252 11.8798 27.0913 11.6545 27.4981 10.9336L27.9049 10.8435C27.9049 10.8435 27.7015 12.015 27.1727 12.3304C26.6845 12.6458 24.4473 13.4568 24.4473 13.4568Z" fill="#00E7FF"/>
<path d="M23.8372 18.8635C23.8372 18.8635 23.4304 21.3867 23.8372 22.8735L23.2271 22.6483C23.2271 22.6483 23.6745 24.7208 24.7728 25.7121L24.6915 22.423L23.8372 18.8635Z" fill="#00E7FF"/>
<path d="M35.9183 19.5394C35.9183 19.5394 35.9183 16.2053 33.6403 15.1239L33.7217 15.6195C33.7217 15.6195 33.559 15.2591 33.0302 14.8536C32.5014 14.4931 31.4031 13.6371 30.9556 11.6546L30.5895 11.0688C30.5895 11.0688 30.2234 11.5645 30.3048 11.8799C30.3861 12.1953 31.159 14.2678 31.6065 14.7184C32.0539 15.1239 35.9183 19.5394 35.9183 19.5394Z" fill="#00E7FF"/>
<path d="M34.5353 13.4568C34.5353 13.4568 34.3319 12.6908 33.3149 12.2853C32.2573 11.8798 31.8912 11.6545 31.4844 10.9336L31.0776 10.8435C31.0776 10.8435 31.281 12.015 31.8098 12.3304C32.298 12.6458 34.5353 13.4568 34.5353 13.4568Z" fill="#00E7FF"/>
<path d="M35.1456 18.8635C35.1456 18.8635 35.5523 21.3867 35.1456 22.8735L35.7557 22.6483C35.7557 22.6483 35.3083 24.7208 34.21 25.7121L34.2913 22.423L35.1456 18.8635Z" fill="#00E7FF"/>
<path d="M25.3828 18.1878C25.3828 18.1878 25.8709 18.368 25.993 18.5032C25.7896 18.9087 25.4642 19.4944 26.0337 20.1252C26.4404 20.5307 26.9286 20.711 27.8235 20.3956C28.7184 20.0802 28.7591 19.2691 28.6777 18.9538C28.5557 18.4131 27.376 17.557 25.3828 18.1878Z" fill="black"/>
<path d="M30.3047 18.9538C30.2234 19.3142 30.264 20.0802 31.1589 20.3956C32.0539 20.711 32.542 20.5307 32.9488 20.1252C33.5183 19.5395 33.1928 18.9087 32.9894 18.5032C33.1115 18.368 33.5996 18.1878 33.5996 18.1878C31.6064 17.557 30.4267 18.4131 30.3047 18.9538Z" fill="black"/>
<path d="M51.2947 33.0565C51.0914 31.7949 49.3829 28.7762 49.1388 28.2355C48.8948 27.6948 48.4473 26.9289 47.9998 25.7123C47.6744 24.8563 46.6982 24.1354 46.1287 23.7749C46.1287 23.4145 46.088 23.054 46.0066 22.7837C45.5185 21.0265 40.9219 19.81 40.9219 19.81C40.7999 17.9176 39.905 16.2505 39.4168 15.4395C39.4168 14.9439 39.4168 14.3582 39.3355 13.6373C38.9287 10.4833 37.4643 8.90634 36.4067 8.36566C35.9185 5.61723 34.1287 4.67104 33.2745 4.4007C32.2169 2.46328 29.9389 1.96766 29.5321 1.92261C29.5321 1.92261 29.5321 1.92261 29.4914 1.92261H29.4508C29.044 2.01272 26.766 2.50834 25.7084 4.4007C24.8542 4.7161 23.0643 5.66228 22.5762 8.36566C21.5593 8.86128 20.0949 10.4383 19.6881 13.5922C19.6067 14.268 19.5661 14.8988 19.6067 15.3944C19.1186 16.2055 18.2237 17.8725 18.1017 19.7649C18.1017 19.7649 13.5051 20.9814 13.0169 22.7386C12.9356 23.054 12.8949 23.3694 12.8949 23.7299C12.3254 24.0903 11.3491 24.8112 11.0237 25.6673C10.5763 26.8838 10.1288 27.6948 9.84406 28.1904C9.59999 28.7311 7.89152 31.7499 7.68813 33.0115C7.48475 34.273 7.89152 36.5709 8.42034 37.2918C8.90847 38.0127 11.0237 38.5083 12.2847 38.7336C13.5457 38.9589 14.8068 38.7336 15.8237 39.049C16.8406 39.3194 19.2406 39.86 19.9728 39.7249C20.705 39.5897 21.1525 39.3194 21.1525 39.3194C21.1525 39.3194 23.2677 39.5897 23.7559 39.4996C24.244 39.4095 29.5321 39.4996 29.5321 39.4996C29.5321 39.4996 34.7796 39.4095 35.3084 39.4996C35.7965 39.5897 37.9117 39.3194 37.9117 39.3194C37.9117 39.3194 38.3592 39.5897 39.0914 39.7249C39.8236 39.86 42.2236 39.3194 43.2405 39.049C44.2575 38.7787 45.4778 38.9589 46.7795 38.7336C48.0405 38.5083 50.1558 38.0127 50.6439 37.2918C51.0914 36.616 51.4981 34.273 51.2947 33.0565ZM19.8508 16.9264C20.0949 17.6923 20.461 17.9627 20.461 17.9627C20.1762 16.0703 20.3389 14.9889 20.8271 13.1867C21.1932 11.7899 22.1288 10.4833 22.5355 9.98769C22.5355 10.4383 22.5762 10.9339 22.6576 11.4745C22.6576 11.4745 22.8203 6.96892 25.3016 5.75239C25.2203 6.24801 25.2203 6.78869 25.3016 7.37442C25.3016 7.37442 25.6677 3.81497 29.5321 3.13913C33.3965 3.81497 33.7626 7.37442 33.7626 7.37442C33.844 6.78869 33.844 6.24801 33.7626 5.75239C36.244 7.01397 36.4067 11.4745 36.4067 11.4745C36.488 10.9339 36.5287 10.4833 36.5287 9.98769C36.8948 10.4833 37.8304 11.7899 38.2372 13.1867C38.7253 14.9439 38.8473 16.0252 38.6033 17.9627C38.6033 17.9627 38.9287 17.6923 39.2134 16.9264C39.5389 17.7824 40.2304 19.7649 39.7422 21.7474C39.0914 24.3156 36.2033 25.5321 36.2033 25.5321C37.4236 24.3156 37.8304 22.3782 37.7084 20.4858C37.5863 18.5934 36.0406 13.9526 34.7389 11.7449C33.5185 9.67229 30.1423 9.13162 29.6542 9.08656C29.6542 9.08656 29.6542 9.08656 29.6135 9.08656H29.5728C29.0847 9.17667 25.7084 9.71735 24.4881 11.7449C23.1864 13.9526 21.6406 18.6385 21.5186 20.4858C21.3966 22.3331 21.7627 24.3156 23.0237 25.5321C23.0237 25.5321 20.1355 24.3156 19.4847 21.7474C18.8339 19.7649 19.5254 17.7824 19.8508 16.9264ZM24.3254 23.5496L23.5932 23.0991C23.9186 24.631 24.6915 25.6673 24.8135 25.8025C22.4949 23.7749 22.6982 21.2067 22.6982 21.2067C22.9423 21.8375 23.4304 22.2881 23.4304 22.2881C23.3898 19.9001 23.8372 18.8638 23.8372 18.8638C23.7152 21.6573 24.2847 23.4595 24.3254 23.5496ZM24.366 17.7824C24.5287 16.611 25.1389 15.5296 25.1389 15.5296C23.5118 16.611 23.1457 19.3594 23.1457 19.3594C22.9016 15.4846 24.8949 14.1779 26.3593 13.412C27.8237 12.646 28.2711 11.4295 28.2711 11.4295C28.0677 12.646 27.783 14.0428 26.4406 14.9439C25.1389 15.845 24.366 17.7824 24.366 17.7824ZM24.4474 13.457C24.8948 11.5196 26.2779 12.1053 27.4982 10.8888C27.1728 11.9251 26.6847 12.0603 25.6677 12.4658C24.7321 12.9614 24.4881 13.412 24.4474 13.457ZM30.6711 11.4295C30.6711 11.4295 31.1186 12.6911 32.583 13.412C34.0474 14.1779 36.0406 15.4395 35.7965 19.3594C35.7965 19.3594 35.4304 16.611 33.8033 15.5296C33.8033 15.5296 34.4135 16.5659 34.5762 17.7824C34.5762 17.7824 33.8033 15.845 32.4609 14.9439C31.1999 14.0428 30.8745 12.646 30.6711 11.4295ZM31.4847 10.9339C32.705 12.1053 34.088 11.5647 34.5355 13.5021C34.4948 13.457 34.2507 12.9614 33.3152 12.5559C32.2982 12.0603 31.8101 11.9702 31.4847 10.9339ZM35.3897 23.0991L34.6982 23.5496C34.7389 23.4595 35.3084 21.6573 35.1863 18.8638C35.1863 18.8638 35.6338 19.9001 35.5931 22.2881C35.5931 22.2881 36.0812 21.8375 36.3253 21.2067C36.3253 21.2067 36.488 23.7749 34.2101 25.8025C34.2507 25.6673 35.0643 24.676 35.3897 23.0991ZM15.4169 31.1191C14.522 30.8938 13.4237 30.6235 12.8542 30.7136C11.8373 30.8488 11.0644 32.2005 11.0237 32.2906C11.1051 32.2455 12.6508 31.4796 13.8712 31.9301C13.8712 31.9301 13.2203 32.7862 12.122 33.0565C12.122 33.0565 12.7729 33.5071 13.5051 33.3269C14.2373 33.1466 15.2949 32.5158 16.0678 32.4708C16.0678 32.4708 16.0271 33.0115 16.2712 33.5521C16.2712 33.5521 17.044 32.9664 17.8983 32.8312C17.8983 32.8312 17.0847 36.5259 18.2644 38.7787C18.2644 38.7787 16.0678 38.5985 16.4745 35.3093C16.4745 35.3093 15.4983 36.4357 15.3356 37.8776C15.3356 37.8776 12.3254 38.0127 11.1864 37.6523C10.0474 37.2918 9.64067 36.7061 9.64067 36.7061C9.64067 36.7061 11.5118 37.472 13.2203 36.4357C13.2203 36.4357 10.3729 36.4357 9.43728 35.7148C8.50169 35.039 9.15254 32.9214 9.47796 31.9301C9.80338 30.8938 10.6576 28.7762 10.983 28.4608C11.3491 28.1904 12.5288 27.7849 12.5288 27.7849C12.5288 27.7849 12.1627 26.5234 12.3254 26.0728C12.4474 25.7574 13.0169 25.397 13.261 25.2167C13.7898 26.5234 15.0915 27.6498 17.4101 27.3344C17.4101 27.3344 15.3762 26.6585 14.6847 24.9914C13.9932 23.3244 14.4813 23.009 14.7254 22.5133C14.9695 22.0177 17.1661 21.5672 17.2881 21.5221C17.2067 21.5672 16.2305 22.0628 16.0678 22.8287C15.9051 23.5947 15.8237 24.4057 17.2474 25.1717C18.6305 25.9376 20.6237 26.253 20.1355 26.7036C19.6474 27.1541 18.6305 26.5684 18.9966 27.3344C19.3627 28.1454 20.8271 28.1454 21.3966 28.6861C21.3966 28.6861 20.7457 28.7762 20.583 29.1366C20.4203 29.4971 20.6644 29.9026 20.5016 30.8037C20.3389 31.7499 19.0779 31.5697 19.0779 31.5697C19.0779 31.5697 19.2 30.3531 19.8101 29.0015C19.7288 29.0465 18.3457 29.7224 17.8169 31.3894L16.922 31.4345C16.922 31.4345 16.8813 31.4345 16.8 31.3894C16.4745 30.5784 15.2135 28.1003 12.2034 29.5421C12.2034 29.5872 13.9525 29.0916 15.4169 31.1191ZM25.0982 35.8951C24.8542 36.0753 23.1864 35.8951 22.6169 35.7599C22.0474 35.6247 21.6813 35.5346 21.5593 35.5797C21.4372 35.6247 21.3966 35.85 21.6406 36.0302C21.8847 36.2105 23.0643 36.5709 24.0406 36.616C25.0169 36.661 24.8542 36.8863 24.8135 37.0215C24.8135 37.2017 24.3254 37.3819 23.4711 37.2918C22.6169 37.2017 21.8847 36.7511 21.7627 36.7511C21.6406 36.7511 21.4372 36.9764 21.6406 37.2017C21.844 37.472 23.0237 37.8325 23.3084 37.9226C23.5932 37.9677 23.5932 38.1929 23.4711 38.3281C23.3491 38.4633 22.4949 38.4182 21.8033 38.1929C21.1118 37.9677 20.705 37.5622 20.461 37.3819C20.1762 37.2017 19.7288 37.427 19.2813 36.7962C18.8339 36.1654 18.8745 34.4983 18.9559 34.0027C19.0372 33.5071 19.322 32.8763 19.8101 32.6961C20.2576 32.5158 20.705 32.4257 20.9084 31.9752C21.1118 31.5246 21.1525 30.5334 21.1932 30.4433C21.2745 30.3081 21.3559 30.3531 21.3559 30.3531C22.0067 30.9389 21.9254 31.4345 21.8847 31.8851C21.844 32.3356 21.4372 32.8312 21.6813 33.0565C21.9254 33.2818 23.5118 33.8225 24.2033 33.8675C24.8948 33.9126 25.0982 33.9577 25.0576 34.1379C25.0576 34.3181 24.9762 34.5434 24.122 34.5434C23.2677 34.5434 22.4949 34.228 22.2101 34.1379C21.9254 34.0928 21.8033 34.273 21.8033 34.4533C21.844 34.6335 22.1288 34.8137 22.8203 34.9939C23.5118 35.2192 24.2847 35.1291 24.7728 35.2192C25.2609 35.2643 25.3423 35.7148 25.0982 35.8951ZM29.4914 26.8838C29.4914 26.8838 27.3762 26.208 26.3999 24.5409C26.3999 24.5409 26.644 23.9551 26.6847 23.1892C27.4576 24.0002 28.4338 24.4958 29.4914 24.4958C30.5491 24.4958 31.5253 24.0002 32.2982 23.1892C32.3389 23.9551 32.583 24.5409 32.583 24.5409C31.6067 26.208 29.4914 26.8838 29.4914 26.8838ZM32.2982 22.6936C31.444 23.1441 30.5084 23.3694 29.4914 23.3694C28.4745 23.3694 27.4982 23.0991 26.6847 22.6936C26.644 21.7474 26.2372 20.666 24.9762 19.855C24.9762 19.855 24.5287 18.0528 26.1152 16.4307C26.522 16.0252 26.9287 15.6197 27.2948 15.2593C27.2948 15.2593 29.3694 13.7724 31.7287 15.2593C32.0948 15.6197 32.5016 16.0252 32.9084 16.4307C34.4948 18.0978 34.0474 19.855 34.0474 19.855C32.7457 20.7111 32.3796 21.7924 32.2982 22.6936ZM39.7016 36.8413C39.2541 37.472 38.8067 37.2468 38.5219 37.427C38.2372 37.6072 37.8304 38.0127 37.1795 38.238C36.488 38.4633 35.6745 38.5083 35.5118 38.3732C35.3897 38.238 35.349 38.0127 35.6745 37.9677C35.9999 37.9226 37.1389 37.5171 37.3423 37.2468C37.5456 36.9764 37.3829 36.7962 37.2609 36.7962C37.1389 36.7962 36.4067 37.2468 35.5524 37.3369C34.6982 37.427 34.2101 37.2468 34.2101 37.0665C34.2101 36.8863 34.0067 36.661 34.9829 36.661C35.9592 36.661 37.1389 36.3006 37.3829 36.0753C37.627 35.85 37.5863 35.6247 37.4643 35.6247C37.3423 35.5797 36.9762 35.6698 36.4067 35.805C35.8372 35.9401 34.1694 36.1204 33.9253 35.9401C33.6813 35.7599 33.7626 35.2643 34.2507 35.2192C34.7389 35.1742 35.5118 35.2192 36.2033 34.9939C36.8948 34.7687 37.1795 34.6335 37.2202 34.4533C37.2609 34.273 37.1389 34.0928 36.8134 34.1379C36.5287 34.1829 35.7558 34.5434 34.9016 34.5434C34.0474 34.5434 33.966 34.3181 33.966 34.1379C33.966 33.9577 34.1287 33.9126 34.8609 33.8675C35.5524 33.8225 37.1389 33.2818 37.3829 33.0565C37.627 32.8312 37.2609 32.3356 37.1795 31.8851C37.1389 31.4345 37.0168 30.9389 37.7084 30.3531C37.7084 30.3531 37.8304 30.3531 37.8711 30.4433C37.9524 30.5784 37.9524 31.5246 38.1558 31.9752C38.3592 32.4257 38.8067 32.5609 39.2541 32.6961C39.7016 32.8763 40.027 33.462 40.1083 34.0027C40.1083 34.5434 40.149 36.2105 39.7016 36.8413ZM49.5863 35.7148C48.6507 36.3907 45.8032 36.4357 45.8032 36.4357C47.5117 37.472 49.3829 36.7061 49.3829 36.7061C49.3829 36.7061 48.9761 37.2918 47.8371 37.6523C46.6982 38.0127 43.688 37.8776 43.688 37.8776C43.5253 36.4357 42.549 35.3093 42.549 35.3093C42.9965 38.5534 40.7592 38.7787 40.7592 38.7787C41.9388 36.5259 41.1253 32.8312 41.1253 32.8312C41.9389 33.0115 42.7117 33.5521 42.7117 33.5521C42.9558 32.9664 42.9151 32.4708 42.9151 32.4708C43.688 32.5609 44.7456 33.1917 45.4778 33.3269C46.21 33.5071 46.8609 33.0565 46.8609 33.0565C45.7626 32.7862 45.1117 31.9301 45.1117 31.9301C46.3321 31.4796 47.8778 32.2455 47.9592 32.2906C47.9185 32.2005 47.1456 30.8488 46.1287 30.7136C45.5592 30.6235 44.4609 30.8938 43.566 31.1191C44.9897 29.0916 46.7795 29.5872 46.9422 29.6322C43.8914 28.1904 42.6304 30.7136 42.305 31.4796C42.2236 31.5246 42.1829 31.5246 42.1829 31.5246L41.288 31.4796C40.7185 29.8125 39.3761 29.1366 39.2948 29.0916C39.905 30.4433 40.027 31.6598 40.027 31.6598C40.027 31.6598 38.766 31.7949 38.6033 30.8938C38.4406 29.9476 38.6846 29.5872 38.5219 29.2267C38.3592 28.8663 37.7084 28.7762 37.7084 28.7762C38.2778 28.1904 39.7422 28.1904 40.1083 27.4245C40.4744 26.6135 39.4575 27.2443 38.9694 26.7937C38.4812 26.3431 40.4745 26.0277 41.8982 25.2618C43.2812 24.4958 43.2405 23.6848 43.0778 22.9189C42.9151 22.1529 41.9389 21.6573 41.8575 21.6122C41.9795 21.6573 44.1761 22.1078 44.4202 22.6035C44.6643 23.0991 45.1524 23.4145 44.4609 25.0816C43.7694 26.7486 41.7355 27.4245 41.7355 27.4245C44.0541 27.7399 45.3151 26.6135 45.8846 25.3068C46.1287 25.442 46.6982 25.8025 46.8202 26.1629C46.9829 26.5684 46.6168 27.875 46.6168 27.875C46.6168 27.875 47.7965 28.2806 48.1626 28.5509C48.5287 28.8212 49.3422 30.9839 49.6676 32.0202C49.871 32.9214 50.5219 34.9939 49.5863 35.7148Z" fill="black"/>
<path d="M28.8809 21.0264V21.3869C28.8809 21.522 29.0029 21.6121 29.1249 21.5671L29.4503 21.4319V20.4407C29.1249 20.4407 28.8809 20.711 28.8809 21.0264Z" fill="black"/>
<path d="M29.5728 20.4407V21.4319L29.8982 21.5671C30.0202 21.6121 30.1422 21.522 30.1422 21.3869V21.0264C30.1016 20.711 29.8575 20.4407 29.5728 20.4407Z" fill="black"/>
<path d="M36.9354 29.3167H22.0474V29.5419H36.9354V29.3167Z" fill="#00E7FF"/>
<path d="M31.7289 32.0201C31.6475 31.93 31.4848 31.8849 31.4034 31.975C31.4441 31.8398 31.4441 31.7047 31.3628 31.6146C31.2407 31.4794 31.078 31.4794 30.956 31.6146C30.8339 31.7497 30.8339 31.93 30.956 32.0651C30.9967 32.1102 30.9967 32.1102 31.0373 32.1102L30.7119 32.4706C30.8339 32.5157 30.9153 32.6058 30.9967 32.6959L31.2814 32.3805C31.2814 32.4256 31.3221 32.4256 31.3221 32.4706C31.4441 32.6058 31.6068 32.6058 31.7289 32.4706C31.8102 32.3355 31.8102 32.1552 31.7289 32.0201Z" fill="#164956"/>
<path d="M27.8642 35.6696C27.8642 35.6245 27.8235 35.6245 27.8235 35.5795C27.7015 35.4443 27.5388 35.4443 27.4167 35.5795C27.2947 35.7146 27.2947 35.8949 27.4167 36.03C27.4981 36.1201 27.6608 36.1652 27.7421 36.0751C27.7015 36.2103 27.7015 36.3454 27.7828 36.4355C27.9049 36.5707 28.0676 36.5707 28.1896 36.4355C28.3116 36.3004 28.3116 36.1201 28.1896 35.985C28.1489 35.9399 28.1489 35.9399 28.1082 35.9399L28.5964 35.3992V35.2641C28.515 35.219 28.4337 35.174 28.3523 35.1289L27.8642 35.6696ZM27.8235 35.985C27.8235 35.9399 27.8642 35.9399 27.8235 35.985C27.8642 35.9399 27.8642 35.9399 27.8235 35.985C27.8642 35.985 27.8642 35.9399 27.8235 35.985Z" fill="#164956"/>
<path d="M31.1996 35.5795C31.159 35.6245 31.159 35.6245 31.159 35.6696L30.6708 35.1289C30.5895 35.174 30.5081 35.219 30.4268 35.2641V35.3992L30.9149 35.9399C30.8742 35.9399 30.8742 35.985 30.8335 35.985C30.7115 36.1201 30.7115 36.3004 30.8335 36.4355C30.9556 36.5707 31.1183 36.5707 31.2403 36.4355C31.3217 36.3454 31.3623 36.1652 31.281 36.0751C31.403 36.1201 31.5251 36.1201 31.6064 36.03C31.7284 35.8949 31.7284 35.7146 31.6064 35.5795C31.4844 35.4894 31.281 35.4894 31.1996 35.5795ZM31.1183 35.9399C31.1183 35.9399 31.159 35.9399 31.1183 35.9399C31.1183 35.985 31.1183 35.9399 31.1183 35.9399Z" fill="#164956"/>
<path d="M27.6609 32.4706C27.7016 32.4256 27.7016 32.4256 27.7016 32.3805L27.9863 32.6959C28.0677 32.6058 28.1897 32.5157 28.2711 32.4706L27.9456 32.1102C27.9863 32.1102 27.9863 32.0651 28.027 32.0651C28.149 31.93 28.149 31.7497 28.027 31.6146C27.905 31.4794 27.7423 31.4794 27.6202 31.6146C27.5389 31.7047 27.4982 31.8849 27.5795 31.975C27.4575 31.93 27.3355 31.93 27.2541 32.0201C27.1321 32.1552 27.1321 32.3355 27.2541 32.4706C27.3762 32.6058 27.5389 32.6058 27.6609 32.4706Z" fill="#164956"/>
<path d="M31.1593 33.7772C31.1593 33.0563 30.4271 32.5156 29.4915 32.5156C28.5559 32.5156 27.8237 33.1014 27.8237 33.7772C27.8237 34.3179 28.2712 34.8135 28.922 34.9937V35.9399C28.922 36.03 29.0034 36.1201 29.0847 36.1201C29.1661 36.1201 29.2475 36.03 29.2475 35.9399C29.2475 36.03 29.3288 36.1201 29.4102 36.1201C29.4915 36.1201 29.5729 36.03 29.5729 35.9399C29.5729 36.03 29.6542 36.1201 29.7356 36.1201C29.8169 36.1201 29.8983 36.03 29.8983 35.9399C29.8983 36.03 29.9797 36.1201 30.061 36.1201C30.1424 36.1201 30.2237 36.03 30.2237 35.9399V34.9937C30.7119 34.8135 31.1593 34.3629 31.1593 33.7772ZM28.8 34.408C28.5559 34.408 28.3119 34.2278 28.3119 34.0475C28.3119 33.8673 28.5153 33.6871 28.8 33.6871C29.0441 33.6871 29.2475 33.8673 29.2475 34.0475C29.2475 34.2728 29.0441 34.408 28.8 34.408ZM29.6949 34.6333C29.6542 34.6783 29.5729 34.6333 29.4915 34.5432C29.4915 34.5432 29.4915 34.4981 29.4508 34.4981C29.4508 34.4981 29.4508 34.5432 29.4102 34.5432C29.3288 34.6333 29.2475 34.6333 29.2068 34.6333C29.1661 34.5882 29.2068 34.4981 29.2881 34.408C29.3288 34.3629 29.4102 34.3179 29.4508 34.3179C29.4915 34.3179 29.5322 34.3179 29.6136 34.408C29.6949 34.4981 29.7356 34.5882 29.6949 34.6333ZM30.2237 34.408C29.9797 34.408 29.7356 34.2278 29.7356 34.0475C29.7356 33.8673 29.939 33.6871 30.2237 33.6871C30.4678 33.6871 30.6712 33.8673 30.6712 34.0475C30.6712 34.2728 30.4678 34.408 30.2237 34.408Z" fill="#164956"/>
<path d="M12.6915 40.0853C12.8542 41.0765 12.9762 42.0227 13.139 43.014C12.4881 43.1491 11.7966 43.2843 11.1457 43.4195C10.983 42.4282 10.8203 41.482 10.6576 40.4908C10.0068 40.626 9.35592 40.7611 8.70508 40.9414C9.15253 43.4645 9.64067 46.0327 10.0881 48.5559C10.6983 48.4207 11.3085 48.2856 11.9186 48.1504C11.7559 47.1591 11.5932 46.1679 11.4305 45.1767C12.0813 45.0415 12.7322 44.9063 13.383 44.7712C13.5457 45.7624 13.6678 46.7536 13.8305 47.7449C14.4406 47.6097 15.0508 47.5196 15.661 47.4295C15.3356 44.8613 15.0101 42.2931 14.644 39.7249C13.9932 39.86 13.3423 39.9501 12.6915 40.0853Z" fill="#E6E6E6"/>
<path d="M17.6133 39.2742C17.4099 41.9325 17.2472 44.5457 17.0845 47.2041C17.6946 47.114 18.3048 47.0238 18.9557 46.9337C18.9557 46.6183 18.9963 46.2579 18.9963 45.9425C19.6879 45.8524 20.3387 45.7623 21.0302 45.7172C21.1116 46.0326 21.1523 46.348 21.2336 46.7085C21.8438 46.6634 22.4539 46.5733 23.1048 46.5282C22.4946 43.96 21.8845 41.4369 21.1929 38.8687C20.0133 39.0038 18.7929 39.139 17.6133 39.2742ZM19.1184 44.1402C19.159 43.0138 19.2404 41.8874 19.3218 40.8061C19.4845 40.8061 19.6472 40.761 19.8099 40.761C20.054 41.8424 20.3387 42.9237 20.5828 44.0051C20.0946 44.0501 19.6065 44.0952 19.1184 44.1402Z" fill="#E6E6E6"/>
<path d="M27.2539 44.6359C26.8878 44.6359 26.6437 44.5908 26.481 44.5007C26.3183 44.4106 26.1963 44.2304 26.1149 44.0051C26.0336 43.7347 25.9929 43.3292 25.9522 42.7886C25.9522 42.6534 25.9115 42.4732 25.9115 42.2028C25.9115 41.7072 25.9115 41.3017 25.9929 41.0314C26.0743 40.761 26.1963 40.5358 26.3997 40.4006C26.6031 40.2654 26.8878 40.1753 27.2946 40.1753C27.7014 40.1753 28.2709 40.2204 28.9624 40.3105C28.9624 39.7698 29.0031 39.2291 29.0031 38.6884C28.1488 38.4632 27.3353 38.373 26.6031 38.373C25.9115 38.4181 25.3421 38.5533 24.9353 38.7786C24.5285 39.0038 24.2844 39.4544 24.1217 40.0401C23.959 40.6259 23.9183 41.4819 23.959 42.6083C23.9997 43.5545 24.1217 44.3205 24.3251 44.8612C24.4878 45.4018 24.8132 45.8073 25.22 46.0777C25.6268 46.348 26.237 46.4381 26.9692 46.4381C27.5793 46.4381 28.2709 46.303 29.0031 46.1227C29.0031 45.5821 28.9624 44.9963 28.9624 44.4556C28.3115 44.5908 27.742 44.6359 27.2539 44.6359Z" fill="#E6E6E6"/>
<path d="M34.3726 38.5984C34.0472 39.6347 33.7624 40.671 33.4777 41.7073C33.1929 41.7524 32.9489 41.7524 32.6641 41.7974C32.7048 40.7161 32.7048 39.6347 32.7455 38.5534C32.0946 38.5534 31.4438 38.5083 30.7523 38.5083C30.7116 41.1216 30.7116 43.6898 30.6709 46.303C31.2811 46.303 31.8912 46.303 32.5014 46.3481C32.5421 45.447 32.5421 44.5008 32.5828 43.5997C32.8268 43.5997 33.1116 43.5546 33.3556 43.5546C33.559 44.5008 33.8031 45.492 34.0065 46.4382C34.698 46.4833 35.4302 46.5283 36.1217 46.5734C35.7963 45.2217 35.4302 43.9151 35.1048 42.6084C35.5929 41.3468 36.081 40.0853 36.6099 38.8237C35.8777 38.6885 35.1048 38.6435 34.3726 38.5984Z" fill="#E6E6E6"/>
<path d="M37.627 46.6635C39.1727 46.7987 40.7185 46.9789 42.3049 47.2042C42.3863 46.6185 42.4269 46.0327 42.5083 45.402C41.5727 45.2668 40.5964 45.1316 39.6202 45.0415C39.6608 44.636 39.7015 44.2305 39.7422 43.825C40.5151 43.9151 41.2473 44.0052 42.0202 44.0953C42.1015 43.5096 42.1422 42.9239 42.2235 42.3381C41.4507 42.248 40.6778 42.1128 39.9049 42.0227C39.9456 41.6172 39.9863 41.2117 40.0269 40.8062C41.0032 40.9414 42.0202 41.0315 42.9964 41.2117C43.0778 40.626 43.1185 40.0403 43.1998 39.4095C41.532 39.1842 39.8642 38.9589 38.1964 38.8237C37.9931 41.4821 37.7897 44.0503 37.627 46.6635Z" fill="#E6E6E6"/>
<path d="M49.8711 41.4371C49.505 40.8964 48.8541 40.4909 47.9186 40.3107C46.9423 40.1305 45.966 39.9502 44.9491 39.77C44.6237 42.3382 44.2576 44.9064 43.9321 47.4746C44.5423 47.5648 45.1525 47.6999 45.7626 47.79C45.8847 47.0241 46.0067 46.2581 46.1287 45.4922C46.4542 45.5372 46.7796 45.6273 47.0643 45.6724C47.105 46.4834 47.1457 47.2944 47.1864 48.1054C47.8372 48.2406 48.5287 48.3758 49.1796 48.556C49.0982 47.5648 49.0169 46.5735 48.9355 45.5823C49.627 45.1317 50.0338 44.4559 50.1965 43.5998C50.3592 42.6987 50.2779 41.9778 49.8711 41.4371ZM48.244 43.1492C48.2033 43.4196 48.0813 43.6449 47.9592 43.78C47.7965 43.9603 47.6338 44.0053 47.3897 43.9603C47.0643 43.9152 46.7389 43.8251 46.3728 43.78C46.4542 43.1492 46.5762 42.5185 46.6575 41.8877C46.983 41.9327 47.3084 42.0228 47.6338 42.0679C47.8372 42.1129 48.0406 42.2481 48.1219 42.4734C48.2847 42.6536 48.2847 42.8789 48.244 43.1492Z" fill="#E6E6E6"/>
<path d="M50.4404 40.9863C50.4404 40.9863 48.9353 40.5357 47.6743 40.2654L48.976 41.7522L48.9353 41.7973L48.976 43.0138C50.3997 42.2929 55.037 42.338 55.037 42.338C53.898 41.8874 50.4404 40.9863 50.4404 40.9863Z" fill="#E6E6E6"/>
<path d="M8.98985 41.0313L8.7051 40.9412L8.54239 40.9862C8.54239 40.9862 5.08478 41.9324 3.9458 42.3379C3.9458 42.3379 8.58307 42.2929 10.0068 43.0138L10.0475 41.7972L8.94917 41.2566V41.0313H8.98985Z" fill="#E6E6E6"/>
<path d="M5.16602 44.8161L8.25753 43.6897L8.5016 45.0864L5.16602 44.8161Z" fill="#E6E6E6"/>
<path d="M6.30469 46.8888L8.70468 46.0327L8.90807 47.2492L6.30469 46.8888Z" fill="#E6E6E6"/>
<path d="M53.8165 44.8161L50.725 43.6897L50.481 45.0864L53.8165 44.8161Z" fill="#E6E6E6"/>
<path d="M52.6776 46.8888L50.2776 46.0327L50.0742 47.2492L52.6776 46.8888Z" fill="#E6E6E6"/>
<path d="M18.4674 15.7997C18.4674 15.7997 17.369 18.2778 18.0606 19.7196C18.0606 19.7196 18.264 17.4217 19.5657 15.3491L18.4674 15.7997Z" fill="#00E7FF"/>
<path d="M40.5148 15.7997C40.5148 15.7997 41.6131 18.2778 40.9216 19.7196C40.9216 19.7196 40.7182 17.4217 39.4165 15.3491L40.5148 15.7997Z" fill="#00E7FF"/>
<path d="M7.15922 39.4995C7.15922 39.4995 9.3965 39.0039 11.7965 38.7336C11.7965 38.7336 10.1694 38.1929 6.22363 38.8687L7.15922 39.4995Z" fill="#00E7FF"/>
<path d="M51.8238 39.4995C51.8238 39.4995 49.5865 39.0039 47.1865 38.7336C47.1865 38.7336 48.8136 38.1929 52.7594 38.8687L51.8238 39.4995Z" fill="#00E7FF"/>
</svg>
