<svg width="219" height="61" viewBox="0 0 219 61" fill="none" xmlns="http://www.w3.org/2000/svg">
<path d="M2.14703 39.4497C5.56012 40.882 8.7959 42.3087 12.1203 43.6138C13.1675 44.0285 13.3282 44.9133 13.7161 45.7152C15.4171 49.2488 18.8579 51.3059 22.3707 50.8801C24.2639 50.6414 26.0257 49.7876 27.3845 48.4504C28.7433 47.1132 29.6236 45.367 29.8895 43.4811C29.9297 42.944 30.0975 42.4242 30.3788 41.9646C30.6601 41.5049 31.0469 41.1187 31.5073 40.8377C33.4189 39.5548 35.275 38.1778 37.109 36.7843C38.7025 35.5483 40.5739 34.7188 42.5611 34.3677C48.2791 33.317 51.9803 28.2018 51.587 22.2571C51.2268 16.788 46.556 12.2534 40.8379 11.8276C35.5521 11.435 30.4158 15.4055 29.3298 20.9797C28.3658 25.929 25.0136 29.5235 22.0272 33.1069C20.9633 34.3843 17.8051 35.6009 15.2121 34.5447C10.9457 32.8083 6.71259 30.9834 2.4296 29.2967C0.994554 28.7437 0.861579 27.8977 1.0555 26.5318C4.17493 5.02576 28.6871 -6.31618 47.2098 6.19258C61.3774 15.7594 64.4858 35.0755 54.252 49.094C44.4893 62.4709 25.3405 64.9594 11.9707 54.5852C7.2445 50.9354 3.23855 44.8525 2.14703 39.4497Z" fill="white"/>
<path d="M212.506 38.8469C210.36 43.5953 208.218 48.3474 206.079 53.1032C205.525 54.2976 205.109 55.3151 203.381 55.3151C201.652 55.3151 201.225 54.2644 200.693 53.0755C198.573 48.3197 196.444 43.564 194.305 38.8082L193.562 38.8967V46.6995C193.562 49.188 193.485 51.6764 193.562 54.1594C193.668 56.7529 191.801 55.9345 190.504 56.0119C189.207 56.0893 187.772 56.3824 187.806 54.093C187.911 45.5271 187.806 36.9502 187.883 28.3898C187.883 27.4055 187.063 25.5916 189.074 25.6635C190.892 25.7354 193.18 24.4746 194.371 27.2008C197.092 33.4331 199.912 39.6211 202.682 45.8257C202.899 46.3013 203.142 46.7714 203.575 47.6617L212.251 27.9032C213.094 25.9677 216.684 24.6958 218.407 25.6912C219.105 26.1059 218.961 26.7972 218.961 27.4165C218.961 36.3529 218.933 45.2893 218.961 54.2257C218.961 56.8525 217.111 55.8847 215.853 56.0119C214.423 56.1667 213.143 56.2165 213.215 54.0156C213.365 49.7852 213.26 45.5437 213.26 41.2967C213.26 40.517 213.26 39.7317 213.26 38.9465L212.506 38.8469Z" fill="white"/>
<path d="M127.739 40.8378C127.739 36.4138 127.794 31.9898 127.7 27.5659C127.667 26.1336 128.06 25.5696 129.534 25.5806C134.886 25.6304 140.244 25.6691 145.602 25.5806C148.234 25.5364 147.32 27.3723 147.442 28.6387C147.564 29.905 147.63 31.1825 145.558 31.0774C142.333 30.917 139.092 31.1272 135.867 30.9944C134.127 30.9226 133.651 31.5474 133.684 33.2064C133.817 39.0295 133.13 38.023 138.471 38.117C139.948 38.2115 141.429 38.2004 142.904 38.0838C145.358 37.7742 145.802 38.8968 145.746 41.07C145.696 42.906 145.131 43.4866 143.336 43.3871C140.942 43.2488 138.532 43.4368 136.133 43.3262C134.393 43.2433 133.629 43.7355 133.679 45.6267C133.834 51.9087 133.047 50.6977 138.743 50.8138C140.682 50.8525 142.621 50.8138 144.561 50.8138C147.226 50.8138 148.389 52.705 147.414 55.2875C147.093 56.1336 146.472 56.0562 145.857 56.0562C140.316 56.0562 134.776 56.0562 129.235 56.0562C128.005 56.0562 127.7 55.5364 127.717 54.364C127.778 49.8626 127.744 45.3502 127.739 40.8378Z" fill="white"/>
<path d="M80.4317 56.5207C77.4698 56.6064 74.5321 55.9645 71.8769 54.6516C69.0234 53.3023 71.6829 51.7318 71.7827 50.2995C71.899 48.6793 72.8908 48.9668 74.0987 49.4535C76.8691 50.5595 79.6893 51.3447 82.7201 50.5595C84.2715 50.1724 85.5181 49.3816 85.7453 47.7281C85.9891 45.9475 84.6372 45.0516 83.2741 44.4599C81.1631 43.5475 78.9358 42.9005 76.8247 41.9936C72.2813 40.0304 70.5138 37.1604 70.9848 32.7641C71.4004 28.8489 74.143 26.3272 78.7861 25.3926C82.781 24.5908 86.449 25.4756 90.0394 27.1733C91.552 27.8922 91.3304 28.8599 90.4106 29.7171C89.4908 30.5742 90.0671 33.3613 87.4629 31.9677C85.4456 30.8189 83.13 30.2989 80.8141 30.4747C78.9967 30.6295 77.5506 31.4092 77.2237 33.3226C76.9245 35.0922 78.1545 36.0267 79.5896 36.6406C81.623 37.4977 83.7174 38.2166 85.7564 39.0571C91.0644 41.2691 92.771 43.9843 92.0119 49.0111C91.3858 53.1364 87.5793 56.2 82.648 56.5207C81.9111 56.5595 81.1687 56.5207 80.4317 56.5207Z" fill="white"/>
<path d="M105.869 43.376C105.869 40.152 105.703 36.9115 105.925 33.7041C106.08 31.3815 105.182 30.7732 103.094 31.011C102.091 31.1272 101.049 30.906 100.052 31.0553C97.4863 31.4479 96.7272 30.4193 96.8602 27.8977C96.9544 26.0728 97.4642 25.5474 99.2593 25.5696C105.72 25.658 112.186 25.7078 118.652 25.5696C120.979 25.5143 120.868 26.7308 120.868 28.3069C120.829 29.7944 121.156 31.3594 118.741 31.0719C117.378 30.9115 115.97 31.1935 114.596 31.011C112.286 30.7069 111.865 31.741 111.898 33.8092C111.964 40.4285 111.743 47.0645 111.964 53.7004C112.053 56.4654 110.457 56.012 108.823 56.0728C107.05 56.1336 105.592 56.2387 105.786 53.6009C106.036 50.2055 105.869 46.7825 105.869 43.376Z" fill="white"/>
<path d="M139.258 9.70408C139.258 11.5068 139.258 13.3041 139.258 15.1068C139.258 15.7262 139.336 16.5004 138.399 16.5336C137.463 16.5668 137.54 15.7649 137.54 15.1511C137.518 12.6663 137.518 10.1852 137.54 7.70776C137.54 7.11052 137.324 6.33634 138.205 6.10961C138.566 6.02037 138.946 6.04594 139.292 6.18277C139.638 6.31959 139.932 6.56083 140.134 6.87274C141.491 8.61468 142.821 10.3677 144.206 12.0875C144.522 12.4746 144.655 13.1437 145.719 13.0608C145.719 11.5013 145.658 9.89763 145.719 8.305C145.763 7.51422 145.165 6.09302 146.611 6.1815C148.057 6.26998 147.353 7.62481 147.386 8.42112C147.481 10.4396 147.464 12.4635 147.386 14.5041C147.386 15.234 147.879 16.2903 146.71 16.6055C145.685 16.882 145.009 16.2294 144.422 15.4442C142.948 13.47 141.43 11.529 139.934 9.57688L139.258 9.70408Z" fill="white"/>
<path d="M86.4213 16.6497C82.0275 16.622 82.7478 16.9759 82.6868 13.0497C82.6223 12.1291 82.6223 11.2052 82.6868 10.2847C82.8531 8.89667 81.8723 6.76212 83.324 6.28101C85.2245 5.6506 87.4851 6.0764 89.5961 6.08746C89.6882 6.09105 89.7785 6.11405 89.8611 6.15493C89.9437 6.19581 90.0167 6.25367 90.0753 6.32469C90.1339 6.39571 90.1768 6.47828 90.2012 6.56701C90.2255 6.65574 90.2308 6.74862 90.2167 6.83954C90.2167 7.39254 89.8067 7.63031 89.3025 7.64137C88.1057 7.67455 86.9107 7.68561 85.7176 7.67455C84.7757 7.67455 84.3934 8.1446 84.4266 9.04045C84.4599 9.9363 84.7203 10.4727 85.6899 10.4727C86.6595 10.4727 87.5294 10.4727 88.4603 10.5059C89.0143 10.5059 89.646 10.5059 89.6682 11.2801C89.6903 12.0543 89.0753 12.0985 88.5101 12.1151C87.5904 12.1372 86.6669 12.1372 85.7398 12.1151C84.8256 12.1151 84.4266 12.5188 84.41 13.4423C84.3934 14.3658 84.6981 15.0183 85.8063 14.9852C86.9144 14.952 88.0226 14.9852 89.1307 14.9852C89.6848 14.9852 90.2998 15.0294 90.3275 15.7759C90.3552 16.5225 89.7346 16.6497 89.1806 16.6497C88.2663 16.6497 87.341 16.6497 86.4213 16.6497Z" fill="white"/>
<path d="M76.4484 16.7327C73.4342 16.7603 71.6723 15.5659 70.7858 13.2986C70.3355 12.2757 70.22 11.1371 70.4557 10.045C70.6915 8.95279 71.2665 7.96269 72.0989 7.21564C72.8793 6.41419 73.8914 5.87659 74.9934 5.67825C76.0953 5.4799 77.2319 5.63076 78.2436 6.10965C78.7976 6.34744 79.9058 6.33637 79.4625 7.47001C79.0193 8.60365 78.3544 7.98983 77.6673 7.69674C76.9047 7.33981 76.0424 7.25491 75.2245 7.45621C74.4066 7.65751 73.6828 8.13282 73.1738 8.80273C72.6514 9.33844 72.3155 10.0276 72.2157 10.7685C72.116 11.5094 72.2576 12.2627 72.6197 12.917C72.9555 13.6382 73.5135 14.2333 74.2123 14.6154C74.9112 14.9975 75.7141 15.1464 76.5038 15.0405C77.9942 14.9686 78.7201 14.3272 78.6314 12.8285C78.6314 12.2755 78.6758 11.6617 79.4348 11.6341C80.41 11.5954 80.2826 12.3585 80.349 12.9889C80.6095 15.6599 79.3129 16.7714 76.4484 16.7327Z" fill="white"/>
<path d="M19.9879 36.4137C23.6892 35.6893 26.2046 37.0442 27.3848 40.1465C27.9098 41.529 27.9262 43.0525 27.4311 44.446C26.9359 45.8394 25.9614 47.0122 24.6809 47.7557C21.6058 49.5087 18.7911 48.8064 16.0596 45.2838C19.722 46.7658 23.4841 48.74 25.4788 44.0395C27.4735 39.3391 23.1794 38.1557 19.9879 36.4137Z" fill="white"/>
<path d="M94.9433 12.176C94.9433 11.5345 94.9433 10.893 94.9433 10.2571C95.0042 8.81378 95.0929 7.3981 92.9265 7.62483C92.3724 7.68566 91.7685 7.4147 91.8183 6.73452C91.8682 6.05433 92.522 6.01009 93.065 6.00456C94.9932 6.00456 96.9435 6.00456 98.8384 6.00456C99.3648 6.00456 100.046 5.93267 100.124 6.67922C100.201 7.42576 99.5698 7.65802 99.049 7.60273C96.7108 7.35388 96.8992 8.89119 96.9324 10.4064C96.9657 11.9216 96.9324 13.5142 96.9324 15.0737C96.9324 15.7981 96.9989 16.6331 95.8741 16.5778C94.971 16.5281 94.9655 15.8368 94.9599 15.1843C94.9378 14.1889 94.9433 13.1824 94.9433 12.176Z" fill="white"/>
<path d="M114.585 5.99904C115.138 5.95975 115.694 5.95975 116.247 5.99904C116.989 6.10411 118.203 5.55112 118.319 6.6737C118.447 7.88476 117.211 7.60826 116.458 7.64144C115.222 7.69674 115.266 8.52623 115.266 9.36678C115.266 11.2967 115.266 13.2378 115.266 15.1456C115.266 15.7594 115.388 16.506 114.419 16.5723C113.36 16.6442 113.244 15.953 113.249 15.1456C113.249 13.8626 113.294 12.5797 113.249 11.2746C113.172 9.61564 114.053 7.33176 110.922 7.4866C110.734 7.4866 110.402 7.00549 110.368 6.70688C110.302 6.30872 110.662 6.04328 111.055 6.03222C112.247 6.00457 113.438 6.03222 114.635 6.03222L114.585 5.99904Z" fill="white"/>
<path d="M108.086 11.6064C108.086 12.9004 108.086 14.1889 108.086 15.4774C108.086 16.0303 107.997 16.6165 107.21 16.5833C106.623 16.5557 106.445 16.141 106.44 15.6543C106.44 12.8009 106.44 9.94555 106.44 7.08841C106.44 6.61283 106.584 6.17044 107.171 6.1262C107.936 6.0709 108.086 6.59625 108.091 7.18796C108.086 8.65893 108.086 10.1354 108.086 11.6064Z" fill="white"/>
<path d="M180.669 53.9769C177.345 45.129 173.971 36.281 170.813 27.3999C169.865 24.7234 167.893 25.8681 166.264 25.6138C164.635 25.3594 163.804 25.9345 163.244 27.599C161.31 33.3336 159.177 39.0018 157.149 44.6976C155.825 48.3806 154.506 52.0691 153.077 56.0506C154.977 56.0506 156.529 56.0174 158.063 56.0506C159.061 56.0783 159.654 55.6746 159.726 54.6958C160.169 50.493 162.79 49.6691 166.458 50.1999C167.931 50.3615 169.417 50.3615 170.89 50.1999C172.458 50.0893 173.106 50.7529 173.605 52.2239C174.918 56.2718 175.007 56.1446 179.345 56.0949C181.251 56.0672 181.224 55.4092 180.669 53.9769ZM169.81 45.3336C163.044 46.1465 162.706 45.7926 164.784 39.505C165.444 37.5198 166.125 35.54 167.056 32.7806C168.48 36.9999 169.588 40.3843 170.746 43.7465C171.073 44.7032 171.106 45.1787 169.81 45.3336Z" fill="white"/>
<path d="M40.417 15.7041C38.4151 15.7384 36.5051 16.5488 35.0914 17.9639C33.6777 19.379 32.8713 21.2876 32.8428 23.2857C32.8682 25.2405 33.653 27.1091 35.0318 28.4976C36.4107 29.8861 38.2758 30.6862 40.2341 30.729C41.228 30.7504 42.2158 30.5699 43.1376 30.1986C44.0594 29.8273 44.896 29.2729 45.5966 28.569C46.2972 27.8651 46.8471 27.0265 47.213 26.104C47.5789 25.1815 47.7532 24.1945 47.7252 23.2027C47.6919 19.1935 44.3065 15.7041 40.417 15.7041ZM40.3117 28.893C39.5707 28.9127 38.8335 28.78 38.1461 28.5031C37.4587 28.2262 36.8358 27.811 36.3161 27.2835C35.7963 26.756 35.391 26.1273 35.1251 25.4367C34.8593 24.746 34.7388 24.0082 34.7709 23.2691C34.7709 20.0064 37.0593 17.6672 40.2729 17.6396C41.0143 17.6107 41.754 17.7307 42.4481 17.9925C43.1421 18.2543 43.7764 18.6526 44.3133 19.1637C44.8503 19.6748 45.2789 20.2884 45.5737 20.9679C45.8685 21.6475 46.0236 22.3793 46.0297 23.1198C46.0637 23.8813 45.9396 24.6417 45.6652 25.3531C45.3907 26.0645 44.9719 26.7115 44.4349 27.2537C43.898 27.7958 43.2545 28.2213 42.545 28.5034C41.8354 28.7855 41.0751 28.9182 40.3117 28.893Z" fill="white"/>
<path d="M129.595 5.65067C128.84 5.62772 128.089 5.76329 127.39 6.04861C126.691 6.33392 126.06 6.76262 125.537 7.3069C125.015 7.85119 124.613 8.49893 124.358 9.20816C124.102 9.91739 123.999 10.6723 124.054 11.4239C124.143 14.659 126.442 16.7935 129.772 16.7161C133.102 16.6387 135.313 14.3438 135.241 11.1364C135.247 10.4015 135.105 9.67294 134.821 8.99463C134.538 8.31632 134.12 7.70232 133.592 7.18968C133.064 6.67705 132.438 6.27639 131.751 6.01188C131.064 5.74738 130.331 5.6245 129.595 5.65067ZM129.528 15.0516C129.023 15.0462 128.524 14.9392 128.061 14.7368C127.598 14.5344 127.181 14.2409 126.834 13.8738C126.488 13.5067 126.219 13.0736 126.044 12.6004C125.869 12.1272 125.791 11.6236 125.816 11.1198C125.846 10.1061 126.265 9.14274 126.987 8.42928C127.709 7.71582 128.679 7.307 129.695 7.28755C130.711 7.35907 131.664 7.80715 132.366 8.54382C133.068 9.28049 133.469 10.2525 133.49 11.2691C133.434 12.2826 132.993 13.2366 132.257 13.9371C131.521 14.6377 130.545 15.0323 129.528 15.0405V15.0516Z" fill="white"/>
</svg>
