<svg width="191" height="61" viewBox="0 0 191 61" fill="none" xmlns="http://www.w3.org/2000/svg">
<path d="M134.854 38.1526C136.996 37.248 138.947 36.6365 141.089 36.8184C144.506 37.1318 146.798 38.8853 147.365 42.2863C148.213 47.3701 147.596 52.5247 147.731 57.6489C147.758 57.7939 147.75 57.9433 147.707 58.0845C147.665 58.2256 147.589 58.3544 147.487 58.4599C147.385 58.5655 147.259 58.6447 147.12 58.6909C146.98 58.7371 146.832 58.7489 146.688 58.7253C145.017 58.7253 143.347 58.6899 141.671 58.7253C140.352 58.7556 140.497 57.846 140.497 57.0071C140.497 53.1361 140.568 49.2652 140.417 45.3841C140.307 42.6451 138.089 41.6698 135.817 43.0999C134.849 43.7114 134.813 44.5351 134.844 45.4801C134.844 49.2652 134.803 53.0603 134.874 56.8353C134.899 58.1997 134.578 58.7202 133.088 58.7506C127.655 58.8617 127.66 58.9224 127.66 53.4596C127.66 46.228 127.71 38.9914 127.62 31.7599C127.62 30.0266 128.046 29.4707 129.827 29.4909C134.844 29.5414 134.844 29.4555 134.844 34.4332L134.854 38.1526Z" fill="black"/>
<path d="M93.7671 48.6031C93.7671 47.4257 93.7671 46.2482 93.7671 45.0657C93.7671 43.7417 94.0932 42.3621 91.8758 42.5389C90.3708 42.6653 90.8725 41.1947 90.9527 40.4569C91.1032 39.3654 90.0447 37.3945 91.8156 37.3288C94.1584 37.2479 93.9126 35.9391 93.737 34.5696C93.4711 32.4623 94.2386 31.6335 96.3205 31.9822C96.7378 32.0176 97.1574 32.0176 97.5747 31.9822C100.83 31.9822 100.921 31.9822 100.886 35.2417C100.886 36.7931 101.322 37.4703 102.857 37.1822C105.28 36.7224 105.672 37.9049 105.702 40.088C105.732 42.2711 104.954 42.9331 102.983 42.6147C101.322 42.3317 100.79 43.0392 100.891 44.6867C101.021 46.7788 100.891 48.8861 100.936 50.9884C100.991 53.3989 101.668 54.0204 103.82 53.1816C105.054 52.7065 105.601 52.9693 105.672 54.0861C105.757 55.3647 107.894 56.7746 105.601 57.9318C103.128 59.2279 100.257 59.5226 97.5747 58.7556C95.0664 58.0481 94.0229 56.0873 93.8423 53.6414C93.7219 51.9687 93.8423 50.2809 93.8423 48.588L93.7671 48.6031Z" fill="black"/>
<path d="M123.074 51.3977C123.32 51.8728 123.531 52.2316 123.701 52.6106C125.683 56.997 125.357 57.664 120.656 58.7708C115.675 59.9482 110.779 58.3715 108.536 54.8695C106.028 50.9682 106.289 44.2167 109.078 40.5075C112.78 35.55 121.309 35.55 124.82 40.4923C125.643 41.6647 126.089 42.635 124.364 43.4031C123.609 43.7684 122.9 44.223 122.252 44.7575C121.419 45.3942 120.852 45.3942 120.28 44.3835C119.457 42.9331 118.183 42.16 116.493 42.6855C114.802 43.2111 114.26 44.5856 114.13 46.223C114.017 47.0602 113.97 47.9051 113.989 48.7497C114.295 52.7925 117.536 54.5713 121.153 52.651C121.81 52.272 122.382 51.8323 123.074 51.3977Z" fill="black"/>
<path d="M89.6034 47.9664C89.6034 50.9126 89.5181 53.8587 89.6385 56.7999C89.7037 58.3968 89.1368 58.7556 87.6319 58.7657C82.3845 58.8112 82.3845 58.8718 82.3845 53.5353C82.3845 48.8255 82.4346 44.1106 82.3594 39.3856C82.3594 37.8695 82.55 37.1418 84.366 37.1368C89.6134 37.1368 89.6134 37.0408 89.6084 42.3975L89.6034 47.9664Z" fill="black"/>
<path d="M166.458 48.1483C166.458 51.0086 166.388 53.8689 166.488 56.7392C166.538 58.2199 166.192 58.7606 164.577 58.7909C159.309 58.8263 159.309 58.9021 159.309 53.6212C159.309 48.9114 159.375 44.2015 159.274 39.4715C159.239 37.8038 159.57 37.1317 161.427 37.1519C166.443 37.2126 166.443 37.1216 166.443 42.0892L166.458 48.1483Z" fill="black"/>
<path d="M89.7036 32.2501C89.6484 34.3574 88.1986 35.55 85.7605 35.4388C83.5582 35.3378 82.2138 33.9885 82.3041 31.9772C82.3944 29.9659 84.0148 28.6318 86.2823 28.743C88.4896 28.8491 89.7789 30.1731 89.7036 32.2501Z" fill="black"/>
<path d="M163.042 28.7329C165.229 28.7733 166.599 30.0569 166.629 32.0833C166.629 34.2209 165.229 35.4894 162.846 35.4489C160.569 35.4085 159.27 34.2058 159.27 32.144C159.27 30.0821 160.729 28.6924 163.042 28.7329Z" fill="black"/>
<path d="M179.502 36.8033C172.86 36.8386 168.801 41.0078 168.821 47.7693C168.821 54.637 172.925 59.0891 179.226 59.1194C185.527 59.1498 189.916 54.5713 189.861 47.9462C189.816 41.2503 185.657 36.7729 179.502 36.8033ZM179.256 53.5353C177.129 53.4949 175.945 51.5139 175.94 47.9058C175.935 44.2976 177.144 42.4076 179.386 42.4632C181.534 42.5086 182.677 44.3582 182.702 47.7996C182.743 51.5645 181.534 53.5758 179.266 53.5353H179.256Z" fill="black"/>
<path d="M180.896 15.5635C180.896 14.0475 180.956 12.5314 180.896 11.0154C180.836 9.49932 182.17 9.38814 182.612 9.91876C183.615 11.1468 184.383 10.4241 185.341 10.0855C188.13 9.07483 190.438 10.5302 190.628 13.5118C190.774 15.6898 190.628 17.883 190.724 20.0813C190.774 21.284 190.222 21.4205 189.219 21.4407C188.215 21.4609 187.979 20.9909 188.005 20.0864C188.05 18.4036 188.03 16.7207 188.005 15.0329C188.005 13.5977 188.13 11.8846 186.103 11.8492C184.167 11.8138 183.369 13.0216 183.52 15.0026C183.645 16.6702 183.48 18.3631 183.57 20.056C183.63 21.2082 183.174 21.4559 182.125 21.4458C181.077 21.4356 180.836 21.0667 180.871 20.1167C180.936 18.5905 180.896 17.0795 180.896 15.5635Z" fill="#F2003A"/>
<path d="M87.4111 9.9895C89.5332 9.27696 90.4612 10.1259 90.9629 12.0109C91.4646 13.8958 92.2622 15.8061 93.0398 18.0144C93.8324 15.8313 94.6401 13.9161 95.217 11.9503C95.7187 10.2119 96.5314 9.28201 98.6384 10.0148C97.314 13.4612 95.9595 16.9178 94.6752 20.4047C94.3441 21.3144 93.7672 21.4154 92.9445 21.4407C92.1218 21.466 91.7004 21.2689 91.4144 20.5109C90.095 16.9886 88.7456 13.4966 87.4111 9.9895Z" fill="#F2003A"/>
<path d="M116.212 12.9508C116.212 10.6818 116.257 8.40272 116.187 6.13876C116.156 5.06236 116.457 4.69851 117.581 4.68335C118.825 4.68335 118.875 5.28471 118.87 6.22971C118.84 10.7745 118.84 15.3226 118.87 19.8741C118.87 20.7787 118.901 21.4356 117.621 21.4609C116.247 21.4912 116.172 20.8393 116.197 19.7832C116.247 17.499 116.212 15.2249 116.212 12.9508Z" fill="#F2003A"/>
<path d="M147.952 13.3146C147.952 15.422 147.952 17.5242 147.952 19.6265C147.952 20.5058 148.238 21.4457 146.698 21.4558C145.308 21.4558 145.283 20.7989 145.293 19.7578C145.323 15.3007 145.323 10.8418 145.293 6.38127C145.293 5.37057 145.293 4.6732 146.693 4.67825C148.228 4.67825 147.947 5.6182 147.952 6.50256C147.957 8.76652 147.952 11.0406 147.952 13.3146Z" fill="#F2003A"/>
<path d="M156.992 55.9257C156.821 58.0279 155.206 59.2862 152.978 59.0588C150.897 58.8415 149.703 57.4164 149.838 55.2889C149.973 53.1614 151.524 51.8222 153.731 51.9789C155.833 52.1305 157.167 53.7426 156.992 55.9257Z" fill="#F2003A"/>
<path d="M110.733 15.4017C110.733 14.0525 110.733 12.7082 110.733 11.359C110.733 10.5049 110.603 9.74689 111.937 9.73678C113.272 9.72667 113.442 10.2421 113.442 11.359C113.377 14.2192 113.387 17.0845 113.442 19.9499C113.442 20.9606 113.257 21.4406 112.088 21.4659C110.919 21.4912 110.703 20.9606 110.749 19.9499C110.774 18.4338 110.733 16.9127 110.733 15.4017Z" fill="#F2003A"/>
<path d="M113.824 6.35602C113.658 7.52843 113.086 8.22581 112.058 8.22581C111.829 8.23834 111.6 8.20201 111.386 8.11919C111.173 8.03637 110.978 7.90895 110.817 7.74528C110.655 7.5816 110.53 7.38537 110.449 7.16946C110.368 6.95356 110.333 6.72285 110.347 6.49247C110.336 6.26245 110.372 6.03258 110.454 5.8175C110.536 5.60243 110.661 5.40687 110.822 5.24331C110.983 5.07975 111.176 4.95177 111.389 4.86754C111.602 4.7833 111.829 4.74466 112.058 4.75407C113.121 4.72375 113.593 5.52725 113.824 6.35602Z" fill="#F2003A"/>
<path d="M141.877 11.2933C139.965 9.03944 137.778 9.6408 135.355 11.0709C135.355 9.22642 135.325 7.65479 135.355 6.08821C135.38 5.20385 135.25 4.68334 134.161 4.71366C133.193 4.74398 132.656 4.83495 132.656 6.05284C132.721 10.7576 132.706 15.4675 132.656 20.1773C132.656 21.188 133.318 21.8854 133.9 21.3497C135.405 19.9903 136.569 21.3194 137.869 21.4003C138.665 21.4727 139.466 21.3223 140.183 20.9656C140.9 20.6089 141.505 20.0599 141.932 19.3789C143.452 17.2514 143.432 13.0923 141.877 11.2933ZM140.297 15.5786C140.141 17.3827 139.96 19.3031 137.588 19.3637C135.079 19.4294 135.3 17.499 135.38 15.993C135.38 15.1238 135.33 14.4467 135.38 13.7796C135.491 12.5668 136.429 12.112 137.412 11.8795C137.9 11.7315 138.425 11.7761 138.882 12.0041C139.339 12.2322 139.692 12.6267 139.87 13.1075C140.233 13.8697 140.386 14.7163 140.312 15.5584L140.297 15.5786Z" fill="#F2003A"/>
<path d="M173.211 9.77726C169.865 9.83285 167.728 12.112 167.743 15.614C167.743 19.197 170.065 21.4963 173.522 21.3902C176.798 21.2891 178.985 18.8634 178.905 15.422C178.824 11.9806 176.527 9.72673 173.211 9.77726ZM173.286 19.3384C170.928 19.3384 170.547 17.5243 170.502 15.6444C170.442 13.1479 171.565 11.6572 173.422 11.8138C175.784 12.016 176.015 13.7847 176.04 15.705C176.065 17.6253 175.659 19.3486 173.286 19.3435V19.3384Z" fill="#F2003A"/>
<path d="M155.487 15.8414C155.931 15.7775 156.382 15.7775 156.826 15.8414C157.734 15.2855 159.505 16.746 160.338 15.1895C160.915 14.098 160.338 12.7032 159.54 11.6521C159.13 11.1231 158.618 10.6831 158.035 10.3584C156.877 9.76378 155.547 9.60251 154.282 9.90328C153.017 10.204 151.899 10.9473 151.127 12.0008C149.537 14.3001 149.979 18.2822 152.03 20.0863C153.932 21.759 158.005 21.8146 159.716 20.2076C160.107 19.8387 160.378 19.5203 159.922 19.0049C159.465 18.4894 159.114 18.161 158.417 18.5501C157.658 19.0723 156.762 19.3555 155.843 19.3637C154.168 19.2727 153.034 18.2519 153.014 16.7308C153.014 14.9671 154.654 16.1901 155.487 15.8414ZM152.943 13.82C153.525 12.0917 154.604 11.6975 155.953 11.7986C156.907 11.8744 157.96 12.2787 157.85 13.3147C157.744 14.2698 156.631 13.7038 155.974 13.7745C155.055 13.8958 154.142 13.82 152.943 13.82Z" fill="#F2003A"/>
<path d="M86.6486 19.3789C86.7013 18.6251 86.7013 17.8686 86.6486 17.1149C86.6486 16.3569 86.6486 15.5988 86.6486 14.8459C86.6837 12.9912 86.3276 11.3084 84.5567 10.323C82.6002 9.26683 80.6738 9.74691 78.8377 10.7374C78.4013 10.9699 77.5936 11.1316 78.0902 11.9704C78.1487 12.1057 78.2336 12.2277 78.3398 12.3292C78.446 12.4308 78.5713 12.5098 78.7084 12.5617C78.8455 12.6135 78.9915 12.6371 79.1378 12.631C79.2841 12.625 79.4277 12.5894 79.5601 12.5263C80.4832 12.1473 81.3611 11.642 82.4246 11.8289C82.8427 11.8754 83.2286 12.0772 83.5069 12.3949C83.7852 12.7127 83.9359 13.1235 83.9296 13.5471C84.0049 14.7398 83.0216 14.1889 82.4949 14.3506C81.3862 14.6943 80.2022 14.856 79.1588 15.3209C77.5284 16.0638 76.7508 17.4181 77.3327 19.2272C77.9147 21.0364 79.3645 21.5973 81.1103 21.3396C81.8283 21.1517 82.5245 20.8875 83.1871 20.5513C83.5684 20.4098 83.9597 19.6517 84.336 20.4653C84.7122 21.279 85.3393 21.6226 86.1369 21.3345C87.1352 20.9808 86.5633 20.051 86.6486 19.3789ZM84.05 17.4434C83.8594 18.9594 82.7256 19.2424 81.5417 19.3738C80.5885 19.4749 79.6906 19.0403 79.8611 18.0346C80.137 16.4226 81.7323 16.6752 82.4848 16.3872C83.6838 16.2558 84.1855 16.5135 84.05 17.4484V17.4434Z" fill="#F2003A"/>
<path d="M108.22 19.3789C108.268 18.625 108.268 17.8688 108.22 17.1149C108.22 16.4428 108.22 15.7707 108.22 15.0935C108.17 10.3988 104.668 8.3471 100.61 10.6464C100.108 10.9294 99.1802 11.0659 99.6819 12.0058C100.048 12.6931 100.64 12.7942 101.383 12.4404C102.2 12.0463 103.048 11.6622 104.021 11.8492C104.443 11.8959 104.832 12.1006 105.11 12.4226C105.389 12.7446 105.538 13.1604 105.526 13.5876C105.586 14.7751 104.598 14.2597 104.066 14.3608C102.752 14.6185 101.418 14.8156 100.284 15.5685C99.7273 15.8772 99.282 16.3553 99.0117 16.9344C98.7414 17.5136 98.6599 18.164 98.7789 18.7927C98.8572 19.3811 99.1082 19.9326 99.4997 20.3765C99.8912 20.8203 100.405 21.1363 100.976 21.284C102.25 21.6529 103.434 21.284 104.593 20.7231C104.989 20.526 105.416 19.5456 105.923 20.5108C106.349 21.3346 106.971 21.6428 107.734 21.3447C108.712 20.9606 108.135 20.0308 108.22 19.3789ZM103.279 19.3789C102.356 19.5456 101.377 19.2121 101.428 18.2166C101.508 16.5135 103.113 16.7005 104.137 16.3619C104.924 16.3619 105.642 16.2053 105.642 17.2817C105.586 18.8381 104.458 19.1616 103.279 19.3789Z" fill="#F2003A"/>
<path d="M130.293 19.3788C130.344 18.625 130.344 17.8687 130.293 17.1149C130.293 16.3568 130.293 15.5988 130.293 14.8458C130.328 12.9912 129.977 11.3084 128.201 10.328C126.245 9.2668 124.318 9.74182 122.482 10.7374C122.051 10.9698 121.238 11.1265 121.735 11.9654C121.793 12.101 121.878 12.2236 121.983 12.3258C122.089 12.428 122.214 12.5079 122.351 12.5606C122.488 12.6134 122.634 12.638 122.781 12.6329C122.928 12.6279 123.072 12.5934 123.205 12.5313C124.123 12.1473 125.006 11.6419 126.064 11.8289C126.481 11.8764 126.866 12.0778 127.144 12.3942C127.421 12.7106 127.573 13.1196 127.569 13.542C127.65 14.7347 126.661 14.1889 126.135 14.3506C125.026 14.6942 123.842 14.856 122.798 15.3209C121.163 16.0587 120.395 17.4181 120.972 19.2272C121.549 21.0364 123.004 21.5922 124.745 21.3396C125.464 21.1521 126.162 20.8896 126.827 20.5563C127.203 20.4148 127.594 19.6517 127.976 20.4603C128.357 21.2688 128.979 21.6226 129.772 21.3345C130.79 20.9808 130.203 20.0509 130.293 19.3788ZM125.322 19.3788C124.384 19.5304 123.431 19.1514 123.506 18.171C123.631 16.4781 125.272 16.7308 126.099 16.372C127.103 16.3164 127.765 16.2709 127.715 17.322C127.619 18.8735 126.491 19.1817 125.322 19.3788Z" fill="#F2003A"/>
<path d="M53.3684 15.6292C52.1845 18.7775 50.3585 20.8949 46.9572 20.9252C43.5559 20.9555 41.6195 18.9493 40.3603 15.705C38.9456 18.7371 37.0995 20.9303 33.6731 20.9353C30.2468 20.9404 28.205 18.8786 26.8455 15.5938C25.5913 18.823 23.7151 20.9758 20.2536 20.9303C16.8774 20.8797 14.9511 18.8482 13.8474 15.7505C13.1902 16.8218 12.7488 17.8375 12.0514 18.6158C10.3057 20.5715 8.08329 21.5316 5.52982 20.6725C4.27369 20.3003 3.15592 19.56 2.31884 18.5458C1.48175 17.5315 0.963206 16.2893 0.829232 14.9773C0.508167 12.6729 0.794119 10.6111 2.62017 8.77665C4.97799 6.41162 6.58833 2.80343 9.34748 1.46931C12.0113 0.175617 15.7286 1.04987 18.9844 1.04482C31.1046 1.04482 43.2248 1.07009 55.345 0.999338C56.0421 0.95952 56.7386 1.08721 57.3771 1.37189C58.0156 1.65658 58.5777 2.09008 59.0172 2.63666C61.0539 4.97642 63.2261 7.1848 65.3181 9.49424C67.9117 12.3343 67.3247 17.1301 64.1091 19.6315C63.369 20.1838 62.5232 20.5755 61.6252 20.7819C60.7273 20.9883 59.7966 21.0049 58.8919 20.8306C57.9872 20.6563 57.1283 20.295 56.3693 19.7694C55.6103 19.2438 54.9677 18.5653 54.4821 17.7769C54.0858 17.1553 53.7949 16.468 53.3684 15.6292Z" fill="#F2003A"/>
<path d="M62.6393 45.657V22.8304C59.2029 23.5379 56.2983 22.9618 54.1913 20.147C53.6897 19.4445 53.4188 19.6416 52.8669 20.1116C47.9055 24.4172 44.4691 24.2302 40.3253 19.49C35.6147 24.3313 33.0914 24.4677 27.563 19.9954C26.5597 19.1666 26.4243 20.0863 26.1032 20.5007C25.4398 21.3207 24.6069 21.9851 23.6625 22.4476C22.7181 22.9102 21.685 23.1598 20.6351 23.1791C17.7053 23.3155 15.4479 21.8652 13.7272 19.4547C11.7205 21.9814 9.43793 23.5581 6.26741 23.0224C4.96811 22.8001 5.17379 23.644 5.17379 24.3767C5.17379 35.9138 5.17379 47.4509 5.13867 58.988C5.13867 60.5041 5.70054 60.7719 7.05002 60.7719C24.9393 60.7315 42.832 60.7315 60.728 60.7719C62.233 60.7719 62.7347 60.398 62.6995 58.8213C62.5691 54.4349 62.6393 50.0535 62.6393 45.657ZM56.4438 56.0975C54.0458 57.4417 50.8101 56.6331 48.0409 53.9649C47.444 53.3837 46.6714 52.8026 46.4206 52.0698C45.4172 49.2096 43.2952 49.1085 40.837 49.2601C38.5043 49.4066 36.1565 49.2955 33.8138 49.2955C30.7185 49.2955 27.6282 49.3409 24.533 49.2955C24.0482 49.2288 23.5552 49.3274 23.1325 49.5755C22.7098 49.8237 22.3816 50.2072 22.2003 50.665C21.1596 52.7991 19.4969 54.5622 17.4344 55.7184C15.3425 56.8504 13.1402 57.3608 11.0182 55.9256C8.89613 54.4904 8.21889 52.0193 8.6453 49.6543C9.62545 44.2011 11.0861 38.8469 13.0098 33.6549C13.5542 32.0956 14.437 30.6783 15.5938 29.506C16.7506 28.3337 18.1523 27.436 19.6969 26.8782C22.5414 25.8372 24.9193 26.479 26.334 29.0916C26.9861 30.2944 27.7035 30.5268 28.8874 30.5016C31.476 30.4359 34.0696 30.4157 36.6582 30.5016C38.9257 30.5774 40.8772 30.6633 42.2467 28.086C43.25 26.1505 45.5728 26.0292 47.6396 26.7165C51.6178 28.0405 54.0308 31.0069 55.2498 34.8476C56.6244 39.1683 57.7582 43.58 58.7615 47.9866C59.7096 51.8374 58.7364 54.8139 56.4438 56.0975Z" fill="#F2003A"/>
<path d="M24.2969 42.1195C27.3871 38.7337 30.0811 35.7774 32.785 32.8312C33.1613 32.4219 33.5375 31.8205 34.1897 32.5331C36.994 35.5652 39.8083 38.6225 42.9387 42.0134C42.0959 42.074 41.7949 42.1094 41.4939 42.1145C38.1378 42.2105 38.0575 42.2105 38.0776 45.5205C38.0776 46.9608 37.6712 47.4661 36.2565 47.3094C35.2539 47.2564 34.2492 47.2564 33.2466 47.3094C29.3286 47.3094 29.2684 47.3094 28.9674 43.5042C28.8771 42.3368 28.3955 42.0791 27.4072 42.1347C26.5744 42.1599 25.7417 42.1195 24.2969 42.1195Z" fill="#F2003A"/>
</svg>
