<svg width="191" height="61" viewBox="0 0 191 61" fill="none" xmlns="http://www.w3.org/2000/svg">
<path d="M52.6648 14.8674C51.4809 18.0157 49.6549 20.1331 46.2536 20.1634C42.8523 20.1938 40.9159 18.1875 39.6567 14.9432C38.242 17.9753 36.3959 20.1685 32.9695 20.1735C29.5432 20.1786 27.5014 18.1168 26.1419 14.832C24.8877 18.0612 23.0115 20.214 19.55 20.1685C16.1738 20.118 14.2474 18.0865 13.1438 14.9887C12.4866 16.06 12.0451 17.0758 11.3478 17.854C9.60205 19.8097 7.37968 20.7699 4.82621 19.9108C3.57007 19.5385 2.45231 18.7982 1.61522 17.784C0.778137 16.7698 0.259592 15.5275 0.125619 14.2155C-0.195446 11.9111 0.0905059 9.84928 1.91656 8.01487C4.27438 5.64984 5.88472 2.04165 8.64387 0.707528C11.3077 -0.586163 15.025 0.288091 18.2808 0.283038C30.401 0.283038 42.5212 0.308307 54.6414 0.237558C55.3385 0.19774 56.035 0.325434 56.6735 0.610115C57.312 0.894796 57.8741 1.3283 58.3136 1.87488C60.3503 4.21464 62.5225 6.42302 64.6145 8.73246C67.2081 11.5725 66.6211 16.3683 63.4054 18.8697C62.6654 19.422 61.8196 19.8138 60.9216 20.0201C60.0237 20.2265 59.0929 20.2431 58.1883 20.0688C57.2836 19.8945 56.4247 19.5332 55.6657 19.0076C54.9066 18.482 54.2641 17.8035 53.7785 17.0151C53.3822 16.3935 53.0912 15.7063 52.6648 14.8674Z" fill="#FEFEFE"/>
<path d="M134.15 37.3907C136.292 36.4861 138.244 35.8747 140.386 36.0566C143.802 36.3699 146.095 38.1235 146.661 41.5245C147.509 46.6083 146.892 51.7628 147.028 56.8871C147.055 57.0321 147.046 57.1815 147.004 57.3226C146.961 57.4638 146.886 57.5926 146.783 57.6981C146.681 57.8036 146.555 57.8828 146.416 57.929C146.277 57.9752 146.129 57.987 145.984 57.9634C144.314 57.9634 142.643 57.9281 140.968 57.9634C139.648 57.9938 139.794 57.0841 139.794 56.2453C139.794 52.3743 139.864 48.5033 139.713 44.6222C139.603 41.8833 137.386 40.9079 135.113 42.3381C134.145 42.9495 134.11 43.7733 134.14 44.7183C134.14 48.5033 134.1 52.2985 134.17 56.0734C134.195 57.4379 133.874 57.9584 132.384 57.9887C126.951 58.0999 126.956 58.1605 126.956 52.6977C126.956 45.4662 127.006 38.2296 126.916 30.9981C126.916 29.2647 127.342 28.7088 129.123 28.729C134.14 28.7796 134.14 28.6937 134.14 33.6713L134.15 37.3907Z" fill="#FEFEFE"/>
<path d="M93.0639 47.8413C93.0639 46.6639 93.0639 45.4864 93.0639 44.3039C93.0639 42.9799 93.39 41.6003 91.1727 41.7772C89.6677 41.9035 90.1693 40.4329 90.2496 39.6951C90.4001 38.6036 89.3416 36.6327 91.1125 36.567C93.4552 36.4862 93.2094 35.1773 93.0338 33.8078C92.768 31.7005 93.5355 30.8717 95.6174 31.2204C96.0347 31.2559 96.4543 31.2559 96.8716 31.2204C100.127 31.2204 100.218 31.2204 100.183 34.4799C100.183 36.0313 100.619 36.7085 102.154 36.4205C104.577 35.9606 104.968 37.1431 104.999 39.3262C105.029 41.5093 104.251 42.1713 102.28 41.853C100.619 41.57 100.087 42.2775 100.188 43.9249C100.318 46.017 100.188 48.1243 100.233 50.2266C100.288 52.6371 100.965 53.2587 103.117 52.4198C104.351 51.9448 104.898 52.2075 104.968 53.3244C105.054 54.6029 107.191 56.0128 104.898 57.1701C102.425 58.4661 99.5534 58.7608 96.8716 57.9938C94.3633 57.2863 93.3198 55.3255 93.1392 52.8797C93.0188 51.207 93.1392 49.5191 93.1392 47.8262L93.0639 47.8413Z" fill="#FDFDFD"/>
<path d="M122.371 50.6359C122.617 51.1109 122.827 51.4697 122.998 51.8487C124.979 56.2351 124.653 56.9022 119.953 58.0089C114.971 59.1864 110.075 57.6097 107.833 54.1076C105.324 50.2063 105.585 43.4549 108.374 39.7456C112.077 34.7882 120.605 34.7882 124.117 39.7305C124.939 40.9029 125.386 41.8731 123.66 42.6413C122.905 43.0066 122.196 43.4612 121.548 43.9956C120.715 44.6324 120.148 44.6324 119.576 43.6217C118.754 42.1713 117.48 41.3981 115.789 41.9237C114.098 42.4492 113.557 43.8238 113.426 45.4611C113.314 46.2984 113.267 47.1432 113.286 47.9879C113.592 52.0307 116.832 53.8095 120.449 51.8891C121.107 51.5101 121.678 51.0705 122.371 50.6359Z" fill="#FDFDFD"/>
<path d="M88.8998 47.2046C88.8998 50.1508 88.8145 53.097 88.9349 56.0381C89.0001 57.635 88.4332 57.9938 86.9282 58.0039C81.6808 58.0494 81.6808 58.11 81.6808 52.7735C81.6808 48.0637 81.731 43.3488 81.6558 38.6238C81.6558 37.1077 81.8464 36.38 83.6624 36.375C88.9098 36.375 88.9098 36.279 88.9048 41.6357L88.8998 47.2046Z" fill="#FBFBFB"/>
<path d="M165.755 47.3866C165.755 50.2469 165.684 53.1071 165.785 55.9775C165.835 57.4582 165.489 57.9989 163.873 58.0292C158.606 58.0646 158.606 58.1404 158.606 52.8595C158.606 48.1497 158.671 43.4398 158.571 38.7098C158.536 37.0421 158.867 36.37 160.723 36.3902C165.74 36.4509 165.74 36.3599 165.74 41.3275L165.755 47.3866Z" fill="#FDFDFD"/>
<path d="M180.192 14.8017C180.192 13.2857 180.253 11.7696 180.192 10.2536C180.132 8.73754 181.467 8.62636 181.908 9.15698C182.911 10.385 183.679 9.66233 184.637 9.32374C187.426 8.31305 189.734 9.76845 189.925 12.75C190.07 14.9281 189.925 17.1213 190.02 19.3195C190.07 20.5223 189.518 20.6587 188.515 20.6789C187.512 20.6991 187.276 20.2292 187.301 19.3246C187.346 17.6418 187.326 15.959 187.301 14.2711C187.301 12.8359 187.426 11.1228 185.4 11.0874C183.463 11.052 182.666 12.2598 182.816 14.2408C182.941 15.9084 182.776 17.6013 182.866 19.2943C182.926 20.4465 182.47 20.6941 181.421 20.684C180.373 20.6739 180.132 20.305 180.167 19.3549C180.233 17.8288 180.192 16.3178 180.192 14.8017Z" fill="#FDFDFD"/>
<path d="M86.7075 9.22766C88.8296 8.51512 89.7576 9.3641 90.2593 11.2491C90.761 13.134 91.5586 15.0442 92.3362 17.2526C93.1288 15.0695 93.9365 13.1542 94.5134 11.1884C95.0151 9.45002 95.8278 8.52017 97.9347 9.25293C96.6104 12.6994 95.2559 16.156 93.9716 19.6429C93.6405 20.5525 93.0636 20.6536 92.2409 20.6789C91.4181 20.7041 90.9967 20.507 90.7108 19.749C89.3914 16.2267 88.0419 12.7348 86.7075 9.22766Z" fill="#FCFCFC"/>
<path d="M115.508 12.189C115.508 9.91999 115.553 7.64087 115.483 5.37691C115.453 4.30052 115.754 3.93667 116.878 3.92151C118.122 3.92151 118.172 4.52287 118.167 5.46787C118.137 10.0126 118.137 14.5608 118.167 19.1123C118.167 20.0168 118.197 20.6738 116.918 20.6991C115.543 20.7294 115.468 20.0775 115.493 19.0213C115.543 16.7371 115.508 14.4631 115.508 12.189Z" fill="#FEFEFE"/>
<path d="M147.248 12.5529C147.248 14.6602 147.248 16.7625 147.248 18.8647C147.248 19.744 147.534 20.684 145.994 20.6941C144.605 20.6941 144.579 20.0371 144.59 18.9961C144.62 14.5389 144.62 10.0801 144.59 5.61955C144.59 4.60886 144.59 3.91148 145.989 3.91653C147.524 3.91653 147.243 4.85648 147.248 5.74084C147.253 8.0048 147.248 10.2789 147.248 12.5529Z" fill="#FEFEFE"/>
<path d="M156.288 55.1639C156.118 57.2661 154.502 58.5245 152.275 58.297C150.193 58.0797 148.999 56.6547 149.134 54.5271C149.27 52.3996 150.82 51.0605 153.027 51.2171C155.129 51.3687 156.464 52.9808 156.288 55.1639Z" fill="#FCFCFC"/>
<path d="M89 31.4883C88.9448 33.5956 87.495 34.7882 85.0569 34.6771C82.8546 34.576 81.5102 33.2267 81.6005 31.2154C81.6908 29.2041 83.3111 27.87 85.5787 27.9812C87.786 28.0873 89.0753 29.4113 89 31.4883Z" fill="#F8F8F8"/>
<path d="M162.338 27.9711C164.526 28.0115 165.895 29.2951 165.925 31.3215C165.925 33.4592 164.526 34.7276 162.143 34.6872C159.865 34.6467 158.566 33.444 158.566 31.3822C158.566 29.3204 160.026 27.9306 162.338 27.9711Z" fill="#FAFAFA"/>
<path d="M110.03 14.64C110.03 13.2907 110.03 11.9465 110.03 10.5972C110.03 9.74313 109.899 8.98511 111.234 8.975C112.568 8.96489 112.739 9.48035 112.739 10.5972C112.674 13.4574 112.684 16.3228 112.739 19.1881C112.739 20.1988 112.553 20.6789 111.384 20.7041C110.215 20.7294 110 20.1988 110.045 19.1881C110.07 17.672 110.03 16.1509 110.03 14.64Z" fill="#FEFEFE"/>
<path d="M113.12 5.59418C112.955 6.76659 112.383 7.46397 111.354 7.46397C111.125 7.4765 110.897 7.44017 110.683 7.35735C110.469 7.27453 110.275 7.14711 110.113 6.98344C109.952 6.81976 109.826 6.62353 109.745 6.40762C109.665 6.19172 109.63 5.96101 109.644 5.73063C109.632 5.50061 109.669 5.27074 109.75 5.05566C109.832 4.84059 109.957 4.64503 110.118 4.48147C110.279 4.31791 110.472 4.18993 110.685 4.1057C110.898 4.02146 111.126 3.98282 111.354 3.99223C112.418 3.96191 112.889 4.76541 113.12 5.59418Z" fill="#F7F7F7"/>
<path d="M61.9357 44.8952V22.0686C58.4993 22.7761 55.5947 22.2 53.4877 19.3852C52.986 18.6828 52.7152 18.8799 52.1633 19.3498C47.2019 23.6554 43.7655 23.4684 39.6217 18.7282C34.9111 23.5695 32.3878 23.7059 26.8594 19.2336C25.8561 18.4048 25.7206 19.3246 25.3996 19.7389C24.7362 20.5589 23.9032 21.2233 22.9589 21.6859C22.0145 22.1484 20.9814 22.398 19.9314 22.4173C17.0017 22.5537 14.7442 21.1034 13.0235 18.6929C11.0169 21.2196 8.73431 22.7963 5.5638 22.2606C4.26449 22.0383 4.47018 22.8822 4.47018 23.615C4.47018 35.1521 4.47018 46.6892 4.43506 58.2263C4.43506 59.7423 4.99693 60.0101 6.3464 60.0101C24.2357 59.9697 42.1284 59.9697 60.0244 60.0101C61.5294 60.0101 62.031 59.6362 61.9959 58.0595C61.8655 53.6731 61.9357 49.2917 61.9357 44.8952ZM55.7402 55.3357C53.3422 56.6799 50.1065 55.8713 47.3373 53.2031C46.7403 52.622 45.9678 52.0408 45.7169 51.308C44.7136 48.4478 42.5916 48.3467 40.1334 48.4983C37.8007 48.6449 35.4529 48.5337 33.1101 48.5337C30.0149 48.5337 26.9246 48.5792 23.8294 48.5337C23.3446 48.467 22.8516 48.5656 22.4289 48.8138C22.0062 49.0619 21.678 49.4454 21.4966 49.9032C20.456 52.0373 18.7933 53.8004 16.7308 54.9567C14.6389 56.0886 12.4366 56.599 10.3146 55.1639C8.19252 53.7287 7.51528 51.2575 7.94169 48.8925C8.92184 43.4394 10.3824 38.0851 12.3062 32.8932C12.8506 31.3339 13.7334 29.9165 14.8902 28.7442C16.047 27.5719 17.4487 26.6742 18.9933 26.1164C21.8378 25.0754 24.2156 25.7172 25.6303 28.3299C26.2825 29.5326 26.9999 29.7651 28.1838 29.7398C30.7724 29.6741 33.366 29.6539 35.9546 29.7398C38.2221 29.8156 40.1736 29.9015 41.5431 27.3242C42.5464 25.3887 44.8691 25.2675 46.936 25.9547C50.9142 27.2787 53.3272 30.2451 54.5462 34.0858C55.9208 38.4065 57.0545 42.8182 58.0579 47.2248C59.006 51.0756 58.0328 54.0521 55.7402 55.3357Z" fill="#FEFEFE"/>
<path d="M178.798 36.0414C172.156 36.0768 168.098 40.2459 168.118 47.0075C168.118 53.8752 172.221 58.3273 178.522 58.3576C184.823 58.3879 189.213 53.8095 189.158 47.1843C189.112 40.4885 184.954 36.0111 178.798 36.0414ZM178.552 52.7735C176.425 52.7331 175.241 50.7521 175.236 47.1439C175.231 43.5357 176.44 41.6457 178.683 41.7013C180.83 41.7468 181.974 43.5964 181.999 47.0378C182.039 50.8026 180.83 52.8139 178.562 52.7735H178.552Z" fill="#FEFEFE"/>
<path d="M141.173 10.5315C139.262 8.2776 137.075 8.87896 134.652 10.3091C134.652 8.46458 134.621 6.89294 134.652 5.32637C134.677 4.44201 134.546 3.9215 133.458 3.95182C132.489 3.98214 131.953 4.07311 131.953 5.29099C132.018 9.99579 132.003 14.7056 131.953 19.4155C131.953 20.4262 132.615 21.1236 133.197 20.5879C134.702 19.2285 135.866 20.5576 137.165 20.6384C137.961 20.7108 138.762 20.5604 139.479 20.2038C140.196 19.8471 140.801 19.298 141.228 18.617C142.748 16.4895 142.728 12.3305 141.173 10.5315ZM139.593 14.8168C139.437 16.6209 139.257 18.5412 136.884 18.6019C134.376 18.6676 134.596 16.7371 134.677 15.2312C134.677 14.362 134.627 13.6848 134.677 13.0178C134.787 11.8049 135.725 11.3501 136.708 11.1177C137.196 10.9697 137.722 11.0143 138.178 11.2423C138.635 11.4704 138.988 11.8648 139.167 12.3457C139.53 13.1078 139.682 13.9545 139.608 14.7966L139.593 14.8168Z" fill="#FDFDFD"/>
<path d="M172.507 9.01548C169.161 9.07107 167.024 11.3502 167.039 14.8523C167.039 18.4352 169.362 20.7345 172.818 20.6284C176.094 20.5273 178.281 18.1016 178.201 14.6602C178.121 11.2188 175.823 8.96495 172.507 9.01548ZM172.583 18.5767C170.225 18.5767 169.843 16.7625 169.798 14.8826C169.738 12.3862 170.862 10.8954 172.718 11.052C175.081 11.2542 175.312 13.0229 175.337 14.9432C175.362 16.8635 174.955 18.5868 172.583 18.5817V18.5767Z" fill="#FBFBFB"/>
<path d="M154.783 15.0796C155.228 15.0157 155.679 15.0157 156.123 15.0796C157.031 14.5237 158.802 15.9842 159.634 14.4277C160.211 13.3362 159.634 11.9414 158.837 10.8903C158.427 10.3614 157.915 9.92133 157.332 9.59659C156.174 9.002 154.844 8.84073 153.579 9.1415C152.314 9.44226 151.196 10.1855 150.424 11.239C148.834 13.5383 149.275 17.5205 151.327 19.3245C153.228 20.9972 157.302 21.0528 159.012 19.4458C159.404 19.0769 159.675 18.7586 159.218 18.2431C158.762 17.7276 158.41 17.3992 157.713 17.7883C156.954 18.3105 156.058 18.5937 155.139 18.6019C153.464 18.5109 152.33 17.4901 152.31 15.969C152.31 14.2054 153.951 15.4283 154.783 15.0796ZM152.24 13.0582C152.822 11.3299 153.9 10.9358 155.25 11.0368C156.203 11.1126 157.257 11.5169 157.146 12.5529C157.041 13.508 155.927 12.942 155.27 13.0128C154.352 13.134 153.439 13.0582 152.24 13.0582Z" fill="#FCFCFC"/>
<path d="M85.945 18.6171C85.9977 17.8634 85.9977 17.1069 85.945 16.3532C85.945 15.5952 85.945 14.8371 85.945 14.0842C85.9801 12.2295 85.6239 10.5467 83.8531 9.56129C81.8966 8.50511 79.9702 8.98519 78.1341 9.97567C77.6977 10.2081 76.89 10.3698 77.3866 11.2087C77.4451 11.3439 77.53 11.466 77.6362 11.5675C77.7424 11.6691 77.8677 11.7481 78.0048 11.8C78.1419 11.8518 78.2879 11.8754 78.4342 11.8693C78.5805 11.8632 78.7241 11.8276 78.8565 11.7646C79.7796 11.3856 80.6575 10.8802 81.721 11.0672C82.1391 11.1137 82.525 11.3155 82.8033 11.6332C83.0816 11.9509 83.2323 12.3618 83.226 12.7854C83.3012 13.978 82.318 13.4272 81.7912 13.5889C80.6826 13.9326 79.4986 14.0943 78.4552 14.5592C76.8248 15.302 76.0472 16.6564 76.6291 18.4655C77.2111 20.2747 78.6609 20.8356 80.4066 20.5779C81.1247 20.39 81.8209 20.1257 82.4835 19.7895C82.8648 19.648 83.2561 18.89 83.6323 19.7036C84.0086 20.5172 84.6357 20.8609 85.4333 20.5728C86.4316 20.2191 85.8597 19.2892 85.945 18.6171ZM83.3464 16.6816C83.1558 18.1977 82.022 18.4807 80.8381 18.6121C79.8849 18.7132 78.9869 18.2785 79.1575 17.2729C79.4334 15.6608 81.0287 15.9135 81.7812 15.6255C82.9802 15.4941 83.4818 15.7518 83.3464 16.6867V16.6816Z" fill="#FBFBFB"/>
<path d="M107.517 18.6171C107.564 17.8632 107.564 17.107 107.517 16.3531C107.517 15.681 107.517 15.0089 107.517 14.3317C107.466 9.63704 103.965 7.58532 99.9063 9.88466C99.4047 10.1677 98.4766 10.3041 98.9783 11.244C99.3445 11.9313 99.9364 12.0324 100.679 11.6786C101.497 11.2845 102.344 10.9004 103.318 11.0874C103.739 11.1341 104.128 11.3388 104.407 11.6608C104.686 11.9829 104.834 12.3987 104.823 12.8258C104.883 14.0134 103.895 13.4979 103.363 13.599C102.048 13.8567 100.714 14.0538 99.5802 14.8068C99.0237 15.1154 98.5784 15.5935 98.3081 16.1727C98.0377 16.7518 97.9563 17.4022 98.0753 18.0309C98.1536 18.6193 98.4046 19.1708 98.7961 19.6147C99.1876 20.0585 99.7017 20.3746 100.273 20.5222C101.547 20.8911 102.731 20.5222 103.89 19.9613C104.286 19.7642 104.712 18.7838 105.219 19.7491C105.645 20.5728 106.267 20.881 107.03 20.5829C108.008 20.1988 107.431 19.269 107.517 18.6171ZM102.575 18.6171C101.652 18.7838 100.674 18.4503 100.724 17.4548C100.804 15.7518 102.41 15.9387 103.433 15.6001C104.221 15.6001 104.938 15.4435 104.938 16.5199C104.883 18.0764 103.754 18.3998 102.575 18.6171Z" fill="#FBFBFB"/>
<path d="M129.59 18.6171C129.64 17.8633 129.64 17.1069 129.59 16.3531C129.59 15.5951 129.59 14.8371 129.59 14.0841C129.625 12.2295 129.274 10.5467 127.498 9.56631C125.541 8.50508 123.615 8.9801 121.779 9.97564C121.347 10.2081 120.535 10.3648 121.031 11.2036C121.089 11.3393 121.174 11.4618 121.28 11.5641C121.386 11.6663 121.511 11.7461 121.648 11.7989C121.785 11.8516 121.931 11.8762 122.077 11.8712C122.224 11.8662 122.368 11.8316 122.501 11.7696C123.419 11.3856 124.302 10.8802 125.361 11.0672C125.777 11.1147 126.162 11.3161 126.44 11.6325C126.718 11.9489 126.87 12.3578 126.866 12.7803C126.946 13.9729 125.958 13.4272 125.431 13.5889C124.322 13.9325 123.138 14.0942 122.095 14.5592C120.459 15.297 119.692 16.6563 120.269 18.4655C120.846 20.2746 122.301 20.8305 124.041 20.5779C124.76 20.3904 125.458 20.1278 126.123 19.7946C126.499 19.6531 126.891 18.89 127.272 19.6985C127.653 20.5071 128.275 20.8608 129.068 20.5728C130.086 20.2191 129.499 19.2892 129.59 18.6171ZM124.618 18.6171C123.68 18.7687 122.727 18.3897 122.802 17.4093C122.928 15.7164 124.568 15.9691 125.396 15.6103C126.399 15.5547 127.061 15.5092 127.011 16.5603C126.916 18.1117 125.787 18.42 124.618 18.6171Z" fill="#FBFBFB"/>
<path d="M23.5933 41.3577C26.6835 37.9719 29.3774 35.0156 32.0814 32.0694C32.4577 31.6601 32.8339 31.0587 33.4861 31.7713C36.2904 34.8034 39.1047 37.8607 42.2351 41.2516C41.3923 41.3123 41.0913 41.3476 40.7903 41.3527C37.4342 41.4487 37.3539 41.4487 37.374 44.7587C37.374 46.199 36.9676 46.7043 35.5529 46.5477C34.5503 46.4946 33.5456 46.4946 32.5429 46.5477C28.625 46.5477 28.5647 46.5477 28.2637 42.7424C28.1734 41.575 27.6919 41.3173 26.7036 41.3729C25.8708 41.3982 25.0381 41.3577 23.5933 41.3577Z" fill="#FDFDFD"/>
</svg>
