<svg width="218" height="61" viewBox="0 0 218 61" fill="none" xmlns="http://www.w3.org/2000/svg">
<path d="M1.16754 38.6837C4.58063 40.116 7.81641 41.5427 11.1408 42.8478C12.188 43.2625 12.3487 44.1473 12.7366 44.9492C14.4376 48.4828 17.8784 50.54 21.3912 50.1141C23.2844 49.8754 25.0462 49.0216 26.405 47.6844C27.7638 46.3472 28.6441 44.601 28.91 42.7151C28.9503 42.178 29.118 41.6582 29.3993 41.1986C29.6806 40.7389 30.0675 40.3527 30.5279 40.0718C32.4394 38.7888 34.2955 37.4119 36.1295 36.0183C37.723 34.7824 39.5944 33.9529 41.5816 33.6017C47.2996 32.551 51.0009 27.4358 50.6075 21.4911C50.2473 16.022 45.5765 11.4874 39.8584 11.0616C34.5726 10.669 29.4363 14.6395 28.3504 20.2137C27.3863 25.163 24.0341 28.7575 21.0477 32.3409C19.9838 33.6183 16.8256 34.8349 14.2326 33.7787C9.96622 32.0423 5.73309 30.2174 1.45011 28.5307C0.0150618 27.9777 -0.117913 27.1317 0.0760122 25.7658C3.19544 4.25977 27.7076 -7.08217 46.2303 5.42659C60.3979 14.9934 63.5063 34.3095 53.2725 48.328C43.5098 61.7049 24.361 64.1934 10.9912 53.8192C6.26501 50.1695 2.25906 44.0865 1.16754 38.6837Z" fill="#F2003A"/>
<path d="M211.527 38.0809C209.381 42.8293 207.238 47.5814 205.099 52.3372C204.545 53.5316 204.13 54.5491 202.401 54.5491C200.672 54.5491 200.246 53.4985 199.714 52.3095C197.594 47.5538 195.464 42.798 193.325 38.0422L192.583 38.1307V45.9335C192.583 48.422 192.505 50.9104 192.583 53.3934C192.688 55.9869 190.821 55.1685 189.524 55.2459C188.228 55.3233 186.793 55.6164 186.826 53.327C186.931 44.7611 186.826 36.1842 186.904 27.6238C186.904 26.6395 186.084 24.8256 188.095 24.8975C189.912 24.9694 192.201 23.7086 193.392 26.4349C196.112 32.6671 198.933 38.8551 201.703 45.0597C201.919 45.5353 202.163 46.0054 202.595 46.8957L211.272 27.1372C212.114 25.2017 215.704 23.9298 217.428 24.9252C218.126 25.3399 217.982 26.0312 217.982 26.6505C217.982 35.5869 217.954 44.5233 217.982 53.4597C217.982 56.0865 216.131 55.1187 214.873 55.2459C213.444 55.4008 212.164 55.4505 212.236 53.2496C212.386 49.0192 212.28 44.7777 212.28 40.5307C212.28 39.751 212.28 38.9657 212.28 38.1805L211.527 38.0809Z" fill="black"/>
<path d="M126.759 40.0718C126.759 35.6478 126.815 31.2238 126.721 26.7999C126.687 25.3676 127.081 24.8036 128.555 24.8146C133.907 24.8644 139.265 24.9031 144.623 24.8146C147.255 24.7704 146.34 26.6063 146.462 27.8727C146.584 29.1391 146.651 30.4165 144.578 30.3114C141.354 30.151 138.112 30.3612 134.888 30.2285C133.148 30.1566 132.671 30.7815 132.705 32.4404C132.838 38.2635 132.151 37.257 137.492 37.351C138.968 37.4455 140.45 37.4344 141.924 37.3179C144.379 37.0082 144.822 38.1308 144.767 40.304C144.717 42.14 144.152 42.7206 142.357 42.6211C139.963 42.4828 137.553 42.6709 135.154 42.5603C133.414 42.4773 132.649 42.9695 132.699 44.8607C132.854 51.1427 132.067 49.9317 137.763 50.0478C139.703 50.0865 141.642 50.0478 143.581 50.0478C146.246 50.0478 147.41 51.9391 146.435 54.5215C146.113 55.3676 145.493 55.2902 144.878 55.2902C139.337 55.2902 133.796 55.2902 128.255 55.2902C127.025 55.2902 126.721 54.7704 126.737 53.598C126.798 49.0967 126.765 44.5842 126.759 40.0718Z" fill="black"/>
<path d="M79.4523 55.7547C76.4903 55.8403 73.5526 55.1985 70.8974 53.8856C68.0439 52.5363 70.7034 50.9658 70.8032 49.5335C70.9195 47.9132 71.9113 48.2008 73.1192 48.6874C75.8896 49.7934 78.7098 50.5787 81.7406 49.7934C83.292 49.4063 84.5386 48.6155 84.7658 46.9621C85.0096 45.1814 83.6577 44.2856 82.2946 43.6939C80.1836 42.7814 77.9563 42.1344 75.8452 41.2275C71.3018 39.2644 69.5343 36.3943 70.0053 31.998C70.4209 28.0828 73.1635 25.5611 77.8067 24.6266C81.8015 23.8247 85.4695 24.7095 89.0599 26.4072C90.5725 27.1261 90.3509 28.0939 89.4311 28.951C88.5113 29.8081 89.0876 32.5952 86.4834 31.2017C84.4661 30.0528 82.1505 29.5328 79.8346 29.7086C78.0172 29.8634 76.5711 30.6432 76.2442 32.5565C75.945 34.3261 77.175 35.2607 78.6101 35.8745C80.6435 36.7316 82.7379 37.4505 84.7769 38.2911C90.0849 40.5031 91.7915 43.2183 91.0324 48.245C90.4063 52.3704 86.5998 55.434 81.6685 55.7547C80.9316 55.7934 80.1892 55.7547 79.4523 55.7547Z" fill="black"/>
<path d="M104.89 42.61C104.89 39.3861 104.724 36.1455 104.945 32.9381C105.1 30.6155 104.203 30.0073 102.114 30.245C101.111 30.3612 100.07 30.14 99.0722 30.2893C96.5068 30.6819 95.7477 29.6533 95.8807 27.1317C95.9749 25.3068 96.4847 24.7815 98.2799 24.8036C104.74 24.892 111.206 24.9418 117.672 24.8036C120 24.7483 119.889 25.9649 119.889 27.5409C119.85 29.0284 120.177 30.5934 117.761 30.3059C116.398 30.1455 114.991 30.4275 113.617 30.245C111.306 29.9409 110.885 30.975 110.918 33.0432C110.985 39.6626 110.763 46.2985 110.985 52.9344C111.073 55.6994 109.478 55.246 107.843 55.3068C106.07 55.3676 104.613 55.4727 104.807 52.8349C105.056 49.4395 104.89 46.0165 104.89 42.61Z" fill="black"/>
<path d="M138.279 8.93809C138.279 10.7409 138.279 12.5381 138.279 14.3408C138.279 14.9602 138.356 15.7344 137.42 15.7676C136.483 15.8008 136.561 14.9989 136.561 14.3851C136.539 11.9003 136.539 9.41918 136.561 6.94176C136.561 6.34453 136.345 5.57034 137.226 5.34362C137.587 5.25437 137.967 5.27995 138.313 5.41677C138.658 5.5536 138.952 5.79484 139.154 6.10675C140.512 7.84869 141.841 9.60168 143.226 11.3215C143.542 11.7086 143.675 12.3777 144.739 12.2948C144.739 10.7353 144.678 9.13164 144.739 7.53901C144.783 6.74823 144.185 5.32703 145.631 5.41551C147.077 5.50399 146.374 6.85882 146.407 7.65513C146.501 9.67357 146.484 11.6975 146.407 13.7381C146.407 14.468 146.9 15.5243 145.731 15.8395C144.706 16.116 144.03 15.4634 143.443 14.6782C141.969 12.704 140.451 10.763 138.955 8.81089L138.279 8.93809Z" fill="#F2003A"/>
<path d="M85.4418 15.8837C81.048 15.8561 81.7683 16.21 81.7073 12.2837C81.6428 11.3632 81.6428 10.4393 81.7073 9.51876C81.8736 8.13074 80.8929 5.99619 82.3445 5.51508C84.245 4.88467 86.5056 5.31047 88.6166 5.32153C88.7087 5.32512 88.7991 5.34812 88.8816 5.389C88.9642 5.42988 89.0372 5.48773 89.0958 5.55876C89.1544 5.62978 89.1973 5.71235 89.2217 5.80108C89.246 5.88981 89.2513 5.98269 89.2372 6.07361C89.2372 6.62661 88.8272 6.86438 88.323 6.87544C87.1262 6.90862 85.9312 6.91968 84.7381 6.90862C83.7962 6.90862 83.4139 7.37867 83.4471 8.27452C83.4804 9.17037 83.7408 9.70678 84.7104 9.70678C85.68 9.70678 86.5499 9.70679 87.4808 9.73997C88.0349 9.73997 88.6665 9.73997 88.6887 10.5142C88.7108 11.2884 88.0958 11.3326 87.5306 11.3492C86.6109 11.3713 85.6874 11.3713 84.7603 11.3492C83.8461 11.3492 83.4471 11.7529 83.4305 12.6764C83.4139 13.5999 83.7186 14.2524 84.8268 14.2192C85.9349 14.186 87.0431 14.2192 88.1512 14.2192C88.7053 14.2192 89.3203 14.2635 89.348 15.01C89.3757 15.7566 88.7552 15.8837 88.2011 15.8837C87.2869 15.8837 86.3616 15.8837 85.4418 15.8837Z" fill="#F2003A"/>
<path d="M75.4689 15.9667C72.4547 15.9943 70.6928 14.7999 69.8063 12.5326C69.356 11.5097 69.2405 10.3712 69.4763 9.27897C69.712 8.1868 70.287 7.19669 71.1194 6.44965C71.8998 5.6482 72.9119 5.1106 74.0139 4.91226C75.1158 4.71391 76.2524 4.86477 77.2641 5.34366C77.8182 5.58145 78.9263 5.57038 78.483 6.70402C78.0398 7.83766 77.3749 7.22384 76.6878 6.93075C75.9252 6.57382 75.0629 6.48892 74.245 6.69022C73.4271 6.89152 72.7033 7.36683 72.1943 8.03674C71.6719 8.57245 71.336 9.26166 71.2362 10.0025C71.1365 10.7434 71.2781 11.4967 71.6402 12.151C71.976 12.8722 72.534 13.4673 73.2329 13.8494C73.9317 14.2315 74.7346 14.3804 75.5243 14.2745C77.0147 14.2026 77.7406 13.5612 77.6519 12.0625C77.6519 11.5096 77.6963 10.8957 78.4553 10.8681C79.4305 10.8294 79.3031 11.5925 79.3696 12.2229C79.63 14.8939 78.3334 16.0054 75.4689 15.9667Z" fill="#F2003A"/>
<path d="M19.0085 35.6478C22.7097 34.9234 25.2252 36.2782 26.4053 39.3805C26.9303 40.763 26.9467 42.2866 26.4516 43.68C25.9564 45.0735 24.9819 46.2463 23.7015 46.9897C20.6263 48.7427 17.8117 48.0404 15.0801 44.5179C18.7425 45.9999 22.5047 47.9741 24.4993 43.2736C26.494 38.5732 22.1999 37.3897 19.0085 35.6478Z" fill="#F2003A"/>
<path d="M93.9638 11.41C93.9638 10.7685 93.9638 10.127 93.9638 9.49111C94.0248 8.04779 94.1134 6.63211 91.947 6.85884C91.3929 6.91967 90.789 6.64871 90.8388 5.96853C90.8887 5.28834 91.5425 5.2441 92.0855 5.23857C94.0137 5.23857 95.964 5.23857 97.8589 5.23857C98.3853 5.23857 99.0668 5.16668 99.1444 5.91322C99.222 6.65977 98.5903 6.89203 98.0695 6.83673C95.7313 6.58789 95.9197 8.1252 95.9529 9.64041C95.9862 11.1556 95.9529 12.7482 95.9529 14.3077C95.9529 15.0321 96.0194 15.8671 94.8946 15.8118C93.9915 15.7621 93.986 15.0708 93.9804 14.4183C93.9583 13.4229 93.9638 12.4165 93.9638 11.41Z" fill="#F2003A"/>
<path d="M113.605 5.23305C114.159 5.19376 114.714 5.19376 115.268 5.23305C116.01 5.33812 117.223 4.78513 117.34 5.90771C117.467 7.11877 116.232 6.84227 115.478 6.87545C114.243 6.93075 114.287 7.76024 114.287 8.60079C114.287 10.5307 114.287 12.4718 114.287 14.3796C114.287 14.9934 114.409 15.74 113.439 15.8063C112.381 15.8782 112.264 15.187 112.27 14.3796C112.27 13.0967 112.314 11.8137 112.27 10.5086C112.192 8.84965 113.073 6.56577 109.943 6.72061C109.755 6.72061 109.422 6.2395 109.389 5.94088C109.322 5.54273 109.682 5.27729 110.076 5.26623C111.267 5.23858 112.458 5.26623 113.655 5.26623L113.605 5.23305Z" fill="#F2003A"/>
<path d="M107.106 10.8405C107.106 12.1345 107.106 13.4229 107.106 14.7114C107.106 15.2644 107.017 15.8506 106.231 15.8174C105.643 15.7898 105.466 15.375 105.46 14.8884C105.46 12.0349 105.46 9.17962 105.46 6.32248C105.46 5.8469 105.605 5.40451 106.192 5.36027C106.956 5.30497 107.106 5.83032 107.112 6.42203C107.106 7.893 107.106 9.36949 107.106 10.8405Z" fill="#F2003A"/>
<path d="M179.69 53.2109C176.366 44.363 172.991 35.5151 169.833 26.6339C168.886 23.9574 166.913 25.1021 165.284 24.8478C163.655 24.5934 162.824 25.1685 162.264 26.833C160.331 32.5676 158.198 38.2358 156.17 43.9316C154.845 47.6146 153.527 51.3031 152.097 55.2846C153.998 55.2846 155.549 55.2515 157.084 55.2846C158.081 55.3123 158.674 54.9086 158.746 53.9298C159.189 49.727 161.81 48.9031 165.478 49.4339C166.951 49.5955 168.438 49.5955 169.911 49.4339C171.479 49.3233 172.127 49.9869 172.626 51.4579C173.939 55.5058 174.027 55.3786 178.366 55.3289C180.272 55.3012 180.244 54.6432 179.69 53.2109ZM168.83 44.5676C162.065 45.3805 161.727 45.0266 163.805 38.739C164.464 36.7538 165.146 34.774 166.076 32.0146C167.5 36.2339 168.609 39.6183 169.767 42.9805C170.093 43.9372 170.127 44.4127 168.83 44.5676Z" fill="black"/>
<path d="M39.4375 14.9381C37.4356 14.9724 35.5256 15.7828 34.1119 17.1979C32.6982 18.613 31.8918 20.5216 31.8633 22.5197C31.8887 24.4745 32.6735 26.3431 34.0523 27.7316C35.4312 29.1202 37.2963 29.9202 39.2546 29.963C40.2485 29.9844 41.2363 29.8039 42.1581 29.4326C43.0799 29.0613 43.9165 28.5069 44.6171 27.803C45.3177 27.0991 45.8676 26.2605 46.2335 25.338C46.5995 24.4155 46.7737 23.4285 46.7457 22.4367C46.7124 18.4275 43.3271 14.9381 39.4375 14.9381ZM39.3322 28.1271C38.5912 28.1467 37.854 28.014 37.1666 27.7371C36.4792 27.4602 35.8563 27.045 35.3366 26.5175C34.8168 25.99 34.4115 25.3613 34.1456 24.6707C33.8798 23.9801 33.7593 23.2422 33.7915 22.5031C33.7915 19.2404 36.0798 16.9012 39.2934 16.8736C40.0348 16.8447 40.7745 16.9647 41.4686 17.2265C42.1626 17.4883 42.7969 17.8866 43.3339 18.3977C43.8708 18.9088 44.2994 19.5224 44.5942 20.2019C44.889 20.8815 45.0441 21.6133 45.0502 22.3538C45.0842 23.1153 44.9601 23.8757 44.6857 24.5871C44.4113 25.2985 43.9924 25.9456 43.4555 26.4877C42.9185 27.0298 42.275 27.4553 41.5655 27.7374C40.8559 28.0195 40.0956 28.1522 39.3322 28.1271V28.1271Z" fill="#F2003A"/>
<path d="M128.615 4.88468C127.861 4.86173 127.109 4.9973 126.41 5.28261C125.711 5.56793 125.08 5.99663 124.558 6.54091C124.036 7.0852 123.634 7.73294 123.378 8.44217C123.123 9.1514 123.019 9.90629 123.075 10.6579C123.163 13.893 125.463 16.0275 128.793 15.9501C132.123 15.8727 134.333 13.5778 134.261 10.3704C134.268 9.63552 134.125 8.90695 133.842 8.22864C133.558 7.55033 133.14 6.93633 132.613 6.42369C132.085 5.91105 131.459 5.5104 130.772 5.24589C130.085 4.98139 129.351 4.85851 128.615 4.88468V4.88468ZM128.549 14.2856C128.044 14.2802 127.544 14.1732 127.082 13.9708C126.619 13.7684 126.201 13.4749 125.855 13.1078C125.508 12.7407 125.239 12.3076 125.064 11.8344C124.889 11.3612 124.812 10.8576 124.837 10.3538C124.866 9.34015 125.286 8.37675 126.008 7.66329C126.73 6.94983 127.699 6.54101 128.715 6.52155C129.731 6.59308 130.684 7.04116 131.386 7.77783C132.089 8.51449 132.49 9.48653 132.51 10.5031C132.454 11.5166 132.013 12.4706 131.277 13.1712C130.541 13.8717 129.566 14.2663 128.549 14.2745V14.2856Z" fill="#F2003A"/>
</svg>
