<svg width="156" height="172" viewBox="0 0 156 172" fill="none" xmlns="http://www.w3.org/2000/svg">
<path d="M130.567 113.554H143.072L146.705 125.096L143.927 125.844V142.089L144.461 142.196L145.637 154.059H99.1461C93.6955 159.403 88.0311 164.319 82.0461 168.915L78.5192 171.694L74.9924 168.915C69.1142 164.319 63.343 159.296 57.8923 153.952H13.9667L10.4399 142.196L13.2186 141.555V125.31L12.4705 125.096L11.5086 113.447H26.4711C19.3105 100.622 14.0736 86.8349 11.4017 72.5136L5.5236 69.0936C3.8136 68.1317 3.17235 65.9942 4.02735 64.1774L4.77548 62.6811L4.13423 62.3605C4.02735 62.2536 3.92048 62.2536 3.8136 62.1467C3.3861 61.8261 3.06548 61.5055 2.74485 61.078L0.927979 60.1161L7.6611 48.8942L9.3711 49.963V48.253L13.2186 46.7567C20.9136 43.7642 28.7155 40.9855 36.5173 38.2067C39.2961 37.2449 42.1817 36.283 44.9605 35.428C46.1361 30.5117 48.0599 25.8092 51.0524 21.748C53.1899 18.8624 55.7548 16.1905 58.4267 13.8392C61.7398 10.8467 65.3736 8.06798 69.0073 5.50298C70.7173 4.32735 72.4273 3.15173 74.2442 1.9761L76.8092 0.693604L79.0536 1.86923C80.443 2.61735 81.8323 3.36548 83.2217 4.1136C85.573 5.3961 87.8173 6.78548 90.0617 8.17485C92.6267 9.35048 95.7261 11.8086 97.7567 13.6255C98.9323 14.5874 100.001 15.5492 100.963 16.7249C102.994 19.0761 105.024 21.4274 106.52 24.0992C106.948 24.7405 107.269 25.4886 107.589 26.2367C109.192 28.9086 110.261 32.1149 111.116 35.3211C114.109 36.1761 117.208 37.138 120.2 38.2067C128.002 40.9855 135.804 43.8711 143.499 46.7567L147.347 48.253V49.963L149.057 48.8942L155.79 60.1161L154.08 61.078C153.866 61.5055 153.439 61.933 153.011 62.1467C152.904 62.2536 152.797 62.2536 152.69 62.3605L152.049 62.6811L152.797 64.1774C153.652 65.9942 153.011 68.1317 151.301 69.0936L145.423 72.5136C142.965 86.9417 137.728 100.729 130.567 113.554Z" fill="url(#paint0_linear_201_1583)"/>
<path d="M15.4629 52.4212C15.8904 97.8431 44.9604 138.135 78.626 164.212C112.292 138.135 141.362 97.8431 141.789 52.4212C141.789 52.4212 133.667 49.3218 118.597 43.8712C103.528 38.4206 78.626 33.3975 78.626 33.3975C78.626 33.3975 53.831 38.4206 38.6548 43.8712C23.6923 49.3218 15.4629 52.4212 15.4629 52.4212Z" fill="#873720"/>
<path d="M18.6692 54.6655C19.3104 74.2237 25.4023 92.9268 34.9141 109.706C45.9223 129.264 61.6329 146.471 78.626 159.937C95.5123 146.364 111.33 129.264 122.338 109.706C131.85 92.8199 137.942 74.2237 138.583 54.6655C135.27 53.383 128.216 50.818 117.529 46.9705C104.062 42.0543 82.4735 37.5655 78.626 36.7105C74.7785 37.5655 53.2966 42.0543 39.7235 46.9705C29.036 50.818 21.9823 53.4899 18.6692 54.6655ZM29.4635 113.126C19.0967 94.7437 12.5773 74.1168 12.3635 52.4212V50.0699L14.501 49.3218C14.501 49.3218 22.8373 46.1155 37.7998 40.7718C53.0829 35.3212 78.0916 30.1912 78.0916 30.1912H79.2673C79.3742 30.1912 104.276 35.3212 119.559 40.7718C134.522 46.1155 142.751 49.3218 142.858 49.3218L144.995 50.0699V52.4212C144.782 74.1168 138.262 94.6368 127.895 113.126C116.032 134.287 98.9323 152.67 80.6566 166.884L78.7329 168.381L76.8092 166.884C58.4266 152.67 41.4335 134.287 29.4635 113.126Z" fill="#240347"/>
<path d="M40.5784 63.1086L20.5928 76.6818C20.5928 76.6818 29.4634 113.447 50.304 137.173C71.1447 160.899 79.5878 163.464 79.5878 163.464C79.5878 163.464 104.49 142.837 116.994 125.844C129.392 108.744 139.652 77.8574 139.652 77.8574L122.552 77.1093L40.5784 63.1086Z" fill="#240347"/>
<path d="M125.758 70.3761L126.506 72.4067L112.398 64.7117L114.429 64.3911L116.032 65.1392L115.391 65.8874L122.765 69.8417L123.62 69.0936L125.758 70.3761Z" fill="#3875DA"/>
<path d="M115.391 66.3149L112.398 64.7117L114.429 64.3911L116.032 65.1392L115.391 65.8874L115.605 65.9942L115.391 66.3149Z" fill="#12EBFA"/>
<path d="M126.827 73.1548L125.758 74.1167L111.543 66.6354L111.757 65.1392L126.827 73.1548Z" fill="#3875DA"/>
<path d="M126.827 73.1548L126.185 73.796L114.108 67.4904L113.895 67.9179L111.543 66.6354L111.757 65.1392L126.827 73.1548Z" fill="#12EBFA"/>
<path d="M122.659 73.5825L100.001 113.126L97.436 112.164L120.521 72.6206L122.659 73.5825Z" fill="white"/>
<path d="M119.559 71.9793L96.2606 111.951L90.9169 109.172L89.8481 107.248L112.933 68.4524L119.559 71.9793Z" fill="#C6C8C9"/>
<path d="M91.2375 109.279L90.9169 109.172L89.8481 107.248L112.933 68.4524L114.857 69.5211L91.2375 109.279Z" fill="#12EBFA"/>
<path d="M40.3649 60.6505C40.3649 60.4368 40.3649 60.3299 40.3649 60.1161L45.7086 55.7343L55.3274 49.7493L52.9761 33.718L94.0161 40.8786L99.5736 50.3905L108.23 55.8411L113.574 60.223C113.574 60.4368 113.574 60.5436 113.574 60.7574L132.919 72.9411C132.064 75.613 130.888 79.2468 129.392 83.9493C127.896 88.7586 123.727 94.9574 118.384 101.477C118.063 101.584 117.635 101.797 117.315 101.904L111.33 106.179C107.269 110.775 104.276 116.332 100.001 120.714C97.7567 123.066 95.4055 125.417 92.9474 127.661C89.0999 131.188 85.573 134.715 81.7255 138.349L79.2674 141.341L74.0305 136.104C70.2899 132.471 66.4424 128.837 62.488 125.31C60.0299 123.066 57.7855 120.714 55.4342 118.363C51.0524 113.874 46.7774 109.279 42.7161 104.576L40.1511 103.507C33.8455 92.0718 27.6467 78.9261 24.1199 70.9105L40.3649 60.6505ZM97.8636 47.7186L91.3442 39.3824L98.2911 47.7186C98.1842 47.7186 97.9705 47.7186 97.8636 47.7186Z" fill="#240347"/>
<path d="M58.1062 54.6655C58.1062 54.6655 56.8237 59.368 62.3812 69.4143C67.1905 78.2849 75.2062 82.9874 77.1299 84.0562C78.8399 82.3462 81.298 80.1018 83.4355 75.1855C85.573 70.2693 86.1074 68.3455 86.1074 68.3455L79.2674 74.2237V62.6812L82.153 65.1393C82.153 65.1393 84.1837 64.6049 88.138 62.0399C92.0924 59.4749 97.1155 55.093 97.1155 55.093L96.9018 54.8793C96.0468 55.5205 91.558 58.6199 86.7487 60.223C81.4049 62.0399 82.7943 61.2918 82.7943 61.2918L77.5574 60.3299L72.3205 61.2918C72.3205 61.2918 73.7099 62.0399 68.3662 60.223C63.0224 58.2993 58.1062 54.6655 58.1062 54.6655Z" fill="#55526F"/>
<path d="M62.0605 69.2004C62.1674 69.3073 62.1674 69.4142 62.2743 69.521C67.0837 78.3917 75.0993 83.0941 77.023 84.1629C78.733 82.4529 81.1912 80.2085 83.3287 75.2923C85.4662 70.376 86.0005 68.4523 86.0005 68.4523L79.1605 74.3304V62.681L82.0462 65.1391C82.0462 65.1391 84.0768 64.6048 88.0312 62.0398C91.9855 59.4748 97.0087 55.0929 97.0087 55.0929L96.7949 54.8792C95.9399 55.5204 91.4512 58.6198 86.6418 60.2229C81.298 62.0398 82.6874 61.2917 82.6874 61.2917L77.4505 60.3298L77.6643 76.5748L80.9774 74.5441L76.4887 80.636C76.4887 80.636 68.0455 75.7198 64.5187 72.086C63.4499 71.0173 62.7018 70.0554 62.0605 69.2004Z" fill="#2D2846"/>
<path d="M72.9616 56.1617L61.7397 51.7798C61.7397 51.7798 66.3354 56.4823 68.366 57.1235C70.5035 57.7648 72.9616 56.1617 72.9616 56.1617ZM81.6185 56.1617L92.8404 51.7798C92.8404 51.7798 88.2447 56.4823 86.2141 57.1235C84.0766 57.7648 81.6185 56.1617 81.6185 56.1617Z" fill="#FDDB34"/>
<path d="M77.3435 98.2706C77.3435 98.2706 69.6485 94.4231 65.0529 89.5068C60.4573 84.5906 58.6404 80.8499 58.6404 80.8499L61.2054 91.5374C61.2054 91.5374 57.6785 84.1631 55.9685 79.1399C54.2585 74.2237 54.1517 70.5899 54.1517 70.5899L52.6554 73.7962C52.6554 73.7962 52.7623 71.1243 53.4035 68.9868C54.0448 66.8493 55.1135 65.7806 55.1135 65.7806L55.2204 61.3987L47.6323 65.9943C47.6323 65.9943 47.846 68.3456 49.1285 73.0481C50.411 77.8574 50.9454 79.0331 50.9454 79.0331C50.9454 79.0331 48.3804 76.3612 46.5635 72.2999C44.7467 68.3456 44.2123 67.4906 44.2123 67.4906C44.2123 67.4906 43.4642 75.5062 47.9529 86.1937C52.4417 96.8812 66.3354 105.645 66.3354 105.645L65.4804 101.797L77.3435 110.347L89.2067 101.797L88.3517 105.645C88.3517 105.645 102.245 96.9881 106.734 86.1937C111.223 75.5062 110.368 67.4906 110.368 67.4906C110.368 67.4906 109.834 68.3456 108.017 72.2999C106.2 76.2543 103.635 79.0331 103.635 79.0331C103.635 79.0331 104.276 77.8574 105.452 73.0481C106.734 68.2387 106.948 65.9943 106.948 65.9943L99.3598 61.3987L99.4667 65.7806C99.4667 65.7806 100.535 66.8493 101.177 68.9868C101.818 71.1243 101.925 73.7962 101.925 73.7962L100.429 70.5899C100.429 70.5899 100.322 74.1168 98.6117 79.1399C96.9017 84.1631 93.5885 91.5374 93.5885 91.5374L96.0467 80.8499C96.0467 80.8499 94.3367 84.5906 89.6342 89.5068C85.0385 94.4231 77.3435 98.2706 77.3435 98.2706Z" fill="#FDDB34"/>
<path d="M77.3436 98.2706C77.3436 98.2706 69.6486 94.4231 65.053 89.5068C62.3811 86.6212 60.5642 84.1631 59.7092 82.5599C60.6711 87.6899 72.1067 100.408 77.4505 101.156C82.153 100.515 94.0161 88.0106 95.1917 82.5599C94.2298 84.1631 92.5198 86.6212 89.848 89.5068C85.0386 94.4231 77.3436 98.2706 77.3436 98.2706ZM53.8311 68.2387C54.4723 66.7424 55.2205 65.8874 55.2205 65.8874L55.3273 61.5056L50.0905 64.7118L49.4492 65.0324L48.1667 65.7806L47.7392 65.9943C47.7392 65.9943 47.953 68.0249 49.0217 72.1931C50.0905 74.3306 51.2661 76.2543 52.228 77.4299C54.8998 80.7431 55.0067 80.7431 55.0067 80.7431L61.8467 93.7818L61.0986 91.3237C60.4573 90.0412 57.4648 83.6287 55.9686 79.2468C54.2586 74.3306 54.1517 70.6968 54.1517 70.6968L52.6555 73.9031C52.6555 73.9031 52.7623 71.2312 53.4036 69.2006V69.0937V68.9868V68.8799L53.8311 68.2387ZM106.52 65.6737L99.5736 61.3987L99.6805 65.7806C99.6805 65.7806 100.429 66.5287 101.07 68.1318V68.2387V68.3456V68.4524V68.5593V68.6662C101.711 70.8037 101.818 73.4756 101.818 73.4756L100.322 70.2693C100.322 70.2693 100.215 73.7962 98.5048 78.8193C97.0086 83.2012 94.0161 89.6137 93.3748 90.8962L92.6267 93.3543L99.253 80.3156C99.253 80.3156 99.253 80.3156 102.032 77.0024C102.994 75.8268 104.169 73.9031 105.238 71.7656C106.307 67.5974 106.52 65.5668 106.52 65.5668V65.6737ZM44.3192 67.4906C44.3192 67.4906 43.4642 75.5062 47.953 86.1937C52.4417 96.8812 66.3355 105.645 66.3355 105.645L65.4805 101.797L77.3436 110.347L89.2067 101.797L88.3517 105.645C88.3517 105.645 102.245 96.9881 106.734 86.1937C111.223 75.5062 110.368 67.4906 110.368 67.4906C110.368 67.4906 110.261 78.9262 104.062 87.4762C97.8636 96.0262 91.2373 100.408 91.2373 100.408L91.3442 96.4537L77.4505 106.393L63.5567 96.4537L63.6636 100.408C63.6636 100.408 57.0373 96.0262 50.8386 87.4762C44.4261 78.9262 44.3192 67.4906 44.3192 67.4906Z" fill="#EE7E24"/>
<path d="M46.4565 74.6511C46.4565 74.6511 46.9909 78.6055 51.4797 85.5524C55.9684 92.4993 62.0603 98.0568 62.0603 98.0568L63.2359 95.1711C63.2359 95.1711 66.8697 97.843 69.8622 100.087C72.8547 102.225 73.6028 102.546 73.6028 102.546C73.6028 102.546 68.259 97.843 65.694 95.8124C63.2359 93.7818 62.4878 92.8199 62.4878 92.8199L61.6328 96.0261C61.6328 96.0261 53.6172 87.7967 50.7315 83.2011C47.8459 78.6055 46.4565 74.6511 46.4565 74.6511Z" fill="#FDDB34"/>
<path d="M46.8841 50.1767L46.7772 45.6879C46.6704 43.3367 46.991 40.451 47.4185 38.0998C48.3804 32.8629 50.3041 27.7329 53.5104 23.351C55.541 20.5723 57.9991 18.1142 60.4572 15.8698C63.7704 12.8773 67.1904 10.2054 70.8241 7.64041C72.4272 6.46479 74.1372 5.28916 75.9541 4.22041L76.916 3.68604L77.8779 4.22041C79.2672 4.86166 80.6566 5.60979 81.9391 6.35791C84.2904 7.64041 86.6416 9.02979 88.886 10.4192C88.886 10.4192 91.9854 11.7017 96.0466 15.5492C97.1154 16.4042 98.1841 17.366 99.0391 18.4348C100.963 20.5723 102.887 22.9235 104.276 25.3817C104.597 25.916 105.024 26.6642 105.238 27.3054C113.04 40.6648 111.223 70.9104 111.223 70.9104L111.543 71.7654L103.528 60.5435C102.78 59.4748 101.925 58.406 101.07 57.3373C99.2529 55.0929 97.436 52.8485 95.4054 50.711C93.5885 48.7873 91.1304 46.436 88.7791 45.0467C86.321 43.6573 83.6491 42.3748 80.9772 41.4129C80.1222 41.0923 79.2672 40.7717 78.4122 40.5579C76.7022 41.1992 74.8854 41.9473 73.1754 42.5885L74.351 45.1535L72.8547 46.0085C71.5722 46.8635 70.2897 47.7185 69.0072 48.5735C66.2285 50.4973 63.5566 52.421 60.8847 54.5585C58.5335 56.4823 55.8616 58.9404 54.0447 61.3985C52.2279 64.0704 50.411 66.7423 48.5941 69.4142C48.0597 70.2692 47.4185 71.231 46.8841 72.1929L43.0366 79.0329L43.3572 71.231C43.4641 69.4142 43.571 67.4904 43.7847 65.6735C44.2122 61.7192 44.7466 57.6579 45.7085 53.8104C46.136 52.7417 46.4566 51.4592 46.8841 50.1767Z" fill="#240347"/>
<path d="M105.345 59.5819C105.345 59.5819 96.4741 47.2913 90.0616 43.6575C83.5422 40.0238 78.626 38.8482 78.626 38.8482C78.626 38.8482 68.366 42.5888 64.6254 45.1538C60.7779 47.6119 59.3885 49.6425 59.3885 49.6425C59.3885 49.6425 62.5947 48.1463 66.9766 46.65C71.3585 45.1538 72.2135 44.8332 72.2135 44.8332C72.2135 44.8332 57.8922 53.5969 52.8691 60.7575C47.846 67.9182 45.7085 71.7657 45.7085 71.7657C45.7085 71.7657 45.9222 59.475 49.0216 50.07C52.121 40.665 59.7091 31.6875 59.7091 31.6875C59.7091 31.6875 56.6097 32.97 53.5104 37.5657C50.411 42.1613 48.701 45.6882 48.701 45.6882C48.701 45.6882 48.3804 33.825 55.1135 24.6338C61.8466 15.3357 77.0229 5.93066 77.0229 5.93066C77.0229 5.93066 92.1991 13.5188 97.6497 19.7175C103.1 25.8094 103.742 28.4813 103.742 28.4813C103.742 28.4813 101.497 24.9544 97.436 21.855C93.2679 18.7557 87.3897 15.6563 87.3897 15.6563C87.3897 15.6563 91.3441 18.6488 93.9091 22.6032C96.4741 26.5575 99.0391 35.2144 99.0391 35.2144C99.0391 35.2144 97.6497 33.0769 92.9472 30.0844C88.2447 27.0919 82.901 25.275 82.901 25.275C82.901 25.275 94.5504 34.0388 99.3597 40.5582C104.169 47.0775 104.597 50.07 104.597 50.07C104.597 50.07 102.459 47.6119 98.9322 45.5813C95.4054 43.4438 92.8404 42.375 92.8404 42.375C92.8404 42.375 98.6116 47.1844 101.07 51.0319C103.421 54.6657 105.345 59.5819 105.345 59.5819Z" fill="#55526F"/>
<path d="M78.4124 38.7413C78.4124 38.7413 68.1524 42.4819 64.4117 45.0469C60.5642 47.505 59.1749 49.5357 59.1749 49.5357C59.1749 49.5357 62.3811 48.0394 66.763 46.5432C71.1449 45.0469 71.9999 44.7263 71.9999 44.7263C71.9999 44.7263 57.6786 53.49 52.6555 60.6507C47.6324 67.8113 45.4949 71.6588 45.4949 71.6588C45.4949 71.6588 45.9224 59.3682 49.0217 49.9632C52.1211 40.5582 59.7092 31.5807 59.7092 31.5807C59.7092 31.5807 59.4955 31.6875 59.1749 31.7944L65.053 27.5194C65.053 27.5194 61.7399 29.55 56.7167 38.4207C51.6936 47.3982 48.5942 61.6125 48.5942 61.6125C48.5942 61.6125 49.663 59.475 52.9761 56.2688C56.1824 53.0625 58.6405 51.2457 58.6405 51.2457L55.1136 51.9938C55.1136 51.9938 59.6024 46.4363 66.4424 42.5888C73.0686 38.7413 78.4124 38.7413 78.4124 38.7413ZM50.7317 41.7338C49.3424 44.085 48.5942 45.5813 48.5942 45.5813C48.5942 45.5813 48.2736 33.7182 55.0067 24.5269C61.7399 15.3357 77.023 5.93066 77.023 5.93066C77.023 5.93066 66.6561 13.8394 58.8542 23.0307C52.5486 30.2982 51.0524 38.6344 50.7317 41.7338Z" fill="#7E7F9D"/>
<path d="M41.7542 65.353C41.7542 65.353 40.258 81.0637 49.7699 95.3849C59.2817 109.706 67.1905 115.477 67.1905 115.477L57.358 101.904C57.358 101.904 67.8317 111.309 73.0686 114.302C78.3055 117.294 78.3055 117.294 78.3055 117.294C78.3055 117.294 96.1536 107.355 104.597 96.988C113.04 86.6212 114.643 72.6205 114.643 72.6205C114.643 72.6205 116.246 77.7505 111.116 90.7893C105.986 103.721 102.352 108.531 102.352 108.531C102.352 108.531 105.452 105.431 109.406 100.087C113.36 94.6368 115.391 90.2549 115.391 90.2549C115.391 90.2549 111.65 103.08 105.986 110.561C100.322 118.149 100.322 118.149 100.322 118.149L106.52 115.264C106.52 115.264 97.4361 126.379 90.5961 131.722C83.7561 137.066 80.1224 139.097 80.1224 139.097C80.1224 139.097 63.343 125.737 54.1517 115.264C45.0674 104.683 40.4717 95.0643 40.4717 95.0643C40.4717 95.0643 41.968 99.9805 43.9986 104.897C46.0292 109.813 47.098 111.523 47.098 111.523C47.098 111.523 41.3267 105.111 35.6624 92.0718C30.1049 79.033 29.4636 74.5443 29.4636 74.5443C29.4636 74.5443 31.9217 72.0862 33.3111 70.8037C34.7005 69.628 34.7005 69.628 34.7005 69.628C34.7005 69.628 36.7311 76.3612 37.693 79.3537C38.6549 82.2393 39.8305 83.8424 39.8305 83.8424C39.8305 83.8424 37.0517 70.9105 37.4792 68.9868C37.693 67.063 41.7542 65.353 41.7542 65.353Z" fill="#55526F"/>
<path d="M57.3581 101.797C57.3581 101.797 67.8318 111.202 73.0687 114.195C78.3056 117.187 78.3056 117.187 78.3056 117.187C78.3056 117.187 96.1537 107.248 104.597 96.8812C112.933 86.5143 114.643 72.5137 114.643 72.5137C114.643 72.5137 116.246 77.6437 111.116 90.6824C105.986 103.614 102.352 108.424 102.352 108.424C102.352 108.424 105.452 105.324 109.406 99.9806C113.361 94.5299 115.391 90.148 115.391 90.148C115.391 90.148 111.651 102.973 105.986 110.454C100.322 118.042 100.322 118.042 100.322 118.042L106.521 115.157C106.521 115.157 97.4362 126.272 90.5962 131.616C83.7562 136.959 80.1225 138.99 80.1225 138.99C80.1225 138.99 63.3431 125.737 54.1518 115.264C49.2356 109.599 45.7087 104.256 43.3575 100.408C45.7087 103.828 49.5562 108.744 56.0756 114.302C68.9006 125.417 77.1299 125.844 79.1606 126.165C81.1912 126.592 89.4206 122.638 89.4206 122.638C89.4206 122.638 81.8325 128.196 80.6568 128.516C79.4812 128.837 68.6868 124.776 68.6868 124.776L80.1225 133.86C80.1225 133.86 91.3443 126.486 94.3368 122.852C97.4362 119.111 101.284 111.951 101.284 111.951L92.4131 118.897C92.4131 118.897 95.5125 115.477 99.36 109.492C103.101 103.507 105.131 99.3393 105.131 99.3393C105.131 99.3393 104.704 99.5531 98.7187 105.859C92.7337 112.271 78.5193 120.287 78.5193 120.287C78.5193 120.287 77.7712 119.539 71.4656 115.477C65.16 111.523 57.3581 101.797 57.3581 101.797ZM42.8231 102.118C43.1437 103.08 43.5712 103.935 43.8918 104.897C45.9225 109.813 46.9912 111.523 46.9912 111.523C46.9912 111.523 41.22 105.111 35.5556 92.0718C35.0212 90.7893 34.4868 89.5068 34.0593 88.438C36.7312 93.0337 40.6856 98.9118 42.8231 102.118Z" fill="#2D2846"/>
<path d="M41.7542 65.353C41.7542 65.353 40.2579 81.0637 49.7698 95.3849C59.2817 109.706 67.1904 115.477 67.1904 115.477C50.1973 104.256 41.9679 90.148 39.0823 70.2693L37.4792 71.2312C37.3723 70.2693 37.3723 69.5212 37.3723 69.0937C37.6929 67.063 41.7542 65.353 41.7542 65.353ZM30.3186 78.178C29.5704 75.613 29.3567 74.6511 29.3567 74.6511C29.3567 74.6511 31.8148 72.193 33.2042 70.9105C34.5936 69.7349 34.5936 69.7349 34.5936 69.7349C34.5936 69.7349 34.9142 70.9105 35.4486 72.5136L30.3186 78.178Z" fill="#7E7F9D"/>
<path d="M105.345 59.5819C105.345 59.5819 96.4742 47.2913 90.0617 43.6575C83.5423 40.0238 78.626 38.8482 78.626 38.8482C78.626 38.8482 68.366 42.5888 64.6254 45.1538C61.7398 46.9707 60.2435 48.6807 59.6023 49.3219C59.9229 48.7875 60.9917 47.1844 64.091 44.6194C68.1523 41.1994 74.9923 37.245 77.5573 36.4969C80.1223 35.7488 88.9929 40.0238 88.9929 40.0238L84.7179 36.1763C84.7179 36.1763 86.0004 36.2832 88.4585 36.7107C90.8098 37.245 92.8404 37.6725 92.8404 37.6725C92.8404 37.6725 80.1223 25.3819 78.9467 25.3819C77.771 25.3819 67.2973 30.8325 67.2973 30.8325C67.2973 30.8325 77.2367 22.3894 78.9467 22.2825C80.6567 22.1757 93.2679 26.8782 93.2679 26.8782C93.2679 26.8782 93.2679 26.8782 91.1304 23.8857C88.9929 20.8932 80.9773 12.3432 80.9773 12.3432C80.9773 12.3432 82.1529 12.45 84.5042 13.0913C86.9623 13.6257 89.3135 14.5875 89.3135 14.5875C89.3135 14.5875 88.3517 13.6257 86.1073 11.9157C83.9698 10.2057 76.916 5.93066 76.916 5.93066C76.916 5.93066 92.1992 13.5188 97.6498 19.7175C103.1 25.8094 103.742 28.4813 103.742 28.4813C103.742 28.4813 101.497 24.9544 97.436 21.855C93.2679 18.7557 87.3898 15.6563 87.3898 15.6563C87.3898 15.6563 91.3442 18.6488 93.9092 22.6032C96.4742 26.5575 99.0392 35.2144 99.0392 35.2144C99.0392 35.2144 97.6498 33.0769 92.9473 30.0844C88.2448 27.0919 82.901 25.275 82.901 25.275C82.901 25.275 94.5504 34.0388 99.3598 40.5582C104.169 47.0775 104.597 50.07 104.597 50.07C104.597 50.07 102.459 47.6119 98.9323 45.5813C95.4054 43.4438 92.8404 42.375 92.8404 42.375C92.8404 42.375 98.6117 47.1844 101.07 51.0319C103.421 54.6657 105.345 59.5819 105.345 59.5819Z" fill="#2D2846"/>
<path d="M28.7156 79.2468C28.9293 78.9261 29.25 78.7124 29.5706 78.4986C30.7462 77.4299 34.7006 76.7886 40.2581 76.468C50.4112 85.2318 74.7787 107.996 74.7787 107.996C74.7787 107.996 62.3812 113.767 52.8693 118.042C51.0524 111.202 46.7775 94.8505 47.3118 92.713C47.9531 89.9343 39.0825 79.7811 39.0825 79.7811C39.0825 79.7811 34.2731 79.4605 28.7156 79.2468Z" fill="#2D2846"/>
<path d="M50.518 73.5824L45.2811 70.5899C45.1742 70.3762 44.9604 70.2693 44.7467 70.1624L36.0898 65.2462C35.983 65.0324 35.7692 64.9256 35.6623 64.8187L24.9748 58.5131L25.8298 56.4824C26.0436 55.9481 25.8298 55.1999 25.1886 54.9862L16.9592 50.8181C16.4248 50.6043 15.8904 50.7112 15.5698 51.1387L14.5011 52.3143C14.1804 52.2074 13.8598 52.2074 13.5392 52.3143L10.7604 53.7037L8.8367 52.5281L4.88232 59.0474L5.09607 59.1543C5.09607 59.4749 5.30982 59.7956 5.63045 60.0093L5.73732 60.1162L7.23357 60.9712L7.87482 62.8949L6.6992 65.3531C6.48545 65.8874 6.59232 66.5287 7.1267 66.8493L17.0661 72.6206L16.8523 73.0481C16.5317 73.5824 16.7454 74.3306 17.2798 74.6512L29.2498 82.1324C28.8223 82.1324 28.3948 82.2393 28.0742 82.3462C28.0742 82.3462 28.0742 82.3462 27.9673 82.3462C27.3261 82.6668 26.7917 83.0943 26.3642 83.7356C25.9367 84.2699 25.7229 84.9112 25.5092 85.4456C25.1886 86.3006 24.9748 87.4762 25.1886 88.4381C25.4023 89.2931 25.8298 90.1481 26.7917 90.6824C27.2192 90.8962 27.7536 91.1099 28.3948 91.1099C28.8223 91.1099 29.2498 91.1099 29.5704 91.1099C29.7842 91.2168 29.8911 91.2168 30.1048 91.3237C30.4254 91.4306 30.6392 91.5374 30.9598 91.5374C31.2804 91.6443 31.6011 91.7512 31.9217 91.7512L32.7767 91.9649C33.4179 92.0718 33.8454 92.1787 34.0592 92.2856C33.8454 92.4993 33.7386 92.7131 33.6317 92.9268C33.5248 93.1406 33.4179 93.3543 33.3111 93.5681C33.2042 93.5681 33.2042 93.6749 33.0973 93.6749C32.8836 93.7818 32.6698 93.8887 32.4561 94.1024C31.8148 94.5299 31.2804 95.1712 30.9598 95.9193C30.7461 96.3468 30.6392 96.8812 30.7461 97.3087V97.6293C30.5323 97.8431 30.3186 98.0568 30.1048 98.2706L27.7536 101.049C27.3261 101.477 27.4329 102.225 27.7536 102.652C27.7536 102.973 27.7536 103.294 27.8604 103.507C27.9673 103.935 28.0742 104.256 28.2879 104.576C28.3948 104.683 28.5017 104.897 28.6086 105.004L29.0361 109.706C29.0361 110.134 29.3567 110.454 29.6773 110.668L41.6473 116.653C41.6473 116.653 42.1817 116.974 42.823 117.401L42.9298 117.508C43.1436 117.722 43.3573 117.829 43.5711 117.829C43.8917 118.042 44.3192 118.256 44.6398 118.47C45.8155 119.111 52.5486 119.111 52.5486 119.111L53.0829 119.432L55.648 121.142C56.0755 121.462 56.6098 121.356 57.0373 121.142L58.2129 120.287C59.4954 119.325 60.8848 118.042 62.0605 116.653C63.2361 115.264 64.4117 113.767 65.2667 112.271C66.1217 110.775 66.8698 108.958 67.4042 107.034C67.9386 105.111 68.3661 102.973 68.5798 101.156L68.6867 99.8737C68.6867 99.3393 68.4729 98.9118 68.0454 98.6981L56.6098 92.0718L56.7167 91.9649C56.8236 91.7512 56.9305 91.5374 56.9305 91.3237V77.8574C56.9305 77.4299 56.7167 77.0024 56.2892 76.7887L50.518 73.5824Z" fill="#240347"/>
<path d="M52.0141 78.2848V87.1554L53.5104 88.0104V79.1398L52.0141 78.2848ZM40.8991 81.2773L40.151 82.6667L41.4335 84.6973L52.7622 91.0029L53.1897 89.0792L40.8991 81.2773ZM22.196 70.2692L20.5929 72.941L21.341 73.3685L22.3029 72.1929L23.1579 72.5135C23.1579 72.5135 22.7304 73.1548 22.196 73.9029L23.3716 74.651L24.0129 73.4754L24.6541 73.9029L23.906 75.0785L25.0816 75.8267L25.5091 74.7579L26.471 74.9717L25.9366 76.2542L40.151 85.1248L38.7616 83.3079L39.8304 81.2773L22.196 70.2692ZM11.4016 63.1085L10.4397 65.0323L19.8447 70.5898L20.6997 69.7348L11.6154 64.4979L12.1497 63.536L11.2947 62.8948L11.4016 63.1085ZM15.6766 55.841L16.9591 54.4517L22.196 57.1235L17.066 55.5204L16.3179 56.2685L15.6766 55.841ZM10.6535 56.3754L9.15723 58.5129L31.4941 71.4448V74.1167L32.7766 74.9717V70.0554L10.6535 56.3754ZM32.9904 66.956L32.7766 69.0935L11.8291 56.5892L13.8597 55.7342L32.9904 66.956ZM42.2885 72.4067V80.8498L33.5247 75.3992L33.8454 67.5973L42.2885 72.4067ZM42.8229 72.8342V81.2773L44.3191 82.1323V73.5823L42.8229 72.8342ZM44.6397 73.9029V82.4529L46.136 83.3079V74.7579L44.6397 73.9029ZM46.4566 74.9717V83.6285L47.9529 84.4835V75.8267L46.4566 74.9717ZM48.3804 76.0404V84.6973L49.8766 85.5523V76.7885L48.3804 76.0404ZM50.1972 77.216V85.9798L51.6935 86.8348V78.071L50.1972 77.216Z" fill="#55526F"/>
<path d="M52.0141 84.3768V87.0487L53.5104 87.9037V85.2318L52.0141 84.3768ZM9.58473 57.8718L32.7766 71.3381V74.9718L31.4941 74.1168V71.4449L9.15723 58.4062L9.58473 57.8718ZM33.6316 73.0481L42.2885 78.6056V80.85L33.5247 75.3993L33.6316 73.0481ZM42.8229 78.9262L44.3191 79.7812V82.2393L42.8229 81.3843V78.9262ZM44.6397 79.9949L46.136 80.85V83.3081L44.6397 82.4531V79.9949ZM46.4566 81.1706L47.9529 82.0256V84.5906L46.4566 83.7356V81.1706ZM48.3804 82.2393L49.8766 83.0943V85.6593L48.3804 84.8043V82.2393ZM50.1972 83.3081L51.6935 84.1631V86.835L50.1972 85.98V83.3081ZM41.6472 81.705L41.3266 82.6668L41.861 83.7356L52.8691 89.8275L52.6554 90.8962L41.4335 84.5906L40.151 82.56L40.8991 81.1706L41.6472 81.705ZM10.5466 64.7118L20.1654 70.1625L19.7379 70.59L10.4397 65.0325L10.5466 64.7118ZM21.5547 71.3381L39.296 82.1324L38.7616 83.2012L40.151 85.0181L26.0435 76.2543L26.5779 74.9718L25.616 74.7581L25.1885 75.8268L24.0129 75.0787L24.761 73.9031L24.1197 73.4756L23.2647 74.6512L22.196 74.0099C22.7304 73.2618 23.1579 72.6206 23.1579 72.6206L22.3029 72.3L21.341 73.4756L20.5929 73.0481L21.5547 71.3381Z" fill="#2D2846"/>
<path d="M52.0141 78.2848V79.3535L53.5103 80.2085V79.1398L52.0141 78.2848ZM51.5866 79.0329L50.0903 78.1779V77.1092L51.5866 77.9642V79.0329ZM49.7697 77.9642L48.2734 77.1092V76.1473L49.7697 77.0023V77.9642ZM47.9528 76.8954L46.4566 76.0404V75.0785L47.9528 75.9335V76.8954ZM46.1359 75.7198L44.6397 74.8648V73.9029L46.1359 74.7579V75.7198ZM44.2122 74.651L42.7159 73.796V72.941L44.2122 73.796V74.651ZM42.2884 73.4754L33.8453 68.4523V67.7042L42.2884 72.5135V73.4754ZM32.8834 67.811L13.1116 56.0548L13.8597 55.7342L32.9903 66.956L32.8834 67.811ZM15.6766 55.841L16.9591 54.4517L22.1959 57.1235L17.0659 55.5204L16.3178 56.2685L15.6766 55.841Z" fill="#7E7F9D"/>
<path d="M38.1206 85.4455L36.09 89.6136C36.09 89.6136 31.0669 88.5449 31.0669 88.3311C31.0669 88.1174 32.1356 87.7967 31.9219 87.7967C31.815 87.7967 28.8225 88.2242 28.395 88.0105C27.9675 87.7967 28.7156 85.5524 29.25 85.3386C29.8912 85.1249 38.1206 85.4455 38.1206 85.4455Z" fill="#55526F"/>
<path d="M52.8691 93.0336C52.8691 93.0336 46.4566 88.2242 43.9985 87.0486C41.6472 85.8729 39.9372 85.9798 39.9372 85.9798C39.9372 85.9798 37.6929 89.6136 37.6929 89.9342C37.7997 90.2548 38.7616 90.4686 38.7616 90.4686L39.5097 89.3998L39.6166 90.1479L43.7847 92.1786C43.7847 92.1786 47.5254 92.3923 50.411 92.8198C53.2966 93.3542 52.8691 93.0336 52.8691 93.0336Z" fill="#FEC013"/>
<path d="M52.1208 95.8126L47.9527 99.0188C47.9527 99.0188 39.7233 96.9882 37.6927 96.9882C35.6621 96.9882 34.1658 97.7363 34.059 97.4157C33.9521 97.0951 35.8758 96.1332 36.7308 95.8126C37.5858 95.492 38.0133 95.2782 38.0133 95.2782C38.0133 95.2782 36.7308 95.2782 36.4102 95.2782C36.1965 95.1713 37.0515 93.782 38.5477 93.6751C40.044 93.3545 52.1208 95.8126 52.1208 95.8126Z" fill="#FEC013"/>
<path d="M46.6703 99.9806C46.4566 100.194 43.4641 103.507 43.4641 103.507C43.4641 103.507 37.3722 102.546 34.7003 102.652C32.0285 102.759 30.746 102.973 30.9597 102.866C31.1735 102.759 32.0285 102.118 33.2041 101.477C34.3797 100.942 34.9141 100.729 34.9141 100.729L32.456 100.301C32.456 100.301 33.6316 99.0187 36.3035 98.9119C38.9753 98.9119 46.6703 99.9806 46.6703 99.9806Z" fill="#FEC013"/>
<path d="M41.861 104.897C41.9679 105.431 40.8991 110.775 40.8991 110.775C40.8991 110.775 39.0823 108.744 38.8685 108.744C38.6548 108.637 34.3798 108.424 34.3798 108.424L35.5554 110.134L31.8148 108.317L31.4941 105.217C31.4941 105.217 32.1354 104.683 34.7004 104.683C37.586 104.683 41.861 104.897 41.861 104.897Z" fill="#FEC013"/>
<path d="M54.8999 94.637C54.8999 94.637 43.8918 105.111 43.5712 105.645C43.2505 106.179 49.5562 115.584 49.5562 115.584H51.1593C51.1593 115.584 48.5943 112.592 49.3424 113.019C50.0905 113.447 56.3962 117.829 56.3962 117.829C56.3962 117.829 60.1368 114.943 62.5949 110.775C65.053 106.607 65.4805 101.156 65.4805 101.156L54.8999 94.637ZM50.9455 108.424C51.5868 109.493 56.0755 114.409 56.0755 114.409C56.0755 114.409 54.8999 114.088 52.8693 112.592C50.7318 111.096 47.3118 107.355 47.3118 107.355L55.8618 96.6676L57.4649 98.1638C57.4649 98.2707 50.3043 107.355 50.9455 108.424Z" fill="#FEC013"/>
<path d="M44.6397 104.576C43.9985 105.217 43.571 105.538 43.4641 105.645C43.1435 106.179 49.4491 115.584 49.4491 115.584H51.0522C51.0522 115.584 48.4872 112.592 49.2353 113.019C49.9835 113.447 56.2891 117.829 56.2891 117.829C56.2891 117.829 56.9303 117.294 57.8922 116.439L56.5028 115.584C56.5028 115.584 55.6478 115.264 54.1516 114.516C52.6553 113.767 48.3803 109.92 48.3803 109.92V110.454C48.3803 110.454 47.3116 110.027 46.991 109.065C46.4566 108.424 45.281 105.859 44.6397 104.576ZM48.5941 92.7131C46.5635 91.6444 41.861 89.1862 41.5403 88.8656C41.1128 88.3312 41.2197 87.2625 41.2197 87.2625L41.861 86.3006C40.5785 85.98 39.8303 85.98 39.8303 85.98C39.8303 85.98 37.586 89.6137 37.586 89.9344C37.6928 90.255 38.6547 90.4687 38.6547 90.4687L39.4028 89.4L39.5097 90.1481L43.6778 92.1787C43.6778 92.1787 46.136 92.3925 48.5941 92.7131ZM38.5478 93.4612H38.7616C38.7616 93.4612 37.9066 94.1025 38.1203 94.4231C38.3341 94.7437 39.5097 95.0644 39.5097 95.0644C39.5097 95.0644 37.9066 96.0262 38.2272 96.1331C38.441 96.1331 47.6322 97.2018 49.6628 97.6293L47.9528 99.0187C47.9528 99.0187 39.7235 96.9881 37.6928 96.9881C35.6622 96.9881 34.166 97.7362 34.0591 97.4156C33.9522 97.095 35.876 96.1331 36.731 95.8125C37.586 95.4919 38.0135 95.2781 38.0135 95.2781C38.0135 95.2781 36.731 95.2781 36.4103 95.2781C36.1966 95.0644 37.0516 93.675 38.5478 93.4612ZM35.2347 99.0187C35.1278 100.087 36.6241 100.729 36.6241 100.729C36.6241 100.729 35.5553 101.263 35.7691 101.37C35.9828 101.477 42.6091 101.584 45.0672 101.691C44.7466 102.225 43.4641 103.507 43.4641 103.507C43.4641 103.507 37.3722 102.546 34.7003 102.652C32.0285 102.759 30.746 102.973 30.9597 102.866C31.1735 102.759 32.0285 102.118 33.2041 101.477C34.3797 100.942 34.9141 100.729 34.9141 100.729L32.456 100.301C32.456 100.408 33.311 99.4462 35.2347 99.0187ZM33.4178 104.683C32.9903 105.111 32.6697 105.645 32.7766 105.859C32.8835 106.393 33.9522 107.355 33.9522 107.355C33.9522 107.355 39.1891 107.462 39.7235 107.569C39.9372 107.569 40.3647 107.569 40.7922 107.462C40.8991 109.065 41.1128 110.668 41.1128 110.668C41.1128 110.668 39.296 108.637 39.0822 108.637C38.8685 108.531 34.5935 108.317 34.5935 108.317L35.7691 110.027L32.0285 108.21L31.7078 105.111C31.601 105.217 32.0285 104.897 33.4178 104.683ZM57.4647 98.2706L58.106 99.2325C58.106 99.2325 54.5791 105.004 54.4722 106.179C54.3653 107.355 58.3197 113.447 58.3197 113.447L56.1822 114.516C56.1822 114.516 51.8003 109.599 51.0522 108.531C50.3041 107.355 57.4647 98.2706 57.4647 98.2706Z" fill="#FA6F19"/>
<path d="M79.2672 105.324C79.4809 105.218 79.6947 105.111 79.9084 105.004C81.1909 104.469 82.5803 103.828 83.9697 103.294C86.2141 102.439 88.4584 101.477 90.7028 100.622L92.4128 99.9807L102.245 120.501L93.5884 127.02L93.9091 127.127L75.7403 140.7L63.0222 129.051C63.0222 129.051 51.9072 120.928 44.4259 122.638C43.1434 122.959 41.9678 123.173 40.8991 123.386C40.5784 122.852 40.2578 122.424 39.8303 121.997C40.4716 121.783 41.0059 121.676 41.6472 121.463C43.6778 120.821 45.9222 119.859 47.8459 119.004C50.9453 117.722 53.9378 116.333 56.9303 114.836C62.4878 112.271 67.9384 109.599 73.3891 106.928L76.7022 105.859L79.2672 105.324Z" fill="#240347"/>
<path d="M91.451 102.545C91.451 102.545 77.8778 109.279 76.3816 110.347C74.7785 111.523 70.2897 119.432 70.2897 120.821C70.2897 122.21 74.8853 124.348 74.8853 124.348C74.8853 124.348 69.4347 123.6 67.9385 122.317C66.4422 121.035 71.4654 110.134 71.4654 110.134C71.4654 110.134 48.8079 121.462 42.3953 123.386L41.2197 123.707C45.3879 129.264 50.5178 136.104 55.541 141.769C60.0297 141.555 72.5341 140.486 72.5341 140.486L89.5272 127.875C89.5272 127.875 86.7485 127.02 85.6797 123.6C84.611 120.18 84.3972 119.004 84.3972 119.004C84.3972 119.004 86.4279 122.424 88.886 124.241C91.3441 126.058 91.6647 126.058 91.6647 126.058L99.8941 119.966L91.451 102.545Z" fill="#55526F"/>
<path d="M87.2828 104.683C83.1147 106.714 77.3435 109.706 76.2747 110.454C75.9541 110.668 75.4197 111.309 74.7785 112.164C77.5572 110.989 87.2828 106.821 87.2828 106.821V104.683ZM73.1753 124.241C71.4653 123.921 68.9003 123.279 67.9385 122.531C66.4422 121.249 71.4653 110.347 71.4653 110.347C71.4653 110.347 48.8078 121.462 42.3953 123.386L41.2197 123.707C41.4335 123.921 41.5404 124.241 41.7541 124.455C44.1054 124.348 46.7772 124.027 49.1285 122.959C55.7547 119.966 68.4728 113.981 68.4728 113.981C68.4728 113.981 65.0528 121.035 65.5872 122.638C66.1216 124.241 73.2822 124.348 73.2822 124.348C73.2822 124.348 73.2822 124.241 73.1753 124.241Z" fill="#7E7F9D"/>
<path d="M90.1683 103.294C89.2064 103.828 87.8171 104.469 86.2139 105.324C86.3208 106.179 86.8552 107.782 88.9927 111.416C92.8402 118.149 95.1914 120.394 95.1914 120.394C95.1914 120.394 90.1683 123.279 88.6721 124.134C88.7789 124.134 88.7789 124.241 88.8858 124.241C91.3439 126.058 91.6646 126.058 91.6646 126.058L99.8939 119.966L99.6802 119.539C97.5427 117.508 91.3439 111.523 91.0233 107.996C90.5958 105.217 90.3821 103.828 90.1683 103.294ZM74.8852 112.057C72.9614 114.836 70.1827 119.752 70.2896 120.928C70.2896 122.317 74.8852 124.455 74.8852 124.455C74.8852 124.455 73.9233 124.348 72.7477 124.027C76.0608 125.203 81.2977 124.027 81.2977 124.027C81.2977 124.027 74.6714 122.424 73.6027 119.752C72.7477 117.936 74.0302 114.195 74.8852 112.057ZM66.7627 140.914C70.0758 140.7 72.6408 140.486 72.6408 140.486L89.5271 127.875C89.5271 127.875 86.7483 127.02 85.6796 123.6C84.6108 120.18 84.3971 119.004 84.3971 119.004C84.3971 119.004 83.3283 118.577 83.9696 122.424C84.6108 126.272 84.9314 127.127 84.9314 127.127L67.0833 140.379L66.7627 140.914ZM84.3971 119.004C84.3971 119.004 84.8246 119.752 85.5727 120.714C84.9314 119.752 84.3971 119.004 84.3971 119.004Z" fill="#2D2846"/>
<path d="M106.734 73.5824L111.971 70.5899C112.078 70.3762 112.292 70.2693 112.505 70.1624L121.162 65.2462C121.269 65.0324 121.483 64.9256 121.59 64.8187L132.277 58.5131L131.422 56.4824C131.209 55.9481 131.422 55.1999 132.064 54.9862L140.293 50.8181C140.827 50.6043 141.362 50.7112 141.682 51.1387L142.751 52.3143C143.072 52.2074 143.392 52.2074 143.713 52.3143L146.492 53.7037L148.415 52.5281L152.37 59.0474L152.263 59.1543C152.263 59.4749 152.049 59.7956 151.729 60.0093L151.622 60.1162L150.125 60.9712L149.377 62.8949L150.553 65.3531C150.767 65.8874 150.66 66.5287 150.125 66.8493L140.186 72.6206L140.4 73.0481C140.72 73.5824 140.507 74.3306 139.972 74.6512L127.895 82.1324C128.323 82.1324 128.75 82.2393 129.071 82.3462C129.071 82.3462 129.071 82.3462 129.178 82.3462C129.819 82.6668 130.354 83.0943 130.781 83.7356C131.102 84.2699 131.422 84.9112 131.636 85.4456C131.957 86.3006 132.17 87.4762 131.957 88.4381C131.743 89.2931 131.315 90.1481 130.354 90.6824C129.926 90.8962 129.392 91.1099 128.75 91.1099C128.323 91.1099 127.895 91.1099 127.575 91.1099C127.361 91.2168 127.254 91.2168 127.04 91.3237C126.72 91.4306 126.506 91.5374 126.185 91.5374C125.865 91.6443 125.544 91.7512 125.224 91.7512L124.369 91.9649C123.727 92.0718 123.3 92.1787 123.086 92.2856C123.3 92.4993 123.407 92.7131 123.514 92.9268C123.62 93.1406 123.727 93.3543 123.834 93.5681C123.941 93.5681 123.941 93.6749 124.048 93.6749C124.262 93.7818 124.475 93.8887 124.689 94.1024C125.33 94.5299 125.865 95.1712 126.185 95.9193C126.399 96.3468 126.506 96.8812 126.399 97.3087L126.506 97.4156C126.72 97.6293 126.934 97.8431 127.147 98.0568L129.499 100.836C129.926 101.263 129.819 102.011 129.392 102.439C129.392 102.759 129.392 103.08 129.285 103.294C129.178 103.721 129.071 104.042 128.857 104.362C128.75 104.469 128.644 104.683 128.537 104.79L128.109 109.492C128.109 109.92 127.789 110.241 127.468 110.454L115.498 116.439C115.498 116.439 114.964 116.76 114.322 117.187L114.215 117.294C114.002 117.508 113.788 117.615 113.574 117.615C113.254 117.829 112.826 118.042 112.505 118.256C111.33 118.897 104.597 118.897 104.597 118.897L104.062 119.218L101.497 120.928C101.07 121.249 100.535 121.142 100.108 120.928L98.9323 120.073C97.6498 119.111 96.2604 117.829 95.0848 116.439C93.9092 115.05 92.7336 113.554 91.8786 112.057C91.0236 110.561 90.2754 108.744 89.7411 106.821C89.2067 104.897 88.7792 102.759 88.5654 100.942L88.7792 100.087C88.7792 99.5531 88.9929 99.1256 89.4204 98.9118L100.856 92.2856L100.749 92.1787C100.642 91.9649 100.535 91.7512 100.535 91.5374V77.8574C100.535 77.4299 100.749 77.0024 101.177 76.7887L106.734 73.5824Z" fill="#240347"/>
<path d="M105.238 78.2848V87.1554L103.742 88.0104V79.1398L105.238 78.2848ZM116.353 81.2773L117.101 82.6667L115.819 84.6973L104.49 91.0029L104.062 89.0792L116.353 81.2773ZM135.056 70.2692L136.659 72.941L135.911 73.3685L134.949 72.1929L134.094 72.5135C134.094 72.5135 134.522 73.1548 135.056 73.9029L133.88 74.651L133.239 73.4754L132.598 73.9029L133.239 75.0785L132.064 75.8267L131.636 74.7579L130.674 74.9717L131.209 76.2542L117.101 85.1248L118.49 83.3079L117.422 81.2773L135.056 70.2692ZM145.85 63.1085L146.812 65.1392L137.407 70.6967L136.552 69.8417L145.637 64.6048L145.102 63.6429L145.957 63.0017L145.85 63.1085ZM141.575 55.841L140.293 54.4517L135.056 57.1235L140.186 55.5204L140.827 56.2685L141.575 55.841ZM146.599 56.3754L148.095 58.5129L125.758 71.4448V74.1167L124.475 74.9717V70.0554L146.599 56.3754ZM124.262 66.956L124.475 69.0935L145.423 56.5892L143.392 55.7342L124.262 66.956ZM114.964 72.4067V80.8498L123.727 75.3992L123.407 67.5973L114.964 72.4067ZM114.429 72.8342V81.2773L112.933 82.1323V73.5823L114.429 72.8342ZM112.612 73.9029V82.4529L111.116 83.3079V74.7579L112.612 73.9029ZM110.795 74.9717V83.6285L109.299 84.4835V75.8267L110.795 74.9717ZM108.872 76.0404V84.6973L107.375 85.5523V76.7885L108.872 76.0404ZM107.055 77.216V85.9798L105.559 86.8348V78.071L107.055 77.216Z" fill="#55526F"/>
<path d="M105.238 84.3768V87.0487L103.742 87.9037V85.2318L105.238 84.3768ZM147.667 57.8718L124.475 71.3381V74.9718L125.758 74.1168V71.4449L148.095 58.4062L147.667 57.8718ZM123.62 73.0481L114.964 78.6056V80.85L123.727 75.3993L123.62 73.0481ZM114.429 78.9262L112.933 79.7812V82.2393L114.429 81.3843V78.9262ZM112.612 79.9949L111.116 80.85V83.3081L112.612 82.4531V79.9949ZM110.795 81.1706L109.299 82.0256V84.5906L110.795 83.7356V81.1706ZM108.872 82.2393L107.375 83.0943V85.6593L108.872 84.8043V82.2393ZM107.055 83.3081L105.559 84.1631V86.835L107.055 85.98V83.3081ZM115.605 81.705L115.925 82.6668L115.391 83.7356L104.383 89.8275L104.597 90.8962L115.925 84.5906L117.208 82.56L116.46 81.1706L115.605 81.705ZM146.705 64.7118L137.087 70.1625L137.514 70.59L146.919 65.0325L146.705 64.7118ZM135.697 71.3381L117.956 82.1324L118.49 83.2012L117.101 85.0181L131.209 76.2543L130.674 74.9718L131.636 74.7581L132.064 75.8268L133.239 75.0787L132.598 73.9031L133.239 73.4756L133.88 74.6512L135.056 73.9031C134.522 73.155 134.094 72.5137 134.094 72.5137L134.949 72.1931L135.911 73.3687L136.659 72.9412L135.697 71.3381Z" fill="#2D2846"/>
<path d="M105.238 78.2848V79.3535L103.742 80.2085V79.1398L105.238 78.2848ZM105.665 79.0329L107.162 78.1779V77.1092L105.665 77.9642V79.0329ZM107.482 77.9642L108.979 77.1092V76.1473L107.482 77.0023V77.9642ZM109.299 76.8954L110.795 76.0404V75.0785L109.299 75.9335V76.8954ZM111.116 75.7198L112.612 74.8648V73.9029L111.116 74.7579V75.7198ZM113.04 74.651L114.536 73.796V72.941L113.04 73.796V74.651ZM114.964 73.4754L123.407 68.4523V67.7042L114.964 72.5135V73.4754ZM124.369 67.811L144.14 55.9479L143.392 55.6273L124.262 66.956L124.369 67.811ZM141.575 55.841L140.293 54.4517L135.056 57.1235L140.186 55.5204L140.827 56.2685L141.575 55.841Z" fill="#7E7F9D"/>
<path d="M119.131 85.4455L121.055 89.5068C121.055 89.5068 126.078 88.438 126.078 88.2243C126.078 88.0105 125.009 87.6899 125.223 87.6899C125.33 87.6899 128.323 88.1174 128.75 87.9036C129.178 87.6899 128.429 85.4455 127.895 85.2318C127.361 85.1249 119.131 85.4455 119.131 85.4455Z" fill="#55526F"/>
<path d="M104.49 93.0336C104.49 93.0336 110.903 88.2242 113.361 87.0486C115.712 85.8729 117.422 85.9798 117.422 85.9798C117.422 85.9798 119.666 89.6136 119.666 89.9342C119.56 90.2548 118.598 90.4686 118.598 90.4686L117.85 89.3998L117.743 90.1479L113.575 92.1786C113.575 92.1786 109.834 92.3923 106.948 92.8198C103.956 93.3542 104.49 93.0336 104.49 93.0336Z" fill="#FEC013"/>
<path d="M105.665 94.53L110.047 98.6982C110.047 98.6982 117.528 96.9882 119.559 96.9882C121.589 96.9882 123.086 97.7363 123.193 97.4157C123.299 97.095 121.376 96.1332 120.521 95.8125C119.666 95.4919 119.238 95.2782 119.238 95.2782C119.238 95.2782 120.521 95.2782 120.841 95.2782C121.055 95.1713 120.2 93.7819 118.704 93.675C117.208 93.3544 105.665 94.53 105.665 94.53Z" fill="#FEC013"/>
<path d="M110.902 100.087C111.116 100.301 114.536 103.507 114.536 103.507C114.536 103.507 119.88 102.652 122.552 102.759C125.224 102.866 126.506 103.08 126.292 102.973C126.079 102.866 125.224 102.225 124.048 101.584C122.872 101.049 122.338 100.835 122.338 100.835L124.796 100.408C124.796 100.408 123.727 99.1255 120.949 99.0186C118.277 98.9117 110.902 100.087 110.902 100.087Z" fill="#FEC013"/>
<path d="M114.964 104.897C114.857 105.431 116.246 110.775 116.246 110.775C116.246 110.775 118.063 108.744 118.277 108.744C118.491 108.637 122.766 108.424 122.766 108.424L121.59 110.134L125.331 108.317L125.651 105.217C125.651 105.217 125.01 104.683 122.445 104.683C119.666 104.683 114.964 104.897 114.964 104.897Z" fill="#FEC013"/>
<path d="M113.788 105.645C113.467 105.111 103.1 93.8887 103.1 93.8887L91.9854 101.156C91.9854 101.156 92.4129 106.607 94.871 110.775C97.3291 114.943 101.07 117.829 101.07 117.829C101.07 117.829 107.375 113.554 108.123 113.019C108.872 112.592 106.307 115.584 106.307 115.584H107.91C107.803 115.584 114.215 106.179 113.788 105.645ZM104.383 112.592C102.245 114.088 101.177 114.409 101.177 114.409C101.177 114.409 105.558 109.492 106.307 108.424C106.948 107.355 100.001 98.2706 100.001 98.2706L102.245 96.2399L110.047 107.462C110.047 107.355 106.52 111.096 104.383 112.592Z" fill="#FEC013"/>
<path d="M112.612 104.576C113.253 105.218 113.681 105.538 113.788 105.645C114.108 106.179 107.803 115.584 107.803 115.584H106.2C106.2 115.584 108.765 112.592 108.017 113.019C107.268 113.447 100.963 117.829 100.963 117.829C100.963 117.829 100.322 117.294 99.3596 116.439L100.749 115.584C100.749 115.584 101.604 115.264 103.1 114.516C104.597 113.768 108.872 109.92 108.872 109.92V110.454C108.872 110.454 109.94 110.027 110.261 109.065C110.795 108.424 111.971 105.859 112.612 104.576ZM108.658 92.7132C110.688 91.6444 115.391 89.1863 115.712 88.8657C116.139 88.3313 115.925 87.3694 115.925 87.3694L115.284 86.4075C116.567 86.0869 117.315 86.0869 117.315 86.0869C117.315 86.0869 119.559 89.7207 119.559 90.0413C119.452 90.3619 118.49 90.5757 118.49 90.5757L117.742 89.5069L117.635 90.255L113.467 92.2857C113.574 92.1788 111.116 92.3925 108.658 92.7132ZM118.704 93.4613H118.49C118.49 93.4613 119.345 94.1025 119.132 94.4232C118.918 94.7438 117.742 95.0644 117.742 95.0644C117.742 95.0644 119.345 96.0263 119.025 96.1332C118.811 96.1332 110.582 96.6675 108.444 97.095L110.154 98.6982C110.154 98.6982 117.635 96.9882 119.666 96.9882C121.697 96.9882 123.193 97.7363 123.3 97.4157C123.407 97.095 121.483 96.1332 120.628 95.8125C119.773 95.4919 119.345 95.2782 119.345 95.2782C119.345 95.2782 120.628 95.2782 120.948 95.2782C121.055 95.0644 120.2 93.675 118.704 93.4613ZM122.017 99.0188C122.124 100.088 120.628 100.729 120.628 100.729C120.628 100.729 121.697 101.263 121.483 101.37C121.269 101.477 116.246 102.332 113.895 102.332C114.215 102.866 114.536 103.294 114.536 103.294C114.536 103.294 119.88 102.439 122.552 102.546C125.223 102.653 126.506 102.866 126.292 102.759C126.078 102.653 125.223 102.011 124.048 101.37C122.872 100.836 122.338 100.622 122.338 100.622L124.796 100.194C124.796 100.408 123.941 99.4463 122.017 99.0188ZM123.834 104.683C124.262 105.111 124.582 105.645 124.475 105.859C124.368 106.393 123.3 107.355 123.3 107.355C123.3 107.355 118.063 107.462 117.528 107.569C117.315 107.569 116.887 107.569 116.46 107.462C116.353 109.065 116.139 110.668 116.139 110.668C116.139 110.668 117.956 108.638 118.17 108.638C118.383 108.531 122.658 108.317 122.658 108.317L121.483 110.027L125.223 108.21L125.544 105.111C125.651 105.218 125.223 104.897 123.834 104.683ZM99.7871 98.2707L99.1459 99.2325C99.1459 99.2325 102.673 105.004 102.78 106.179C102.887 107.355 98.9321 113.447 98.9321 113.447L101.07 114.516C101.07 114.516 105.452 109.599 106.2 108.531C106.948 107.355 99.7871 98.2707 99.7871 98.2707Z" fill="#FA6F19"/>
<path d="M71.1449 151.387H16.1043L13.9668 144.227L15.9974 143.799V123.386L15.1424 123.172L14.608 116.226H101.818H141.148L143.286 123.172L141.255 123.707V144.12L142.003 144.334L142.751 151.387H120.735H97.0087H71.1449Z" fill="#240347"/>
<path d="M24.0129 146.471V134.608L28.5017 136.639V146.364C28.3948 146.899 27.9673 147.219 27.4329 147.326H33.8454C33.2042 147.219 32.8836 146.899 32.6698 146.364V121.035C32.8836 120.608 33.2042 120.287 33.8454 120.073H18.6692C19.3104 120.287 19.6311 120.501 19.8448 121.035V146.364C19.6311 146.899 19.3104 147.219 18.6692 147.326H25.0817C24.5473 147.326 24.1198 147.006 24.0129 146.471ZM35.9829 136.532V146.578C35.8761 147.113 35.4486 147.433 34.9142 147.54H50.0904C49.4492 147.433 49.1286 147.113 48.9148 146.578V135.036C45.4948 133.433 50.9454 135.998 40.2579 131.081V123.6H44.7467V129.371C48.1667 130.974 43.1436 128.623 48.9148 131.295V121.249C49.1286 120.821 49.4492 120.501 50.0904 120.287H34.9142C35.5554 120.394 35.8761 120.714 35.9829 121.249V132.791C37.5861 133.539 36.5173 133.112 44.6398 136.746V144.227H40.1511V138.456C38.6548 137.708 38.5479 137.708 38.6548 137.708C38.3342 137.601 37.6929 137.28 35.9829 136.532ZM100.749 136.532V146.578C100.642 147.113 100.215 147.433 99.6804 147.54H114.857C114.215 147.433 113.895 147.113 113.681 146.578V135.036L112.612 134.608C112.292 134.501 113.788 135.143 104.917 131.081V123.6H109.406V129.371C112.826 130.974 107.803 128.623 113.574 131.295V121.249C113.788 120.714 114.109 120.501 114.75 120.287H99.5736C100.215 120.394 100.642 120.714 100.642 121.249V132.791L109.299 136.746V144.227H104.81V138.456C103.314 137.708 103.207 137.708 103.314 137.708C103.1 137.601 102.459 137.28 100.749 136.532ZM124.475 121.142V146.471C124.369 147.006 123.941 147.326 123.407 147.433H129.819C129.178 147.326 128.857 147.006 128.644 146.471V123.921L133.132 126.058V146.471C133.025 147.006 132.598 147.326 132.064 147.433H138.476C137.835 147.326 137.514 147.006 137.3 146.471V121.142C137.514 120.714 137.835 120.394 138.476 120.18H132.064C132.705 120.287 133.025 120.608 133.132 121.142V122.318L128.644 120.18H123.407C124.048 120.287 124.369 120.608 124.475 121.142ZM116.994 121.142V146.471C116.887 147.006 116.46 147.326 115.925 147.433H122.338C121.697 147.326 121.376 147.006 121.162 146.471V123.386V121.142C121.376 120.714 121.697 120.394 122.338 120.18H115.925C116.46 120.394 116.887 120.608 116.994 121.142ZM85.2523 136.425V146.471C85.1454 147.006 84.7179 147.326 84.1836 147.433H99.3598C98.7186 147.326 98.3979 147.006 98.1842 146.471V134.929L97.1154 134.501C96.7948 134.394 98.2911 135.036 89.4204 130.974V123.493H93.9092V129.264C97.3292 130.868 92.3061 128.516 98.0773 131.188V121.142C98.2911 120.608 98.6117 120.394 99.2529 120.18H84.0767C84.7179 120.287 85.1454 120.608 85.1454 121.142V132.684L93.8023 136.639V144.12H89.3136V138.349C87.8173 137.601 87.7104 137.601 87.8173 137.601C87.6036 137.601 86.9623 137.28 85.2523 136.425ZM69.1142 121.142V146.471C68.9004 147.006 68.5798 147.326 67.9386 147.433H74.3511C73.7098 147.326 73.3892 147.006 73.2823 146.471V134.608L77.7711 136.639V146.364C77.6642 146.899 77.2367 147.219 76.7023 147.326H83.1148C82.4736 147.219 82.1529 146.899 81.9392 146.364V121.035C82.1529 120.608 82.4736 120.287 83.1148 120.073H67.9386C68.5798 120.287 69.0073 120.608 69.1142 121.142ZM73.2823 130.868V123.386H77.7711V132.898L73.2823 130.868ZM52.9761 136.532V146.578C52.8692 147.113 52.4417 147.433 51.9073 147.54H67.0836C66.4423 147.433 66.1217 147.113 65.9079 146.578V135.036C62.4879 133.433 67.9386 135.998 57.2511 131.081V123.6H61.7398V129.371C65.1598 130.974 60.1367 128.623 65.9079 131.295V121.249C66.1217 120.821 66.4423 120.501 67.0836 120.287H51.8004C52.4417 120.394 52.7623 120.714 52.8692 121.249V132.791C54.4723 133.539 53.4036 133.112 61.5261 136.746V144.227H57.0373V138.456C55.5411 137.708 55.4342 137.708 55.5411 137.708C55.3273 137.601 54.5792 137.28 52.9761 136.532ZM24.0129 130.974V123.493H28.5017V133.005L24.0129 130.974Z" fill="white"/>
<path d="M30.3185 122.104V145.616H30.8529V122.104H30.3185ZM22.196 122.104H21.6616V145.616H22.196V122.104ZM37.7997 139.204V145.509H38.3341V139.417C38.3341 139.417 38.2272 139.417 38.2272 139.311C38.1204 139.311 37.9066 139.311 37.7997 139.204ZM46.4566 145.509H46.991V135.891C46.7772 135.784 46.6704 135.784 46.4566 135.677V145.509ZM38.3341 131.936V122.104H37.7997V131.722C38.0135 131.722 38.1204 131.829 38.3341 131.936ZM46.4566 122.104V128.196C46.5635 128.302 46.6704 128.302 46.7772 128.409C46.7772 128.409 46.8841 128.409 46.8841 128.516V122.211L46.4566 122.104ZM102.566 139.204V145.509H103.1V139.417C103.1 139.417 102.993 139.417 102.993 139.311H102.887C102.78 139.311 102.673 139.311 102.566 139.204ZM111.33 145.509H111.864V135.891C111.757 135.784 111.543 135.784 111.33 135.677V145.509ZM103.1 131.936V122.104H102.566V131.722L103.1 131.936ZM111.33 122.104V128.196C111.437 128.302 111.543 128.302 111.65 128.409C111.65 128.409 111.757 128.409 111.757 128.516V122.211L111.33 122.104ZM126.399 145.509H126.933V121.997H126.399V145.509ZM135.056 124.989V145.509H135.59V121.997H135.056V124.989ZM118.811 145.509H119.345V121.997H118.811V145.509ZM87.0691 139.204V145.509H87.6035V139.417C87.6035 139.417 87.4966 139.417 87.4966 139.311H87.3897C87.2829 139.311 87.176 139.204 87.0691 139.204ZM95.726 145.509H96.2604V135.891C96.0466 135.784 95.9397 135.784 95.726 135.677V145.509ZM87.6035 131.829V121.997H87.0691V131.616L87.6035 131.829ZM95.726 121.997V128.089C95.8329 128.196 95.9397 128.196 96.0466 128.302C96.0466 128.302 96.1535 128.302 96.1535 128.409V122.104L95.726 121.997ZM71.4654 131.936V122.104H70.931V145.616H71.4654V131.936ZM79.5879 135.677V145.509H80.1222V121.997H79.5879V135.677ZM54.7929 139.204V145.509H55.3272V139.417C55.3272 139.417 55.2204 139.417 55.2204 139.311H55.1135C54.8997 139.311 54.8997 139.204 54.7929 139.204ZM63.4497 145.509H63.9841V135.891C63.7704 135.784 63.6635 135.784 63.4497 135.677V145.509ZM55.2204 131.936V122.104H54.686V131.722C54.8997 131.722 55.1135 131.829 55.2204 131.936ZM63.4497 122.104V128.196C63.5566 128.302 63.6635 128.302 63.7704 128.409C63.7704 128.409 63.8772 128.409 63.8772 128.516V122.211L63.4497 122.104Z" fill="#02344D"/>
<path d="M24.013 146.471V134.608L22.7305 133.967V146.364C22.8374 146.899 23.2649 147.219 23.7992 147.326H25.0817C24.5474 147.326 24.1199 147.006 24.013 146.471ZM32.563 147.433H33.6317H33.7386C33.2042 147.326 32.8836 147.006 32.6699 146.578V121.249C32.7767 120.821 33.2042 120.501 33.7386 120.394H33.6317H18.7761H32.6699C32.0286 120.501 31.708 120.821 31.4942 121.356V146.685C31.4942 147.006 31.9217 147.326 32.563 147.433ZM33.8455 120.18H33.5249H33.8455ZM35.983 136.532V137.173C36.7311 137.494 37.1586 137.707 37.3724 137.814C37.2655 137.814 37.3724 137.814 38.8686 138.562V144.334H43.3574H40.1511V138.562C38.6549 137.814 38.548 137.814 38.6549 137.814C38.3342 137.601 37.693 137.28 35.983 136.532ZM48.7011 147.433H49.9836C49.3424 147.326 49.0217 147.006 48.808 146.471V134.929C45.388 133.326 50.8386 135.891 40.1511 130.974V123.493H38.8686V130.974C49.663 135.891 44.1055 133.326 47.5255 134.929V146.471C47.7392 147.006 48.0599 147.326 48.7011 147.433ZM47.5255 130.547C47.8461 130.761 48.2736 130.867 48.808 131.188V121.142C49.0217 120.714 49.3424 120.394 49.9836 120.18H34.8074H48.7011C48.0599 120.394 47.7392 120.714 47.5255 121.142V130.547ZM100.749 136.532V137.173C101.497 137.494 101.925 137.707 102.139 137.814C102.032 137.814 102.139 137.814 103.635 138.562V144.334H108.124H104.917V138.562C103.421 137.814 103.314 137.814 103.421 137.814C103.1 137.601 102.459 137.28 100.749 136.532ZM113.574 147.433H114.643C114.75 147.433 114.75 147.433 114.75 147.433C114.216 147.326 113.895 147.006 113.681 146.471V134.929L112.612 134.501C112.292 134.394 113.788 135.036 104.917 130.974V123.493H103.528V130.974C112.292 135.036 110.902 134.394 111.223 134.501L112.292 134.929V146.471C112.506 147.006 112.933 147.326 113.574 147.433ZM112.399 130.547C112.719 130.761 113.147 130.867 113.681 131.188V121.142C113.788 120.714 114.216 120.394 114.75 120.18H114.643H114.964H113.681H99.7874H113.574C112.933 120.287 112.612 120.607 112.399 121.142V130.547V130.547V130.547ZM128.537 147.433H129.819C129.178 147.326 128.857 147.006 128.644 146.471V123.921L127.361 123.279V146.471C127.575 147.006 127.895 147.326 128.537 147.433ZM137.194 147.433H138.476C137.835 147.326 137.514 147.006 137.3 146.471V121.142C137.514 120.714 137.835 120.394 138.476 120.18H137.194H132.064H137.194C136.552 120.394 136.232 120.607 136.018 121.142V146.471C136.232 147.006 136.659 147.326 137.194 147.433ZM133.239 122.317L128.75 120.18H123.514H127.468L133.239 122.852V122.317ZM121.055 147.433H122.124H122.231C121.697 147.326 121.376 147.006 121.162 146.471V123.386V121.142C121.269 120.714 121.697 120.394 122.231 120.18H122.124H122.338H121.055H115.925H121.055C120.414 120.287 120.094 120.607 119.88 121.142V123.386V146.471C119.987 147.006 120.414 147.326 121.055 147.433ZM85.2524 136.425V137.066C86.0005 137.387 86.428 137.601 86.6417 137.707C86.5349 137.707 86.6417 137.707 88.138 138.456V144.227H92.6268H89.4205V138.456C87.9243 137.707 87.8174 137.707 87.9242 137.707C87.6036 137.601 86.9624 137.28 85.2524 136.425ZM97.9705 147.433H98.5049C98.6118 147.433 98.7186 147.326 98.8255 147.326C98.5049 147.112 98.1842 146.899 98.0774 146.471V134.929L97.0086 134.501C96.688 134.394 98.1843 135.036 89.3136 130.974V123.493H88.0311V130.974C96.7949 135.036 95.4055 134.394 95.7261 134.501L96.7949 134.929V146.471C97.0086 147.006 97.3293 147.219 97.9705 147.433ZM96.7949 130.547C97.1155 130.761 97.543 130.867 98.0774 131.188V121.142C98.1842 120.821 98.398 120.607 98.7186 120.394C98.6118 120.287 98.398 120.287 98.2911 120.287H99.1461H99.253H97.9705H84.0768H97.9705C97.3293 120.394 97.0086 120.714 96.7949 121.249V130.547ZM73.0686 147.433H74.3511C73.7099 147.326 73.3892 147.006 73.2824 146.471V134.608L71.9999 133.967V146.364C72.1067 147.006 72.5342 147.326 73.0686 147.433ZM81.8324 147.433H82.7942C82.9011 147.433 82.9011 147.433 82.9011 147.433C82.3667 147.326 82.0461 147.006 81.8324 146.578V121.249C81.9392 120.821 82.3667 120.501 82.9011 120.394H82.7942H83.1149H67.9386H81.8324C81.1911 120.607 80.8705 120.821 80.6567 121.356V146.685C80.7636 147.006 81.1911 147.326 81.8324 147.433ZM73.2824 130.867V123.386H71.9999V130.867L77.7711 133.539V132.898L73.2824 130.867ZM52.9761 136.532V137.173C53.7242 137.494 54.1517 137.707 54.3655 137.814C54.2586 137.814 54.3655 137.814 55.8617 138.562V144.334H60.3505H57.1442V138.562C55.648 137.814 55.5411 137.814 55.648 137.814C55.3274 137.601 54.5792 137.28 52.9761 136.532ZM65.6942 147.433H66.9767H66.6561H66.763C66.2286 147.326 65.908 147.006 65.6942 146.471V134.929C62.2742 133.326 67.7249 135.891 57.0374 130.974V123.493H55.7549V130.974C66.5492 135.891 60.9917 133.326 64.4117 134.929V146.471C64.6255 147.006 65.053 147.326 65.6942 147.433ZM64.5186 130.547C64.8392 130.761 65.2667 130.867 65.8011 131.188V121.142C65.908 120.714 66.3355 120.394 66.8699 120.287H66.763H65.6942H51.8005H65.6942C65.053 120.394 64.7324 120.714 64.5186 121.249V130.547ZM24.013 130.974V123.493H22.7305V130.974L28.5017 133.646V133.005L24.013 130.974Z" fill="#A9C0DE"/>
<defs>
<linearGradient id="paint0_linear_201_1583" x1="77.3322" y1="11.5666" x2="80.6807" y2="154.971" gradientUnits="userSpaceOnUse">
<stop stop-color="#FDE32B"/>
<stop offset="1" stop-color="#EE563C"/>
</linearGradient>
</defs>
</svg>
