<svg width="116" height="142" viewBox="0 0 116 142" fill="none" xmlns="http://www.w3.org/2000/svg">
<g clip-path="url(#clip0_211_939)">
<path d="M96.6171 93.2126H105.942L108.634 102.754L106.519 103.39V116.748L106.904 116.854L107.769 126.607H73.1598C69.1221 131.06 64.8921 135.088 60.3736 138.905L57.778 141.237L55.1823 138.905C50.76 135.088 46.53 130.954 42.3961 126.607H9.70977L7.11409 116.96L9.22909 116.43V102.86L8.65227 102.648L7.97932 93.0005H19.1311C13.8436 82.399 9.90205 71.0554 7.88318 59.2877L3.46091 56.4253C2.21114 55.6832 1.73045 53.881 2.30727 52.3968L2.88409 51.2306L2.40341 51.0186C2.30727 50.9126 2.21114 50.9126 2.21114 50.8065C1.92273 50.5945 1.63432 50.2765 1.44205 49.9584L0 49.1103L4.99909 39.887L6.24886 40.7351V39.3569L9.13296 38.0847C14.9011 35.6464 20.6693 33.3141 26.5336 31.0877C28.6486 30.3456 30.7636 29.4975 32.7825 28.7554C33.6477 24.7268 35.0898 20.8043 37.3009 17.5178C38.9352 15.1855 40.7618 12.9592 42.7807 10.9449C45.2802 8.50654 47.9721 6.1742 50.6639 4.0539C51.9136 3.09977 53.2596 2.14563 54.6055 1.1915L56.5282 0.131348L58.1625 1.08548C59.22 1.72157 60.2775 2.35766 61.2389 2.88774C62.9693 3.94789 64.6998 5.11405 66.3341 6.28022C68.2568 7.23436 70.5641 9.24864 72.1023 10.7329C72.9675 11.475 73.7366 12.3231 74.5057 13.2772C76.0439 15.1855 77.4859 17.1998 78.6396 19.3201C78.928 19.8501 79.2164 20.4862 79.4086 21.1223C80.5623 23.3486 81.4275 25.999 82.0043 28.6494C84.2155 29.3915 86.5227 30.1336 88.7339 30.9817C94.5021 33.3141 100.366 35.6464 106.135 37.9787L109.019 39.2509V40.6291L110.268 39.781L115.268 49.0043L114.018 49.7464C113.825 50.0644 113.537 50.4885 113.249 50.5945C113.153 50.7005 113.056 50.7005 113.056 50.8065L112.576 51.0186L113.153 52.2907C113.825 53.775 113.345 55.5772 111.999 56.3193L107.577 59.1817C105.846 71.2674 101.905 82.6111 96.6171 93.2126Z" fill="url(#paint0_linear_211_939)"/>
<path d="M10.8638 42.7493C11.1522 80.1726 32.879 113.461 57.8745 134.876C82.9661 113.355 104.597 80.1726 104.885 42.7493C104.885 42.7493 98.8285 40.2049 87.5806 35.6463C76.3326 31.0877 57.7783 27.0591 57.7783 27.0591C57.7783 27.0591 39.3201 31.1937 27.976 35.6463C16.9204 40.2049 10.8638 42.7493 10.8638 42.7493Z" fill="#873720"/>
<path d="M13.1707 44.6576C13.6514 60.7718 18.1698 76.25 25.2839 90.032C33.4555 106.146 45.1841 120.352 57.8741 131.484C70.468 120.246 82.1966 106.146 90.4643 90.032C97.5784 76.144 102.097 60.7718 102.578 44.6576C100.078 43.5974 94.8866 41.4771 86.9073 38.2967C76.9091 34.2681 60.7582 30.5576 57.9702 29.8155C55.0862 30.5576 39.1275 34.2681 29.0332 38.2967C20.9577 41.4771 15.6702 43.7034 13.1707 44.6576ZM21.2462 92.7884C13.5552 77.6282 8.65229 60.6658 8.55615 42.7493V40.841L10.1905 40.2049C10.1905 40.2049 16.4393 37.5546 27.5912 33.1019C38.9352 28.6493 57.5857 24.4087 57.5857 24.4087H58.4509C58.5471 24.4087 77.1014 28.6493 88.4455 33.1019C99.5973 37.5546 105.75 40.2049 105.846 40.2049L107.48 40.841V42.7493C107.288 60.6658 102.481 77.5222 94.6943 92.7884C85.8498 110.281 73.1598 125.441 59.5084 137.103L58.0664 138.375L56.6243 137.103C42.8768 125.441 30.1868 110.281 21.2462 92.7884Z" fill="#240347"/>
<path d="M29.5139 51.5486L14.6128 62.7862C14.6128 62.7862 21.2462 93.1065 36.7242 112.613C52.2021 132.12 58.6432 134.346 58.6432 134.346C58.6432 134.346 77.1976 117.384 86.5228 103.284C95.6558 89.1839 103.347 63.7403 103.347 63.7403L90.5605 63.1042L29.5139 51.5486Z" fill="#240347"/>
<path d="M92.9641 57.5914L93.5409 59.2876L83.062 52.9267L84.6002 52.6086L85.7538 53.2447L85.2731 53.8808L90.7529 57.1673L91.4259 56.5312L92.9641 57.5914Z" fill="#3875DA"/>
<path d="M85.2731 54.1989L83.062 52.9267L84.6002 52.6086L85.7538 53.2447L85.2731 53.8808L85.4654 53.9868L85.2731 54.1989Z" fill="#12EBFA"/>
<path d="M93.8289 59.9238L92.9637 60.6659L82.3887 54.5171L82.5809 53.2449L93.8289 59.9238Z" fill="#3875DA"/>
<path d="M93.8289 59.9238L93.3482 60.4539L84.3114 55.2592L84.1191 55.5772L82.3887 54.5171L82.5809 53.2449L93.8289 59.9238Z" fill="#12EBFA"/>
<path d="M90.6567 60.2417L73.8329 92.7883L71.9102 92.0462L89.1186 59.3936L90.6567 60.2417Z" fill="white"/>
<path d="M88.3492 58.8636L71.0446 91.8343L67.0069 89.608L66.2378 88.0178L83.4462 56.0012L88.3492 58.8636Z" fill="#C6C8C9"/>
<path d="M67.2953 89.714L67.0069 89.608L66.2378 88.0178L83.4462 56.0012L84.8882 56.8493L67.2953 89.714Z" fill="#12EBFA"/>
<path d="M29.4178 49.5342C29.4178 49.3221 29.4178 49.3221 29.4178 49.1101L33.3594 45.5056L40.5696 40.5229L38.8391 27.271L69.4105 33.2078L73.5444 41.0529L79.9855 45.5056L83.9271 49.1101C83.9271 49.3221 83.9271 49.3221 83.9271 49.5342L98.3475 59.6056C97.6746 61.8319 96.8094 64.8003 95.7519 68.7229C94.5982 72.6454 91.5219 77.8402 87.5803 83.1409C87.388 83.2469 87.0034 83.353 86.8112 83.459L82.1966 87.0635C79.2164 90.88 76.9091 95.4387 73.7366 99.0432C72.1023 100.951 70.2757 102.966 68.4491 104.768C65.565 107.63 62.9694 110.599 60.0853 113.567L58.2587 116.006L54.3171 111.659C51.5291 108.691 48.645 105.616 45.7609 102.754C43.9344 100.951 42.3 98.9372 40.4734 97.0289C37.2048 93.3184 34.0323 89.5018 30.9559 85.6853L29.0332 84.8372C24.3225 75.4018 19.708 64.5883 17.1123 57.9093L29.4178 49.5342ZM72.1984 38.9326L67.2955 32.0417L72.4869 38.9326C72.4869 38.9326 72.2946 38.9326 72.1984 38.9326Z" fill="#240347"/>
<path d="M42.5886 44.6575C42.5886 44.6575 41.6272 48.58 45.7611 56.8492C49.3181 64.0582 55.3747 67.9808 56.7206 68.8289C57.9704 67.4507 59.797 65.5424 61.4313 61.5139C63.0656 57.4853 63.4502 55.8951 63.4502 55.8951L58.355 60.7718V51.2304L60.47 53.2447C60.47 53.2447 62.0081 52.8206 64.8922 50.7003C67.8725 48.58 71.6218 44.9755 71.6218 44.9755L71.4295 44.7635C70.7565 45.2936 67.4879 47.8379 63.8347 49.2161C59.8931 50.7003 60.8545 50.0642 60.8545 50.0642L56.9129 49.3221L52.9713 50.0642C52.9713 50.0642 54.0288 50.7003 49.9911 49.2161C46.2418 47.6259 42.5886 44.6575 42.5886 44.6575Z" fill="#55526F"/>
<path d="M45.5688 56.6374C45.665 56.7434 45.665 56.8494 45.7611 56.8494C49.3182 64.1644 55.2786 68.087 56.7207 68.9351C57.9704 67.5569 59.797 65.6486 61.4313 61.6201C63.0657 57.5915 63.4502 56.0013 63.4502 56.0013L58.355 60.878V51.2306L60.47 53.2449C60.47 53.2449 62.0082 52.8208 64.8923 50.7005C67.8725 48.5802 71.6218 44.9757 71.6218 44.9757L71.4295 44.7637C70.7566 45.2937 67.4879 47.8381 63.8348 49.2163C59.8932 50.7005 60.8545 50.0644 60.8545 50.0644L56.9129 49.3223L57.2013 62.6802L59.7009 60.984L56.3361 65.9667C56.3361 65.9667 50.0873 61.9381 47.3954 58.9697C46.5302 58.1216 46.0495 57.2734 45.5688 56.6374Z" fill="#2D2846"/>
<path d="M53.6441 45.8237L45.2803 42.2192C45.2803 42.2192 48.7412 46.1418 50.1832 46.6719C51.8175 47.2019 53.6441 45.8237 53.6441 45.8237ZM60.0853 45.8237L68.4491 42.2192C68.4491 42.2192 64.9882 46.1418 63.5462 46.6719C61.9119 47.2019 60.0853 45.8237 60.0853 45.8237Z" fill="#FDDB34"/>
<path d="M56.9126 80.5965C56.9126 80.5965 51.1444 77.4161 47.7797 73.3875C44.3188 69.3589 42.9728 66.2845 42.9728 66.2845L44.8956 75.0838C44.8956 75.0838 42.2999 69.0409 40.954 64.9063C39.7042 60.8777 39.6081 57.9093 39.6081 57.9093L38.4544 60.5597C38.4544 60.5597 38.5506 58.3334 39.0313 56.6371C39.5119 54.8349 40.281 53.9868 40.281 53.9868L40.3772 50.3823L34.7051 54.1988C34.7051 54.1988 34.8974 56.1071 35.8588 60.0296C36.8201 63.9522 37.2047 65.0123 37.2047 65.0123C37.2047 65.0123 35.2819 62.786 33.936 59.4995C32.6863 55.895 32.2056 55.2589 32.2056 55.2589C32.2056 55.2589 31.6288 61.8319 34.9935 70.6311C38.3583 79.4304 48.6449 86.6394 48.6449 86.6394L47.9719 83.4589L56.8165 90.562L65.661 83.4589L64.9881 86.6394C64.9881 86.6394 75.3708 79.5364 78.6394 70.6311C82.0042 61.8319 81.3312 55.2589 81.3312 55.2589C81.3312 55.2589 80.9467 56.0011 79.6008 59.1815C78.2549 62.468 76.3322 64.6943 76.3322 64.6943C76.3322 64.6943 76.8128 63.7402 77.6781 59.7116C78.6394 55.789 78.8317 53.8808 78.8317 53.8808L73.1597 50.0642L73.2558 53.6687C73.2558 53.6687 74.0249 54.5168 74.5056 56.3191C74.9863 58.1214 75.0824 60.2417 75.0824 60.2417L73.9288 57.5913C73.9288 57.5913 73.8326 60.4537 72.5828 64.5883C71.3331 68.7229 68.8335 74.7657 68.8335 74.7657L70.6601 65.9665C70.6601 65.9665 69.4103 69.0409 65.8533 73.0695C62.6808 77.4161 56.9126 80.5965 56.9126 80.5965Z" fill="#FDDB34"/>
<path d="M56.9129 80.5967C56.9129 80.5967 51.1447 77.4163 47.78 73.3877C45.7611 71.0554 44.4152 68.9351 43.8384 67.6629C44.5113 71.9035 53.0675 82.399 57.0091 83.0351C60.47 82.505 69.3145 72.2215 70.1797 67.6629C69.5068 68.9351 68.1609 71.0554 66.2381 73.3877C62.6811 77.4163 56.9129 80.5967 56.9129 80.5967ZM39.4161 55.7892C39.8968 54.517 40.4736 53.8809 40.4736 53.8809L40.5697 50.2764L36.6281 52.9268L36.1475 53.1388L35.1861 53.7749L34.8977 53.987C34.8977 53.987 35.09 55.6832 35.8591 59.0757C36.6281 60.8779 37.4934 62.4682 38.2625 63.4223C40.2813 66.1787 40.3775 66.1787 40.3775 66.1787L45.4727 76.8862L44.8959 74.8719C44.4152 73.8118 42.2041 68.511 41.0504 64.9065C39.8006 60.8779 39.7045 57.9095 39.7045 57.9095L38.5509 60.5599C38.5509 60.5599 38.647 58.3336 39.1277 56.6373V56.5313V56.4253V56.3193L39.4161 55.7892ZM78.6397 53.6689L73.4484 50.1704L73.5445 53.7749C73.5445 53.7749 74.1213 54.411 74.602 55.6832V55.7892V55.8952V56.0012V56.1073V56.2133C75.0827 58.0155 75.1788 60.1358 75.1788 60.1358L74.0252 57.4854C74.0252 57.4854 73.929 60.3479 72.6793 64.5885C71.5256 68.193 69.3145 73.4937 68.8338 74.5539L68.257 76.5682L73.16 65.8606C73.16 65.8606 73.16 65.8606 75.275 63.1042C75.9479 62.1501 76.9093 60.5599 77.6784 58.7576C78.5436 55.2591 78.6397 53.6689 78.6397 53.6689ZM32.302 55.2591C32.302 55.2591 31.6291 61.8321 34.9938 70.6313C38.3586 79.4306 48.6452 86.6396 48.6452 86.6396L47.9722 83.4591L56.8168 90.5621L65.6613 83.4591L64.9884 86.6396C64.9884 86.6396 75.3711 79.5366 78.6397 70.6313C82.0045 61.8321 81.3316 55.2591 81.3316 55.2591C81.3316 55.2591 81.2354 64.6945 76.6209 71.6915C72.1986 78.6885 67.2956 82.399 67.2956 82.399L67.3918 79.1125L57.0091 87.2757L46.6263 79.1125L46.7225 82.399C46.7225 82.399 41.8195 78.7945 37.205 71.6915C32.3981 64.5885 32.302 55.2591 32.302 55.2591Z" fill="#EE7E24"/>
<path d="M33.936 61.0898C33.936 61.0898 34.3206 64.3763 37.6854 70.1011C41.0501 75.8259 45.5685 80.3846 45.5685 80.3846L46.4338 78.0522C46.4338 78.0522 49.1256 80.2786 51.3367 82.0808C53.5479 83.8831 54.1247 84.0951 54.1247 84.0951C54.1247 84.0951 50.1831 80.1725 48.2604 78.5823C46.4338 76.8861 45.8569 76.144 45.8569 76.144L45.184 78.6883C45.184 78.6883 39.2235 71.9034 37.1085 68.0868C34.9935 64.2703 33.936 61.0898 33.936 61.0898Z" fill="#FDDB34"/>
<path d="M34.2247 40.947L34.1286 37.2365C34.0325 35.3282 34.3209 32.8899 34.6093 30.9816C35.2822 26.635 36.7243 22.3944 39.1277 18.7899C40.6659 16.4576 42.4925 14.4433 44.3191 12.641C46.8186 10.2027 49.3182 7.97635 52.01 5.85605C53.1636 4.90191 54.5095 3.94778 55.8554 2.99364L56.5284 2.56958L57.2013 2.99364C58.2588 3.52372 59.3163 4.15981 60.1816 4.7959C61.912 5.85605 63.6425 7.02221 65.3729 8.18838C65.3729 8.18838 67.6802 9.24853 70.6604 12.429C71.4295 13.1711 72.2947 13.9132 72.8716 14.7613C74.3136 16.5636 75.7557 18.4718 76.8132 20.4861C77.0054 20.9102 77.39 21.5463 77.4861 22.0763C83.2543 33.1019 81.9084 58.0154 81.9084 58.0154L82.1007 58.7576L76.1402 49.5342C75.5634 48.6861 74.9866 47.732 74.3136 46.8839C72.9677 45.0816 71.6218 43.1733 70.0836 41.3711C68.7377 39.7809 66.9111 37.8726 65.1807 36.7064C63.3541 35.5403 61.3352 34.4801 59.4125 33.738C58.7395 33.526 58.1627 33.2079 57.4897 32.9959C56.24 33.526 54.8941 34.1621 53.5482 34.6921L54.4134 36.8124L53.2597 37.5545C52.2984 38.2966 51.337 38.9327 50.3757 39.6748C48.2607 41.2651 46.3379 42.8553 44.3191 44.6576C42.5886 46.2478 40.5697 48.2621 39.2238 50.2763C37.8779 52.5027 36.532 54.729 35.1861 56.8493C34.8016 57.5914 34.3209 58.3335 33.9363 59.1816L31.0522 64.8004L31.2445 58.3335C31.3407 56.8493 31.4368 55.2591 31.5329 53.7748C31.8213 50.4884 32.2059 47.2019 32.975 44.0215C33.6479 43.0673 33.9363 42.0072 34.2247 40.947Z" fill="#240347"/>
<path d="M77.7744 48.6861C77.7744 48.6861 71.141 38.5086 66.4303 35.5402C61.5274 32.5718 57.8742 31.6176 57.8742 31.6176C57.8742 31.6176 50.1833 34.6921 47.4915 36.8124C44.6074 38.8267 43.5499 40.5229 43.5499 40.5229C43.5499 40.5229 45.9533 39.2507 49.2219 38.0845C52.4906 36.8124 53.1635 36.6003 53.1635 36.6003C53.1635 36.6003 42.4924 43.8094 38.7431 49.7462C34.9937 55.683 33.4556 58.8635 33.4556 58.8635C33.4556 58.8635 33.6478 48.6861 35.9551 40.947C38.2624 33.2079 43.9344 25.7868 43.9344 25.7868C43.9344 25.7868 41.6272 26.847 39.3199 30.6635C36.8203 34.374 35.5706 37.2364 35.5706 37.2364C35.5706 37.2364 35.3783 27.483 40.3774 19.85C45.3765 12.2169 56.7206 4.47778 56.7206 4.47778C56.7206 4.47778 68.0647 10.7327 72.1024 15.8214C76.1401 20.8041 76.6208 23.0304 76.6208 23.0304C76.6208 23.0304 74.9865 20.168 71.9101 17.5176C68.8338 14.9733 64.4115 12.4289 64.4115 12.4289C64.4115 12.4289 67.3917 14.9733 69.2183 18.1537C71.0449 21.3342 73.0638 28.5432 73.0638 28.5432C73.0638 28.5432 72.0063 26.7409 68.5453 24.3026C65.0844 21.8642 61.0467 20.38 61.0467 20.38C61.0467 20.38 69.699 27.5891 73.3522 32.9958C77.0053 38.4026 77.2938 40.8409 77.2938 40.8409C77.2938 40.8409 75.6594 38.8267 73.0638 37.1304C70.4681 35.3282 68.5453 34.48 68.5453 34.48C68.5453 34.48 72.8715 38.4026 74.6981 41.583C76.3324 44.6575 77.7744 48.6861 77.7744 48.6861Z" fill="#55526F"/>
<path d="M57.6818 31.5116C57.6818 31.5116 49.9909 34.5861 47.2991 36.7064C44.415 38.7206 43.3575 40.4169 43.3575 40.4169C43.3575 40.4169 45.7609 39.1447 49.0296 37.9785C52.2982 36.8124 52.9711 36.4943 52.9711 36.4943C52.9711 36.4943 42.3 43.7033 38.5507 49.6402C34.8014 55.577 33.2632 58.7575 33.2632 58.7575C33.2632 58.7575 33.5516 48.58 35.8589 40.8409C38.1661 32.9958 43.742 25.5748 43.742 25.5748C43.742 25.5748 43.5498 25.6808 43.3575 25.7868L47.7798 22.2883C47.7798 22.2883 45.2802 23.9845 41.5309 31.2996C37.7816 38.7206 35.4743 50.3823 35.4743 50.3823C35.4743 50.3823 36.2434 48.58 38.743 45.9297C41.1464 43.2793 42.973 41.7951 42.973 41.7951L40.3773 42.4312C40.3773 42.4312 43.742 37.8725 48.8373 34.6921C53.7402 31.5116 57.6818 31.5116 57.6818 31.5116ZM37.1086 33.95C36.0511 35.8582 35.4743 37.1304 35.4743 37.1304C35.4743 37.1304 35.2821 27.377 40.2811 19.7439C45.2802 12.1109 56.7205 4.47778 56.7205 4.47778C56.7205 4.47778 49.0296 11.0507 43.1652 18.5778C38.4546 24.5146 37.3009 31.4056 37.1086 33.95Z" fill="#7E7F9D"/>
<path d="M30.379 53.4568C30.379 53.4568 29.2254 66.3906 36.3395 78.2643C43.4536 90.138 49.3179 94.8027 49.3179 94.8027L42.0116 83.5651C42.0116 83.5651 49.7986 91.3042 53.7402 93.7425C57.6818 96.1809 57.6818 96.1808 57.6818 96.1808C57.6818 96.1808 70.9486 88.1237 77.1975 79.5365C83.4463 70.9493 84.6961 59.3936 84.6961 59.3936C84.6961 59.3936 85.8497 63.6342 82.1004 74.3418C78.255 85.0493 75.5631 88.9718 75.5631 88.9718C75.5631 88.9718 77.8704 86.4275 80.8506 81.9748C83.8309 77.5222 85.2729 73.9177 85.2729 73.9177C85.2729 73.9177 82.485 84.5192 78.255 90.6681C74.025 97.029 74.025 97.029 74.025 97.029L78.6395 94.6966C78.6395 94.6966 71.91 103.814 66.8147 108.267C61.7195 112.719 59.0277 114.309 59.0277 114.309C59.0277 114.309 46.53 103.284 39.7043 94.6966C32.9747 86.0034 29.5138 78.0523 29.5138 78.0523C29.5138 78.0523 30.6675 82.0808 32.1095 86.1094C33.6477 90.138 34.4168 91.6222 34.4168 91.6222C34.4168 91.6222 30.0906 86.3214 25.8606 75.6139C21.7268 64.9064 21.2461 61.1959 21.2461 61.1959C21.2461 61.1959 23.0727 59.1816 24.1302 58.1215C25.1877 57.1673 25.1877 57.1673 25.1877 57.1673C25.1877 57.1673 26.7259 62.6801 27.3988 65.2245C28.0718 67.5568 29.0331 68.935 29.0331 68.935C29.0331 68.935 26.9181 58.0154 27.2065 56.4252C27.3988 54.835 30.379 53.4568 30.379 53.4568Z" fill="#55526F"/>
<path d="M42.0115 83.4591C42.0115 83.4591 49.7986 91.1982 53.7402 93.6365C57.6817 96.0749 57.6817 96.0749 57.6817 96.0749C57.6817 96.0749 70.9486 87.9117 77.2936 79.3245C83.5424 70.7373 84.7922 59.1816 84.7922 59.1816C84.7922 59.1816 85.9458 63.4222 82.1965 74.1298C78.3511 84.8373 75.6592 88.7598 75.6592 88.7598C75.6592 88.7598 77.9665 86.2155 80.9467 81.7628C83.927 77.3102 85.369 73.7057 85.369 73.7057C85.369 73.7057 82.5811 84.3072 78.3511 90.4561C74.0249 96.923 74.0249 96.923 74.0249 96.923L78.6395 94.5907C78.6395 94.5907 71.9099 103.708 66.8147 108.161C61.7195 112.613 59.0277 114.203 59.0277 114.203C59.0277 114.203 46.5299 103.284 39.7042 94.5907C36.0511 89.926 33.4554 85.4734 31.6288 82.2929C33.3592 85.1553 36.2433 89.1839 41.1463 93.7425C50.6638 102.86 56.8165 103.284 58.3547 103.496C59.8929 103.814 66.0456 100.634 66.0456 100.634C66.0456 100.634 60.3736 105.192 59.5083 105.51C58.6431 105.722 50.5677 102.436 50.5677 102.436L59.1238 109.963C59.1238 109.963 67.4877 103.92 69.6988 100.846C72.0061 97.7711 74.8902 91.8343 74.8902 91.8343L68.2567 97.5591C68.2567 97.5591 70.564 94.6967 73.4481 89.82C76.2361 84.8373 77.7743 81.4448 77.7743 81.4448C77.7743 81.4448 77.4858 81.6568 72.9674 86.8516C68.3529 92.1523 57.7779 98.7252 57.7779 98.7252C57.7779 98.7252 57.2011 98.0892 52.4904 94.8027C47.8758 91.5162 42.0115 83.4591 42.0115 83.4591ZM31.2442 83.7771C31.4365 84.5192 31.8211 85.2613 32.0133 86.1095C33.5515 90.138 34.3206 91.6222 34.3206 91.6222C34.3206 91.6222 29.9945 86.3215 25.7645 75.614C25.3799 74.5538 24.9954 73.4937 24.6108 72.6456C26.6297 76.2501 29.6099 81.1268 31.2442 83.7771Z" fill="#2D2846"/>
<path d="M30.379 53.4568C30.379 53.4568 29.2254 66.3906 36.3395 78.2643C43.4536 90.138 49.3179 94.8027 49.3179 94.8027C36.6279 85.5793 30.5713 73.9177 28.3602 57.4854L27.2065 58.2275C27.1104 57.4854 27.1104 56.8493 27.1104 56.4252C27.3988 54.835 30.379 53.4568 30.379 53.4568ZM21.919 64.0583C21.3422 61.938 21.2461 61.1959 21.2461 61.1959C21.2461 61.1959 23.0727 59.1816 24.1302 58.1215C25.1877 57.1673 25.1877 57.1673 25.1877 57.1673C25.1877 57.1673 25.38 58.1214 25.8606 59.4996L21.919 64.0583Z" fill="#7E7F9D"/>
<path d="M77.7745 48.6862C77.7745 48.6862 71.1411 38.5087 66.4304 35.5403C61.5274 32.5719 57.8742 31.6178 57.8742 31.6178C57.8742 31.6178 50.1833 34.6922 47.4915 36.8125C45.3765 38.2967 44.2229 39.6749 43.7422 40.205C43.9345 39.7809 44.7997 38.4027 47.107 36.2824C50.0872 33.42 55.1824 30.2396 57.1051 29.6035C59.0279 28.9674 65.6613 32.4659 65.6613 32.4659L62.4888 29.2854C62.4888 29.2854 63.4501 29.3914 65.2767 29.7095C67.0072 30.1335 68.5454 30.4516 68.5454 30.4516C68.5454 30.4516 59.0279 20.2741 58.1626 20.2741C57.2974 20.2741 49.5104 24.7268 49.5104 24.7268C49.5104 24.7268 56.9129 17.7298 58.1626 17.7298C59.4124 17.6238 68.8338 21.5463 68.8338 21.5463C68.8338 21.5463 68.8338 21.5463 67.1995 19.108C65.5651 16.6696 59.6047 9.56662 59.6047 9.56662C59.6047 9.56662 60.4699 9.67264 62.2004 10.2027C64.027 10.6268 65.7574 11.4749 65.7574 11.4749C65.7574 11.4749 65.0845 10.7328 63.354 9.24858C61.7197 7.87038 56.5283 4.26587 56.5283 4.26587C56.5283 4.26587 67.9686 10.7328 72.0063 15.8215C76.044 20.8042 76.5247 23.0305 76.5247 23.0305C76.5247 23.0305 74.8904 20.1681 71.814 17.5177C68.8338 14.9734 64.4115 12.429 64.4115 12.429C64.4115 12.429 67.3917 14.9734 69.2183 18.1538C71.0449 21.3343 73.0638 28.5433 73.0638 28.5433C73.0638 28.5433 72.0063 26.7411 68.5454 24.3027C65.0845 21.8644 61.0467 20.3802 61.0467 20.3802C61.0467 20.3802 69.699 27.5892 73.3522 32.9959C77.0054 38.4027 77.2938 40.8411 77.2938 40.8411C77.2938 40.8411 75.6595 38.8268 73.0638 37.1305C70.4681 35.3283 68.5454 34.4802 68.5454 34.4802C68.5454 34.4802 72.8715 38.4027 74.6981 41.5832C76.3324 44.6576 77.7745 48.6862 77.7745 48.6862Z" fill="#2D2846"/>
<path d="M20.6694 64.9063C20.8617 64.6943 21.054 64.4822 21.3424 64.2702C22.2076 63.4221 25.1878 62.892 29.3217 62.574C36.9165 69.783 54.9901 88.5477 54.9901 88.5477C54.9901 88.5477 45.761 93.3183 38.6469 96.8168C37.301 91.198 34.1285 77.7341 34.5131 75.9319C34.9938 73.5995 28.3603 65.2244 28.3603 65.2244C28.3603 65.2244 24.8033 65.1183 20.6694 64.9063Z" fill="#2D2846"/>
<path d="M36.9166 60.2417L32.975 57.8033C32.8788 57.5913 32.7827 57.5913 32.5904 57.4853L26.1493 53.4567C26.1493 53.1387 25.957 53.1387 25.8609 53.0327L17.8816 47.8379L18.5545 46.1417C18.7468 45.7176 18.5545 45.0815 18.0738 44.8695L11.9211 41.477C11.5366 41.265 11.152 41.371 10.8636 41.689L10.0945 42.6432C9.90223 42.5372 9.61382 42.5372 9.42155 42.6432L7.30655 43.8093L5.8645 42.8552L2.88428 48.262L3.07655 48.368C3.07655 48.58 3.26882 48.8981 3.4611 49.1101L3.55723 49.2161L4.71087 49.9582L5.19155 51.5484L4.32632 53.5627C4.13405 53.9868 4.23019 54.5169 4.61473 54.8349L12.0172 59.6056L11.825 59.9236C11.6327 60.3477 11.7288 60.9838 12.1134 61.1958L21.0541 67.3447C20.7656 67.3447 20.3811 67.4507 20.1888 67.5567C20.1888 67.5567 20.1888 67.5567 20.0927 67.5567C19.612 67.7687 19.2275 68.1928 18.9391 68.7229C18.6506 69.1469 18.4584 69.677 18.2661 70.1011C18.0738 70.8432 17.8815 71.7973 18.0738 72.5394C18.2661 73.2815 18.5545 73.9176 19.2275 74.3417C19.5159 74.5537 19.9004 74.6597 20.3811 74.6597C20.6695 74.6597 21.0541 74.6597 21.2463 74.6597C21.4386 74.7657 21.4386 74.7657 21.6309 74.8718C21.8231 74.9778 22.0154 75.0838 22.3038 75.0838C22.4961 75.1898 22.7845 75.2958 22.9768 75.2958L23.6497 75.5078C24.1304 75.6139 24.4188 75.7199 24.6111 75.7199C24.4188 75.9319 24.4188 76.0379 24.3227 76.25C24.2266 76.462 24.1304 76.568 24.1304 76.78C24.0343 76.78 24.0343 76.886 23.9381 76.886C23.7459 76.9921 23.6497 77.0981 23.4575 77.2041C22.9768 77.5221 22.5922 78.0522 22.3038 78.6883C22.1116 79.0063 22.1116 79.4304 22.1116 79.8545V80.0665C21.9193 80.2785 21.8231 80.3845 21.6309 80.5966L19.9004 82.9289C19.612 83.2469 19.7081 83.883 19.9004 84.2011C19.9004 84.4131 19.9004 84.7312 19.9965 84.9432C20.0927 85.2612 20.1888 85.5793 20.285 85.7913C20.3811 85.8973 20.4772 86.0033 20.4772 86.1093L20.7656 90.0319C20.7656 90.35 20.9579 90.668 21.2463 90.774L30.187 95.7567C30.187 95.7567 30.5716 95.9688 31.0522 96.3928L31.1484 96.4988C31.3406 96.7109 31.4368 96.7109 31.6291 96.7109C31.8213 96.9229 32.2059 97.0289 32.3981 97.2409C33.2634 97.771 38.2625 97.771 38.2625 97.771L38.647 97.983L40.5697 99.3612C40.8581 99.5733 41.2427 99.5733 41.6272 99.3612L42.4925 98.6191C43.4538 97.877 44.5113 96.8169 45.3766 95.6507C46.2418 94.4845 47.107 93.3184 47.78 92.0462C48.4529 90.774 48.9336 89.2898 49.4143 87.6996C49.7988 86.1093 50.0872 84.3071 50.2795 82.8229L50.3756 81.7627C50.3756 81.3387 50.1834 81.0206 49.895 80.8086L41.3388 75.2958L41.435 75.1898C41.5311 74.9778 41.6272 74.8718 41.6272 74.6597V63.7402C41.6272 63.4221 41.435 62.9981 41.1466 62.8921L36.9166 60.2417Z" fill="#240347"/>
<path d="M38.0701 64.0583V71.3734L39.2237 72.1155V64.8004L38.0701 64.0583ZM29.8024 66.6027L29.2256 67.7689L30.1869 69.4651L38.6469 74.6598L38.9353 73.0696L29.8024 66.6027ZM15.8626 57.4854L14.709 59.7117L15.2858 60.0298L15.9587 59.0756L16.6317 59.2877C16.6317 59.2877 16.3433 59.8177 15.9587 60.4538L16.824 61.0899L17.3047 60.1358L17.7853 60.4538L17.2085 61.408L18.0737 62.0441L18.3622 61.1959L19.0351 61.408L18.6506 62.4681L29.2256 69.7831L28.1681 68.2989L28.9372 66.6027L15.8626 57.4854ZM7.78715 51.5486L7.1142 53.1388L14.1321 57.6974L14.8051 56.9553L8.07556 52.6087L8.4601 51.8666L7.69101 51.4426L7.78715 51.5486ZM10.9596 45.6117L11.921 44.4456L15.8626 46.6719L12.0172 45.3997L11.4403 46.0358L10.9596 45.6117ZM7.21033 46.0358L6.15283 47.838L22.7844 58.4395V60.6659L23.7458 61.408V57.3794L7.21033 46.0358ZM23.8419 54.729L23.6497 56.5313L8.07556 46.2478L9.61374 45.5057L23.8419 54.729ZM30.7637 59.2877V66.2847L24.2265 61.832L24.4187 55.3651L30.7637 59.2877ZM31.2444 59.6057V66.6027L32.3981 67.3448V60.3478L31.2444 59.6057ZM32.5903 60.4538V67.4508L33.744 68.1929V61.0899L32.5903 60.4538ZM33.9362 61.408V68.511L35.0899 69.2531V62.1501L33.9362 61.408ZM35.3783 62.2561V69.3591L36.5319 70.1012V62.8922L35.3783 62.2561ZM36.7242 63.2102V70.4192L37.8778 71.1613V63.9523L36.7242 63.2102Z" fill="#55526F"/>
<path d="M38.0701 69.147V71.3733L39.2237 72.1154V69.8891L38.0701 69.147ZM6.44124 47.3079L23.7458 58.4394V61.4079L22.7844 60.6658V58.4394L6.15283 47.7319L6.44124 47.3079ZM24.3226 59.8176L30.7637 64.3763V66.1785L24.2265 61.7259L24.3226 59.8176ZM31.2444 64.5883L32.3981 65.3304V67.3447L31.2444 66.6026V64.5883ZM32.5903 65.5424L33.744 66.2846V68.2988L32.5903 67.5567V65.5424ZM33.9362 66.4966L35.0899 67.2387V69.359L33.9362 68.6169V66.4966ZM35.3783 67.3447L36.5319 68.0868V70.2071L35.3783 69.465V67.3447ZM36.7242 68.2988L37.8778 69.0409V71.1612L36.7242 70.4191V68.2988ZM30.3792 66.9206L30.1869 67.6627L30.5715 68.5109L38.7431 73.4936L38.5508 74.3417L30.1869 69.147L29.2256 67.4507L29.8024 66.2846L30.3792 66.9206ZM7.21033 52.9267L14.4206 57.3793L14.1321 57.6973L7.1142 53.1387L7.21033 52.9267ZM15.3819 58.3334L28.5526 67.2387L28.1681 68.0868L29.2256 69.571L18.7467 62.362L19.1312 61.3018L18.4583 61.0898L18.1699 61.9379L17.3047 61.3018L17.8815 60.3477L17.3047 60.1357L16.6317 61.0898L15.8626 60.5597C16.2472 59.9237 16.5356 59.3936 16.5356 59.3936L15.8626 59.1815L15.1897 60.1357L14.6128 59.8176L15.3819 58.3334Z" fill="#2D2846"/>
<path d="M38.0703 64.0583V64.9065L39.2239 65.6486V64.8004L38.0703 64.0583ZM37.7819 64.6944L36.6282 63.9523V63.1042L37.7819 63.8463V64.6944ZM36.3398 63.8463L35.1862 63.1042V62.3621L36.3398 63.1042V63.8463ZM34.9939 62.9982L33.8403 62.2561V61.514L34.9939 62.2561V62.9982ZM33.648 62.0441L32.4944 61.3019V60.5598L33.648 61.3019V62.0441ZM32.206 61.0899L31.0523 60.3478V59.6057L32.206 60.3478V61.0899ZM30.7639 60.1358L24.5151 56.0012V55.3651L30.7639 59.2877V60.1358ZM23.8421 55.4711L9.03711 45.8238L9.61393 45.6117L23.8421 54.835V55.4711ZM10.9598 45.6117L11.9212 44.4456L15.8628 46.6719L12.0173 45.3997L11.4405 46.0358L10.9598 45.6117Z" fill="#7E7F9D"/>
<path d="M27.6874 69.9951L26.1493 73.3876C26.1493 73.3876 22.3999 72.5394 22.3999 72.3274C22.3999 72.1154 23.169 71.9033 23.0729 71.9033C22.9768 71.9033 20.7656 72.2214 20.4772 72.1154C20.1888 72.0094 20.6695 70.1011 21.1502 69.8891C21.5347 69.783 27.6874 69.9951 27.6874 69.9951Z" fill="#55526F"/>
<path d="M38.6469 76.2499C38.6469 76.2499 33.8401 72.3273 32.0135 71.2671C30.283 70.313 29.0332 70.419 29.0332 70.419C29.0332 70.419 27.3989 73.3875 27.3989 73.7055C27.4951 73.9175 28.168 74.1296 28.168 74.1296L28.7448 73.2814L28.841 73.9175L31.9173 75.6138C31.9173 75.6138 34.7053 75.8258 36.8203 76.1438C39.0314 76.5679 38.6469 76.2499 38.6469 76.2499Z" fill="#FEC013"/>
<path d="M38.1663 78.5823L35.0899 81.2327C35.0899 81.2327 28.9372 79.5365 27.399 79.5365C25.8609 79.5365 24.8034 80.1726 24.7072 79.8545C24.6111 79.6425 26.0531 78.7944 26.7261 78.5823C27.399 78.3703 27.6874 78.1583 27.6874 78.1583C27.6874 78.1583 26.7261 78.1583 26.5338 78.1583C26.3415 78.0523 27.0145 76.8861 28.1681 76.8861C29.1295 76.5681 38.1663 78.5823 38.1663 78.5823Z" fill="#FEC013"/>
<path d="M34.0326 81.9748C33.9364 82.1869 31.7253 84.9432 31.7253 84.9432C31.7253 84.9432 27.2069 84.2011 25.188 84.2011C23.1692 84.3072 22.2078 84.4132 22.4001 84.4132C22.5923 84.3072 23.1692 83.7771 24.0344 83.247C24.8996 82.8229 25.2842 82.6109 25.2842 82.6109L23.4576 82.2929C23.4576 82.2929 24.3228 81.2327 26.3417 81.1267C28.3605 81.1267 34.0326 81.9748 34.0326 81.9748Z" fill="#FEC013"/>
<path d="M30.4756 86.0032C30.5717 86.4273 29.8026 90.8799 29.8026 90.8799C29.8026 90.8799 28.4567 89.1837 28.2644 89.1837C28.0722 89.0777 24.8997 88.9717 24.8997 88.9717L25.7649 90.3498L22.9769 88.8656L22.7847 86.3213C22.7847 86.3213 23.2653 85.8972 25.1881 85.8972C27.3031 85.8972 30.4756 86.0032 30.4756 86.0032Z" fill="#FEC013"/>
<path d="M40.1851 77.6282C40.1851 77.6282 32.0135 86.2154 31.7251 86.7455C31.4367 87.2755 36.1474 94.9086 36.1474 94.9086H37.301C37.301 94.9086 35.3783 92.4703 35.9551 92.7883C36.5319 93.1064 41.2426 96.7109 41.2426 96.7109C41.2426 96.7109 44.0306 94.3785 45.8572 90.8801C47.6838 87.4876 47.9722 82.9289 47.9722 82.9289L40.1851 77.6282ZM37.301 88.9718C37.7817 89.8199 41.1465 93.9545 41.1465 93.9545C41.1465 93.9545 40.2813 93.7425 38.7431 92.4703C37.1088 91.1981 34.6092 88.1237 34.6092 88.1237L40.9542 79.3244L42.1079 80.5966C42.1079 80.5966 36.8204 88.1237 37.301 88.9718Z" fill="#FEC013"/>
<path d="M32.5905 85.7913C32.1098 86.3213 31.8214 86.5334 31.7253 86.6394C31.533 87.0634 36.1476 94.8025 36.1476 94.8025H37.3012C37.3012 94.8025 35.3785 92.3642 35.9553 92.6822C36.5321 93.0003 41.2428 96.6048 41.2428 96.6048C41.2428 96.6048 41.7235 96.1807 42.3964 95.4386L41.3389 94.6965C41.3389 94.6965 40.666 94.4845 39.6085 93.8484C38.4548 93.2123 35.2823 90.0319 35.2823 90.0319V90.4559C35.2823 90.4559 34.5132 90.1379 34.2248 89.2898C33.9364 88.9717 33.0712 86.8514 32.5905 85.7913ZM35.4746 76.0379C33.9364 75.1897 30.4755 73.1755 30.1871 72.8574C29.8987 72.4334 29.9948 71.5852 29.9948 71.5852L30.4755 70.8431C29.5142 70.6311 28.9373 70.6311 28.9373 70.6311C28.9373 70.6311 27.303 73.5995 27.303 73.9176C27.3992 74.1296 28.0721 74.3416 28.0721 74.3416L28.6489 73.4935L28.7451 74.1296L31.8214 75.8258C31.8214 75.6138 33.648 75.7198 35.4746 76.0379ZM28.0721 76.674H28.2644C28.2644 76.674 27.5914 77.204 27.7837 77.4161C27.976 77.6281 28.8412 77.9461 28.8412 77.9461C28.8412 77.9461 27.6876 78.6882 27.8798 78.7943C28.0721 78.7943 34.8978 79.6424 36.436 80.0664L35.1862 81.2326C35.1862 81.2326 29.0335 79.5364 27.4953 79.5364C25.9571 79.5364 24.8996 80.1725 24.8035 79.8544C24.7073 79.6424 26.1494 78.7943 26.8223 78.5822C27.4953 78.3702 27.7837 78.1582 27.7837 78.1582C27.7837 78.1582 26.8223 78.1582 26.6301 78.1582C26.2455 77.9461 26.9185 76.78 28.0721 76.674ZM25.5726 81.2326C25.4764 82.0807 26.6301 82.6108 26.6301 82.6108C26.6301 82.6108 25.861 83.0349 25.9571 83.1409C26.0532 83.2469 31.0523 83.3529 32.8789 83.3529C32.6867 83.883 31.7253 84.9431 31.7253 84.9431C31.7253 84.9431 27.2069 84.201 25.188 84.201C23.1692 84.201 22.2078 84.4131 22.4001 84.4131C22.5923 84.307 23.1692 83.777 24.0344 83.2469C24.8996 82.8228 25.2842 82.6108 25.2842 82.6108L23.4576 82.2928C23.4576 82.3988 24.1305 81.5507 25.5726 81.2326ZM24.2267 85.8973C23.9382 86.2153 23.6498 86.6394 23.746 86.8514C23.8421 87.2755 24.6112 88.1236 24.6112 88.1236C24.6112 88.1236 28.5528 88.2296 28.9373 88.3356C29.1296 88.3356 29.418 88.3356 29.7064 88.2296C29.8026 89.5018 29.8987 90.88 29.8987 90.88C29.8987 90.88 28.5528 89.1837 28.4567 89.1837C28.2644 89.0777 25.0919 88.9717 25.0919 88.9717L25.9571 90.2439L23.1692 88.7597L22.9769 86.2153C22.8807 86.3213 23.1692 86.0033 24.2267 85.8973ZM42.108 80.5965L42.5887 81.3386C42.5887 81.3386 39.993 86.1093 39.8969 87.0634C39.8008 88.0176 42.781 93.1063 42.781 93.1063L41.1467 93.9544C41.1467 93.9544 37.878 89.9258 37.3012 88.9717C36.8205 88.1236 42.108 80.5965 42.108 80.5965Z" fill="#FA6F19"/>
<path d="M58.3548 86.4274C58.5471 86.3214 58.6432 86.2154 58.8355 86.2154C59.7968 85.7913 60.8543 85.2613 61.8157 84.8372C63.45 84.0951 65.1805 83.353 66.8148 82.6109L68.0646 82.0808L75.3709 99.0432L68.9298 104.45L69.1221 104.556L55.7591 115.582L46.2416 105.934C46.2416 105.934 37.9739 99.2552 32.398 100.633C31.4366 100.845 30.5714 101.058 29.8023 101.27C29.61 100.845 29.3216 100.527 29.0332 100.103C29.5139 99.8913 29.8984 99.8913 30.3791 99.6793C31.9173 99.1492 33.5516 98.4071 34.9937 97.665C37.3009 96.6049 39.5121 95.4387 41.7232 94.2725C45.8571 92.1522 49.8948 89.9259 54.0287 87.6996L56.5282 86.8515L58.3548 86.4274Z" fill="#240347"/>
<path d="M67.3917 84.095C67.3917 84.095 57.2974 89.6078 56.1437 90.5619C54.9901 91.516 51.6253 98.089 51.6253 99.1491C51.6253 100.209 55.0862 102.012 55.0862 102.012C55.0862 102.012 51.0485 101.375 49.8949 100.315C48.7412 99.2551 52.4905 90.2438 52.4905 90.2438C52.4905 90.2438 35.5705 99.5732 30.8599 101.163L29.9946 101.375C33.071 105.934 36.9164 111.553 40.6658 116.218C44.0305 116.006 53.3558 115.157 53.3558 115.157L66.0458 104.768C66.0458 104.768 63.9308 104.026 63.1617 101.269C62.3926 98.513 62.2003 97.4529 62.2003 97.4529C62.2003 97.4529 63.7385 100.315 65.5651 101.799C67.3917 103.284 67.6801 103.284 67.6801 103.284L73.8328 98.301L67.3917 84.095Z" fill="#55526F"/>
<path d="M64.3153 85.8972C61.2389 87.5935 56.9128 90.0318 56.1437 90.6679C55.9514 90.8799 55.4708 91.41 54.9901 92.0461C57.1051 91.0919 64.3153 87.5935 64.3153 87.5935V85.8972ZM53.8364 102.011C52.5867 101.799 50.6639 101.269 49.8949 100.633C48.7412 99.5732 52.4905 90.5619 52.4905 90.5619C52.4905 90.5619 35.5705 99.6792 30.8599 101.269L29.9946 101.481C30.1869 101.693 30.1869 101.905 30.3792 102.118C32.1096 102.011 34.1285 101.799 35.8589 100.845C40.7619 98.407 50.2794 93.4243 50.2794 93.4243C50.2794 93.4243 47.6837 99.2551 48.1644 100.527C48.5489 102.011 53.9326 102.118 53.8364 102.011C53.9326 102.011 53.9326 102.118 53.8364 102.011Z" fill="#7E7F9D"/>
<path d="M66.5266 84.7312C65.8536 85.1553 64.7961 85.6853 63.5464 86.4274C63.6425 87.1695 64.0271 88.4417 65.6614 91.4101C68.5455 96.9229 70.2759 98.8312 70.2759 98.8312C70.2759 98.8312 66.5266 101.164 65.373 101.906C65.4691 101.906 65.4691 102.012 65.5652 102.012C67.3918 103.496 67.6802 103.496 67.6802 103.496L73.833 98.5132L73.6407 98.1951C72.0064 96.4989 67.3918 91.6222 67.1996 88.6538C66.815 86.3214 66.6227 85.1553 66.5266 84.7312ZM55.0864 91.9402C53.6443 94.2725 51.6255 98.3011 51.6255 99.2553C51.6255 100.421 55.0864 102.118 55.0864 102.118C55.0864 102.118 54.4134 102.012 53.4521 101.8C55.9516 102.754 59.7971 101.8 59.7971 101.8C59.7971 101.8 54.8941 100.527 54.0289 98.3011C53.5482 96.8169 54.4134 93.7425 55.0864 91.9402ZM49.0298 115.794C51.5293 115.582 53.4521 115.476 53.4521 115.476L66.0459 105.086C66.0459 105.086 63.9309 104.344 63.1618 101.588C62.3927 98.8312 62.2005 97.771 62.2005 97.771C62.2005 97.771 61.4314 97.453 61.9121 100.633C62.3927 103.814 62.585 104.556 62.585 104.556L49.3182 115.476L49.0298 115.794ZM62.2005 97.665C62.2005 97.665 62.4889 98.3011 63.0657 99.0432C62.585 98.3011 62.2005 97.665 62.2005 97.665Z" fill="#2D2846"/>
<path d="M78.8321 60.2417L82.7737 57.8033C82.8698 57.5913 82.9659 57.5913 83.1582 57.4853L89.5994 53.4567C89.6955 53.2447 89.7916 53.2447 89.8878 53.1387L97.8671 47.9439L97.1941 46.2477C97.0019 45.8236 97.1941 45.1875 97.6748 44.9755L103.828 41.477C104.212 41.265 104.597 41.371 104.885 41.689L105.654 42.6432C105.846 42.5372 106.135 42.5372 106.327 42.6432L108.442 43.8093L109.884 42.8552L112.864 48.262L112.768 48.368C112.768 48.58 112.576 48.8981 112.384 49.1101L112.288 49.2161L111.134 49.9582L110.557 51.5484L111.422 53.5627C111.615 53.9868 111.518 54.5169 111.134 54.8349L103.731 59.6056L103.924 59.9236C104.116 60.3477 104.02 60.9838 103.635 61.1958L94.5984 67.3447C94.8869 67.3447 95.2714 67.4507 95.4637 67.5567C95.4637 67.5567 95.4637 67.5567 95.5598 67.5567C96.0405 67.7687 96.425 68.1928 96.7134 68.7229C96.9057 69.1469 97.1941 69.677 97.3864 70.1011C97.5787 70.8432 97.7709 71.7973 97.5787 72.5394C97.3864 73.2815 97.098 73.9176 96.425 74.3417C96.1366 74.5537 95.7521 74.6597 95.2714 74.6597C94.983 74.6597 94.5984 74.6597 94.4062 74.6597C94.2139 74.7657 94.2139 74.7657 94.0216 74.8717C93.8294 74.9778 93.6371 75.0838 93.3487 75.0838C93.1564 75.1898 92.868 75.2958 92.6757 75.2958L92.0028 75.4018C91.5221 75.5078 91.2337 75.6139 91.0414 75.6139C91.2337 75.8259 91.2337 75.9319 91.3298 76.1439C91.4259 76.356 91.5221 76.462 91.5221 76.674C91.6182 76.674 91.6182 76.78 91.7144 76.78C91.9066 76.886 92.0028 76.992 92.195 77.0981C92.6757 77.4161 93.0603 77.9462 93.3487 78.5823C93.5409 78.9003 93.5409 79.3244 93.5409 79.7484L93.6371 79.8545C93.8294 80.0665 93.9255 80.1725 94.1178 80.3845L95.8482 82.7169C96.1366 83.0349 96.0405 83.671 95.7521 83.989C95.7521 84.2011 95.7521 84.5191 95.6559 84.7312C95.5598 85.0492 95.4637 85.3672 95.3675 85.5793C95.1753 85.6853 95.1753 85.8973 95.0791 86.0033L94.7907 89.9259C94.7907 90.2439 94.5984 90.562 94.31 90.668L85.3694 95.5447C85.3694 95.5447 84.9848 95.7567 84.5041 96.1808L84.408 96.2868C84.2157 96.4988 84.1196 96.4988 83.9273 96.4988C83.735 96.7108 83.3505 96.8169 83.1582 97.0289C82.293 97.559 77.2939 97.559 77.2939 97.559L76.9094 97.771L74.9866 99.1492C74.6982 99.3612 74.3137 99.3612 73.9291 99.1492L73.0639 98.4071C72.1025 97.665 71.045 96.6048 70.1798 95.4387C69.3146 94.2725 68.4494 93.1063 67.7764 91.8342C67.1034 90.562 66.6228 89.0778 66.1421 87.4875C65.7575 85.8973 65.4691 84.0951 65.2769 82.6108L65.4691 81.8687C65.4691 81.4447 65.6614 81.1266 65.9498 80.9146L74.5059 75.4018L74.4098 75.2958C74.3137 75.0838 74.2175 74.9778 74.2175 74.7657V63.7402C74.2175 63.4221 74.4098 62.9981 74.6982 62.892L78.8321 60.2417Z" fill="#240347"/>
<path d="M77.6785 64.0583V71.3734L76.5249 72.1155V64.8004L77.6785 64.0583ZM85.9463 66.6027L86.5231 67.7689L85.5617 69.4651L77.1017 74.6598L76.8133 73.0696L85.9463 66.6027ZM99.886 57.4854L101.04 59.7117L100.463 60.0298L99.7899 59.0756L99.1169 59.2877C99.1169 59.2877 99.4054 59.8177 99.7899 60.4538L98.9247 61.0899L98.444 60.1358L97.9633 60.4538L98.444 61.408L97.5788 62.0441L97.2904 61.1959L96.6174 61.408L97.002 62.4681L86.5231 69.7831L87.5806 68.2989L86.8115 66.6027L99.886 57.4854ZM107.961 51.5486L108.634 53.2448L101.616 57.8035L100.944 57.0613L107.673 52.7147L107.289 51.9726L107.961 51.5486ZM104.789 45.6117L103.828 44.4456L99.886 46.6719L103.731 45.3997L104.212 46.0358L104.789 45.6117ZM108.538 46.0358L109.596 47.838L92.9642 58.4395V60.6659L92.0029 61.408V57.3794L108.538 46.0358ZM91.9067 54.729L92.099 56.5313L107.673 46.2478L106.135 45.5057L91.9067 54.729ZM84.9849 59.2877V66.2847L91.5222 61.832L91.2338 55.2591L84.9849 59.2877ZM84.6004 59.6057V66.6027L83.4467 67.3448V60.3478L84.6004 59.6057ZM83.1583 60.4538V67.4508L82.0047 68.1929V61.0899L83.1583 60.4538ZM81.8124 61.408V68.511L80.7549 69.2531V62.1501L81.8124 61.408ZM80.3704 62.2561V69.3591L79.3129 70.1012V62.8922L80.3704 62.2561ZM79.0244 63.2102V70.4192L77.9669 71.1613V63.9523L79.0244 63.2102Z" fill="#55526F"/>
<path d="M77.6785 69.147V71.3733L76.5249 72.1154V69.8891L77.6785 69.147ZM109.307 47.3079L92.0029 58.4394V61.4079L92.9642 60.6658V58.4394L109.596 47.7319L109.307 47.3079ZM91.426 59.8176L84.9849 64.3763V66.1785L91.5222 61.7259L91.426 59.8176ZM84.6004 64.5883L83.4467 65.3304V67.3447L84.6004 66.6026V64.5883ZM83.1583 65.5424L82.0047 66.2846V68.2988L83.1583 67.5567V65.5424ZM81.8124 66.4966L80.7549 67.2387V69.359L81.9085 68.6169V66.4966H81.8124ZM80.3704 67.3447L79.2167 68.0868V70.2071L80.3704 69.465V67.3447ZM79.0244 68.2988L77.8708 69.0409V71.1612L79.0244 70.4191V68.2988ZM85.4656 66.9206L85.6579 67.6627L85.2733 68.5109L77.1017 73.4936L77.294 74.3417L85.754 69.147L86.7154 67.4507L86.1385 66.2846L85.4656 66.9206ZM108.634 52.9267L101.424 57.3793L101.713 57.6973L108.731 53.1387L108.634 52.9267ZM100.367 58.3334L87.196 67.2387L87.5806 68.0868L86.5231 69.677L97.002 62.468L96.6174 61.4079L97.2904 61.1958L97.5788 62.044L98.444 61.4079L97.9633 60.4537L98.444 60.1357L98.9247 61.0898L99.7899 60.4537C99.4054 59.8176 99.1169 59.2876 99.1169 59.2876L99.7899 59.0755L100.463 60.0297L101.04 59.7116L100.367 58.3334Z" fill="#2D2846"/>
<path d="M77.6785 64.0583V64.9065L76.5249 65.6486V64.8004L77.6785 64.0583ZM78.0631 64.6944L79.2167 63.9523V63.1042L78.0631 63.8463V64.6944ZM79.409 63.8463L80.5626 63.1042V62.3621L79.409 63.1042V63.8463ZM80.7549 62.9982L81.9085 62.2561V61.514L80.7549 62.1501V62.9982ZM82.1008 62.0441L83.2544 61.3019V60.5598L82.1008 61.3019V62.0441ZM83.5429 61.0899L84.6965 60.3478V59.6057L83.5429 60.3478V61.0899ZM84.9849 60.1358L91.2338 56.0012V55.3651L84.9849 59.2877V60.1358ZM92.0029 55.4711L106.712 45.7177L106.135 45.5057L91.9067 54.835L92.0029 55.4711ZM104.789 45.6117L103.828 44.4456L99.886 46.6719L103.731 45.3997L104.212 46.0358L104.789 45.6117Z" fill="#7E7F9D"/>
<path d="M88.061 69.9951L89.5031 73.3876C89.5031 73.3876 93.2524 72.5394 93.2524 72.3274C93.2524 72.1154 92.4833 71.9033 92.5794 71.9033C92.6756 71.9033 94.8867 72.2214 95.1751 72.1154C95.4635 71.9033 94.9829 70.1011 94.5022 69.8891C94.2138 69.783 88.061 69.9951 88.061 69.9951Z" fill="#55526F"/>
<path d="M77.1017 76.2499C77.1017 76.2499 81.9085 72.3273 83.7351 71.2671C85.4655 70.313 86.7153 70.419 86.7153 70.419C86.7153 70.419 88.3496 73.3875 88.3496 73.7055C88.2535 73.9175 87.5805 74.1296 87.5805 74.1296L87.0999 73.2814L87.0037 73.9175L83.9274 75.6138C83.9274 75.6138 81.1394 75.8258 79.0244 76.1438C76.7171 76.5679 77.1017 76.2499 77.1017 76.2499Z" fill="#FEC013"/>
<path d="M78.063 77.522L81.3316 80.9145C81.3316 80.9145 86.9075 79.5363 88.4457 79.5363C89.9839 79.5363 91.0414 80.1724 91.1375 79.8544C91.2337 79.6423 89.7916 78.7942 89.1187 78.5822C88.4457 78.3702 88.1573 78.1581 88.1573 78.1581C88.1573 78.1581 89.1187 78.1581 89.3109 78.1581C89.5032 78.0521 88.8303 76.886 87.6766 76.886C86.6191 76.5679 78.063 77.522 78.063 77.522Z" fill="#FEC013"/>
<path d="M81.9082 82.0807C82.1005 82.2927 84.6 84.9431 84.6 84.9431C84.6 84.9431 88.5416 84.201 90.5605 84.307C92.5793 84.413 93.5407 84.5191 93.3484 84.5191C93.1562 84.413 92.5793 83.883 91.7141 83.3529C90.8489 82.9288 90.4643 82.7168 90.4643 82.7168L92.2909 82.3988C92.2909 82.3988 91.5218 81.3386 89.4068 81.2326C87.388 81.1266 81.9082 82.0807 81.9082 82.0807Z" fill="#FEC013"/>
<path d="M84.9847 86.0032C84.8886 86.4273 85.9461 90.8799 85.9461 90.8799C85.9461 90.8799 87.292 89.1837 87.4842 89.1837C87.6765 89.0777 90.849 88.9717 90.849 88.9717L89.9838 90.3498L92.7717 88.8656L92.964 86.3213C92.964 86.3213 92.4833 85.8972 90.5606 85.8972C88.4456 85.8972 84.9847 86.0032 84.9847 86.0032Z" fill="#FEC013"/>
<path d="M84.1196 86.6393C83.9273 86.2153 76.1403 76.9919 76.1403 76.9919L67.8726 83.0348C67.8726 83.0348 68.161 87.4874 69.9876 90.9859C71.8142 94.4844 74.6021 96.8168 74.6021 96.8168C74.6021 96.8168 79.3128 93.3183 79.8896 92.8942C80.4664 92.5762 78.5437 95.0145 78.5437 95.0145H79.6973C79.6012 94.9085 84.408 87.0634 84.1196 86.6393ZM77.1016 92.3641C75.4673 93.6363 74.6982 93.8483 74.6982 93.8483C74.6982 93.8483 77.9669 89.8198 78.5437 88.8656C79.0244 88.0175 73.833 80.4904 73.833 80.4904L75.4673 78.7942L81.2355 88.0175C81.3317 88.1235 78.6398 91.198 77.1016 92.3641Z" fill="#FEC013"/>
<path d="M83.1582 85.7913C83.6389 86.3213 83.9273 86.5334 84.0235 86.6394C84.2157 87.0634 79.6012 94.8025 79.6012 94.8025H78.4475C78.4475 94.8025 80.3703 92.3642 79.7935 92.6822C79.2166 93.0003 74.506 96.6048 74.506 96.6048C74.506 96.6048 74.0253 96.2867 73.3523 95.5446L74.4098 94.8025C74.4098 94.8025 75.0828 94.5905 76.1403 93.9544C77.2939 93.3183 80.4664 90.1379 80.4664 90.1379V90.5619C80.4664 90.5619 81.2355 90.2439 81.5239 89.3958C81.8123 88.9717 82.6775 86.8514 83.1582 85.7913ZM80.2741 76.0379C81.8123 75.1897 85.2732 73.1755 85.5616 72.8574C85.85 72.4334 85.7539 71.5852 85.7539 71.5852L85.2732 70.8431C86.2346 70.6311 86.8114 70.6311 86.8114 70.6311C86.8114 70.6311 88.4457 73.5995 88.4457 73.9176C88.3496 74.1296 87.6766 74.3416 87.6766 74.3416L87.0998 73.4935L87.0037 74.1296L83.9273 75.8258C83.9273 75.6138 82.1007 75.7198 80.2741 76.0379ZM87.7728 76.674H87.5805C87.5805 76.674 88.2535 77.204 88.0612 77.4161C87.8689 77.6281 87.0037 77.9461 87.0037 77.9461C87.0037 77.9461 88.1573 78.6882 87.965 78.7943C87.7728 78.7943 81.7162 79.2183 80.0819 79.5364L81.3316 80.8085C81.3316 80.8085 86.9075 79.4304 88.4457 79.4304C89.9839 79.4304 91.0414 80.0664 91.1375 79.7484C91.2337 79.5364 89.7916 78.6882 89.1187 78.4762C88.4457 78.2642 88.1573 78.0522 88.1573 78.0522C88.1573 78.0522 89.1187 78.0522 89.311 78.0522C89.5032 77.9461 88.8303 76.78 87.7728 76.674ZM90.1762 81.2326C90.2723 82.0807 89.1187 82.6108 89.1187 82.6108C89.1187 82.6108 89.8878 83.0349 89.7916 83.1409C89.5994 83.2469 85.85 83.883 84.1196 83.883C84.3119 84.307 84.6003 84.6251 84.6003 84.6251C84.6003 84.6251 88.5419 83.883 90.5607 83.989C92.5796 84.095 93.541 84.201 93.3487 84.201C93.1564 84.095 92.5796 83.5649 91.7144 83.0349C90.8491 82.6108 90.4646 82.3988 90.4646 82.3988L92.2912 82.0807C92.2912 82.3988 91.6182 81.5507 90.1762 81.2326ZM91.5221 85.8973C91.8105 86.2153 92.0989 86.6394 92.0028 86.8514C91.9066 87.2755 91.1375 88.1236 91.1375 88.1236C91.1375 88.1236 87.196 88.2296 86.8114 88.3356C86.6191 88.3356 86.3307 88.3356 86.0423 88.2296C85.9462 89.5018 85.85 90.88 85.85 90.88C85.85 90.88 87.196 89.1837 87.3882 89.1837C87.5805 89.0777 90.753 88.9717 90.753 88.9717L89.7916 90.2439L92.5796 88.7597L92.7719 86.2153C92.868 86.3213 92.5796 86.0033 91.5221 85.8973ZM73.6407 80.5965L73.16 81.3386C73.16 81.3386 75.7557 86.1093 75.8519 87.0634C75.948 88.0176 72.9678 93.1063 72.9678 93.1063L74.6021 93.9544C74.6021 93.9544 77.8707 89.9258 78.4475 88.9717C79.0244 88.1236 73.6407 80.5965 73.6407 80.5965Z" fill="#FA6F19"/>
<path d="M52.2984 124.381H11.3443L9.70996 118.444L11.2481 118.126V101.27L10.5752 101.164L10.1906 95.4387H75.1788H104.5L106.039 101.164L104.5 101.588V118.444L105.077 118.55L105.654 124.381H89.2147H71.6218H52.2984Z" fill="#240347"/>
<path d="M17.2086 120.352V110.599L20.5734 112.295V120.352C20.4773 120.776 20.1889 121.094 19.8043 121.094H24.6111C24.1304 120.988 23.9382 120.776 23.7459 120.352V99.3612C23.9382 99.0432 24.1304 98.7252 24.6111 98.6191H13.1709C13.6516 98.8312 13.8439 98.9372 14.0361 99.3612V120.246C13.8439 120.67 13.6516 120.988 13.1709 120.988H17.9777C17.5932 120.988 17.3048 120.776 17.2086 120.352ZM26.1493 112.189V120.458C26.0532 120.882 25.7648 121.2 25.3802 121.2H36.7243C36.2436 121.094 36.0514 120.882 35.8591 120.458V110.917C33.2634 109.645 37.3973 111.659 29.4179 107.63V101.482H32.6866V106.252C35.2823 107.524 31.5329 105.616 35.7629 107.842V99.5733C35.9552 99.2552 36.1475 98.9372 36.6282 98.8312H25.2841C25.7648 98.9372 25.957 99.1492 26.0532 99.5733V109.115C27.2068 109.751 26.4377 109.327 32.4943 112.401V118.55H29.1295V113.779C27.9759 113.143 27.9759 113.143 27.9759 113.143C27.8798 113.037 27.3991 112.719 26.1493 112.189ZM74.4098 112.189V120.458C74.3136 120.882 74.0252 121.2 73.6407 121.2H84.9848C84.5041 121.094 84.3118 120.882 84.1195 120.458V110.917L83.3504 110.599C83.1582 110.493 84.2157 111.023 77.5823 107.736V101.588H80.947V106.358C83.5427 107.63 79.7934 105.722 84.0234 107.948V99.6793C84.2157 99.2552 84.4079 99.0432 84.8886 98.9372H73.4484C73.9291 99.0432 74.2175 99.2552 74.2175 99.6793V109.221L80.6586 112.507V118.656H77.2939V113.885C76.1402 113.249 76.1402 113.249 76.1402 113.249C76.1402 113.037 75.6595 112.719 74.4098 112.189ZM92.0027 99.4673V120.352C91.9066 120.776 91.6182 121.094 91.2336 121.094H96.0404C95.5598 120.988 95.3675 120.776 95.1752 120.352V101.694L98.54 103.496V120.352C98.4439 120.776 98.1554 121.094 97.7709 121.094H102.578C102.097 120.988 101.905 120.776 101.712 120.352V99.4673C101.905 99.1492 102.097 98.8312 102.578 98.7252H97.7709C98.2516 98.8312 98.4439 99.0432 98.54 99.4673V100.421L95.1752 98.6191H91.2336C91.7143 98.7252 92.0027 99.0432 92.0027 99.4673ZM86.4268 99.4673V120.352C86.3307 120.776 86.0423 121.094 85.6577 121.094H90.4645C89.9839 120.988 89.7916 120.776 89.5993 120.352V101.27V99.4673C89.7916 99.1492 89.9839 98.8312 90.4645 98.7252H85.6577C86.0423 98.8312 86.4268 99.0432 86.4268 99.4673ZM62.7773 112.083V120.352C62.6811 120.776 62.3927 121.094 62.0082 121.094H73.3523C72.8716 120.988 72.6793 120.776 72.487 120.352V110.811L71.7179 110.493C71.5257 110.387 72.5832 110.917 65.9498 107.63V101.482H69.3145V106.252C71.9102 107.524 68.1609 105.616 72.3909 107.842V99.5733C72.5832 99.1492 72.7754 98.9372 73.2561 98.8312H61.912C62.3927 98.9372 62.6811 99.1492 62.6811 99.5733V109.115L69.1223 112.401V118.55H65.7575V113.779C64.6039 113.143 64.6038 113.143 64.6038 113.143C64.6038 113.037 64.1232 112.719 62.7773 112.083ZM50.7602 99.4673V120.352C50.5679 120.776 50.3757 121.094 49.895 121.094H54.7018C54.2211 120.988 54.0288 120.776 53.9327 120.352V110.599L57.2975 112.295V120.352C57.2013 120.776 56.9129 121.094 56.5284 121.094H61.3352C60.8545 120.988 60.6623 120.776 60.47 120.352V99.3612C60.6623 99.0432 60.8545 98.7252 61.3352 98.6191H49.895C50.3757 98.7252 50.7602 99.0432 50.7602 99.4673ZM53.9327 107.418V101.27H57.2975V109.115L53.9327 107.418ZM38.7432 112.189V120.458C38.647 120.882 38.3586 121.2 37.9741 121.2H49.3182C48.8375 121.094 48.6452 120.882 48.4529 120.458V110.917C45.8573 109.645 49.9911 111.659 42.0118 107.63V101.482H45.3766V106.252C47.9723 107.524 44.2229 105.616 48.4529 107.842V99.5733C48.6452 99.2552 48.8375 98.9372 49.3182 98.8312H37.8779C38.3586 98.9372 38.5509 99.1492 38.647 99.5733V109.115C39.8007 109.751 39.0316 109.327 45.0882 112.401V118.55H41.7234V113.779C40.5698 113.143 40.5698 113.143 40.5698 113.143C40.5698 113.037 39.9929 112.719 38.7432 112.189ZM17.2086 107.524V101.376H20.5734V109.221L17.2086 107.524Z" fill="white"/>
<path d="M21.9192 100.209V119.61H22.3037V100.209H21.9192ZM15.8626 100.209H15.478V119.61H15.8626V100.209ZM27.4951 114.309V119.504H27.8796V114.521C27.8796 114.521 27.7835 114.521 27.7835 114.415C27.6873 114.415 27.5912 114.415 27.4951 114.309ZM33.9362 119.504H34.3208V111.553C34.1285 111.447 34.1285 111.447 33.9362 111.341V119.504ZM27.8796 108.372V100.315H27.4951V108.266C27.5912 108.16 27.6873 108.266 27.8796 108.372ZM33.9362 100.209V105.192C34.0323 105.298 34.1285 105.298 34.1285 105.404C34.1285 105.404 34.2246 105.404 34.2246 105.51V100.315L33.9362 100.209ZM75.7555 114.309V119.504H76.1401V114.521C76.1401 114.521 76.0439 114.521 76.0439 114.415H75.9478C75.8517 114.415 75.7555 114.415 75.7555 114.309ZM82.1967 119.504H82.6773V111.553C82.5812 111.447 82.4851 111.447 82.2928 111.341V119.504H82.1967ZM76.1401 108.372V100.315H75.7555V108.266L76.1401 108.372ZM82.1967 100.209V105.192C82.2928 105.298 82.3889 105.298 82.3889 105.404C82.3889 105.404 82.4851 105.404 82.4851 105.51V100.315L82.1967 100.209ZM93.4446 119.504H93.8292V100.103H93.4446V119.504ZM99.8858 102.648V119.61H100.27V100.103H99.8858V102.648ZM87.7726 119.504H88.1571V100.103H87.7726V119.504ZM64.123 114.309V119.504H64.5076V114.521C64.5076 114.521 64.4114 114.521 64.4114 114.415V114.415C64.3153 114.415 64.2192 114.309 64.123 114.309ZM70.6603 119.504H71.0449V111.553C70.8526 111.447 70.8526 111.447 70.6603 111.341V119.504ZM64.6037 108.266V100.209H64.2192V108.16L64.6037 108.266ZM70.6603 100.103V105.086C70.7564 105.192 70.8526 105.192 70.8526 105.298C70.8526 105.298 70.9487 105.298 70.9487 105.404V100.209L70.6603 100.103ZM52.5867 108.372V100.315H52.2021V119.716H52.5867V108.372ZM58.6433 111.447V119.504H59.0278V100.103H58.6433V111.447ZM40.0889 114.309V119.504H40.4735V114.521C40.4735 114.521 40.3773 114.521 40.3773 114.415C40.1851 114.415 40.1851 114.309 40.0889 114.309ZM46.5301 119.504H46.9146V111.553C46.7223 111.447 46.7223 111.447 46.5301 111.341V119.504ZM40.4735 108.372V100.315H40.0889V108.266C40.1851 108.16 40.3773 108.266 40.4735 108.372ZM46.5301 100.209V105.192C46.6262 105.298 46.7223 105.298 46.7223 105.404C46.7223 105.404 46.8185 105.404 46.8185 105.51V100.315L46.5301 100.209Z" fill="#02344D"/>
<path d="M17.2087 120.352V110.599L16.2473 110.069V120.246C16.3435 120.67 16.6319 120.988 17.0164 120.988H17.9778C17.5932 120.988 17.3048 120.776 17.2087 120.352ZM23.5537 121.094H24.3228H24.4189C24.0344 120.988 23.746 120.776 23.6498 120.352V99.5733C23.746 99.2552 24.0344 98.9372 24.4189 98.8312H24.3228H13.2671H23.6498C23.1691 98.9372 22.9769 99.1492 22.7846 99.5733V120.458C22.7846 120.776 23.073 120.988 23.5537 121.094ZM24.515 98.6191H24.3228H24.515ZM26.1494 112.189V112.719C26.7262 112.931 27.0146 113.143 27.2069 113.249C27.1107 113.249 27.2069 113.249 28.3605 113.885V118.656H31.7253H29.3219V113.885C28.1682 113.249 28.1682 113.249 28.1682 113.249C27.8798 113.037 27.3991 112.719 26.1494 112.189ZM35.5707 121.094H36.5321C36.0514 120.988 35.8591 120.776 35.6669 120.352V110.811C33.0712 109.539 37.205 111.553 29.2257 107.524V101.376H28.2644V107.524C36.3398 111.553 32.206 109.433 34.7055 110.811V120.352C34.8978 120.776 35.09 120.988 35.5707 121.094ZM34.7055 107.206C34.8978 107.418 35.2823 107.418 35.6669 107.736V99.4673C35.8591 99.1492 36.0514 98.8312 36.5321 98.7252H25.2841H35.5707C35.09 98.9372 34.8978 99.1492 34.7055 99.4673V107.206ZM74.4098 112.189V112.719C74.9866 112.931 75.275 113.143 75.4673 113.249C75.3712 113.249 75.4673 113.249 76.621 113.885V118.656H79.9857H77.5823V113.885C76.4287 113.249 76.4287 113.249 76.4287 113.249C76.1403 113.037 75.6596 112.719 74.4098 112.189ZM83.9273 121.094H84.6964C84.7925 121.094 84.7925 121.094 84.7925 121.094C84.408 120.988 84.1196 120.776 84.0235 120.352V110.811L83.2544 110.493C83.0621 110.387 84.1196 110.917 77.4862 107.63V101.482H76.4287V107.63C82.966 111.023 81.9085 110.493 82.1969 110.493L82.966 110.811V120.352C83.1582 120.776 83.4466 120.988 83.9273 121.094ZM83.0621 107.206C83.2544 107.418 83.6389 107.418 84.0235 107.736V99.4673C84.1196 99.1492 84.408 98.8312 84.7925 98.7252H84.6964H84.8887H83.9273H73.6407H83.9273C83.4466 98.8312 83.2544 99.0432 83.0621 99.4673V107.206V107.206ZM95.0791 121.094H96.0405C95.5598 120.988 95.3675 120.776 95.1753 120.352V101.694L94.2139 101.164V120.246C94.31 120.776 94.5985 120.988 95.0791 121.094ZM101.52 121.094H102.482C102.001 120.988 101.809 120.776 101.616 120.352V99.4673C101.809 99.1492 102.001 98.8312 102.482 98.7252H101.52H97.6748H101.52C101.04 98.9372 100.847 99.0432 100.655 99.4673V120.352C100.751 120.776 101.136 120.988 101.52 121.094ZM98.54 100.421L95.1753 98.6191H91.3298H94.31L98.6362 100.845V100.421H98.54ZM89.5032 121.094H90.2723H90.3685C89.9839 120.988 89.6955 120.776 89.5994 120.352V101.27V99.4673C89.6955 99.1492 89.9839 98.8312 90.3685 98.7252H90.2723H90.4646H89.5032H85.6578H89.5032C89.0225 98.8312 88.8303 99.0432 88.638 99.4673V101.27V120.352C88.7341 120.776 89.0225 120.988 89.5032 121.094ZM62.7773 112.083V112.613C63.3541 112.825 63.6425 113.037 63.8348 113.143C63.7387 113.143 63.8348 113.143 64.9885 113.779V118.55H68.3532H65.9498V113.779C64.7962 113.143 64.7962 113.143 64.7962 113.143C64.6039 113.037 64.1232 112.719 62.7773 112.083ZM72.2948 121.094H72.6794C72.7755 121.094 72.8716 120.988 72.8716 120.988C72.6794 120.776 72.391 120.67 72.2948 120.246V110.705L71.5257 110.387C71.3335 110.281 72.391 110.811 65.7575 107.524V101.376H64.7962V107.524C71.3335 110.917 70.276 110.387 70.5644 110.387L71.3335 110.705V120.246C71.6219 120.776 71.8141 120.988 72.2948 121.094ZM71.4296 107.206C71.6219 107.418 72.0064 107.418 72.391 107.736V99.4673C72.4871 99.2552 72.5832 99.0432 72.8716 98.8312C72.7755 98.7252 72.5832 98.7252 72.4871 98.7252H73.16H73.2562H72.2948H61.9121H72.2948C71.8141 98.8312 71.6219 99.0432 71.4296 99.4673C71.4296 99.5733 71.4296 107.206 71.4296 107.206ZM53.7405 121.094H54.7019C54.2212 120.988 54.0289 120.776 53.9328 120.352V110.599L52.9714 110.069V120.246C53.0675 120.776 53.356 120.988 53.7405 121.094ZM60.2778 121.094H60.9507C61.0469 121.094 61.0469 121.094 61.0469 121.094C60.6623 120.988 60.3739 120.776 60.2778 120.352V99.5733C60.3739 99.2552 60.6623 98.9372 61.0469 98.8312H60.9507H61.143H49.895H60.2778C59.7971 99.0432 59.6048 99.1492 59.4125 99.5733V120.458C59.5087 120.776 59.7971 120.988 60.2778 121.094ZM53.9328 107.418V101.27H52.9714V107.418L57.2975 109.645V109.115L53.9328 107.418ZM38.7432 112.189V112.719C39.32 112.931 39.6085 113.143 39.8007 113.249C39.7046 113.249 39.8007 113.249 40.9544 113.885V118.656H44.223H41.8196V113.885C40.666 113.249 40.666 113.249 40.666 113.249C40.5698 113.037 39.993 112.719 38.7432 112.189ZM48.2607 121.094H49.2221H49.0298C48.6453 120.988 48.3569 120.776 48.2607 120.352V110.811C45.665 109.539 49.7989 111.553 41.8196 107.524V101.376H40.8582V107.524C48.9337 111.553 44.7998 109.433 47.2994 110.811V120.352C47.4916 120.776 47.78 120.988 48.2607 121.094ZM47.3955 107.206C47.5878 107.418 47.9723 107.418 48.3569 107.736V99.4673C48.453 99.1492 48.7414 98.8312 49.126 98.7252H49.0298H48.2607H37.878H48.2607C47.78 98.8312 47.5878 99.0432 47.3955 99.4673C47.3955 99.5733 47.3955 107.206 47.3955 107.206ZM17.2087 107.524V101.376H16.2473V107.524L20.5735 109.751V109.221L17.2087 107.524Z" fill="#A9C0DE"/>
</g>
<defs>
<linearGradient id="paint0_linear_211_939" x1="56.8345" y1="9.09901" x2="59.8789" y2="127.33" gradientUnits="userSpaceOnUse">
<stop stop-color="#FDE32B"/>
<stop offset="1" stop-color="#EE563C"/>
</linearGradient>
<clipPath id="clip0_211_939">
<rect width="115.364" height="141" fill="white" transform="translate(0 0.131348)"/>
</clipPath>
</defs>
</svg>
