<svg width="145" height="160" viewBox="0 0 145 160" fill="none" xmlns="http://www.w3.org/2000/svg">
<g clip-path="url(#clip0_97_173)">
<path d="M121.3 105.6H133L136.4 116.4L133.8 117.1V132.3L134.3 132.4L135.4 143.5H91.9C86.8 148.5 81.5 153.1 75.9 157.4L72.6 160L69.3 157.4C63.8 153.1 58.4 148.4 53.3 143.4H12.2L8.9 132.4L11.5 131.8V116.6L10.8 116.4L9.9 105.5H23.9C17.2 93.5 12.3 80.6 9.8 67.2L4.3 64C2.7 63.1 2.1 61.1 2.9 59.4L3.6 58L3 57.7C2.9 57.6 2.8 57.6 2.7 57.5C2.3 57.2 2 56.9 1.7 56.5L0 55.6L6.3 45.1L7.9 46.1V44.5L11.5 43.1C18.7 40.3 26 37.7 33.3 35.1C35.9 34.2 38.6 33.3 41.2 32.5C42.3 27.9 44.1 23.5 46.9 19.7C48.9 17 51.3 14.5 53.8 12.3C56.9 9.5 60.3 6.9 63.7 4.5C65.3 3.4 66.9 2.3 68.6 1.2L71 0L73.1 1.1C74.4 1.8 75.7 2.5 77 3.2C79.2 4.4 81.3 5.7 83.4 7C85.8 8.1 88.7 10.4 90.6 12.1C91.7 13 92.7 13.9 93.6 15C95.5 17.2 97.4 19.4 98.8 21.9C99.2 22.5 99.5 23.2 99.8 23.9C101.3 26.4 102.3 29.4 103.1 32.4C105.9 33.2 108.8 34.1 111.6 35.1C118.9 37.7 126.2 40.4 133.4 43.1L137 44.5V46.1L138.6 45.1L144.9 55.6L143.3 56.5C143.1 56.9 142.7 57.3 142.3 57.5C142.2 57.6 142.1 57.6 142 57.7L141.4 58L142.1 59.4C142.9 61.1 142.3 63.1 140.7 64L135.2 67.2C132.9 80.7 128 93.6 121.3 105.6Z" fill="url(#paint0_linear_97_173)"/>
<path d="M13.6001 48.4001C14.0001 90.9001 41.2001 128.6 72.7001 153C104.2 128.6 131.4 90.9001 131.8 48.4001C131.8 48.4001 124.2 45.5001 110.1 40.4001C96.0001 35.3001 72.7001 30.6001 72.7001 30.6001C72.7001 30.6001 49.5001 35.3001 35.3001 40.4001C21.3001 45.5001 13.6001 48.4001 13.6001 48.4001Z" fill="#873720"/>
<path d="M16.6002 50.5001C17.2002 68.8001 22.9002 86.3001 31.8002 102C42.1002 120.3 56.8002 136.4 72.7002 149C88.5002 136.3 103.3 120.3 113.6 102C122.5 86.2001 128.2 68.8001 128.8 50.5001C125.7 49.3001 119.1 46.9001 109.1 43.3001C96.5002 38.7001 76.3002 34.5001 72.7002 33.7001C69.1002 34.5001 49.0002 38.7001 36.3002 43.3001C26.3002 46.9001 19.7002 49.4001 16.6002 50.5001ZM26.7002 105.2C17.0002 88.0001 10.9002 68.7001 10.7002 48.4001V46.2001L12.7002 45.5001C12.7002 45.5001 20.5002 42.5001 34.5002 37.5001C48.8002 32.4001 72.2002 27.6001 72.2002 27.6001H73.3002C73.4002 27.6001 96.7002 32.4001 111 37.5001C125 42.5001 132.7 45.5001 132.8 45.5001L134.8 46.2001V48.4001C134.6 68.7001 128.5 87.9001 118.8 105.2C107.7 125 91.7002 142.2 74.6002 155.5L72.8002 156.9L71.0002 155.5C53.8002 142.2 37.9002 125 26.7002 105.2Z" fill="#240347"/>
<path d="M37.1004 58.4001L18.4004 71.1001C18.4004 71.1001 26.7004 105.5 46.2004 127.7C65.7004 149.9 73.6004 152.3 73.6004 152.3C73.6004 152.3 96.9004 133 108.6 117.1C120.2 101.1 129.8 72.2001 129.8 72.2001L113.8 71.5001L37.1004 58.4001Z" fill="#240347"/>
<path d="M116.8 65.2001L117.5 67.1001L104.3 59.9001L106.2 59.6001L107.7 60.3001L107.1 61.0001L114 64.7001L114.8 64.0001L116.8 65.2001Z" fill="#3875DA"/>
<path d="M107.1 61.4001L104.3 59.9001L106.2 59.6001L107.7 60.3001L107.1 61.0001L107.3 61.1001L107.1 61.4001Z" fill="#12EBFA"/>
<path d="M117.8 67.8001L116.8 68.7L103.5 61.7001L103.7 60.3L117.8 67.8001Z" fill="#3875DA"/>
<path d="M117.8 67.8001L117.2 68.4001L105.9 62.5L105.7 62.9001L103.5 61.7001L103.7 60.3L117.8 67.8001Z" fill="#12EBFA"/>
<path d="M113.9 68.2L92.7003 105.2L90.3003 104.3L111.9 67.3L113.9 68.2Z" fill="white"/>
<path d="M111 66.7001L89.2002 104.1L84.2002 101.5L83.2002 99.7001L104.8 63.4001L111 66.7001Z" fill="#C6C8C9"/>
<path d="M84.5002 101.6L84.2002 101.5L83.2002 99.7001L104.8 63.4001L106.6 64.4001L84.5002 101.6Z" fill="#12EBFA"/>
<path d="M36.9002 56.1001C36.9002 55.9001 36.9002 55.8001 36.9002 55.6001L41.9002 51.5001L50.9002 45.9001L48.7002 30.9001L87.1002 37.6001L92.3002 46.5001L100.4 51.6001L105.4 55.7001C105.4 55.9001 105.4 56.0001 105.4 56.2001L123.5 67.6001C122.7 70.1001 121.6 73.5001 120.2 77.9001C118.8 82.4001 114.9 88.2001 109.9 94.3001C109.6 94.4001 109.2 94.6001 108.9 94.7001L103.3 98.7001C99.5002 103 96.7002 108.2 92.7002 112.3C90.6002 114.5 88.4002 116.7 86.1002 118.8C82.5002 122.1 79.2002 125.4 75.6002 128.8L73.3002 131.6L68.4002 126.7C64.9002 123.3 61.3002 119.9 57.6002 116.6C55.3002 114.5 53.2002 112.3 51.0002 110.1C46.9002 105.9 42.9002 101.6 39.1002 97.2001L36.7002 96.2001C30.8002 85.5001 25.0002 73.2001 21.7002 65.7001L36.9002 56.1001ZM90.7002 44.0001L84.6002 36.2001L91.1002 44.0001C91.0002 44.0001 90.8002 44.0001 90.7002 44.0001Z" fill="#240347"/>
<path d="M53.5 50.5C53.5 50.5 52.3 54.9 57.5 64.3C62 72.6 69.5 77 71.3 78C72.9 76.4 75.2 74.3 77.2 69.7C79.2 65.1 79.7 63.3 79.7 63.3L73.3 68.8V58L76 60.3C76 60.3 77.9 59.8 81.6 57.4C85.3 55 90 50.9 90 50.9L89.8 50.7C89 51.3 84.8 54.2 80.3 55.7C75.3 57.4 76.6 56.7 76.6 56.7L71.7 55.8L66.8 56.7C66.8 56.7 68.1 57.4 63.1 55.7C58.1 53.9 53.5 50.5 53.5 50.5Z" fill="#55526F"/>
<path d="M57.2002 64.0999C57.3002 64.1999 57.3002 64.3 57.4002 64.4C61.9002 72.7 69.4002 77.0999 71.2002 78.0999C72.8002 76.4999 75.1002 74.4 77.1002 69.8C79.1002 65.2 79.6002 63.4 79.6002 63.4L73.2002 68.9V58L75.9002 60.2999C75.9002 60.2999 77.8002 59.8 81.5002 57.4C85.2002 55 89.9002 50.9 89.9002 50.9L89.7002 50.7C88.9002 51.3 84.7002 54.2 80.2002 55.7C75.2002 57.4 76.5002 56.7 76.5002 56.7L71.6002 55.7999L71.8002 71L74.9002 69.0999L70.7002 74.8C70.7002 74.8 62.8002 70.2 59.5002 66.8C58.5002 65.8 57.8002 64.8999 57.2002 64.0999Z" fill="#2D2846"/>
<path d="M67.4004 51.9001L56.9004 47.8C56.9004 47.8 61.2004 52.2 63.1004 52.8C65.1004 53.4 67.4004 51.9001 67.4004 51.9001ZM75.5004 51.9001L86.0004 47.8C86.0004 47.8 81.7004 52.2 79.8004 52.8C77.8004 53.4 75.5004 51.9001 75.5004 51.9001Z" fill="#FDDB34"/>
<path d="M71.5003 91.3001C71.5003 91.3001 64.3003 87.7 60.0003 83.1C55.7003 78.5 54.0003 75 54.0003 75L56.4003 85C56.4003 85 53.1003 78.1001 51.5003 73.4001C49.9003 68.8001 49.8003 65.4001 49.8003 65.4001L48.4003 68.4001C48.4003 68.4001 48.5003 65.9001 49.1003 63.9001C49.7003 61.9001 50.7003 60.9001 50.7003 60.9001L50.8003 56.8L43.7003 61.1C43.7003 61.1 43.9003 63.3 45.1003 67.7C46.3003 72.2 46.8003 73.3001 46.8003 73.3001C46.8003 73.3001 44.4003 70.8 42.7003 67C41.0003 63.3 40.5003 62.5 40.5003 62.5C40.5003 62.5 39.8003 70 44.0003 80C48.2003 90 61.2003 98.2 61.2003 98.2L60.4003 94.6L71.5003 102.6L82.6003 94.6L81.8003 98.2C81.8003 98.2 94.8003 90.1 99.0003 80C103.2 70 102.4 62.5 102.4 62.5C102.4 62.5 101.9 63.3 100.2 67C98.5003 70.7 96.1003 73.3001 96.1003 73.3001C96.1003 73.3001 96.7003 72.2 97.8003 67.7C99.0003 63.2 99.2003 61.1 99.2003 61.1L92.1003 56.8L92.2003 60.9001C92.2003 60.9001 93.2003 61.9001 93.8003 63.9001C94.4003 65.9001 94.5003 68.4001 94.5003 68.4001L93.1003 65.4001C93.1003 65.4001 93.0003 68.7001 91.4003 73.4001C89.8003 78.1001 86.7003 85 86.7003 85L89.0003 75C89.0003 75 87.4003 78.5 83.0003 83.1C78.7003 87.7 71.5003 91.3001 71.5003 91.3001Z" fill="#FDDB34"/>
<path d="M71.5004 91.3001C71.5004 91.3001 64.3004 87.7 60.0004 83.1C57.5004 80.4 55.8004 78.1 55.0004 76.6C55.9004 81.4 66.6004 93.3 71.6004 94C76.0004 93.4 87.1004 81.7 88.2004 76.6C87.3004 78.1 85.7004 80.4 83.2004 83.1C78.7004 87.7 71.5004 91.3001 71.5004 91.3001ZM49.5004 63.2001C50.1004 61.8001 50.8004 61 50.8004 61L50.9004 56.9001L46.0004 59.9001L45.4004 60.2001L44.2004 60.9001L43.8004 61.1C43.8004 61.1 44.0004 63.0001 45.0004 66.9001C46.0004 68.9001 47.1004 70.7001 48.0004 71.8001C50.5004 74.9001 50.6004 74.9001 50.6004 74.9001L57.0004 87.1L56.3004 84.8001C55.7004 83.6001 52.9004 77.6 51.5004 73.5C49.9004 68.9 49.8004 65.5 49.8004 65.5L48.4004 68.5C48.4004 68.5 48.5004 66 49.1004 64.1V64V63.9001V63.8L49.5004 63.2001ZM98.8004 60.8L92.3004 56.8L92.4004 60.9001C92.4004 60.9001 93.1004 61.6 93.7004 63.1V63.2001V63.3V63.4001V63.5V63.6C94.3004 65.6 94.4004 68.1 94.4004 68.1L93.0004 65.1C93.0004 65.1 92.9004 68.4 91.3004 73.1C89.9004 77.2 87.1004 83.2001 86.5004 84.4001L85.8004 86.7L92.0004 74.5C92.0004 74.5 92.0004 74.5001 94.6004 71.4001C95.5004 70.3001 96.6004 68.5 97.6004 66.5C98.6004 62.6 98.8004 60.7001 98.8004 60.7001V60.8ZM40.6004 62.5C40.6004 62.5 39.8004 70 44.0004 80C48.2004 90 61.2004 98.2 61.2004 98.2L60.4004 94.6L71.5004 102.6L82.6004 94.6L81.8004 98.2C81.8004 98.2 94.8004 90.1 99.0004 80C103.2 70 102.4 62.5 102.4 62.5C102.4 62.5 102.3 73.2 96.5004 81.2C90.7004 89.2 84.5004 93.3001 84.5004 93.3001L84.6004 89.6L71.6004 98.9001L58.6004 89.6L58.7004 93.3001C58.7004 93.3001 52.5004 89.2 46.7004 81.2C40.7004 73.2 40.6004 62.5 40.6004 62.5Z" fill="#EE7E24"/>
<path d="M42.6001 69.2C42.6001 69.2 43.1001 72.9 47.3001 79.4C51.5001 85.9 57.2001 91.1 57.2001 91.1L58.3001 88.4C58.3001 88.4 61.7001 90.9 64.5001 93C67.3001 95 68.0001 95.3 68.0001 95.3C68.0001 95.3 63.0001 90.9 60.6001 89C58.3001 87.1 57.6001 86.2 57.6001 86.2L56.8001 89.2C56.8001 89.2 49.3001 81.5 46.6001 77.2C43.9001 72.9 42.6001 69.2 42.6001 69.2Z" fill="#FDDB34"/>
<path d="M43.0004 46.3L42.9004 42.1C42.8004 39.9 43.1004 37.2 43.5004 35C44.4004 30.1 46.2004 25.3001 49.2004 21.2001C51.1004 18.6001 53.4004 16.3 55.7004 14.2C58.8004 11.4 62.0004 8.90005 65.4004 6.50005C66.9004 5.40005 68.5004 4.30005 70.2004 3.30005L71.1004 2.80005L72.0004 3.30005C73.3004 3.90005 74.6004 4.60005 75.8004 5.30005C78.0004 6.50005 80.2004 7.80005 82.3004 9.10005C82.3004 9.10005 85.2004 10.3 89.0004 13.9C90.0004 14.7 91.0004 15.6 91.8004 16.6C93.6004 18.6 95.4004 20.8001 96.7004 23.1C97.0004 23.6 97.4004 24.3 97.6004 24.9C104.9 37.4 103.2 65.7 103.2 65.7L103.5 66.5L96.0004 56C95.3004 55 94.5004 54 93.7004 53C92.0004 50.9 90.3004 48.8 88.4004 46.8C86.7004 45 84.4004 42.8 82.2004 41.5C79.9004 40.2 77.4004 39 74.9004 38.1C74.1004 37.8 73.3004 37.5 72.5004 37.3C70.9004 37.9 69.2004 38.6001 67.6004 39.2001L68.7004 41.6L67.3004 42.4001C66.1004 43.2001 64.9004 44 63.7004 44.8C61.1004 46.6 58.6004 48.4001 56.1004 50.4001C53.9004 52.2001 51.4004 54.5 49.7004 56.8C48.0004 59.3 46.3004 61.8001 44.6004 64.3001C44.1004 65.1001 43.5004 66 43.0004 66.9L39.4004 73.3L39.7004 66C39.8004 64.3 39.9004 62.5 40.1004 60.8C40.5004 57.1 41.0004 53.3001 41.9004 49.7001C42.3004 48.7001 42.6004 47.5 43.0004 46.3Z" fill="#240347"/>
<path d="M97.7004 55.1001C97.7004 55.1001 89.4004 43.6001 83.4004 40.2001C77.3004 36.8001 72.7004 35.7001 72.7004 35.7001C72.7004 35.7001 63.1004 39.2001 59.6004 41.6001C56.0004 43.9001 54.7004 45.8001 54.7004 45.8001C54.7004 45.8001 57.7004 44.4001 61.8004 43.0001C65.9004 41.6001 66.7004 41.3001 66.7004 41.3001C66.7004 41.3001 53.3004 49.5001 48.6004 56.2001C43.9004 62.9001 41.9004 66.5001 41.9004 66.5001C41.9004 66.5001 42.1004 55.0001 45.0004 46.2001C47.9004 37.4001 55.0004 29.0001 55.0004 29.0001C55.0004 29.0001 52.1004 30.2001 49.2004 34.5001C46.3004 38.8001 44.7004 42.1001 44.7004 42.1001C44.7004 42.1001 44.4004 31.0001 50.7004 22.4001C57.0004 13.7001 71.2004 4.90015 71.2004 4.90015C71.2004 4.90015 85.4004 12.0001 90.5004 17.8001C95.6004 23.5001 96.2004 26.0001 96.2004 26.0001C96.2004 26.0001 94.1004 22.7001 90.3004 19.8001C86.4004 16.9001 80.9004 14.0001 80.9004 14.0001C80.9004 14.0001 84.6004 16.8001 87.0004 20.5001C89.4004 24.2001 91.8004 32.3001 91.8004 32.3001C91.8004 32.3001 90.5004 30.3001 86.1004 27.5001C81.7004 24.7001 76.7004 23.0001 76.7004 23.0001C76.7004 23.0001 87.6004 31.2001 92.1004 37.3001C96.6004 43.4001 97.0004 46.2001 97.0004 46.2001C97.0004 46.2001 95.0004 43.9001 91.7004 42.0001C88.4004 40.0001 86.0004 39.0001 86.0004 39.0001C86.0004 39.0001 91.4004 43.5001 93.7004 47.1001C95.9004 50.5001 97.7004 55.1001 97.7004 55.1001Z" fill="#55526F"/>
<path d="M72.5002 35.6001C72.5002 35.6001 62.9002 39.1001 59.4002 41.5001C55.8002 43.8001 54.5002 45.7001 54.5002 45.7001C54.5002 45.7001 57.5002 44.3001 61.6002 42.9001C65.7002 41.5001 66.5002 41.2001 66.5002 41.2001C66.5002 41.2001 53.1002 49.4001 48.4002 56.1001C43.7002 62.8001 41.7002 66.4001 41.7002 66.4001C41.7002 66.4001 42.1002 54.9001 45.0002 46.1001C47.9002 37.3001 55.0002 28.9001 55.0002 28.9001C55.0002 28.9001 54.8002 29.0001 54.5002 29.1001L60.0002 25.1001C60.0002 25.1001 56.9002 27.0001 52.2002 35.3001C47.5002 43.7001 44.6002 57.0001 44.6002 57.0001C44.6002 57.0001 45.6002 55.0001 48.7002 52.0001C51.7002 49.0001 54.0002 47.3001 54.0002 47.3001L50.7002 48.0001C50.7002 48.0001 54.9002 42.8001 61.3002 39.2001C67.5002 35.6001 72.5002 35.6001 72.5002 35.6001ZM46.6002 38.4001C45.3002 40.6001 44.6002 42.0001 44.6002 42.0001C44.6002 42.0001 44.3002 30.9001 50.6002 22.3001C56.9002 13.7001 71.2002 4.90015 71.2002 4.90015C71.2002 4.90015 61.5002 12.3001 54.2002 20.9001C48.3002 27.7001 46.9002 35.5001 46.6002 38.4001Z" fill="#7E7F9D"/>
<path d="M38.2002 60.5C38.2002 60.5 36.8002 75.2 45.7002 88.6C54.6002 102 62.0002 107.4 62.0002 107.4L52.8002 94.7C52.8002 94.7 62.6002 103.5 67.5002 106.3C72.4002 109.1 72.4002 109.1 72.4002 109.1C72.4002 109.1 89.1002 99.8 97.0002 90.1C104.9 80.4 106.4 67.3 106.4 67.3C106.4 67.3 107.9 72.1 103.1 84.3C98.3002 96.4 94.9002 100.9 94.9002 100.9C94.9002 100.9 97.8002 98 101.5 93C105.2 87.9 107.1 83.8 107.1 83.8C107.1 83.8 103.6 95.8 98.3002 102.8C93.0002 109.9 93.0002 109.9 93.0002 109.9L98.8002 107.2C98.8002 107.2 90.3002 117.6 83.9002 122.6C77.5002 127.6 74.1002 129.5 74.1002 129.5C74.1002 129.5 58.4002 117 49.8002 107.2C41.3002 97.3 37.0002 88.3 37.0002 88.3C37.0002 88.3 38.4002 92.9 40.3002 97.5C42.2002 102.1 43.2002 103.7 43.2002 103.7C43.2002 103.7 37.8002 97.7 32.5002 85.5C27.3002 73.3 26.7002 69.1 26.7002 69.1C26.7002 69.1 29.0002 66.8 30.3002 65.6C31.6002 64.5 31.6002 64.5 31.6002 64.5C31.6002 64.5 33.5002 70.8 34.4002 73.6C35.3002 76.3 36.4002 77.8 36.4002 77.8C36.4002 77.8 33.8002 65.7 34.2002 63.9C34.4002 62.1 38.2002 60.5 38.2002 60.5Z" fill="#55526F"/>
<path d="M52.8 94.6C52.8 94.6 62.6 103.4 67.5 106.2C72.4 109 72.4 109 72.4 109C72.4 109 89.1 99.7 97 90C104.8 80.3 106.4 67.2 106.4 67.2C106.4 67.2 107.9 72 103.1 84.2C98.3 96.3 94.9 100.8 94.9 100.8C94.9 100.8 97.8 97.9 101.5 92.9C105.2 87.8 107.1 83.7 107.1 83.7C107.1 83.7 103.6 95.7 98.3 102.7C93 109.8 93 109.8 93 109.8L98.8 107.1C98.8 107.1 90.3 117.5 83.9 122.5C77.5 127.5 74.1 129.4 74.1 129.4C74.1 129.4 58.4 117 49.8 107.2C45.2 101.9 41.9 96.9 39.7 93.3C41.9 96.5 45.5 101.1 51.6 106.3C63.6 116.7 71.3 117.1 73.2 117.4C75.1 117.8 82.8 114.1 82.8 114.1C82.8 114.1 75.7 119.3 74.6 119.6C73.5 119.9 63.4 116.1 63.4 116.1L74.1 124.6C74.1 124.6 84.6 117.7 87.4 114.3C90.3 110.8 93.9 104.1 93.9 104.1L85.6 110.6C85.6 110.6 88.5 107.4 92.1 101.8C95.6 96.2 97.5 92.3 97.5 92.3C97.5 92.3 97.1 92.5 91.5 98.4C85.9 104.4 72.6 111.9 72.6 111.9C72.6 111.9 71.9 111.2 66 107.4C60.1 103.7 52.8 94.6 52.8 94.6ZM39.2 94.9C39.5 95.8 39.9 96.6 40.2 97.5C42.1 102.1 43.1 103.7 43.1 103.7C43.1 103.7 37.7 97.7 32.4 85.5C31.9 84.3 31.4 83.1 31 82.1C33.5 86.4 37.2 91.9 39.2 94.9Z" fill="#2D2846"/>
<path d="M38.2001 60.5C38.2001 60.5 36.8001 75.2 45.7001 88.6C54.6001 102 62.0001 107.4 62.0001 107.4C46.1001 96.9 38.4001 83.7 35.7001 65.1L34.2001 66C34.1001 65.1 34.1001 64.4 34.1001 64C34.4001 62.1 38.2001 60.5 38.2001 60.5ZM27.5001 72.5C26.8001 70.1 26.6001 69.2 26.6001 69.2C26.6001 69.2 28.9001 66.9 30.2001 65.7C31.5001 64.6 31.5001 64.6 31.5001 64.6C31.5001 64.6 31.8001 65.7 32.3001 67.2L27.5001 72.5Z" fill="#7E7F9D"/>
<path d="M97.7004 55.1001C97.7004 55.1001 89.4004 43.6001 83.4004 40.2001C77.3004 36.8001 72.7004 35.7001 72.7004 35.7001C72.7004 35.7001 63.1004 39.2001 59.6004 41.6001C56.9004 43.3001 55.5004 44.9001 54.9004 45.5001C55.2004 45.0001 56.2004 43.5001 59.1004 41.1001C62.9004 37.9001 69.3004 34.2001 71.7004 33.5001C74.1004 32.8001 82.4004 36.8001 82.4004 36.8001L78.4004 33.2001C78.4004 33.2001 79.6004 33.3001 81.9004 33.7001C84.1004 34.2001 86.0004 34.6001 86.0004 34.6001C86.0004 34.6001 74.1004 23.1001 73.0004 23.1001C71.9004 23.1001 62.1004 28.2001 62.1004 28.2001C62.1004 28.2001 71.4004 20.3001 73.0004 20.2001C74.6004 20.1001 86.4004 24.5001 86.4004 24.5001C86.4004 24.5001 86.4004 24.5001 84.4004 21.7001C82.4004 18.9001 74.9004 10.9001 74.9004 10.9001C74.9004 10.9001 76.0004 11.0001 78.2004 11.6001C80.5004 12.1001 82.7004 13.0001 82.7004 13.0001C82.7004 13.0001 81.8004 12.1001 79.7004 10.5001C77.7004 8.90015 71.1004 4.90015 71.1004 4.90015C71.1004 4.90015 85.4004 12.0001 90.5004 17.8001C95.6004 23.5001 96.2004 26.0001 96.2004 26.0001C96.2004 26.0001 94.1004 22.7001 90.3004 19.8001C86.4004 16.9001 80.9004 14.0001 80.9004 14.0001C80.9004 14.0001 84.6004 16.8001 87.0004 20.5001C89.4004 24.2001 91.8004 32.3001 91.8004 32.3001C91.8004 32.3001 90.5004 30.3001 86.1004 27.5001C81.7004 24.7001 76.7004 23.0001 76.7004 23.0001C76.7004 23.0001 87.6004 31.2001 92.1004 37.3001C96.6004 43.4001 97.0004 46.2001 97.0004 46.2001C97.0004 46.2001 95.0004 43.9001 91.7004 42.0001C88.4004 40.0001 86.0004 39.0001 86.0004 39.0001C86.0004 39.0001 91.4004 43.5001 93.7004 47.1001C95.9004 50.5001 97.7004 55.1001 97.7004 55.1001Z" fill="#2D2846"/>
<path d="M26 73.5001C26.2 73.2001 26.5 73.0001 26.8 72.8001C27.9 71.8001 31.6 71.2001 36.8 70.9001C46.3 79.1001 69.1 100.4 69.1 100.4C69.1 100.4 57.5 105.8 48.6 109.8C46.9 103.4 42.9 88.1001 43.4 86.1001C44 83.5001 35.7 74.0001 35.7 74.0001C35.7 74.0001 31.2 73.7001 26 73.5001Z" fill="#2D2846"/>
<path d="M46.4002 68.2L41.5002 65.4C41.4002 65.2 41.2002 65.1 41.0002 65L32.9002 60.4C32.8002 60.2 32.6002 60.1 32.5002 60L22.5002 54.1L23.3002 52.2C23.5002 51.7 23.3002 51 22.7002 50.8L15.0002 46.9C14.5002 46.7 14.0002 46.8 13.7002 47.2L12.7002 48.3C12.4002 48.2 12.1002 48.2 11.8002 48.3L9.2002 49.6L7.4002 48.5L3.7002 54.6L3.9002 54.7C3.9002 55 4.1002 55.3 4.4002 55.5L4.5002 55.6L5.9002 56.4L6.5002 58.2L5.4002 60.5C5.2002 61 5.3002 61.6 5.8002 61.9L15.1002 67.3001L14.9002 67.7C14.6002 68.2 14.8002 68.9 15.3002 69.2L26.5002 76.2C26.1002 76.2 25.7002 76.3 25.4002 76.4C25.4002 76.4 25.4002 76.4 25.3002 76.4C24.7002 76.7 24.2002 77.1 23.8002 77.7C23.4002 78.2 23.2002 78.8 23.0002 79.3C22.7002 80.1 22.5002 81.2 22.7002 82.1C22.9002 82.9 23.3002 83.7 24.2002 84.2C24.6002 84.4 25.1002 84.6 25.7002 84.6C26.1002 84.6 26.5002 84.6 26.8002 84.6C27.0002 84.7 27.1002 84.7 27.3002 84.8C27.6002 84.9 27.8002 85 28.1002 85C28.4002 85.1 28.7002 85.2 29.0002 85.2L29.8002 85.4C30.4002 85.5 30.8002 85.6 31.0002 85.7C30.8002 85.9 30.7002 86.1 30.6002 86.3C30.5002 86.5 30.4002 86.7 30.3002 86.9C30.2002 86.9 30.2002 87 30.1002 87C29.9002 87.1 29.7002 87.2 29.5002 87.4C28.9002 87.8 28.4002 88.4 28.1002 89.1C27.9002 89.5 27.8002 90 27.9002 90.4V90.7C27.7002 90.9 27.5002 91.1 27.3002 91.3L25.1002 93.9C24.7002 94.3 24.8002 95 25.1002 95.4C25.1002 95.7 25.1002 96 25.2002 96.2C25.3002 96.6 25.4002 96.9 25.6002 97.2C25.7002 97.3 25.8002 97.5 25.9002 97.6L26.3002 102C26.3002 102.4 26.6002 102.7 26.9002 102.9L38.1002 108.5C38.1002 108.5 38.6002 108.8 39.2002 109.2L39.3002 109.3C39.5002 109.5 39.7002 109.6 39.9002 109.6C40.2002 109.8 40.6002 110 40.9002 110.2C42.0002 110.8 48.3002 110.8 48.3002 110.8L48.8002 111.1L51.2002 112.7C51.6002 113 52.1002 112.9 52.5002 112.7L53.6002 111.9C54.8002 111 56.1002 109.8 57.2002 108.5C58.3002 107.2 59.4002 105.8 60.2002 104.4C61.0002 103 61.7002 101.3 62.2002 99.5C62.7002 97.7 63.1002 95.7 63.3002 94L63.4002 92.8C63.4002 92.3 63.2002 91.9 62.8002 91.7L52.1002 85.5L52.2002 85.4C52.3002 85.2 52.4002 85 52.4002 84.8V72.2C52.4002 71.8 52.2002 71.4 51.8002 71.2L46.4002 68.2Z" fill="#240347"/>
<path d="M47.8002 72.6V80.9001L49.2002 81.7V73.4001L47.8002 72.6ZM37.4002 75.4001L36.7002 76.7L37.9002 78.6L48.5002 84.5L48.9002 82.7L37.4002 75.4001ZM19.9002 65.1L18.4002 67.6L19.1002 68L20.0002 66.9001L20.8002 67.2C20.8002 67.2 20.4002 67.8 19.9002 68.5L21.0002 69.2L21.6002 68.1L22.2002 68.5L21.5002 69.6L22.6002 70.3001L23.0002 69.3001L23.9002 69.5L23.4002 70.7L36.7002 79L35.4002 77.3001L36.4002 75.4001L19.9002 65.1ZM9.8002 58.4001L8.9002 60.2001L17.7002 65.4001L18.5002 64.6L10.0002 59.7001L10.5002 58.8L9.7002 58.2001L9.8002 58.4001ZM13.8002 51.6L15.0002 50.3L19.9002 52.8L15.1002 51.3L14.4002 52L13.8002 51.6ZM9.1002 52.1L7.7002 54.1L28.6002 66.2V68.7L29.8002 69.5V64.9001L9.1002 52.1ZM30.0002 62L29.8002 64L10.2002 52.3L12.1002 51.5L30.0002 62ZM38.7002 67.1V75L30.5002 69.9001L30.8002 62.6L38.7002 67.1ZM39.2002 67.5V75.4001L40.6002 76.2V68.2L39.2002 67.5ZM40.9002 68.5V76.5L42.3002 77.3001V69.3001L40.9002 68.5ZM42.6002 69.5V77.6L44.0002 78.4001V70.3001L42.6002 69.5ZM44.4002 70.5V78.6L45.8002 79.4001V71.2L44.4002 70.5ZM46.1002 71.6V79.8001L47.5002 80.6V72.4001L46.1002 71.6Z" fill="#55526F"/>
<path d="M47.8002 78.3V80.8L49.2002 81.6V79.1L47.8002 78.3ZM8.1002 53.5L29.8002 66.1V69.5L28.6002 68.7V66.2L7.7002 54L8.1002 53.5ZM30.6002 67.7L38.7002 72.9V75L30.5002 69.9L30.6002 67.7ZM39.2002 73.2L40.6002 74V76.3L39.2002 75.5V73.2ZM40.9002 74.2L42.3002 75V77.3L40.9002 76.5V74.2ZM42.6002 75.3L44.0002 76.1V78.5L42.6002 77.7V75.3ZM44.4002 76.3L45.8002 77.1V79.5L44.4002 78.7V76.3ZM46.1002 77.3L47.5002 78.1V80.6L46.1002 79.8V77.3ZM38.1002 75.8L37.8002 76.7L38.3002 77.7L48.6002 83.4L48.4002 84.4L37.9002 78.5L36.7002 76.6L37.4002 75.3L38.1002 75.8ZM9.0002 59.9L18.0002 65L17.6002 65.4L8.9002 60.2L9.0002 59.9ZM19.3002 66.1L35.9002 76.2L35.4002 77.2L36.7002 78.9L23.5002 70.7L24.0002 69.5L23.1002 69.3L22.7002 70.3L21.6002 69.6L22.3002 68.5L21.7002 68.1L20.9002 69.2L19.9002 68.6C20.4002 67.9 20.8002 67.3 20.8002 67.3L20.0002 67L19.1002 68.1L18.4002 67.7L19.3002 66.1Z" fill="#2D2846"/>
<path d="M47.8004 72.6V73.6L49.2004 74.4001V73.4001L47.8004 72.6ZM47.4004 73.3001L46.0004 72.5V71.5L47.4004 72.3001V73.3001ZM45.7004 72.3001L44.3004 71.5V70.6L45.7004 71.4001V72.3001ZM44.0004 71.3001L42.6004 70.5V69.6L44.0004 70.4001V71.3001ZM42.3004 70.2L40.9004 69.4001V68.5L42.3004 69.3001V70.2ZM40.5004 69.2L39.1004 68.4001V67.6L40.5004 68.4001V69.2ZM38.7004 68.1L30.8004 63.4001V62.7001L38.7004 67.2V68.1ZM29.9004 62.8L11.4004 51.8L12.1004 51.5L30.0004 62L29.9004 62.8ZM13.8004 51.6L15.0004 50.3L19.9004 52.8L15.1004 51.3L14.4004 52L13.8004 51.6Z" fill="#7E7F9D"/>
<path d="M34.8001 79.3001L32.9001 83.2001C32.9001 83.2001 28.2001 82.2001 28.2001 82.0001C28.2001 81.8001 29.2001 81.5001 29.0001 81.5001C28.9001 81.5001 26.1001 81.9001 25.7001 81.7001C25.3001 81.5001 26.0001 79.4001 26.5001 79.2001C27.1001 79.0001 34.8001 79.3001 34.8001 79.3001Z" fill="#55526F"/>
<path d="M48.6004 86.4C48.6004 86.4 42.6004 81.9 40.3004 80.8C38.1004 79.7 36.5004 79.8 36.5004 79.8C36.5004 79.8 34.4004 83.2 34.4004 83.5C34.5004 83.8 35.4004 84 35.4004 84L36.1004 83L36.2004 83.7L40.1004 85.6C40.1004 85.6 43.6004 85.8 46.3004 86.2C49.0004 86.7 48.6004 86.4 48.6004 86.4Z" fill="#FEC013"/>
<path d="M47.9001 89.0001L44.0001 92.0001C44.0001 92.0001 36.3001 90.1001 34.4001 90.1001C32.5001 90.1001 31.1001 90.8001 31.0001 90.5001C30.9001 90.2001 32.7001 89.3001 33.5001 89.0001C34.3001 88.7001 34.7001 88.5001 34.7001 88.5001C34.7001 88.5001 33.5001 88.5001 33.2001 88.5001C33.0001 88.4001 33.8001 87.1001 35.2001 87.0001C36.6001 86.7001 47.9001 89.0001 47.9001 89.0001Z" fill="#FEC013"/>
<path d="M42.8001 92.9001C42.6001 93.1001 39.8001 96.2001 39.8001 96.2001C39.8001 96.2001 34.1001 95.3001 31.6001 95.4001C29.1001 95.5001 27.9001 95.7001 28.1001 95.6001C28.3001 95.5001 29.1001 94.9001 30.2001 94.3001C31.3001 93.8001 31.8001 93.6001 31.8001 93.6001L29.5001 93.2001C29.5001 93.2001 30.6001 92.0001 33.1001 91.9001C35.6001 91.9001 42.8001 92.9001 42.8001 92.9001Z" fill="#FEC013"/>
<path d="M38.3001 97.5C38.4001 98 37.4001 103 37.4001 103C37.4001 103 35.7001 101.1 35.5001 101.1C35.3001 101 31.3001 100.8 31.3001 100.8L32.4001 102.4L28.9001 100.7L28.6001 97.8C28.6001 97.8 29.2001 97.3 31.6001 97.3C34.3001 97.3 38.3001 97.5 38.3001 97.5Z" fill="#FEC013"/>
<path d="M50.5002 87.9001C50.5002 87.9001 40.2002 97.7001 39.9002 98.2001C39.6002 98.7001 45.5002 107.5 45.5002 107.5H47.0002C47.0002 107.5 44.6002 104.7 45.3002 105.1C46.0002 105.5 51.9002 109.6 51.9002 109.6C51.9002 109.6 55.4002 106.9 57.7002 103C60.0002 99.1001 60.4002 94.0001 60.4002 94.0001L50.5002 87.9001ZM46.8002 100.8C47.4002 101.8 51.6002 106.4 51.6002 106.4C51.6002 106.4 50.5002 106.1 48.6002 104.7C46.6002 103.3 43.4002 99.8001 43.4002 99.8001L51.4002 89.8001L52.9002 91.2001C52.9002 91.3001 46.2002 99.8001 46.8002 100.8Z" fill="#FEC013"/>
<path d="M40.9001 97.2C40.3001 97.8 39.9001 98.1 39.8001 98.2C39.5001 98.7 45.4001 107.5 45.4001 107.5H46.9001C46.9001 107.5 44.5001 104.7 45.2001 105.1C45.9001 105.5 51.8001 109.6 51.8001 109.6C51.8001 109.6 52.4001 109.1 53.3001 108.3L52.0001 107.5C52.0001 107.5 51.2001 107.2 49.8001 106.5C48.4001 105.8 44.4001 102.2 44.4001 102.2V102.7C44.4001 102.7 43.4001 102.3 43.1001 101.4C42.6001 100.8 41.5001 98.4 40.9001 97.2ZM44.6001 86.1C42.7001 85.1 38.3001 82.8 38.0001 82.5C37.6001 82 37.7001 81 37.7001 81L38.3001 80.1C37.1001 79.8 36.4001 79.8 36.4001 79.8C36.4001 79.8 34.3001 83.2 34.3001 83.5C34.4001 83.8 35.3001 84 35.3001 84L36.0001 83L36.1001 83.7L40.0001 85.6C40.0001 85.6 42.3001 85.8 44.6001 86.1ZM35.2001 86.8H35.4001C35.4001 86.8 34.6001 87.4 34.8001 87.7C35.0001 88 36.1001 88.3 36.1001 88.3C36.1001 88.3 34.6001 89.2 34.9001 89.3C35.1001 89.3 43.7001 90.3 45.6001 90.7L44.0001 92C44.0001 92 36.3001 90.1 34.4001 90.1C32.5001 90.1 31.1001 90.8 31.0001 90.5C30.9001 90.2 32.7001 89.3 33.5001 89C34.3001 88.7 34.7001 88.5 34.7001 88.5C34.7001 88.5 33.5001 88.5 33.2001 88.5C33.0001 88.3 33.8001 87 35.2001 86.8ZM32.1001 92C32.0001 93 33.4001 93.6 33.4001 93.6C33.4001 93.6 32.4001 94.1 32.6001 94.2C32.8001 94.3 39.0001 94.4 41.3001 94.5C41.0001 95 39.8001 96.2 39.8001 96.2C39.8001 96.2 34.1001 95.3 31.6001 95.4C29.1001 95.5 27.9001 95.7 28.1001 95.6C28.3001 95.5 29.1001 94.9 30.2001 94.3C31.3001 93.8 31.8001 93.6 31.8001 93.6L29.5001 93.2C29.5001 93.3 30.3001 92.4 32.1001 92ZM30.4001 97.3C30.0001 97.7 29.7001 98.2 29.8001 98.4C29.9001 98.9 30.9001 99.8 30.9001 99.8C30.9001 99.8 35.8001 99.9 36.3001 100C36.5001 100 36.9001 100 37.3001 99.9C37.4001 101.4 37.6001 102.9 37.6001 102.9C37.6001 102.9 35.9001 101 35.7001 101C35.5001 100.9 31.5001 100.7 31.5001 100.7L32.6001 102.3L29.1001 100.6L28.8001 97.7C28.7001 97.8 29.1001 97.5 30.4001 97.3ZM52.9001 91.3L53.5001 92.2C53.5001 92.2 50.2001 97.6 50.1001 98.7C50.0001 99.8 53.7001 105.5 53.7001 105.5L51.7001 106.5C51.7001 106.5 47.6001 101.9 46.9001 100.9C46.2001 99.8 52.9001 91.3 52.9001 91.3Z" fill="#FA6F19"/>
<path d="M73.3004 97.9001C73.5004 97.8001 73.7004 97.7001 73.9004 97.6001C75.1004 97.1001 76.4004 96.5001 77.7004 96.0001C79.8004 95.2001 81.9004 94.3001 84.0004 93.5001L85.6004 92.9001L94.8004 112.1L86.7004 118.2L87.0004 118.3L70.0004 131L58.1004 120.1C58.1004 120.1 47.7004 112.5 40.7004 114.1C39.5004 114.4 38.4004 114.6 37.4004 114.8C37.1004 114.3 36.8004 113.9 36.4004 113.5C37.0004 113.3 37.5004 113.2 38.1004 113C40.0004 112.4 42.1004 111.5 43.9004 110.7C46.8004 109.5 49.6004 108.2 52.4004 106.8C57.6004 104.4 62.7004 101.9 67.8004 99.4001L70.9004 98.4001L73.3004 97.9001Z" fill="#240347"/>
<path d="M84.7002 95.3C84.7002 95.3 72.0002 101.6 70.6002 102.6C69.1002 103.7 64.9002 111.1 64.9002 112.4C64.9002 113.7 69.2002 115.7 69.2002 115.7C69.2002 115.7 64.1002 115 62.7002 113.8C61.3002 112.6 66.0002 102.4 66.0002 102.4C66.0002 102.4 44.8002 113 38.8002 114.8L37.7002 115.1C41.6002 120.3 46.4002 126.7 51.1002 132C55.3002 131.8 67.0002 130.8 67.0002 130.8L82.9002 119C82.9002 119 80.3002 118.2 79.3002 115C78.3002 111.8 78.1002 110.7 78.1002 110.7C78.1002 110.7 80.0002 113.9 82.3002 115.6C84.6002 117.3 84.9002 117.3 84.9002 117.3L92.6002 111.6L84.7002 95.3Z" fill="#55526F"/>
<path d="M80.8002 97.3C76.9002 99.2 71.5002 102 70.5002 102.7C70.2002 102.9 69.7002 103.5 69.1002 104.3C71.7002 103.2 80.8002 99.3 80.8002 99.3V97.3ZM67.6002 115.6C66.0002 115.3 63.6002 114.7 62.7002 114C61.3002 112.8 66.0002 102.6 66.0002 102.6C66.0002 102.6 44.8002 113 38.8002 114.8L37.7002 115.1C37.9002 115.3 38.0002 115.6 38.2002 115.8C40.4002 115.7 42.9002 115.4 45.1002 114.4C51.3002 111.6 63.2002 106 63.2002 106C63.2002 106 60.0002 112.6 60.5002 114.1C61.0002 115.6 67.7002 115.7 67.7002 115.7C67.7002 115.7 67.7002 115.6 67.6002 115.6Z" fill="#7E7F9D"/>
<path d="M83.5001 96C82.6001 96.5 81.3001 97.1 79.8001 97.9C79.9001 98.7 80.4001 100.2 82.4001 103.6C86.0001 109.9 88.2001 112 88.2001 112C88.2001 112 83.5001 114.7 82.1001 115.5C82.2001 115.5 82.2001 115.6 82.3001 115.6C84.6001 117.3 84.9001 117.3 84.9001 117.3L92.6001 111.6L92.4001 111.2C90.4001 109.3 84.6001 103.7 84.3001 100.4C83.9001 97.8 83.7001 96.5 83.5001 96ZM69.2001 104.2C67.4001 106.8 64.8001 111.4 64.9001 112.5C64.9001 113.8 69.2001 115.8 69.2001 115.8C69.2001 115.8 68.3001 115.7 67.2001 115.4C70.3001 116.5 75.2001 115.4 75.2001 115.4C75.2001 115.4 69.0001 113.9 68.0001 111.4C67.2001 109.7 68.4001 106.2 69.2001 104.2ZM61.6001 131.2C64.7001 131 67.1001 130.8 67.1001 130.8L82.9001 119C82.9001 119 80.3001 118.2 79.3001 115C78.3001 111.8 78.1001 110.7 78.1001 110.7C78.1001 110.7 77.1001 110.3 77.7001 113.9C78.3001 117.5 78.6001 118.3 78.6001 118.3L61.9001 130.7L61.6001 131.2ZM78.1001 110.7C78.1001 110.7 78.5001 111.4 79.2001 112.3C78.6001 111.4 78.1001 110.7 78.1001 110.7Z" fill="#2D2846"/>
<path d="M99 68.2L103.9 65.4C104 65.2 104.2 65.1 104.4 65L112.5 60.4C112.6 60.2 112.8 60.1 112.9 60L122.9 54.1L122.1 52.2C121.9 51.7 122.1 51 122.7 50.8L130.4 46.9C130.9 46.7 131.4 46.8 131.7 47.2L132.7 48.3C133 48.2 133.3 48.2 133.6 48.3L136.2 49.6L138 48.5L141.7 54.6L141.6 54.7C141.6 55 141.4 55.3 141.1 55.5L141 55.6L139.6 56.4L138.9 58.2L140 60.5C140.2 61 140.1 61.6 139.6 61.9L130.3 67.3001L130.5 67.7C130.8 68.2 130.6 68.9 130.1 69.2L118.8 76.2C119.2 76.2 119.6 76.3 119.9 76.4C119.9 76.4 119.9 76.4 120 76.4C120.6 76.7 121.1 77.1 121.5 77.7C121.8 78.2 122.1 78.8 122.3 79.3C122.6 80.1 122.8 81.2 122.6 82.1C122.4 82.9 122 83.7 121.1 84.2C120.7 84.4 120.2 84.6 119.6 84.6C119.2 84.6 118.8 84.6 118.5 84.6C118.3 84.7 118.2 84.7 118 84.8C117.7 84.9 117.5 85 117.2 85C116.9 85.1 116.6 85.2 116.3 85.2L115.5 85.4C114.9 85.5 114.5 85.6 114.3 85.7C114.5 85.9 114.6 86.1 114.7 86.3C114.8 86.5 114.9 86.7 115 86.9C115.1 86.9 115.1 87 115.2 87C115.4 87.1 115.6 87.2 115.8 87.4C116.4 87.8 116.9 88.4 117.2 89.1C117.4 89.5 117.5 90 117.4 90.4L117.5 90.5C117.7 90.7 117.9 90.9 118.1 91.1L120.3 93.7C120.7 94.1 120.6 94.8 120.2 95.2C120.2 95.5 120.2 95.8 120.1 96C120 96.4 119.9 96.7 119.7 97C119.6 97.1 119.5 97.3 119.4 97.4L119 101.8C119 102.2 118.7 102.5 118.4 102.7L107.2 108.3C107.2 108.3 106.7 108.6 106.1 109L106 109.1C105.8 109.3 105.6 109.4 105.4 109.4C105.1 109.6 104.7 109.8 104.4 110C103.3 110.6 97 110.6 97 110.6L96.5 110.9L94.1 112.5C93.7 112.8 93.2 112.7 92.8 112.5L91.7 111.7C90.5 110.8 89.2 109.6 88.1 108.3C87 107 85.9 105.6 85.1 104.2C84.3 102.8 83.6 101.1 83.1 99.3C82.6 97.5 82.2 95.5 82 93.8L82.2 93C82.2 92.5 82.4 92.1 82.8 91.9L93.5 85.7L93.4 85.6C93.3 85.4 93.2 85.2 93.2 85V72.2C93.2 71.8 93.4 71.4 93.8 71.2L99 68.2Z" fill="#240347"/>
<path d="M97.6002 72.6V80.9001L96.2002 81.7V73.4001L97.6002 72.6ZM108 75.4001L108.7 76.7L107.5 78.6L96.9002 84.5L96.5002 82.7L108 75.4001ZM125.5 65.1L127 67.6L126.3 68L125.4 66.9001L124.6 67.2C124.6 67.2 125 67.8 125.5 68.5L124.4 69.2L123.8 68.1L123.2 68.5L123.8 69.6L122.7 70.3001L122.3 69.3001L121.4 69.5L121.9 70.7L108.7 79L110 77.3001L109 75.4001L125.5 65.1ZM135.6 58.4001L136.5 60.3L127.7 65.5L126.9 64.7L135.4 59.8L134.9 58.9001L135.7 58.3L135.6 58.4001ZM131.6 51.6L130.4 50.3L125.5 52.8L130.3 51.3L130.9 52L131.6 51.6ZM136.3 52.1L137.7 54.1L116.8 66.2V68.7L115.6 69.5V64.9001L136.3 52.1ZM115.4 62L115.6 64L135.2 52.3L133.3 51.5L115.4 62ZM106.7 67.1V75L114.9 69.9001L114.6 62.6L106.7 67.1ZM106.2 67.5V75.4001L104.8 76.2V68.2L106.2 67.5ZM104.5 68.5V76.5L103.1 77.3001V69.3001L104.5 68.5ZM102.8 69.5V77.6L101.4 78.4001V70.3001L102.8 69.5ZM101 70.5V78.6L99.6002 79.4001V71.2L101 70.5ZM99.3002 71.6V79.8001L97.9002 80.6V72.4001L99.3002 71.6Z" fill="#55526F"/>
<path d="M97.6002 78.3V80.8L96.2002 81.6V79.1L97.6002 78.3ZM137.3 53.5L115.6 66.1V69.5L116.8 68.7V66.2L137.7 54L137.3 53.5ZM114.8 67.7L106.7 72.9V75L114.9 69.9L114.8 67.7ZM106.2 73.2L104.8 74V76.3L106.2 75.5V73.2ZM104.5 74.2L103.1 75V77.3L104.5 76.5V74.2ZM102.8 75.3L101.4 76.1V78.5L102.8 77.7V75.3ZM101 76.3L99.6002 77.1V79.5L101 78.7V76.3ZM99.3002 77.3L97.9002 78.1V80.6L99.3002 79.8V77.3ZM107.3 75.8L107.6 76.7L107.1 77.7L96.8002 83.4L97.0002 84.4L107.6 78.5L108.8 76.6L108.1 75.3L107.3 75.8ZM136.4 59.9L127.4 65L127.8 65.4L136.6 60.2L136.4 59.9ZM126.1 66.1L109.5 76.2L110 77.2L108.7 78.9L121.9 70.7L121.4 69.5L122.3 69.3L122.7 70.3L123.8 69.6L123.2 68.5L123.8 68.1L124.4 69.2L125.5 68.5C125 67.8 124.6 67.2 124.6 67.2L125.4 66.9L126.3 68L127 67.6L126.1 66.1Z" fill="#2D2846"/>
<path d="M97.6002 72.6V73.6L96.2002 74.4001V73.4001L97.6002 72.6ZM98.0002 73.3001L99.4002 72.5V71.5L98.0002 72.3001V73.3001ZM99.7002 72.3001L101.1 71.5V70.6L99.7002 71.4001V72.3001ZM101.4 71.3001L102.8 70.5V69.6L101.4 70.4001V71.3001ZM103.1 70.2L104.5 69.4001V68.5L103.1 69.3001V70.2ZM104.9 69.2L106.3 68.4001V67.6L104.9 68.4001V69.2ZM106.7 68.1L114.6 63.4001V62.7001L106.7 67.2V68.1ZM115.5 62.8L134 51.7001L133.3 51.4001L115.4 62L115.5 62.8ZM131.6 51.6L130.4 50.3L125.5 52.8L130.3 51.3L130.9 52L131.6 51.6Z" fill="#7E7F9D"/>
<path d="M110.6 79.3L112.4 83.1C112.4 83.1 117.1 82.1 117.1 81.9C117.1 81.7 116.1 81.4 116.3 81.4C116.4 81.4 119.2 81.8 119.6 81.6C120 81.4 119.3 79.3 118.8 79.1C118.3 79 110.6 79.3 110.6 79.3Z" fill="#55526F"/>
<path d="M96.9003 86.4C96.9003 86.4 102.9 81.9 105.2 80.8C107.4 79.7 109 79.8 109 79.8C109 79.8 111.1 83.2 111.1 83.5C111 83.8 110.1 84 110.1 84L109.4 83L109.3 83.7L105.4 85.6C105.4 85.6 101.9 85.8 99.2003 86.2C96.4003 86.7 96.9003 86.4 96.9003 86.4Z" fill="#FEC013"/>
<path d="M98 87.8001L102.1 91.7001C102.1 91.7001 109.1 90.1001 111 90.1001C112.9 90.1001 114.3 90.8001 114.4 90.5001C114.5 90.2001 112.7 89.3001 111.9 89.0001C111.1 88.7001 110.7 88.5001 110.7 88.5001C110.7 88.5001 111.9 88.5001 112.2 88.5001C112.4 88.4001 111.6 87.1001 110.2 87.0001C108.8 86.7001 98 87.8001 98 87.8001Z" fill="#FEC013"/>
<path d="M102.9 93.0001C103.1 93.2001 106.3 96.2001 106.3 96.2001C106.3 96.2001 111.3 95.4001 113.8 95.5001C116.3 95.6001 117.5 95.8001 117.3 95.7001C117.1 95.6001 116.3 95.0001 115.2 94.4001C114.1 93.9001 113.6 93.7001 113.6 93.7001L115.9 93.3001C115.9 93.3001 114.9 92.1001 112.3 92.0001C109.8 91.9001 102.9 93.0001 102.9 93.0001Z" fill="#FEC013"/>
<path d="M106.7 97.5C106.6 98 107.9 103 107.9 103C107.9 103 109.6 101.1 109.8 101.1C110 101 114 100.8 114 100.8L112.9 102.4L116.4 100.7L116.7 97.8C116.7 97.8 116.1 97.3 113.7 97.3C111.1 97.3 106.7 97.5 106.7 97.5Z" fill="#FEC013"/>
<path d="M105.6 98.2C105.3 97.7 95.6002 87.2 95.6002 87.2L85.2002 94C85.2002 94 85.6002 99.1 87.9002 103C90.2002 106.9 93.7002 109.6 93.7002 109.6C93.7002 109.6 99.6002 105.6 100.3 105.1C101 104.7 98.6002 107.5 98.6002 107.5H100.1C100 107.5 106 98.7 105.6 98.2ZM96.8002 104.7C94.8002 106.1 93.8002 106.4 93.8002 106.4C93.8002 106.4 97.9002 101.8 98.6002 100.8C99.2002 99.8 92.7002 91.3 92.7002 91.3L94.8002 89.4L102.1 99.9C102.1 99.8 98.8002 103.3 96.8002 104.7Z" fill="#FEC013"/>
<path d="M104.5 97.2001C105.1 97.8001 105.5 98.1001 105.6 98.2001C105.9 98.7001 100 107.5 100 107.5H98.5002C98.5002 107.5 100.9 104.7 100.2 105.1C99.5002 105.5 93.6002 109.6 93.6002 109.6C93.6002 109.6 93.0002 109.1 92.1002 108.3L93.4002 107.5C93.4002 107.5 94.2002 107.2 95.6002 106.5C97.0002 105.8 101 102.2 101 102.2V102.7C101 102.7 102 102.3 102.3 101.4C102.8 100.8 103.9 98.4001 104.5 97.2001ZM100.8 86.1001C102.7 85.1001 107.1 82.8001 107.4 82.5001C107.8 82.0001 107.6 81.1001 107.6 81.1001L107 80.2001C108.2 79.9001 108.9 79.9001 108.9 79.9001C108.9 79.9001 111 83.3001 111 83.6001C110.9 83.9001 110 84.1001 110 84.1001L109.3 83.1001L109.2 83.8001L105.3 85.7001C105.4 85.6001 103.1 85.8001 100.8 86.1001ZM110.2 86.8001H110C110 86.8001 110.8 87.4001 110.6 87.7001C110.4 88.0001 109.3 88.3001 109.3 88.3001C109.3 88.3001 110.8 89.2001 110.5 89.3001C110.3 89.3001 102.6 89.8001 100.6 90.2001L102.2 91.7001C102.2 91.7001 109.2 90.1001 111.1 90.1001C113 90.1001 114.4 90.8001 114.5 90.5001C114.6 90.2001 112.8 89.3001 112 89.0001C111.2 88.7001 110.8 88.5001 110.8 88.5001C110.8 88.5001 112 88.5001 112.3 88.5001C112.4 88.3001 111.6 87.0001 110.2 86.8001ZM113.3 92.0001C113.4 93.0001 112 93.6001 112 93.6001C112 93.6001 113 94.1001 112.8 94.2001C112.6 94.3001 107.9 95.1001 105.7 95.1001C106 95.6001 106.3 96.0001 106.3 96.0001C106.3 96.0001 111.3 95.2001 113.8 95.3001C116.3 95.4001 117.5 95.6001 117.3 95.5001C117.1 95.4001 116.3 94.8001 115.2 94.2001C114.1 93.7001 113.6 93.5001 113.6 93.5001L115.9 93.1001C115.9 93.3001 115.1 92.4001 113.3 92.0001ZM115 97.3001C115.4 97.7001 115.7 98.2001 115.6 98.4001C115.5 98.9001 114.5 99.8001 114.5 99.8001C114.5 99.8001 109.6 99.9001 109.1 100C108.9 100 108.5 100 108.1 99.9001C108 101.4 107.8 102.9 107.8 102.9C107.8 102.9 109.5 101 109.7 101C109.9 100.9 113.9 100.7 113.9 100.7L112.8 102.3L116.3 100.6L116.6 97.7001C116.7 97.8001 116.3 97.5001 115 97.3001ZM92.5002 91.3001L91.9002 92.2001C91.9002 92.2001 95.2002 97.6001 95.3002 98.7001C95.4002 99.8001 91.7002 105.5 91.7002 105.5L93.7002 106.5C93.7002 106.5 97.8002 101.9 98.5002 100.9C99.2002 99.8001 92.5002 91.3001 92.5002 91.3001Z" fill="#FA6F19"/>
<path d="M65.7002 141H14.2002L12.2002 134.3L14.1002 133.9V114.8L13.3002 114.6L12.8002 108.1H94.4002H131.2L133.2 114.6L131.3 115.1V134.2L132 134.4L132.7 141H112.1H89.9002H65.7002Z" fill="#240347"/>
<path d="M21.6001 136.4V125.3L25.8001 127.2V136.3C25.7001 136.8 25.3001 137.1 24.8001 137.2H30.8001C30.2001 137.1 29.9001 136.8 29.7001 136.3V112.6C29.9001 112.2 30.2001 111.9 30.8001 111.7H16.6001C17.2001 111.9 17.5001 112.1 17.7001 112.6V136.3C17.5001 136.8 17.2001 137.1 16.6001 137.2H22.6001C22.1001 137.2 21.7001 136.9 21.6001 136.4ZM32.8001 127.1V136.5C32.7001 137 32.3001 137.3 31.8001 137.4H46.0001C45.4001 137.3 45.1001 137 44.9001 136.5V125.7C41.7001 124.2 46.8001 126.6 36.8001 122V115H41.0001V120.4C44.2001 121.9 39.5001 119.7 44.9001 122.2V112.8C45.1001 112.4 45.4001 112.1 46.0001 111.9H31.8001C32.4001 112 32.7001 112.3 32.8001 112.8V123.6C34.3001 124.3 33.3001 123.9 40.9001 127.3V134.3H36.7001V128.9C35.3001 128.2 35.2001 128.2 35.3001 128.2C35.0001 128.1 34.4001 127.8 32.8001 127.1ZM93.4001 127.1V136.5C93.3001 137 92.9001 137.3 92.4001 137.4H106.6C106 137.3 105.7 137 105.5 136.5V125.7L104.5 125.3C104.2 125.2 105.6 125.8 97.3001 122V115H101.5V120.4C104.7 121.9 100 119.7 105.4 122.2V112.8C105.6 112.3 105.9 112.1 106.5 111.9H92.3001C92.9001 112 93.3001 112.3 93.3001 112.8V123.6L101.4 127.3V134.3H97.2001V128.9C95.8001 128.2 95.7001 128.2 95.8001 128.2C95.6001 128.1 95.0001 127.8 93.4001 127.1ZM115.6 112.7V136.4C115.5 136.9 115.1 137.2 114.6 137.3H120.6C120 137.2 119.7 136.9 119.5 136.4V115.3L123.7 117.3V136.4C123.6 136.9 123.2 137.2 122.7 137.3H128.7C128.1 137.2 127.8 136.9 127.6 136.4V112.7C127.8 112.3 128.1 112 128.7 111.8H122.7C123.3 111.9 123.6 112.2 123.7 112.7V113.8L119.5 111.8H114.6C115.2 111.9 115.5 112.2 115.6 112.7ZM108.6 112.7V136.4C108.5 136.9 108.1 137.2 107.6 137.3H113.6C113 137.2 112.7 136.9 112.5 136.4V114.8V112.7C112.7 112.3 113 112 113.6 111.8H107.6C108.1 112 108.5 112.2 108.6 112.7ZM78.9001 127V136.4C78.8001 136.9 78.4001 137.2 77.9001 137.3H92.1001C91.5001 137.2 91.2001 136.9 91.0001 136.4V125.6L90.0001 125.2C89.7001 125.1 91.1001 125.7 82.8001 121.9V114.9H87.0001V120.3C90.2001 121.8 85.5001 119.6 90.9001 122.1V112.7C91.1001 112.2 91.4001 112 92.0001 111.8H77.8001C78.4001 111.9 78.8001 112.2 78.8001 112.7V123.5L86.9001 127.2V134.2H82.7001V128.8C81.3001 128.1 81.2001 128.1 81.3001 128.1C81.1001 128.1 80.5001 127.8 78.9001 127ZM63.8001 112.7V136.4C63.6001 136.9 63.3001 137.2 62.7001 137.3H68.7001C68.1001 137.2 67.8001 136.9 67.7001 136.4V125.3L71.9001 127.2V136.3C71.8001 136.8 71.4001 137.1 70.9001 137.2H76.9001C76.3001 137.1 76.0001 136.8 75.8001 136.3V112.6C76.0001 112.2 76.3001 111.9 76.9001 111.7H62.7001C63.3001 111.9 63.7001 112.2 63.8001 112.7ZM67.7001 121.8V114.8H71.9001V123.7L67.7001 121.8ZM48.7001 127.1V136.5C48.6001 137 48.2001 137.3 47.7001 137.4H61.9001C61.3001 137.3 61.0001 137 60.8001 136.5V125.7C57.6001 124.2 62.7001 126.6 52.7001 122V115H56.9001V120.4C60.1001 121.9 55.4001 119.7 60.8001 122.2V112.8C61.0001 112.4 61.3001 112.1 61.9001 111.9H47.6001C48.2001 112 48.5001 112.3 48.6001 112.8V123.6C50.1001 124.3 49.1001 123.9 56.7001 127.3V134.3H52.5001V128.9C51.1001 128.2 51.0001 128.2 51.1001 128.2C50.9001 128.1 50.2001 127.8 48.7001 127.1ZM21.6001 121.9V114.9H25.8001V123.8L21.6001 121.9Z" fill="white"/>
<path d="M27.5004 113.6V135.6H28.0004V113.6H27.5004ZM19.9004 113.6H19.4004V135.6H19.9004V113.6ZM34.5004 129.6V135.5H35.0004V129.8C35.0004 129.8 34.9004 129.8 34.9004 129.7C34.8004 129.7 34.6004 129.7 34.5004 129.6ZM42.6004 135.5H43.1004V126.5C42.9004 126.4 42.8004 126.4 42.6004 126.3V135.5ZM35.0004 122.8V113.6H34.5004V122.6C34.7004 122.6 34.8004 122.7 35.0004 122.8ZM42.6004 113.6V119.3C42.7004 119.4 42.8004 119.4 42.9004 119.5C42.9004 119.5 43.0004 119.5 43.0004 119.6V113.7L42.6004 113.6ZM95.1004 129.6V135.5H95.6004V129.8C95.6004 129.8 95.5004 129.8 95.5004 129.7H95.4004C95.3004 129.7 95.2004 129.7 95.1004 129.6ZM103.3 135.5H103.8V126.5C103.7 126.4 103.5 126.4 103.3 126.3V135.5ZM95.6004 122.8V113.6H95.1004V122.6L95.6004 122.8ZM103.3 113.6V119.3C103.4 119.4 103.5 119.4 103.6 119.5C103.6 119.5 103.7 119.5 103.7 119.6V113.7L103.3 113.6ZM117.4 135.5H117.9V113.5H117.4V135.5ZM125.5 116.3V135.5H126V113.5H125.5V116.3ZM110.3 135.5H110.8V113.5H110.3V135.5ZM80.6004 129.6V135.5H81.1004V129.8C81.1004 129.8 81.0004 129.8 81.0004 129.7H80.9004C80.8004 129.7 80.7004 129.6 80.6004 129.6ZM88.7004 135.5H89.2004V126.5C89.0004 126.4 88.9004 126.4 88.7004 126.3V135.5ZM81.1004 122.7V113.5H80.6004V122.5L81.1004 122.7ZM88.7004 113.5V119.2C88.8004 119.3 88.9004 119.3 89.0004 119.4C89.0004 119.4 89.1004 119.4 89.1004 119.5V113.6L88.7004 113.5ZM66.0004 122.8V113.6H65.5004V135.6H66.0004V122.8ZM73.6004 126.3V135.5H74.1004V113.5H73.6004V126.3ZM50.4004 129.6V135.5H50.9004V129.8C50.9004 129.8 50.8004 129.8 50.8004 129.7H50.7004C50.5004 129.7 50.5004 129.6 50.4004 129.6ZM58.5004 135.5H59.0004V126.5C58.8004 126.4 58.7004 126.4 58.5004 126.3V135.5ZM50.8004 122.8V113.6H50.3004V122.6C50.5004 122.6 50.7004 122.7 50.8004 122.8ZM58.5004 113.6V119.3C58.6004 119.4 58.7004 119.4 58.8004 119.5C58.8004 119.5 58.9004 119.5 58.9004 119.6V113.7L58.5004 113.6Z" fill="#02344D"/>
<path d="M21.6002 136.4V125.3L20.4002 124.7V136.3C20.5002 136.8 20.9002 137.1 21.4002 137.2H22.6002C22.1002 137.2 21.7002 136.9 21.6002 136.4ZM29.6002 137.3H30.6002H30.7002C30.2002 137.2 29.9002 136.9 29.7002 136.5V112.8C29.8002 112.4 30.2002 112.1 30.7002 112H30.6002H16.7002H29.7002C29.1002 112.1 28.8002 112.4 28.6002 112.9V136.6C28.6002 136.9 29.0002 137.2 29.6002 137.3ZM30.8002 111.8H30.5002H30.8002ZM32.8002 127.1V127.7C33.5002 128 33.9002 128.2 34.1002 128.3C34.0002 128.3 34.1002 128.3 35.5002 129V134.4H39.7002H36.7002V129C35.3002 128.3 35.2002 128.3 35.3002 128.3C35.0002 128.1 34.4002 127.8 32.8002 127.1ZM44.7002 137.3H45.9002C45.3002 137.2 45.0002 136.9 44.8002 136.4V125.6C41.6002 124.1 46.7002 126.5 36.7002 121.9V114.9H35.5002V121.9C45.6002 126.5 40.4002 124.1 43.6002 125.6V136.4C43.8002 136.9 44.1002 137.2 44.7002 137.3ZM43.6002 121.5C43.9002 121.7 44.3002 121.8 44.8002 122.1V112.7C45.0002 112.3 45.3002 112 45.9002 111.8H31.7002H44.7002C44.1002 112 43.8002 112.3 43.6002 112.7V121.5ZM93.4002 127.1V127.7C94.1002 128 94.5002 128.2 94.7002 128.3C94.6002 128.3 94.7002 128.3 96.1002 129V134.4H100.3H97.3002V129C95.9002 128.3 95.8002 128.3 95.9002 128.3C95.6002 128.1 95.0002 127.8 93.4002 127.1ZM105.4 137.3H106.4C106.5 137.3 106.5 137.3 106.5 137.3C106 137.2 105.7 136.9 105.5 136.4V125.6L104.5 125.2C104.2 125.1 105.6 125.7 97.3002 121.9V114.9H96.0002V121.9C104.2 125.7 102.9 125.1 103.2 125.2L104.2 125.6V136.4C104.4 136.9 104.8 137.2 105.4 137.3ZM104.3 121.5C104.6 121.7 105 121.8 105.5 122.1V112.7C105.6 112.3 106 112 106.5 111.8H106.4H106.7H105.5H92.5002H105.4C104.8 111.9 104.5 112.2 104.3 112.7V121.5V121.5V121.5ZM119.4 137.3H120.6C120 137.2 119.7 136.9 119.5 136.4V115.3L118.3 114.7V136.4C118.5 136.9 118.8 137.2 119.4 137.3ZM127.5 137.3H128.7C128.1 137.2 127.8 136.9 127.6 136.4V112.7C127.8 112.3 128.1 112 128.7 111.8H127.5H122.7H127.5C126.9 112 126.6 112.2 126.4 112.7V136.4C126.6 136.9 127 137.2 127.5 137.3ZM123.8 113.8L119.6 111.8H114.7H118.4L123.8 114.3V113.8ZM112.4 137.3H113.4H113.5C113 137.2 112.7 136.9 112.5 136.4V114.8V112.7C112.6 112.3 113 112 113.5 111.8H113.4H113.6H112.4H107.6H112.4C111.8 111.9 111.5 112.2 111.3 112.7V114.8V136.4C111.4 136.9 111.8 137.2 112.4 137.3ZM78.9002 127V127.6C79.6002 127.9 80.0002 128.1 80.2002 128.2C80.1002 128.2 80.2002 128.2 81.6002 128.9V134.3H85.8002H82.8002V128.9C81.4002 128.2 81.3002 128.2 81.4002 128.2C81.1002 128.1 80.5002 127.8 78.9002 127ZM90.8002 137.3H91.3002C91.4002 137.3 91.5002 137.2 91.6002 137.2C91.3002 137 91.0002 136.8 90.9002 136.4V125.6L89.9002 125.2C89.6002 125.1 91.0002 125.7 82.7002 121.9V114.9H81.5002V121.9C89.7002 125.7 88.4002 125.1 88.7002 125.2L89.7002 125.6V136.4C89.9002 136.9 90.2002 137.1 90.8002 137.3ZM89.7002 121.5C90.0002 121.7 90.4002 121.8 90.9002 122.1V112.7C91.0002 112.4 91.2002 112.2 91.5002 112C91.4002 111.9 91.2002 111.9 91.1002 111.9H91.9002H92.0002H90.8002H77.8002H90.8002C90.2002 112 89.9002 112.3 89.7002 112.8V121.5ZM67.5002 137.3H68.7002C68.1002 137.2 67.8002 136.9 67.7002 136.4V125.3L66.5002 124.7V136.3C66.6002 136.9 67.0002 137.2 67.5002 137.3ZM75.7002 137.3H76.6002C76.7002 137.3 76.7002 137.3 76.7002 137.3C76.2002 137.2 75.9002 136.9 75.7002 136.5V112.8C75.8002 112.4 76.2002 112.1 76.7002 112H76.6002H76.9002H62.7002H75.7002C75.1002 112.2 74.8002 112.4 74.6002 112.9V136.6C74.7002 136.9 75.1002 137.2 75.7002 137.3ZM67.7002 121.8V114.8H66.5002V121.8L71.9002 124.3V123.7L67.7002 121.8ZM48.7002 127.1V127.7C49.4002 128 49.8002 128.2 50.0002 128.3C49.9002 128.3 50.0002 128.3 51.4002 129V134.4H55.6002H52.6002V129C51.2002 128.3 51.1002 128.3 51.2002 128.3C50.9002 128.1 50.2002 127.8 48.7002 127.1ZM60.6002 137.3H61.8002H61.5002H61.6002C61.1002 137.2 60.8002 136.9 60.6002 136.4V125.6C57.4002 124.1 62.5002 126.5 52.5002 121.9V114.9H51.3002V121.9C61.4002 126.5 56.2002 124.1 59.4002 125.6V136.4C59.6002 136.9 60.0002 137.2 60.6002 137.3ZM59.5002 121.5C59.8002 121.7 60.2002 121.8 60.7002 122.1V112.7C60.8002 112.3 61.2002 112 61.7002 111.9H61.6002H60.6002H47.6002H60.6002C60.0002 112 59.7002 112.3 59.5002 112.8V121.5ZM21.6002 121.9V114.9H20.4002V121.9L25.8002 124.4V123.8L21.6002 121.9Z" fill="#A9C0DE"/>
</g>
<defs>
<linearGradient id="paint0_linear_97_173" x1="71.4893" y1="10.1735" x2="74.6224" y2="144.353" gradientUnits="userSpaceOnUse">
<stop stop-color="#FDE32B"/>
<stop offset="1" stop-color="#EE563C"/>
</linearGradient>
<clipPath id="clip0_97_173">
<rect width="145" height="160" fill="white"/>
</clipPath>
</defs>
</svg>
