<svg width="120" height="133" viewBox="0 0 120 133" fill="none" xmlns="http://www.w3.org/2000/svg">
<g clip-path="url(#clip0_97_1019)">
<path d="M100.5 87.8H110.2L113 96.8L110.8 97.4V110L111.2 110.1L112.1 119.3H76.1C71.9 123.5 67.5 127.3 62.8 130.9L60.1 133.1L57.4 130.9C52.8 127.3 48.4 123.4 44.1 119.3H10.1L7.4 110.2L9.6 109.7V96.9L9 96.7L8.3 87.6H19.9C14.4 77.6 10.3 66.9 8.2 55.8L3.6 53.1C2.3 52.4 1.8 50.7 2.4 49.3L3 48.2L2.5 48C2.4 47.9 2.3 47.9 2.3 47.8C2 47.6 1.7 47.3 1.5 47L0 46.2L5.2 37.5L6.5 38.3V37L9.5 35.8C15.5 33.5 21.5 31.3 27.6 29.2C29.8 28.5 32 27.7 34.1 27C35 23.2 36.5 19.5 38.8 16.4C40.5 14.2 42.4 12.1 44.5 10.2C47.1 7.9 49.9 5.7 52.7 3.7C54 2.8 55.4 1.9 56.8 1L58.8 0L60.5 0.9C61.6 1.5 62.7 2.1 63.7 2.6C65.5 3.6 67.3 4.7 69 5.8C71 6.7 73.4 8.6 75 10C75.9 10.7 76.7 11.5 77.5 12.4C79.1 14.2 80.6 16.1 81.8 18.1C82.1 18.6 82.4 19.2 82.6 19.8C83.8 21.9 84.7 24.4 85.3 26.9C87.6 27.6 90 28.3 92.3 29.1C98.3 31.3 104.4 33.5 110.4 35.7L113.4 36.9V38.2L114.7 37.4L119.9 46.1L118.6 46.8C118.4 47.1 118.1 47.5 117.8 47.6C117.7 47.7 117.6 47.7 117.6 47.8L117.1 48L117.7 49.2C118.4 50.6 117.9 52.3 116.5 53L111.9 55.7C110.1 67.1 106 77.8 100.5 87.8Z" fill="url(#paint0_linear_97_1019)"/>
<path d="M11.2998 40.2001C11.5998 75.5001 34.1998 106.9 60.1998 127.1C86.2998 106.8 108.8 75.5001 109.1 40.2001C109.1 40.2001 102.8 37.8001 91.0998 33.5001C79.3998 29.2001 60.0998 25.4001 60.0998 25.4001C60.0998 25.4001 40.8998 29.3001 29.0998 33.5001C17.5998 37.8001 11.2998 40.2001 11.2998 40.2001Z" fill="#873720"/>
<path d="M13.6999 42.0001C14.1999 57.2001 18.8999 71.8001 26.2999 84.8001C34.7999 100 46.9999 113.4 60.1999 123.9C73.2999 113.3 85.4999 100 94.0999 84.8001C101.5 71.7001 106.2 57.2001 106.7 42.0001C104.1 41.0001 98.6999 39.0001 90.3999 36.0001C79.9999 32.2001 63.1999 28.7001 60.2999 28.0001C57.2999 28.7001 40.6999 32.2001 30.1999 36.0001C21.7999 39.0001 16.2999 41.1001 13.6999 42.0001ZM22.0999 87.4001C14.0999 73.1001 8.9999 57.1001 8.8999 40.2001V38.4001L10.5999 37.8001C10.5999 37.8001 17.0999 35.3001 28.6999 31.1001C40.4999 26.9001 59.8999 22.9001 59.8999 22.9001H60.7999C60.8999 22.9001 80.1999 26.9001 91.9999 31.1001C103.6 35.3001 110 37.8001 110.1 37.8001L111.8 38.4001V40.2001C111.6 57.1001 106.6 73.0001 98.4999 87.4001C89.2999 103.9 76.0999 118.2 61.8999 129.2L60.3999 130.4L58.8999 129.2C44.5999 118.2 31.3999 103.9 22.0999 87.4001Z" fill="#240347"/>
<path d="M30.7002 48.5L15.2002 59.1C15.2002 59.1 22.1002 87.7 38.2002 106.1C54.3002 124.5 61.0002 126.6 61.0002 126.6C61.0002 126.6 80.3002 110.6 90.0002 97.3C99.5002 84 107.5 60 107.5 60L94.2002 59.4L30.7002 48.5Z" fill="#240347"/>
<path d="M96.6999 54.2L97.2999 55.8L86.3999 49.8L87.9999 49.5L89.1999 50.1L88.6999 50.7L94.3999 53.8L95.0999 53.2L96.6999 54.2Z" fill="#3875DA"/>
<path d="M88.6999 51L86.3999 49.8L87.9999 49.5L89.1999 50.1L88.6999 50.7L88.8999 50.8L88.6999 51Z" fill="#12EBFA"/>
<path d="M97.5997 56.4001L96.6997 57.1001L85.6997 51.3001L85.8997 50.1001L97.5997 56.4001Z" fill="#3875DA"/>
<path d="M97.5997 56.4001L97.0997 56.9001L87.6997 52.0001L87.4997 52.3001L85.6997 51.3001L85.8997 50.1001L97.5997 56.4001Z" fill="#12EBFA"/>
<path d="M94.2998 56.7001L76.7998 87.4001L74.7998 86.7001L92.6998 55.9001L94.2998 56.7001Z" fill="white"/>
<path d="M91.8999 55.4L73.8999 86.5L69.6999 84.4L68.8999 82.9L86.7999 52.7L91.8999 55.4Z" fill="#C6C8C9"/>
<path d="M69.9999 84.5L69.6999 84.4L68.8999 82.9L86.7999 52.7L88.2999 53.5L69.9999 84.5Z" fill="#12EBFA"/>
<path d="M30.5998 46.6001C30.5998 46.4001 30.5998 46.4001 30.5998 46.2001L34.6998 42.8001L42.1998 38.1001L40.3998 25.6001L72.1998 31.2001L76.4998 38.6001L83.1998 42.8001L87.2998 46.2001C87.2998 46.4001 87.2998 46.4001 87.2998 46.6001L102.3 56.1001C101.6 58.2001 100.7 61.0001 99.5998 64.7001C98.3998 68.4001 95.1998 73.3001 91.0998 78.3001C90.8998 78.4001 90.4998 78.5001 90.2998 78.6001L85.4998 82.0001C82.3998 85.6001 79.9998 89.9001 76.6998 93.3001C74.9998 95.1001 73.0998 97.0001 71.1998 98.7001C68.1998 101.4 65.4998 104.2 62.4998 107L60.5998 109.3L56.4998 105.2C53.5998 102.4 50.5998 99.5001 47.5998 96.8001C45.6998 95.1001 43.9998 93.2001 42.0998 91.4001C38.6998 87.9001 35.3998 84.3001 32.1998 80.7001L30.1998 79.9001C25.2998 71.0001 20.4998 60.8001 17.7998 54.5001L30.5998 46.6001ZM75.0998 36.6001L69.9998 30.1001L75.3998 36.6001C75.3998 36.6001 75.1998 36.6001 75.0998 36.6001Z" fill="#240347"/>
<path d="M44.3 42C44.3 42 43.3 45.7 47.6 53.5C51.3 60.3 57.6 64 59 64.8C60.3 63.5 62.2 61.7 63.9 57.9C65.6 54.1 66 52.6 66 52.6L60.7 57.2V48.2L62.9 50.1C62.9 50.1 64.5 49.7 67.5 47.7C70.6 45.7 74.5 42.3 74.5 42.3L74.3 42.1C73.6 42.6 70.2 45 66.4 46.3C62.3 47.7 63.3 47.1 63.3 47.1L59.2 46.4L55.1 47.1C55.1 47.1 56.2 47.7 52 46.3C48.1 44.8 44.3 42 44.3 42Z" fill="#55526F"/>
<path d="M47.3999 53.3001C47.4999 53.4001 47.4999 53.5001 47.5999 53.5001C51.2999 60.4001 57.4999 64.1001 58.9999 64.9001C60.2999 63.6001 62.1999 61.8001 63.8999 58.0001C65.5999 54.2001 65.9999 52.7001 65.9999 52.7001L60.6999 57.3001V48.2001L62.8999 50.1001C62.8999 50.1001 64.4999 49.7001 67.4999 47.7001C70.5999 45.7001 74.4999 42.3001 74.4999 42.3001L74.2999 42.1001C73.5999 42.6001 70.1999 45.0001 66.3999 46.3001C62.2999 47.7001 63.2999 47.1001 63.2999 47.1001L59.1999 46.4001L59.4999 59.0001L62.0999 57.4001L58.5999 62.1001C58.5999 62.1001 52.0999 58.3001 49.2999 55.5001C48.3999 54.7001 47.8999 53.9001 47.3999 53.3001Z" fill="#2D2846"/>
<path d="M55.7996 43.0999L47.0996 39.7C47.0996 39.7 50.6996 43.4 52.1996 43.9C53.8996 44.4 55.7996 43.0999 55.7996 43.0999ZM62.4996 43.0999L71.1996 39.7C71.1996 39.7 67.5996 43.4 66.0996 43.9C64.3996 44.4 62.4996 43.0999 62.4996 43.0999Z" fill="#FDDB34"/>
<path d="M59.2001 75.9001C59.2001 75.9001 53.2001 72.9001 49.7001 69.1001C46.1001 65.3001 44.7001 62.4001 44.7001 62.4001L46.7001 70.7001C46.7001 70.7001 44 65.0001 42.6 61.1001C41.3 57.3001 41.2001 54.5001 41.2001 54.5001L40.0001 57.0001C40.0001 57.0001 40.1 54.9001 40.6 53.3001C41.1 51.6001 41.9001 50.8001 41.9001 50.8001L42 47.4001L36.1 51.0001C36.1 51.0001 36.3 52.8001 37.3 56.5001C38.3 60.2001 38.7001 61.2001 38.7001 61.2001C38.7001 61.2001 36.7 59.1001 35.3 56.0001C34 52.6001 33.5 52.0001 33.5 52.0001C33.5 52.0001 32.9001 58.2001 36.4001 66.5001C39.9001 74.8001 50.6 81.6001 50.6 81.6001L49.9001 78.6001L59.1 85.3001L68.3001 78.6001L67.6 81.6001C67.6 81.6001 78.4001 74.9001 81.8001 66.5001C85.3001 58.2001 84.6 52.0001 84.6 52.0001C84.6 52.0001 84.2001 52.7001 82.8001 55.7001C81.4001 58.8001 79.4001 60.9001 79.4001 60.9001C79.4001 60.9001 79.9001 60.0001 80.8001 56.2001C81.8001 52.5001 82 50.7001 82 50.7001L76.1 47.1001L76.2 50.5001C76.2 50.5001 77 51.3001 77.5 53.0001C78 54.7001 78.1 56.7001 78.1 56.7001L76.9001 54.2001C76.9001 54.2001 76.8 56.9001 75.5 60.8001C74.2 64.7001 71.6 70.4001 71.6 70.4001L73.5 62.1001C73.5 62.1001 72.2 65.0001 68.5 68.8001C65.2 72.9001 59.2001 75.9001 59.2001 75.9001Z" fill="#FDDB34"/>
<path d="M59.1996 75.9C59.1996 75.9 53.1996 72.8999 49.6996 69.0999C47.5996 66.8999 46.1996 64.9 45.5996 63.7C46.2996 67.7 55.1996 77.5999 59.2996 78.1999C62.8996 77.6999 72.0996 68 72.9996 63.7C72.2996 64.9 70.8996 66.8999 68.8996 69.0999C65.1996 72.8999 59.1996 75.9 59.1996 75.9ZM40.9996 52.5C41.4996 51.3 42.0996 50.7 42.0996 50.7L42.1996 47.2999L38.0996 49.7999L37.5996 50L36.5996 50.5999L36.2996 50.7999C36.2996 50.7999 36.4996 52.3999 37.2996 55.5999C38.0996 57.2999 38.9996 58.8 39.7996 59.7C41.8996 62.3 41.9996 62.2999 41.9996 62.2999L47.2996 72.4L46.6996 70.5C46.1996 69.5 43.8996 64.4999 42.6996 61.0999C41.3996 57.2999 41.2996 54.5 41.2996 54.5L40.0996 57C40.0996 57 40.1996 54.8999 40.6996 53.2999V53.2V53.0999V53L40.9996 52.5ZM81.7996 50.5L76.3996 47.2L76.4996 50.5999C76.4996 50.5999 77.0996 51.2 77.5996 52.4V52.5V52.5999V52.7V52.7999V52.9C78.0996 54.6 78.1996 56.5999 78.1996 56.5999L76.9996 54.0999C76.9996 54.0999 76.8996 56.7999 75.5996 60.7999C74.3996 64.1999 72.0996 69.1999 71.5996 70.1999L70.9996 72.0999L76.0996 62C76.0996 62 76.0996 62 78.2996 59.4C78.9996 58.5 79.9996 56.9999 80.7996 55.2999C81.6996 51.9999 81.7996 50.5 81.7996 50.5ZM33.5996 52C33.5996 52 32.8996 58.2 36.3996 66.5C39.8996 74.8 50.5996 81.5999 50.5996 81.5999L49.8996 78.5999L59.0996 85.3L68.2996 78.5999L67.5996 81.5999C67.5996 81.5999 78.3996 74.9 81.7996 66.5C85.2996 58.2 84.5996 52 84.5996 52C84.5996 52 84.4996 60.9 79.6996 67.5C75.0996 74.1 69.9996 77.5999 69.9996 77.5999L70.0996 74.5L59.2996 82.1999L48.4996 74.5L48.5996 77.5999C48.5996 77.5999 43.4996 74.2 38.6996 67.5C33.6996 60.8 33.5996 52 33.5996 52Z" fill="#EE7E24"/>
<path d="M35.2998 57.5C35.2998 57.5 35.6998 60.6 39.1998 66C42.6998 71.4 47.3998 75.7 47.3998 75.7L48.2998 73.5C48.2998 73.5 51.0998 75.6 53.3998 77.3C55.6998 79 56.2998 79.2 56.2998 79.2C56.2998 79.2 52.1998 75.5 50.1998 74C48.2998 72.4 47.6998 71.7 47.6998 71.7L46.9998 74.1C46.9998 74.1 40.7998 67.7 38.5998 64.1C36.3998 60.5 35.2998 57.5 35.2998 57.5Z" fill="#FDDB34"/>
<path d="M35.5998 38.5L35.4998 35C35.3998 33.2 35.6998 30.9 35.9998 29.1C36.6998 25.0001 38.1998 21 40.6998 17.6C42.2998 15.4 44.1998 13.5 46.0998 11.8C48.6998 9.50005 51.2998 7.40005 54.0998 5.40005C55.2998 4.50005 56.6998 3.60005 58.0998 2.70005L58.7998 2.30005L59.4998 2.70005C60.5998 3.20005 61.6998 3.80005 62.5998 4.40005C64.3998 5.40005 66.1998 6.50005 67.9998 7.60005C67.9998 7.60005 70.3998 8.60005 73.4998 11.6C74.2998 12.3 75.1998 13 75.7998 13.8C77.2998 15.5 78.7998 17.3001 79.8998 19.2001C80.0998 19.6001 80.4998 20.2001 80.5998 20.7001C86.5998 31.1 85.1998 54.6 85.1998 54.6L85.3998 55.3L79.1998 46.6C78.5998 45.8 77.9998 44.9 77.2998 44.1C75.8998 42.4 74.4998 40.6001 72.8998 38.9001C71.4998 37.4001 69.5998 35.6 67.7998 34.5C65.8998 33.4 63.7998 32.4001 61.7998 31.7001C61.0998 31.5001 60.4998 31.2 59.7998 31C58.4998 31.5 57.0998 32.1 55.6998 32.6L56.5998 34.6L55.3998 35.3C54.3998 36 53.3998 36.6 52.3998 37.3C50.1998 38.8 48.1998 40.3 46.0998 42C44.2998 43.5 42.1998 45.4 40.7998 47.3C39.3998 49.4 37.9998 51.5 36.5998 53.5C36.1998 54.2 35.6998 54.9001 35.2998 55.7001L32.2998 61L32.4998 54.9001C32.5998 53.5001 32.6998 52 32.7998 50.6C33.0998 47.5 33.4998 44.4001 34.2998 41.4001C34.9998 40.5001 35.2998 39.5 35.5998 38.5Z" fill="#240347"/>
<path d="M80.8998 45.8001C80.8998 45.8001 73.9998 36.2001 69.0998 33.4001C63.9998 30.6001 60.1998 29.7001 60.1998 29.7001C60.1998 29.7001 52.1998 32.6001 49.3998 34.6001C46.3998 36.5001 45.2998 38.1001 45.2998 38.1001C45.2998 38.1001 47.7998 36.9001 51.1998 35.8001C54.5998 34.6001 55.2998 34.4001 55.2998 34.4001C55.2998 34.4001 44.1998 41.2001 40.2998 46.8001C36.3998 52.4001 34.7998 55.4001 34.7998 55.4001C34.7998 55.4001 34.9998 45.8001 37.3998 38.5001C39.7998 31.2001 45.6998 24.2001 45.6998 24.2001C45.6998 24.2001 43.2998 25.2001 40.8998 28.8001C38.2998 32.3001 36.9998 35.0001 36.9998 35.0001C36.9998 35.0001 36.7998 25.8001 41.9998 18.6001C47.1998 11.4001 58.9998 4.1001 58.9998 4.1001C58.9998 4.1001 70.7998 10.0001 74.9998 14.8001C79.1998 19.5001 79.6998 21.6001 79.6998 21.6001C79.6998 21.6001 77.9998 18.9001 74.7998 16.4001C71.5998 14.0001 66.9998 11.6001 66.9998 11.6001C66.9998 11.6001 70.0998 14.0001 71.9998 17.0001C73.8998 20.0001 75.9998 26.8001 75.9998 26.8001C75.9998 26.8001 74.8998 25.1001 71.2998 22.8001C67.6998 20.5001 63.4998 19.1001 63.4998 19.1001C63.4998 19.1001 72.4998 25.9001 76.2998 31.0001C80.0998 36.1001 80.3998 38.4001 80.3998 38.4001C80.3998 38.4001 78.6998 36.5001 75.9998 34.9001C73.2998 33.2001 71.2998 32.4001 71.2998 32.4001C71.2998 32.4001 75.7998 36.1001 77.6998 39.1001C79.3998 42.0001 80.8998 45.8001 80.8998 45.8001Z" fill="#55526F"/>
<path d="M59.9996 29.6001C59.9996 29.6001 51.9996 32.5001 49.1996 34.5001C46.1996 36.4001 45.0996 38.0001 45.0996 38.0001C45.0996 38.0001 47.5996 36.8001 50.9996 35.7001C54.3996 34.6001 55.0996 34.3001 55.0996 34.3001C55.0996 34.3001 43.9996 41.1001 40.0996 46.7001C36.1996 52.3001 34.5996 55.3001 34.5996 55.3001C34.5996 55.3001 34.8996 45.7001 37.2996 38.4001C39.6996 31.0001 45.4996 24.0001 45.4996 24.0001C45.4996 24.0001 45.2996 24.1001 45.0996 24.2001L49.6996 20.9001C49.6996 20.9001 47.0996 22.5001 43.1996 29.4001C39.2996 36.4001 36.8996 47.4001 36.8996 47.4001C36.8996 47.4001 37.6996 45.7001 40.2996 43.2001C42.7996 40.7001 44.6996 39.3001 44.6996 39.3001L41.9996 39.9001C41.9996 39.9001 45.4996 35.6001 50.7996 32.6001C55.8996 29.6001 59.9996 29.6001 59.9996 29.6001ZM38.5996 31.9001C37.4996 33.7001 36.8996 34.9001 36.8996 34.9001C36.8996 34.9001 36.6996 25.7001 41.8996 18.5001C47.0996 11.3001 58.9996 4.1001 58.9996 4.1001C58.9996 4.1001 50.9996 10.3001 44.8996 17.4001C39.9996 23.0001 38.7996 29.5001 38.5996 31.9001Z" fill="#7E7F9D"/>
<path d="M31.5996 50.3C31.5996 50.3 30.3996 62.5 37.7996 73.7C45.1996 84.9 51.2996 89.3001 51.2996 89.3001L43.6996 78.7C43.6996 78.7 51.7996 86.0001 55.8996 88.3001C59.9996 90.6001 59.9996 90.6 59.9996 90.6C59.9996 90.6 73.7996 83.0001 80.2996 74.9001C86.7996 66.8001 88.0996 55.9001 88.0996 55.9001C88.0996 55.9001 89.2996 59.9 85.3996 70C81.3996 80.1 78.5996 83.8001 78.5996 83.8001C78.5996 83.8001 80.9996 81.4 84.0996 77.2C87.1996 73 88.6996 69.6 88.6996 69.6C88.6996 69.6 85.7996 79.6001 81.3996 85.4001C76.9996 91.4001 76.9996 91.4001 76.9996 91.4001L81.7996 89.2C81.7996 89.2 74.7996 97.8 69.4996 102C64.1996 106.2 61.3996 107.7 61.3996 107.7C61.3996 107.7 48.3996 97.3 41.2996 89.2C34.2996 81 30.6996 73.5 30.6996 73.5C30.6996 73.5 31.8996 77.3 33.3996 81.1C34.9996 84.9 35.7996 86.3001 35.7996 86.3001C35.7996 86.3001 31.2996 81.3 26.8996 71.2C22.5996 61.1 22.0996 57.6 22.0996 57.6C22.0996 57.6 23.9996 55.7001 25.0996 54.7001C26.1996 53.8001 26.1996 53.8 26.1996 53.8C26.1996 53.8 27.7996 59.0001 28.4996 61.4001C29.1996 63.6001 30.1996 64.9001 30.1996 64.9001C30.1996 64.9001 27.9996 54.6 28.2996 53.1C28.4996 51.6 31.5996 50.3 31.5996 50.3Z" fill="#55526F"/>
<path d="M43.6996 78.5999C43.6996 78.5999 51.7996 85.8999 55.8996 88.1999C59.9996 90.4999 59.9996 90.5 59.9996 90.5C59.9996 90.5 73.7996 82.7999 80.3996 74.6999C86.8996 66.5999 88.1996 55.7 88.1996 55.7C88.1996 55.7 89.3996 59.7 85.4996 69.8C81.4996 79.9 78.6996 83.5999 78.6996 83.5999C78.6996 83.5999 81.0996 81.2 84.1996 77C87.2996 72.8 88.7996 69.4 88.7996 69.4C88.7996 69.4 85.8996 79.3999 81.4996 85.1999C76.9996 91.2999 76.9996 91.3 76.9996 91.3L81.7996 89.0999C81.7996 89.0999 74.7996 97.7 69.4996 101.9C64.1996 106.1 61.3996 107.6 61.3996 107.6C61.3996 107.6 48.3996 97.2999 41.2996 89.0999C37.4996 84.6999 34.7996 80.5 32.8996 77.5C34.6996 80.2 37.6996 84 42.7996 88.3C52.6996 96.9 59.0996 97.3 60.6996 97.5C62.2996 97.8 68.6996 94.8 68.6996 94.8C68.6996 94.8 62.7996 99.1 61.8996 99.4C60.9996 99.6 52.5996 96.5 52.5996 96.5L61.4996 103.6C61.4996 103.6 70.1996 97.9 72.4996 95C74.8996 92.1 77.8996 86.5 77.8996 86.5L70.9996 91.9C70.9996 91.9 73.3996 89.1999 76.3996 84.5999C79.2996 79.8999 80.8996 76.6999 80.8996 76.6999C80.8996 76.6999 80.5996 76.9 75.8996 81.8C71.0996 86.8 60.0996 93 60.0996 93C60.0996 93 59.4996 92.4 54.5996 89.3C49.7996 86.2 43.6996 78.5999 43.6996 78.5999ZM32.4996 78.9C32.6996 79.6 33.0996 80.2999 33.2996 81.0999C34.8996 84.8999 35.6996 86.3 35.6996 86.3C35.6996 86.3 31.1996 81.2999 26.7996 71.1999C26.3996 70.1999 25.9996 69.2 25.5996 68.4C27.6996 71.8 30.7996 76.4 32.4996 78.9Z" fill="#2D2846"/>
<path d="M31.5996 50.3C31.5996 50.3 30.3996 62.5 37.7996 73.7C45.1996 84.9 51.2996 89.3001 51.2996 89.3001C38.0996 80.6001 31.7996 69.6 29.4996 54.1L28.2996 54.8C28.1996 54.1 28.1996 53.5 28.1996 53.1C28.4996 51.6 31.5996 50.3 31.5996 50.3ZM22.7996 60.3C22.1996 58.3 22.0996 57.6 22.0996 57.6C22.0996 57.6 23.9996 55.7001 25.0996 54.7001C26.1996 53.8001 26.1996 53.8 26.1996 53.8C26.1996 53.8 26.3996 54.7 26.8996 56L22.7996 60.3Z" fill="#7E7F9D"/>
<path d="M80.9 45.8001C80.9 45.8001 74 36.2001 69.1 33.4001C64 30.6001 60.2 29.7001 60.2 29.7001C60.2 29.7001 52.2 32.6001 49.4 34.6001C47.2 36.0001 46 37.3001 45.5 37.8001C45.7 37.4001 46.6 36.1001 49 34.1001C52.1 31.4001 57.4 28.4001 59.4 27.8001C61.4 27.2001 68.3 30.5001 68.3 30.5001L65 27.5001C65 27.5001 66 27.6001 67.9 27.9001C69.7 28.3001 71.3 28.6001 71.3 28.6001C71.3 28.6001 61.4 19.0001 60.5 19.0001C59.6 19.0001 51.5 23.2001 51.5 23.2001C51.5 23.2001 59.2 16.6001 60.5 16.6001C61.8 16.5001 71.6 20.2001 71.6 20.2001C71.6 20.2001 71.6 20.2001 69.9 17.9001C68.2 15.6001 62 8.90015 62 8.90015C62 8.90015 62.9 9.00015 64.7 9.50015C66.6 9.90015 68.4 10.7001 68.4 10.7001C68.4 10.7001 67.7 10.0001 65.9 8.60015C64.2 7.30015 58.8 3.90015 58.8 3.90015C58.8 3.90015 70.7 10.0001 74.9 14.8001C79.1 19.5001 79.6 21.6001 79.6 21.6001C79.6 21.6001 77.9 18.9001 74.7 16.4001C71.6 14.0001 67 11.6001 67 11.6001C67 11.6001 70.1 14.0001 72 17.0001C73.9 20.0001 76 26.8001 76 26.8001C76 26.8001 74.9 25.1001 71.3 22.8001C67.7 20.5001 63.5 19.1001 63.5 19.1001C63.5 19.1001 72.5 25.9001 76.3 31.0001C80.1 36.1001 80.4 38.4001 80.4 38.4001C80.4 38.4001 78.7 36.5001 76 34.9001C73.3 33.2001 71.3 32.4001 71.3 32.4001C71.3 32.4001 75.8 36.1001 77.7 39.1001C79.4 42.0001 80.9 45.8001 80.9 45.8001Z" fill="#2D2846"/>
<path d="M21.5 61.1001C21.7 60.9001 21.9 60.7001 22.2 60.5001C23.1 59.7001 26.2 59.2001 30.5 58.9001C38.4 65.7001 57.2 83.4001 57.2 83.4001C57.2 83.4001 47.6 87.9001 40.2 91.2001C38.8 85.9001 35.5 73.2001 35.9 71.5001C36.4 69.3001 29.5 61.4001 29.5 61.4001C29.5 61.4001 25.8 61.3001 21.5 61.1001Z" fill="#2D2846"/>
<path d="M38.4 56.7L34.3 54.4C34.2 54.2 34.1 54.2 33.9 54.1L27.2 50.3C27.2 50 27 50 26.9 49.9L18.6 45L19.3 43.4C19.5 43 19.3 42.4 18.8 42.2L12.4 39C12 38.8 11.6 38.9 11.3 39.2L10.5 40.1C10.3 40 10 40 9.8 40.1L7.6 41.2L6.1 40.3L3 45.4L3.2 45.5C3.2 45.7 3.4 46 3.6 46.2L3.7 46.3L4.9 47L5.4 48.5L4.5 50.4C4.3 50.8 4.4 51.3 4.8 51.6L12.5 56.1L12.3 56.4C12.1 56.8 12.2 57.4 12.6 57.6L21.9 63.4C21.6 63.4 21.2 63.5 21 63.6C21 63.6 21 63.6 20.9 63.6C20.4 63.8 20 64.2 19.7 64.7C19.4 65.1 19.2 65.6 19 66C18.8 66.7 18.6 67.6001 18.8 68.3001C19 69.0001 19.3 69.6 20 70C20.3 70.2 20.7 70.3001 21.2 70.3001C21.5 70.3001 21.9 70.3001 22.1 70.3001C22.3 70.4001 22.3 70.4 22.5 70.5C22.7 70.6 22.9 70.7 23.2 70.7C23.4 70.8 23.7 70.9001 23.9 70.9001L24.6 71.1C25.1 71.2 25.4 71.3001 25.6 71.3001C25.4 71.5001 25.4 71.6001 25.3 71.8001C25.2 72.0001 25.1 72.1001 25.1 72.3001C25 72.3001 25 72.4001 24.9 72.4001C24.7 72.5001 24.6 72.6 24.4 72.7C23.9 73 23.5 73.5 23.2 74.1C23 74.4 23 74.8 23 75.2V75.4001C22.8 75.6001 22.7 75.7001 22.5 75.9001L20.7 78.1C20.4 78.4 20.5 79.0001 20.7 79.3001C20.7 79.5001 20.7 79.8 20.8 80C20.9 80.3 21 80.6001 21.1 80.8001C21.2 80.9001 21.3 81 21.3 81.1L21.6 84.8001C21.6 85.1001 21.8 85.4 22.1 85.5L31.4 90.2C31.4 90.2 31.8 90.4001 32.3 90.8001L32.4 90.9001C32.6 91.1001 32.7 91.1 32.9 91.1C33.1 91.3 33.5 91.4 33.7 91.6C34.6 92.1 39.8 92.1 39.8 92.1L40.2 92.3001L42.2 93.6C42.5 93.8 42.9 93.8 43.3 93.6L44.2 92.9001C45.2 92.2001 46.3 91.2 47.2 90.1C48.1 89 49 87.9 49.7 86.7C50.4 85.5 50.9 84.1 51.4 82.6C51.8 81.1 52.1 79.4 52.3 78L52.4 77C52.4 76.6 52.2 76.3 51.9 76.1L43 70.9001L43.1 70.8001C43.2 70.6001 43.3 70.5001 43.3 70.3001V60C43.3 59.7 43.1 59.3 42.8 59.2L38.4 56.7Z" fill="#240347"/>
<path d="M39.5999 60.3V67.2L40.7999 67.9001V61L39.5999 60.3ZM30.9999 62.7001L30.3999 63.8L31.3999 65.4001L40.1999 70.3001L40.4999 68.8001L30.9999 62.7001ZM16.4999 54.1L15.2999 56.2001L15.8999 56.5L16.5999 55.6L17.2999 55.8C17.2999 55.8 16.9999 56.3001 16.5999 56.9001L17.4999 57.5L17.9999 56.6L18.4999 56.9001L17.8999 57.8L18.7999 58.4001L19.0999 57.6L19.7999 57.8L19.3999 58.8L30.3999 65.7L29.2999 64.3001L30.0999 62.7001L16.4999 54.1ZM8.0999 48.5L7.3999 50L14.6999 54.3L15.3999 53.6L8.3999 49.5L8.7999 48.8L7.9999 48.4001L8.0999 48.5ZM11.3999 42.9001L12.3999 41.8L16.4999 43.9001L12.4999 42.7001L11.8999 43.3L11.3999 42.9001ZM7.4999 43.3L6.3999 45L23.6999 55V57.1L24.6999 57.8V54L7.4999 43.3ZM24.7999 51.5L24.5999 53.2001L8.3999 43.5L9.9999 42.8L24.7999 51.5ZM31.9999 55.8V62.4001L25.1999 58.2001L25.3999 52.1L31.9999 55.8ZM32.4999 56.1V62.7001L33.6999 63.4001V56.8L32.4999 56.1ZM33.8999 56.9001V63.5L35.0999 64.2V57.5L33.8999 56.9001ZM35.2999 57.8V64.5L36.4999 65.2V58.5L35.2999 57.8ZM36.7999 58.6V65.3001L37.9999 66V59.2001L36.7999 58.6ZM38.1999 59.5V66.3001L39.3999 67V60.2001L38.1999 59.5Z" fill="#55526F"/>
<path d="M39.5999 65.1V67.2L40.7999 67.9V65.8L39.5999 65.1ZM6.6999 44.5L24.6999 55V57.8L23.6999 57.1V55L6.3999 44.9L6.6999 44.5ZM25.2999 56.3L31.9999 60.6V62.3L25.1999 58.1L25.2999 56.3ZM32.4999 60.8L33.6999 61.5V63.4L32.4999 62.7V60.8ZM33.8999 61.7L35.0999 62.4V64.3L33.8999 63.6V61.7ZM35.2999 62.6L36.4999 63.3V65.3L35.2999 64.6V62.6ZM36.7999 63.4L37.9999 64.1V66.1L36.7999 65.4V63.4ZM38.1999 64.3L39.3999 65V67L38.1999 66.3V64.3ZM31.5999 63L31.3999 63.7L31.7999 64.5L40.2999 69.2L40.0999 70L31.3999 65.1L30.3999 63.5L30.9999 62.4L31.5999 63ZM7.4999 49.8L14.9999 54L14.6999 54.3L7.3999 50L7.4999 49.8ZM15.9999 54.9L29.6999 63.3L29.2999 64.1L30.3999 65.5L19.4999 58.7L19.8999 57.7L19.1999 57.5L18.8999 58.3L17.9999 57.7L18.5999 56.8L17.9999 56.6L17.2999 57.5L16.4999 57C16.8999 56.4 17.1999 55.9 17.1999 55.9L16.4999 55.7L15.7999 56.6L15.1999 56.3L15.9999 54.9Z" fill="#2D2846"/>
<path d="M39.5999 60.3V61.1L40.7999 61.8V61L39.5999 60.3ZM39.2999 60.9001L38.0999 60.2001V59.4001L39.2999 60.1V60.9001ZM37.7999 60.1L36.5999 59.4001V58.7001L37.7999 59.4001V60.1ZM36.3999 59.3L35.1999 58.6V57.9001L36.3999 58.6V59.3ZM34.9999 58.4001L33.7999 57.7001V57L34.9999 57.7001V58.4001ZM33.4999 57.5L32.2999 56.8V56.1L33.4999 56.8V57.5ZM31.9999 56.6L25.4999 52.7001V52.1L31.9999 55.8V56.6ZM24.7999 52.2001L9.3999 43.1L9.9999 42.9001L24.7999 51.6V52.2001ZM11.3999 42.9001L12.3999 41.8L16.4999 43.9001L12.4999 42.7001L11.8999 43.3L11.3999 42.9001Z" fill="#7E7F9D"/>
<path d="M28.8 65.9L27.2 69.1C27.2 69.1 23.3 68.3 23.3 68.1C23.3 67.9 24.1 67.7 24 67.7C23.9 67.7 21.6 68 21.3 67.9C21 67.8 21.5 66 22 65.8C22.4 65.7 28.8 65.9 28.8 65.9Z" fill="#55526F"/>
<path d="M40.2 71.7999C40.2 71.7999 35.2 68.0999 33.3 67.0999C31.5 66.1999 30.2 66.2999 30.2 66.2999C30.2 66.2999 28.5 69.0999 28.5 69.3999C28.6 69.5999 29.3 69.7999 29.3 69.7999L29.9 68.9999L30 69.5999L33.2 71.1999C33.2 71.1999 36.1 71.3999 38.3 71.6999C40.6 72.0999 40.2 71.7999 40.2 71.7999Z" fill="#FEC013"/>
<path d="M39.7001 74L36.5001 76.5C36.5001 76.5 30.1001 74.9 28.5001 74.9C26.9001 74.9 25.8001 75.5 25.7001 75.2C25.6001 75 27.1001 74.2 27.8001 74C28.5001 73.8 28.8001 73.6 28.8001 73.6C28.8001 73.6 27.8001 73.6 27.6001 73.6C27.4001 73.5 28.1001 72.4 29.3001 72.4C30.3001 72.1 39.7001 74 39.7001 74Z" fill="#FEC013"/>
<path d="M35.4 77.2001C35.3 77.4001 33 80.0001 33 80.0001C33 80.0001 28.3 79.3001 26.2 79.3001C24.1 79.4001 23.1 79.5001 23.3 79.5001C23.5 79.4001 24.1 78.9001 25 78.4001C25.9 78.0001 26.3 77.8001 26.3 77.8001L24.4 77.5001C24.4 77.5001 25.3 76.5001 27.4 76.4001C29.5 76.4001 35.4 77.2001 35.4 77.2001Z" fill="#FEC013"/>
<path d="M31.7002 81.0001C31.8002 81.4001 31.0002 85.6001 31.0002 85.6001C31.0002 85.6001 29.6002 84.0001 29.4002 84.0001C29.2002 83.9001 25.9002 83.8001 25.9002 83.8001L26.8002 85.1001L23.9002 83.7001L23.7002 81.3001C23.7002 81.3001 24.2002 80.9001 26.2002 80.9001C28.4002 80.9001 31.7002 81.0001 31.7002 81.0001Z" fill="#FEC013"/>
<path d="M41.8 73.1001C41.8 73.1001 33.3001 81.2001 33.0001 81.7001C32.7001 82.2001 37.6 89.4001 37.6 89.4001H38.8C38.8 89.4001 36.8001 87.1001 37.4001 87.4001C38.0001 87.7001 42.9001 91.1001 42.9001 91.1001C42.9001 91.1001 45.8001 88.9001 47.7001 85.6001C49.6001 82.4001 49.9001 78.1001 49.9001 78.1001L41.8 73.1001ZM38.8 83.8001C39.3 84.6001 42.8 88.5001 42.8 88.5001C42.8 88.5001 41.9 88.3001 40.3 87.1001C38.6 85.9001 36.0001 83.0001 36.0001 83.0001L42.6 74.7001L43.8 75.9001C43.8 75.9001 38.3 83.0001 38.8 83.8001Z" fill="#FEC013"/>
<path d="M33.9 80.8C33.4 81.3 33.1 81.5 33 81.6C32.8 82 37.6 89.3 37.6 89.3H38.8C38.8 89.3 36.8 87 37.4 87.3C38 87.6 42.9 91 42.9 91C42.9 91 43.4 90.6 44.1 89.9L43 89.2C43 89.2 42.3 89 41.2 88.4C40 87.8 36.7 84.8 36.7 84.8V85.2C36.7 85.2 35.9 84.9 35.6 84.1C35.3 83.8 34.4 81.8 33.9 80.8ZM36.9 71.6C35.3 70.8 31.7 68.9 31.4 68.6C31.1 68.2 31.2 67.4 31.2 67.4L31.7 66.7C30.7 66.5 30.1 66.5 30.1 66.5C30.1 66.5 28.4 69.3 28.4 69.6C28.5 69.8 29.2 70 29.2 70L29.8 69.2L29.9 69.8L33.1 71.4C33.1 71.2 35 71.3 36.9 71.6ZM29.2 72.2H29.4C29.4 72.2 28.7 72.7 28.9 72.9C29.1 73.1 30 73.4 30 73.4C30 73.4 28.8 74.1 29 74.2C29.2 74.2 36.3 75 37.9 75.4L36.6 76.5C36.6 76.5 30.2 74.9 28.6 74.9C27 74.9 25.9 75.5 25.8 75.2C25.7 75 27.2 74.2 27.9 74C28.6 73.8 28.9 73.6 28.9 73.6C28.9 73.6 27.9 73.6 27.7 73.6C27.3 73.4 28 72.3 29.2 72.2ZM26.6 76.5C26.5 77.3 27.7 77.8 27.7 77.8C27.7 77.8 26.9 78.2 27 78.3C27.1 78.4 32.3 78.5 34.2 78.5C34 79 33 80 33 80C33 80 28.3 79.3 26.2 79.3C24.1 79.3 23.1 79.5 23.3 79.5C23.5 79.4 24.1 78.9 25 78.4C25.9 78 26.3 77.8 26.3 77.8L24.4 77.5C24.4 77.6 25.1 76.8 26.6 76.5ZM25.2 80.9C24.9 81.2 24.6 81.6 24.7 81.8C24.8 82.2 25.6 83 25.6 83C25.6 83 29.7 83.1 30.1 83.2C30.3 83.2 30.6 83.2 30.9 83.1C31 84.3 31.1 85.6 31.1 85.6C31.1 85.6 29.7 84 29.6 84C29.4 83.9 26.1 83.8 26.1 83.8L27 85L24.1 83.6L23.9 81.2C23.8 81.3 24.1 81 25.2 80.9ZM43.8 75.9L44.3 76.6C44.3 76.6 41.6 81.1 41.5 82C41.4 82.9 44.5 87.7 44.5 87.7L42.8 88.5C42.8 88.5 39.4 84.7 38.8 83.8C38.3 83 43.8 75.9 43.8 75.9Z" fill="#FA6F19"/>
<path d="M60.7002 81.4C60.9002 81.3 61.0002 81.2 61.2002 81.2C62.2002 80.8 63.3002 80.3 64.3002 79.9C66.0002 79.2 67.8002 78.5 69.5002 77.8L70.8002 77.3L78.4002 93.3L71.7002 98.4L71.9002 98.5L58.0002 108.9L48.1002 99.8C48.1002 99.8 39.5002 93.5 33.7002 94.8C32.7002 95 31.8002 95.2 31.0002 95.4C30.8002 95 30.5002 94.7 30.2002 94.3C30.7002 94.1 31.1002 94.1 31.6002 93.9C33.2002 93.4 34.9002 92.7 36.4002 92C38.8002 91 41.1002 89.9 43.4002 88.8C47.7002 86.8 51.9002 84.7 56.2002 82.6L58.8002 81.8L60.7002 81.4Z" fill="#240347"/>
<path d="M70.1002 79.2C70.1002 79.2 59.6002 84.4 58.4002 85.3C57.2002 86.2 53.7002 92.4 53.7002 93.4C53.7002 94.4 57.3002 96.1 57.3002 96.1C57.3002 96.1 53.1002 95.5 51.9002 94.5C50.7002 93.5 54.6002 85 54.6002 85C54.6002 85 37.0002 93.8 32.1002 95.3L31.2002 95.5C34.4002 99.8 38.4002 105.1 42.3002 109.5C45.8002 109.3 55.5002 108.5 55.5002 108.5L68.7002 98.7C68.7002 98.7 66.5002 98 65.7002 95.4C64.9002 92.8 64.7002 91.8 64.7002 91.8C64.7002 91.8 66.3002 94.5 68.2002 95.9C70.1002 97.3 70.4002 97.3 70.4002 97.3L76.8002 92.6L70.1002 79.2Z" fill="#55526F"/>
<path d="M66.9002 80.9001C63.7002 82.5001 59.2002 84.8001 58.4002 85.4001C58.2002 85.6001 57.7002 86.1001 57.2002 86.7001C59.4002 85.8001 66.9002 82.5001 66.9002 82.5001V80.9001ZM56.0002 96.1001C54.7002 95.9001 52.7002 95.4001 51.9002 94.8001C50.7002 93.8001 54.6002 85.3001 54.6002 85.3001C54.6002 85.3001 37.0002 93.9001 32.1002 95.4001L31.2002 95.6001C31.4002 95.8001 31.4002 96.0001 31.6002 96.2001C33.4002 96.1001 35.5002 95.9001 37.3002 95.0001C42.4002 92.7001 52.3002 88.0001 52.3002 88.0001C52.3002 88.0001 49.6002 93.5001 50.1002 94.7001C50.5002 96.1001 56.1002 96.2001 56.0002 96.1001C56.1002 96.1001 56.1002 96.2001 56.0002 96.1001Z" fill="#7E7F9D"/>
<path d="M69.2 79.8C68.5 80.2 67.4 80.7 66.1 81.4C66.2 82.1 66.6 83.3 68.3 86.1C71.3 91.3 73.1 93.1 73.1 93.1C73.1 93.1 69.2 95.3 68 96C68.1 96 68.1 96.1 68.2 96.1C70.1 97.5 70.4 97.5 70.4 97.5L76.8 92.8L76.6 92.5C74.9 90.9 70.1 86.3 69.9 83.5C69.5 81.3 69.3 80.2 69.2 79.8ZM57.3 86.6C55.8 88.8 53.7 92.6 53.7 93.5C53.7 94.6 57.3 96.2 57.3 96.2C57.3 96.2 56.6 96.1 55.6 95.9C58.2 96.8 62.2 95.9 62.2 95.9C62.2 95.9 57.1 94.7 56.2 92.6C55.7 91.2 56.6 88.3 57.3 86.6ZM51 109.1C53.6 108.9 55.6 108.8 55.6 108.8L68.7 99C68.7 99 66.5 98.3 65.7 95.7C64.9 93.1 64.7 92.1 64.7 92.1C64.7 92.1 63.9 91.8 64.4 94.8C64.9 97.8 65.1 98.5 65.1 98.5L51.3 108.8L51 109.1ZM64.7 92C64.7 92 65 92.6 65.6 93.3C65.1 92.6 64.7 92 64.7 92Z" fill="#2D2846"/>
<path d="M81.9999 56.7L86.0999 54.4C86.1999 54.2 86.2999 54.2 86.4999 54.1L93.1999 50.3C93.2999 50.1 93.3999 50.1 93.4999 50L101.8 45.1L101.1 43.5C100.9 43.1 101.1 42.5 101.6 42.3L108 39C108.4 38.8 108.8 38.9 109.1 39.2L109.9 40.1C110.1 40 110.4 40 110.6 40.1L112.8 41.2L114.3 40.3L117.4 45.4L117.3 45.5C117.3 45.7 117.1 46 116.9 46.2L116.8 46.3L115.6 47L115 48.5L115.9 50.4C116.1 50.8 116 51.3 115.6 51.6L107.9 56.1L108.1 56.4C108.3 56.8 108.2 57.4 107.8 57.6L98.3999 63.4C98.6999 63.4 99.0999 63.5 99.2999 63.6C99.2999 63.6 99.2999 63.6 99.3999 63.6C99.8999 63.8 100.3 64.2 100.6 64.7C100.8 65.1 101.1 65.6 101.3 66C101.5 66.7 101.7 67.6001 101.5 68.3001C101.3 69.0001 101 69.6 100.3 70C99.9999 70.2 99.5999 70.3001 99.0999 70.3001C98.7999 70.3001 98.3999 70.3001 98.1999 70.3001C97.9999 70.4001 97.9999 70.4 97.7999 70.5C97.5999 70.6 97.3999 70.7 97.0999 70.7C96.8999 70.8 96.5999 70.9001 96.3999 70.9001L95.6999 71C95.1999 71.1 94.8999 71.2 94.6999 71.2C94.8999 71.4 94.8999 71.5 94.9999 71.7C95.0999 71.9 95.1999 72 95.1999 72.2C95.2999 72.2 95.2999 72.3001 95.3999 72.3001C95.5999 72.4001 95.6999 72.5 95.8999 72.6C96.3999 72.9 96.7999 73.4 97.0999 74C97.2999 74.3 97.2999 74.7 97.2999 75.1L97.3999 75.2C97.5999 75.4 97.6999 75.5 97.8999 75.7L99.6999 77.9001C99.9999 78.2001 99.8999 78.8 99.5999 79.1C99.5999 79.3 99.5999 79.6001 99.4999 79.8001C99.3999 80.1001 99.2999 80.4 99.1999 80.6C98.9999 80.7 98.9999 80.9 98.8999 81L98.5999 84.7C98.5999 85 98.3999 85.3001 98.0999 85.4001L88.7999 90C88.7999 90 88.3999 90.2 87.8999 90.6L87.7999 90.7C87.5999 90.9 87.4999 90.9001 87.2999 90.9001C87.0999 91.1001 86.6999 91.2001 86.4999 91.4001C85.5999 91.9001 80.3999 91.9001 80.3999 91.9001L79.9999 92.1L77.9999 93.4001C77.6999 93.6001 77.2999 93.6001 76.8999 93.4001L75.9999 92.7C74.9999 92 73.8999 91.0001 72.9999 89.9001C72.0999 88.8001 71.1999 87.7 70.4999 86.5C69.7999 85.3 69.2999 83.9001 68.7999 82.4001C68.3999 80.9001 68.0999 79.2001 67.8999 77.8001L68.0999 77.1C68.0999 76.7 68.2999 76.4 68.5999 76.2L77.4999 71L77.3999 70.9001C77.2999 70.7001 77.1999 70.6 77.1999 70.4V60C77.1999 59.7 77.3999 59.3 77.6999 59.2L81.9999 56.7Z" fill="#240347"/>
<path d="M80.8001 60.3V67.2L79.6001 67.9001V61L80.8001 60.3ZM89.4001 62.7001L90.0001 63.8L89.0001 65.4001L80.2001 70.3001L79.9001 68.8001L89.4001 62.7001ZM103.9 54.1L105.1 56.2001L104.5 56.5L103.8 55.6L103.1 55.8C103.1 55.8 103.4 56.3001 103.8 56.9001L102.9 57.5L102.4 56.6L101.9 56.9001L102.4 57.8L101.5 58.4001L101.2 57.6L100.5 57.8L100.9 58.8L90.0001 65.7L91.1001 64.3001L90.3001 62.7001L103.9 54.1ZM112.3 48.5L113 50.1L105.7 54.4001L105 53.7001L112 49.6L111.6 48.9001L112.3 48.5ZM109 42.9001L108 41.8L103.9 43.9001L107.9 42.7001L108.4 43.3L109 42.9001ZM112.9 43.3L114 45L96.7001 55V57.1L95.7001 57.8V54L112.9 43.3ZM95.6001 51.5L95.8001 53.2001L112 43.5L110.4 42.8L95.6001 51.5ZM88.4001 55.8V62.4001L95.2001 58.2001L94.9001 52L88.4001 55.8ZM88.0001 56.1V62.7001L86.8001 63.4001V56.8L88.0001 56.1ZM86.5001 56.9001V63.5L85.3001 64.2V57.5L86.5001 56.9001ZM85.1001 57.8V64.5L84.0001 65.2V58.5L85.1001 57.8ZM83.6001 58.6V65.3001L82.5001 66V59.2001L83.6001 58.6ZM82.2001 59.5V66.3001L81.1001 67V60.2001L82.2001 59.5Z" fill="#55526F"/>
<path d="M80.8001 65.1V67.2L79.6001 67.9V65.8L80.8001 65.1ZM113.7 44.5L95.7001 55V57.8L96.7001 57.1V55L114 44.9L113.7 44.5ZM95.1001 56.3L88.4001 60.6V62.3L95.2001 58.1L95.1001 56.3ZM88.0001 60.8L86.8001 61.5V63.4L88.0001 62.7V60.8ZM86.5001 61.7L85.3001 62.4V64.3L86.5001 63.6V61.7ZM85.1001 62.6L84.0001 63.3V65.3L85.2001 64.6V62.6H85.1001ZM83.6001 63.4L82.4001 64.1V66.1L83.6001 65.4V63.4ZM82.2001 64.3L81.0001 65V67L82.2001 66.3V64.3ZM88.9001 63L89.1001 63.7L88.7001 64.5L80.2001 69.2L80.4001 70L89.2001 65.1L90.2001 63.5L89.6001 62.4L88.9001 63ZM113 49.8L105.5 54L105.8 54.3L113.1 50L113 49.8ZM104.4 54.9L90.7001 63.3L91.1001 64.1L90.0001 65.6L100.9 58.8L100.5 57.8L101.2 57.6L101.5 58.4L102.4 57.8L101.9 56.9L102.4 56.6L102.9 57.5L103.8 56.9C103.4 56.3 103.1 55.8 103.1 55.8L103.8 55.6L104.5 56.5L105.1 56.2L104.4 54.9Z" fill="#2D2846"/>
<path d="M80.8001 60.3V61.1L79.6001 61.8V61L80.8001 60.3ZM81.2001 60.9001L82.4001 60.2001V59.4001L81.2001 60.1V60.9001ZM82.6001 60.1L83.8001 59.4001V58.7001L82.6001 59.4001V60.1ZM84.0001 59.3L85.2001 58.6V57.9001L84.0001 58.5V59.3ZM85.4001 58.4001L86.6001 57.7001V57L85.4001 57.7001V58.4001ZM86.9001 57.5L88.1001 56.8V56.1L86.9001 56.8V57.5ZM88.4001 56.6L94.9001 52.7001V52.1L88.4001 55.8V56.6ZM95.7001 52.2001L111 43L110.4 42.8L95.6001 51.6L95.7001 52.2001ZM109 42.9001L108 41.8L103.9 43.9001L107.9 42.7001L108.4 43.3L109 42.9001Z" fill="#7E7F9D"/>
<path d="M91.6001 65.9L93.1001 69.1C93.1001 69.1 97.0001 68.3 97.0001 68.1C97.0001 67.9 96.2001 67.7 96.3001 67.7C96.4001 67.7 98.7001 68 99.0001 67.9C99.3001 67.7 98.8001 66 98.3001 65.8C98.0001 65.7 91.6001 65.9 91.6001 65.9Z" fill="#55526F"/>
<path d="M80.1998 71.7999C80.1998 71.7999 85.1998 68.0999 87.0998 67.0999C88.8998 66.1999 90.1998 66.2999 90.1998 66.2999C90.1998 66.2999 91.8998 69.0999 91.8998 69.3999C91.7998 69.5999 91.0998 69.7999 91.0998 69.7999L90.5998 68.9999L90.4998 69.5999L87.2998 71.1999C87.2998 71.1999 84.3998 71.3999 82.1998 71.6999C79.7998 72.0999 80.1998 71.7999 80.1998 71.7999Z" fill="#FEC013"/>
<path d="M81.2002 73.0001L84.6002 76.2001C84.6002 76.2001 90.4002 74.9001 92.0002 74.9001C93.6002 74.9001 94.7002 75.5001 94.8002 75.2001C94.9002 75.0001 93.4002 74.2001 92.7002 74.0001C92.0002 73.8001 91.7002 73.6001 91.7002 73.6001C91.7002 73.6001 92.7002 73.6001 92.9002 73.6001C93.1002 73.5001 92.4002 72.4001 91.2002 72.4001C90.1002 72.1001 81.2002 73.0001 81.2002 73.0001Z" fill="#FEC013"/>
<path d="M85.2002 77.2999C85.4002 77.4999 88.0002 79.9999 88.0002 79.9999C88.0002 79.9999 92.1002 79.2999 94.2002 79.3999C96.3002 79.4999 97.3002 79.5999 97.1002 79.5999C96.9002 79.4999 96.3002 78.9999 95.4002 78.4999C94.5002 78.0999 94.1002 77.8999 94.1002 77.8999L96.0002 77.5999C96.0002 77.5999 95.2002 76.5999 93.0002 76.4999C90.9002 76.3999 85.2002 77.2999 85.2002 77.2999Z" fill="#FEC013"/>
<path d="M88.4 81.0001C88.3 81.4001 89.4 85.6001 89.4 85.6001C89.4 85.6001 90.8 84.0001 91 84.0001C91.2 83.9001 94.5 83.8001 94.5 83.8001L93.6 85.1001L96.5 83.7001L96.7 81.3001C96.7 81.3001 96.2 80.9001 94.2 80.9001C92 80.9001 88.4 81.0001 88.4 81.0001Z" fill="#FEC013"/>
<path d="M87.5001 81.6C87.3001 81.2 79.2001 72.5 79.2001 72.5L70.6001 78.2C70.6001 78.2 70.9001 82.4 72.8001 85.7C74.7001 89 77.6001 91.2 77.6001 91.2C77.6001 91.2 82.5001 87.9 83.1001 87.5C83.7001 87.2 81.7001 89.5 81.7001 89.5H82.9001C82.8001 89.4 87.8001 82 87.5001 81.6ZM80.2001 87C78.5001 88.2 77.7001 88.4 77.7001 88.4C77.7001 88.4 81.1001 84.6 81.7001 83.7C82.2001 82.9 76.8001 75.8 76.8001 75.8L78.5001 74.2L84.5001 82.9C84.6001 83 81.8001 85.9 80.2001 87Z" fill="#FEC013"/>
<path d="M86.4999 80.8C86.9999 81.3 87.2999 81.5 87.3999 81.6C87.5999 82 82.7999 89.3 82.7999 89.3H81.5999C81.5999 89.3 83.5999 87 82.9999 87.3C82.3999 87.6 77.4999 91 77.4999 91C77.4999 91 76.9999 90.7 76.2999 90L77.3999 89.3C77.3999 89.3 78.0999 89.1 79.1999 88.5C80.3999 87.9 83.6999 84.9 83.6999 84.9V85.3C83.6999 85.3 84.4999 85 84.7999 84.2C85.0999 83.8 85.9999 81.8 86.4999 80.8ZM83.4999 71.6C85.0999 70.8 88.6999 68.9 88.9999 68.6C89.2999 68.2 89.1999 67.4 89.1999 67.4L88.6999 66.7C89.6999 66.5 90.2999 66.5 90.2999 66.5C90.2999 66.5 91.9999 69.3 91.9999 69.6C91.8999 69.8 91.1999 70 91.1999 70L90.5999 69.2L90.4999 69.8L87.2999 71.4C87.2999 71.2 85.3999 71.3 83.4999 71.6ZM91.2999 72.2H91.0999C91.0999 72.2 91.7999 72.7 91.5999 72.9C91.3999 73.1 90.4999 73.4 90.4999 73.4C90.4999 73.4 91.6999 74.1 91.4999 74.2C91.2999 74.2 84.9999 74.6 83.2999 74.9L84.5999 76.1C84.5999 76.1 90.3999 74.8 91.9999 74.8C93.5999 74.8 94.6999 75.4 94.7999 75.1C94.8999 74.9 93.3999 74.1 92.6999 73.9C91.9999 73.7 91.6999 73.5 91.6999 73.5C91.6999 73.5 92.6999 73.5 92.8999 73.5C93.0999 73.4 92.3999 72.3 91.2999 72.2ZM93.7999 76.5C93.8999 77.3 92.6999 77.8 92.6999 77.8C92.6999 77.8 93.4999 78.2 93.3999 78.3C93.1999 78.4 89.2999 79 87.4999 79C87.6999 79.4 87.9999 79.7 87.9999 79.7C87.9999 79.7 92.0999 79 94.1999 79.1C96.2999 79.2 97.2999 79.3 97.0999 79.3C96.8999 79.2 96.2999 78.7 95.3999 78.2C94.4999 77.8 94.0999 77.6 94.0999 77.6L95.9999 77.3C95.9999 77.6 95.2999 76.8 93.7999 76.5ZM95.1999 80.9C95.4999 81.2 95.7999 81.6 95.6999 81.8C95.5999 82.2 94.7999 83 94.7999 83C94.7999 83 90.6999 83.1 90.2999 83.2C90.0999 83.2 89.7999 83.2 89.4999 83.1C89.3999 84.3 89.2999 85.6 89.2999 85.6C89.2999 85.6 90.6999 84 90.8999 84C91.0999 83.9 94.3999 83.8 94.3999 83.8L93.3999 85L96.2999 83.6L96.4999 81.2C96.5999 81.3 96.2999 81 95.1999 80.9ZM76.5999 75.9L76.0999 76.6C76.0999 76.6 78.7999 81.1 78.8999 82C78.9999 82.9 75.8999 87.7 75.8999 87.7L77.5999 88.5C77.5999 88.5 80.9999 84.7 81.5999 83.8C82.1999 83 76.5999 75.9 76.5999 75.9Z" fill="#FA6F19"/>
<path d="M54.4001 117.2H11.8001L10.1001 111.6L11.7001 111.3V95.4001L11.0001 95.3001L10.6001 89.9001H78.2001H108.7L110.3 95.3001L108.7 95.7001V111.6L109.3 111.7L109.9 117.2H92.8001H74.5001H54.4001Z" fill="#240347"/>
<path d="M17.9002 113.4V104.2L21.4002 105.8V113.4C21.3002 113.8 21.0002 114.1 20.6002 114.1H25.6002C25.1002 114 24.9002 113.8 24.7002 113.4V93.6001C24.9002 93.3001 25.1002 93.0001 25.6002 92.9001H13.7002C14.2002 93.1001 14.4002 93.2001 14.6002 93.6001V113.3C14.4002 113.7 14.2002 114 13.7002 114H18.7002C18.3002 114 18.0002 113.8 17.9002 113.4ZM27.2002 105.7V113.5C27.1002 113.9 26.8002 114.2 26.4002 114.2H38.2002C37.7002 114.1 37.5002 113.9 37.3002 113.5V104.5C34.6002 103.3 38.9002 105.2 30.6002 101.4V95.6001H34.0002V100.1C36.7002 101.3 32.8002 99.5001 37.2002 101.6V93.8001C37.4002 93.5001 37.6002 93.2001 38.1002 93.1001H26.3002C26.8002 93.2001 27.0002 93.4001 27.1002 93.8001V102.8C28.3002 103.4 27.5002 103 33.8002 105.9V111.7H30.3002V107.2C29.1002 106.6 29.1002 106.6 29.1002 106.6C29.0002 106.5 28.5002 106.2 27.2002 105.7ZM77.4002 105.7V113.5C77.3002 113.9 77.0002 114.2 76.6002 114.2H88.4002C87.9002 114.1 87.7002 113.9 87.5002 113.5V104.5L86.7002 104.2C86.5002 104.1 87.6002 104.6 80.7002 101.5V95.7001H84.2002V100.2C86.9002 101.4 83.0002 99.6001 87.4002 101.7V93.9001C87.6002 93.5001 87.8002 93.3001 88.3002 93.2001H76.4002C76.9002 93.3001 77.2002 93.5001 77.2002 93.9001V102.9L83.9002 106V111.8H80.4002V107.3C79.2002 106.7 79.2002 106.7 79.2002 106.7C79.2002 106.5 78.7002 106.2 77.4002 105.7ZM95.7002 93.7001V113.4C95.6002 113.8 95.3002 114.1 94.9002 114.1H99.9002C99.4002 114 99.2002 113.8 99.0002 113.4V95.8001L102.5 97.5001V113.4C102.4 113.8 102.1 114.1 101.7 114.1H106.7C106.2 114 106 113.8 105.8 113.4V93.7001C106 93.4001 106.2 93.1001 106.7 93.0001H101.7C102.2 93.1001 102.4 93.3001 102.5 93.7001V94.6001L99.0002 92.9001H94.9002C95.4002 93.0001 95.7002 93.3001 95.7002 93.7001ZM89.9002 93.7001V113.4C89.8002 113.8 89.5002 114.1 89.1002 114.1H94.1002C93.6002 114 93.4002 113.8 93.2002 113.4V95.4001V93.7001C93.4002 93.4001 93.6002 93.1001 94.1002 93.0001H89.1002C89.5002 93.1001 89.9002 93.3001 89.9002 93.7001ZM65.3002 105.6V113.4C65.2002 113.8 64.9002 114.1 64.5002 114.1H76.3002C75.8002 114 75.6002 113.8 75.4002 113.4V104.4L74.6002 104.1C74.4002 104 75.5002 104.5 68.6002 101.4V95.6001H72.1002V100.1C74.8002 101.3 70.9002 99.5001 75.3002 101.6V93.8001C75.5002 93.4001 75.7002 93.2001 76.2002 93.1001H64.4002C64.9002 93.2001 65.2002 93.4001 65.2002 93.8001V102.8L71.9002 105.9V111.7H68.4002V107.2C67.2002 106.6 67.2002 106.6 67.2002 106.6C67.2002 106.5 66.7002 106.2 65.3002 105.6ZM52.8002 93.7001V113.4C52.6002 113.8 52.4002 114.1 51.9002 114.1H56.9002C56.4002 114 56.2002 113.8 56.1002 113.4V104.2L59.6002 105.8V113.4C59.5002 113.8 59.2002 114.1 58.8002 114.1H63.8002C63.3002 114 63.1002 113.8 62.9002 113.4V93.6001C63.1002 93.3001 63.3002 93.0001 63.8002 92.9001H51.9002C52.4002 93.0001 52.8002 93.3001 52.8002 93.7001ZM56.1002 101.2V95.4001H59.6002V102.8L56.1002 101.2ZM40.3002 105.7V113.5C40.2002 113.9 39.9002 114.2 39.5002 114.2H51.3002C50.8002 114.1 50.6002 113.9 50.4002 113.5V104.5C47.7002 103.3 52.0002 105.2 43.7002 101.4V95.6001H47.2002V100.1C49.9002 101.3 46.0002 99.5001 50.4002 101.6V93.8001C50.6002 93.5001 50.8002 93.2001 51.3002 93.1001H39.4002C39.9002 93.2001 40.1002 93.4001 40.2002 93.8001V102.8C41.4002 103.4 40.6002 103 46.9002 105.9V111.7H43.4002V107.2C42.2002 106.6 42.2002 106.6 42.2002 106.6C42.2002 106.5 41.6002 106.2 40.3002 105.7ZM17.9002 101.3V95.5001H21.4002V102.9L17.9002 101.3Z" fill="white"/>
<path d="M22.8001 94.4V112.7H23.2001V94.4H22.8001ZM16.5001 94.4H16.1001V112.7H16.5001V94.4ZM28.6001 107.7V112.6H29.0001V107.9C29.0001 107.9 28.9001 107.9 28.9001 107.8C28.8001 107.8 28.7001 107.8 28.6001 107.7ZM35.3001 112.6H35.7001V105.1C35.5001 105 35.5001 105 35.3001 104.9V112.6ZM29.0001 102.1V94.5H28.6001V102C28.7001 101.9 28.8001 102 29.0001 102.1ZM35.3001 94.4V99.1C35.4001 99.2 35.5001 99.2 35.5001 99.3C35.5001 99.3 35.6001 99.3 35.6001 99.4V94.5L35.3001 94.4ZM78.8001 107.7V112.6H79.2001V107.9C79.2001 107.9 79.1001 107.9 79.1001 107.8H79.0001C78.9001 107.8 78.8001 107.8 78.8001 107.7ZM85.5001 112.6H86.0001V105.1C85.9001 105 85.8001 105 85.6001 104.9V112.6H85.5001ZM79.2001 102.1V94.5H78.8001V102L79.2001 102.1ZM85.5001 94.4V99.1C85.6001 99.2 85.7001 99.2 85.7001 99.3C85.7001 99.3 85.8001 99.3 85.8001 99.4V94.5L85.5001 94.4ZM97.2001 112.6H97.6001V94.3H97.2001V112.6ZM103.9 96.7V112.7H104.3V94.3H103.9V96.7ZM91.3001 112.6H91.7001V94.3H91.3001V112.6ZM66.7001 107.7V112.6H67.1001V107.9C67.1001 107.9 67.0001 107.9 67.0001 107.8V107.8C66.9001 107.8 66.8001 107.7 66.7001 107.7ZM73.5001 112.6H73.9001V105.1C73.7001 105 73.7001 105 73.5001 104.9V112.6ZM67.2001 102V94.4H66.8001V101.9L67.2001 102ZM73.5001 94.3V99C73.6001 99.1 73.7001 99.1 73.7001 99.2C73.7001 99.2 73.8001 99.2 73.8001 99.3V94.4L73.5001 94.3ZM54.7001 102.1V94.5H54.3001V112.8H54.7001V102.1ZM61.0001 105V112.6H61.4001V94.3H61.0001V105ZM41.7001 107.7V112.6H42.1001V107.9C42.1001 107.9 42.0001 107.9 42.0001 107.8C41.8001 107.8 41.8001 107.7 41.7001 107.7ZM48.4001 112.6H48.8001V105.1C48.6001 105 48.6001 105 48.4001 104.9V112.6ZM42.1001 102.1V94.5H41.7001V102C41.8001 101.9 42.0001 102 42.1001 102.1ZM48.4001 94.4V99.1C48.5001 99.2 48.6001 99.2 48.6001 99.3C48.6001 99.3 48.7001 99.3 48.7001 99.4V94.5L48.4001 94.4Z" fill="#02344D"/>
<path d="M17.9003 113.4V104.2L16.9003 103.7V113.3C17.0003 113.7 17.3003 114 17.7003 114H18.7003C18.3003 114 18.0003 113.8 17.9003 113.4ZM24.5003 114.1H25.3003H25.4003C25.0003 114 24.7003 113.8 24.6003 113.4V93.8001C24.7003 93.5001 25.0003 93.2001 25.4003 93.1001H25.3003H13.8003H24.6003C24.1003 93.2001 23.9003 93.4001 23.7003 93.8001V113.5C23.7003 113.8 24.0003 114 24.5003 114.1ZM25.5003 92.9001H25.3003H25.5003ZM27.2003 105.7V106.2C27.8003 106.4 28.1003 106.6 28.3003 106.7C28.2003 106.7 28.3003 106.7 29.5003 107.3V111.8H33.0003H30.5003V107.3C29.3003 106.7 29.3003 106.7 29.3003 106.7C29.0003 106.5 28.5003 106.2 27.2003 105.7ZM37.0003 114.1H38.0003C37.5003 114 37.3003 113.8 37.1003 113.4V104.4C34.4003 103.2 38.7003 105.1 30.4003 101.3V95.5001H29.4003V101.3C37.8003 105.1 33.5003 103.1 36.1003 104.4V113.4C36.3003 113.8 36.5003 114 37.0003 114.1ZM36.1003 101C36.3003 101.2 36.7003 101.2 37.1003 101.5V93.7001C37.3003 93.4001 37.5003 93.1001 38.0003 93.0001H26.3003H37.0003C36.5003 93.2001 36.3003 93.4001 36.1003 93.7001V101ZM77.4003 105.7V106.2C78.0003 106.4 78.3003 106.6 78.5003 106.7C78.4003 106.7 78.5003 106.7 79.7003 107.3V111.8H83.2003H80.7003V107.3C79.5003 106.7 79.5003 106.7 79.5003 106.7C79.2003 106.5 78.7003 106.2 77.4003 105.7ZM87.3003 114.1H88.1003C88.2003 114.1 88.2003 114.1 88.2003 114.1C87.8003 114 87.5003 113.8 87.4003 113.4V104.4L86.6003 104.1C86.4003 104 87.5003 104.5 80.6003 101.4V95.6001H79.5003V101.4C86.3003 104.6 85.2003 104.1 85.5003 104.1L86.3003 104.4V113.4C86.5003 113.8 86.8003 114 87.3003 114.1ZM86.4003 101C86.6003 101.2 87.0003 101.2 87.4003 101.5V93.7001C87.5003 93.4001 87.8003 93.1001 88.2003 93.0001H88.1003H88.3003H87.3003H76.6003H87.3003C86.8003 93.1001 86.6003 93.3001 86.4003 93.7001V101V101ZM98.9003 114.1H99.9003C99.4003 114 99.2003 113.8 99.0003 113.4V95.8001L98.0003 95.3001V113.3C98.1003 113.8 98.4003 114 98.9003 114.1ZM105.6 114.1H106.6C106.1 114 105.9 113.8 105.7 113.4V93.7001C105.9 93.4001 106.1 93.1001 106.6 93.0001H105.6H101.6H105.6C105.1 93.2001 104.9 93.3001 104.7 93.7001V113.4C104.8 113.8 105.2 114 105.6 114.1ZM102.5 94.6001L99.0003 92.9001H95.0003H98.1003L102.6 95.0001V94.6001H102.5ZM93.1003 114.1H93.9003H94.0003C93.6003 114 93.3003 113.8 93.2003 113.4V95.4001V93.7001C93.3003 93.4001 93.6003 93.1001 94.0003 93.0001H93.9003H94.1003H93.1003H89.1003H93.1003C92.6003 93.1001 92.4003 93.3001 92.2003 93.7001V95.4001V113.4C92.3003 113.8 92.6003 114 93.1003 114.1ZM65.3003 105.6V106.1C65.9003 106.3 66.2003 106.5 66.4003 106.6C66.3003 106.6 66.4003 106.6 67.6003 107.2V111.7H71.1003H68.6003V107.2C67.4003 106.6 67.4003 106.6 67.4003 106.6C67.2003 106.5 66.7003 106.2 65.3003 105.6ZM75.2003 114.1H75.6003C75.7003 114.1 75.8003 114 75.8003 114C75.6003 113.8 75.3003 113.7 75.2003 113.3V104.3L74.4003 104C74.2003 103.9 75.3003 104.4 68.4003 101.3V95.5001H67.4003V101.3C74.2003 104.5 73.1003 104 73.4003 104L74.2003 104.3V113.3C74.5003 113.8 74.7003 114 75.2003 114.1ZM74.3003 101C74.5003 101.2 74.9003 101.2 75.3003 101.5V93.7001C75.4003 93.5001 75.5003 93.3001 75.8003 93.1001C75.7003 93.0001 75.5003 93.0001 75.4003 93.0001H76.1003H76.2003H75.2003H64.4003H75.2003C74.7003 93.1001 74.5003 93.3001 74.3003 93.7001C74.3003 93.8001 74.3003 101 74.3003 101ZM55.9003 114.1H56.9003C56.4003 114 56.2003 113.8 56.1003 113.4V104.2L55.1003 103.7V113.3C55.2003 113.8 55.5003 114 55.9003 114.1ZM62.7003 114.1H63.4003C63.5003 114.1 63.5003 114.1 63.5003 114.1C63.1003 114 62.8003 113.8 62.7003 113.4V93.8001C62.8003 93.5001 63.1003 93.2001 63.5003 93.1001H63.4003H63.6003H51.9003H62.7003C62.2003 93.3001 62.0003 93.4001 61.8003 93.8001V113.5C61.9003 113.8 62.2003 114 62.7003 114.1ZM56.1003 101.2V95.4001H55.1003V101.2L59.6003 103.3V102.8L56.1003 101.2ZM40.3003 105.7V106.2C40.9003 106.4 41.2003 106.6 41.4003 106.7C41.3003 106.7 41.4003 106.7 42.6003 107.3V111.8H46.0003H43.5003V107.3C42.3003 106.7 42.3003 106.7 42.3003 106.7C42.2003 106.5 41.6003 106.2 40.3003 105.7ZM50.2003 114.1H51.2003H51.0003C50.6003 114 50.3003 113.8 50.2003 113.4V104.4C47.5003 103.2 51.8003 105.1 43.5003 101.3V95.5001H42.5003V101.3C50.9003 105.1 46.6003 103.1 49.2003 104.4V113.4C49.4003 113.8 49.7003 114 50.2003 114.1ZM49.3003 101C49.5003 101.2 49.9003 101.2 50.3003 101.5V93.7001C50.4003 93.4001 50.7003 93.1001 51.1003 93.0001H51.0003H50.2003H39.4003H50.2003C49.7003 93.1001 49.5003 93.3001 49.3003 93.7001C49.3003 93.8001 49.3003 101 49.3003 101ZM17.9003 101.3V95.5001H16.9003V101.3L21.4003 103.4V102.9L17.9003 101.3Z" fill="#A9C0DE"/>
</g>
<defs>
<linearGradient id="paint0_linear_97_1019" x1="59.1187" y1="8.45886" x2="61.723" y2="119.995" gradientUnits="userSpaceOnUse">
<stop stop-color="#FDE32B"/>
<stop offset="1" stop-color="#EE563C"/>
</linearGradient>
<clipPath id="clip0_97_1019">
<rect width="120" height="133" fill="white"/>
</clipPath>
</defs>
</svg>
