<svg width="120" height="133" viewBox="0 0 120 133" fill="none" xmlns="http://www.w3.org/2000/svg">
<g clip-path="url(#clip0_97_1462)">
<path fill-rule="evenodd" clip-rule="evenodd" d="M111 66.8001C111 66.8001 110.1 68.6001 110.1 69.4001C110.1 70.2001 110.6 70.6001 110.3 71.4001C110 72.2001 109.8 73.1001 109.8 73.1001C109.8 73.1001 111.3 71.3001 111.1 70.6001C110.9 69.9001 110.6 69.9001 110.8 68.9001C110.9 67.7001 111 66.8001 111 66.8001ZM97.8998 48.1001C97.8998 48.1001 96.6998 47.2001 96.7998 46.2001C96.8998 45.2001 97.5998 45.8001 97.5998 44.5001C97.5998 43.2001 96.9998 41.8001 96.9998 41.8001C96.9998 41.8001 97.8998 43.6001 97.9998 44.6001C98.0998 45.6001 97.5998 45.6001 97.5998 46.0001C97.5998 46.4001 97.8998 48.1001 97.8998 48.1001ZM119.4 100.6C119.9 100.6 119.9 97.1001 119.9 97.1001C119.9 97.1001 117.8 96.2001 117.4 94.8001C117 93.4001 118.9 92.8001 118.9 90.8001C118.9 88.8001 116.5 84.7001 116.5 84.7001C116.5 84.7001 117.8 88.7001 117.1 89.6001C116.5 90.5001 114.7 91.0001 114.5 89.8001C114.3 88.6001 115.3 87.8001 114.4 86.4001C113.5 85.0001 115.5 80.6001 115.5 80.6001C115.5 80.6001 113.7 82.5001 113.3 83.7001C112.9 84.9001 112.7 85.7001 112.7 85.7001C112.7 85.7001 111.5 83.0001 111.9 81.9001C112.3 80.8001 114.9 76.3001 114.2 75.2001C113.6 74.1001 112.2 72.8001 112.2 72.8001C112.2 72.8001 113.5 74.1001 112.8 75.7001C112.2 77.3001 111.6 76.8001 111.4 77.7001C111.2 78.7001 111 79.5001 111 79.5001L111.1 75.4001L109.9 77.9001C109.9 77.9001 107.4 73.0001 108.7 68.9001C110 64.9001 110.4 64.3001 110.5 63.7001C110.6 63.0001 109.8 60.9001 109.8 60.9001C109.8 60.9001 109.7 63.5001 108.7 64.7001C107.7 65.9001 107.7 65.9001 107.7 65.9001C107.7 65.9001 107.1 64.0001 107 62.6001C106.9 61.2001 106 58.3001 106 58.3001L105.8 61.2001C105.8 61.2001 105 59.7001 104.3 57.1001C103.6 54.5001 101.9 53.6001 101.4 52.7001C100.9 51.8001 99.6998 48.5001 99.6998 48.5001L100.6 52.9001C100.6 52.9001 98.2998 52.3001 97.1998 51.1001C96.0998 49.9001 95.7998 48.0001 95.7998 48.0001L94.9998 50.6001C94.9998 50.6001 94.3998 46.9001 94.3998 45.4001C94.2998 43.8001 95.4998 42.5001 94.2998 40.0001C92.9998 37.4001 91.5998 35.8001 91.5998 35.8001L92.9998 39.6001C92.9998 39.6001 89.2998 34.4001 88.2998 30.8001C87.2998 27.3001 87.2998 24.8001 87.2998 24.8001L86.9998 28.0001C86.9998 28.0001 84.8998 21.8001 79.2998 15.1001C73.6998 8.50012 70.2998 50.6001 70.2998 50.6001C70.2998 50.6001 76.2998 79.2001 77.7998 81.4001C79.1998 83.6001 111.7 106 111.7 106L119.4 100.6Z" fill="#1FF0F7"/>
<path fill-rule="evenodd" clip-rule="evenodd" d="M8.9 66.8001C8.9 66.8001 9.8 68.6001 9.8 69.4001C9.8 70.2001 9.3 70.6001 9.6 71.4001C9.9 72.2001 10.1 73.1001 10.1 73.1001C10.1 73.1001 8.6 71.3001 8.8 70.6001C9 69.9001 9.3 69.9001 9.1 68.9001C9.1 67.7001 8.9 66.8001 8.9 66.8001ZM22 48.1001C22 48.1001 23.2 47.2001 23.1 46.2001C23 45.2001 22.3 45.8001 22.3 44.5001C22.3 43.2001 22.9 41.8001 22.9 41.8001C22.9 41.8001 22 43.6001 21.9 44.6001C21.8 45.6001 22.3 45.6001 22.3 46.0001C22.3 46.4001 22 48.1001 22 48.1001ZM0.5 100.6C0 100.6 0 97.1001 0 97.1001C0 97.1001 2.1 96.2001 2.5 94.8001C2.9 93.4001 1 92.8001 1 90.8001C1 88.8001 3.4 84.7001 3.4 84.7001C3.4 84.7001 2.1 88.7001 2.8 89.6001C3.4 90.5001 5.2 91.0001 5.4 89.8001C5.6 88.6001 4.6 87.8001 5.5 86.4001C6.4 85.0001 4.4 80.6001 4.4 80.6001C4.4 80.6001 6.2 82.5001 6.6 83.7001C7 84.9001 7.2 85.7001 7.2 85.7001C7.2 85.7001 8.4 83.0001 8 81.9001C7.6 80.8001 5 76.3001 5.7 75.2001C6.3 74.1001 7.7 72.8001 7.7 72.8001C7.7 72.8001 6.4 74.1001 7.1 75.7001C7.7 77.3001 8.3 76.8001 8.5 77.7001C8.7 78.7001 8.9 79.5001 8.9 79.5001L8.8 75.4001L10 77.9001C10 77.9001 12.5 73.0001 11.2 68.9001C9.9 64.9001 9.5 64.3001 9.4 63.7001C9.3 63.0001 10.1 60.9001 10.1 60.9001C10.1 60.9001 10.2 63.5001 11.2 64.7001C12.2 65.9001 12.2 65.9001 12.2 65.9001C12.2 65.9001 12.8 64.0001 12.9 62.6001C13 61.2001 13.9 58.3001 13.9 58.3001L14.1 61.2001C14.1 61.2001 14.9 59.7001 15.6 57.1001C16.3 54.5001 18 53.6001 18.5 52.7001C19 51.8001 20.2 48.5001 20.2 48.5001L19.3 52.9001C19.3 52.9001 21.6 52.3001 22.7 51.1001C23.8 49.9001 24.1 48.0001 24.1 48.0001L24.8 50.3001C24.8 50.3001 25.4 46.6001 25.4 45.1001C25.5 43.5001 24.2 42.2001 25.5 39.7001C26.8 37.1001 28.2 35.5001 28.2 35.5001L26.8 39.3001C26.8 39.3001 30.5 34.1001 31.5 30.5001C32.5 27.0001 32.5 24.5001 32.5 24.5001L32.8 27.7001C32.8 27.7001 34.9 21.5001 40.5 14.8001C46.1 8.20007 49.5 50.3001 49.5 50.3001C49.5 50.3001 43.5 78.9001 42 81.1001C40.9 83.5001 8.4 106 8.4 106L0.5 100.6Z" fill="#1FF0F7"/>
<path fill-rule="evenodd" clip-rule="evenodd" d="M13.6 97.1C12.4 95.6 11.5 93.9 11 92.1L10.7 91.2V90.3C11 79.3 12.5 65.8 18.7 56.4L19.7 54.9L21.3 54.1C24.4 52.6 27.6 51.1 30.7 49.6C30.2 48.4 29.9 47.1 29.7 45.8C29.7 45.7 29.7 45.6 29.7 45.5L26.1 47.9L33.3 29.4C37.8 17.9 45 6.6 57.3 1.3L60 0L62.7 1.2C74.9 6.5 82.2 17.8 86.7 29.3L93.9 47.8L90.3 45.4C90.3 45.5 90.3 45.6 90.3 45.7C90.1 47 89.8 48.2 89.3 49.5C92.4 51 95.6 52.5 98.7 54L100.3 54.8L101.3 56.3C107.6 65.8 109.1 79.2 109.3 90.2V91.1L109 92C108.4 93.8 107.6 95.5 106.6 97H120V133L117.6 132.2C80.3 120.1 39.7 120.1 2.4 132.2L0 133V97.1H13.6Z" fill="#1FF0F7"/>
<path fill-rule="evenodd" clip-rule="evenodd" d="M17.5999 98.7999C15.1999 96.6999 13.4999 94.2999 12.6999 91.5999L12.4999 90.8999V90.1999C12.7999 79.5999 14.1999 66.2999 20.2999 57.0999L20.9999 55.9999L22.1999 55.3999C25.7999 53.6999 29.4999 51.8999 33.0999 50.1999C32.2999 48.6999 31.7999 47.0999 31.5999 45.3999C31.3999 44.2999 31.3999 43.1999 31.4999 42.0999L29.8999 43.1999L34.9999 29.8999C39.2999 18.7999 46.2999 7.7999 57.9999 2.6999L59.9999 1.8999L61.9999 2.6999C73.7999 7.7999 80.6999 18.7999 84.9999 29.8999L90.1999 43.2999L88.5999 42.1999C88.6999 43.2999 88.6999 44.3999 88.4999 45.4999C88.2999 47.1999 87.6999 48.7999 86.9999 50.2999C90.5999 51.9999 94.2999 53.7999 97.8999 55.4999L99.0999 56.0999L99.7999 57.1999C105.9 66.3999 107.3 79.6999 107.6 90.2999V90.9999L107.4 91.6999C106.5 94.5999 105 96.9999 103 98.8999H118.3V130.7C80.5999 118.4 39.5999 118.4 1.8999 130.7V98.7999H17.5999Z" fill="#071224"/>
<path fill-rule="evenodd" clip-rule="evenodd" d="M78.7001 98.6C76.0001 102.1 72.2001 104.9 67.1001 107C88.8001 103 100.7 97.5 102.9 90.2C102.6 76.2 100.2 66.0001 95.9001 59.4001C95.9001 59.4001 91.5001 57.3 82.6001 53.1C82.6001 53.1 80.2001 54.0001 75.3001 55.7001C75.3001 55.7001 76.6001 54.7 79.3001 52.8C87.3001 45.1 85.0001 36.2 72.4001 25.8C72.4001 25.8 75.1001 27.6001 80.6001 31.2001C75.6001 18.8001 68.8001 10.6 60.0001 6.80005C51.2001 10.6 44.4001 18.8 39.4001 31.5C44.9001 27.9 47.6001 26.1 47.6001 26.1C35.0001 36.4 32.7001 45.4 40.7001 53.1C43.4001 55 44.7001 56 44.7001 56C39.9001 54.3 37.4001 53.4001 37.4001 53.4001C28.5001 57.6001 24.1001 59.7001 24.1001 59.7001C19.8001 66.3001 17.4001 76.5 17.1001 90.5C19.3001 97.7 31.2001 103.3 52.9001 107.3C44.5001 98.4 40.3001 94 40.3001 94C54.8001 91.4 62.0001 90.2 62.0001 90.2C56.6001 94 53.9001 97.8 54.1001 101.5C63.3001 102.4 71.5001 101.4 78.7001 98.6Z" fill="#394253"/>
<path fill-rule="evenodd" clip-rule="evenodd" d="M17.3002 87.4001C17.3002 88.3001 17.2002 89.3001 17.2002 90.3001C19.4002 97.5001 31.3002 103.1 53.0002 107.1C44.6002 98.2001 40.4002 93.8001 40.4002 93.8001C34.5002 96.2001 28.8002 97.0001 23.4002 96.1001C24.2002 95.8001 24.6002 95.7001 24.6002 95.7001C32.7002 93.9001 37.4002 91.3001 38.5002 88.1001C31.8002 90.8001 26.1002 92.1001 21.5002 92.1001C20.0002 89.1001 19.3002 87.6001 19.3002 87.6001C25.5002 86.0001 28.6002 85.2001 28.6002 85.2001C24.2002 82.5001 22.0002 81.1001 22.0002 81.1001C22.7002 83.0001 23.1002 83.9001 23.1002 83.9001L17.3002 87.4001Z" fill="#778399"/>
<path fill-rule="evenodd" clip-rule="evenodd" d="M80.3 63.5999C63.8 70.9999 55.5 74.6999 55.5 74.6999C60.1 60.8999 68 55.6999 79 58.8999C79 58.8999 79.5 58.0999 80.5 56.3999C80.9 61.0999 80.8 63.4999 80.3 63.5999Z" fill="#778399"/>
<path fill-rule="evenodd" clip-rule="evenodd" d="M99.8 95.1001C101.3 93.6001 102.4 92.0001 102.9 90.4001C102.6 78.4001 100.8 69.1001 97.6 62.6001C96.2 64.0001 94.5 66.6001 92.5 70.4001C92.5 70.4001 94.6 70.0001 98.9 69.2001C98.9 69.2001 97.7 70.6001 95.2 73.5001C95.2 73.5001 96.2 74.4001 98.3 76.2001C99.4 77.7001 100.1 79.7001 100.4 82.3001C98.8 79.6001 96.6 77.7001 93.7 76.8001C93.6 80.4001 91.8 83.5001 88.5 86.2001C92.3 87.4001 96.1 90.4001 99.8 95.1001Z" fill="#778399"/>
<path fill-rule="evenodd" clip-rule="evenodd" d="M81.2998 87.5C64.4998 80.4 52.3998 80.4 44.7998 87.5C41.7998 88.4 40.2998 90.5 40.2998 93.7C42.4998 88.8 46.5998 87.3 52.6998 89C52.2998 90.8 52.0998 91.8001 52.0998 91.8001C59.8998 89.3001 65.0998 88.2001 67.6998 88.4001C63.8998 90.2001 60.7998 93 58.5998 96.6C67.7998 93.3 72.2998 91.6 72.2998 91.6C70.7998 93.9 70.0998 95 70.0998 95C79.0998 93.9 84.7998 95.3 87.0998 99C87.3998 97.1 87.0998 95.3 86.1998 93.7C89.3998 94.1 92.3998 95.7001 95.0998 98.3001C94.6998 97.1001 94.1998 96 93.5998 95C90.0998 89 85.9998 86.5 81.2998 87.5Z" fill="#778399"/>
<path fill-rule="evenodd" clip-rule="evenodd" d="M33.0002 67.7C31.9002 65.3 29.5002 63.1 25.8002 60.9C30.6002 65 33.2002 70.1 33.6002 76C29.6002 75.3 26.0002 74 22.8002 72.1C25.6002 74.7 29.2002 76.8 33.6002 78.4C35.2002 82 36.0002 83.8 36.0002 83.8C31.9002 82 27.1002 80.5 21.7002 79.4C30.3002 82.3 35.9002 85.2 38.4002 88C33.3002 92.2 28.6002 94.8 24.5002 95.6C27.3002 95.4 31.8002 93.9 37.9002 91.2C39.5002 92.9 40.3002 93.7 40.3002 93.7C40.3002 89.8 42.5002 87.6 47.0002 87.1C55.5002 86.9 59.7002 86.8 59.7002 86.8C56.1002 88.9 54.3002 90 54.3002 90C67.1002 85.1 75.5002 84.4 79.5002 87.8C78.4002 90.1 77.8002 91.2 77.8002 91.2C85.8002 84.9 88.9002 88.9 93.6002 95.1C90.7002 88.3 86.8002 85.5 82.0002 86.7C87.6002 82.7 90.6002 78.1 90.8002 72.7C91.5002 69.9 93.1002 66.7 95.6002 63.1C91.9002 66.7 89.6002 70 88.8002 73C83.4002 79.4 75.8002 80.3 66.0002 75.7C74.4002 75.5 80.8002 70.9 85.2002 62.1C81.0002 65.4 78.9002 67.1 78.9002 67.1C83.4002 61.8 85.7002 59.1 85.7002 59.1C82.8002 61.1 81.4002 62.1 81.4002 62.1C81.0002 58.2 80.8002 56.2 80.8002 56.2C80.4002 60.2 80.2002 62.1 80.2002 62.1C74.1002 59 68.9002 59.2 64.7002 62.7C60.2002 66.4 57.2002 70.3 55.8002 74.5C57.2002 66.3 60.9002 60.5 66.9002 57.2C75.0002 54 79.6002 48.9 80.5002 42C81.5002 44.9 81.0002 48.2 79.1002 52C84.8002 44.5 83.9002 37.6 76.4002 31.3C71.6002 27.4 66.2002 25.3 60.1002 25C50.6002 24.8 43.7002 29 39.3002 37.5C35.8002 45.8 39.5002 52.3 50.4002 57C46.9002 56 45.2002 55.6 45.2002 55.6C40.4002 53.9 37.9002 53 37.9002 53C38.9002 58.4 39.4002 61.1 39.4002 61.1C38.1002 59.2 37.4002 58.3 37.4002 58.3C37.6002 65.5 39.7002 71.2 43.9002 75.5C39.2002 74.4 35.7002 71.7 33.0002 67.7Z" fill="#071224"/>
<path fill-rule="evenodd" clip-rule="evenodd" d="M19.1001 87.7C23.6001 86.3 25.9001 85.6 25.9001 85.6C25.9001 85.6 24.5001 84.1 21.8001 81.2C25.1001 82.4 28.8001 83.9 32.7001 85.8C29.3001 88.1 25.5001 89.5 21.1001 90.1C21.1001 90 20.5001 89.2 19.1001 87.7Z" fill="#071224"/>
<path fill-rule="evenodd" clip-rule="evenodd" d="M21.2998 65.2C22.2998 62.8 23.1998 61 23.9998 59.8C26.2998 62.3 27.7998 64.7 28.5998 67.2C25.7998 66.5 24.3998 66.1 24.3998 66.1C25.6998 66.1 26.2998 66.1 26.2998 66.1C25.1998 64.4 23.4998 64.1 21.2998 65.2Z" fill="#071224"/>
<path fill-rule="evenodd" clip-rule="evenodd" d="M19.4002 71.2C18.7002 74.1 18.1002 77.5 17.7002 81.5C18.2002 79.2 19.0002 77.5 20.1002 76.4C21.1002 76.8 23.3002 77.3 26.7002 77.8C23.2002 76.2 20.8002 74 19.4002 71.2Z" fill="#071224"/>
<path fill-rule="evenodd" clip-rule="evenodd" d="M96.7001 74.2001C97.6001 75.5001 98.1001 76.1001 98.1001 76.1001C98.1001 76.1001 95.9001 75.2001 91.6001 73.3001C96.3001 70.5001 98.7001 69.1001 98.7001 69.1001C99.5001 70.6001 99.8001 72.1001 99.7001 73.6001C99.2001 72.5001 98.6001 71.8001 98.1001 71.6001C97.2001 73.3001 96.7001 74.2001 96.7001 74.2001Z" fill="#071224"/>
<path fill-rule="evenodd" clip-rule="evenodd" d="M81.3998 71.0999C84.4998 69.9999 86.8998 67.6999 88.6998 64.3999C88.1998 68.3999 86.8998 71.7999 84.5998 74.6999C80.7998 78.3999 74.4998 78.7999 65.7998 75.9999C75.5998 80.5999 83.1998 79.6999 88.5998 73.2999C89.3998 70.2999 91.6998 66.9999 95.3998 63.3999C95.2998 63.5999 95.1998 63.6999 95.0998 63.8999L96.7998 61.4999C96.3998 60.8999 96.0998 60.2999 95.6998 59.6999L82.3998 53.3999L81.9998 58.4999L84.1998 56.4999L83.0998 60.3999L87.6998 57.3999C85.8998 62.0999 84.8998 67.1999 81.3998 71.0999Z" fill="#778399"/>
<path fill-rule="evenodd" clip-rule="evenodd" d="M32.1998 79.4001L33.2998 82.7001C34.1998 83.1001 35.0998 83.4001 35.9998 83.8001L33.5998 78.4001C29.1998 76.8001 25.6998 74.8001 22.7998 72.1001C24.4998 75.0001 27.6998 77.4001 32.1998 79.4001Z" fill="#778399"/>
<path fill-rule="evenodd" clip-rule="evenodd" d="M31.4998 75.5999C32.1998 75.7999 32.8998 75.8999 33.5998 75.9999C33.2998 69.9999 30.6998 64.9999 25.7998 60.8999C29.8998 66.5999 31.7998 71.4999 31.4998 75.5999Z" fill="#778399"/>
<path fill-rule="evenodd" clip-rule="evenodd" d="M26.7 77.7C23.3 77.2 21.1 76.7 20.1 76.3C18.9 77.5 18.1 79.2 17.7 81.4C17.6 82.3 17.5 83.1 17.5 84C18.8 81 20 79 21.1 78L26.7 77.7Z" fill="#778399"/>
<path fill-rule="evenodd" clip-rule="evenodd" d="M19.3999 71.2001C20.8999 68.8001 23.9999 67.5001 28.5999 67.3001L24.3999 66.2001H26.2999C25.1999 64.4001 23.4999 64.1001 21.2999 65.3001C20.5999 67.0001 19.9999 69.0001 19.3999 71.2001Z" fill="#778399"/>
<path fill-rule="evenodd" clip-rule="evenodd" d="M26.7999 72.1C25.3999 71.7 24.2999 71.2 23.3999 70.7C24.1999 70.1 25.1999 69.7 26.4999 69.4C26.6999 70.2 26.7999 71.1 26.7999 72.1ZM29.0999 72.7C28.7999 72.6 28.3999 72.5 28.0999 72.4C28.0999 71.3 27.8999 70.2 27.6999 69.1C27.9999 69.1 28.3999 69 28.6999 69C29.0999 70.7 29.1999 71.9 29.0999 72.7Z" fill="#071224"/>
<path fill-rule="evenodd" clip-rule="evenodd" d="M24.2002 59.5999L25.8002 60.9999C29.5002 63.1999 31.9002 65.4999 33.0002 67.7999C35.1002 70.8999 37.7002 73.1999 40.8002 74.6999C36.1002 70.8999 33.2002 64.5999 32.1002 55.8999L24.2002 59.5999Z" fill="#778399"/>
<path fill-rule="evenodd" clip-rule="evenodd" d="M24.2002 59.6L25.8002 61C29.5002 63.2 31.9002 65.5 33.0002 67.8C34.4002 69.9 36.0002 71.5 37.8002 72.9C35.6002 70.6 34.2002 68.8 33.6002 67.7C32.0002 64.1 29.5002 62 26.4002 60.2C29.2002 57.8 30.9002 56.5 30.9002 56.5L24.2002 59.6Z" fill="#D0E1FB"/>
<path fill-rule="evenodd" clip-rule="evenodd" d="M47.6 26C49.8 24.6 53.2 23.6 56.4 22.9V12.3C53.1 13.5 48.6 17.5 42.8 24.1C41.6 26.3 40.5 28.8 39.5 31.4L47.6 26Z" fill="#071224"/>
<path fill-rule="evenodd" clip-rule="evenodd" d="M59.7 25.2001C65.8 25.5001 71.2 27.6 76 31.5C83.5 37.8 84.4 44.7001 78.7 52.2001C83.8 47.6001 84.7 42.2 81.6 36.1C79.7 32.9 76.6 29.5 72.3 26L80.5 31.4C75.6 18.8 68.8 10.6 60 6.80005C54.2 9.30005 49.3 13.7 45.2 20C50.5 13.6 55.3 10.2 59.7 9.70005V23.7001C51.5 24.0001 45.3 27.6 41 34.3C45.4 28.1 51.6 25.0001 59.7 25.2001Z" fill="#778399"/>
<path fill-rule="evenodd" clip-rule="evenodd" d="M59.7001 25.2001C65.8001 25.5001 71.2001 27.6 76.0001 31.5C80.3001 35.1 82.4001 38.9001 82.4001 42.9001C83.4001 35.3001 74.8001 29.8 70.3001 24.3C74.2001 25.5 77.0001 27.1 79.2001 28.3C74.5001 17.5 68.0001 10.3 60.0001 6.80005C63.4001 10.2 65.5001 13.2 66.0001 15.7C63.6001 18.1 62.3001 19.3 62.3001 19.3C65.7001 21.2 68.3001 22.8 69.9001 23.9C66.3001 23.2 64.5001 22.8 64.5001 22.8C67.3001 24.9 68.6001 25.9 68.6001 25.9C62.9001 24.4 57.4001 24.4 52.1001 26C54.5001 25.5 57.0001 25.2001 59.7001 25.2001Z" fill="#D0E1FB"/>
<path fill-rule="evenodd" clip-rule="evenodd" d="M64.3999 62.9001C68.5999 59.4001 73.7999 59.2 79.8999 62.3L80.2999 58.3L79.3999 60.9001C70.4999 57.3001 63.2999 60.3001 57.8999 69.9001C59.4999 67.4001 61.6999 65.1001 64.3999 62.9001Z" fill="#D0E1FB"/>
<path fill-rule="evenodd" clip-rule="evenodd" d="M94.8 60.5001C91.1 65.0001 88.7 69.2001 87.6 73.2001C84 77.9001 78.4 79.4001 71 77.9001C78.4 80.0001 84.3 78.5001 88.7 73.2001C89.5 70.2001 91.8 66.9001 95.5 63.3001L95.2 63.8001L96.9 61.4001C96.5 60.8001 96.2 60.2001 95.8 59.6001L83.3 53.6001L94.8 60.5001Z" fill="#D0E1FB"/>
<path fill-rule="evenodd" clip-rule="evenodd" d="M99.6998 92.7001C96.5998 89.3001 92.7998 87.2001 88.2998 86.2001C92.2998 87.5001 96.0998 90.5001 99.7998 95.2001C101.3 93.7001 102.4 92.2001 102.9 90.5001C102.9 90.5001 102.9 90.5001 102.9 90.4001C102.8 84.4001 102.2 79.2001 101.4 74.6001C102 81.8001 102.2 86.9001 101.9 90.0001C101.2 91.0001 100.5 91.9001 99.6998 92.7001Z" fill="#D0E1FB"/>
<path fill-rule="evenodd" clip-rule="evenodd" d="M98.2002 84.3C98.7002 84 99.1002 83.7 99.5002 83.3C98.2002 81.6 96.6002 80.2 94.7002 79.3C94.6002 79.8 94.5002 80.4 94.4002 80.8C95.9002 81.8 97.1002 83 98.2002 84.3ZM90.7002 85.8C93.3002 85.8 95.4002 85.5 97.1002 84.8C96.4002 83.6 95.3002 82.7 94.0002 82.1C93.3002 83.7 92.2002 84.9 90.7002 85.8Z" fill="#394253"/>
<path fill-rule="evenodd" clip-rule="evenodd" d="M54.3002 90.0999L59.7002 86.8999L47.0002 87.0999C46.9002 87.0999 46.8002 87.0999 46.7002 87.0999C53.1002 87.2999 56.4002 87.3999 56.6002 87.4999L54.3002 90.0999Z" fill="#D0E1FB"/>
<path fill-rule="evenodd" clip-rule="evenodd" d="M54.2998 90.1001C65.1998 86.4001 72.8998 85.8001 77.3998 88.2001L75.7998 93.4001L77.7998 91.3001L79.4998 87.9001C75.4998 84.4001 67.0998 85.2001 54.2998 90.1001Z" fill="#D0E1FB"/>
<path fill-rule="evenodd" clip-rule="evenodd" d="M92.0002 93.2C88.0002 88.2 84.9002 85.7001 77.7002 91.3001C83.1002 87.8001 87.9002 88.4 92.0002 93.2Z" fill="#D0E1FB"/>
<path fill-rule="evenodd" clip-rule="evenodd" d="M68.4001 89.3C65.5001 92 64.1001 93.3 64.1001 93.3C67.0001 92.1 69.1001 91.2 70.6001 90.6C70.0001 90 69.3001 89.6 68.4001 89.3Z" fill="#394253"/>
<path fill-rule="evenodd" clip-rule="evenodd" d="M90.4998 61.4001L89.7998 65.2001C90.4998 64.1001 91.1998 63.1001 91.7998 62.3001L90.4998 61.4001ZM90.7998 59.6001L90.5998 60.6001L92.0998 61.7001C92.2998 61.4001 92.4998 61.1001 92.6998 60.9001C92.7998 60.8001 92.0998 60.4001 90.7998 59.6001Z" fill="#D0E1FB"/>
<path fill-rule="evenodd" clip-rule="evenodd" d="M83.5002 93.8C82.0002 93.8 80.5002 93.8 79.2002 94C80.9002 94.1 82.4002 94.5 83.8002 95.1C83.8002 94.6 83.7002 94.2 83.5002 93.8ZM85.2002 93.9C84.9002 93.9 84.6002 93.9 84.3002 93.8C84.5002 94.4 84.7002 95 84.7002 95.5C85.1002 95.7 85.4002 95.9 85.8002 96.2C85.7002 95.3 85.5002 94.5 85.2002 93.9Z" fill="#D0E1FB"/>
<path fill-rule="evenodd" clip-rule="evenodd" d="M40.2999 93.7L44.6999 103.2C34.8999 102 27.0999 99.7 21.3999 96.1C26.8999 100.6 37.3999 104.2 52.8999 107.1L40.2999 93.7Z" fill="#D0E1FB"/>
<path fill-rule="evenodd" clip-rule="evenodd" d="M22.7998 91.2C28.4998 89.7 32.0998 88.2 33.6998 86.7C34.5998 87.5 35.0998 87.9 35.0998 87.9C31.9998 89.4 27.8998 90.5 22.7998 91.2Z" fill="#071224"/>
<path fill-rule="evenodd" clip-rule="evenodd" d="M34.6 90C31.9 92.4 28.5 94.3 24.5 95.6C28.6 94.8 33.2 92.3 38.4 88C35.7 89.1 33.1 90 30.7 90.6C33.7 90.1 35 89.9 34.6 90Z" fill="#D0E1FB"/>
<path fill-rule="evenodd" clip-rule="evenodd" d="M51 34.7001L50.5 34.9001L49.7 34.1001L49.6 34.0001H49.5C49 34.1001 48.6 34.3001 48.1 34.4001C47.8 33.6001 47.6 32.3001 47.6 31.5001V31.2001L47.3 31.4001C47 31.6001 46.5 31.7001 46.1 31.8001C45 30.1001 44.7 28.2001 44.8 26.3001V26.1001H44.4V26.3001C44 28.6001 44.3 31.0001 45.8 33.0001L45.9 33.2001L46.1 33.1001C46.4 33.0001 46.6 32.9001 46.9 32.8001C47.1 33.8001 47.3 34.8001 47.5 35.8001L47.6 36.1001L47.9 36.0001C48.3 35.8001 48.6 35.6001 49 35.4001C49.4 36.0001 49.8 36.6001 50.3 37.2001L50.4 37.3001H50.6L53.1 36.7001H56.5L56.8 36.0001L51 34.7001Z" fill="#071224"/>
<path fill-rule="evenodd" clip-rule="evenodd" d="M51.3 35L50.5 35.3L51.1 36.1C51.1 36.1 52.5 36.2 53 36.2C53.5 36.2 55.4 36.2 55.4 36.2C55.4 36.2 55.5 35.8 55.5 35.9C55.5 36 53.9 35.7 53.9 35.7L52.9 35.5L51.3 35Z" fill="#1FF0F7"/>
<path fill-rule="evenodd" clip-rule="evenodd" d="M50.6 35.3C52.5 35.9 53.4 36.2001 53.4 36.2001C51.2 36.7001 50.1 37 50.1 37C49.2 35.7 48.7 35 48.7 35C47.8 35.5 47.4 35.7001 47.4 35.7001C47 33.5001 46.8 32.4001 46.8 32.4001C46.1 32.7001 45.8 32.9001 45.8 32.9001C44.5 31.1001 44.1 28.9 44.5 26.3C44.4 28.8 45 30.6 46 32C47.1 31.7 47.4 31.5 47.4 31.5C47.6 33.7 48 34.7001 48 34.7001C49.1 34.4001 49.6 34.2001 49.6 34.2001C50.2 34.9001 50.6 35.3 50.6 35.3Z" fill="#1FF0F7"/>
<path fill-rule="evenodd" clip-rule="evenodd" d="M51.4001 35.5L55.5001 36.1C55.5001 36.1 55.5001 35.9 55.6001 35.8C55.6001 35.8 55.6001 35.8 55.6001 35.7C55.6001 35.7 55.4001 35.7 55.2001 35.7C54.7001 35.6 54.0001 35.5 54.0001 35.5L53.0001 35.3L51.3001 35H51.2001L50.6001 35.2L51.2001 36L51.4001 35.5Z" fill="#2F6D92"/>
<path fill-rule="evenodd" clip-rule="evenodd" d="M47.8998 34.7C47.5998 33.7 47.2998 32.6 47.2998 31.5C47.3998 34.2 47.3998 35.6 47.3998 35.6C47.7998 35 47.8998 34.7 47.8998 34.7Z" fill="#2F6D92"/>
<path fill-rule="evenodd" clip-rule="evenodd" d="M45.8998 32C46.5998 31.8 47.0998 31.6 47.2998 31.5C46.2998 32.4 45.7998 32.8 45.7998 32.8C45.8998 32.3 45.8998 32 45.8998 32Z" fill="#2F6D92"/>
<path fill-rule="evenodd" clip-rule="evenodd" d="M50.1002 37C49.2002 35.7 48.7002 35 48.7002 35L50.7002 36.9C50.0002 37 50.1002 37 50.1002 37Z" fill="#2F6D92"/>
<path fill-rule="evenodd" clip-rule="evenodd" d="M66.1998 34.7001L66.6998 34.9001L67.4998 34.1001L67.5998 34.0001H67.6998C68.1998 34.1001 68.5998 34.3001 69.0998 34.4001C69.3998 33.6001 69.5998 32.3001 69.5998 31.5001V31.2001L69.8998 31.4001C70.1998 31.6001 70.6998 31.7001 71.0998 31.8001C72.1998 30.1001 72.4998 28.2001 72.3998 26.3001V26.1001H72.7998V26.3001C73.1998 28.6001 72.8998 31.0001 71.3998 33.0001L71.2998 33.2001V33.0001C70.9998 32.9001 70.7998 32.8001 70.4998 32.7001C70.2998 33.7001 70.0998 34.7001 69.8998 35.7001L69.9998 35.9001L69.6998 35.8001C69.2998 35.6001 68.9998 35.4001 68.5998 35.2001C68.1998 35.8001 67.7998 36.4001 67.2998 37.0001L67.1998 37.1001H66.9998L64.4998 36.5001H61.0998L60.7998 35.8001L66.1998 34.7001Z" fill="#071224"/>
<path fill-rule="evenodd" clip-rule="evenodd" d="M65.9001 35L66.7001 35.3L66.0001 36.1C66.0001 36.1 64.6001 36.2 64.1001 36.2C63.6001 36.2 61.7001 36.2 61.7001 36.2C61.7001 36.2 61.6001 35.8 61.6001 35.9C61.6001 36 63.2001 35.7 63.2001 35.7L64.2001 35.5L65.9001 35Z" fill="#1FF0F7"/>
<path fill-rule="evenodd" clip-rule="evenodd" d="M66.5998 35.3C64.6998 35.9 63.7998 36.2001 63.7998 36.2001C65.9998 36.7001 67.0998 37 67.0998 37C67.9998 35.7 68.4998 35 68.4998 35C69.3998 35.5 69.7998 35.7001 69.7998 35.7001C70.1998 33.5001 70.3998 32.4001 70.3998 32.4001C71.0998 32.7001 71.3998 32.9001 71.3998 32.9001C72.6998 31.1001 73.0998 28.9 72.6998 26.3C72.7998 28.8 72.1998 30.6 71.1998 32C70.0998 31.7 69.7998 31.5 69.7998 31.5C69.5998 33.7 69.1998 34.7001 69.1998 34.7001C68.0998 34.4001 67.5998 34.2001 67.5998 34.2001C66.9998 34.9001 66.5998 35.3 66.5998 35.3Z" fill="#1FF0F7"/>
<path fill-rule="evenodd" clip-rule="evenodd" d="M65.8001 35.4999L61.7001 36.0999C61.7001 36.0999 61.7001 35.8999 61.6001 35.7999C61.6001 35.7999 61.6001 35.7999 61.6001 35.6999C61.6001 35.6999 61.8001 35.6999 62.0001 35.6999C62.5001 35.5999 63.2001 35.4999 63.2001 35.4999L64.2001 35.2999L65.8001 34.8999H65.9001L66.5001 35.0999L66.0001 36.0999L65.8001 35.4999Z" fill="#2F6D92"/>
<path fill-rule="evenodd" clip-rule="evenodd" d="M69.2998 34.7C69.5998 33.7 69.8998 32.6 69.8998 31.5C69.7998 34.2 69.7998 35.6 69.7998 35.6C69.3998 35 69.2998 34.7 69.2998 34.7Z" fill="#2F6D92"/>
<path fill-rule="evenodd" clip-rule="evenodd" d="M71.2999 32C70.5999 31.8 70.0999 31.6 69.8999 31.5C70.8999 32.4 71.3999 32.8 71.3999 32.8C71.2999 32.3 71.2999 32 71.2999 32Z" fill="#2F6D92"/>
<path fill-rule="evenodd" clip-rule="evenodd" d="M67.1 37C68 35.7 68.5 35 68.5 35L66.5 36.9C67.2 37 67.1 37 67.1 37Z" fill="#2F6D92"/>
<path fill-rule="evenodd" clip-rule="evenodd" d="M69.3001 22.0999C66.5001 20.3999 65.1001 19.4999 65.1001 19.4999C66.3001 18.4999 66.9001 17.8999 66.9001 17.8999C68.5001 20.6999 69.3001 22.0999 69.3001 22.0999Z" fill="#394253"/>
<path fill-rule="evenodd" clip-rule="evenodd" d="M59.9998 98.8H42.2998H1.7998V130.6C39.4998 118.3 80.4998 118.3 118.2 130.6V98.8H59.9998Z" fill="#071224"/>
<path d="M109.4 124.5C107.8 124.1 106.7 123.3 105.9 122.2C105.1 121.1 104.7 119.8 104.7 118.1C105.7 117.9 106.7 117.7 107.7 117.4C107.7 117.9 107.7 118.4 107.7 118.9C107.7 120.3 108.3 121.1 109.4 121.3C110 121.4 110.4 121.3 110.6 121.1C110.9 120.8 111 120.3 111 119.5C111 118.6 110.8 117.7 110.4 116.9C110 116.1 109.3 115.2 108.2 114.1C106.9 112.7 106 111.5 105.4 110.5C104.9 109.5 104.6 108.4 104.6 107.2C104.6 105.6 105 104.3 105.8 103.4C106.6 102.5 107.8 102 109.4 102C110.9 102 112.1 102.5 112.9 103.5C113.7 104.5 114.1 106 114.1 107.8C113.1 108 112.1 108.3 111.1 108.5C111.1 108.1 111.1 107.7 111.1 107.4C111.1 106.6 111 106.1 110.7 105.7C110.4 105.3 110 105.2 109.5 105.1C108.4 105.1 107.9 105.7 107.9 107.1C107.9 107.9 108.1 108.6 108.5 109.3C108.9 110 109.6 110.9 110.7 112C112 113.4 113 114.8 113.5 115.9C114 117.1 114.3 118.4 114.3 119.8C114.3 121.7 113.9 123 113.1 123.8C112.2 124.8 111 125 109.4 124.5ZM98.2001 121.9C96.6001 121.6 95.5001 121 94.6001 120C93.8001 119.1 93.4001 117.9 93.4001 116.4C93.4001 114.5 93.4001 112.7 93.4001 110.8C93.4001 108.9 93.4001 107.1 93.4001 105.2C94.5001 104.3 95.5001 103.4 96.6001 102.4C96.6001 104.8 96.6001 107.3 96.6001 109.7C96.6001 112.1 96.6001 114.6 96.6001 117C96.6001 117.6 96.7001 118.1 97.0001 118.5C97.3001 118.8 97.7001 119 98.2001 119.1C98.7001 119.2 99.1001 119.1 99.4001 118.9C99.7001 118.7 99.8001 118.2 99.8001 117.5C99.8001 115 99.8001 112.5 99.8001 109.9C99.8001 107.4 99.8001 104.9 99.8001 102.3C100.8 102.3 101.9 102.3 102.9 102.3C102.9 104.9 102.9 107.4 102.9 110C102.9 112.6 102.9 115.1 102.9 117.7C102.9 119.3 102.5 120.5 101.7 121.2C100.9 122.1 99.7001 122.2 98.2001 121.9ZM86.5001 117.5C87.6001 117.6 88.2001 117.1 88.2001 116C88.2001 114.4 88.2001 112.8 88.2001 111.2C88.2001 109.6 88.2001 108 88.2001 106.4C88.2001 105.2 87.6001 104.7 86.5001 104.6C85.4001 104.6 84.8001 105.1 84.8001 106.2C84.8001 107.8 84.8001 109.3 84.8001 110.8C84.8001 112.3 84.8001 113.9 84.8001 115.4C84.8001 116.7 85.4001 117.3 86.5001 117.5ZM86.5001 119.9C84.9001 119.7 83.7001 119.2 82.9001 118.3C82.1001 117.5 81.7001 116.4 81.7001 115.1C81.7001 113.6 81.7001 112.2 81.7001 110.7C81.7001 109.2 81.7001 107.8 81.7001 106.3C81.7001 105 82.1001 103.9 82.9001 103.2C83.7001 102.5 84.9001 102.1 86.5001 102.1C88.1001 102.1 89.3001 102.5 90.1001 103.3C90.9001 104.1 91.3001 105.2 91.3001 106.7C91.3001 108.3 91.3001 109.9 91.3001 111.4C91.3001 113 91.3001 114.6 91.3001 116.1C91.3001 117.5 90.9001 118.6 90.1001 119.3C89.2001 120 88.0001 120.1 86.5001 119.9ZM66.1001 102.4C67.6001 102.4 69.1001 102.4 70.7001 102.4C71.0001 104.3 71.4001 106.2 71.7001 108C72.0001 109.9 72.4001 111.8 72.7001 113.7C72.7001 113.7 72.7001 113.7 72.8001 113.7C73.1001 111.8 73.5001 109.9 73.8001 108.1C74.1001 106.2 74.5001 104.3 74.8001 102.4C76.3001 102.4 77.9001 102.4 79.4001 102.4C79.4001 105.1 79.4001 107.9 79.4001 110.6C79.4001 113.3 79.4001 116.1 79.4001 118.8C78.4001 118.7 77.4001 118.6 76.4001 118.5C76.4001 116.5 76.4001 114.4 76.4001 112.4C76.4001 110.4 76.4001 108.3 76.4001 106.3C76.4001 106.3 76.4001 106.3 76.3001 106.3C75.9001 108.3 75.5001 110.3 75.1001 112.3C74.7001 114.3 74.3001 116.3 73.9001 118.3C73.0001 118.2 72.1001 118.2 71.2001 118.1C70.8001 116.1 70.4001 114.1 70.0001 112.1C69.6001 110.1 69.2001 108.1 68.8001 106.2C68.8001 106.2 68.8001 106.2 68.7001 106.2C68.7001 108.2 68.7001 110.1 68.7001 112.1C68.7001 114.1 68.7001 116 68.7001 118C67.8001 118 66.8001 117.9 65.9001 117.9C65.9001 115.3 65.9001 112.7 65.9001 110.2C66.1001 107.6 66.1001 105 66.1001 102.4ZM57.6001 111.2C56.9001 109.7 56.3001 108.3 55.7001 106.8C55.1001 105.3 54.4001 103.9 53.8001 102.4C54.9001 102.4 56.1001 102.4 57.2001 102.4C57.6001 103.3 57.9001 104.3 58.3001 105.2C58.7001 106.1 59.0001 107.1 59.4001 108C59.4001 108 59.4001 108 59.5001 108C59.9001 107.1 60.2001 106.1 60.6001 105.2C61.0001 104.3 61.3001 103.3 61.7001 102.4C62.7001 102.4 63.8001 102.4 64.8001 102.4C64.1001 103.9 63.5001 105.3 62.9001 106.8C62.3001 108.3 61.6001 109.7 61.0001 111.2C61.0001 112.3 61.0001 113.4 61.0001 114.5C61.0001 115.6 61.0001 116.7 61.0001 117.8C59.9001 117.8 58.9001 117.8 57.8001 117.8C57.8001 116.7 57.8001 115.6 57.8001 114.5C57.6001 113.4 57.6001 112.3 57.6001 111.2ZM42.2001 102.4C43.5001 102.4 44.9001 102.4 46.2001 102.4C46.7001 104 47.2001 105.5 47.8001 107.1C48.3001 108.7 48.8001 110.2 49.4001 111.8C49.4001 111.8 49.4001 111.8 49.5001 111.8C49.5001 110.6 49.5001 109.5 49.5001 108.3C49.5001 107.1 49.5001 106 49.5001 104.8C50.4001 104 51.4001 103.2 52.4001 102.4C52.4001 105 52.4001 107.6 52.4001 110.2C52.4001 112.8 52.4001 115.4 52.4001 118C51.3001 118 50.2001 118.1 49.1001 118.2C48.5001 116.3 47.8001 114.4 47.2001 112.6C46.6001 110.7 45.9001 108.8 45.3001 106.9C45.3001 106.9 45.3001 106.9 45.2001 106.9C45.2001 108.8 45.2001 110.8 45.2001 112.7C45.2001 114.6 45.2001 116.6 45.2001 118.5C44.2001 118.6 43.3001 118.7 42.3001 118.7C42.3001 116 42.3001 113.3 42.3001 110.6C42.2001 107.8 42.2001 105.1 42.2001 102.4ZM35.2001 117.2C36.3001 117.1 36.9001 116.5 36.9001 115.4C36.9001 113.9 36.9001 112.4 36.9001 110.8C36.9001 109.3 36.9001 107.8 36.9001 106.2C36.9001 105.1 36.4001 104.6 35.2001 104.6C34.1001 104.6 33.5001 105.2 33.5001 106.3C33.5001 107.9 33.5001 109.4 33.5001 111C33.5001 112.6 33.5001 114.1 33.5001 115.7C33.5001 116.8 34.1001 117.3 35.2001 117.2ZM35.2001 119.6C33.6001 119.8 32.4001 119.6 31.6001 119C30.8001 118.4 30.3001 117.3 30.3001 115.9C30.3001 114.4 30.3001 112.8 30.3001 111.3C30.3001 109.8 30.3001 108.2 30.3001 106.7C30.3001 105.3 30.7001 104.2 31.6001 103.4C32.4001 102.6 33.6001 102.3 35.2001 102.3C36.8001 102.3 38.0001 102.7 38.8001 103.4C39.6001 104.1 40.1001 105.1 40.1001 106.4C40.1001 107.8 40.1001 109.3 40.1001 110.7C40.1001 112.1 40.1001 113.6 40.1001 115C40.1001 116.3 39.7001 117.4 38.8001 118.2C38.0001 118.9 36.8001 119.4 35.2001 119.6ZM18.1001 102.5C19.4001 102.5 20.8001 102.5 22.1001 102.5C22.6001 104.4 23.1001 106.3 23.7001 108.1C24.2001 109.9 24.7001 111.7 25.3001 113.5C25.3001 113.5 25.3001 113.5 25.4001 113.5C25.4001 112.1 25.4001 110.7 25.4001 109.4C25.4001 108 25.4001 106.6 25.4001 105.3C26.3001 104.4 27.3001 103.4 28.3001 102.5C28.3001 105.5 28.3001 108.5 28.3001 111.5C28.3001 114.5 28.3001 117.5 28.3001 120.5C27.2001 120.7 26.1001 120.9 25.0001 121.1C24.4001 119 23.7001 116.8 23.1001 114.6C22.5001 112.4 21.8001 110.1 21.2001 107.8C21.2001 107.8 21.2001 107.8 21.1001 107.8C21.1001 110.1 21.1001 112.5 21.1001 114.8C21.1001 117.1 21.1001 119.5 21.1001 121.8C20.1001 122 19.2001 122.2 18.2001 122.4C18.2001 119.1 18.2001 115.8 18.2001 112.5C18.1001 109.1 18.1001 105.8 18.1001 102.5ZM12.4001 116.6C12.2001 114.9 11.9001 113.2 11.7001 111.4C11.5001 109.7 11.2001 107.9 11.0001 106.2C11.0001 106.2 11.0001 106.2 10.9001 106.2C10.6001 108.5 10.3001 110.8 10.0001 113.1C9.7001 115.4 9.4001 117.8 9.1001 120.1C10.2001 119 11.3001 117.8 12.4001 116.6ZM8.9001 102.5C10.3001 102.5 11.8001 102.5 13.2001 102.5C13.8001 106 14.3001 109.4 14.9001 112.8C15.5001 116.1 16.0001 119.4 16.6001 122.7C15.5001 122.9 14.5001 123.2 13.4001 123.5C13.2001 122.2 13.0001 120.8 12.8001 119.5C12.8001 119.5 12.8001 119.5 12.8001 119.6C11.6001 119.8 10.4001 120.1 9.2001 120.4C9.0001 121.9 8.8001 123.4 8.6001 124.9C7.6001 125.2 6.6001 125.5 5.6001 125.7C6.1001 121.7 6.7001 117.8 7.3001 114C7.8001 110 8.3001 106.2 8.9001 102.5Z" fill="white"/>
<path fill-rule="evenodd" clip-rule="evenodd" d="M112 114.2C111.6 113.6 111.1 113.1 110.7 112.6C109.4 112.2 108 111.9 106.7 111.5C107.1 112 107.5 112.6 107.9 113C109.2 113.5 110.6 113.8 112 114.2ZM113.4 116.8C113.3 116.6 113.3 116.5 113.2 116.3C113.1 116 112.9 115.7 112.7 115.4C111.4 115 110.2 114.7 108.9 114.3C109.3 114.8 109.8 115.3 110.2 115.9C111.3 116.2 112.3 116.5 113.4 116.8ZM107.4 117.9C107.2 117.9 106.9 117.9 106.7 117.9C106.3 117.9 105.4 117.8 105.1 118.3C104.4 119.6 105.5 121 106.3 122C107.1 123.1 108.3 123.8 109.6 124.1C110.7 124.4 112 124.5 112.8 123.7C113.8 122.8 113.9 121.2 113.9 119.9C113.9 119.2 113.8 118.4 113.7 117.7C112.8 117.4 111.9 117.2 110.9 116.9C111.3 117.7 111.4 118.6 111.4 119.5C111.4 120.1 111.3 120.9 110.9 121.3C110.5 121.7 109.9 121.8 109.3 121.6C107.8 121.3 107.3 120.1 107.3 118.8C107.4 118.6 107.4 118.3 107.4 117.9ZM96.3001 110.4V109.7V109.2C95.5001 109 94.7001 108.9 93.9001 108.7V109.9C94.6001 110.1 95.5001 110.3 96.3001 110.4ZM96.3001 112.6V111.4C95.5001 111.2 94.7001 111.1 93.9001 110.9V112.1C94.6001 112.3 95.5001 112.4 96.3001 112.6ZM100.3 114.4V117.6C100.3 118.2 100.2 118.8 99.8001 119.2C99.4001 119.6 98.8001 119.6 98.3001 119.5C97.7001 119.4 97.2001 119.2 96.9001 118.7C96.5001 118.2 96.4001 117.6 96.4001 117V113.5C95.6001 113.3 94.8001 113.2 94.0001 113V116.3C94.0001 117.5 94.3001 118.7 95.1001 119.7C96.0001 120.7 97.1001 121.2 98.4001 121.5C99.5001 121.7 100.7 121.8 101.6 121C102.5 120.2 102.7 118.9 102.7 117.8V114.8C101.8 114.7 101.1 114.6 100.3 114.4ZM100.3 112.2V113.4C101.1 113.6 101.8 113.7 102.6 113.9V112.7C101.8 112.5 101.1 112.4 100.3 112.2ZM100.3 110.1V111.3C101.1 111.5 101.8 111.6 102.6 111.8V110.6C101.8 110.4 101.1 110.2 100.3 110.1ZM82.0001 109.2V110.4C82.8001 110.5 83.6001 110.6 84.4001 110.7V109.5C83.7001 109.3 82.9001 109.2 82.0001 109.2ZM82.0001 107V108.2C82.8001 108.3 83.6001 108.4 84.4001 108.5V107.3C83.7001 107.2 82.9001 107.1 82.0001 107ZM91.0001 109.5V108.3C90.2001 108.2 89.4001 108 88.6001 107.9V109.1C89.4001 109.2 90.2001 109.4 91.0001 109.5ZM91.0001 111.6V111.4V110.4C90.2001 110.3 89.4001 110.1 88.6001 110V111.1V111.2C89.4001 111.4 90.2001 111.5 91.0001 111.6ZM86.6001 119.6C87.7001 119.8 89.0001 119.8 89.9001 119.1C90.8001 118.4 91.0001 117.3 91.0001 116.2V112.7C90.2001 112.6 89.4001 112.4 88.6001 112.3V116C88.6001 117.3 87.9001 118 86.5001 117.9C85.2001 117.7 84.5001 116.9 84.5001 115.7V111.8C83.7001 111.7 82.9001 111.6 82.1001 111.5V115.2C82.1001 116.3 82.4001 117.4 83.2001 118.2C84.1001 119 85.3001 119.4 86.6001 119.6ZM76.9001 110.8V112.4C76.9001 114.3 76.9001 116.2 76.9001 118.2C77.7001 118.3 78.4001 118.3 79.2001 118.4V111C78.4001 111 77.6001 110.9 76.9001 110.8ZM76.9001 108.6V109.8C77.7001 109.9 78.4001 109.9 79.2001 110V108.8C78.4001 108.8 77.6001 108.7 76.9001 108.6ZM76.9001 106.5V107.7C77.7001 107.8 78.4001 107.8 79.2001 107.9V106.7C78.4001 106.6 77.6001 106.6 76.9001 106.5ZM75.8001 107.6C75.9001 107.2 76.0001 106.8 76.0001 106.4C75.5001 106.4 75.1001 106.3 74.6001 106.3C74.5001 106.7 74.5001 107.1 74.4001 107.5C74.9001 107.5 75.3001 107.6 75.8001 107.6ZM75.4001 109.7L75.6001 108.5C75.1001 108.5 74.7001 108.4 74.2001 108.4L74.0001 109.6C74.5001 109.6 74.9001 109.6 75.4001 109.7ZM70.3001 110.4C70.4001 111 70.5001 111.5 70.6001 112.1C71.0001 114 71.3001 115.9 71.7001 117.8C72.4001 117.8 73.1001 117.9 73.7001 117.9C74.1001 116 74.4001 114.1 74.8001 112.3C74.9001 111.8 75.0001 111.2 75.1001 110.7C74.7001 110.7 74.2001 110.6 73.8001 110.6C73.6001 111.7 73.4001 112.7 73.2001 113.8L73.1001 114.1H72.7001H72.4001L72.3001 113.8C72.1001 112.7 71.9001 111.6 71.7001 110.5C71.3001 110.4 70.8001 110.4 70.3001 110.4ZM69.8001 108.1L70.0001 109.3C70.5001 109.3 71.1001 109.4 71.6001 109.4C71.5001 109 71.5001 108.6 71.4001 108.2C70.9001 108.2 70.4001 108.2 69.8001 108.1ZM69.4001 106V106.1C69.5001 106.5 69.5001 106.8 69.6001 107.2C70.1001 107.2 70.7001 107.3 71.2001 107.3L71.0001 106.1C70.5001 106 70.0001 106 69.4001 106ZM66.6001 110.2V117.5C67.3001 117.5 68.0001 117.6 68.6001 117.6C68.6001 115.8 68.6001 113.9 68.6001 112.1V110.3C68.0001 110.2 67.3001 110.2 66.6001 110.2ZM66.6001 108V109.2C67.3001 109.2 68.0001 109.3 68.6001 109.3V108.1C68.0001 108 67.3001 108 66.6001 108ZM66.6001 105.9V107.1C67.3001 107.1 68.0001 107.2 68.6001 107.2V106.3V106.1C68.0001 105.9 67.3001 105.9 66.6001 105.9ZM62.3001 107C62.3001 106.9 62.4001 106.8 62.4001 106.7C62.5001 106.4 62.7001 106.1 62.8001 105.8C62.1001 105.8 61.4001 105.8 60.7001 105.8C60.5001 106.2 60.4001 106.6 60.2001 107C61.0001 106.9 61.7001 106.9 62.3001 107ZM57.6001 110.1L58.0001 111.1V111.2V111.3C58.0001 112.4 58.0001 113.5 58.0001 114.6C58.0001 115.6 58.0001 116.5 58.0001 117.5C58.8001 117.5 59.6001 117.5 60.4001 117.5C60.4001 116.5 60.4001 115.6 60.4001 114.6C60.4001 113.5 60.4001 112.4 60.4001 111.3V111.2V111.1C60.5001 110.8 60.7001 110.4 60.8001 110.1C59.8001 110.1 58.7001 110.1 57.6001 110.1ZM56.6001 107.9C56.8001 108.3 56.9001 108.7 57.1001 109.1C58.1001 109.1 59.1001 109.1 60.0001 109.1C60.4001 109.1 60.9001 109.1 61.3001 109.1C61.5001 108.7 61.6001 108.3 61.8001 107.9C61.2001 107.9 60.6001 107.9 59.9001 107.9H59.8001L59.7001 108.2L59.6001 108.4H59.3001C59.3001 108.4 59.3001 108.4 59.2001 108.4H58.9001L58.8001 108.2L58.7001 107.9C58.1001 107.9 57.4001 107.9 56.6001 107.9ZM55.7001 105.8C55.8001 106.1 56.0001 106.4 56.1001 106.7L56.2001 107C57.0001 107 57.8001 107 58.5001 107C58.3001 106.6 58.2001 106.2 58.0001 105.8C57.3001 105.8 56.5001 105.8 55.7001 105.8ZM52.0001 107.1V105.9C51.3001 105.9 50.6001 106 49.9001 106V107.2C50.6001 107.2 51.3001 107.1 52.0001 107.1ZM52.0001 109.2V108C51.3001 108 50.6001 108.1 49.9001 108.1V108.2V109.3C50.6001 109.3 51.3001 109.3 52.0001 109.2ZM46.9001 110.5C47.1001 111.1 47.3001 111.7 47.5001 112.3C48.1001 114.1 48.7001 115.9 49.3001 117.7C50.2001 117.7 51.1001 117.6 51.9001 117.6V110.3C51.2001 110.3 50.5001 110.4 49.8001 110.4V111.8V112.2H49.4001C49.4001 112.2 49.4001 112.2 49.3001 112.2H49.0001L48.9001 111.9C48.7001 111.4 48.6001 110.9 48.4001 110.4C48.0001 110.5 47.4001 110.5 46.9001 110.5ZM46.2001 108.4L46.6001 109.6C47.2001 109.6 47.7001 109.5 48.3001 109.5C48.2001 109.1 48.0001 108.7 47.9001 108.3C47.3001 108.3 46.7001 108.3 46.2001 108.4ZM45.0001 106.4H45.2001C45.2001 106.4 45.2001 106.4 45.3001 106.4H45.6001L45.7001 106.7L46.0001 107.6C46.6001 107.6 47.1001 107.5 47.7001 107.5V107.4L47.4001 106.4C46.4001 106.2 45.7001 106.3 45.0001 106.4ZM42.7001 110.9V118.2C43.4001 118.1 44.1001 118.1 44.8001 118C44.8001 116.2 44.8001 114.3 44.8001 112.5V110.7C44.1001 110.8 43.4001 110.8 42.7001 110.9ZM42.7001 108.7V109.9C43.4001 109.8 44.1001 109.8 44.8001 109.7V108.5C44.1001 108.6 43.4001 108.6 42.7001 108.7ZM42.7001 106.6V107.8C43.4001 107.7 44.1001 107.7 44.8001 107.6V106.8V106.5C44.1001 106.4 43.4001 106.5 42.7001 106.6ZM30.8001 110.2V111.3V111.4C31.6001 111.3 32.4001 111.1 33.3001 111V109.8C32.4001 109.9 31.6001 110 30.8001 110.2ZM30.8001 108V109.2C31.6001 109.1 32.4001 108.9 33.3001 108.8V107.6C32.4001 107.8 31.6001 107.9 30.8001 108ZM39.7001 108V106.8C38.9001 106.9 38.1001 107 37.2001 107.1V108.3C38.1001 108.2 38.9001 108.1 39.7001 108ZM39.7001 110.2V109C38.9001 109.1 38.1001 109.2 37.2001 109.3V110.5C38.1001 110.3 38.9001 110.2 39.7001 110.2ZM35.2001 119.3C36.4001 119.1 37.7001 118.8 38.6001 117.9C39.4001 117.1 39.8001 116.1 39.8001 115V111.3C39.0001 111.4 38.2001 111.5 37.3001 111.6V115.5C37.3001 116.8 36.6001 117.5 35.3001 117.7C33.9001 117.9 33.2001 117.1 33.2001 115.8V112C32.4001 112.1 31.6001 112.2 30.7001 112.4V115.9C30.7001 116.9 30.9001 118 31.8001 118.7C32.8001 119.4 34.1001 119.4 35.2001 119.3ZM27.8001 109.7V108.5C27.1001 108.6 26.4001 108.7 25.7001 108.9V109.4V110.1C26.4001 110 27.1001 109.8 27.8001 109.7ZM27.8001 111.8V111.4V110.6C27.1001 110.7 26.4001 110.8 25.7001 111V112.2C26.4001 112.1 27.1001 112 27.8001 111.8ZM23.2001 113.7C23.3001 113.9 23.3001 114.1 23.4001 114.3C24.0001 116.4 24.6001 118.4 25.2001 120.5C26.1001 120.3 27.0001 120.2 27.8001 120V112.7C27.1001 112.8 26.4001 112.9 25.7001 113.1V113.4V113.7L25.4001 113.8C25.4001 113.8 25.4001 113.8 25.3001 113.8L25.0001 113.9L24.9001 113.6L24.8001 113.4C24.3001 113.5 23.8001 113.6 23.2001 113.7ZM22.6001 111.6C22.7001 112 22.8001 112.4 22.9001 112.7C23.5001 112.6 24.0001 112.5 24.6001 112.4C24.5001 112 24.4001 111.6 24.3001 111.3C23.7001 111.4 23.2001 111.5 22.6001 111.6ZM22.0001 109.6C22.1001 110 22.2001 110.4 22.3001 110.7C22.9001 110.6 23.4001 110.5 24.0001 110.4C23.9001 110 23.8001 109.6 23.7001 109.3C23.1001 109.4 22.6001 109.5 22.0001 109.6ZM18.5001 114.7V121.9C19.2001 121.8 19.9001 121.6 20.6001 121.5C20.6001 119.3 20.6001 117 20.6001 114.8V114.3C19.9001 114.4 19.2001 114.5 18.5001 114.7ZM18.5001 112.5V113.7C19.2001 113.5 19.9001 113.4 20.6001 113.2V112C19.9001 112.2 19.2001 112.3 18.5001 112.5ZM18.5001 110.3V111.5C19.2001 111.3 19.9001 111.2 20.6001 111V109.8C19.9001 110 19.2001 110.2 18.5001 110.3ZM12.8001 116.1L12.9001 116.6V116.8L12.8001 116.9C12.0001 117.8 11.1001 118.7 10.3001 119.6C11.0001 119.4 11.8001 119.3 12.5001 119.1V119H13.2001V119.3C13.4001 120.5 13.6001 121.7 13.7001 122.9C14.5001 122.7 15.3001 122.5 16.2001 122.3C15.8001 120 15.4001 117.7 15.0001 115.4C14.3001 115.7 13.5001 115.9 12.8001 116.1ZM12.5001 113.9L12.7001 115.1C13.4001 114.9 14.2001 114.7 14.9001 114.5L14.7001 113.3C13.9001 113.6 13.2001 113.8 12.5001 113.9ZM12.2001 111.9C12.3001 112.3 12.3001 112.7 12.4001 113.1C13.1001 112.9 13.9001 112.7 14.6001 112.5L14.4001 111.3C13.6001 111.5 12.9001 111.7 12.2001 111.9ZM9.6001 113.8L9.7001 113.1L9.8001 112.5C9.1001 112.7 8.5001 112.9 7.8001 113.1L7.7001 113.8L7.6001 114.4C8.3001 114.2 8.9001 114 9.6001 113.8ZM9.3001 116L9.5001 114.7C8.8001 114.9 8.1001 115.1 7.5001 115.3L7.3001 116.6C8.0001 116.4 8.6001 116.2 9.3001 116ZM8.8001 120.2C8.9001 119.2 9.1001 118.1 9.2001 117.1C8.5001 117.3 7.8001 117.5 7.1001 117.7C6.8001 120.2 6.4001 122.6 6.1001 125.1C6.8001 124.9 7.5001 124.7 8.3001 124.5C8.4001 123 8.6001 121.6 8.8001 120.2Z" fill="#778399"/>
</g>
<defs>
<clipPath id="clip0_97_1462">
<rect width="120" height="133" fill="white"/>
</clipPath>
</defs>
</svg>
