<svg width="120" height="133" viewBox="0 0 120 133" fill="none" xmlns="http://www.w3.org/2000/svg">
<g clip-path="url(#clip0_97_1296)">
<path d="M60 8.5L56.5 11.1L56 18.1L52 22.8V26.5L68.3 25.8L68 22.1L64 18.6L63.3 10.5L60 8.5Z" fill="white"/>
<path d="M32.1997 1.8999V12.1999L43.4997 19.4999V9.2999L32.1997 1.8999Z" fill="white"/>
<path d="M29.6999 24.7L35.8999 27.4L37.8999 31.9L36.8999 37L33.5999 37.2L29.3999 33.5L29.6999 24.7Z" fill="white"/>
<path d="M42.5 42.1001L39.3 42.3001L38.9 48.0001C38.9 48.0001 25.9 48.4001 20.3 54.8001C20.3 54.8001 10.6 56.5001 9.6 60.9001C8.6 65.3001 13 71.5001 13 71.5001L19.1 69.8001C19.1 69.8001 16.3 57.9001 24.8 54.3001C33.3 50.7001 46.4 50.6001 46.4 50.6001L48.1 47.9001L42.5 42.1001Z" fill="white"/>
<path d="M59.9997 8.5L63.4997 11.1L63.9997 18.1L67.9997 22.8V26.5L51.6997 25.8L51.9997 22.1L55.9997 18.6L56.6997 10.5L59.9997 8.5Z" fill="white"/>
<path d="M87.8 1.8999V12.1999L76.5 19.4999V9.2999L87.8 1.8999Z" fill="white"/>
<path d="M90.2996 24.7L84.0996 27.4L82.0996 31.9L83.0996 37L86.3996 37.2L90.5996 33.5L90.2996 24.7Z" fill="white"/>
<path d="M77.4999 42.1001L80.6999 42.3001L81.0999 48.0001C81.0999 48.0001 94.0999 48.4001 99.6999 54.8001C99.6999 54.8001 109.4 56.5001 110.4 60.9001C111.4 65.3001 107 71.5001 107 71.5001L100.9 69.8001C100.9 69.8001 103.7 57.9001 95.1999 54.3001C86.6999 50.7001 73.5999 50.6001 73.5999 50.6001L71.8999 47.9001L77.4999 42.1001Z" fill="white"/>
<path d="M83.1 36.9L78.5 41.9L81.2 42.2L80.8 46.7L88.8 43.3L89.8 34.5L86.1 37.3L83.1 36.9Z" fill="#08B7D0"/>
<path d="M55.6999 25.2L51.8999 28.1L52.2999 31.2999L59.9999 39.5999L68.2999 30.6L68.0999 27.5L64.4999 25.2H55.6999Z" fill="#08B7D0"/>
<path d="M30.1997 34.7001L30.9997 44.0001L38.7997 47.1001L39.2997 42.1001L41.4997 41.9001L36.8997 37.0001L33.5997 37.2001L30.1997 34.1001V34.7001Z" fill="#08B7D0"/>
<path d="M58.1996 66.3L51.5996 71L52.0996 74.4L59.9996 81.3L68.5996 74.1L67.8996 70.5L61.9996 67.4L58.1996 66.3Z" fill="#08B7D0"/>
<path d="M53.1996 71.7999L56.4996 74.1999L58.8996 73.7999H56.4996L53.1996 71.2999L57.4996 68.3999L52.0996 70.4999V74.3999L59.9996 80.5999V79.6999L53.1996 73.8999V71.7999Z" fill="#19456F"/>
<path d="M36.5 38.6C36.4 38 37 37.8 37 37.8C36.9 37.3 34.5 37.6 34.5 37.6L38.7 42L39.7 41.8C39.7 41.7 36.6 39.2 36.5 38.6Z" fill="#19456F"/>
<path d="M34.1998 41.7C31.7998 39.1 31.4998 36.2 31.4998 36.2L30.7998 35.5L31.2998 43.2L38.4998 46.8V45C38.3998 44.9 36.5998 44.3 34.1998 41.7Z" fill="#19456F"/>
<path d="M46.5999 33.5L43.8999 36.1L49.0999 43.2L55.7999 41.1L46.5999 33.5Z" fill="#19456F"/>
<path d="M53.3997 31.3001V30.6001L57.8997 32.6001L59.1997 32.2001H57.9997L53.3997 30.1001V29.0001L55.9997 26.2001C55.3997 25.6001 52.1997 27.8001 52.1997 27.8001L51.6997 31.0001L59.9997 39.2001V38.6001L53.3997 31.3001Z" fill="#19456F"/>
<path d="M66.8 71.2999L63.5 73.7999H61.1L63.5 74.1999L66.8 71.7999V73.8999L60 79.6999V80.5999L67.9 74.3999V70.4999L62.5 68.3999L66.8 71.2999Z" fill="#19456F"/>
<path d="M82.9998 37.8C82.9998 37.8 83.5998 38.1 83.4998 38.6C83.3998 39.2 80.2998 41.7 80.2998 41.7L81.2998 41.9L85.4998 37.5C85.4998 37.5 83.0998 37.3 82.9998 37.8Z" fill="#19456F"/>
<path d="M88.4996 36.1999C88.4996 36.1999 88.1996 39.0999 85.7996 41.6999C83.3996 44.2999 81.5996 44.8999 81.5996 44.8999V46.6999L88.7996 43.0999L89.2996 35.3999L88.4996 36.1999Z" fill="#19456F"/>
<path d="M64.1997 41.1L70.8997 43.2L76.0997 36.1L73.3997 33.5L64.1997 41.1Z" fill="#19456F"/>
<path d="M67.9 27.7C67.9 27.7 64.7 25.5 64.1 26.1L66.7 28.9V30L62 32.2H60.7L62 32.6L66.5 30.6V31.3L60 38.5V39.1L68.3 30.9L67.9 27.7Z" fill="#19456F"/>
<path d="M60.3998 61.1L60.1998 66.3L51.5998 70.7L52.1998 74.7L58.0998 81.9L50.7998 81.1C50.7998 81.1 48.5998 82.7 43.2998 86.5C37.9998 90.4 35.4998 88.9 35.2998 82.2C35.1998 75.5 36.7998 63.9 40.6998 60.8C44.5998 57.6 45.2998 55.8 49.6998 58.4C54.1998 61.2 60.3998 61.1 60.3998 61.1Z" fill="#DF9E27"/>
<path d="M32.4997 12.3999L43.3997 18.8999L51.7997 27.0999L51.2997 30.6999L35.6997 20.4999C35.6997 20.4999 32.1997 13.4999 32.4997 12.3999Z" fill="#DF9E27"/>
<path d="M8.89999 63.3C8.89999 63.3 7.29999 65.9 9.09999 72.7C11 79.5 16.6 81.3 23.1 79.1C29.6 76.9 19 70.2 19 70.2L14.1 71.1C14.1 71.1 10.4 70 10.2 67.6C9.99999 65.2 9.39999 61.8 9.39999 61.8L8.89999 63.3Z" fill="#DF9E27"/>
<path d="M59.5996 61.1001L59.7996 66.3001L68.3996 70.7001L67.7996 74.7001L61.8996 82.0001L69.1996 81.2001C69.1996 81.2001 71.3996 82.8001 76.6996 86.6001C81.9996 90.5001 84.4996 89.0001 84.6996 82.3001C84.7996 75.6001 83.1996 64.0001 79.2996 60.9001C75.3996 57.7001 74.6996 55.9001 70.2996 58.5001C65.7996 61.2001 59.5996 61.1001 59.5996 61.1001Z" fill="#DF9E27"/>
<path d="M87.4997 12.3999L76.5997 18.8999L68.1997 27.0999L68.6997 30.6999L84.3997 20.5999C84.2997 20.4999 87.7997 13.4999 87.4997 12.3999Z" fill="#DF9E27"/>
<path d="M111.1 63.3C111.1 63.3 112.7 65.9 110.9 72.7C109 79.5 103.4 81.3 96.9 79.1C90.4 76.9 101 70.2 101 70.2L105.9 71.1C105.9 71.1 109.6 70 109.8 67.6C110 65.2 110.6 61.8 110.6 61.8L111.1 63.3Z" fill="#DF9E27"/>
<path d="M78.5997 53.7002C77.5997 53.7002 76.5997 54.5002 75.7997 55.7002L74.9997 55.5002L71.7997 55.9002L65.8997 59.7002L59.9997 61.0002V63.7002V61.0002L54.0997 59.6002L48.1997 55.8002L44.9997 55.5002L44.1997 55.7002C43.3997 54.5002 42.4997 53.7002 41.3997 53.7002C37.8997 53.8002 33.6997 66.1002 33.6997 66.1002C33.6997 66.1002 31.1997 83.3002 36.8997 83.8002C42.5997 84.3002 44.2997 80.1002 44.9997 80.2002C45.6997 80.3002 46.1997 82.7002 43.9997 85.0002C41.7997 87.3002 36.6997 89.6002 36.6997 89.6002C36.6997 89.6002 36.6997 90.8002 37.6997 91.0002C38.6997 91.2002 41.0997 90.9002 44.3997 87.9002C47.5997 84.8002 49.5997 80.4002 49.5997 80.4002L46.9997 76.8002L44.9997 76.3002C43.1997 79.9002 39.9997 80.6002 39.9997 80.6002C39.8997 79.8002 40.2997 78.2002 43.2997 75.9002C46.2997 73.5002 45.3997 68.6002 45.3997 68.6002C45.3997 73.3002 41.0997 75.3002 39.6997 75.4002C38.3997 75.4002 39.6997 63.6002 42.3997 64.7002C45.0997 65.9002 47.0997 64.7002 47.0997 64.7002C47.2997 64.2002 46.7997 61.9002 46.0997 59.6002L48.0997 62.9002L50.7997 63.4002C47.7997 61.3002 47.7997 58.4002 47.7997 58.4002C50.4997 61.9002 59.4997 63.3002 59.3997 64.0002C59.2997 64.6002 53.7997 64.2002 53.7997 64.2002V65.2002L60.0997 65.5002L66.3997 65.2002V64.2002C66.3997 64.2002 60.8997 64.6002 60.7997 64.0002C60.6997 63.4002 69.6997 61.9002 72.3997 58.4002C72.3997 58.4002 72.3997 61.2002 69.3997 63.4002L71.9997 63.0002L73.9997 59.7002C73.1997 62.0002 72.7997 64.2002 72.9997 64.8002C72.9997 64.8002 74.9997 66.0002 77.6997 64.8002C80.3997 63.6002 81.7997 75.5002 80.3997 75.5002C79.0997 75.5002 74.6997 73.4002 74.6997 68.7002C74.6997 68.7002 73.7997 73.6002 76.7997 76.0002C79.7997 78.4002 80.2997 79.9002 80.0997 80.7002C80.0997 80.7002 76.8997 80.0002 75.0997 76.4002L72.9997 76.8002L70.3997 80.4002C70.3997 80.4002 72.3997 84.9002 75.5997 87.9002C78.7997 91.0002 81.1997 91.2002 82.2997 91.0002C83.2997 90.8002 83.2997 89.6002 83.2997 89.6002C83.2997 89.6002 78.2997 87.3002 75.9997 85.0002C73.7997 82.7002 74.2997 80.3002 74.9997 80.2002C75.6997 80.1002 77.3997 84.2002 83.0997 83.8002C88.7997 83.3002 86.2997 66.1002 86.2997 66.1002C86.2997 66.1002 82.0997 53.8002 78.5997 53.7002Z" fill="#A54C22"/>
<path d="M100.5 77.7001C100.9 76.7001 101.5 74.1001 101.8 72.5001L107.2 73.6001C107.2 73.6001 111 69.2001 111.1 64.9001C111.1 64.9001 107.9 71.8001 105 71.6001C103.6 71.5001 102.5 71.1001 101.7 70.7001L101.2 70.0001L101 70.4001C100.6 70.2001 100.4 70.0001 100.4 70.0001L100.5 71.4001L96.7998 79.3001L98.4998 79.6001C107 80.8001 108.9 72.7001 108.9 72.7001C107 76.3001 100.5 77.7001 100.5 77.7001Z" fill="#A54C22"/>
<path d="M52.3001 71.1001L56.3001 68.4001L56.1001 67.5001L50.5001 69.8001V75.2001C50.5001 75.2001 55.0001 80.4001 54.5001 80.5001C54.0001 80.5001 48.4001 75.8001 48.9001 73.4001C49.3001 70.9001 48.3001 64.6001 48.3001 64.6001L47.7001 63.4001V66.9001L46.1001 75.7001L59.4001 88.4001L60.0001 81.4001L52.5001 74.8001L52.3001 71.1001Z" fill="#A54C22"/>
<path d="M19.5999 69.8002C19.5999 69.8002 19.3999 70.0002 18.9999 70.2002L18.7999 69.8002L18.2999 70.5002C17.4999 70.9002 16.3999 71.3002 14.9999 71.4002C12.0999 71.7002 8.8999 64.7002 8.8999 64.7002C8.9999 69.1002 12.7999 73.4002 12.7999 73.4002L18.1999 72.3002C18.4999 73.9002 19.0999 76.5002 19.4999 77.5002C19.4999 77.5002 12.9999 76.1002 11.0999 72.4002C11.0999 72.4002 12.9999 80.4002 21.4999 79.3002L23.1999 79.0002L19.4999 71.1002L19.5999 69.8002Z" fill="#A54C22"/>
<path d="M72.4 66.8001V63.3L71.8 64.5C71.8 64.5 70.7 70.8001 71.2 73.3001C71.6 75.8001 66.1 80.5001 65.6 80.4001C65.1 80.4001 69.6 75.1 69.6 75.1V69.7L64 67.4001L63.8 68.3001L67.8 71L67.6 74.6L60 81.3001L60.6 88.3001L73.9 75.6L72.4 66.8001Z" fill="#A54C22"/>
<path d="M82.0997 16.9001L84.6997 15.6001C82.7997 17.7001 77.5997 20.6001 77.5997 20.6001L80.5997 21.2001L69.6997 28.8001L77.5997 19.3001L68.3997 26.7001L68.2997 30.7001L59.9997 40.4001L51.6997 30.6001L51.5997 26.6001L42.3997 19.2001L50.2997 28.7001L39.3997 21.1001L42.3997 20.5001C42.3997 20.5001 37.1997 17.6001 35.2997 15.5001L37.8997 16.8001L32.7997 13.1001L32.1997 16.1001C32.1997 16.1001 35.5997 19.4001 35.6997 23.9001C35.6997 28.5001 35.9997 30.1001 37.2997 30.1001C38.5997 30.1001 43.3997 29.8001 43.3997 29.8001L59.9997 44.1001L76.5997 29.8001C76.5997 29.8001 81.3997 30.1001 82.6997 30.1001C83.9997 30.1001 84.2997 28.5001 84.2997 23.9001C84.2997 19.3001 87.7997 16.1001 87.7997 16.1001L87.1997 13.1001L82.0997 16.9001Z" fill="#A54C22"/>
<path d="M37.5996 90.9999C37.5996 90.9999 44.9996 90.0999 50.5996 80.3999L60.7996 88.7999L70.1996 80.8999C70.1996 80.8999 75.4996 90.9999 83.2996 90.7999L77.5996 95.0999L41.0996 94.3999C41.0996 94.4999 37.3996 93.0999 37.5996 90.9999Z" fill="#717785"/>
<path d="M39.5 50.9999C39.5 50.9999 24.4 50.3999 20 59.5999C15.5 68.7999 23.6 79.6999 23.6 79.6999L15.7 80.2999V83.1999C15.7 83.1999 11.3 87.6999 11 93.5999C10.7 99.4999 12 99.7999 12 99.7999L32.7 99.4999L36.9 90.3999C36.9 90.3999 29 79.1999 29 71.9999C29 64.7999 39.5 50.9999 39.5 50.9999Z" fill="#717785"/>
<path d="M80.5 50.9999C80.5 50.9999 95.6 50.3999 100 59.5999C104.5 68.7999 96.4 79.6999 96.4 79.6999L104.3 80.2999V83.1999C104.3 83.1999 108.7 87.6999 109 93.5999C109.3 99.4999 108 99.7999 108 99.7999L87.3 99.4999L83.1 90.3999C83.1 90.3999 91 79.1999 91 71.9999C91 64.7999 80.5 50.9999 80.5 50.9999Z" fill="#717785"/>
<path d="M39.5 38.9001L49.5 48.5L48.1 51C48.1 51 59.8 55.7 61.7 55.8C63.6 55.8 63.6 55.8 63.6 55.8L70.9 48.1L80.3 36.8L76.9 36.5L70.4 43.6L63.1 41.7001L59.6 43.9001L56.6 42L49.3 43.6L42.6 35.3L39.5 38.9001Z" fill="#717785"/>
<path d="M62.4999 4.00011C62.4999 4.00011 51.6999 3.80011 47.8999 7.60011C44.0999 11.4001 47.1999 18.1001 50.7999 17.9001C54.3999 17.8001 56.4999 15.1001 56.4999 15.1001L55.5999 10.9001L60.5999 8.2001L63.5999 11.8001L63.8999 17.0001C63.8999 17.0001 74.5999 20.1001 75.2999 15.7001C75.7999 11.4001 69.8999 4.10011 62.4999 4.00011Z" fill="#717785"/>
<path d="M73.6995 91.2999C71.9995 88.9999 74.1995 86.3999 74.1995 86.3999L71.6995 83.8999C68.8995 87.1999 65.3995 85.8999 65.3995 85.8999L63.4995 86.9999L65.8995 88.6999L59.9995 88.8999L54.0995 88.7999L56.4995 87.0999L54.5995 85.8999C54.5995 85.8999 51.0995 87.2999 48.2995 83.8999L45.7995 86.3999C45.7995 86.3999 47.9995 89.0999 46.2995 91.2999C44.5995 93.5999 40.2995 93.3999 39.2995 90.9999H37.4995L38.4995 94.2999L44.3995 95.5999L53.1995 89.2999L44.9995 98.8999L45.7995 99.4999L45.6995 99.5999H45.9995L46.6995 100.1L59.9995 99.7999L73.1995 99.9999L73.8995 99.4999H74.1995L74.0995 99.3999L74.8995 98.7999L66.6995 89.2999L75.4995 95.5999L81.3995 94.2999L82.3995 90.9999H80.5995C79.6995 93.3999 75.3995 93.5999 73.6995 91.2999Z" fill="#2C2E37"/>
<path d="M104 90.5999C107.7 95.6999 104 97.0999 99.5996 93.9999C95.2996 90.8999 96.2996 87.7999 100.1 87.7999C103.9 87.7999 107 91.2999 107 91.2999C105.9 87.0999 101.5 84.3999 102.1 83.8999C102.7 83.3999 103.9 83.8999 103.9 83.8999L104.3 80.4999L92.6996 79.5999L84.2996 83.1999L83.0996 90.5999L86.8996 99.6999L108 100.1L109 95.8999C108.1 90.1999 104 90.5999 104 90.5999Z" fill="#2C2E37"/>
<path d="M92.9998 77.7C96.3998 67.6 91.5998 59.2 93.6998 59.7C95.8998 60.2 98.6998 67 98.6998 67C99.0998 53.7 79.7998 51 79.7998 51C79.7998 51 79.7998 51 82.4998 54.3C85.1998 57.6 85.8998 75.1 85.8998 75.1L92.9998 77.7Z" fill="#2C2E37"/>
<path d="M48.4997 48.2999L46.6997 49.6999C46.6997 49.6999 46.6997 50.5999 52.0997 53.5999C57.4997 56.5999 59.8997 56.1999 59.8997 56.1999V53.6999C59.8997 53.6999 58.3997 53.0999 57.4997 52.0999C56.6997 51.0999 59.3997 48.5999 59.3997 48.5999C59.3997 48.5999 56.3997 50.1999 54.8997 50.1999C53.3997 50.1999 51.8997 47.3999 51.8997 47.3999L59.8997 45.4999V44.5999L46.7997 46.0999L48.4997 48.2999Z" fill="#2C2E37"/>
<path d="M54.3999 42.2999L57.5999 44.6999L59.4999 43.7999L56.2999 41.5999L54.3999 42.2999Z" fill="#2C2E37"/>
<path d="M47.9996 45.5998C47.9996 45.5998 42.2996 38.0998 42.9996 37.9998C43.5996 37.7998 48.7996 43.8998 48.7996 43.8998L43.9996 36.3998L45.7996 33.8998L42.9996 30.5998L38.2996 29.7998L37.5996 36.7998L46.2996 46.0998L47.9996 45.5998Z" fill="#2C2E37"/>
<path d="M51.6998 25.7999V22.2999L56.2998 18.2999L55.4998 10.8999C54.6998 15.7999 49.9998 17.3999 49.5998 14.1999C49.1998 10.9999 55.6998 8.2999 55.6998 8.2999L59.0998 4.8999L49.3998 8.8999C50.3998 6.7999 56.2998 4.9999 56.2998 4.9999C50.0998 5.0999 45.3998 7.2999 43.4998 9.8999C41.5998 12.4999 42.9998 18.3999 42.9998 18.3999L51.6998 25.7999Z" fill="#2C2E37"/>
<path d="M27.3997 79.5L15.7997 80.4L16.1997 83.8C16.1997 83.8 17.3997 83.3 17.9997 83.8C18.5997 84.3 14.1997 87 13.0997 91.2C13.0997 91.2 16.1997 87.7 19.9997 87.7C23.7997 87.7 24.7997 90.8 20.4997 93.9C16.1997 97 12.3997 95.6 16.0997 90.5C16.0997 90.5 12.0997 90.1 11.1997 95.5L12.1997 99.7L33.2997 99.3L37.0997 90.2L35.8997 82.8L27.3997 79.5Z" fill="#2C2E37"/>
<path d="M21.2996 67C21.2996 67 24.0996 60.1 26.2996 59.7C28.4996 59.2 23.6996 67.6 26.9996 77.7L34.0996 75.1C34.0996 75.1 34.7996 57.6 37.4996 54.3C40.1996 51 40.1996 51 40.1996 51C40.1996 51 20.8996 53.7 21.2996 67Z" fill="#2C2E37"/>
<path d="M55.8995 60.5C56.0995 60.6 56.2995 60.7 56.4995 60.7C57.5995 61.1 58.7995 61.2 59.8995 61.2C60.9995 61.2 62.1995 61.1 63.2995 60.7C63.4995 60.6 63.6995 60.5 63.8995 60.5C67.1995 59.4 69.6995 57.4 69.6995 57.4V56.6C71.4995 54.7 72.2995 53 72.2995 53L70.1995 52.5C70.1995 52.5 69.9995 52.7 69.6995 53V52.8C69.6995 52.8 69.6995 52.9 69.5995 53.1C68.6995 53.9 66.7995 55.2 63.7995 55.9C63.0995 56 62.1995 56.1 61.2995 56.2C60.7995 56.2 60.2995 56.3 59.8995 56.3C59.3995 56.3 58.9995 56.3 58.4995 56.2C57.5995 56.1 56.7995 56 55.9995 55.9C52.9995 55.2 51.0995 53.9 50.1995 53.1C50.0995 52.9 50.0995 52.8 50.0995 52.8V53C49.7995 52.7 49.5995 52.5 49.5995 52.5L47.4995 53C47.4995 53 48.2995 54.7 50.0995 56.6V57.4C50.1995 57.5 52.5995 59.4 55.8995 60.5Z" fill="#2C2E37"/>
<path d="M64.8999 50.1999C63.3999 50.1999 60.3999 48.5999 60.3999 48.5999C60.3999 48.5999 63.0999 51.0999 62.2999 52.0999C61.4999 53.0999 59.8999 53.6999 59.8999 53.6999V56.1999C59.8999 56.1999 62.2999 56.5999 67.6999 53.5999C73.0999 50.5999 73.0999 49.6999 73.0999 49.6999L71.2999 48.2999L72.8999 46.0999L59.9999 44.5999V45.4999L67.9999 47.3999C67.9999 47.2999 66.3999 50.1999 64.8999 50.1999Z" fill="#2C2E37"/>
<path d="M65.5995 42.2999L63.6995 41.5999L60.4995 43.7999L62.3995 44.6999L65.5995 42.2999Z" fill="#2C2E37"/>
<path d="M74.2998 33.9999L76.0998 36.4999L71.2998 43.9999C71.2998 43.9999 76.3998 37.8999 77.0998 38.0999C77.6998 38.2999 72.0998 45.6999 72.0998 45.6999L73.8998 46.1999L82.5998 36.8999L81.8998 29.8999L76.9998 30.5999L74.2998 33.9999Z" fill="#2C2E37"/>
<path d="M64.1997 8.2999C64.1997 8.2999 70.6997 10.9999 70.2997 14.1999C69.8997 17.3999 65.1997 15.6999 64.3997 10.8999L63.5997 18.2999L68.1997 22.2999V25.7999L76.7997 18.2999C76.7997 18.2999 78.1997 12.3999 76.2997 9.7999C74.3997 7.2999 69.6997 5.0999 63.4997 4.9999C63.4997 4.9999 69.3997 6.7999 70.3997 8.8999L60.6997 4.8999L64.1997 8.2999Z" fill="#2C2E37"/>
<path d="M59 33.2998L60 37.9998V32.7998L59 33.2998Z" fill="#8BD9DF"/>
<path d="M30.7998 35.9999L37.3998 42.3999C37.3998 42.3999 34.3998 41.2999 33.5998 39.5999C33.5998 39.5999 35.1998 42.9999 38.2998 42.9999V41.9999L30.7998 35.3999V35.9999Z" fill="#8BD9DF"/>
<path d="M59.9997 78.6999V74.0999L58.1997 74.3999L59.9997 78.6999Z" fill="#8BD9DF"/>
<path d="M60 26.8999H56.5L54.5 29.0999V29.7999L58.3 31.4999H60H61.7L65.5 29.7999V29.0999L63.5 26.8999H60Z" fill="#8BD9DF"/>
<path d="M60 37.9998L61 33.2998L60 32.7998V37.9998Z" fill="#8BD9DF"/>
<path d="M89.1997 35.5L81.6997 42.1V43.1C84.8997 43.1 86.3997 39.7 86.3997 39.7C85.5997 41.4 82.5997 42.5 82.5997 42.5L89.1997 36.1V35.5Z" fill="#8BD9DF"/>
<path d="M59.9999 69V71V69H57.5999L54.8999 71.2L56.6999 73H59.9999H63.2999L65.0999 71.2L62.3999 69H59.9999Z" fill="#8BD9DF"/>
<path d="M60 78.6999L61.8 74.3999L60 74.0999V78.6999Z" fill="#8BD9DF"/>
<path d="M28.4998 52.4001C30.8998 51.8001 41.0998 50.5001 41.0998 50.5001L38.3998 48.1001L36.3998 48.6001L37.2998 49.4001C37.2998 49.4001 30.1998 49.5001 21.8998 55.4001L19.4998 55.2001L17.1998 55.9001L19.7998 56.7001C19.7998 56.7001 15.2998 61.1001 15.6998 66.3001C15.7998 67.8001 15.4998 68.4001 14.8998 68.4001C13.4998 68.4001 10.9998 64.5001 11.5998 60.9001C11.5998 60.9001 9.49977 64.5001 13.9998 70.5001L19.0998 69.2001C19.0998 69.2001 17.9998 64.5001 19.9998 61.0001C20.0998 60.8001 20.1998 60.6001 20.3998 60.4001C17.7998 67.8001 22.1998 78.3001 22.1998 78.3001L25.7998 80.1001C22.7998 73.5001 26.1998 64.5001 23.7998 65.4001C21.3998 66.4001 21.2998 70.9001 21.2998 70.9001C17.9998 57.2001 27.8998 53.8001 27.8998 53.8001C26.5998 54.1001 25.4998 54.6001 24.4998 55.1001C25.8998 53.7001 27.3998 52.7001 28.4998 52.4001Z" fill="#BFC1C1"/>
<path d="M80.4996 47.4001L80.6996 42.3001L78.0996 42.1001L77.2996 43.1001H79.7996L73.5996 49.6001L74.0996 50.4001L80.4996 47.4001Z" fill="#BFC1C1"/>
<path d="M77.2998 17.7L87.2998 11.8L87.0998 7.19995L85.9998 8.09995C85.9998 8.09995 85.9998 9.19995 84.2998 11.2C82.5998 13.2 77.8998 16.1 77.8998 16.1L77.2998 17.7Z" fill="#BFC1C1"/>
<path d="M63.1997 47.4C64.1997 47.5 65.2997 47.7 66.2997 48L64.7997 47.5999C65.6997 47.6999 66.2997 47.9 66.2997 47.9L59.9997 46.2L53.7997 47.7999C53.7997 47.7999 54.2997 47.7 55.2997 47.5L53.6997 48C54.6997 47.7 55.6997 47.5 56.7997 47.4C57.6997 47.3 58.7997 47.2 59.9997 47.2C61.1997 47.2 62.2997 47.3 63.1997 47.4Z" fill="#BFC1C1"/>
<path d="M54.7996 43.4001L48.3996 44.4001L46.0996 41.6001L48.0996 45.3001L56.0996 44.6001L54.7996 43.4001Z" fill="#BFC1C1"/>
<path d="M17.1997 84.1002C17.2997 83.6002 15.3997 84.1002 15.3997 84.1002C9.6997 88.5002 11.4997 99.4002 11.4997 99.4002H12.5997C10.6997 87.6002 17.0997 84.6002 17.1997 84.1002Z" fill="#BFC1C1"/>
<path d="M18.1998 89.9001C18.1998 89.9001 14.9998 92.1001 16.3998 94.0001C17.7998 95.8001 23.0998 91.1001 22.2998 89.6001C21.4998 88.0001 18.1998 89.9001 18.1998 89.9001Z" fill="#BFC1C1"/>
<path d="M54.7998 9.40013C54.7998 9.40013 50.8998 11.4001 51.4998 13.2001C52.1998 14.9001 57.1998 9.00013 54.7998 9.40013Z" fill="#BFC1C1"/>
<path d="M58.5 4.69995H57.2C57.2 4.69995 51.5 7.09995 51.7 7.59995C52 8.09995 58.5 4.69995 58.5 4.69995Z" fill="#BFC1C1"/>
<path d="M40.2998 90.8C40.2998 90.8 41.7998 92.4 43.9998 91.1C46.1998 89.8 45.0998 87.3 45.0998 87.3L40.2998 90.8Z" fill="#BFC1C1"/>
<path d="M50.0996 81.3L48.5996 83.2C48.5996 83.2 50.7996 84.7 52.6996 83.9C54.4996 83 50.0996 81.3 50.0996 81.3Z" fill="#BFC1C1"/>
<path d="M83.9999 30.1L82.8999 36.8L85.8999 37.2L89.1999 34.3L90.2999 26.5L89.3999 26.7L85.1999 28.3L83.9999 30.1Z" fill="#BFC1C1"/>
<path d="M77.6996 12.5L87.1996 6.60005L86.9996 2.30005L85.1996 3.40005C85.1996 3.40005 85.3996 5.00005 84.6996 5.80005C83.9996 6.60005 77.5996 11.4 77.5996 11.4L77.6996 12.5Z" fill="#BFC1C1"/>
<path d="M42.6998 43.1001L41.8998 42.1001L39.2998 42.3001L39.4998 47.4001L45.8998 50.4001L46.3998 49.6001L40.1998 43.1001H42.6998Z" fill="#BFC1C1"/>
<path d="M30.7997 34.3L34.0997 37.2L37.0997 36.8L35.9997 30.1L34.7997 28.3L30.5997 26.7L29.6997 26.5L30.7997 34.3Z" fill="#BFC1C1"/>
<path d="M56.7 10.5V16.5L52 21.8V26.5L60 23.8L68 26.5V21.8L63.3 16.5V10.5C63.3 10.5 60.9 9 60.2 9.1C60.1 9.1 60 9.2 60 9.3C60 9.2 59.9 9.1 59.8 9.1C59 9 56.7 10.5 56.7 10.5ZM60 21.8H57.1C57.1 21.8 53.9 24.2 53.8 24.2C53.7 24.2 58.1 20.8 58.1 20.8C58.1 20.8 56.9 21.4 56.3 21.4C56.2 21.4 56.2 21.4 56.1 21.3C55.8 21 59.6 17.7 59.6 17.7L58.3 18.6V12.3L59.5 11.3L60 16.1L60.5 11.3L61.7 12.3V18.6L60.4 17.7C60.4 17.7 64.2 21 63.9 21.3C63.9 21.3 63.8 21.4 63.7 21.4C63.2 21.4 61.9 20.8 61.9 20.8C61.9 20.8 66.3 24.2 66.2 24.2C66.1 24.2 62.9 21.8 62.9 21.8H60Z" fill="#BFC1C1"/>
<path d="M42.2999 12.5L42.4999 11.4C42.4999 11.4 36.0999 6.60005 35.3999 5.80005C34.6999 5.00005 34.8999 3.40005 34.8999 3.40005L33.0999 2.30005L32.8999 6.60005L42.2999 12.5Z" fill="#BFC1C1"/>
<path d="M42.6996 17.7L42.1996 16.1C42.1996 16.1 37.4996 13.3 35.7996 11.2C33.9996 9.19995 33.9996 8.09995 33.9996 8.09995L32.7996 7.19995L32.5996 11.8L42.6996 17.7Z" fill="#BFC1C1"/>
<path d="M71.5999 44.4001L65.1999 43.4001L63.8999 44.6001L71.8999 45.3001L73.8999 41.6001L71.5999 44.4001Z" fill="#BFC1C1"/>
<path d="M97.7999 78.2C97.7999 78.2 102.2 67.6 99.5999 60.3C99.6999 60.5 99.7999 60.7 99.9999 60.9C102 64.4 100.9 69.1 100.9 69.1L106 70.4C110.5 64.4 108.4 60.8 108.4 60.8C109 64.4 106.5 68.3 105.1 68.3C104.6 68.3 104.2 67.7 104.3 66.2C104.7 61 100.2 56.6 100.2 56.6L102.8 55.8L100.5 55.1L98.0999 55.3C89.6999 49.5 82.6999 49.3 82.6999 49.3L83.5999 48.5L81.5999 48L78.8999 50.4C78.8999 50.4 89.0999 51.7 91.4999 52.3C92.5999 52.6 93.9999 53.7 95.4999 55.1C94.4999 54.5 93.3999 54.1 92.0999 53.8C92.0999 53.8 102 57.2 98.6999 70.9C98.6999 70.9 98.5999 66.3 96.1999 65.4C93.7999 64.4 97.0999 73.5 94.1999 80.1L97.7999 78.2Z" fill="#BFC1C1"/>
<path d="M104.5 84.1002C104.5 84.1002 102.6 83.6002 102.7 84.1002C102.8 84.6002 109.2 87.7002 107.3 99.4002H108.4C108.4 99.4002 110.2 88.5002 104.5 84.1002Z" fill="#BFC1C1"/>
<path d="M101.8 89.9001C101.8 89.9001 98.4999 88.0001 97.6999 89.5001C96.8999 91.0001 102.2 95.8001 103.6 93.9001C105.1 92.1001 101.8 89.9001 101.8 89.9001Z" fill="#BFC1C1"/>
<path d="M65.1996 9.40013C62.7996 9.00013 67.7996 14.9001 68.4996 13.2001C69.0996 11.4001 65.1996 9.40013 65.1996 9.40013Z" fill="#BFC1C1"/>
<path d="M68.3 7.59995C68.5 7.09995 62.8 4.69995 62.8 4.69995H61.5C61.5 4.69995 68 8.09995 68.3 7.59995Z" fill="#BFC1C1"/>
<path d="M76 91.1C78.2 92.4 79.7 90.8 79.7 90.8L74.9 87.3C74.9 87.2 73.8 89.7 76 91.1Z" fill="#BFC1C1"/>
<path d="M67.3999 83.8C69.2999 84.7 71.4999 83.1 71.4999 83.1L69.9999 81.2C69.8999 81.3 65.4999 83 67.3999 83.8Z" fill="#BFC1C1"/>
<path d="M112.6 66.5C112.9 56.1 102.4 54.6 100.3 54.4C96.0998 49.4 86.5998 48 81.9998 47.6L89.5998 43.7L91.5998 23.1L84.9998 26.2C84.9998 24.2 85.2998 19.8 88.6998 16.7L88.8998 16.5L88.2998 0L76.4998 8.6C75.9998 8 75.1998 7.2 73.7998 6.4C73.6998 6.3 73.4998 6.2 73.3998 6.2C72.8998 5.9 72.3998 5.7 71.7998 5.4C71.5998 5.3 71.3998 5.3 71.2998 5.2H71.1998C70.9998 5.1 70.7998 5 70.5998 4.9C69.8998 4.7 69.1998 4.5 68.3998 4.3H68.2998C68.0998 4.2 67.7998 4.2 67.5998 4.2H67.4998C67.1998 4 66.9998 4 66.6998 4H66.5998C65.9998 3.9 65.3998 3.8 64.6998 3.7H64.5998C64.2998 3.7 63.9998 3.6 63.7998 3.6C63.6998 3.6 63.5998 3.6 63.5998 3.6C63.2998 3.6 63.0998 3.6 62.7998 3.5C62.6998 3.5 62.5998 3.5 62.4998 3.5C62.1998 3.5 61.9998 3.5 61.6998 3.5C61.5998 3.5 61.4998 3.5 61.3998 3.5C60.9998 3.5 60.6998 3.5 60.2998 3.5C60.1998 3.5 60.0998 3.5 59.9998 3.5C59.8998 3.5 59.7998 3.5 59.6998 3.5C59.2998 3.5 58.9998 3.5 58.5998 3.5C58.4998 3.5 58.3998 3.5 58.2998 3.5C58.0998 3.5 57.7998 3.5 57.5998 3.5C57.4998 3.5 57.2998 3.5 57.1998 3.5C56.9998 3.5 56.7998 3.5 56.4998 3.5C56.3998 3.5 56.2998 3.5 56.0998 3.5C55.8998 3.5 55.5998 3.5 55.3998 3.6C55.2998 3.6 55.1998 3.6 55.0998 3.6C54.7998 3.6 54.4998 3.7 54.1998 3.7H54.0998C53.7998 3.7 53.5998 3.8 53.3998 3.8C53.2998 3.8 53.1998 3.8 53.0998 3.8C52.9998 4 52.7998 4 52.5998 4.1C52.4998 4.1 52.3998 4.1 52.2998 4.2C52.0998 4.2 51.9998 4.3 51.7998 4.3C51.6998 4.3 51.5998 4.3 51.4998 4.4C51.2998 4.4 51.0998 4.5 50.9998 4.5C50.8998 4.5 50.8998 4.5 50.7998 4.5C50.5998 4.6 50.2998 4.6 50.0998 4.7H49.9998C49.7998 4.8 49.5998 4.8 49.4998 4.9C49.3998 4.9 49.3998 4.9 49.2998 5C49.1998 5 48.9998 5.1 48.8998 5.1C48.7998 5.1 48.7998 5.2 48.6998 5.2C48.5998 5.3 48.3998 5.3 48.2998 5.4C48.1998 5.4 48.1998 5.4 48.0998 5.5C47.9998 5.6 47.7998 5.6 47.6998 5.7H47.5998C47.3998 5.8 47.2998 5.9 47.0998 5.9C47.0998 5.9 46.9998 5.9 46.9998 6C46.8998 6.1 46.7998 6.1 46.5998 6.2L46.4998 6.3C46.3998 6.4 46.2998 6.4 46.1998 6.5L46.0998 6.6C45.9998 6.7 45.8998 6.7 45.7998 6.8C45.7998 6.8 45.6998 6.8 45.6998 6.9C45.5998 7 45.4998 7.1 45.3998 7.1C45.2998 7 45.0998 7.1 44.9998 7.2C44.9998 7.2 44.9998 7.2 44.8998 7.3C44.7998 7.4 44.6998 7.4 44.6998 7.5C44.6998 7.5 44.5998 7.5 44.5998 7.6C44.4998 7.7 44.4998 7.7 44.3998 7.8C44.3998 7.8 44.2998 7.8 44.2998 7.9C44.1998 8 44.1998 8 44.0998 8.1C44.0998 8.1 44.0998 8.1 43.9998 8.2C43.8998 8.3 43.6998 8.5 43.5998 8.6C43.5998 8.6 43.5998 8.6 43.4998 8.7L43.3998 8.8C43.3998 8.8 43.3998 8.8 43.2998 8.9C43.2998 8.9 43.2998 8.9 43.2998 9L31.6998 0L31.0998 16.4L31.2998 16.6C34.6998 19.7 34.9998 24.1 34.9998 26.1L28.3998 23L30.3998 43.6L37.9998 47.5C33.3998 47.9 23.8998 49.3 19.5998 54.3C17.4998 54.6 6.9998 56.1 7.3998 66.5C7.6998 76.1 12.9998 79 14.7998 79.7L14.5998 83.3C13.5998 84.6 7.9998 92.8 10.8998 99.9L11.0998 100.4H33.5998L36.8998 92.5L37.6998 94.5L46.5998 100.4H73.4998L82.3998 94.5L83.1998 92.5L86.4998 100.4H109L109.2 99.9C112.1 92.8 106.4 84.6 105.5 83.3L105.3 79.7C107 79 112.3 76.1 112.6 66.5ZM100.1 55.8C100.8 55.8 103.2 56.1 105.7 57.3C107.3 58.1 108.6 59.2 109.5 60.5C110.5 65.2 108.1 68.9 106.9 70.5L102.2 69.4C102.2 69.4 103.2 67.5 102.2 63C101.4 59.4 99.4998 57.2 98.7998 56.5L100.1 55.8ZM96.8998 77.7C96.8998 77.7 94.7998 77.8 92.4998 77.1C95.3998 62.5 89.3998 57.1 89.3998 57.1C93.2998 64.8 92.0998 73.1 91.1998 76.7C90.0998 76.2 88.9998 75.5 88.1998 74.4C88.1998 74.4 90.1998 60.9 82.9998 52.9C82.9998 52.9 98.1998 54.9 98.6998 66.9C98.6998 66.9 99.7998 58.8 92.0998 53.7C93.5998 54.5 95.0998 55.4 96.3998 56.7C103.2 63.2 98.5998 74.2 96.8998 77.7ZM36.8998 83.8C39.8998 83.5 42.3998 82.2 44.2998 80.1C44.9998 79.3 45.4998 78.5 45.9998 77.6L47.9998 79.5C46.7998 81.1 42.6998 86.2 40.2998 86.8C37.4998 87.7 36.8998 83.9 36.8998 83.8ZM31.7998 74.4C30.9998 75.5 29.8998 76.2 28.7998 76.7C27.9998 73.2 26.6998 64.8 30.5998 57.1C30.5998 57.1 24.4998 62.5 27.4998 77.1C25.1998 77.8 23.0998 77.7 23.0998 77.7C21.3998 74.1 16.8998 63.1 23.5998 56.8C24.8998 55.6 26.3998 54.6 27.8998 53.8C20.0998 58.9 21.2998 67 21.2998 67C21.7998 55 36.9998 53 36.9998 53C29.7998 61 31.7998 74.4 31.7998 74.4ZM79.1998 47.4L74.1998 50L72.5998 48.4L78.0998 42.8H80.4998L80.0998 47L79.1998 47.4ZM59.9998 65V67V65C59.9998 65 58.1998 65.1 52.5998 64.2C46.9998 63.4 42.5998 51.7 47.3998 57.3C52.1998 63 59.9998 62.3 59.9998 62.3V61.7V62.3C59.9998 62.3 67.7998 63 72.5998 57.4C77.3998 51.8 72.8998 63.5 67.3998 64.3C61.7998 65 59.9998 65 59.9998 65ZM68.9998 54.6C68.9998 54.6 66.8998 59.2 59.9998 59.6C53.1998 59.2 50.9998 54.6 50.9998 54.6C55.9998 58.1 59.9998 57 59.9998 57C59.9998 57 63.9998 58.2 68.9998 54.6ZM59.9998 60.3V60.2V60.3ZM45.7998 50L40.9998 47.5L39.8998 47L39.4998 42.8H41.8998L47.3998 48.4L45.7998 50ZM62.4998 68.4L67.3998 71.2V74.1L59.9998 80.5L52.5998 74.1V71.2L57.4998 68.4H62.4998V68.4ZM79.4998 41.4L82.9998 37.8L84.7998 37.9L80.9998 41.4H79.4998ZM75.6998 36L70.6998 42.3L64.9998 41.1L73.2998 33.9L75.6998 36ZM71.2998 43.9L77.7998 35.8L75.4998 33.8L77.6998 31.3C77.6998 31.3 80.3998 30.7 80.3998 33.5C80.3998 36.3 73.2998 44.6 73.2998 44.6L82.0998 35.6L81.9998 36.7L73.6998 45.2L61.6998 44L63.5998 42.4L71.2998 43.9ZM72.2998 46.6L70.4998 48.5L71.8998 49.9L64.9998 54.4C64.3998 54.8 63.6998 55.1 62.8998 55.4C62.1998 55.6 61.4998 55.7 60.7998 55.7H59.1998C58.4998 55.7 57.7998 55.6 57.0998 55.4C56.3998 55.2 55.6998 54.9 54.9998 54.4L48.0998 49.9L49.4998 48.5L47.6998 46.6L59.7998 45.3L60.0998 45.5L60.3998 45.3L72.2998 46.6ZM46.3998 45.3L38.0998 36.8L37.9998 35.7L46.7998 44.7C46.7998 44.7 39.7998 36.3 39.6998 33.6C39.6998 30.8 42.3998 31.4 42.3998 31.4L44.5998 33.9L42.2998 35.9L48.7998 44L56.3998 42.4L58.2998 44L46.3998 45.3ZM49.3998 42.3L44.3998 36L46.7998 33.9L55.0998 41.1L49.3998 42.3ZM36.9998 37.8L40.4998 41.4H38.9998L35.1998 37.8H36.9998ZM48.1998 64.6C50.8998 66.5 53.5998 67.5 55.3998 68L51.0998 70.4V74.7L59.1998 81.8V87.3L47.0998 75.1C48.3998 71.1 48.3998 66.9 48.1998 64.6ZM55.1998 86.8C53.5998 87.2 50.0998 87.7 47.9998 84.8C48.8998 83.7 49.5998 82.6 50.0998 81.8L55.1998 86.8ZM69.8998 81.8C70.3998 82.7 71.1998 83.7 71.9998 84.8C69.8998 87.7 66.3998 87.2 64.7998 86.8L69.8998 81.8ZM60.7998 87.2V81.7L68.8998 74.6V70.3L64.5998 68C66.2998 67.5 69.0998 66.5 71.7998 64.6C71.6998 66.9 71.5998 71.1 72.8998 75.1L60.7998 87.2ZM98.6998 54.8L97.0998 55.5C91.9998 50.9 85.0998 49.9 80.0998 49.8L81.0998 49C85.1998 49.3 94.3998 50.5 98.6998 54.8ZM88.0998 42.8L81.6998 46.1L81.9998 42.4L88.6998 36L88.0998 42.8ZM89.7998 25.5L88.9998 33.8L86.1998 36.4L83.4998 36.3L83.9998 30L84.8998 27.7L89.7998 25.5ZM87.0998 11.5L77.6998 17.2C77.8998 15.8 77.9998 14.5 77.9998 13.5L86.9998 7.7L87.0998 11.5ZM86.7998 2.8L86.8998 5.9L77.7998 11.8C77.5998 10.9 77.3998 10.3 77.1998 9.8L86.7998 2.8ZM60.7998 4.9C60.8998 4.9 60.9998 4.9 60.9998 4.9C61.1998 4.9 61.3998 4.9 61.5998 4.9C61.7998 4.9 61.9998 4.9 62.1998 4.9C62.3998 4.9 62.5998 4.9 62.7998 4.9C62.9998 4.9 63.0998 4.9 63.2998 4.9C63.4998 4.9 63.6998 4.9 63.7998 4.9C63.9998 4.9 64.0998 4.9 64.2998 4.9C64.4998 4.9 64.6998 4.9 64.7998 5C64.8998 5 65.0998 5 65.1998 5C65.3998 5 65.5998 5 65.7998 5.1C65.8998 5.1 65.9998 5.1 66.0998 5.1C66.2998 5.1 66.4998 5.2 66.6998 5.2H66.7998C73.8998 6.5 75.6998 9.7 75.6998 9.8L75.9998 10.5C76.3998 11.5 76.9998 13.9 75.9998 18.1L75.2998 18.7C75.6998 17.1 75.9998 14.4 75.4998 11.6C74.6998 7.3 67.2998 6.1 67.2998 6.1C72.0998 7.1 71.3998 10.5 71.3998 10.5L60.7998 4.9V8L64.4998 10.9C64.4998 10.9 62.8998 9 62.8998 8.2C62.8998 7.4 74.6998 11.5 73.3998 15.3C72.0998 19.1 65.3998 17.7 65.3998 17.7L69.5998 21.7V24.4L68.9998 25V22L64.5998 17.9V10.9L60.7998 8V4.9ZM46.5998 15.3C45.2998 11.5 57.1998 7.3 57.0998 8.2C57.0998 9 55.4998 10.9 55.4998 10.9V17.9L51.0998 22V24.9L50.4998 24.3V21.6L54.6998 17.6C54.6998 17.7 47.8998 19.2 46.5998 15.3ZM52.5998 28.4L55.8998 26.1H59.8998V23.4V26.1H63.8998L67.1998 28.4V31L59.9998 39.1L52.5998 31V28.4ZM59.9998 9.3L62.8998 11.6V18.5L67.2998 22.6V25.2L62.9998 22H56.9998L52.5998 25.2V22.6L56.9998 18.5V11.6L59.9998 9.3ZM44.0998 10.6L44.3998 10C44.3998 10 45.0998 8.7 47.3998 7.4C49.0998 6.4 51.9998 5.4 56.4998 5C56.5998 5 56.5998 5 56.6998 5C56.9998 5 57.1998 5 57.4998 4.9C57.5998 4.9 57.6998 4.9 57.8998 4.9C58.0998 4.9 58.3998 4.9 58.5998 4.9C58.7998 4.9 58.8998 4.9 59.0998 4.9C59.1998 4.9 59.2998 4.9 59.2998 4.9L48.5998 10.7C48.5998 10.7 47.7998 7.3 52.6998 6.3C52.6998 6.3 45.2998 7.5 44.4998 11.8C43.9998 14.5 44.3998 17.3 44.6998 18.9L43.9998 18.3C42.9998 13.9 43.6998 11.5 44.0998 10.6ZM33.1998 2.8L42.7998 9.8C42.5998 10.2 42.3998 10.9 42.1998 11.8L33.0998 5.9L33.1998 2.8ZM32.9998 7.6L41.9998 13.4C41.9998 14.4 41.9998 15.6 42.2998 17.1L32.8998 11.4L32.9998 7.6ZM32.6998 15.8L32.7998 13.1L42.7998 19.1L51.0998 26.9V29.6L39.4998 22.4L51.2998 31.6L59.9998 41.2L68.6998 31.6L80.4998 22.4L68.8998 29.6V27L77.1998 19.2L87.1998 13.2L87.2998 15.9C82.8998 20.1 83.2998 26.1 83.4998 27.2L82.6998 29.3H76.3998L59.9998 43.5L43.5998 29.2H37.2998L36.4998 27.1C36.6998 26.1 37.0998 20 32.6998 15.8ZM30.1998 25.5L35.0998 27.8L35.9998 30.1L36.4998 36.4L33.7998 36.5L30.9998 33.8L30.1998 25.5ZM31.8998 42.8L31.1998 36L37.8998 42.4L38.1998 46.1L31.8998 42.8ZM38.7998 49L39.7998 49.8C34.7998 49.9 27.8998 50.9 22.7998 55.5L21.1998 54.8C25.5998 50.5 34.7998 49.3 38.7998 49ZM10.4998 60.4C13.2998 56.4 18.7998 55.8 19.8998 55.7L21.1998 56.3C20.4998 57 18.5998 59.2 17.7998 62.8C16.7998 67.3 17.7998 69.2 17.7998 69.2L13.0998 70.3C11.8998 68.8 9.4998 65.1 10.4998 60.4ZM8.8998 66.5C8.8998 66 8.8998 65.5 8.8998 65.1C9.6998 69.4 12.5998 72.2 12.7998 72.3L13.0998 72.6L19.1998 71.4C19.9998 74.8 21.2998 77.6 21.9998 78.9C19.3998 79.6 17.2998 79.1 16.4998 78.9V78.8L15.8998 78.6C15.4998 78.5 9.1998 76.7 8.8998 66.5ZM12.0998 98.9C9.7998 92.2 15.8998 84 15.9998 84L16.0998 83.8L16.1998 81.4C17.7998 81.3 20.9998 81.2 21.1998 81.7C21.3998 82.4 17.2998 86 17.2998 86L26.2998 81.8C26.2998 81.8 30.5998 87.1 31.1998 90.1C31.6998 92.6 26.7998 97.3 24.9998 98.9H21.2998C23.2998 97.5 28.3998 93.7 28.8998 92C29.4998 89.9 25.5998 84.2 25.5998 84.2L17.4998 87.5C17.4998 87.5 24.2998 86.5 24.7998 89.9C25.3998 93.4 12.0998 98.9 12.0998 98.9ZM32.4998 98.9H30.1998L35.6998 86.4L36.0998 90.3L32.4998 98.9ZM36.7998 82.4L36.1998 77.1V77C36.1998 77 34.8998 72 35.5998 66.4C36.1998 61.5 37.9998 57.7 40.8998 54.9C42.0998 58.6 44.2998 61.3 46.5998 63.3C46.7998 64.8 47.5998 74.2 43.0998 79.2C41.4998 81 39.3998 82.1 36.7998 82.4ZM37.5998 90V89.6C42.5998 90.1 48.7998 80.4 48.7998 80.4L49.0998 80.7C48.4998 81.6 47.6998 82.8 46.6998 84.1C44.1998 87.3 41.7998 89.3 39.8998 89.9C38.9998 90.2 38.2998 90.2 37.5998 90ZM59.9998 98.9H46.9998L38.8998 93.5L38.0998 91.5C38.2998 91.5 38.4998 91.5 38.5998 91.5C39.0998 91.5 39.6998 91.4 40.1998 91.3C42.6998 90.6 45.0998 88.3 46.9998 86C47.5998 87 48.7998 89.5 47.1998 91.8C45.1998 94.9 38.7998 93.5 38.7998 93.5L46.8998 98.9C46.8998 98.9 53.8998 98.1 54.9998 90.1L58.1998 92.5L59.9998 98.9L61.5998 92.5L64.7998 90.1C65.9998 98.1 72.8998 98.9 72.8998 98.9H59.9998V98.9ZM81.0998 93.6C81.0998 93.6 74.6998 95 72.6998 91.9C71.1998 89.5 72.2998 87.1 72.8998 86.1C74.7998 88.4 77.1998 90.7 79.6998 91.4C80.1998 91.6 80.7998 91.6 81.2998 91.6C81.4998 91.6 81.6998 91.6 81.7998 91.6L81.0998 93.6ZM80.1998 90C76.4998 88.9 72.5998 83.4 70.9998 80.7L71.2998 80.4C71.2998 80.4 77.4998 90.1 82.4998 89.6V90C81.6998 90.2 80.9998 90.2 80.1998 90ZM79.6998 86.9C77.2998 86.3 73.2998 81.2 71.9998 79.6L73.9998 77.7C74.4998 78.6 74.9998 79.4 75.6998 80.2C77.5998 82.3 79.9998 83.5 83.0998 83.9C83.0998 83.8 82.4998 87.7 79.6998 86.9ZM83.1998 82.4C80.5998 82.1 78.4998 81 76.8998 79.2C72.3998 74.2 73.2998 64.8 73.3998 63.3C75.6998 61.3 77.8998 58.6 79.0998 54.9C82.0998 57.7 83.7998 61.5 84.3998 66.4C85.0998 72 83.7998 76.9 83.7998 77L83.1998 82.4ZM87.4998 98.9L83.8998 90.3L84.2998 86.4L89.7998 98.9H87.4998ZM107.9 98.9C107.9 98.9 94.6998 93.3 95.0998 89.8C95.5998 86.3 102.4 87.4 102.4 87.4L94.2998 84.1C94.2998 84.1 90.3998 89.8 90.9998 91.9C91.4998 93.6 96.5998 97.4 98.5998 98.8H94.8998C93.0998 97.2 88.1998 92.5 88.6998 90C89.2998 87 93.5998 81.7 93.5998 81.7L102.6 85.9C102.6 85.9 98.4998 82.3 98.6998 81.6C98.7998 81.1 102.1 81.2 103.7 81.3L103.8 83.7L104 84C104.1 84 110.2 92.2 107.9 98.9ZM104.2 78.5L103.6 78.6V78.7C102.7 79 100.7 79.4 98.0998 78.7C98.7998 77.4 100.1 74.6 100.9 71.2L107 72.4L107.3 72.1C107.5 71.9 110.3 69.2 111.2 64.9C111.2 65.4 111.3 65.9 111.2 66.4C110.8 76.7 104.5 78.5 104.2 78.5Z" fill="black"/>
<path d="M35.8996 36L35.5996 30.2999L34.7996 28.2999V30.4L30.5996 26.7L31.1996 33.5999L33.8996 36H35.8996Z" fill="black"/>
<path d="M36.8998 27.1L37.5998 28.6H43.4998L59.9998 43.1V41.6L51.0998 32C51.0998 32 56.3998 38.7 55.7998 38.5C55.1998 38.4 43.8998 28 43.8998 28L39.0998 22.9C39.0998 22.9 40.9998 26.9 40.3998 27C39.7998 27.2 37.8998 17.2 33.2998 14V15.7C33.2998 15.7 38.0998 19 36.8998 27.1Z" fill="black"/>
<path d="M50.6999 29V27.1L42.3999 19.2L50.1999 27.4L50.6999 29Z" fill="black"/>
<path d="M33.2998 8.19995V11.3L41.2998 16.1C41.2998 16.1 33.7998 11.5 33.2998 8.19995Z" fill="black"/>
<path d="M41.6998 11.1L41.2998 10.8C41.4998 11 41.6998 11.1 41.6998 11.1Z" fill="black"/>
<path d="M33.4997 3.6001V5.6001L41.2997 10.8001C39.5997 9.7001 33.3997 5.4001 33.4997 3.6001Z" fill="black"/>
<path d="M53 24.5001L56.9 21.6001C56.9 21.6001 55.5 22.0001 55.3 21.8001C55 21.6001 58 18.8001 58 18.8001L57.9 12.1001L60 10.1001V9.6001L57.4 11.8001V18.7001L53 22.7001V24.5001Z" fill="black"/>
<path d="M40.0997 46.7999L45.6997 49.7C45.6997 49.7 40.9997 46.8 39.6997 43.2L40.0997 46.7999Z" fill="black"/>
<path d="M31.5 36.8L32.2 42.6L37.9 45.6C37.9 45.6 32.2 42.1 31.5 36.8Z" fill="black"/>
<path d="M84.3996 30.2999L84.0996 36H86.0996L88.7996 33.5999L89.3996 26.7L85.1996 30.4V28.2999L84.3996 30.2999Z" fill="black"/>
<path d="M82.5 28.7L83.2 27.2C82 19.1 86.8 15.8 86.8 15.8V14C82.2 17.2 80.3 27.2 79.7 27C79.1 26.8 81 22.9 81 22.9L76.1 28C76.1 28 64.8 38.4 64.2 38.6C63.6 38.7 68.9 32.1 68.9 32.1L60 41.6V43.1L76.5 28.7H82.5V28.7Z" fill="black"/>
<path d="M69.2998 29L69.7998 27.4L77.5998 19.2L69.2998 27.1V29Z" fill="black"/>
<path d="M86.6997 8.19995C86.1997 11.5 78.6997 16.1 78.6997 16.1L86.6997 11.3V8.19995Z" fill="black"/>
<path d="M86.4997 3.6001C86.5997 5.4001 80.2997 9.7001 78.6997 10.8001L86.4997 5.6001V3.6001Z" fill="black"/>
<path d="M78.2998 11.1C78.2998 11.1 78.3998 11 78.6998 10.8L78.2998 11.1Z" fill="black"/>
<path d="M62.1 18.8001C62.1 18.8001 65 21.6001 64.8 21.8001C64.5 22.0001 63.2 21.6001 63.2 21.6001L67.1 24.5001V22.7001L62.7 18.6001V11.7001L60 9.6001V10.0001L62.1 12.0001V18.8001Z" fill="black"/>
<path d="M59.9996 54.4999V55.0999V54.4999C59.9996 54.4999 51.6996 50.9999 51.5996 47.1999L59.4996 45.4999L48.5996 46.6999L50.1996 48.3999L48.9996 49.5999C48.9996 49.5999 54.6996 54.5999 59.9996 55.1999C65.1996 54.5999 70.9996 49.5999 70.9996 49.5999L69.8996 48.2999L71.4996 46.5999L60.5996 45.3999L68.4996 47.0999C68.2996 51.0999 59.9996 54.4999 59.9996 54.4999Z" fill="black"/>
<path d="M74.2998 49.6L79.8998 46.7L80.2998 43C79.0998 46.7 74.2998 49.6 74.2998 49.6Z" fill="black"/>
<path d="M88.4996 36.8C87.7996 42.1 82.0996 45.6 82.0996 45.6L87.7996 42.6L88.4996 36.8Z" fill="black"/>
<path d="M74.5996 63.5C77.8996 64.4 77.7996 61.5 79.3996 62.9C80.9996 64.4 82.3996 77.3 82.3996 77.3C85.5996 63.5 79.3996 56.7 79.3996 56.7C79.0996 60.6 74.5996 63.5 74.5996 63.5Z" fill="black"/>
<path d="M68.8996 75.5L61.0996 82V86.2L72.3996 75C72.3996 75 64.1996 82.5 63.3996 82.3C62.5996 82.2 68.8996 75.5 68.8996 75.5Z" fill="black"/>
<path d="M45.3998 63.5C45.3998 63.5 40.8998 60.6 40.5998 56.7C40.5998 56.7 34.2998 63.5 37.5998 77.3C37.5998 77.3 38.9998 64.3 40.5998 62.9C42.2998 61.5 42.1998 64.4 45.3998 63.5Z" fill="black"/>
<path d="M56.5996 82.4001C55.7996 82.6001 47.5996 75.1001 47.5996 75.1001L58.8996 86.3001V82.0001L51.0996 75.4001C51.0996 75.5001 57.3996 82.2001 56.5996 82.4001Z" fill="black"/>
<path d="M46.9997 34.8999L45.1997 36.1999L49.5997 41.5999L53.8997 40.8999L46.9997 34.8999Z" fill="#08B7D0"/>
<path d="M46.0996 36.5L47.1996 35.7L52.3996 40.4L49.7996 40.7999L46.0996 36.5Z" fill="#8BD9DF"/>
<path d="M72.9996 34.8999L74.7996 36.1999L70.3996 41.5999L66.0996 40.8999L72.9996 34.8999Z" fill="#08B7D0"/>
<path d="M73.8996 36.5L72.7996 35.7L67.5996 40.4L70.1996 40.7999L73.8996 36.5Z" fill="#8BD9DF"/>
<path d="M120 95V105.2L119.8 105.6L117.3 110.3L117 111L116.4 111.3L113.8 112.6V115.1V116.9V121.1V124.7V127.5L110.5 131L108.8 130.5C106.1 129.7 104.8 129.4 102.1 128.7L100.5 128.3V126.7V124.7L88.8 125.6C88 125.8 87.2 125.8 86.4 125.8C86.2 125.8 86 125.8 85.9 125.8H85.8L84.5 125.9L84.3 125.6H84.2C83.9 125.5 83.6 125.5 83.2 125.4V132.9H36.9V125.5C36.4 125.6 36 125.6 35.5 125.6C34.6 125.6 33.7 125.5 32.9 125.3L26.2 124.4L27.6 126.5L24.6 127.1C21.7 127.7 20.3 128 17.4 128.8L16.4 129L15.6 128.5L13.7 127.3V128.2V129.7L12.1 130.1C9.4 130.9 8.1 131.3 5.4 132.1L3.7 132.6L2.8 131.2L0.3 127.4L0 127.2V95H2.2H3.9C7 95 9 95 12.5 94.9H12.6C13.9 94.9 15.2 95.1 16.4 95.5L26.3 98.4C26.5 98.2 26.8 97.9 27.1 97.7C29.6 95.5 32.7 94.3 36.2 94.3C36.3 94.3 36.4 94.3 36.4 94.3C36.5 94.3 36.6 94.3 36.6 94.3H36.7C36.8 94.3 36.8 94.3 36.9 94.3C37 94.3 37.2 94.3 37.3 94.3C37.4 94.3 37.5 94.3 37.5 94.3C37.6 94.3 37.8 94.3 37.9 94.3C38 94.3 38.1 94.3 38.2 94.3C38.3 94.3 38.4 94.3 38.6 94.4C38.7 94.4 38.8 94.4 38.9 94.4C39 94.4 39.1 94.4 39.2 94.5C39.3 94.5 39.4 94.5 39.5 94.6C39.6 94.6 39.7 94.7 39.8 94.7C39.9 94.7 40 94.8 40.1 94.8C40.2 94.8 40.3 94.9 40.4 94.9C40.5 94.9 40.6 95 40.7 95C40.8 95 40.9 95.1 41 95.1C41.1 95.1 41.2 95.2 41.3 95.2L48.2 97.4V94.6H50.4C53.4 94.6 56.4 94.6 59.4 94.6H62C62.2 94.6 62.4 94.6 62.6 94.6H62.9C63 94.6 63.1 94.6 63.1 94.6H63.2C63.3 94.6 63.4 94.6 63.5 94.6H63.7C63.8 94.6 63.9 94.6 64 94.6H64.2C64.3 94.6 64.4 94.6 64.5 94.6H64.7C64.8 94.6 64.9 94.6 65 94.6H65.1C65.2 94.6 65.3 94.6 65.4 94.7H65.5C65.6 94.7 65.7 94.7 65.8 94.8H65.9C66 94.8 66.1 94.8 66.2 94.9H66.3C66.4 94.9 66.5 95 66.6 95H66.7C66.8 95 66.9 95.1 67 95.1H67.1C67.2 95.1 67.3 95.2 67.4 95.2H67.5C67.6 95.2 67.8 95.3 67.9 95.3C68.2 95.4 68.5 95.5 68.7 95.7C68.7 95.7 68.8 95.7 68.8 95.8C68.9 95.9 69 95.9 69.1 96C69.1 96 69.2 96 69.2 96.1C69.3 96.2 69.4 96.2 69.5 96.3L69.6 96.4C69.7 96.5 69.8 96.5 69.8 96.6L69.9 96.7C70 96.8 70 96.8 70.1 96.9L70.2 97C70.3 97.1 70.3 97.1 70.4 97.2L70.5 97.3C70.6 97.4 70.6 97.4 70.7 97.5L70.8 97.6C70.9 97.7 70.9 97.7 71 97.8L71.1 97.9C71.2 98 71.2 98 71.3 98.1L71.4 98.2L71.5 98.3L79.2 95.1C79.4 95 79.6 94.9 79.8 94.9L81 95H81.1C82.5 94.6 84 94.3 85.5 94.3C88.4 94.3 91.1 95.1 93.3 96.6C93.5 96.7 93.6 96.8 93.8 97C93.8 97 93.8 97 93.9 97C94 97 94 97.1 94.1 97.1L95.9 95.8V94.7H98.1C103.2 94.7 108.4 94.8 113.5 94.8C114.1 94.8 114.8 94.8 115.4 94.8C116.2 94.8 116.9 94.8 117.7 94.8L120 95Z" fill="black"/>
<path d="M117.8 97.1002C111.2 97.1002 104.7 97.0002 98.1002 97.0002C98.1002 99.6002 98.1002 100.8 98.1002 103.4C100.6 103.5 101.8 103.6 104.3 103.8C104.3 106.1 104.3 108.5 104.3 110.8C104.3 114.8 104.3 118.8 104.4 122.8C107.3 123.5 108.7 123.9 111.5 124.7C111.5 120.5 111.5 116.3 111.5 112.1C111.5 109.5 111.5 106.9 111.5 104.3C114 104.5 115.2 104.6 117.7 104.8V97.1002H117.8ZM18.1002 114.4C19.8002 113.1 21.0002 111.4 21.6002 109.3C21.9002 108.3 22.1002 107.2 22.2002 106.1C22.4002 101 17.9002 97.1002 12.5002 97.0002C8.4002 97.0002 6.3002 97.0002 2.2002 97.1002V126.6C5.0002 125.7 6.5002 125.2 9.3002 124.4C9.3002 121.6 9.3002 120.3 9.3002 117.5C10.1002 117.3 10.5002 117.3 11.2002 117.1C12.6002 119.5 13.3002 120.7 14.8002 122.9C17.9002 122.1 19.4002 121.8 22.4002 121.1C20.7002 118.6 19.8002 117.2 18.1002 114.4ZM9.4002 104.1C10.4002 104 11.0002 104 12.0002 103.9C14.0002 103.8 14.9002 104.8 14.9002 106.7C14.9002 108.6 13.9002 109.9 12.0002 110.1C11.0002 110.2 10.4002 110.3 9.4002 110.5C9.4002 108 9.4002 106.7 9.4002 104.1ZM68.8002 107.2C68.5002 107 68.1002 106.9 67.8002 106.7C69.8002 105.8 70.8002 104.2 70.7002 102.3C70.7002 98.2002 65.8002 96.7002 62.1002 96.9002C58.3002 96.9002 54.5002 96.9002 50.7002 96.9002C50.7002 100.3 50.7002 103.7 50.7002 107.1C50.7002 110.6 50.7002 114.1 50.7002 117.6C54.7002 117.4 58.7002 117.4 62.8002 117.4C66.7002 117.5 71.8002 116.5 71.9002 112C71.8002 109.9 70.7002 108.2 68.8002 107.2ZM57.8002 101.7C59.1002 101.7 59.8002 101.7 61.2002 101.7C62.8002 101.7 63.5002 102.2 63.5002 103.2C63.5002 104.2 62.8002 104.7 61.2002 104.7C59.9002 104.7 59.2002 104.7 57.8002 104.7C57.8002 103.5 57.8002 102.9 57.8002 101.7ZM62.1002 112.5C60.4002 112.5 59.5002 112.5 57.8002 112.5C57.8002 111.2 57.8002 110.6 57.8002 109.3C59.5002 109.3 60.4002 109.3 62.1002 109.3C63.7002 109.3 64.5002 109.9 64.5002 110.9C64.5002 112 63.7002 112.5 62.1002 112.5ZM85.4002 96.4002C79.1002 96.4002 73.4002 101.5 73.4002 107.4C73.5002 113.4 79.4002 118.6 85.5002 119.6C92.3002 120.8 97.2002 115.5 97.4002 109.7C97.4002 109.5 97.4002 109.3 97.4002 109.1C97.4002 102.6 92.9002 96.4002 85.4002 96.4002ZM85.5002 113.5C82.9002 113.2 80.8002 111.1 80.7002 107.8C80.7002 107.7 80.7002 107.7 80.7002 107.6C80.7002 104.2 82.8002 102.3 85.5002 102.4C88.2002 102.5 90.3002 104.8 90.3002 108.3C90.3002 108.4 90.3002 108.6 90.3002 108.7C90.1002 112.1 88.1002 113.8 85.5002 113.5ZM36.1002 96.4002C28.8002 96.5002 24.2002 102.7 24.0002 108.9V109C23.9002 115.2 29.2002 120.3 36.0002 119.4C42.3002 118.6 48.1002 113.4 48.1002 107.3V107.2C48.0002 101.3 42.4002 96.3002 36.1002 96.4002ZM40.8002 107.6C40.8002 110.9 38.6002 113.1 36.0002 113.4C33.3002 113.7 31.2002 111.8 31.2002 108.3C31.2002 104.8 33.4002 102.5 36.0002 102.4C38.7002 102.3 40.8002 104.2 40.8002 107.6Z" fill="white"/>
<path d="M53.5998 129.3L53.1998 127.7L53.0998 127.2L52.8998 126.2L52.5998 125.2H50.9998L50.2998 126.2L49.5998 127.2L49.2998 127.7L48.1998 129.3L47.2998 130.6H48.9998L49.6998 129.6H52.1998L52.3998 130.6H53.9998L53.5998 129.3ZM51.1998 127.3L51.4998 126.8L51.5998 127.3L51.6998 127.8L51.8998 128.6H50.3998L50.8998 127.8L51.1998 127.3ZM43.7998 127.3C44.0998 126.8 44.6998 126.5 45.3998 126.5C45.9998 126.5 46.3998 126.7 46.7998 127.1L47.7998 126.4L47.8998 126.3C47.3998 125.7 46.4998 125.3 45.3998 125.3C44.1998 125.3 43.1998 125.7 42.5998 126.4C42.2998 126.7 42.0998 127 41.9998 127.4C41.8998 127.5 41.8998 127.7 41.8998 127.9C41.7998 128.1 41.7998 128.4 41.7998 128.6C41.7998 128.9 41.8998 129.2 41.9998 129.5C42.3998 130.4 43.3998 131 44.6998 131C45.5998 131 46.3998 130.8 46.9998 130.4L47.1998 129.6L47.4998 128.2H46.0998L45.7998 129.6V129.7C45.5998 129.8 45.2998 129.8 44.9998 129.8C44.5998 129.8 44.2998 129.7 44.0998 129.6C43.6998 129.4 43.4998 129 43.4998 128.6C43.4998 128.4 43.4998 128.2 43.5998 128C43.6998 127.6 43.6998 127.4 43.7998 127.3ZM69.6998 127.3L69.5998 127.8H71.1998L71.2998 127.3H69.6998ZM73.8998 127.3C74.1998 126.8 74.7998 126.5 75.4998 126.5C76.0998 126.5 76.4998 126.7 76.8998 127.1L77.8998 126.4L77.9998 126.3C77.4998 125.7 76.5998 125.3 75.4998 125.3C74.2998 125.3 73.2998 125.7 72.6998 126.4C72.3998 126.7 72.1998 127 72.0998 127.4C71.9998 127.5 71.9998 127.7 71.9998 127.9C71.8998 128.1 71.8998 128.4 71.8998 128.6C71.8998 128.9 71.9998 129.2 72.0998 129.5C72.4998 130.4 73.4998 131 74.7998 131C75.6998 131 76.4998 130.8 77.0998 130.4L77.2998 129.6L77.5998 128.2H76.1998L75.8998 129.6V129.7C75.6998 129.8 75.3998 129.8 75.0998 129.8C74.6998 129.8 74.3998 129.7 74.1998 129.6C73.7998 129.4 73.5998 129 73.5998 128.6C73.5998 128.4 73.5998 128.2 73.6998 128C73.6998 127.6 73.7998 127.4 73.8998 127.3ZM53.0998 127.3H51.5998L51.6998 127.8H53.1998L53.0998 127.3ZM53.0998 127.3H51.5998L51.6998 127.8H53.1998L53.0998 127.3ZM60.8998 125.3L60.0998 126.3L59.2998 127.3L58.8998 127.8L58.2998 128.5L57.9998 127.8L57.7998 127.3L57.3998 126.3L56.9998 125.3H55.6998L55.4998 126.3L55.2998 127.3L55.1998 127.8L54.8998 129.4L54.5998 130.7H56.0998L56.3998 129.4L56.6998 127.9L57.3998 129.4L57.7998 130.2H58.4998L59.1998 129.4L60.3998 127.9L60.0998 129.4L59.7998 130.7H61.2998L61.5998 129.4L61.8998 127.8L61.9998 127.3L62.1998 126.3L62.3998 125.3H60.8998V125.3ZM53.0998 127.3H51.5998L51.6998 127.8H53.1998L53.0998 127.3ZM53.0998 127.3H51.5998L51.6998 127.8H53.1998L53.0998 127.3ZM62.9998 127.3L62.8998 127.8H64.4998L64.5998 127.3H62.9998ZM70.0998 125.3L69.8998 126.3L69.6998 127.3L69.5998 127.8L69.4998 128.3L69.1998 127.8L68.8998 127.3L68.2998 126.3L67.6998 125.3H66.3998L66.1998 126.3L65.9998 127.3L65.8998 127.8L65.5998 129.4L65.2998 130.7H66.8998L67.1998 129.4L67.4998 127.8L68.4998 129.4L69.3998 130.7H70.6998L70.9998 129.4L71.2998 127.8L71.3998 127.3L71.5998 126.3L71.7998 125.3H70.0998V125.3ZM62.9998 127.3L62.8998 127.8H64.4998L64.5998 127.3H62.9998ZM63.3998 125.3L63.1998 126.3L62.9998 127.3L62.8998 127.8L62.5998 129.4L62.2998 130.7H63.8998L64.1998 129.4L64.4998 127.8L64.5998 127.3L64.7998 126.3L64.9998 125.3H63.3998V125.3Z" fill="url(#paint0_linear_97_1296)"/>
<g opacity="0.5">
<path d="M47.8997 126.3L46.8997 127C46.4997 126.6 46.0997 126.4 45.4997 126.4C44.7997 126.4 44.1997 126.7 43.8997 127.2H42.1997C42.2997 126.8 42.4997 126.5 42.7997 126.2H47.8997V126.3Z" fill="#8BD9DF"/>
<path d="M53.1001 127.3H51.6001L51.5001 126.8L51.2001 127.3H49.6001L50.3001 126.3H52.8001L53.1001 127.3Z" fill="#8BD9DF"/>
<path d="M57.7997 127.3H55.1997L55.3997 126.3H57.2997L57.7997 127.3Z" fill="#8BD9DF"/>
<path d="M59.9997 126.3H62.0997L61.8997 127.3H59.1997L59.9997 126.3Z" fill="#8BD9DF"/>
<path d="M64.8 126.3L64.6 127.3H63L63.2 126.3H64.8Z" fill="#8BD9DF"/>
<path d="M68.7998 127.3H65.7998L65.9998 126.3H68.1998L68.7998 127.3Z" fill="#8BD9DF"/>
<path d="M71.4997 126.3L71.2997 127.3H69.6997L69.8997 126.3H71.4997Z" fill="#8BD9DF"/>
<path d="M77.9998 126.3L76.9998 127C76.5998 126.6 76.1998 126.4 75.5998 126.4C74.8998 126.4 74.2998 126.7 73.9998 127.2H72.2998C72.3998 126.8 72.5998 126.5 72.8998 126.2H77.9998V126.3Z" fill="#8BD9DF"/>
<path d="M44.0999 129.3H42.0999C41.9999 129 41.8999 128.7 41.8999 128.4C41.8999 128.2 41.8999 127.9 41.9999 127.7H43.6999C43.5999 127.9 43.5999 128.1 43.5999 128.3C43.4999 128.8 43.6999 129.1 44.0999 129.3Z" fill="#8BD9DF"/>
<path d="M46.0998 127.9H47.4998L47.1998 129.3H45.7998L46.0998 127.9Z" fill="#8BD9DF"/>
<path d="M53.5997 129.3H48.1997L49.2997 127.7H50.8997L50.3997 128.5H51.8997L51.6997 127.7H53.1997L53.5997 129.3Z" fill="#8BD9DF"/>
<path d="M61.7997 127.7L61.3997 129.3H59.8997L60.1997 127.9L58.9997 129.3H57.1997L56.4997 127.9L56.1997 129.3H54.6997L55.0997 127.7H57.9997L58.2997 128.4L58.8997 127.7H61.7997Z" fill="#8BD9DF"/>
<path d="M64.5001 127.7L64.2001 129.3H62.6001L62.9001 127.7H64.5001Z" fill="#8BD9DF"/>
<path d="M71.1999 127.7L70.7999 129.3H68.2999L67.2999 127.7L66.9999 129.3H65.3999L65.6999 127.7H69.0999L69.4999 128.2L69.5999 127.7H71.1999Z" fill="#8BD9DF"/>
<path d="M74.2 129.3H72.2C72.1 129 72 128.7 72 128.4C72 128.2 72 127.9 72.1 127.7H73.8C73.7 127.9 73.7 128.1 73.7 128.3C73.6 128.8 73.8 129.1 74.2 129.3Z" fill="#8BD9DF"/>
<path d="M77.5998 127.9L77.2998 129.3H75.7998L76.1998 127.9H77.5998Z" fill="#8BD9DF"/>
</g>
<path d="M21.6002 109.3C13.4002 110.3 6.8002 111.6 2.2002 112.5V126.5C5.0002 125.6 6.5002 125.1 9.3002 124.3C9.3002 121.5 9.3002 120.2 9.3002 117.4C10.1002 117.2 10.5002 117.2 11.2002 117C12.6002 119.4 13.3002 120.6 14.8002 122.8C17.9002 122 19.4002 121.7 22.4002 121C20.6002 118.4 19.7002 117 18.0002 114.2C19.8002 113.1 20.9002 111.3 21.6002 109.3Z" fill="url(#paint1_linear_97_1296)"/>
<path d="M40.8003 107.6C40.8003 110.9 38.6003 113.1 36.0003 113.4C33.3003 113.7 31.2003 111.8 31.2003 108.3C28.7003 108.5 26.3003 108.8 23.9003 109.1C23.8003 115.3 29.1003 120.4 35.9003 119.5C42.2003 118.7 48.0003 113.5 48.0003 107.4V107.3C45.6003 107.3 43.1003 107.4 40.8003 107.6Z" fill="url(#paint2_linear_97_1296)"/>
<path d="M68.8002 107.2C62.5002 107 56.4002 107 50.7002 107.1C50.7002 110.6 50.7002 114.1 50.7002 117.6C54.7002 117.4 58.7002 117.4 62.8002 117.4C66.7002 117.5 71.8002 116.5 71.9002 112C71.8002 109.9 70.7002 108.2 68.8002 107.2ZM62.1002 112.5C60.4002 112.5 59.5002 112.5 57.8002 112.5C57.8002 111.2 57.8002 110.6 57.8002 109.3C59.5002 109.3 60.4002 109.3 62.1002 109.3C63.7002 109.3 64.5002 109.9 64.5002 110.9C64.5002 112 63.7002 112.5 62.1002 112.5Z" fill="url(#paint3_linear_97_1296)"/>
<path d="M85.5004 113.5C82.9004 113.2 80.8004 111.1 80.7004 107.8C78.2004 107.6 75.8004 107.5 73.4004 107.3C73.5004 113.3 79.4004 118.5 85.5004 119.5C92.3004 120.7 97.2004 115.4 97.4004 109.6C95.0004 109.3 92.5004 108.9 90.2004 108.7C90.1004 112.1 88.1004 113.8 85.5004 113.5Z" fill="url(#paint4_linear_97_1296)"/>
<path d="M111.6 112C109.2 111.5 106.8 111.1 104.4 110.7C104.4 114.7 104.4 118.7 104.5 122.7C107.4 123.4 108.8 123.8 111.6 124.6C111.6 120.5 111.6 116.3 111.6 112Z" fill="url(#paint5_linear_97_1296)"/>
<path d="M12.3001 103.2C12.2001 103.2 12.0001 103.2 11.9001 103.2C10.9001 103.3 10.3001 103.3 9.3001 103.4L8.6001 103.5V104.1V107.3V110.5V111.3L9.4001 111.2C10.4001 111.1 11.0001 111 12.0001 110.8C14.2001 110.5 15.5001 109 15.6001 106.7C15.6001 105.5 15.3001 104.6 14.6001 104C14.1001 103.5 13.3001 103.2 12.3001 103.2ZM12.0001 110.2C11.0001 110.3 10.4001 110.4 9.4001 110.6C9.4001 108 9.4001 106.7 9.4001 104.2C10.4001 104.1 11.0001 104.1 12.0001 104C12.1001 104 12.2001 104 12.3001 104C14.0001 104 14.9001 105.1 14.9001 106.8C14.9001 108.7 13.9001 109.9 12.0001 110.2Z" fill="white"/>
<path d="M36.2 101.7C36.1 101.7 36.1 101.7 36 101.7C32.8 101.8 30.5 104.5 30.5 108.2C30.5 110.2 31.1 111.8 32.2 112.8C33.1 113.6 34.2 114 35.5 114C35.7 114 35.9 114 36.1 114C39.3 113.7 41.6 111 41.6 107.5C41.6 105.6 41 104 39.8 103C38.8 102.2 37.6 101.7 36.2 101.7ZM36 113.4C35.8 113.4 35.7 113.4 35.5 113.4C33.1 113.4 31.2 111.5 31.2 108.2C31.2 104.7 33.4 102.4 36 102.3C36.1 102.3 36.1 102.3 36.2 102.3C38.8 102.3 40.8 104.3 40.8 107.5C40.8 110.9 38.6 113.1 36 113.4Z" fill="white"/>
<path d="M22.1001 106.1C22.3001 101 17.8001 97.1002 12.4001 97.0002C8.3001 97.0002 6.2001 97.0002 2.1001 97.1002V126.6C4.9001 125.7 6.4001 125.2 9.2001 124.4C9.2001 121.6 9.2001 120.3 9.2001 117.5C10.0001 117.3 10.4001 117.3 11.1001 117.1C12.5001 119.5 13.2001 120.7 14.7001 122.9C17.8001 122.1 19.3001 121.8 22.3001 121.1C20.5001 118.5 19.6001 117.1 17.9001 114.3C20.6001 112.4 22.0001 109.5 22.1001 106.1ZM21.3001 120.7C19.0001 121.2 17.6001 121.5 15.2001 122.1C13.9001 120.1 13.2001 119 11.9001 116.7L11.6001 116.3L11.1001 116.4C10.3001 116.6 9.9001 116.6 9.2001 116.8L8.6001 117V117.5V120.9V123.8C6.4001 124.4 5.0001 124.8 3.0001 125.5V97.7002C6.6001 97.7002 8.7001 97.7002 12.5001 97.6002C15.0001 97.6002 17.4001 98.6002 19.1001 100.3C20.7001 101.9 21.5001 103.9 21.4001 106C21.3001 109.3 19.9001 112 17.6001 113.8L17.1001 114.2L17.4001 114.7C19.0001 117.2 19.8001 118.5 21.3001 120.7Z" fill="white"/>
<path d="M59.8 105.4C60.2 105.4 60.6 105.4 61.1 105.4C62.2 105.4 63 105.2 63.6 104.7C64 104.3 64.2 103.8 64.2 103.2C64.2 102.4 63.8 101 61.1 101C60.6 101 60.2 101 59.8 101C59.2 101 58.6 101 57.7 101H57V101.7V104.7V105.4H57.7C58.6 105.4 59.2 105.4 59.8 105.4ZM57.8 101.7C58.6 101.7 59.2 101.7 59.9 101.7C60.3 101.7 60.7 101.7 61.2 101.7C62.8 101.7 63.5 102.2 63.6 103.2C63.6 104.2 62.9 104.7 61.3 104.7C60.8 104.7 60.4 104.7 60 104.7C59.4 104.7 58.8 104.7 57.9 104.7C57.8 103.5 57.8 102.9 57.8 101.7Z" fill="white"/>
<path d="M85.4002 96.4001C79.0002 96.4001 73.3002 101.5 73.4002 107.4C73.4002 113.4 79.4002 118.6 85.5002 119.7C86.2002 119.8 86.8002 119.9 87.4002 119.9C93.4002 119.9 97.5002 114.7 97.5002 109.2C97.4002 102.7 92.9002 96.4001 85.4002 96.4001ZM93.6002 116.7C91.9002 118.3 89.8002 119.1 87.4002 119.1C86.8002 119.1 86.2002 119 85.6002 118.9C82.7002 118.4 79.8002 116.9 77.7002 114.8C75.4002 112.6 74.1002 109.9 74.1002 107.3C74.1002 104.7 75.2002 102.2 77.3002 100.2C79.5002 98.2001 82.4002 97.0001 85.3002 97.0001C92.6002 97.0001 96.6002 103.2 96.6002 109C96.8002 112 95.7002 114.7 93.6002 116.7Z" fill="white"/>
<path d="M117.8 97.1002C111.2 97.1002 104.7 97.0002 98.1001 97.0002C98.1001 99.6002 98.1001 100.8 98.1001 103.4C100.6 103.5 101.8 103.6 104.3 103.8C104.3 110.2 104.4 116.5 104.4 122.9C107.3 123.6 108.7 124 111.5 124.8C111.5 118 111.5 111.2 111.4 104.4C113.9 104.6 115.1 104.7 117.6 104.9V97.1002H117.8ZM117.1 104C115.1 103.8 113.9 103.7 111.7 103.5L110.9 103.4V104.1V123.6C108.8 123 107.4 122.6 105.2 122.1V113.1V103.6V103H104.5C102.2 102.8 101 102.8 98.9001 102.6V100.9V97.5002C104.9 97.5002 111.1 97.6002 117.1 97.6002V104Z" fill="white"/>
<path d="M85.5 101.8C85.4 101.8 85.4 101.8 85.3 101.8C84 101.8 82.7 102.3 81.8 103.1C80.6 104.2 80 105.8 80 107.7C80 111.2 82.3 113.9 85.5 114.2C85.7 114.2 85.9 114.2 86.1 114.2C87.4 114.2 88.5 113.8 89.3 113C90.4 111.9 91 110.3 91 108.3C91 104.6 88.7 101.9 85.5 101.8ZM86 113.6C85.8 113.6 85.7 113.6 85.5 113.6C82.8 113.3 80.7 111.1 80.7 107.7C80.7 104.4 82.7 102.5 85.3 102.5C85.4 102.5 85.4 102.5 85.5 102.5C88.2 102.6 90.3 104.9 90.3 108.4C90.3 111.7 88.4 113.6 86 113.6Z" fill="white"/>
<path d="M36.2003 96.4001C36.1003 96.4001 36.1003 96.4001 36.0003 96.4001C28.7003 96.5001 24.1003 102.7 23.9003 108.9C23.7003 114.6 28.3003 119.5 34.3003 119.5C34.8003 119.5 35.3003 119.5 35.8003 119.4C42.1003 118.6 47.9003 113.4 47.9003 107.3C48.1003 101.4 42.5003 96.4001 36.2003 96.4001ZM35.8003 118.7C35.3003 118.8 34.8003 118.8 34.4003 118.8C31.8003 118.8 29.4003 117.9 27.6003 116.1C25.6003 114.2 24.6003 111.6 24.7003 108.9C24.8003 105.9 26.0003 102.9 27.9003 100.7C29.4003 99.0001 32.0003 97.1001 36.0003 97.0001C36.1003 97.0001 36.1003 97.0001 36.2003 97.0001C39.1003 97.0001 41.9003 98.1001 44.0003 100.1C46.1003 102.1 47.3003 104.6 47.2003 107.2C47.3003 112.8 42.1003 117.9 35.8003 118.7Z" fill="white"/>
<path d="M62.1001 108.6C61.3001 108.6 60.6001 108.6 60.0001 108.6C59.3001 108.6 58.7001 108.6 57.8001 108.6H57.1001V109.3V110.9V112.5V113.2H57.8001C58.7001 113.2 59.4001 113.2 60.0001 113.2C60.6001 113.2 61.3001 113.2 62.1001 113.2H62.2001C63.3001 113.2 64.1001 113 64.6001 112.5C65.0001 112.1 65.2001 111.6 65.2001 111C65.2001 110.2 64.9001 108.6 62.1001 108.6ZM62.2001 112.5C62.1001 112.5 62.1001 112.5 62.2001 112.5C61.3001 112.5 60.7001 112.5 60.0001 112.5C59.3001 112.5 58.7001 112.5 57.8001 112.5C57.8001 111.2 57.8001 110.6 57.8001 109.3C58.7001 109.3 59.4001 109.3 60.0001 109.3C60.6001 109.3 61.3001 109.3 62.1001 109.3C63.7001 109.3 64.5001 109.9 64.5001 110.9C64.5001 112 63.7001 112.5 62.2001 112.5Z" fill="white"/>
<path d="M67.8001 106.7C69.8001 105.8 70.8001 104.2 70.7001 102.3C70.7001 98.4 66.3001 96.8 62.7001 96.8C62.5001 96.8 62.3001 96.8 62.1001 96.8C61.3001 96.8 60.5001 96.8 59.7001 96.8C56.7001 96.8 53.7001 96.8 50.7001 96.8C50.7001 103.7 50.7001 110.6 50.6001 117.5C54.3001 117.4 58.0001 117.3 61.7001 117.3C62.0001 117.3 62.3001 117.3 62.6001 117.3C62.7001 117.3 62.9001 117.3 63.0001 117.3C66.9001 117.3 71.6001 116.2 71.6001 111.9C71.8001 109.5 70.3001 107.6 67.8001 106.7ZM68.6001 115.6C66.9001 116.4 64.7001 116.6 63.2001 116.6C63.1001 116.6 62.9001 116.6 62.8001 116.6C62.5001 116.6 62.2001 116.6 61.8001 116.6C58.3001 116.6 54.9001 116.7 51.4001 116.8V107.2V97.5C54.1001 97.5 56.9001 97.5 59.6001 97.5H62.0001C62.2001 97.5 62.4001 97.5 62.6001 97.5C64.5001 97.5 66.3001 97.9 67.6001 98.7C69.1001 99.6 69.9001 100.8 69.9001 102.3C69.9001 104 69.0001 105.3 67.4001 106.1L65.9001 106.8L67.4001 107.4C69.7001 108.3 70.9001 109.9 70.9001 112C71.0001 113.6 70.2001 114.8 68.6001 115.6Z" fill="white"/>
</g>
<defs>
<linearGradient id="paint0_linear_97_1296" x1="60.0001" y1="130.772" x2="60.0001" y2="125.22" gradientUnits="userSpaceOnUse">
<stop stop-color="#19456F"/>
<stop offset="0.5019" stop-color="#08B7D0"/>
<stop offset="1" stop-color="#8BD9DF"/>
</linearGradient>
<linearGradient id="paint1_linear_97_1296" x1="12.3439" y1="126.579" x2="12.3439" y2="109.325" gradientUnits="userSpaceOnUse">
<stop stop-color="white" stop-opacity="0"/>
<stop offset="1" stop-color="#BFC1C1"/>
</linearGradient>
<linearGradient id="paint2_linear_97_1296" x1="35.9946" y1="119.502" x2="35.9946" y2="107.173" gradientUnits="userSpaceOnUse">
<stop stop-color="white" stop-opacity="0"/>
<stop offset="1" stop-color="#BFC1C1"/>
</linearGradient>
<linearGradient id="paint3_linear_97_1296" x1="61.2008" y1="117.55" x2="61.2008" y2="106.985" gradientUnits="userSpaceOnUse">
<stop stop-color="white" stop-opacity="0"/>
<stop offset="1" stop-color="#BFC1C1"/>
</linearGradient>
<linearGradient id="paint4_linear_97_1296" x1="85.4606" y1="119.776" x2="85.4606" y2="107.364" gradientUnits="userSpaceOnUse">
<stop stop-color="white" stop-opacity="0"/>
<stop offset="1" stop-color="#BFC1C1"/>
</linearGradient>
<linearGradient id="paint5_linear_97_1296" x1="108.035" y1="124.686" x2="108.035" y2="110.741" gradientUnits="userSpaceOnUse">
<stop stop-color="white" stop-opacity="0"/>
<stop offset="1" stop-color="#BFC1C1"/>
</linearGradient>
<clipPath id="clip0_97_1296">
<rect width="120" height="133" fill="white"/>
</clipPath>
</defs>
</svg>
