<svg width="145" height="160" viewBox="0 0 145 160" fill="none" xmlns="http://www.w3.org/2000/svg">
<g clip-path="url(#clip0_97_67)">
<path fill-rule="evenodd" clip-rule="evenodd" d="M30.2001 138.3C29.8001 139 29.4001 139.6 28.9001 140.2C26.8001 142.5 23.9001 143.3 21.2001 143.7C19.6001 143.9 18.1001 144.2 16.5001 144.3C13.4001 144.8 10.1001 144.7 7.7001 142.3C5.4001 140.1 4.6001 137.1 4.6001 134C4.6001 132.4 4.6001 131 4.6001 129.4V123.6H5.1001C4.9001 122.5 4.7001 121.3 4.7001 120.1C4.7001 118.5 4.7001 117 4.7001 115.5C4.7001 112.5 5.4001 109.6 7.5001 107.5C9.7001 105.1 12.8001 104.5 15.8001 104.5C30.8001 104.5 45.8001 104.4 60.9001 104.4C79.9001 104.4 98.7001 104.5 117.7 104.5C120.7 104.5 123.9 105.1 126 107.5C128.1 109.7 128.8 112.5 128.8 115.7C128.8 118 128.8 120.1 128.8 122.4C128.8 123.7 128.6 125 128.2 126.2C128.7 127.5 129 129 129 130.4C129 131.8 129 133.2 129 134.6C129 136 129 137.4 129 138.8V146.2L122.2 145.1C120.3 144.7 118.3 144.5 116.4 144.1L115.6 144L112.8 143.6C110.9 143.4 109.1 143.1 107.1 142.9L101.8 142.3V138.6C98.3001 138.2 94.8001 138 91.3001 137.8L88.6001 137.7H87.4001C85.5001 137.6 83.5001 137.6 81.6001 137.5L75.9001 137.3V137.2C74.7001 137.4 73.5001 137.4 72.4001 137.4C69.1001 137.4 65.8001 137.4 62.5001 137.4H60.9001H60.7001C56.6001 137.5 52.6001 137.6 48.5001 137.9L42.3001 138.1V138C41.3001 138.2 40.2001 138.4 39.3001 138.4C37.7001 138.5 36.2001 138.6 34.6001 138.8C33.1001 138.5 31.6001 138.5 30.2001 138.3Z" fill="#FF9933"/>
<path fill-rule="evenodd" clip-rule="evenodd" d="M97.2999 128.4L105.5 125.5V138.8L102.5 140.8C91.8999 147.9 80.4999 153.7 68.9999 158.7L66.1999 159.9L63.7999 158.8C52.0999 153.8 40.5999 147.7 29.8999 140.7L26.8999 138.7V125.4L35.0999 128.3C35.8999 128.5 37.5999 128.7 38.4999 128.8C40.8999 129 43.2999 129 45.6999 129.2C52.4999 129.4 59.2999 129.6 66.0999 129.6C72.8999 129.6 79.5999 129.6 86.4999 129.2C88.8999 129.1 91.2999 129 93.6999 128.8C94.7999 128.8 96.4999 128.6 97.2999 128.4Z" fill="#FF9933"/>
<path fill-rule="evenodd" clip-rule="evenodd" d="M98.2 131.3L102.7 129.7V137L101 138.1C90.5 145.1 79.4 150.8 67.9 155.8L66.2 156.5L64.9 155.9C53.2 150.9 42 145 31.2 138L29.5 136.9V129.6L34 131.2C39.1 133 93.1 133.1 98.2 131.3Z" fill="#1A1A1A"/>
<path fill-rule="evenodd" clip-rule="evenodd" d="M66.2998 152.7C60.5998 150.2 38.4998 138.8 33.2998 134.9C43.8998 138.5 54.8998 141.9 66.2998 145C77.6998 141.9 88.7998 138.6 99.2998 134.9C91.0998 139.2 70.2998 147.2 66.2998 148V152.7Z" fill="#CCCCCC"/>
<path fill-rule="evenodd" clip-rule="evenodd" d="M15.7 145.9C17.6 146.5 19.8 146.3 21.5 145.2C23.2 144.1 24.5 142.2 24.9 140C22.4 143.4 17.9 144.2 14.5 141.8C16.1 142.8 18 142.9 19.7 142.3C17.8 142.5 16 141.8 14.7 140.3C13.5 138.7 13 136.6 13.6 134.7C15.2 132.1 15.8 130 15.3 128.5C14.9 127.9 14.1 127.4 12.6 127.2C11.3 127.1 9.9 126.2 9.2 125C9.7 126.3 10.8 127.4 12.1 127.9C9.9 127.3 8.2 125.6 7.4 123.5C6.9 121.1 7.2 119.3 8.1 118C9.7 116.3 10.3 114.9 9.8 113.8C9.3 112.7 8.5 111.9 7.1 111.2C4.4 109.4 6 106.3 8.7 105.8C9.7 105.7 10.5 105.1 11.1 104.2C10.6 105.2 9.7 105.9 8.6 106.1C9.4 106.2 10.4 105.9 11 105.3C11.7 104.7 12.1 103.7 12.1 102.8C12.1 101 11.6 99.2 10.7 97.8C11.1 100.3 10.3 102.1 8.4 103.1C5.7 104.3 4.5 104.9 4.5 104.9C3.1 105.5 2.4 107.1 2.4 109.3C2.4 110.6 2.5 111.9 2.8 113.3C2.9 114.7 2.6 115.8 1.6 116.7C0.499998 118 0.599998 119.5 1.7 121.1C3 123.9 2.7 126.5 0.899998 129.1C-0.400002 130.8 -0.300002 133.3 1.1 134.9C0.699998 133.5 0.699998 132.5 1.1 131.9C1.6 131.1 1.9 130.1 2.1 129C2.3 127.9 2.7 127.4 3.3 127.8C3.9 128.3 3.9 128.9 3.4 129.8C2.7 131.5 2.7 132.8 3.3 134C4.4 135.3 4.5 136.2 3.8 136.5C5 136.7 6.2 137.2 7.2 138.1C6.8 137.6 6.5 137.1 6 136.9C7.6 137.1 8.8 138.2 9.3 139.9C10.7 144.9 13.4 147.3 17.3 146.9C16.6 146.5 16.1 146.3 15.7 145.9Z" fill="#FF9933"/>
<path fill-rule="evenodd" clip-rule="evenodd" d="M94.1 65.8999C92.8 66.8999 91.2 67.1999 89.6 66.8999C88 66.4999 86.7 65.4999 86 63.8999C88.7 65.6999 92 65.1999 94.1 62.5999C93.1 63.6999 91.8 64.2999 90.4 64.2999C91.8 64.0999 93.1 62.9999 93.7 61.4999C94.3 60.0999 94.1 58.3999 93.2 57.0999C91.5 55.4999 90.5 54.1999 90.5 52.8999C90.6 52.3999 91.1 51.7999 92.2 51.2999C93.2 50.7999 93.9 49.8999 94.3 48.7999C94.2 49.9999 93.7 50.9999 92.9 51.6999C94.3 50.6999 95.3 49.0999 95.4 47.0999C95.2 45.1999 94.7 43.8999 93.7 43.0999C92.1 42.2999 91.4 41.2999 91.5 40.4999C91.6 39.6999 92.1 38.6999 92.8 37.8999C94.4 35.8999 92.4 34.0999 90.4 34.2999C89.7 34.3999 88.8 34.2999 88.2 33.7999C88.8 34.4999 89.6 34.7999 90.5 34.5999C89.9 34.7999 89.2 34.7999 88.4 34.5999C87.8 34.1999 87.3 33.7999 87.1 32.9999C86.7 31.6999 86.7 30.1999 87.1 28.8999C87.3 30.7999 88.3 31.9999 90 32.0999C92.2 32.2999 93.3 32.2999 93.3 32.2999C94.5 32.4999 95.4 33.4999 95.8 35.1999C96 36.1999 96.3 37.0999 96.4 38.1999C96.6 39.2999 97.1 39.9999 98 40.3999C99.1 41.0999 99.3 42.1999 98.8 43.5999C98.4 45.9999 99.3 47.8999 101.2 49.1999C102.5 50.1999 103 51.9999 102.3 53.4999C102.3 52.3999 102.1 51.6999 101.6 51.2999C101 50.7999 100.6 50.1999 100.3 49.3999C99.9 48.6999 99.6 48.3999 99.1 48.7999C98.7 49.2999 98.9 49.7999 99.5 50.3999C100.3 51.3999 100.7 52.3999 100.5 53.4999C100 54.6999 100 55.3999 100.7 55.4999C99.9 55.9999 99.1 56.6999 98.5 57.4999C98.6 56.9999 98.9 56.6999 99.1 56.2999C98 56.8999 97.4 57.9999 97.4 59.2999C97.4 63.3999 96.1 65.7999 93.1 66.4999C93.5 66.6999 93.8 66.2999 94.1 65.8999Z" fill="#FF9933"/>
<path fill-rule="evenodd" clip-rule="evenodd" d="M102.6 116.5C100.3 116.7 98.0999 115.9 96.3999 114.2C94.6999 112.5 93.8999 110.2 93.8999 107.8C95.9999 112.1 100.7 114 104.8 112.2C102.9 112.8 100.8 112.6 98.9999 111.5C100.9 112.2 103.2 111.9 104.8 110.5C106.5 109.1 107.3 106.9 107.1 104.6C105.9 101.4 105.8 99.1001 106.6 97.4001C107.1 96.8001 108 96.6001 109.7 96.7001C111.3 96.8001 112.7 96.2001 113.8 95.1001C113 96.4001 111.6 97.4001 110.1 97.6001C112.5 97.5001 114.8 96.0001 116.1 93.9001C117.1 91.4001 117.3 89.3001 116.5 87.8001C115.2 85.5001 114.8 83.8001 115.5 82.8001C116.2 81.8001 117.3 81.1001 118.9 80.6001C122.2 79.3001 121.1 75.6001 118.3 74.4001C117.3 73.9001 116.5 73.2001 116 72.1001C116.2 73.4001 117.2 74.4001 118.3 74.9001C117.3 74.8001 116.4 74.2001 115.9 73.3001C115.3 72.5001 115.1 71.4001 115.3 70.3001C115.7 68.4001 116.6 66.6001 118 65.1001C117 67.7001 117.5 69.9001 119.4 71.3001C121.9 73.2001 123.3 74.2001 123.3 74.2001C124.6 75.4001 125 77.2001 124.5 79.7001C124.3 81.1001 123.8 82.6001 123.3 83.9001C122.8 85.3001 123.1 86.7001 123.9 87.7001C124.7 89.4001 124.4 90.9001 122.8 92.5001C120.7 95.1001 120.5 98.1001 122.1 101.4C123.2 103.6 122.5 106.2 120.7 107.5C121.4 106.1 121.5 105 121.3 104.3C120.9 103.2 120.8 102.1 120.9 100.9C120.9 99.7001 120.5 99.1001 119.8 99.3001C119.1 99.7001 118.8 100.4 119.3 101.5C119.8 103.4 119.5 105 118.6 106.1C117.2 107.3 116.8 108.1 117.5 108.7C116.2 108.7 114.7 108.9 113.5 109.5C114 109 114.5 108.7 115.1 108.4C113.4 108.3 111.8 109.2 111 110.8C108.3 116 105 117.8 101 116.4C101.4 117 102 116.8 102.6 116.5Z" fill="#FF9933"/>
<path fill-rule="evenodd" clip-rule="evenodd" d="M25.3001 97.3999C27.6001 97.5999 29.8001 96.7999 31.5001 95.0999C33.2001 93.3999 34.0001 91.0999 34.0001 88.6999C31.9001 92.9999 27.2001 94.8999 23.1001 93.0999C25.0001 93.6999 27.1001 93.4999 28.9001 92.3999C27.0001 93.0999 24.7001 92.7999 23.1001 91.3999C21.4001 89.9999 20.6001 87.7999 20.8001 85.4999C22.0001 82.2999 22.1001 79.9999 21.3001 78.2999C20.8001 77.6999 19.9001 77.4999 18.2001 77.5999C16.6001 77.6999 15.2001 77.0999 14.1001 75.9999C14.9001 77.2999 16.3001 78.2999 17.8001 78.4999C15.4001 78.3999 13.1001 76.8999 11.8001 74.7999C10.8001 72.2999 10.6001 70.1999 11.4001 68.6999C12.7001 66.3999 13.1001 64.6999 12.4001 63.6999C11.6001 62.5999 10.3001 61.8999 8.90013 61.3999C5.60013 60.0999 6.70013 56.3999 9.50013 55.1999C10.5001 54.7999 11.3001 53.9999 11.8001 52.8999C11.6001 54.1999 10.6001 55.1999 9.50013 55.6999C10.5001 55.5999 11.4001 54.9999 11.9001 54.0999C12.5001 53.2999 12.7001 52.1999 12.5001 51.0999C12.1001 49.1999 11.2001 47.3999 9.80013 45.8999C10.8001 48.4999 10.3001 50.6999 8.40013 52.0999C5.90013 53.9999 4.50013 54.9999 4.50013 54.9999C3.20013 56.1999 2.80013 57.9999 3.30013 60.4999C3.50013 61.8999 4.00013 63.3999 4.50013 64.6999C5.00013 66.0999 4.70013 67.4999 3.90013 68.4999C3.10013 70.3999 3.50013 71.9999 5.00013 73.4999C7.10013 76.0999 7.30013 79.0999 5.70013 82.3999C4.60013 84.5999 5.30013 87.1999 7.10013 88.4999C6.40013 87.0999 6.30013 85.9999 6.50013 85.2999C7.10013 84.2999 7.20013 83.2999 7.20013 82.0999C7.20013 80.8999 7.60013 80.2999 8.30013 80.4999C9.00013 80.8999 9.30013 81.5999 8.80013 82.6999C8.30013 84.5999 8.60013 86.1999 9.50013 87.2999C10.9001 88.4999 11.3001 89.2999 10.6001 89.8999C11.9001 89.8999 13.4001 90.0999 14.6001 90.6999C14.1001 90.1999 13.6001 89.8999 13.0001 89.5999C14.7001 89.4999 16.3001 90.3999 17.1001 91.9999C19.8001 97.1999 23.1001 98.9999 27.1001 97.5999C26.7001 97.7999 25.9001 97.6999 25.3001 97.3999Z" fill="#FF9933"/>
<path fill-rule="evenodd" clip-rule="evenodd" d="M23.9002 82.4C25.5002 84.1 27.8002 85 29.9002 84.8C32.2002 84.7 34.2002 83.4999 35.6002 81.5999C31.5002 83.4999 26.8002 81.7999 24.6002 77.5999C25.8002 79.3999 27.5002 80.6 29.6002 81C27.7002 80.3 26.1002 78.4999 25.7002 76.1999C25.2002 73.9999 25.8002 71.5999 27.3002 70.0999C30.1002 68.3999 31.6002 66.7 31.9002 64.8C31.9002 64.1 31.2002 63.1 30.0002 62.2C28.8002 61.2 27.9002 59.7999 27.7002 58.0999C27.6002 59.7999 28.1002 61.3 29.1002 62.5C27.3002 60.7 26.3002 58.2 26.6002 55.5C27.3002 52.9 28.4002 51.2 29.9002 50.5C32.3002 49.7 33.5002 48.5999 33.6002 47.2999C33.6002 45.9999 33.2002 44.6999 32.3002 43.2999C30.5002 40.0999 33.6002 37.9 36.4002 38.9C37.5002 39.3 38.6002 39.2999 39.5002 38.7999C38.5002 39.5999 37.2002 39.8 36.1002 39.4C36.9002 40 37.9002 40.1 38.9002 39.9C39.9002 39.7 40.7002 38.9 41.1002 38C41.9002 36.2 42.3002 34.3 42.1002 32.2C41.3002 34.8 39.7002 36.2 37.4002 36C34.3002 35.8 32.7002 35.5999 32.7002 35.5999C31.0002 35.5999 29.6002 36.7999 28.6002 39.0999C28.0002 40.3999 27.5002 41.6999 27.0002 43.2999C26.5002 44.6999 25.6002 45.6 24.2002 45.9C22.6002 46.6 21.9002 48.0999 22.3002 50.2999C22.3002 53.7999 20.7002 56.1999 17.6002 57.5999C15.5002 58.5999 14.5002 61.1 15.2002 63.4C15.4002 61.8 15.9002 60.9 16.6002 60.5C17.4002 59.9 18.3002 59.2 18.9002 58.2C19.6002 57.2 20.2002 57 20.7002 57.7C21.1002 58.4 20.8002 59.1 19.7002 59.7C18.3002 60.9 17.5002 62.1999 17.6002 63.7999C18.1002 65.6999 17.7002 66.5999 16.9002 66.5999C18.0002 67.5999 18.8002 68.6 19.6002 70C19.5002 69.3 19.4002 68.6999 19.0002 68.0999C20.3002 69.1999 21.1002 71 20.8002 72.8C19.8002 78.6 21.3002 82.3 25.3002 84C24.6002 83.6 24.1002 83 23.9002 82.4Z" fill="#FF9933"/>
<path fill-rule="evenodd" clip-rule="evenodd" d="M128.4 144.4C126.7 144.5 125 143.9 123.7 142.7C122.5 141.5 121.8 139.7 121.8 137.8C123.4 141 126.9 142.5 130 141.2C128.6 141.7 127 141.4 125.7 140.6C127.1 141.2 128.8 140.8 130.2 139.9C131.4 138.8 132.1 137.1 132 135.5C131.2 133.1 131 131.3 131.6 130.1C132 129.6 132.7 129.5 133.9 129.5C135.1 129.6 136.2 129.1 137 128.3C136.4 129.3 135.3 130 134.2 130.2C136 130.1 137.7 129 138.8 127.4C139.5 125.5 139.6 123.9 139.2 122.7C138.2 121 137.9 119.7 138.5 118.9C139 118.2 139.9 117.6 141 117.2C143.5 116.2 142.6 113.4 140.5 112.4C139.8 112 139.1 111.4 138.7 110.7C138.9 111.7 139.5 112.5 140.4 112.7C139.7 112.6 139 112.2 138.5 111.5C138 110.9 137.9 110.1 138 109.2C138.2 107.8 139 106.3 140.1 105.4C139.4 107.4 139.7 109 141.2 110.1C143.1 111.5 144.1 112.3 144.1 112.3C145.1 113.1 145.4 114.6 144.9 116.5C144.7 117.6 144.4 118.7 143.9 119.7C143.5 120.8 143.7 121.7 144.4 122.6C145 123.8 144.8 125 143.6 126.2C142 128.2 141.9 130.5 143.1 132.9C143.8 134.6 143.3 136.6 142 137.6C142.6 136.5 142.7 135.7 142.4 135.2C142.2 134.4 142 133.5 142.2 132.7C142.2 131.7 142 131.4 141.4 131.5C140.8 131.7 140.7 132.3 141 133.2C141.4 134.6 141.1 135.8 140.4 136.7C139.3 137.5 139.1 138.3 139.6 138.7C138.5 138.7 137.5 138.9 136.6 139.3C137 138.9 137.3 138.7 137.8 138.5C136.5 138.4 135.3 139.1 134.7 140.3C132.6 144.3 130.1 145.6 127.1 144.6C127.4 144.7 127.9 144.6 128.4 144.4Z" fill="#FF9933"/>
<path fill-rule="evenodd" clip-rule="evenodd" d="M84.2001 20.8C84.7001 22.2 84.9001 23.7 84.9001 25.2C84.9001 26 84.9001 26.9 84.9001 27.6C84.9001 27.8 84.9001 28 84.9001 28.2C84.9001 29.3 84.9001 30.2 84.7001 31.3C85.7001 32.3 86.4001 33.5 87.0001 34.7C87.7001 35.3 88.3001 35.9 88.8001 36.6C90.6001 37.1 92.2001 38 93.4001 39.8C94.4001 41.2 94.8001 42.9 94.8001 44.6C94.8001 45 94.8001 45.3 94.7001 45.7C96.6001 46.7 98.6001 48 100.1 49.3C102.8 51.6 106.1 56 107 59.6C107 59.7 107.1 59.7 107.1 59.8C107.2 60.2 107.6 60.5 107.7 60.8C109 63.1 110.4 66.8 110.5 69.7C110.7 70.3 111.1 70.8 111.5 71.4C112 72.2 112.3 73.1 112.6 74.2C112.7 74.4 112.8 74.7 113 74.9C113.4 75.5 113.7 76.1 114 76.7C116.1 80.7 116.7 83.9 116.7 88.4C117.8 90 118.4 91.4 118.8 93.6C119 95.4 119 97.2 119 99C119 100.4 118.8 101.6 118.5 103.1C118.5 104.2 118.3 105.4 117.8 106.3C119.5 108.2 120.1 110.9 119.5 113.4L120.2 114.2C121.2 115.3 121.8 116.6 122.1 118L122.5 118.2C123.3 118.4 124.2 118.8 124.9 119.3C126.3 120.3 127.8 121.3 129.1 122.4C129.3 122.5 129.7 122.6 129.9 122.8C130.7 123.3 131.5 123.9 132.3 124.5C132.8 124.6 133.1 124.9 133.6 125C134.6 125.5 135.5 126.3 136.3 127.2C136.7 127.6 137 127.8 137.5 128C140.5 129.6 142.2 133.2 141.5 136.6C140.9 139.6 138.8 142.5 136.3 143.9C133.9 145.3 131 145.1 128.7 143.3L128.1 142.8C127.3 142.2 126.7 141.4 126.2 140.5C125.5 140.1 124.9 139.7 124.4 139.1C122.3 138.7 120.5 137.4 119.4 135.4C117.1 135.2 114.9 133.8 113.7 131.6C113.5 131.5 113.2 131.2 113.1 131.1C112.1 131.1 111.2 130.9 110.2 130.4C108.5 130.9 106.7 130.8 105.1 130C104.3 129.6 103.4 129.2 102.8 128.6C102.7 128.5 102.6 128.5 102.3 128.4C101.6 128 101 127.7 100.4 127.1C99.9001 126.9 99.6001 126.6 99.1001 126.3C99.0001 126.2 98.9001 126.1 98.6001 125.9C98.2001 125.8 98.0001 125.7 97.6001 125.4C97.5001 125.3 97.4001 125.3 97.2001 125.2C94.9001 126.8 92.0001 126.8 89.7001 125.2L89.6001 125.1C88.3001 126.9 86.3001 127.9 84.2001 127.9C83.8001 127.9 83.5001 128 83.2001 128C79.9001 128.4 76.7001 128.5 73.3001 128.5C72.2001 128.5 71.2001 128.3 70.3001 127.8C69.3001 128.3 68.4001 128.5 67.3001 128.5C63.3001 128.5 59.3001 128.4 55.3001 128.3C53.0001 128.2 50.6001 128.2 48.3001 128.1C46.6001 128 45.0001 128 43.3001 127.7C43.2001 127.7 43.2001 127.7 43.1001 127.7L40.1001 127.2C37.3001 126.8 35.1001 124.7 34.3001 122C32.5001 121.6 30.8001 120.9 29.5001 119.5C27.3001 117.1 26.7001 113.7 26.2001 110.6C26.0001 108.8 25.6001 106.6 25.6001 104.7C25.4001 103.9 25.2001 103 25.2001 102.1C25.2001 101.4 25.2001 100.5 25.2001 99.8C24.7001 98.7 24.4001 97.4 24.5001 96.1C24.4001 95.5 24.4001 94.9 24.4001 94.2C18.0001 92.2 13.3001 90.5 11.2001 82.8C9.00008 80.9 8.20008 77.9 8.50008 74.8V74.7C8.90008 72.5 9.70008 70.5 11.2001 68.9C11.7001 68.4 12.2001 67.9 12.8001 67.5L12.9001 67.4C13.7001 65.7 15.0001 64.2 16.3001 63C16.5001 62.8 16.8001 62.5 17.0001 62.4C17.2001 60.6 17.6001 58.9 18.2001 57.2C18.2001 55.9 18.4001 54.7 19.0001 53.5C19.5001 52.4 20.2001 51.6 21.1001 50.9C21.9001 50.1 22.9001 49.2 23.9001 48.5C25.2001 47.5 26.7001 46.7 28.1001 46.1C29.4001 45.5 30.8001 45.1 32.2001 44.8C32.2001 44.2 32.3001 43.5 32.4001 42.9C32.9001 40.4 34.6001 38.5 36.7001 37.5C36.8001 37.4 37.1001 37.4 37.2001 37.3C38.2001 35.7 39.4001 34.4 40.9001 33.7C41.5001 32.7 42.5001 31.7 43.3001 30.9C43.4001 30.8 43.4001 30.8 43.5001 30.7C43.4001 29.7 43.5001 28.8 43.6001 27.8C43.6001 27.7 43.6001 27.6 43.6001 27.4V24.2C43.6001 23.1 43.8001 22 44.2001 21C44.2001 19.7 44.0001 19 44.0001 18.1C44.0001 15.3 45.3001 12 46.7001 9.7C50.3001 3.7 56.5001 0.2 63.0001 0C63.6001 0 64.1001 0 64.7001 0C69.0001 0 73.8001 1.9 77.3001 4.7C80.9001 7.6 84.3001 13.2 84.4001 18.2C84.5001 19.2 84.4001 20.1 84.2001 20.8Z" fill="#FF9933"/>
<path fill-rule="evenodd" clip-rule="evenodd" d="M21.0998 57.5C20.9998 56.5 21.0998 55.6001 21.5998 54.7001C21.9998 54.0001 22.3998 53.5 22.8998 53C23.5998 52.2 24.5998 51.4 25.3998 50.8C26.5998 50 27.7998 49.2 29.0998 48.6C30.9998 47.8 33.3998 47.2 35.4998 47C34.9998 45.8 34.7998 44.7 35.0998 43C35.4998 41.4 36.2998 40.4 37.5998 39.8C38.0998 39.6 38.3998 39.4001 38.9998 39.4001C39.6998 37.6001 40.8998 36.2001 42.6998 35.7001C42.7998 35.6001 42.7998 35.5 42.8998 35.3C43.3998 34.5 44.1998 33.4001 44.9998 32.9001C45.5998 32.4001 46.1998 32.2 46.8998 32.1C46.3998 30.7 46.2998 29.1 46.4998 27.5C46.4998 27.4 46.4998 27.1 46.4998 27V24C46.4998 22.9 46.8998 21.8 47.2998 20.9C46.8998 20.2 46.6998 19.3 46.6998 18.4C46.6998 16.2 47.8998 13.5 48.9998 11.7C52.0998 6.50005 57.4998 3.70005 62.9998 3.30005C63.4998 3.30005 64.0998 3.30005 64.5998 3.30005C68.2998 3.30005 72.4998 5.00005 75.4998 7.40005C78.3998 9.70005 81.2998 14.5 81.3998 18.5C81.3998 19.3 81.1998 20.2 80.7998 20.9C81.4998 22.1 81.7998 23.7001 81.7998 25.2001C81.7998 26.3001 81.7998 27 81.7998 27.6C81.7998 27.8 81.7998 28.0001 81.7998 28.2001C81.7998 30.0001 81.6998 31.3 81.1998 32.5C81.2998 32.6 81.3998 32.6001 81.5998 32.7001C82.7998 33.5001 83.8998 35.1 84.4998 36.8C85.5998 37.5 86.2998 38.4001 86.7998 39.4001C88.3998 39.5001 89.6998 40 90.7998 41.6C91.3998 42.4 91.5998 43.5 91.5998 44.6C91.5998 45.4 91.1998 46.5 90.8998 47.6C93.5998 48.3 96.2998 50.1001 98.0998 51.7001C100.4 53.6001 103.4 57.6 104 60.6C104 60.7 104 60.7 104 60.8C104.1 60.9 104.2 61.2 104.2 61.3C104.4 61.7 104.7 62.1 104.9 62.5C106 64.4 107.2 67.8 107.2 70.1C107.2 70.2 107.2 70.3 107.2 70.5C107.6 71.5 108.3 72.5 108.6 73.1C109.1 73.8 109.2 74.5 109.3 75.3C109.5 75.7 109.8 76 109.9 76.4C109.9 76.5 110 76.5 110 76.6C110.4 77.1 110.6 77.6 110.8 78C112.6 81.5 113.1 84.1 113.1 88.2C113.1 88.6 113.1 88.9 113 89.3C114.2 90.7 114.9 91.8 115.2 93.9C115.4 95.7 115.4 97.1 115.4 98.9C115.4 100.2 115.2 101.3 115 102.5C115 102.6 115 102.7 115 102.7C115 103.8 114.6 104.9 114 105.6C114 106 114 106.2 114 106.6C114 106.7 114 107 114 107.1L115 108.2C116.2 109.6 116.4 111.6 115.8 113.2C116 113.7 116.2 114.2 116.2 114.6L117.5 116C118.3 117 118.8 118.2 118.7 119.4L120.8 121C121.4 121.1 122.1 121.4 122.7 121.7C123.8 122.5 125.7 123.9 127 125.1C127.2 125.2 127.6 125.3 127.8 125.5C128.6 126 129.2 126.5 130 127.1C130.1 127.2 130.2 127.3 130.4 127.3C130.8 127.4 131.2 127.5 131.6 127.8C132.3 128.2 133 128.8 133.4 129.5C134 130 134.6 130.6 135.2 130.9C137 131.7 138.1 133.9 137.6 136.2C137.1 138.4 135.7 140.4 133.9 141.5C132.5 142.3 130.8 142.2 129.4 141.1L128.8 140.6C128.1 140 127.6 139.3 127.2 138.3C126.1 138.1 125.3 137.3 124.7 136.3C122.4 136.3 120.8 134.9 120.4 132.9L119.7 132.4C119.6 132.4 119.6 132.4 119.5 132.4C117.7 132.5 116 131.7 115.2 130C115.1 129.8 115 129.6 115 129.4C114.4 129 113.8 128.6 113.3 128.1C113.2 128 113.2 128 113.1 127.9C111.8 128 110.6 127.7 109.6 126.8C108.4 127.6 106.8 127.8 105.4 127C104.7 126.8 104.1 126.4 103.6 125.8C103.4 125.7 103.1 125.6 102.9 125.4C102.3 125.2 101.8 124.8 101.5 124.3C101 124.1 100.7 123.8 100.2 123.5C99.9998 123.4 99.7998 123.3 99.5998 123C99.1998 122.9 98.8998 122.8 98.4998 122.5C98.0998 122.3 97.6998 121.9 97.3998 121.7C97.1998 121.6 96.8998 121.5 96.6998 121.3C96.4998 121.4 96.2998 121.5 96.0998 121.7L95.4998 122.2C94.0998 123.3 92.1998 123.4 90.7998 122.4L88.8998 121.1C88.3998 121.5 88.0998 121.8 87.6998 122.1C87.5998 122.3 87.4998 122.7 87.1998 122.9C86.3998 124.1 85.0998 124.7 83.7998 124.7C83.2998 124.7 82.9998 124.8 82.4998 124.8C79.1998 125.2 76.1998 125.3 72.9998 125.3C72.1998 125.3 71.3998 125.1 70.7998 124.7C70.6998 124.7 70.5998 124.7 70.3998 124.6C70.1998 124.5 69.7998 124.5 69.5998 124.4C68.8998 125 67.8998 125.5 66.8998 125.5C62.8998 125.5 58.8998 125.4 55.0998 125.3C52.7998 125.2 50.4998 125.2 48.0998 125.1C46.4998 125 44.7998 125 43.3998 124.9H43.2998L40.2998 124.4C38.0998 124 36.6998 122.1 36.6998 120C36.6998 119.8 36.6998 119.6 36.6998 119.4C34.7998 119.5 32.6998 119.2 31.3998 117.6C29.6998 115.8 29.2998 112.8 28.9998 110.4C28.7998 108.8 28.3998 106.3 28.4998 104.5C28.2998 103.9 28.0998 103.2 28.0998 102.5C28.0998 101.3 28.0998 100.3 28.1998 99.5C27.5998 98.7 27.1998 97.5 27.3998 96.4C27.1998 95.7 27.2998 92.3 27.2998 92.3C19.1998 89.8 15.2998 88.8 13.6998 81.5C11.8998 80.1 11.1998 77.7 11.4998 75.4V75C11.6998 73.4 12.2998 72 13.2998 70.9C13.6998 70.5 13.9998 70.2 14.3998 69.9C14.5998 69.8 14.8998 69.7 15.0998 69.5C15.7998 67.9 16.8998 66.3 18.1998 65.2C18.6998 64.8 18.8998 64.5 19.3998 64.1C19.4998 64 19.5998 64.0001 19.7998 63.9001C19.8998 61.6001 20.3998 59.5 21.0998 57.5Z" fill="#1A1A1A"/>
<path fill-rule="evenodd" clip-rule="evenodd" d="M130.1 132.1C130.2 132 130.3 132 130.3 132.1C130.4 132.2 130.4 132.3 130.4 132.5C129.8 133.5 129.4 133.9 129.4 133.9C129.4 134 129.3 134 129.2 134C129.1 134 129.1 133.9 129 133.9C129 133.8 129 133.7 129 133.7C129.8 132.6 130.1 132.1 130.1 132.1ZM125.8 131.8C125.7 131.9 125.6 131.9 125.4 131.9C125.3 131.8 125.3 131.7 125.3 131.5C125.8 130.7 126.1 130.2 126.5 129.8C126.5 129.8 127.3 130.5 129.2 131.8C129.3 132 129.4 132.3 129.2 132.5C129.1 132.7 128.8 132.7 128.6 132.6C127.2 131.5 126.3 130.9 126.3 131C126.2 131.3 125.9 131.5 125.8 131.8ZM120.1 127.9C120 128 119.9 128 119.7 128C119.6 127.9 119.6 127.8 119.6 127.6C120.1 126.8 120.4 126.3 120.8 125.9C120.8 125.9 123.3 127.8 125.1 129.1C125.2 129.3 125.3 129.6 125.1 129.8C125 130 124.7 130 124.5 129.9C123.1 128.8 120.5 127 120.5 127C120.5 127.4 120.3 127.7 120.1 127.9ZM113.4 123.5C113.3 123.6 113.2 123.6 113 123.6C112.9 123.5 112.9 123.4 112.9 123.2C113.4 122.4 113.7 121.9 114.1 121.5C114.1 121.5 117.6 124.1 119.4 125.5C119.5 125.7 119.6 126 119.4 126.2C119.3 126.4 119 126.4 118.8 126.3C117.4 125.2 113.8 122.7 113.8 122.8C113.7 123 113.5 123.2 113.4 123.5ZM79.9001 99.9C80.1001 99.5 80.5001 99.2 81.0001 99.1C100.6 112.3 110.4 119 110.4 119C110.5 119.1 110.6 119.2 110.6 119.4C110.6 119.6 110.5 119.6 110.4 119.8C110.3 119.9 110.2 119.9 110 119.8C89.9001 106.5 79.9001 99.9 79.9001 99.9ZM113.7 120.4C114.5 119.8 114.9 119.6 114.9 119.6C114.9 119.6 113.9 118.6 112.1 116.6C112.5 116 112.5 115.6 112.3 115.5C112.3 115.5 111.3 114.8 109.5 113.2C109.5 113.2 109.7 113 110.2 112.4C110.2 112.4 110.7 112.4 111.5 112.4C111.5 112.4 111.7 112.2 112.3 111.7C112.3 111.7 111.8 111.1 110.7 110C110.7 110 110 110.8 108.4 112.5C108.4 112.5 106.3 110.8 102.1 107.6C102.1 107.6 101.5 108.1 100.4 109.2C100.4 109.2 103.2 111.6 108.7 116.3C108.7 116.3 106.8 114.9 102.8 112.1C102.8 112.1 102.6 112.5 102 113.1C102.3 112.9 106.1 115.4 113.7 120.4ZM99.6001 106.7C100.4 105.7 100.8 105.3 100.8 105.3C93.7001 99.9 90.2001 97.3 90.2001 97.3C89.0001 99.6 88.4001 100.8 88.4001 100.8C93.2001 104.2 95.5001 105.7 95.5001 105.7C95.7001 105.6 96.0001 105.2 96.0001 104.9C93.7001 102.9 92.6001 101.9 92.6001 101.9C97.2001 105.1 99.6001 106.7 99.6001 106.7ZM78.7001 84.1C77.6001 85.3 77.4001 85.8 77.4001 85.8C84.6001 91.2 88.4001 93.8 88.4001 93.8C87.4001 94.6 87.0001 95 87.0001 95C82.2001 91.6 79.9001 89.8 79.9001 89.8C79.5001 90.3 79.3001 90.5 79.3001 90.5C84.1001 93.9 86.4001 95.4 86.4001 95.4C85.8001 96.1 85.4001 96.5 85.4001 96.5C79.2001 92.7 76.2001 90.7 76.2001 90.7C76.1001 87.7 76.1001 86.1 76.1001 86.1C73.2001 84.2 71.6001 83.2 71.6001 83.2C68.6001 85.4 67.1001 86.4 67.1001 86.4C62.8001 83.2 60.6001 81.6 60.6001 81.6C61.3001 80.8 61.7001 80.4 61.7001 80.4C65.8001 82.9 68.0001 84.2 68.0001 84.4C70.8001 82.7 72.1001 81.8 72.1001 81.8C73.5001 80.4 73.8001 80.2 73.8001 80.2C77.0001 83.2 78.7001 84.1 78.7001 84.1ZM68.1001 80.2C67.3001 81.5 66.9001 82.2 66.9001 82.2C64.0001 80.2 62.4001 79.1 62.4001 79.1C63.7001 78.1 64.5001 77.7 64.5001 77.7C66.9001 79.4 68.1001 80.2 68.1001 80.2ZM95.7001 112L94.6001 114.5C94.6001 114.6 94.6001 114.7 94.7001 114.7L95.1001 114.9C95.2001 114.9 95.3001 114.9 95.3001 114.8L96.4001 112.3C96.4001 112.2 96.4001 112.1 96.3001 112.1L96.0001 112C95.9001 111.8 95.9001 111.8 95.7001 112ZM102 116L100.9 118.5C100.9 118.6 100.9 118.7 101 118.7L101.4 118.9C101.5 118.9 101.6 118.9 101.6 118.8L102.7 116.3C102.7 116.2 102.7 116.1 102.6 116.1L102.2 115.9C102.1 115.9 102 115.9 102 116ZM104.1 117.4L103 119.9C103 120 103 120.1 103.1 120.1L103.5 120.3C103.6 120.3 103.7 120.3 103.7 120.2L104.8 117.7C104.8 117.6 104.8 117.5 104.7 117.5L104.3 117.3C104.2 117.2 104.1 117.2 104.1 117.4ZM106.1 118.8L105 121.3C105 121.4 105 121.5 105.1 121.5L105.5 121.7C105.6 121.7 105.7 121.7 105.7 121.6L106.8 119.1C106.8 119 106.8 118.9 106.7 118.9L106.3 118.7C106.3 118.7 106.1 118.7 106.1 118.8ZM97.8001 113.3L96.7001 115.8C96.7001 115.9 96.7001 116 96.8001 116L97.2001 116.2C97.3001 116.2 97.4001 116.2 97.4001 116.1L98.5001 113.6C98.5001 113.5 98.5001 113.4 98.4001 113.4L98.0001 113.2C97.9001 113.2 97.9001 113.2 97.8001 113.3ZM100 114.7L98.9001 117.2C98.9001 117.3 98.9001 117.4 99.0001 117.4L99.4001 117.6C99.5001 117.6 99.6001 117.6 99.6001 117.5L100.7 115C100.7 114.9 100.7 114.8 100.6 114.8L100.2 114.6C100.1 114.6 100 114.6 100 114.7ZM89.6001 108L88.5001 110.5C88.5001 110.6 88.5001 110.7 88.6001 110.7L89.0001 111C89.1001 111 89.2001 111 89.2001 110.9L90.3001 108.4C90.3001 108.3 90.3001 108.2 90.2001 108.2L89.8001 108C89.7001 107.9 89.6001 107.9 89.6001 108ZM91.6001 109.2L90.5001 111.7C90.5001 111.8 90.5001 111.9 90.6001 111.9L91.0001 112.1C91.1001 112.1 91.2001 112.1 91.2001 112L92.3001 109.5C92.3001 109.4 92.3001 109.3 92.2001 109.3L91.8001 109.2C91.8001 109.1 91.6001 109.2 91.6001 109.2ZM93.7001 110.6L92.7001 113.1C92.7001 113.2 92.7001 113.3 92.8001 113.3L93.2001 113.5C93.3001 113.5 93.4001 113.5 93.4001 113.4L94.5001 110.9C94.5001 110.8 94.5001 110.7 94.4001 110.7L94.0001 110.5C93.8001 110.5 93.7001 110.6 93.7001 110.6ZM81.1001 102.5L80.0001 105C80.0001 105.1 80.0001 105.2 80.1001 105.2L80.5001 105.4C80.6001 105.4 80.7001 105.4 80.7001 105.3L81.8001 102.8C81.8001 102.7 81.8001 102.6 81.7001 102.6L81.3001 102.4C81.3001 102.2 81.1001 102.3 81.1001 102.5ZM83.2001 103.7L82.1001 106.2C82.1001 106.3 82.1001 106.4 82.2001 106.4L82.6001 106.6C82.7001 106.6 82.8001 106.6 82.8001 106.5L83.9001 104C83.9001 103.9 83.9001 103.8 83.8001 103.8L83.4001 103.7C83.3001 103.5 83.2001 103.7 83.2001 103.7ZM85.2001 105.1L84.1001 107.6C84.1001 107.7 84.1001 107.8 84.2001 107.8L84.6001 108C84.7001 108 84.8001 108 84.8001 107.9L85.9001 105.4C85.9001 105.3 85.9001 105.2 85.8001 105.2L85.4001 105C85.4001 105 85.4001 105.1 85.2001 105.1ZM87.3001 106.4L86.2001 108.9C86.2001 109 86.2001 109.1 86.3001 109.1L86.7001 109.3C86.8001 109.3 86.9001 109.3 86.9001 109.2L88.0001 106.7C88.0001 106.6 88.0001 106.5 87.9001 106.5L87.5001 106.3C87.4001 106.3 87.4001 106.3 87.3001 106.4ZM108.2 120.1L107.1 122.6C107.1 122.7 107.1 122.8 107.2 122.8L107.6 123C107.7 123 107.8 123 107.8 122.9L108.9 120.4C108.9 120.3 108.9 120.2 108.8 120.2L108.4 120C108.3 120 108.2 120 108.2 120.1ZM82.3001 111.4C82.2001 110 82.1001 108.6 81.9001 107.3C81.9001 107.3 86.7001 110.4 96.4001 116.8C94.3001 118.2 93.4001 118.8 93.4001 118.8C86.0001 113.8 82.3001 111.4 82.3001 111.4ZM66.0001 94.8C65.5001 95.3 65.3001 95.6 65.3001 95.6C73.2001 101.1 77.0001 103.9 77.0001 103.9C77.4001 103.3 77.6001 103.1 77.6001 103.1C69.9001 97.5 66.0001 94.8 66.0001 94.8ZM69.1001 100.1C68.9001 100.3 68.7001 100.5 68.7001 100.5C72.7001 103.3 74.6001 104.7 74.6001 104.7C74.8001 104.5 74.8001 104.2 74.8001 104.2C71.0001 101.4 69.1001 100.1 69.1001 100.1ZM68.4001 101C68.2001 101.2 68.0001 101.4 68.0001 101.4C72.0001 104.2 73.9001 105.6 73.9001 105.6C74.1001 105.4 74.1001 105.1 74.1001 105.1C70.4001 102.5 68.4001 101 68.4001 101ZM64.8001 102.6C64.3001 103.1 64.1001 103.4 64.1001 103.4C72.0001 108.9 72.8001 109.2 72.8001 109.2C73.2001 108.6 73.4001 108.4 73.4001 108.4C65.7001 102.9 64.8001 102.6 64.8001 102.6ZM68.1001 91.3C67.6001 91.8 66.5001 93.7 66.5001 93.7C74.4001 99.2 76.6001 101.3 76.6001 101.3C77.0001 100.7 78.2001 98.3 78.2001 98.3C70.6001 92.9 68.1001 91.3 68.1001 91.3ZM72.3001 111.8C72.5001 110.5 72.5001 109.9 72.5001 109.9C66.7001 106.2 63.9001 104.3 63.9001 104.3C63.1001 110.3 62.7001 114.1 62.8001 115.8C65.1001 117 66.2001 117.6 66.2001 117.6C66.3001 116.2 66.4001 115.4 66.4001 115.4C66.8001 117.1 66.9001 118 66.9001 118C69.9001 119.6 71.5001 120.4 71.5001 120.4C71.9001 115.7 72.1001 113.4 72.1001 113.4C70.8001 112.8 70.0001 112.4 70.0001 112.4C71.3001 112.6 71.9001 112.9 71.9001 112.9C68.9001 111 67.4001 109.9 67.6001 109.8C70.7001 111.1 72.3001 111.8 72.3001 111.8ZM63.6001 91.2C64.7001 89.6 65.3001 88.9 65.3001 88.9C60.5001 85.3 58.1001 83.5 58.1001 83.5C56.7001 83.9 55.9001 84 55.9001 84C58.3001 86 59.5001 87.1 59.5001 87.1C55.2001 85.1 53.1001 84.1 53.1001 84.1C52.4001 85.1 52.0001 85.5 52.0001 85.7C59.8001 89.4 63.6001 91.2 63.6001 91.2ZM51.8001 83.1C52.2001 83.3 52.5001 83.5 53.0001 83.5C53.5001 82.2 54.3001 81 55.5001 80.3C55.1001 79.8 54.8001 79.3 54.3001 79C53.0001 80 52.1001 81.4 51.8001 83.1ZM50.6001 82.4C50.8001 80.7 51.7001 79.3 53.1001 78.4C50.1001 76.6 48.5001 75.6 48.5001 75.6C47.7001 76.8 47.1001 78.2 46.8001 79.8C49.2001 81.6 50.6001 82.4 50.6001 82.4ZM48.2001 74.8C39.5001 68.7 35.2001 65.7 35.2001 65.7C35.2001 65.7 34.5001 66.1 32.9001 66.8C32.9001 66.8 32.9001 68.1 32.9001 70.8C32.9001 70.8 37.1001 73.8 45.6001 79.9C45.4001 77.7 46.3001 75.8 48.2001 74.8ZM39.3001 79.3C40.7001 78.7 41.5001 78.3 41.5001 78.3C35.6001 73.9 32.6001 71.7 32.6001 71.7C32.6001 73.1 32.6001 73.7 32.6001 73.7C37.2001 77.5 39.3001 79.3 39.3001 79.3ZM130.5 133.6C130.4 133.5 130.3 133.4 130.3 133.2C130.3 133.1 130.4 133 130.5 132.8C130.6 132.8 130.7 132.8 130.9 132.9C133.1 134.6 134.2 135.4 134.2 135.4C133.5 136.6 133.1 137.3 133.1 137.3C132.9 137.4 132.6 137.4 132.4 137.3C132.2 137.2 132 136.9 132.2 136.6C132.7 135.9 132.9 135.4 132.9 135.4C131.3 134.2 130.5 133.6 130.5 133.6Z" fill="#666666"/>
<path fill-rule="evenodd" clip-rule="evenodd" d="M130.1 132.1C130.2 132 130.3 132 130.3 132.1C130.4 132.2 130.4 132.3 130.4 132.5C129.8 133.5 129.4 133.9 129.4 133.9C129.4 134 129.3 134 129.2 134C129.1 134 129.1 133.9 129 133.9C129 133.8 129 133.7 129 133.7C129.8 132.6 130.1 132.1 130.1 132.1ZM125.8 131.8C125.7 131.9 125.6 131.9 125.4 131.9C125.3 131.8 125.3 131.7 125.3 131.5C125.8 130.7 126.1 130.2 126.5 129.8C126.5 129.8 127.3 130.5 129.2 131.8C129.3 132 129.4 132.3 129.2 132.5C129.1 132.7 128.8 132.7 128.6 132.6C127.2 131.5 126.3 130.9 126.3 131C126.2 131.3 125.9 131.5 125.8 131.8ZM120.1 127.9C120 128 119.9 128 119.7 128C119.6 127.9 119.6 127.8 119.6 127.6C120.1 126.8 120.4 126.3 120.8 125.9C120.8 125.9 123.3 127.8 125.1 129.1C125.2 129.3 125.3 129.6 125.1 129.8C125 130 124.7 130 124.5 129.9C123.1 128.8 120.5 127 120.5 127C120.5 127.4 120.3 127.7 120.1 127.9ZM99.6002 106.7C100.4 105.7 100.8 105.3 100.8 105.3C93.7002 99.9001 90.2002 97.3001 90.2002 97.3001C89.0002 99.6001 88.4002 100.8 88.4002 100.8C93.2002 104.2 95.5002 105.7 95.5002 105.7C95.7002 105.6 96.0002 105.2 96.0002 104.9C93.7002 102.9 92.6002 101.9 92.6002 101.9C97.2002 105.1 99.6002 106.7 99.6002 106.7ZM78.8002 84.1001C77.7002 85.3001 77.5002 85.9001 77.5002 85.9001C84.7002 91.3001 88.5002 93.9001 88.5002 93.9001C87.5002 94.7001 87.1002 95.1001 87.1002 95.1001C82.3002 91.7001 80.0002 89.9001 80.0002 89.9001C79.6002 90.4001 79.4002 90.6001 79.4002 90.6001C84.2002 94.0001 86.5002 95.5001 86.5002 95.5001C85.9002 96.2001 85.5002 96.6001 85.5002 96.6001C79.3002 92.8001 76.3002 90.8001 76.3002 90.8001C76.2002 87.8001 76.2002 86.2001 76.2002 86.2001C73.3002 84.3001 71.7002 83.3001 71.7002 83.3001C68.7002 85.5001 67.2002 86.5001 67.2002 86.5001C62.9002 83.3001 60.7002 81.7001 60.7002 81.7001C61.4002 80.9001 61.8002 80.5001 61.8002 80.5001C65.9002 83.0001 68.1002 84.3001 68.1002 84.5001C70.9002 82.8001 72.2002 81.9001 72.2002 81.9001C73.6002 80.5001 73.9002 80.3001 73.9002 80.3001C77.0002 83.2001 78.8002 84.1001 78.8002 84.1001ZM68.1002 80.2001C67.3002 81.5001 66.9002 82.2001 66.9002 82.2001C64.0002 80.2001 62.4002 79.1001 62.4002 79.1001C63.7002 78.1001 64.5002 77.7001 64.5002 77.7001C66.9002 79.4001 68.1002 80.2001 68.1002 80.2001ZM112.9 123.4C112.9 123.5 113 123.5 113 123.6C113.1 123.6 113.2 123.6 113.4 123.5C113.5 123.3 113.8 123 114 122.9C114 122.9 117.5 125.3 119 126.4C119.2 126.5 119.5 126.4 119.6 126.3C119.7 126.1 119.7 125.8 119.6 125.6C117.8 124.3 114.3 121.6 114.3 121.6C113.9 122 113.6 122.4 113.1 123.3C112.9 123.2 112.9 123.4 112.9 123.4ZM108.2 117.6C108.9 118.3 109.5 119 110.1 119.8C110.2 119.8 110.2 119.8 110.3 119.7C110.4 119.6 110.5 119.5 110.5 119.3C110.5 119.2 110.4 119.1 110.3 118.9L108.2 117.6ZM102.8 112.4C103.9 113.4 105 114.3 106.1 115.3L113.8 120.3C114.6 119.7 115 119.5 115 119.5C115 119.5 114 118.5 112.2 116.5C112.6 115.9 112.6 115.5 112.4 115.4C112.4 115.4 111.4 114.7 109.6 113.1C109.6 113.1 109.8 112.9 110.3 112.3C110.3 112.3 110.8 112.3 111.6 112.3C111.6 112.3 111.8 112.1 112.4 111.6C112.4 111.6 111.9 111 110.8 109.9C110.8 109.9 110.1 110.7 108.5 112.4C108.5 112.4 106.4 110.7 102.2 107.5C102.2 107.5 101.6 108 100.5 109.1C100.5 109.1 103.3 111.5 108.8 116.2C108.8 116.2 106.9 114.8 102.9 112L102.8 112.4ZM79.9002 99.8001C81.6002 100.4 83.3002 101.1 85.0002 101.8L80.9002 99.0001C80.5002 99.2001 80.2002 99.5001 79.9002 99.8001ZM73.2002 98.6001C74.2002 98.7001 75.1002 98.8001 76.1002 98.8001C74.9002 98.7001 73.8002 98.2001 73.0002 97.5001C74.7002 98.0001 76.4002 98.6001 78.0002 99.2001C78.2002 98.7001 78.4002 98.4001 78.4002 98.4001C70.7002 93.0001 68.3002 91.4001 68.3002 91.4001C67.8002 91.9001 66.7002 93.8001 66.7002 93.8001C69.4002 95.9001 71.6002 97.4001 73.2002 98.6001ZM65.4002 95.5001C67.0002 96.6001 68.8002 97.4001 70.6002 98.0001L66.0002 94.8001L65.4002 95.5001ZM57.7002 85.5001L59.5002 87.1001L58.1002 86.4001C58.5002 87.4001 58.9002 88.3001 59.5002 89.3001L63.6002 91.2001C64.7002 89.6001 65.3002 88.9001 65.3002 88.9001C60.5002 85.3001 58.1002 83.5001 58.1002 83.5001C56.7002 83.9001 55.9002 84.0001 55.9002 84.0001L57.7002 85.5001ZM55.5002 85.2001C56.6002 86.3001 57.6002 87.5001 58.5002 88.8001L57.9002 86.4001L55.5002 85.2001ZM52.0002 82.0001C52.4002 82.2001 52.7002 82.6001 53.1002 82.8001C53.6002 81.7001 54.4002 80.8001 55.4002 80.0001C55.0002 79.5001 54.7002 79.0001 54.2002 78.7001C53.2002 79.8001 52.5002 80.8001 52.0002 82.0001ZM46.9002 79.0001C48.2002 79.6001 49.6002 80.3001 50.8002 81.2001C51.2002 80.0001 52.0002 79.0001 53.0002 78.4001C50.0002 76.6001 48.4002 75.6001 48.4002 75.6001C47.8002 76.6001 47.2002 77.8001 46.9002 79.0001ZM41.4002 77.0001C42.8002 77.4001 44.2002 77.8001 45.5002 78.3001C45.9002 76.7001 46.8002 75.5001 48.0002 74.7001C39.3002 68.6001 35.0002 65.6001 35.0002 65.6001C35.0002 65.6001 34.3002 66.0001 32.7002 66.7001C32.7002 66.7001 32.7002 68.0001 32.7002 70.7001L41.4002 77.0001ZM35.6002 76.2001C36.8002 76.2001 37.9002 76.3001 39.1002 76.6001L32.7002 71.8001C32.7002 73.2001 32.7002 73.8001 32.7002 73.8001L35.6002 76.2001ZM130.5 133.6C130.4 133.5 130.3 133.4 130.3 133.2C130.3 133.1 130.4 133 130.5 132.8C130.6 132.8 130.7 132.8 130.9 132.9C133.1 134.6 134.2 135.4 134.2 135.4C133.5 136.6 133.1 137.3 133.1 137.3C132.9 137.4 132.6 137.4 132.4 137.3C132.2 137.2 132 136.9 132.2 136.6C132.7 135.9 132.9 135.4 132.9 135.4C131.3 134.2 130.5 133.6 130.5 133.6Z" fill="#999999"/>
<path fill-rule="evenodd" clip-rule="evenodd" d="M64.7999 103.9L65.4999 103.1C64.9999 102.7 64.8999 102.7 64.8999 102.7C64.3999 103.2 64.1999 103.5 64.1999 103.5C64.2999 103.5 64.5999 103.8 64.7999 103.9ZM71.9999 117L63.7999 113.2C63.8999 112.5 63.8999 112.1 63.8999 112.1C63.6999 112.8 63.3999 113.1 63.3999 113.1C63.3999 110.2 63.7999 107.3 64.4999 104.6L63.9999 104.2C63.1999 110.2 62.7999 114 62.8999 115.7C65.1999 116.9 66.2999 117.5 66.2999 117.5C66.3999 116.1 66.4999 115.3 66.4999 115.3C66.8999 117 66.9999 118 66.9999 118C69.9999 119.6 71.5999 120.4 71.5999 120.4L71.9999 117Z" fill="#333333"/>
<path fill-rule="evenodd" clip-rule="evenodd" d="M94.0998 118.2L82.2998 109.6C82.2998 110.2 82.3998 110.7 82.3998 111.3C82.3998 111.3 86.0998 113.8 93.4998 118.7L94.0998 118.2Z" fill="#333333"/>
<path fill-rule="evenodd" clip-rule="evenodd" d="M107.8 121L108.5 121.5L108.9 120.5C108.9 120.4 108.9 120.3 108.8 120.3L108.4 120.1C108.3 120.1 108.2 120.1 108.2 120.2L107.8 121ZM105.8 119.6L106.5 120.1L106.9 119.3C106.9 119.2 106.9 119.1 106.8 119.1L106.4 118.7C106.3 118.7 106.2 118.7 106.2 118.8L105.8 119.6ZM103.7 118.2L104.4 118.7L104.8 117.7C104.8 117.6 104.8 117.5 104.7 117.5L104.3 117.3C104.2 117.3 104.1 117.3 104.1 117.4L103.7 118.2ZM101.7 116.9L102.4 117.4L102.8 116.6C102.8 116.5 102.8 116.4 102.7 116.4L102.3 116.2C102.2 116.2 102.1 116.2 102.1 116.3L101.7 116.9ZM99.5998 115.6L100.3 116.1L100.7 115.3C100.7 115.2 100.7 115.1 100.6 115.1L100.2 114.9C100.1 114.9 99.9998 114.9 99.9998 115L99.5998 115.6ZM97.3998 114.1L98.0998 114.6L98.4998 113.8C98.4998 113.7 98.4998 113.6 98.3998 113.6L97.9998 113.4C97.8998 113.4 97.7998 113.4 97.7998 113.5L97.3998 114.1ZM95.4998 112.8L96.1998 113.3L96.5998 112.5C96.5998 112.4 96.5998 112.3 96.4998 112.3L95.9998 112C95.8998 112 95.7998 112 95.7998 112.1L95.4998 112.8ZM93.4998 111.5L94.1998 112L94.5998 111.2C94.5998 111.1 94.5998 111 94.4998 111L94.0998 110.8C93.9998 110.8 93.8998 110.8 93.8998 110.9L93.4998 111.5ZM91.2998 110L91.9998 110.5L92.3998 109.7C92.3998 109.6 92.3998 109.5 92.2998 109.5L91.8998 109.3C91.7998 109.3 91.6998 109.3 91.6998 109.4L91.2998 110ZM89.1998 108.7L89.8998 109.2L90.2998 108.4C90.2998 108.3 90.2998 108.2 90.1998 108.2L89.7998 108C89.6998 108 89.5998 108 89.5998 108.1L89.1998 108.7ZM86.9998 107.1L87.6998 107.6L88.0998 106.8C88.0998 106.7 88.0998 106.6 87.9998 106.6L87.5998 106.4C87.4998 106.4 87.3998 106.4 87.3998 106.5L86.9998 107.1ZM84.9998 105.8L85.6998 106.3L86.0998 105.6C86.0998 105.5 86.0998 105.4 85.9998 105.4L85.5998 105.2C85.4998 105.2 85.3998 105.2 85.3998 105.3L84.9998 105.8ZM82.7998 104.5L83.4998 105L83.8998 104.3C83.8998 104.2 83.8998 104.1 83.7998 104.1L83.3998 103.7C83.2998 103.7 83.1998 103.7 83.1998 103.8L82.7998 104.5ZM80.7998 103.1L81.4998 103.6L81.8998 102.9C81.8998 102.8 81.8998 102.7 81.7998 102.7L81.3998 102.5C81.2998 102.5 81.1998 102.5 81.1998 102.6L80.7998 103.1Z" fill="#E6E6E6"/>
<path fill-rule="evenodd" clip-rule="evenodd" d="M129.7 132.9L130.1 133.1L130.6 132.5C130.7 132.4 130.6 132.3 130.5 132.1C130.4 132 130.3 132 130.3 132.1L129.7 132.9ZM126.1 130.3L129.2 132.5C129.3 132.3 129.3 132 129.1 131.9C127.3 130.6 126.4 129.9 126.4 129.9C126.4 130 126.3 130.2 126.1 130.3ZM120.4 126.5L125.4 129.9C125.5 129.7 125.5 129.4 125.3 129.3C123.5 128 121 126.1 121 126.1C120.7 126.1 120.6 126.2 120.4 126.5ZM113.7 121.9L119.5 125.9C119.5 125.8 119.5 125.7 119.4 125.5C117.6 124.2 114.1 121.5 114.1 121.5C114 121.7 113.9 121.8 113.7 121.9ZM101.9 108L112.3 116.3C112.5 115.8 112.5 115.6 112.4 115.5C112.4 115.5 111.4 114.8 109.6 113.2C109.6 113.2 109.8 113 110.3 112.4C110.3 112.4 110.8 112.4 111.6 112.4C111.6 112.4 111.8 112.2 112.4 111.7C112.4 111.7 111.9 111.1 110.8 110C110.8 110 110.1 110.8 108.5 112.5C108.5 112.5 106.4 110.8 102.2 107.6L101.9 108ZM89.6002 98.3L99.9002 106.3L100.9 105.2C93.8002 99.8 90.3002 97.2 90.3002 97.2L89.6002 98.3ZM71.2002 82.6L87.5002 94.6L88.3002 93.9C88.3002 93.9 84.7002 91.3 77.3002 85.9C77.3002 85.9 77.9002 85.2 78.9002 84.1L73.7002 80.5L72.0002 82.2L71.2002 82.6ZM63.7002 78.3L67.6002 81.1L68.1002 80.3C68.1002 80.3 66.9002 79.5 64.5002 77.8L63.7002 78.3ZM130.3 133.3C130.3 133.2 130.3 133.2 130.3 133.3C130.3 133.1 130.4 132.9 130.5 132.8C130.6 132.8 130.7 132.8 130.9 132.9C133.1 134.6 134.2 135.4 134.2 135.4L134 135.8L130.3 133.3Z" fill="#E6E6E6"/>
<path fill-rule="evenodd" clip-rule="evenodd" d="M53.0999 80.1001L54.3999 81.1001C54.7999 80.7001 55.0999 80.5001 55.4999 80.3001C55.0999 79.8001 54.7999 79.3001 54.2999 79.0001C53.7999 79.3001 53.2999 79.8001 53.0999 80.1001ZM47.8999 76.4001L51.8999 79.3001C52.2999 78.9001 52.5999 78.7001 52.9999 78.5001C49.9999 76.7001 48.3999 75.7001 48.3999 75.7001C48.2999 75.9001 48.1999 76.2001 47.8999 76.4001ZM33.8999 66.2001L46.8999 75.7001C47.2999 75.3001 47.5999 75.0001 48.0999 74.7001C39.3999 68.6001 35.0999 65.6001 35.0999 65.6001L33.8999 66.2001Z" fill="#E6E6E6"/>
<path fill-rule="evenodd" clip-rule="evenodd" d="M80.0002 112.7C80.5002 112.7 81.0002 112.5 81.3002 112.1C82.4002 113.5 82.9002 114.3 82.9002 114.3C83.0002 114.7 82.9002 115.1 82.7002 115.6C82.2002 116.1 81.6002 116.4 81.0002 116.6C80.5002 116.6 80.0002 116 79.3002 114.8C77.4002 111.8 78.5002 105.8 80.3002 108.7C80.8002 109.7 81.0002 110.6 81.1002 111.7C80.9002 112.1 80.5002 112.4 80.0002 112.7ZM73.2002 110.9C73.3002 109.3 74.2002 107.9 75.5002 107.3C75.0002 109.1 75.0002 110.9 75.6002 112.7C74.6002 112.4 73.6002 111.8 73.2002 110.9ZM78.6002 114.7C77.4002 111.1 77.5002 108.3 78.8002 107.4C78.9002 106.9 78.8002 106.4 78.6002 106C78.4002 105.6 77.9002 105.3 77.4002 105.3C75.2002 105.2 74.0002 112.7 78.6002 114.7ZM86.6002 117.8C86.8002 117.4 87.2002 117.2 87.7002 117.1C85.9002 115.2 85.0002 114.3 85.0002 114.3C84.6002 113.9 84.2002 113.8 83.7002 114.2C83.2002 114.4 83.1002 114.9 83.1002 115.5C84.4002 117.2 85.2002 118.1 85.2002 118.1C85.6002 118.4 86.1002 118.3 86.6002 117.8Z" fill="#666666"/>
<path fill-rule="evenodd" clip-rule="evenodd" d="M78.6998 113.4C78.7998 113.9 79.0998 114.2 79.1998 114.6C79.1998 114.7 79.2998 114.7 79.2998 114.7C79.3998 114.9 79.4998 115.1 79.4998 115.2C80.4998 115.2 81.3998 114.6 81.8998 113.6C81.2998 112.8 81.0998 112.4 81.0998 112.4C80.5998 112.6 79.9998 112.8 79.4998 112.6C79.9998 112.5 80.1998 112 80.2998 111.5C80.0998 111.9 79.8998 112 79.8998 112C80.2998 111.5 80.3998 110.8 79.9998 110C79.5998 108.7 79.2998 108 78.8998 107.8C78.3998 108.5 77.9998 111.1 78.6998 113.4ZM75.7998 111.5C76.2998 111.7 76.7998 112 77.0998 112.5C76.8998 111.4 76.9998 110.2 77.0998 109C76.9998 108.9 76.8998 108.9 76.8998 108.9C77.0998 108.9 77.2998 108.9 77.2998 108.9C77.0998 108.7 76.7998 108.4 76.5998 108.3C76.7998 108.3 77.1998 108.3 77.3998 108.5C77.5998 107.8 78.1998 107.4 78.7998 107.4C78.8998 106.9 78.7998 106.4 78.5998 106C78.3998 105.6 77.8998 105.3 77.3998 105.3C75.8998 105.2 74.7998 108.7 75.7998 111.5ZM75.4998 107.3C74.4998 108 73.8998 109.1 73.7998 110.3C74.1998 110.8 74.5998 111.1 75.1998 111.4C74.9998 109.9 75.0998 108.6 75.4998 107.3ZM86.7998 116.2L84.9998 114.4C84.5998 114 84.1998 113.9 83.6998 114.3C83.5998 114.4 83.4998 114.5 83.2998 114.7C84.4998 116.5 85.1998 117.3 85.5998 117.6C85.7998 116.8 86.1998 116.3 86.7998 116.2Z" fill="#999999"/>
<path fill-rule="evenodd" clip-rule="evenodd" d="M79.3002 114.8C78.6002 112.6 78.5002 110.2 79.1002 108C78.3002 108.5 77.9002 111.2 78.6002 113.4C78.7002 113.9 79.0002 114.2 79.1002 114.6C79.2002 114.7 79.3002 114.7 79.3002 114.8Z" fill="#B3B3B3"/>
<path fill-rule="evenodd" clip-rule="evenodd" d="M78.7999 107.4C78.7999 106.9 78.6999 106.4 78.3999 106.2C77.9999 105.8 77.6999 105.7 77.1999 105.7C77.2999 105.8 77.3999 105.9 77.3999 105.9C75.6999 107.1 74.9999 109.4 75.6999 111.4C75.6999 111.4 75.6999 111.3 75.5999 111.3C74.7999 108.5 75.7999 105.3 77.2999 105.2C77.7999 105.2 78.0999 105.6 78.4999 105.9C78.7999 106.4 78.9999 106.9 78.7999 107.4Z" fill="#B3B3B3"/>
<path fill-rule="evenodd" clip-rule="evenodd" d="M55.0001 94.9C54.9001 93.9 55.2001 92 56.2001 91.5C57.2001 92.1 59.5001 93.3 59.5001 93.3C60.3001 93.8 60.6001 95 60.1001 95.9C59.6001 96.9 58.9001 96.9 57.9001 96.4C55.9001 95.3 55.0001 94.9 55.0001 94.9Z" fill="#666666"/>
<path fill-rule="evenodd" clip-rule="evenodd" d="M55.2998 93.0999C55.3998 92.3999 55.7998 91.6999 56.2998 91.3999C57.2998 91.9999 59.5998 93.1999 59.5998 93.1999C60.2998 93.6999 60.5998 94.4999 60.3998 95.1999C60.2998 93.8999 59.3998 93.4999 58.9998 93.2999C57.8998 92.6999 56.8998 93.3999 57.7998 94.3999C56.6998 94.0999 56.0998 93.5999 55.2998 93.0999Z" fill="#4C4C4C"/>
<path fill-rule="evenodd" clip-rule="evenodd" d="M37.6001 92.0999C37.6001 89.1999 38.3001 86.2999 39.9001 83.8999C39.9001 83.8999 42.4001 83.7999 47.5001 83.3999C48.8001 84.3999 49.6001 84.9999 49.6001 84.9999C49.6001 85.7999 49.6001 86.5999 49.2001 87.3999C52.9001 89.6999 54.9001 90.8999 54.9001 90.8999C54.2001 91.9999 53.8001 93.2999 53.7001 94.5999C50.3001 92.9999 48.9001 92.2999 49.1001 92.3999C50.4001 93.7999 51.9001 94.9999 53.4001 96.0999C52.9001 97.2999 52.2001 98.2999 51.3001 99.0999C50.0001 98.5999 48.8001 97.7999 47.8001 96.6999C48.5001 97.8999 49.5001 98.9999 50.6001 99.6999C50.7001 100.4 49.9001 100.5 48.1001 100.2C48.5001 100.4 48.9001 100.7 49.4001 100.7C49.3001 101.2 48.7001 101.4 47.7001 101.5C44.9001 101.7 42.0001 100.5 40.1001 98.3999C41.4001 96.3999 40.9001 95.5999 38.7001 96.3999C38.3001 95.7999 38.6001 94.5999 39.5001 92.7999C40.1001 91.6999 40.2001 90.8999 40.1001 90.3999C39.5001 91.5999 38.8001 92.8999 37.8001 94.1999C38.6001 91.7999 39.0001 90.4999 38.9001 89.9999C38.1001 91.2999 37.6001 92.0999 37.6001 92.0999Z" fill="#2C3032"/>
<path fill-rule="evenodd" clip-rule="evenodd" d="M37.6001 92.1C37.6001 89.9 38.0001 87.9 38.8001 86C38.6001 87.4 38.6001 87.3 39.2001 88.4C39.7001 87.2 40.4001 86.5 41.9001 86.1C40.3001 89.1 42.0001 93.7 46.2001 95.1C45.6001 94.4 45.0001 93.1 45.0001 92.1C46.3001 93.9 48.4001 95.3 51.0001 96.9C51.8001 97.4 52.0001 97.4 52.9001 97.3C52.5001 97.9 52.1001 98.5 51.5001 99C50.2001 98.5 49.0001 97.7 48.0001 96.6C48.7001 97.8 49.7001 98.9 50.8001 99.6C50.9001 100.3 50.1001 100.4 48.3001 100.1C48.7001 100.3 49.1001 100.6 49.6001 100.6C49.5001 101.1 48.9001 101.3 47.9001 101.4C45.1001 101.6 42.2001 100.4 40.3001 98.3C41.6001 96.3 41.1001 95.5 38.9001 96.3C38.5001 95.7 38.8001 94.5 39.7001 92.7C40.3001 91.6 40.4001 90.8 40.3001 90.3C39.7001 91.5 39.0001 92.8 38.0001 94.1C38.8001 91.7 39.2001 90.4 39.1001 89.9C38.1001 91.3 37.6001 92.1 37.6001 92.1Z" fill="#202325"/>
<path fill-rule="evenodd" clip-rule="evenodd" d="M90.6 69.8999C89.6 70.2999 88.4 73.0999 88.1 74.1999C87.9 72.2999 88.1 70.3999 88.8 68.5999C87.4 69.6999 86.3 71.0999 85.7 72.7999C84.7 65.5999 85.9 58.3999 89 51.8999C94 53.0999 98.2 56.6999 100.4 61.6999C97.6 62.0999 95 63.4999 93 65.6999C93.7 71.0999 95.8 76.1999 98.9 80.4999C98.5 79.0999 98.4 78.2999 98.4 78.2999C98.9 78.9999 99.4 79.5999 99.8 80.1999C101.7 78.5999 104.1 77.9999 106.6 78.3999C108.7 81.1999 109.7 84.7999 109.7 88.3999C106.8 86.9999 103.7 86.5999 100.5 87.1999C107 88.8999 113.7 91.9999 111.5 102.8C110.5 100.5 108.6 98.7999 106.3 98.4999C109.3 100.7 110.9 104.4 110.4 108.3C109.3 109.5 108.8 110.2 108.8 110.2C105.7 106 101.7 102.6 97.3 99.9999C98.7 99.5999 100.2 99.8999 101.4 100.7C101.5 97.6999 99.2 92.9999 96.6 91.0999C98.8 91.7999 101.4 93.2999 103 95.9999C103 91.1999 95.3 88.2999 93.6 82.6999C95.2 83.8999 96.3 84.9999 98.4 85.2999C94.7 83.6999 91 75.2999 90.6 69.8999Z" fill="#3C4245"/>
<path fill-rule="evenodd" clip-rule="evenodd" d="M110.4 107.1C110.4 107.1 110.4 107.3 110.4 107.1C109.1 107.2 107.7 107.2 106.4 107.3C103.7 104.4 100.7 102 97.3001 100.1C98.7001 99.7 100.2 100 101.4 100.8C101.5 97.8 99.2001 93.1 96.6001 91.3C99.4001 92.4 101.9 94.5 106 104.3C106.5 102.5 106.1 100.7 105.3 99C108.1 101.1 109.6 104 110.4 107.1Z" fill="#2C3032"/>
<path fill-rule="evenodd" clip-rule="evenodd" d="M90.6001 69.9C89.6001 70.3 88.4001 73.0999 88.1001 74.1999C87.9001 72.2999 88.1001 70.3999 88.8001 68.5999C87.4001 69.6999 86.3001 71.1 85.7001 72.8C84.7001 66.1 85.2001 61.9 89.2001 56.7C88.7001 59.9 88.2001 62.1 88.5001 65.3C89.2001 64 90.3001 62.8999 91.9001 62.2999C91.5001 70.5999 94.4001 79.4999 100 84.1999C99.3001 82.5999 99.3001 82.2999 99.0001 81.1999C100.7 84.2999 102.5 86 106.5 87.3C104.6 86.8 102.5 86.7999 100.6 87.1999C100.1 87.0999 99.6001 87.0999 99.0001 87.0999C100.7 89.6999 101.8 90.8 102.4 93.9C102.4 93.9 102.4 93.9 102.3 93.8C100.4 90.3 94.9001 87.6 93.5001 83C95.1001 84.2 96.2001 85.2999 98.3001 85.5999C94.7001 83.6999 91.0001 75.3 90.6001 69.9Z" fill="#2C3032"/>
<path fill-rule="evenodd" clip-rule="evenodd" d="M87.8999 54.2999C88.2999 53.4999 88.5999 52.6999 88.9999 51.8999C93.9999 53.0999 98.1999 56.6999 100.4 61.6999C99.7999 61.7999 99.0999 61.8999 98.4999 62.0999C94.9999 57.8999 93.1999 54.7999 87.8999 54.2999Z" fill="#878F92"/>
<path fill-rule="evenodd" clip-rule="evenodd" d="M101.4 79.2001C103 78.5001 104.7 78.2001 106.5 78.5001C108.6 81.3001 109.6 84.9001 109.6 88.5001C108.9 88.1001 108.3 87.9001 107.5 87.7001C107 84.5001 106.2 82.1001 104.6 79.3001C103.2 78.9001 102.6 78.7001 101.4 79.2001Z" fill="#878F92"/>
<path fill-rule="evenodd" clip-rule="evenodd" d="M100.5 87.2C106.9 88.9 113.5 92 111.3 102.8C110.8 101.6 110 100.6 109 99.8C110.7 93.8 106.7 89.2 100.5 87.2Z" fill="#878F92"/>
<path fill-rule="evenodd" clip-rule="evenodd" d="M92.6998 96.6999C88.7998 93.5999 86.3998 88.7999 86.2998 83.4999C86.2998 83.4999 87.2998 84.6999 87.9998 86.6999C87.8998 84.3999 87.5998 81.9999 88.4998 79.8999C88.9998 85.7999 90.3998 91.4999 92.6998 96.6999Z" fill="#3C4245"/>
<path fill-rule="evenodd" clip-rule="evenodd" d="M18.2999 74.7999C17.8999 71.9999 19.9999 68.7999 22.7999 67.0999C22.9999 68.3999 23.2999 69.3999 23.5999 70.0999C23.3999 56.7999 28.6999 50.7999 37.9999 51.8999C38.6999 56.6999 38.9999 59.8999 37.5999 64.4999C36.3999 63.6999 36.4999 63.6999 35.1999 62.8999C33.7999 63.5999 31.8999 64.7999 30.6999 65.3999C30.5999 67.6999 30.4999 70.2999 30.5999 73.3999C30.0999 72.0999 29.4999 70.3999 28.3999 69.7999C29.0999 71.5999 29.3999 73.4999 29.0999 75.5999C27.7999 73.1999 24.8999 71.4999 22.5999 72.6999C23.6999 72.5999 24.7999 72.8999 25.5999 73.4999C23.2999 73.0999 20.8999 73.6999 18.9999 75.0999C19.3999 74.4999 19.4999 74.0999 19.4999 74.0999C18.6999 74.5999 18.2999 74.7999 18.2999 74.7999Z" fill="#5B646A"/>
<path fill-rule="evenodd" clip-rule="evenodd" d="M28.5001 69.8999C29.2001 71.6999 29.5001 73.5999 29.2001 75.4999C28.7001 74.4999 28.0001 73.7999 27.1001 73.1999C27.2001 72.6999 27.3001 72.3999 27.5001 71.8999C27.5001 71.2999 27.4001 70.6999 27.4001 69.9999C27.2001 69.2999 26.9001 68.5999 26.6001 67.9999C27.1001 68.3999 27.4001 68.6999 27.9001 69.0999C28.0001 69.3999 28.2001 69.6999 28.5001 69.8999ZM38.5001 56.8999C38.6001 59.3999 38.4001 61.6999 37.7001 64.4999C36.5001 63.6999 36.6001 63.6999 35.3001 62.8999C33.9001 63.5999 32.0001 64.7999 30.8001 65.3999C30.7001 67.6999 30.6001 70.2999 30.7001 73.3999C30.3001 72.3999 30.0001 71.3999 29.4001 70.4999C29.6001 68.5999 29.4001 66.8999 29.6001 65.2999C30.0001 63.4999 32.7001 61.2999 33.5001 59.4999C33.4001 60.4999 33.1001 61.6999 32.5001 62.5999C34.9001 60.9999 35.5001 57.7999 38.5001 56.8999Z" fill="#2C3032"/>
<path fill-rule="evenodd" clip-rule="evenodd" d="M23.7999 68.2C23.8999 56.2 29.1999 50.8001 38.0999 51.9001C30.3999 52.4001 27.2999 56.6001 26.5999 64.5001C26.3999 62.7001 26.1999 60.8001 26.5999 59.1C24.9999 61.9 24.1999 64.9 23.7999 68.2ZM18.2999 74.8001C17.8999 72.0001 19.9999 68.8001 22.7999 67.1C20.4999 69.3001 19.6999 71.3001 19.3999 73.1C20.4999 71.8001 21.4999 71.4 22.8999 71.2C22.3999 71.6 21.7999 71.8001 21.5999 72.4001C22.8999 71.7001 24.9999 71.8001 26.1999 72.8001C24.9999 72.2001 23.6999 72.1001 22.5999 72.8001C23.6999 72.7001 24.7999 73 25.5999 73.6C23.2999 73.2 20.8999 73.8 18.9999 75.2C19.3999 74.6 19.4999 74.2 19.4999 74.2C18.6999 74.6 18.2999 74.8001 18.2999 74.8001Z" fill="#878F92"/>
<path fill-rule="evenodd" clip-rule="evenodd" d="M34.1001 84.6C33.1001 85.2 32.8001 85.4 32.8001 85.4C29.8001 84.9 23.6001 87.2 20.7001 84.7C22.9001 85.1 25.3001 83.1 26.4001 82.1C22.2001 83.1 17.8001 80.7 16.1001 76.3C16.0001 76.6 16.0001 77 16.0001 77.4C15.4001 76.2 15.6001 74.6 16.6001 73.7C16.6001 75.9 18.4001 77.9 21.6001 77.3C20.6001 77.2 19.9001 76.9 19.4001 76.3C22.5001 74.4 26.4001 74.7 29.1001 77.3C28.1001 77.3 27.0001 77.5 26.2001 78.1C29.1001 78.2 31.4001 78.9 33.7001 80.6C32.7001 80.8 31.6001 81.3 31.0001 82.2C33.4001 81.2 36.4001 80.8 38.4001 81.7C35.5001 84.5 33.9001 88.3 33.9001 92.4C33.4001 92.3 33.1001 92 32.7001 91.7C32.5001 89.2 32.9001 86.7 34.1001 84.6Z" fill="#5B646A"/>
<path fill-rule="evenodd" clip-rule="evenodd" d="M26.2001 82C22.0001 82.8 17.7001 80.4 16.2001 76.2C16.0001 76.6 16.0001 77 16.0001 77.4C15.4001 76.2 15.6001 74.6 16.6001 73.7C16.6001 74.9 17.2001 76.1 18.3001 76.8C19.6001 79.4 21.6001 79.4 22.6001 79.7C22.2001 80.1 21.6001 80.1 21.2001 80.1C24.2001 81.4 25.1001 81.5 28.2001 81.3C27.6001 81.5 27.0001 81.8 26.5001 82.1C26.4001 82 26.3001 82 26.2001 82Z" fill="#878F92"/>
<path fill-rule="evenodd" clip-rule="evenodd" d="M32.8002 85.3999C29.8002 84.8999 23.6002 87.1999 20.7002 84.6999C21.7002 84.7999 22.9002 84.6999 25.4002 82.8999C24.6002 83.6999 24.7002 84.7999 25.0002 84.7999C27.1002 85.4999 29.1002 84.1999 32.8002 85.3999Z" fill="#878F92"/>
<path fill-rule="evenodd" clip-rule="evenodd" d="M26.2 78.0999C29.1 78.1999 31.4 78.8999 33.7 80.5999C32.7 80.7999 31.6 81.2999 31 82.1999C33.4 81.1999 36.4 80.7999 38.4 81.6999C37.9 82.1999 37.6 82.6999 37.1 83.0999C33.2 81.7999 29.1 82.9999 27.6 84.1999C28.4 82.9999 29.2 81.8999 30.5 81.3999C28.7 79.4999 26.2 78.9999 23.7 78.1999C24.1 78.1999 25.2 78.0999 26.2 78.0999ZM23 75.0999C25.2 74.9999 27.3 75.6999 29 77.2999C28.4 77.2999 27.9 77.3999 27.3 77.4999C26.3 76.1999 25.2 75.3999 23 75.0999Z" fill="#2C3032"/>
<path fill-rule="evenodd" clip-rule="evenodd" d="M36.7999 87.7999C37.5999 84.8999 39.2999 82.3999 41.3999 80.3999C37.3999 83.1999 34.9999 87.7999 34.8999 92.9999C36.0999 93.5999 36.6999 93.9999 36.6999 93.9999C36.4999 89.0999 38.3999 84.3999 41.8999 81.2999C39.6999 82.5999 37.8999 84.8999 36.7999 87.7999Z" fill="#5B646A"/>
<path fill-rule="evenodd" clip-rule="evenodd" d="M35.3999 93.1C36.3999 93.6 36.7999 93.8 36.7999 93.8C36.6999 90.8 37.3999 87.8 38.6999 85.3C36.9999 87.6 35.9999 90.5 35.7999 93.5C35.6999 91.7 35.7999 89.9 36.1999 88.1C35.5999 89.6 35.3999 91.4 35.3999 93.1Z" fill="#3C4245"/>
<path fill-rule="evenodd" clip-rule="evenodd" d="M36.3 112.9C35.9 113.1 35.5 113.1 35.1 113C34.3 110.5 33.9 107.7 33.9 105.1C34.3 104.6 34.7 104.3 35.3 104C35.4 107 35.7 110 36.3 112.9ZM38.9 113.8C37.7 114.6 36.1 114.9 34.7 114.4C34 114 33.3 111.3 32.8 105.9C32.7 104.9 32.7 104.2 33 103.7C34.2 103 35.1 101.9 35.4 100.5C34.4 101.2 33.5 101.7 32.5 102.3C32.5 102.3 32.5 101.5 32.5 99.9C33.1 98.1 34.4 96.7 36.2 96.3C36.4 104.6 36.8 109.9 37 112.2C37.2 111.2 37.4 110.8 37.4 110.8C37.6 111.9 37.8 112.5 37.8 112.5C37.6 102.4 37.4 97.4 37.4 97.4C38 97.8 38.2 98 38.2 98C38.8 107.8 39.3 113.5 39.5 115.1C39.1 114 38.9 113.8 38.9 113.8Z" fill="#A84300"/>
<path fill-rule="evenodd" clip-rule="evenodd" d="M33.2998 101.6C32.8998 101.7 32.6998 102 32.2998 102.1C32.2998 102.1 32.2998 101.3 32.2998 99.7C32.4998 99.1 32.7998 98.5 33.0998 98C33.1998 99.3 33.1998 100.5 33.2998 101.6ZM37.3998 114.4C36.5998 114.6 35.5998 114.6 34.5998 114.3C33.8998 113.9 33.1998 111.2 32.6998 105.8C32.5998 104.8 32.5998 104.1 32.8998 103.6C33.6998 103.1 34.2998 102.4 34.7998 101.6C34.3998 102.8 33.9998 103.6 33.4998 104.1C33.0998 105.8 33.3998 107.3 34.0998 108.5C34.2998 110.1 34.5998 111.5 35.0998 112.9C35.4998 113 35.8998 113 36.2998 112.8C36.1998 112.1 35.8998 111.2 35.7998 110.5C36.3998 111.4 36.9998 112.7 37.3998 114.4Z" fill="#FF6600"/>
<path fill-rule="evenodd" clip-rule="evenodd" d="M66.9998 119.4C66.9998 120.4 67.0998 120.8 67.0998 120.8C50.8998 120.6 42.2998 120.1 41.0998 119.6C40.2998 111.1 39.8998 104.6 39.7998 100.1C39.9998 100.6 40.3998 100.9 40.8998 101.2C40.9998 103.1 40.9998 104.1 40.9998 104.1C41.0998 102.2 41.0998 101.2 41.0998 101.2C41.4998 101.3 41.6998 101.3 42.0998 101.4C42.4998 110.6 42.7998 115.7 42.8998 116.8C49.0998 117.2 54.6998 117.4 60.1998 117.5C59.6998 112.8 59.9998 108.3 60.8998 103.7C62.2998 102.9 63.0998 102.4 63.0998 102.4C61.6998 107.2 61.2998 112.4 61.8998 117.4C61.9998 116.8 61.9998 116.4 61.9998 116.4C62.1998 117.2 62.3998 117.6 62.3998 117.6C65.3998 118.8 66.9998 119.4 66.9998 119.4Z" fill="#A84300"/>
<path fill-rule="evenodd" clip-rule="evenodd" d="M60.2 117.6V117.4V117.2V117V116.8V116.6V116.4V116.2V116V115.8V115.6V115V114.8V114.6V114.4V114V113.8V113.6V113.4V113V112.8V112.6V112.4V112.2V112V111.8V111.6V111.4V111.2V111V110.8V110.6V110.4V110.2V110V109.8V109.6V109.4V109.2V109V108V107.8V107.6V107.4V107V106.8V106.6V106.4V106.2V106V105.8V105.6V105.4V105.2V105V104.8V104.6V104.4V104.2V104V103.8V103.6V103.4V103.2V103C59 108.2 58.8 113.7 59.5 119C55.4 119.2 50.9 119 46 118.4C50.7 118.7 54.9 118.3 60.2 117.6Z" fill="#FF6600"/>
<path fill-rule="evenodd" clip-rule="evenodd" d="M67.0002 119.4L67.1002 120.8C67.0002 120.2 66.9002 119.8 66.9002 119.8C64.7002 119.1 63.2002 118.6 62.2002 118.2C62.2002 118.6 62.2002 118.9 62.1002 119.3C60.8002 113.8 60.9002 108 62.5002 102.7L63.2002 102.2C61.8002 107 61.4002 112.2 62.0002 117.2C62.1002 116.6 62.1002 116.2 62.1002 116.2C62.3002 117 62.5002 117.4 62.5002 117.4C65.4002 118.8 67.0002 119.4 67.0002 119.4Z" fill="#FF6600"/>
<path fill-rule="evenodd" clip-rule="evenodd" d="M71.2002 67.0999C71.2002 66.4999 71.0002 66.0999 70.2002 65.9999C70.2002 67.9999 70.2002 70.1999 70.2002 72.1999C75.2002 72.2999 78.5002 72.2999 80.6002 72.1999C80.6002 67.9999 80.6002 65.7999 80.6002 65.7999C78.4002 64.9999 75.6002 65.0999 73.6002 65.8999C73.4002 68.4999 73.8002 69.9999 75.2002 70.1999C74.7002 70.1999 72.1002 70.1999 71.2002 70.1999C71.2002 68.4999 71.2002 67.0999 71.2002 67.0999Z" fill="#FF6600"/>
<path fill-rule="evenodd" clip-rule="evenodd" d="M70.2998 71.5C70.2998 71.7 70.2998 72.1 70.2998 72.3C75.2998 72.4 78.5998 72.4 80.6998 72.3C80.6998 68.1 80.6998 65.9 80.6998 65.9C79.6998 65.5 78.7998 65.4 77.7998 65.3C77.7998 67 77.7998 68.7 77.7998 70.3C77.7998 71.1 77.1998 71.5 76.4998 71.5C74.3998 71.6 72.2998 71.6 70.2998 71.5Z" fill="#A84300"/>
<path fill-rule="evenodd" clip-rule="evenodd" d="M70.5 73.2C71.2 73.2 71.7 73.2 71.7 73.3C71.7 73.3 71.7 75.5 71.7 79.7C71.7 79.7 71.3 79.9 70.5 80.4C70.5 80.5 70.5 78.1 70.5 73.2Z" fill="#A84300"/>
<path fill-rule="evenodd" clip-rule="evenodd" d="M77.5 73.5C75.8 73.5 75 77.1 76.4 80C77.5 81.6 78.8 82.5 80.6 82.8C80.6 82.8 80.6 79.8 80.6 73.8C80.6 73.6 80.5 73.6 80.4 73.6C78.5 73.5 77.5 73.5 77.5 73.5Z" fill="#FF6600"/>
<path fill-rule="evenodd" clip-rule="evenodd" d="M76.2002 79.5001C76.3002 79.6001 76.3002 79.9001 76.4002 80.0001C77.5002 81.6001 78.8002 82.5001 80.6002 82.8001C80.6002 82.8001 80.6002 79.8001 80.6002 73.8001C80.6002 73.6001 80.5002 73.6001 80.4002 73.6001H78.2002L78.3002 78.0001C78.3002 78.0001 78.2002 78.6001 78.2002 78.8001C78.1002 79.0001 77.6002 79.3001 77.6002 79.3001L76.4002 79.5001H76.2002Z" fill="#A84300"/>
<path fill-rule="evenodd" clip-rule="evenodd" d="M86.7001 50.7C84.4001 55.6 83.1001 62.2 83.3001 67.4C83.8001 83.5 83.9001 87.9 83.9001 87.9C83.2001 86.2 82.5001 85 81.7001 84.4C81.6001 74.4 81.6001 71.2 81.6001 67.5C81.6001 62.3 83.8001 55.3 86.7001 50.7Z" fill="#FF6600"/>
<path fill-rule="evenodd" clip-rule="evenodd" d="M43.8998 104.6C43.8998 104.2 43.7998 104 43.2998 103.9C43.2998 105.3 43.2998 106.7 43.3998 108.1C46.7998 108 49.0998 107.9 50.4998 107.7C50.3998 104.8 50.2998 103.5 50.2998 103.5C48.6998 103 46.8998 103.1 45.5998 103.9C45.4998 105.7 45.7998 106.7 46.7998 106.8C45.9998 106.9 44.9998 106.9 44.0998 106.9C44.1998 106.8 44.1998 106.7 44.1998 106.7C44.0998 106.7 44.0998 106.7 44.0998 106.7C43.9998 105.2 43.8998 104.6 43.8998 104.6Z" fill="#A84300"/>
<path fill-rule="evenodd" clip-rule="evenodd" d="M49.0002 107.9C49.6002 107.9 50.1002 107.8 50.6002 107.8C50.5002 104.9 50.4002 103.6 50.4002 103.6C48.8002 103.1 47.0002 103.2 45.7002 104C45.7002 104.5 45.7002 105 45.7002 105.3C46.8002 104.8 48.1002 104.7 49.2002 105.1C48.4002 105.2 47.9002 105.3 47.9002 105.3C48.4002 106.1 48.8002 106.9 49.0002 107.9Z" fill="#FF6600"/>
<path fill-rule="evenodd" clip-rule="evenodd" d="M43.3999 109.2C43.3999 111.4 43.4999 113.5 43.7999 115.6C45.9999 116.2 48.2999 116.3 50.5999 116.1C51.1999 113.7 48.1999 113.9 47.6999 110.8C47.0999 108.9 44.8999 109.2 43.3999 109.2Z" fill="#A84300"/>
<path fill-rule="evenodd" clip-rule="evenodd" d="M102.9 69.2001C103.3 71.5001 104.1 73.6001 105.4 75.7001C103.6 75.9001 101.9 76.7001 100.4 77.7001C100.4 77.7001 99.9001 77.1001 99.1001 75.8001C99.1001 75.8001 99.2001 76.3001 99.3001 77.2001C97.2001 74.1001 95.8001 70.5001 95.1001 66.7001C96.8001 65.3001 98.7001 64.2001 100.9 63.6001C102.2 65.5001 103.2 67.9001 103.6 70.3001C103 69.5001 102.9 69.2001 102.9 69.2001Z" fill="#B3B3B3"/>
<path fill-rule="evenodd" clip-rule="evenodd" d="M102.9 69.1999C103.3 71.4999 104.1 73.5999 105.4 75.6999C105.2 75.6999 104.9 75.8 104.7 75.8C102.6 74 101.4 71.0999 101.6 68.1999C102.1 69.1999 102.4 69.5999 102.4 69.5999C102.3 67.6999 101.6 65.8999 100.2 64.5999C98.4002 65.0999 96.8002 65.8 95.2002 66.8C96.9002 65.4 98.8002 64.3 101 63.7C102.3 65.6 103.3 68 103.7 70.4C103 69.5 102.9 69.1999 102.9 69.1999Z" fill="white"/>
<path fill-rule="evenodd" clip-rule="evenodd" d="M102.1 65.8C102.5 66.5 102.7 67.1 102.9 67.8L97.5998 68.6C97.5998 68.6 97.3998 68 96.7998 66.8L102.1 65.8Z" fill="#666666"/>
<path fill-rule="evenodd" clip-rule="evenodd" d="M103.2 69.2C103.3 69.6 103.3 70 103.4 70.4L102.9 69.2H103.2ZM102.9 69.3C103 70 103.1 70.7 103.4 71.5L98.8001 71.9C98.8001 71.9 98.6001 71.3 98.1001 70L102.9 69.3Z" fill="#666666"/>
<path fill-rule="evenodd" clip-rule="evenodd" d="M104 72.8999C104.4 73.5999 104.7 74.2999 105.1 75.0999H99.8998C99.8998 75.0999 99.6998 74.4999 99.2998 73.1999L104 72.8999Z" fill="#666666"/>
<path fill-rule="evenodd" clip-rule="evenodd" d="M102.1 65.8V65.9L102.2 66.1C102.2 66.2 102.3 66.3 102.3 66.3V66.4C102.3 66.5 102.3 66.5 102.4 66.6L101.6 66.7C101.5 66 101.1 65.3 100.8 64.7L102.1 65.8Z" fill="#999999"/>
<path fill-rule="evenodd" clip-rule="evenodd" d="M103.2 69.2V69.3V69.2ZM102.9 69.3V69.5V69.6V69.7V69.8V70L101.5 70.1C101.3 69.4 101.1 68.8 101.1 68.1L101.7 68L101.8 68.2C101.8 68.1 101.8 68 101.8 68L102.9 69.3Z" fill="#999999"/>
<path fill-rule="evenodd" clip-rule="evenodd" d="M104 72.9V73V73.1V73.2V73.3V73.4V73.5V73.6V73.7H102.9C102.3 73.1 101.8 72.4 101.5 71.7L104 72.9Z" fill="#999999"/>
<path fill-rule="evenodd" clip-rule="evenodd" d="M82.6001 118.3C83.6001 119.6 84.0001 120.2 84.0001 120.2C80.4001 120.8 76.8001 120.9 73.1001 120.9C73.1001 118.7 73.2001 116.6 73.2001 114.5C73.8001 115.3 74.6001 115.7 75.6001 115.7C76.3001 116.3 77.2001 116.7 78.1001 116.9C79.6001 118 81.0001 118.4 82.6001 118.3Z" fill="#A84300"/>
<path fill-rule="evenodd" clip-rule="evenodd" d="M68.1998 50.9001C65.6998 52.8001 62.1998 52.8001 59.5998 50.9001C62.2998 52.1001 65.3998 52.1001 68.1998 50.9001ZM47.6998 36.9001C49.9998 41.1001 53.2998 44.6 57.0998 47C57.0998 47 56.9998 46.4 56.8998 45.3C58.1998 47.5 60.2998 49 62.6998 49.6C62.0998 49.1 61.6998 48.5 61.3998 47.8C63.0998 49.5 65.5998 49.4001 67.1998 47.7001C66.6998 48.4001 66.1998 49 65.4998 49.5C71.3998 47.2 76.4998 42.7 79.5998 36.8C80.2998 37.6 80.7998 38.7 81.1998 39.8C80.1998 40.8 79.2998 42.0001 78.4998 43.2001C79.5998 42.2001 80.6998 41.4 81.7998 40.6C82.7998 40.8 83.4998 41.7001 83.5998 42.9001C77.8998 45.3001 72.7998 48.9001 68.3998 53.4001C70.7998 51.5001 74.6998 50.3 76.3998 48.6C76.1998 50.2 75.5998 51.6 74.5998 52.8C74.5998 52.8 74.9998 52.8001 75.6998 52.7001C68.7998 61.5001 59.8998 61.3001 51.7998 52.9001C52.2998 52.8001 52.5998 52.8 52.5998 52.8C51.8998 51.2 51.3998 49.7 50.8998 48C53.2998 50.5 56.5998 51.2001 59.5998 53.2001C54.7998 48.6001 49.1998 45.2 43.1998 43C43.0998 42.4 43.2998 41.8 43.6998 41.3C44.0998 40.8 44.4998 40.6 45.0998 40.6C46.6998 41.7 48.0998 42.9001 49.5998 44.2001C48.5998 42.8001 47.4998 41.3001 46.2998 39.9001C46.2998 38.6001 46.8998 37.6001 47.6998 36.9001Z" fill="#5B646A"/>
<path fill-rule="evenodd" clip-rule="evenodd" d="M47.7002 36.8999C50.0002 41.0999 53.3002 44.5999 57.1002 46.9999C57.1002 46.9999 57.0002 46.3999 56.9002 45.2999C60.2002 50.4999 63.5002 50.7999 68.4002 49.8999C65.3002 51.2999 62.8002 52.3999 59.7002 50.9999C61.4002 52.2999 64.2002 53.1999 66.2002 52.9999C64.1002 53.6999 63.1002 54.1999 60.9002 54.3999C60.9002 54.8999 60.8002 55.4999 60.8002 55.9999C59.5002 55.8999 58.9002 55.5999 57.5002 55.1999C62.5002 58.2999 65.1002 58.5999 70.3002 57.1999C64.5002 60.5999 57.9002 58.9999 51.7002 52.7999C52.2002 52.6999 52.5002 52.6999 52.5002 52.6999C51.8002 51.0999 51.3002 49.5999 50.8002 47.8999C53.2002 50.3999 56.5002 51.0999 59.5002 53.0999C54.7002 48.4999 49.1002 45.0999 43.1002 42.8999C43.0002 42.2999 43.2002 41.6999 43.6002 41.1999C44.0002 40.6999 44.4002 40.4999 45.0002 40.4999C46.6002 41.5999 48.0002 42.7999 49.5002 44.0999C48.5002 42.6999 47.4002 41.1999 46.2002 39.7999C46.3002 38.5999 46.9002 37.5999 47.7002 36.8999Z" fill="#2C3032"/>
<path fill-rule="evenodd" clip-rule="evenodd" d="M74.7999 49.2C75.2999 48.8 75.7999 48.6 76.0999 48.2C75.8999 49.8 75.2999 51.2 74.2999 52.4C74.2999 52.4 74.6999 52.3999 75.3999 52.2999C73.4999 53.3999 71.3999 54.2999 69.3999 54.7999C71.2999 54.2999 72.9999 53.0999 74.1999 51.5999C73.6999 52.0999 73.0999 52.4 72.3999 52.7C73.5999 51.9 74.4999 50.7 74.7999 49.2Z" fill="#878F92"/>
<path fill-rule="evenodd" clip-rule="evenodd" d="M79.4002 42.2001C80.1002 41.6001 80.8002 41.0001 81.6002 40.5001C82.6002 40.7001 83.3002 41.6001 83.4002 42.8001C81.5002 43.6001 79.7002 44.6001 77.8002 45.7001C77.1002 45.8001 76.5002 45.9001 75.7002 45.9001C77.0002 45.5001 78.2002 44.7001 79.0002 43.5001C79.2002 42.9001 79.3002 42.5001 79.4002 42.2001ZM78.8002 37.8001C79.0002 37.4001 79.3002 37.1001 79.4002 36.6001C80.1002 37.4001 80.6002 38.5001 81.0002 39.6001C80.5002 40.1001 80.0002 40.7001 79.6002 41.3001C79.7002 40.6001 79.7002 39.9001 79.5002 39.0001C79.5002 39.0001 79.5002 39.4001 79.4002 40.0001C79.3002 39.3001 79.2002 38.6001 78.8002 37.8001Z" fill="#878F92"/>
<path fill-rule="evenodd" clip-rule="evenodd" d="M64.3001 22.8C65.3001 22.8 66.1001 25.8 67.6001 26.4C67.6001 26.4 67.7001 26.6 67.8001 27.1C67.8001 27.1 67.8001 27.0001 67.8001 26.7001C70.9001 26.6001 73.5001 26 75.5001 25C75.5001 25 75.4001 25.4 75.3001 26C75.7001 25.4 76.0001 24.7 76.3001 23.6C76.8001 22 77.7001 23.5 77.6001 24.6C77.6001 24.6 77.6001 25.6 77.6001 27.5C77.5001 27.6 77.2001 27.7 76.9001 28C77.4001 28 77.6001 28 77.6001 28.1C77.7001 28.2 77.7001 29.1 77.7001 30.3C77.5001 31.3 76.9001 32.1001 75.9001 32.7001C75.7001 32.7001 75.7001 31.5 75.8001 29C75.7001 27.7 75.0001 27.1001 73.5001 27.2001C68.8001 29.0001 60.1001 29.0001 55.3001 27.2001C53.9001 27.1001 53.1001 27.7 53.0001 29C53.1001 31.5 53.1001 32.7001 52.9001 32.7001C51.9001 32.1001 51.3001 31.3 51.1001 30.3C51.1001 29 51.1001 28.3 51.2001 28.1C51.3001 28 51.6001 28 51.9001 28C51.5001 27.9 51.3001 27.8 51.2001 27.5C51.2001 25.6 51.2001 24.6 51.2001 24.6C51.1001 23.5 52.0001 22.1 52.5001 23.6C52.7001 24.7 53.1001 25.4 53.5001 26C53.4001 25.4 53.3001 25 53.3001 25C55.4001 26.1 58.0001 26.6001 61.0001 26.7001C61.0001 26.9001 61.0001 27.1 61.0001 27.1C61.1001 26.6 61.2001 26.4 61.2001 26.4C62.5001 25.8 63.1001 22.8 64.3001 22.8Z" fill="#2C3032"/>
<path fill-rule="evenodd" clip-rule="evenodd" d="M64.2999 22.8C65.2999 22.8 66.0999 25.8 67.5999 26.4C67.5999 26.4 67.6999 26.6 67.7999 27.1C67.7999 27.1 67.7999 27.0001 67.7999 26.7001C70.8999 26.6001 73.4999 26 75.4999 25C75.4999 25 75.3999 25.4 75.2999 26C75.6999 25.4 75.9999 24.7 76.2999 23.6C76.7999 22 77.6999 23.5 77.5999 24.6C77.5999 24.6 77.5999 25.6 77.5999 27.5C77.4999 27.6 77.1999 27.7 76.8999 28C77.3999 28 77.5999 28 77.5999 28.1C77.6999 28.2 77.6999 29.1 77.6999 30.3C77.4999 31.3 76.8999 32.1001 75.8999 32.7001C75.6999 29.7001 76.8999 27.8 76.5999 24.9C76.1999 25.7 75.5999 26.5 74.8999 26.8C74.8999 26.8 74.8999 26.6001 74.8999 26.2001C72.5999 27.2001 70.1999 27.8 67.6999 27.9C67.6999 27.9 67.5999 27.7 67.4999 27.3C67.4999 27.3 67.4999 27.5 67.4999 27.9C67.4999 27.9 67.3999 27.5 66.9999 26.8C66.9999 26.8 66.9999 26.9 66.9999 27.3C65.8999 26.2 64.7999 22.9 63.8999 23.1C63.8999 22.9 63.9999 22.8 64.2999 22.8Z" fill="#878F92"/>
<path fill-rule="evenodd" clip-rule="evenodd" d="M54.8998 16.9C55.2998 17 55.4998 17 55.4998 17C54.9998 17.2 54.6998 18.1 54.6998 19.3C54.5998 21.2 54.4998 22.4 54.4998 22.5C56.1998 23.3 58.0998 23.8 60.0998 23.8C60.0998 24 60.0998 24.2 60.0998 24.2C61.3998 22.8 61.6998 19.9 64.7998 19.9C67.2998 20 67.8998 22.9 69.0998 24.2C69.0998 24.2 69.0998 24.1 69.0998 23.8C70.9998 23.8 72.9998 23.3 74.6998 22.5C74.6998 22.3 74.5998 21.2 74.4998 19.3C74.3998 18.1 74.0998 17.4 73.6998 17C73.6998 17 73.8998 17 74.2998 16.9C67.6998 13.9 60.7998 13.9 54.8998 16.9ZM74.5998 16.3C74.6998 16.8 74.7998 17.3 74.9998 17.9C74.7998 17.8 74.4998 17.8 74.2998 17.8C74.4998 18 74.7998 18.2 74.7998 18.2C74.8998 20.2 74.9998 21.7 75.2998 22.5C75.4998 22.4 75.4998 22.4 75.4998 22.4C75.4998 22.9 75.4998 23.5 75.4998 24C73.2998 25.2 70.7998 25.8 68.3998 25.8C67.6998 25.7 67.0998 25.3 66.6998 24.5C65.8998 23.1 64.9998 22.2 64.3998 22.2C63.7998 22.3 62.9998 23 62.0998 24.5C61.6998 25.2 61.0998 25.7 60.3998 25.8C57.8998 25.9 55.3998 25.3 53.2998 24C53.2998 23.5 53.1998 23 53.2998 22.4C53.2998 22.4 53.3998 22.4 53.4998 22.5C53.6998 21.7 53.9998 20.2 53.9998 18.2C53.9998 18.2 54.0998 18.1 54.4998 17.8C54.2998 17.8 53.9998 17.8 53.7998 17.9C53.8998 17.4 53.9998 16.8 54.1998 16.3C60.1998 11.9 68.1998 11.9 74.5998 16.3Z" fill="#878F92"/>
<path fill-rule="evenodd" clip-rule="evenodd" d="M62.1998 14.8C59.4998 14.9 56.8998 15.6 54.4998 16.8C54.8998 17 54.9998 17.2 54.9998 17.2C54.4998 17.8 54.2998 18.5 54.2998 19.5C54.1998 19 54.1998 18.8 54.1998 18.8C54.2998 20.4 54.1998 22 53.7998 23.6C53.9998 23.4 54.1998 23.2 54.1998 23.2C55.9998 24.2 58.0998 24.5 59.9998 24.4C59.9998 24.4 59.9998 24.3 59.9998 24C58.0998 24 56.0998 23.5 54.3998 22.7C54.3998 22.5 54.4998 21.4 54.5998 19.5C54.6998 18.3 54.9998 17.6 55.3998 17.2C55.3998 17.2 55.1998 17.2 54.7998 17.1C57.1998 15.7 59.5998 15 62.1998 14.8Z" fill="#343643"/>
<path fill-rule="evenodd" clip-rule="evenodd" d="M74.5999 16.2999C74.6999 16.7999 74.7999 17.2999 74.9999 17.8999C74.7999 17.7999 74.4999 17.7999 74.2999 17.7999C74.4999 17.9999 74.7999 18.1999 74.7999 18.1999C74.8999 20.1999 74.9999 21.6999 75.2999 22.4999C75.4999 22.3999 75.4999 22.3999 75.4999 22.3999C75.4999 22.8999 75.4999 23.4999 75.4999 23.9999C73.3999 24.9999 71.2999 25.5999 68.9999 25.5999C68.7999 25.3999 68.5999 24.9999 68.3999 24.5999C68.3999 24.5999 68.3999 24.6999 68.2999 24.7999C67.6999 23.0999 66.9999 21.6999 65.8999 20.4999C67.2999 21.2999 67.9999 23.3999 68.7999 24.4999C68.7999 24.4999 68.7999 24.3999 68.7999 24.0999C70.6999 24.0999 72.6999 23.5999 74.3999 22.7999C74.3999 22.5999 74.1999 20.8999 73.8999 18.9999C73.7999 17.7999 73.6999 17.6999 73.1999 17.2999C73.1999 17.2999 73.3999 17.2999 73.7999 17.1999C71.0999 15.8999 68.1999 14.9999 65.2999 14.8999C65.0999 14.6999 64.6999 14.2999 64.1999 14.1999C65.7999 14.1999 67.2999 14.3999 68.8999 14.7999C67.0999 13.7999 64.9999 13.3999 62.9999 13.3999C62.9999 13.3999 62.9999 13.2999 62.8999 13.2999C66.8999 12.6999 70.9999 13.7999 74.5999 16.2999Z" fill="#CCCCCC"/>
<path fill-rule="evenodd" clip-rule="evenodd" d="M51.2002 18.5C51.6002 18 51.9002 17.7 52.4002 17.3C52.4002 17.3 52.4002 17.5 52.5002 18C53.0002 16.9 53.0002 15.6 53.6002 14.9C53.4002 15.3 53.4002 15.7 53.4002 16.1C56.5002 13.5001 60.4002 12.1 64.4002 12C68.4002 12 72.3002 13.4 75.4002 16.1C75.4002 15.6 75.3002 15.3 75.2002 14.9C75.8002 15.6 75.8002 16.9 76.3002 18C76.3002 17.5 76.4002 17.3 76.4002 17.3C76.9002 17.7 77.2002 18 77.6002 18.5C74.5002 4.40005 54.0002 4.40005 51.2002 18.5Z" fill="#2C3032"/>
<path fill-rule="evenodd" clip-rule="evenodd" d="M62.5999 12C63.0999 12 63.6999 11.9 64.1999 11.9C68.1999 11.9 72.0999 13.3 75.1999 16C75.1999 15.5 75.0999 15.2 74.9999 14.8C75.5999 15.5 75.5999 16.8 76.0999 17.9C76.0999 17.4 76.1999 17.2 76.1999 17.2C76.6999 17.6 76.9999 17.9 77.3999 18.4C75.2999 8.20002 63.9999 5.40003 56.8999 10.1C59.2999 8.90003 61.9999 8.50003 64.4999 9.00003C63.7999 9.40003 63.1999 10 62.8999 10.7C62.5999 11.2 62.5999 11.7 62.5999 12Z" fill="#878F92"/>
<path fill-rule="evenodd" clip-rule="evenodd" d="M66.7998 33C68.4998 29 70.2998 31.6 73.0998 29C72.3998 32.1 69.2998 32.9 66.7998 33Z" fill="white"/>
<path fill-rule="evenodd" clip-rule="evenodd" d="M64.3002 33.5C67.2002 35.8 71.3002 35.7 74.3002 33.4C74.1002 39.6 70.1002 45.1 64.4002 46.5C58.4002 45.4 53.9002 39.8 54.0002 33.2C56.9002 35.9 61.2002 36.3 64.3002 33.5Z" fill="#FF6600"/>
<path fill-rule="evenodd" clip-rule="evenodd" d="M57.7 42.8C55.4 40.2 54 36.9 54 33C54.4 33.4 54.8 33.7 55.2 34C55 37.2 55.9 40.4 57.7 42.8Z" fill="#A84300"/>
<path fill-rule="evenodd" clip-rule="evenodd" d="M61.6999 33C59.9999 29 58.1999 31.6 55.3999 29C56.0999 32.1 59.2999 32.9 61.6999 33Z" fill="white"/>
<path fill-rule="evenodd" clip-rule="evenodd" d="M64.3002 33.5C63.7002 34 63.5002 34.1 63.5002 34.1C66.4002 36.4 70.1002 36.7 73.4002 35.3C70.6002 41.5 66.2002 39.0001 63.3002 43.9001C63.7002 44.1001 64.0002 44.3 64.5002 44.3C62.3002 44.9 60.0002 44.4 58.2002 43C60.0002 44.8 62.2002 45.9001 64.6002 46.4001C70.3002 45.0001 74.4002 39.6 74.5002 33.3C71.3002 35.8 67.4002 35.8 64.3002 33.5Z" fill="#FF9933"/>
<path fill-rule="evenodd" clip-rule="evenodd" d="M70.3998 23.5C69.6998 18.3 69.2998 15.7 69.2998 15.7C70.0998 15.8 70.9998 16.1 71.6998 16.4C71.6998 16.4 72.1998 18.4 73.0998 22.6C72.1998 23.2 71.2998 23.4 70.3998 23.5Z" fill="white"/>
<path fill-rule="evenodd" clip-rule="evenodd" d="M68.2002 15.5C68.7002 15.6 68.9002 15.6 68.9002 15.6C69.5002 20.9 69.9002 23.5 69.9002 23.5C69.4002 23.5 69.3002 23.5 69.3002 23.5C68.6002 18.3 68.2002 15.5 68.2002 15.5Z" fill="white"/>
<path fill-rule="evenodd" clip-rule="evenodd" d="M60 15.4999C60.2 15.3999 60.5 15.3999 60.5 15.3999C61 19.5999 61.2 21.7999 61.2 21.7999C60.8 22.2999 60.7 22.4999 60.8 22.4999C60.2 17.8999 60 15.4999 60 15.4999Z" fill="white"/>
<path fill-rule="evenodd" clip-rule="evenodd" d="M58.8999 15.9C59.3999 15.8 59.4999 15.8 59.4999 15.8C59.9999 20.7 60.1999 23.2 60.1999 23.2C59.7999 23.6 59.6999 23.8 59.6999 23.8C59.0999 18.4 58.8999 15.9 58.8999 15.9Z" fill="white"/>
<path fill-rule="evenodd" clip-rule="evenodd" d="M51.3001 23.9C51.2001 24.1 51.2001 26.2 51.3001 27.4C51.7001 27.6 52.1001 27.8 52.5001 28C51.3001 26.9 52.0001 22.9 51.3001 23.9Z" fill="#5B646A"/>
<path fill-rule="evenodd" clip-rule="evenodd" d="M52 31.8001C51.6 31.4001 51.4 31.1001 51.3 30.7001C51.1 30.3001 51.1 29.5001 51.2 28.2001C51.3 28.1001 51.4 28.1001 51.8 28.1001C51.7 29.9001 51.7 31.2001 52 31.8001Z" fill="#5B646A"/>
<path fill-rule="evenodd" clip-rule="evenodd" d="M43.6998 115.6C45.4998 116.1 47.2998 116.2 48.9998 116.2C47.5998 115.8 46.2998 114.5 45.9998 113C45.7998 111.6 44.6998 110.4 43.2998 110.1C43.5998 113.2 43.6998 115 43.6998 115.6Z" fill="#FF6600"/>
<path fill-rule="evenodd" clip-rule="evenodd" d="M85 49.0001C83.3 48.6001 79.1 48.3001 78.2 49.4001C75.4 53.8001 74.2 57.7001 73 62.4001C75.3 62.2001 77.1 62.4001 79.4 62.2001C79.8 60.3001 80.7 58.5001 81.2 57.0001C79.4 57.0001 77.9 57.0001 76.1 57.0001C76.1 56.4001 76.3 55.9001 76.7 55.4001C78.4 55.5001 80.1 55.2001 81.8 55.3001C82.9 52.0001 83.5 50.7001 85 49.0001Z" fill="#FF6600"/>
<path fill-rule="evenodd" clip-rule="evenodd" d="M76.7999 55.4001C78.4999 55.4001 80.1999 55.2 81.8999 55.3C82.3999 53.7 82.6999 52.7 83.1999 51.8C81.9999 53.4 81.8999 53.7 80.0999 54.1C79.0999 54.2 78.1999 54.2 77.1999 54.3C76.9999 54.7 76.8999 55.0001 76.7999 55.4001ZM73.3999 60.7001C73.2999 61.2001 73.1999 61.8001 72.8999 62.4001C74.9999 62.2001 76.7999 62.3001 78.7999 62.2001C78.9999 62.2001 78.8999 64.2 79.1999 64.2C79.3999 61.3 80.5999 58.4 81.2999 57C80.8999 57 80.5999 57 80.1999 57C79.9999 57.6 79.5999 58.6 79.4999 59.3C78.6999 60.9 78.6999 60.7001 76.7999 60.9001C75.6999 60.7001 74.5999 60.7001 73.3999 60.7001Z" fill="#A84300"/>
<path fill-rule="evenodd" clip-rule="evenodd" d="M85.0001 49.0001C83.3001 48.6001 79.1001 48.3001 78.2001 49.4001C75.9001 53.1001 74.7001 56.4001 73.6001 60.2001C74.8001 57.1001 76.3001 54.3001 78.1001 51.7001C78.8001 50.7001 78.9001 49.9001 80.3001 49.9001C81.7001 49.9001 83.0001 50.0001 84.4001 50.0001C84.5001 49.6001 84.8001 49.4001 85.0001 49.0001Z" fill="#FF9933"/>
<path fill-rule="evenodd" clip-rule="evenodd" d="M55.4 67.1C55.4 66.5 55.6 66.1 56.4 66C56.4 68 56.4 70.2 56.4 72.2C53.3 72.3 50.7 72.3 48.8 72.3L46 70.3V65.9C48.2 65.1 51 65.2 53 66C53.2 68.6 52.8 70.1 51.4 70.3C51.9 70.3 54.5 70.3 55.4 70.3C55.4 68.5 55.4 67.1 55.4 67.1Z" fill="#FF6600"/>
<path fill-rule="evenodd" clip-rule="evenodd" d="M56.1998 71.4999C56.1998 71.6999 56.1998 72.0999 56.1998 72.2999C53.0998 72.3999 50.4998 72.3999 48.5998 72.3999L45.7998 70.3999V65.9999C46.7998 65.5999 47.6998 65.4999 48.6998 65.3999C48.6998 67.0999 48.6998 68.7999 48.6998 70.3999C48.6998 71.1999 49.2998 71.5999 49.9998 71.5999C52.0998 71.5999 54.1998 71.5999 56.1998 71.4999Z" fill="#A84300"/>
<path fill-rule="evenodd" clip-rule="evenodd" d="M55.9998 73.2C55.2998 73.2 54.7998 73.2 54.7998 73.3V76.8L55.9998 77.6V73.2Z" fill="#A84300"/>
<path fill-rule="evenodd" clip-rule="evenodd" d="M39.7998 50.7C42.0998 55.6 43.3998 62.2 43.1998 67.4V68.5999L44.7998 69.6999C44.7998 68.9999 44.7998 68.3 44.7998 67.5C44.8998 62.3 42.6998 55.3 39.7998 50.7Z" fill="#FF6600"/>
<path fill-rule="evenodd" clip-rule="evenodd" d="M41.6001 49.0001C43.3001 48.6001 47.5001 48.3001 48.4001 49.4001C51.2001 53.8001 52.4001 57.7001 53.6001 62.4001C51.3001 62.2001 49.5001 62.4001 47.2001 62.2001C46.8001 60.3001 45.9001 58.5001 45.4001 57.0001C47.2001 57.0001 48.7001 57.0001 50.5001 57.0001C50.5001 56.4001 50.3001 55.9001 49.9001 55.4001C48.2001 55.5001 46.5001 55.2001 44.8001 55.3001C43.6001 52.0001 43.0001 50.7001 41.6001 49.0001Z" fill="#FF6600"/>
<path fill-rule="evenodd" clip-rule="evenodd" d="M49.6998 55.4001C47.9998 55.4001 46.2998 55.2 44.5998 55.3C44.0998 53.7 43.7998 52.7 43.2998 51.8C44.4998 53.4 44.5998 53.7 46.3998 54.1C47.3998 54.2 48.2998 54.2 49.2998 54.3C49.4998 54.7 49.5998 55.0001 49.6998 55.4001ZM53.0998 60.7001C53.1998 61.2001 53.2998 61.8001 53.5998 62.4001C51.4998 62.2001 49.6998 62.3001 47.6998 62.2001C47.4998 62.2001 47.5998 64.2 47.2998 64.2C47.0998 61.3 45.8998 58.4 45.1998 57C45.5998 57 45.8998 57 46.2998 57C46.4998 57.6 46.8998 58.6 46.9998 59.3C47.7998 60.9 47.7998 60.7001 49.6998 60.9001C50.8998 60.7001 51.9998 60.7001 53.0998 60.7001Z" fill="#A84300"/>
<path fill-rule="evenodd" clip-rule="evenodd" d="M41.6001 49.0001C43.3001 48.6001 47.5001 48.3001 48.4001 49.4001C50.7001 53.1001 51.9001 56.4001 53.0001 60.2001C51.8001 57.1001 50.3001 54.3001 48.5001 51.7001C47.8001 50.7001 47.7001 49.9001 46.3001 49.9001C44.9001 49.9001 43.6001 50.0001 42.2001 50.0001C42.1001 49.6001 41.9001 49.4001 41.6001 49.0001Z" fill="#FF9933"/>
<path fill-rule="evenodd" clip-rule="evenodd" d="M52.8999 55.6001C57.8999 59.7001 62.7999 61.8001 67.8999 59.7001C64.6999 62.9001 59.0999 63.8001 52.8999 55.6001Z" fill="#5B646A"/>
<path fill-rule="evenodd" clip-rule="evenodd" d="M74.1002 55.3999C69.1002 60.9999 64.9002 64.2999 59.2002 63.6999C66.4002 65.5999 69.7002 63.9999 74.1002 55.3999Z" fill="#5B646A"/>
<path fill-rule="evenodd" clip-rule="evenodd" d="M45 133.3C43.4 134.6 41 135 39.1 135.1C37.5 135.2 36 135.3 34.4 135.5C32.6 135.6 30.3 135.6 28.6 134.8C28.4 136.1 27.8 137.3 26.9 138.3C25.3 140 22.9 140.7 20.7 140.9C19.1 141.1 17.6 141.4 16 141.5C13.7 141.9 11 141.9 9.2 140.2C7.5 138.6 7 136.4 7 134.1C7 132.5 7 131.1 7 129.5V126.4L8.9 126.2C7.6 124.8 7.2 122.6 7.2 120.4C7.2 118.8 7.2 117.3 7.2 115.8C7.2 113.5 7.7 111.4 9.3 109.8C11 108 13.5 107.6 15.8 107.6C69.3 107.4 54.2 107.5 117.5 107.6C119.8 107.6 122.3 108 124 109.8C125.4 111.4 126.1 113.6 126.1 115.8C126.1 118.1 126.1 120.2 126.1 122.5C126.1 123.9 125.7 125.3 125.1 126.3C125.8 127.5 126.2 128.9 126.2 130.5C126.2 131.9 126.2 133.3 126.2 134.7C126.2 136.1 126.2 137.5 126.2 138.9V143L122.5 142.4C120.6 142 118.6 141.8 116.7 141.4L115.7 141.3L113 141C111.1 140.8 109.3 140.5 107.3 140.3L104.4 139.9V136.8C104.4 136.6 104.4 136.3 104.4 136.1H104.3C100 135.7 95.7 135.4 91.4 135.1L88.7 135H87.5C85.6 134.9 83.6 134.9 81.7 134.8L78.6 134.7V133.1L78.5 133.2C76.8 134.4 74.4 134.5 72.5 134.5C69.2 134.5 65.9 134.5 62.6 134.5H61H60.6C56.5 134.6 52.4 134.7 48.4 135L45 135.1C45 135.1 45 133.3 45 133.3Z" fill="#1A1A1A"/>
<path fill-rule="evenodd" clip-rule="evenodd" d="M34.5998 127.4C34.5998 127.8 34.7998 128 35.1998 127.9C35.9998 127.9 36.7998 127.8 37.5998 127.8C38.0998 127.8 38.2998 127.6 38.2998 127.2C38.2998 125.3 38.2998 123.4 38.2998 121.3C38.2998 119.4 38.2998 117.5 38.2998 115.4C38.2998 115 38.0998 114.8 37.5998 114.8C36.7998 114.8 35.9998 114.8 35.1998 114.8C34.6998 114.8 34.5998 115 34.5998 115.4C34.5998 117.3 34.5998 119.4 34.5998 121.3C34.5998 123.5 34.5998 125.4 34.5998 127.4ZM28.7998 114.6C28.7998 113.4 29.1998 112.4 29.8998 111.8C30.5998 111.2 32.0998 111 34.0998 111C35.6998 111 37.1998 111 38.7998 111C40.8998 111 42.2998 111.2 42.9998 111.8C43.6998 112.4 44.0998 113.2 44.0998 114.4C44.0998 116.7 44.0998 118.8 44.0998 121.1C44.0998 123.4 44.0998 125.5 44.0998 127.8C44.0998 129 43.6998 129.8 42.9998 130.4C42.2998 131 40.7998 131.4 38.7998 131.5C37.1998 131.6 35.6998 131.7 34.0998 131.9C31.9998 132 30.5998 131.9 29.8998 131.4C29.1998 130.9 28.7998 130 28.7998 128.8C28.7998 126.4 28.7998 124.1 28.7998 121.7C28.7998 119.4 28.7998 117 28.7998 114.6ZM48.2998 111C50.1998 111 52.1998 111 54.0998 111C54.0998 113.6 54.0998 116.4 54.0998 119C54.0998 121.6 54.0998 124.4 54.0998 127C56.2998 127 58.3998 126.9 60.5998 126.9C60.5998 128.2 60.5998 129.4 60.5998 130.7C56.4998 130.8 52.3998 130.9 48.2998 131.2C48.2998 127.8 48.2998 124.5 48.2998 121.1C48.2998 117.7 48.2998 114.4 48.2998 111ZM62.4998 130.7C62.4998 127.5 62.4998 124.1 62.4998 120.9C62.4998 117.7 62.4998 114.3 62.4998 111.1C65.8998 111.1 69.0998 111.1 72.4998 111.1C74.5998 111.1 75.9998 111.3 76.6998 111.9C77.3998 112.5 77.7998 113.3 77.7998 114.4C77.7998 116.6 77.7998 118.7 77.7998 120.9C77.7998 123.1 77.7998 125.2 77.7998 127.4C77.7998 128.6 77.3998 129.4 76.6998 129.9C75.9998 130.4 74.4998 130.6 72.4998 130.6C69.1998 130.7 65.7998 130.7 62.4998 130.7ZM68.1998 126.8C69.1998 126.8 70.2998 126.8 71.1998 126.8C71.6998 126.8 71.8998 126.7 71.8998 126.3C71.8998 124.5 71.8998 122.6 71.8998 120.8C71.8998 119 71.8998 117.1 71.8998 115.3C71.8998 114.9 71.6998 114.8 71.1998 114.8C70.1998 114.8 69.0998 114.8 68.1998 114.8C68.1998 116.8 68.1998 118.9 68.1998 120.8C68.1998 122.9 68.1998 124.8 68.1998 126.8ZM81.8998 111C83.7998 111 85.7998 111 87.6998 111C87.6998 114.4 87.6998 117.7 87.6998 121.1C87.6998 124.5 87.6998 127.8 87.6998 131.2C85.7998 131.1 83.7998 131.1 81.8998 131C81.8998 127.6 81.8998 124.4 81.8998 121C81.8998 117.6 81.8998 114.4 81.8998 111ZM104.6 111C104.6 112.3 104.6 113.8 104.6 115.1C102.2 115.1 99.7998 115 97.4998 115C97.4998 116.4 97.4998 117.9 97.4998 119.4C99.5998 119.5 101.6 119.5 103.7 119.6C103.7 120.9 103.7 122.4 103.7 123.7C101.6 123.6 99.5998 123.5 97.4998 123.3C97.4998 124.7 97.4998 126.2 97.4998 127.7C99.8998 127.8 102.3 128.1 104.6 128.2C104.6 129.5 104.6 131 104.6 132.3C100.3 131.9 95.8998 131.6 91.6998 131.2C91.6998 129.9 91.6998 128.6 91.6998 127.2C91.6998 124.4 91.6998 121.7 91.6998 118.9C91.6998 116.1 91.6998 113.4 91.6998 110.6C95.8998 111 100.2 111 104.6 111ZM113.5 116C113.5 117.2 113.5 118.4 113.5 119.5C113.5 120.7 113.5 121.9 113.5 123C114.5 123.1 115.6 123.1 116.5 123.2C117 123.2 117.2 123 117.2 122.5C117.2 120.6 117.2 118.7 117.2 116.7C117.2 116.2 117 116 116.5 116C115.6 116.2 114.5 116 113.5 116ZM113.5 128.2C113.5 129.8 113.5 131.3 113.5 132.8C113.5 134.4 113.5 135.8 113.5 137.4C111.6 137.2 109.6 136.8 107.7 136.7C107.7 132.4 107.7 128.2 107.7 123.8C107.7 119.5 107.7 115.3 107.7 110.9C111 110.9 114.2 110.9 117.5 110.9C119.6 110.9 121 111.3 121.7 112.1C122.4 112.8 122.8 114.1 122.8 115.7C122.8 118 122.8 120.1 122.8 122.4C122.8 124 122.2 125.2 120.9 125.8C120.5 125.9 120.4 126 120.4 126.2C120.4 126.3 120.6 126.4 120.9 126.7C122.3 127.5 123.1 128.9 123.1 130.5C123.1 131.9 123.1 133.3 123.1 134.7C123.1 136.1 123.1 137.5 123.1 138.9C121.2 138.5 119.2 138.3 117.3 137.9C117.3 136.5 117.3 135 117.3 133.6C117.3 132.2 117.3 130.7 117.3 129.3C117.3 128.8 117.1 128.6 116.6 128.5C115.6 128.4 114.5 128.3 113.5 128.2ZM11.5998 124.1C10.8998 123.4 10.4998 122.2 10.4998 120.4C10.4998 118.8 10.4998 117.3 10.4998 115.8C10.4998 114.2 10.8998 112.9 11.5998 112.2C12.2998 111.5 13.7998 111.1 15.7998 111C17.1998 111 18.6998 111 20.0998 111C22.1998 111 23.5998 111.4 24.2998 112.1C24.9998 112.8 25.3998 113.9 25.3998 115.5C25.3998 116.9 25.3998 118.3 25.3998 119.7C23.5998 119.8 21.7998 119.8 19.9998 119.9C19.9998 118.9 19.9998 117.9 19.9998 116.9C19.9998 116.4 19.7998 116.2 19.2998 116.2C18.4998 116.2 17.5998 116.2 16.7998 116.3C16.2998 116.3 16.1998 116.5 16.1998 117C16.1998 117.8 16.1998 118.7 16.1998 119.5C16.1998 120.1 17.3998 121.1 19.7998 122.1C22.1998 123.3 23.8998 124.1 24.4998 124.7C25.1998 125.4 25.5998 126.5 25.5998 128.2C25.5998 129.5 25.5998 131 25.5998 132.3C25.5998 133.7 25.1998 134.9 24.4998 135.8C23.7998 136.6 22.3998 137.1 20.2998 137.4C18.6998 137.6 17.1998 137.9 15.5998 138.1C13.4998 138.5 12.0998 138.2 11.3998 137.6C10.6998 136.9 10.2998 135.8 10.2998 134.1C10.2998 132.5 10.2998 131.1 10.2998 129.5C12.0998 129.3 13.9998 129.1 15.8998 128.9C15.8998 130 15.8998 130.9 15.8998 131.9C15.8998 132.4 16.0998 132.6 16.5998 132.5C17.3998 132.4 18.2998 132.3 19.0998 132.3C19.5998 132.3 19.6998 131.9 19.6998 131.6C19.6998 130.8 19.6998 129.9 19.6998 129.1C19.6998 128.6 18.4998 127.9 16.0998 126.7C13.8998 125.6 12.2998 124.8 11.5998 124.1Z" fill="white"/>
<path fill-rule="evenodd" clip-rule="evenodd" d="M108.5 122.4H112.5V123.1V123.9H113.3C114.3 124 115.4 124 116.3 124.1C117.3 124.2 117.9 123.5 117.9 122.5V122.3H121.8C121.8 123.5 121.4 124.3 120.4 124.8C119.9 125 119.3 125.3 119.3 126C119.3 126.6 119.8 127 120.3 127.2C121.4 127.9 122 128.8 122 130.2C122 131.6 122 133 122 134.4C122 135.5 122 136.4 122 137.5C120.7 137.3 119.3 137 117.9 136.8C117.9 135.6 117.9 134.4 117.9 133.3C117.9 131.9 117.9 130.4 117.9 129C117.9 128 117.3 127.3 116.5 127.3C115.5 127.2 114.4 127.1 113.5 127.1L112.5 127V128C112.5 129.6 112.5 131 112.5 132.6C112.5 133.8 112.5 135 112.5 136.1C111.2 135.9 109.8 135.7 108.5 135.5C108.5 131.5 108.5 127.6 108.5 123.5V122.4ZM92.5002 122.4H96.6002V123.4C96.6002 124.8 96.6002 126.3 96.6002 127.8V128.6H97.4002C99.6002 128.7 101.6 128.8 103.8 129.1C103.8 129.8 103.8 130.5 103.8 131.4C100.1 131 96.3002 130.8 92.6002 130.6C92.6002 129.9 92.6002 129.2 92.6002 128.4V127.4V122.4H92.5002V122.4ZM82.7002 122.4H86.7002V130.2C85.4002 130.1 84.0002 130.1 82.7002 130V122.4ZM63.4002 122.4H67.5002V126.8V127.8H68.3002C69.3002 127.8 70.4002 127.8 71.3002 127.8C72.1002 127.8 72.9002 127.3 72.9002 126.4V122.4H77.0002V127.4C77.0002 128.1 76.9002 128.7 76.3002 129.2C75.6002 129.8 73.4002 129.8 72.6002 129.8C69.6002 129.8 66.6002 129.8 63.4002 129.8C63.4002 129.8 63.4002 122.4 63.4002 122.4ZM49.1002 122.4H53.1002V127.1V128.1H54.0002C55.9002 128.1 57.7002 128 59.7002 128C59.7002 128.6 59.7002 129.3 59.7002 129.9C56.2002 130 52.7002 130.1 49.1002 130.3V122.5V122.4ZM29.7002 122.4H33.8002V127.4C33.8002 128.4 34.5002 128.8 35.4002 128.8C36.2002 128.8 37.0002 128.7 37.8002 128.7C38.6002 128.7 39.2002 128.1 39.2002 127.1V122.3H43.3002V127.8C43.3002 128.5 43.2002 129.2 42.6002 129.7C41.9002 130.3 39.8002 130.5 38.9002 130.7C37.3002 130.8 35.8002 130.9 34.2002 131.1C33.4002 131.2 31.3002 131.2 30.6002 130.7C30.0002 130.3 29.9002 129.5 29.9002 128.8V122.3H29.7002V122.4ZM15.1002 130.1C13.8002 130.2 12.6002 130.3 11.2002 130.5C11.2002 131.7 11.2002 132.9 11.2002 134.2C11.2002 135 11.3002 136.4 11.9002 137C12.6002 137.6 14.7002 137.4 15.4002 137.2C17.0002 137 18.5002 136.7 20.1002 136.5C21.2002 136.4 23.0002 136 23.8002 135.2C24.4002 134.5 24.6002 133.4 24.6002 132.4C24.6002 131.1 24.6002 129.6 24.6002 128.3C24.6002 127.5 24.5002 126.1 23.9002 125.5C23.5002 125.1 22.8002 124.8 22.3002 124.4C21.3002 123.8 20.4002 123.3 19.3002 122.8C18.9002 122.6 18.5002 122.4 18.1002 122.2H11.6002C11.7002 122.6 11.8002 122.9 12.1002 123.2C12.5002 123.6 13.2002 124 13.7002 124.3C14.7002 124.9 15.6002 125.4 16.6002 125.7C17.6002 126.2 18.5002 126.7 19.4002 127.1C20.0002 127.5 20.7002 128.1 20.7002 128.8C20.7002 129.6 20.7002 130.5 20.7002 131.3C20.7002 132.3 20.1002 132.9 19.3002 133C18.5002 133.1 17.6002 133.2 16.8002 133.2C15.8002 133.3 15.1002 132.7 15.1002 131.6C15.1002 131.4 15.1002 130.8 15.1002 130.1Z" fill="#B1B5B8"/>
</g>
<defs>
<clipPath id="clip0_97_67">
<rect width="145" height="160" fill="white"/>
</clipPath>
</defs>
</svg>
