<svg width="120" height="133" viewBox="0 0 120 133" fill="none" xmlns="http://www.w3.org/2000/svg">
<g clip-path="url(#clip0_97_1084)">
<path fill-rule="evenodd" clip-rule="evenodd" d="M24.8996 114.9C24.5996 115.5 24.1996 116 23.7996 116.5C22.0996 118.4 19.6996 119.1 17.3996 119.4C16.0996 119.6 14.7996 119.8 13.4996 119.9C10.8996 120.3 8.19961 120.2 6.19961 118.2C4.29961 116.4 3.59961 113.9 3.59961 111.3C3.59961 110 3.59961 108.8 3.59961 107.5V102.7H3.99961C3.79961 101.8 3.69961 100.8 3.69961 99.8C3.69961 98.5 3.69961 97.2 3.69961 96C3.69961 93.5 4.29961 91.1 5.99961 89.3C7.79961 87.3 10.3996 86.8 12.8996 86.8C25.2996 86.8 37.6996 86.7 50.1996 86.7C65.8996 86.7 81.4996 86.8 97.1996 86.8C99.6996 86.8 102.3 87.3 104.1 89.3C105.8 91.1 106.4 93.5 106.4 96.1C106.4 98 106.4 99.8 106.4 101.7C106.4 102.8 106.2 103.9 105.9 104.9C106.3 106 106.6 107.2 106.6 108.4C106.6 109.6 106.6 110.7 106.6 111.9C106.6 113.1 106.6 114.2 106.6 115.4V121.6L101 120.7C99.3996 120.4 97.7996 120.2 96.1996 119.9L95.4996 119.8L93.1996 119.5C91.5996 119.3 90.0996 119.1 88.4996 118.9L84.0996 118.4V115.3C81.1996 115 78.2996 114.8 75.3996 114.6L73.1996 114.5H72.1996C70.5996 114.4 68.9996 114.4 67.3996 114.3L62.6996 114.1V114C61.6996 114.2 60.6996 114.2 59.7996 114.2C57.0996 114.2 54.2996 114.2 51.5996 114.2H50.2996H50.0996C46.6996 114.3 43.3996 114.4 39.9996 114.6L34.8996 114.8V114.7C34.0996 114.9 33.1996 115 32.3996 115C31.0996 115.1 29.7996 115.2 28.4996 115.3C27.2996 115.1 26.0996 115.1 24.8996 114.9Z" fill="#FF9933"/>
<path fill-rule="evenodd" clip-rule="evenodd" d="M80.4997 106.7L87.2997 104.3V115.4L84.7997 117.1C75.9997 123 66.5997 127.8 57.0997 132L54.7997 133L52.7997 132.1C43.0997 127.9 33.5997 122.9 24.6997 117L22.1997 115.3V104.2L28.9997 106.6C29.6997 106.8 31.0997 106.9 31.7997 107C33.7997 107.2 35.7997 107.2 37.7997 107.3C43.3997 107.5 49.0997 107.6 54.6997 107.6C60.2997 107.6 65.8997 107.6 71.5997 107.3C73.5997 107.2 75.5997 107.1 77.5997 107C78.3997 107 79.7997 106.9 80.4997 106.7Z" fill="#FF9933"/>
<path fill-rule="evenodd" clip-rule="evenodd" d="M81.1999 109.1L84.8999 107.8V113.9L83.4999 114.8C74.7999 120.6 65.5999 125.4 56.0999 129.5L54.6999 130.1L53.5999 129.6C43.9999 125.4 34.6999 120.5 25.7999 114.7L24.3999 113.8V107.7L28.0999 109C32.2999 110.5 76.9999 110.6 81.1999 109.1Z" fill="#1A1A1A"/>
<path fill-rule="evenodd" clip-rule="evenodd" d="M54.8 126.9C50.1 124.8 31.8 115.3 27.5 112.1C36.3 115.1 45.4 117.9 54.8 120.5C64.2 117.9 73.4 115.2 82.1 112.1C75.3 115.7 58.1 122.3 54.8 123V126.9Z" fill="#CCCCCC"/>
<path fill-rule="evenodd" clip-rule="evenodd" d="M12.8998 121.3C14.4998 121.8 16.2998 121.6 17.6998 120.7C19.0998 119.8 20.1998 118.2 20.4998 116.4C18.3998 119.2 14.6998 119.9 11.8998 117.9C13.1998 118.7 14.7998 118.8 16.1998 118.3C14.5998 118.5 13.0998 117.9 12.0998 116.6C11.0998 115.3 10.6998 113.5 11.1998 111.9C12.4998 109.7 12.9998 108 12.5998 106.7C12.2998 106.2 11.5998 105.8 10.3998 105.6C9.29976 105.5 8.19976 104.8 7.59976 103.8C7.99976 104.9 8.89976 105.8 9.99976 106.2C8.19976 105.7 6.79976 104.3 6.09976 102.5C5.69976 100.5 5.89976 99 6.69976 97.9C7.99976 96.5 8.49976 95.3 8.09976 94.4C7.69976 93.5 6.99976 92.8 5.89976 92.2C3.69976 90.7 4.99976 88.1 7.19976 87.7C7.99976 87.6 8.69976 87.1 9.19976 86.4C8.79976 87.2 7.99976 87.8 7.09976 88C7.79976 88.1 8.59976 87.8 9.09976 87.3C9.69976 86.8 9.99976 86 9.99976 85.2C9.99976 83.7 9.59976 82.2 8.79976 81C9.09976 83.1 8.49976 84.6 6.89976 85.4C4.69976 86.4 3.69976 86.9 3.69976 86.9C2.49976 87.4 1.99976 88.7 1.99976 90.6C1.99976 91.7 2.09976 92.8 2.29976 93.9C2.39976 95.1 2.09976 96 1.29976 96.7C0.399759 97.8 0.499759 99 1.39976 100.4C2.49976 102.7 2.19976 104.9 0.699759 107.1C-0.400241 108.5 -0.300241 110.6 0.899759 111.9C0.599759 110.7 0.599759 109.9 0.899759 109.4C1.29976 108.7 1.59976 107.9 1.69976 107C1.89976 106.1 2.19976 105.7 2.69976 106C3.19976 106.4 3.19976 106.9 2.79976 107.7C2.19976 109.1 2.19976 110.2 2.69976 111.2C3.59976 112.3 3.69976 113 3.09976 113.3C4.09976 113.5 5.09976 113.9 5.89976 114.6C5.59976 114.2 5.29976 113.8 4.89976 113.6C6.19976 113.8 7.19976 114.7 7.59976 116.1C8.79976 120.3 10.9998 122.3 14.1998 121.9C13.6998 121.8 13.2998 121.6 12.8998 121.3Z" fill="#FF9933"/>
<path fill-rule="evenodd" clip-rule="evenodd" d="M77.7996 54.7001C76.6996 55.5001 75.3996 55.8001 74.0996 55.5001C72.7996 55.2001 71.6996 54.3001 71.0996 53.0001C73.2996 54.5001 76.0996 54.1001 77.7996 51.9001C76.9996 52.8001 75.8996 53.3001 74.6996 53.3001C75.8996 53.1001 76.8996 52.2001 77.3996 51.0001C77.8996 49.8001 77.6996 48.4001 76.9996 47.3001C75.5996 46.0001 74.7996 44.9001 74.7996 43.8001C74.8996 43.4001 75.2996 42.9001 76.1996 42.5001C76.9996 42.1001 77.5996 41.3001 77.8996 40.4001C77.7996 41.4001 77.3996 42.2001 76.6996 42.8001C77.8996 42.0001 78.6996 40.6001 78.7996 39.0001C78.5996 37.4001 78.1996 36.3001 77.3996 35.7001C76.0996 35.0001 75.4996 34.2001 75.5996 33.5001C75.6996 32.8001 76.0996 32.0001 76.6996 31.3001C77.9996 29.6001 76.3996 28.1001 74.6996 28.3001C74.0996 28.4001 73.3996 28.3001 72.8996 27.9001C73.3996 28.5001 74.0996 28.7001 74.7996 28.6001C74.2996 28.8001 73.6996 28.8001 73.0996 28.6001C72.5996 28.3001 72.1996 27.9001 71.9996 27.3001C71.6996 26.2001 71.6996 25.0001 71.9996 23.9001C72.1996 25.5001 72.9996 26.5001 74.3996 26.6001C76.1996 26.8001 77.0996 26.8001 77.0996 26.8001C78.0996 27.0001 78.7996 27.8001 79.1996 29.2001C79.3996 30.0001 79.5996 30.8001 79.6996 31.7001C79.8996 32.6001 80.2996 33.2001 80.9996 33.5001C81.8996 34.1001 82.0996 35.0001 81.6996 36.2001C81.3996 38.2001 82.0996 39.8001 83.6996 40.9001C84.7996 41.7001 85.1996 43.2001 84.5996 44.5001C84.5996 43.6001 84.3996 43.0001 83.9996 42.7001C83.4996 42.3001 83.1996 41.8001 82.8996 41.1001C82.5996 40.5001 82.2996 40.3001 81.8996 40.6001C81.5996 41.0001 81.6996 41.4001 82.1996 41.9001C82.8996 42.7001 83.1996 43.6001 82.9996 44.5001C82.5996 45.5001 82.5996 46.1001 83.1996 46.2001C82.4996 46.6001 81.8996 47.2001 81.3996 47.9001C81.4996 47.5001 81.6996 47.2001 81.8996 46.9001C80.9996 47.4001 80.4996 48.3001 80.4996 49.4001C80.4996 52.8001 79.3996 54.8001 76.8996 55.4001C77.2996 55.3001 77.5996 55.0001 77.7996 54.7001Z" fill="#FF9933"/>
<path fill-rule="evenodd" clip-rule="evenodd" d="M84.8997 96.8001C82.9997 97.0001 81.1997 96.3001 79.7997 94.9001C78.3997 93.5001 77.6997 91.6001 77.6997 89.6001C79.3997 93.2001 83.2997 94.8001 86.6997 93.3001C85.0997 93.8001 83.3997 93.6001 81.8997 92.7001C83.4997 93.3001 85.3997 93.0001 86.6997 91.9001C88.0997 90.7001 88.7997 88.9001 88.5997 87.0001C87.5997 84.3001 87.4997 82.4001 88.1997 81.0001C88.5997 80.5001 89.3997 80.3001 90.7997 80.4001C92.0997 80.5001 93.2997 80.0001 94.1997 79.1001C93.4997 80.2001 92.3997 81.0001 91.0997 81.2001C93.0997 81.1001 94.9997 79.9001 96.0997 78.1001C96.8997 76.0001 97.0997 74.3001 96.3997 73.0001C95.2997 71.1001 94.9997 69.7001 95.5997 68.8001C96.1997 68.0001 97.0997 67.4001 98.3997 67.0001C101.1 65.9001 100.2 62.8001 97.8997 61.8001C97.0997 61.4001 96.3997 60.8001 95.9997 59.9001C96.1997 61.0001 96.9997 61.8001 97.8997 62.2001C97.0997 62.1001 96.2997 61.6001 95.8997 60.9001C95.3997 60.2001 95.1997 59.3001 95.3997 58.4001C95.6997 56.8001 96.4997 55.3001 97.5997 54.1001C96.7997 56.3001 97.1997 58.1001 98.7997 59.3001C100.9 60.9001 102 61.7001 102 61.7001C103.1 62.7001 103.4 64.2001 103 66.3001C102.8 67.5001 102.4 68.7001 102 69.8001C101.6 71.0001 101.8 72.1001 102.5 73.0001C103.2 74.4001 102.9 75.7001 101.6 77.0001C99.8997 79.2001 99.6997 81.7001 101 84.4001C101.9 86.2001 101.3 88.4001 99.7997 89.5001C100.4 88.3001 100.5 87.4001 100.3 86.8001C99.9997 85.9001 99.8997 85.0001 99.9997 84.0001C99.9997 83.0001 99.6997 82.5001 99.0997 82.7001C98.4997 83.0001 98.2997 83.6001 98.6997 84.5001C99.0997 86.1001 98.8997 87.4001 98.0997 88.3001C96.8997 89.3001 96.5997 90.0001 97.1997 90.5001C96.0997 90.5001 94.8997 90.7001 93.8997 91.2001C94.2997 90.8001 94.6997 90.5001 95.1997 90.3001C93.7997 90.2001 92.4997 91.0001 91.7997 92.3001C89.5997 96.6001 86.7997 98.1001 83.4997 97.0001C83.8997 97.2001 84.3997 97.0001 84.8997 96.8001Z" fill="#FF9933"/>
<path fill-rule="evenodd" clip-rule="evenodd" d="M20.8999 80.9001C22.7999 81.1001 24.5999 80.4001 25.9999 79.0001C27.3999 77.6001 28.0999 75.7001 28.0999 73.7001C26.3999 77.3001 22.4999 78.9001 19.0999 77.4001C20.6999 77.9001 22.3999 77.7001 23.8999 76.8001C22.2999 77.4001 20.3999 77.1001 19.0999 76.0001C17.6999 74.8001 16.9999 73.0001 17.1999 71.1001C18.1999 68.4001 18.2999 66.5001 17.5999 65.1001C17.1999 64.6001 16.3999 64.4001 14.9999 64.5001C13.6999 64.6001 12.4999 64.1001 11.5999 63.2001C12.2999 64.3001 13.3999 65.1001 14.6999 65.3001C12.6999 65.2001 10.7999 64.0001 9.69993 62.2001C8.89993 60.1001 8.69993 58.4001 9.39993 57.1001C10.4999 55.2001 10.7999 53.8001 10.1999 52.9001C9.49993 52.0001 8.49993 51.4001 7.29993 51.0001C4.59993 49.9001 5.49993 46.8001 7.79993 45.8001C8.59993 45.5001 9.29993 44.8001 9.69993 43.9001C9.49993 45.0001 8.69993 45.8001 7.79993 46.2001C8.59993 46.1001 9.39993 45.6001 9.79993 44.9001C10.2999 44.2001 10.4999 43.3001 10.2999 42.4001C9.99993 40.8001 9.19993 39.3001 8.09993 38.1001C8.89993 40.3001 8.49993 42.1001 6.89993 43.3001C4.79993 44.9001 3.69993 45.7001 3.69993 45.7001C2.59993 46.7001 2.29993 48.2001 2.69993 50.3001C2.89993 51.5001 3.29993 52.7001 3.69993 53.8001C4.09993 55.0001 3.89993 56.1001 3.19993 57.0001C2.49993 58.4001 2.79993 59.7001 4.09993 61.0001C5.79993 63.2001 5.99993 65.7001 4.69993 68.4001C3.79993 70.2001 4.39993 72.4001 5.89993 73.5001C5.29993 72.3001 5.19993 71.4001 5.39993 70.8001C5.89993 70.0001 5.99993 69.1001 5.99993 68.1001C5.99993 67.1001 6.29993 66.6001 6.89993 66.8001C7.49993 67.1001 7.69993 67.7001 7.29993 68.6001C6.89993 70.2001 7.09993 71.5001 7.89993 72.4001C9.09993 73.4001 9.39993 74.1001 8.79993 74.6001C9.89993 74.6001 11.0999 74.8001 12.0999 75.3001C11.6999 74.9001 11.2999 74.6001 10.7999 74.4001C12.1999 74.3001 13.4999 75.1001 14.1999 76.4001C16.3999 80.7001 19.1999 82.2001 22.4999 81.1001C21.9999 81.2001 21.3999 81.1001 20.8999 80.9001Z" fill="#FF9933"/>
<path fill-rule="evenodd" clip-rule="evenodd" d="M19.6999 68.4C20.9999 69.8 22.8999 70.6 24.6999 70.4C26.5999 70.3 28.2999 69.3 29.3999 67.7C25.9999 69.3 22.0999 67.9 20.2999 64.4C21.2999 65.9 22.6999 66.9 24.3999 67.2C22.7999 66.6 21.4999 65.1 21.1999 63.2C20.7999 61.4 21.2999 59.4 22.4999 58.1C24.7999 56.7 26.0999 55.3 26.2999 53.7C26.2999 53.1 25.6999 52.3 24.6999 51.5C23.6999 50.7 22.9999 49.5 22.7999 48.1C22.6999 49.5 23.0999 50.8 23.9999 51.8C22.4999 50.3 21.6999 48.2 21.8999 46C22.4999 43.8 23.3999 42.4 24.5999 41.8C26.5999 41.1 27.5999 40.2 27.6999 39.1C27.6999 38 27.3999 36.9 26.5999 35.8C25.0999 33.1 27.6999 31.3 29.9999 32.1C30.8999 32.4 31.7999 32.4 32.5999 32C31.7999 32.7 30.6999 32.8 29.7999 32.5C30.4999 33 31.2999 33.1 32.0999 32.9C32.8999 32.7 33.5999 32.1 33.8999 31.3C34.5999 29.8 34.8999 28.2 34.6999 26.5C33.9999 28.7 32.6999 29.8 30.7999 29.7C28.1999 29.5 26.8999 29.4 26.8999 29.4C25.4999 29.4 24.2999 30.4 23.4999 32.3C22.9999 33.4 22.5999 34.5 22.1999 35.8C21.7999 37 20.9999 37.7 19.8999 38C18.5999 38.6 17.9999 39.8 18.2999 41.7C18.2999 44.6 16.9999 46.6 14.3999 47.8C12.6999 48.6 11.7999 50.7 12.3999 52.6C12.5999 51.3 12.9999 50.5 13.5999 50.2C14.2999 49.7 14.9999 49.1 15.4999 48.3C16.0999 47.5 16.5999 47.3 16.9999 47.9C17.2999 48.5 17.0999 49.1 16.1999 49.6C14.9999 50.6 14.3999 51.7 14.4999 53C14.8999 54.6 14.5999 55.3 13.8999 55.3C14.7999 56.1 15.4999 57 16.0999 58.1C15.9999 57.5 15.8999 57 15.5999 56.5C16.6999 57.4 17.2999 58.9 17.0999 60.4C16.2999 65.2 17.4999 68.3 20.7999 69.7C20.2999 69.4 19.8999 68.9 19.6999 68.4Z" fill="#FF9933"/>
<path fill-rule="evenodd" clip-rule="evenodd" d="M106.2 120C104.8 120.1 103.4 119.6 102.3 118.6C101.3 117.6 100.7 116.1 100.7 114.5C102 117.2 104.9 118.4 107.5 117.3C106.3 117.7 105 117.5 103.9 116.8C105.1 117.3 106.5 117 107.6 116.2C108.6 115.3 109.2 113.9 109.1 112.5C108.4 110.5 108.3 109 108.8 108C109.1 107.6 109.7 107.5 110.7 107.5C111.7 107.6 112.6 107.2 113.3 106.5C112.8 107.3 111.9 107.9 111 108.1C112.5 108 113.9 107.1 114.8 105.8C115.4 104.2 115.5 102.9 115.1 101.9C114.3 100.5 114 99.4 114.5 98.7C114.9 98.1 115.7 97.6 116.6 97.3C118.7 96.5 117.9 94.1 116.2 93.3C115.6 93 115 92.5 114.7 91.9C114.9 92.7 115.4 93.4 116.1 93.6C115.5 93.5 114.9 93.2 114.5 92.6C114.1 92.1 114 91.4 114.1 90.7C114.3 89.5 114.9 88.3 115.8 87.5C115.2 89.2 115.5 90.5 116.7 91.4C118.3 92.6 119.1 93.2 119.1 93.2C119.9 93.9 120.2 95.1 119.8 96.7C119.6 97.6 119.4 98.5 119 99.4C118.7 100.3 118.8 101.1 119.4 101.8C119.9 102.8 119.7 103.8 118.7 104.8C117.4 106.5 117.3 108.4 118.3 110.4C118.9 111.8 118.5 113.5 117.4 114.3C117.9 113.4 118 112.7 117.7 112.3C117.5 111.6 117.4 110.9 117.5 110.2C117.5 109.4 117.3 109.1 116.8 109.2C116.3 109.4 116.2 109.9 116.5 110.6C116.8 111.8 116.6 112.8 116 113.5C115.1 114.2 114.9 114.8 115.3 115.2C114.4 115.2 113.6 115.4 112.8 115.7C113.1 115.4 113.4 115.2 113.8 115C112.7 114.9 111.7 115.5 111.2 116.5C109.5 119.8 107.4 120.9 104.9 120.1C105.4 120.3 105.8 120.2 106.2 120Z" fill="#FF9933"/>
<path fill-rule="evenodd" clip-rule="evenodd" d="M69.5998 17.1C69.9998 18.3001 70.1998 19.5 70.1998 20.8C70.1998 21.5 70.1998 22.2 70.1998 22.8C70.1998 23 70.1998 23.1 70.1998 23.3C70.1998 24.2 70.1998 25 69.9998 25.9C70.7998 26.7 71.3998 27.7001 71.8998 28.7001C72.4998 29.2001 72.9998 29.7 73.3998 30.3C74.8998 30.7 76.1998 31.5 77.1998 33C77.9998 34.2 78.3998 35.6 78.3998 37C78.3998 37.3 78.3998 37.6001 78.2998 37.9001C79.8998 38.7001 81.4998 39.8001 82.7998 40.9001C84.9998 42.8001 87.7998 46.5 88.4998 49.5C88.4998 49.6 88.5998 49.6001 88.5998 49.7001C88.6998 50.0001 88.9998 50.3 89.0998 50.5C90.1998 52.4 91.2998 55.5001 91.3998 57.9001C91.5998 58.4001 91.8998 58.8 92.1998 59.3C92.5998 60 92.8998 60.7 93.0998 61.6C93.1998 61.8 93.2998 62.0001 93.3998 62.2001C93.6998 62.7001 93.9998 63.2001 94.1998 63.7001C95.8998 67.0001 96.3998 69.7 96.3998 73.4C97.2998 74.7 97.7998 75.9 98.0998 77.7C98.2998 79.2 98.2998 80.7 98.2998 82.2C98.2998 83.4 98.0998 84.4 97.8998 85.6C97.8998 86.5 97.6998 87.5 97.2998 88.3C98.6998 89.9 99.1998 92.1 98.6998 94.2L99.2998 94.9C100.1 95.8 100.6 96.9 100.9 98.1L101.2 98.3C101.9 98.5 102.6 98.8 103.2 99.2C104.4 100 105.6 100.9 106.7 101.8C106.9 101.9 107.2 102 107.4 102.1C108.1 102.5 108.7 103 109.4 103.5C109.8 103.6 110.1 103.8 110.5 103.9C111.3 104.3 112.1 105 112.7 105.7C113 106 113.3 106.2 113.7 106.4C116.2 107.7 117.6 110.7 117 113.6C116.5 116.1 114.8 118.5 112.7 119.7C110.7 120.9 108.3 120.7 106.4 119.2L105.9 118.8C105.2 118.3 104.7 117.6 104.3 116.9C103.7 116.6 103.2 116.2 102.8 115.7C101.1 115.4 99.5998 114.3 98.6998 112.6C96.7998 112.4 94.9998 111.3 93.9998 109.4C93.7998 109.3 93.5998 109.1 93.4998 109C92.6998 109 91.8998 108.8 91.0998 108.4C89.6998 108.8 88.1998 108.7 86.8998 108.1C86.1998 107.8 85.4998 107.4 84.9998 106.9C84.8998 106.8 84.7998 106.8 84.5998 106.7C83.9998 106.4 83.4998 106.1 82.9998 105.6C82.5998 105.4 82.2998 105.2 81.8998 104.9C81.7998 104.8 81.6998 104.7 81.4998 104.6C81.1998 104.5 80.9998 104.4 80.6998 104.2C80.5998 104.1 80.4998 104.1 80.3998 104C78.4998 105.3 76.0998 105.3 74.1998 104L74.0998 103.9C72.9998 105.4 71.3998 106.2 69.5998 106.2C69.2998 106.2 68.9998 106.3 68.7998 106.3C66.0998 106.6 63.3998 106.7 60.5998 106.7C59.6998 106.7 58.8998 106.5 58.0998 106.1C57.2998 106.5 56.4998 106.7 55.5998 106.7C52.2998 106.7 48.9998 106.6 45.6998 106.5C43.7998 106.4 41.7998 106.4 39.8998 106.3C38.4998 106.2 37.1998 106.2 35.7998 106C35.6998 106 35.6998 106 35.5998 106L33.0998 105.6C30.7998 105.3 28.9998 103.5 28.2998 101.3C26.7998 101 25.3998 100.4 24.2998 99.2C22.4998 97.2 21.9998 94.4 21.5998 91.8C21.3998 90.3 21.0998 88.5 21.0998 86.9C20.8998 86.2 20.7998 85.5 20.7998 84.7C20.7998 84.1 20.7998 83.4 20.7998 82.8C20.3998 81.9 20.0998 80.8 20.1998 79.7C20.0998 79.2 20.0998 78.7 20.0998 78.1C14.7998 76.4 10.8998 75 9.19978 68.6C7.39978 67 6.69978 64.5001 6.99978 61.9001V61.8C7.29978 60 7.99978 58.3 9.19978 57C9.59978 56.6 9.99978 56.2 10.4998 55.8L10.5998 55.7001C11.2998 54.3001 12.2998 53 13.3998 52C13.5998 51.8 13.7998 51.6 13.9998 51.5C14.1998 50 14.4998 48.6001 14.9998 47.2001C14.9998 46.1001 15.1998 45.1 15.6998 44.1C16.0998 43.2 16.6998 42.5001 17.3998 41.9001C18.0998 41.2001 18.8998 40.5001 19.6998 39.9001C20.7998 39.1001 21.9998 38.4001 23.1998 37.9001C24.2998 37.4001 25.3998 37.1 26.5998 36.8C26.5998 36.3 26.6998 35.7001 26.7998 35.2001C27.1998 33.1001 28.5998 31.5001 30.3998 30.7001C30.4998 30.6001 30.6998 30.6 30.7998 30.5C31.5998 29.2 32.5998 28.1 33.8998 27.5C34.3998 26.7 35.1998 25.8001 35.8998 25.2001C35.9998 25.1001 35.9998 25.1 36.0998 25C35.9998 24.2 36.0998 23.4 36.1998 22.6C36.1998 22.5 36.1998 22.4 36.1998 22.3V19.6C36.1998 18.7 36.3998 17.8 36.6998 16.9C36.4998 16.2 36.3998 15.6 36.3998 14.9C36.3998 12.6 37.4998 9.80005 38.5998 7.90005C41.5998 2.90005 46.6998 4.88311e-05 52.0998 -0.199951C52.5998 -0.199951 52.9998 -0.199951 53.4998 -0.199951C57.0998 -0.199951 60.9998 1.40005 63.8998 3.70005C66.8998 6.10005 69.6998 10.8 69.7998 14.9C69.8998 15.8 69.7998 16.5 69.5998 17.1Z" fill="#FF9933"/>
<path fill-rule="evenodd" clip-rule="evenodd" d="M17.3998 47.7C17.2998 46.9 17.3998 46.1 17.7998 45.4C18.0998 44.8 18.4998 44.4 18.8998 44C19.4998 43.3 20.2998 42.7 20.9998 42.2C21.9998 41.5 22.9998 40.9 24.0998 40.4C25.6998 39.7 27.6998 39.2 29.3998 39.1C28.9998 38.1 28.7998 37.2 29.0998 35.8C29.3998 34.5 30.0998 33.6 31.1998 33.1C31.5998 32.9 31.8998 32.8 32.3998 32.8C32.9998 31.3 33.9998 30.1 35.4998 29.7C35.5998 29.6 35.5998 29.5 35.6998 29.4C36.0998 28.7 36.7998 27.8 37.3998 27.4C37.8998 27 38.3998 26.8 38.9998 26.7C38.5998 25.5 38.4998 24.2 38.6998 22.9C38.6998 22.8 38.6998 22.6 38.6998 22.5V19.8C38.6998 18.9 38.9998 18 39.3998 17.2C39.0998 16.6 38.8998 15.9 38.8998 15.1C38.8998 13.3 39.8998 11 40.7998 9.5C43.3998 5.2 47.7998 2.8 52.3998 2.5C52.7998 2.5 53.2998 2.5 53.6998 2.5C56.7998 2.5 60.1998 3.9 62.6998 5.9C65.0998 7.8 67.4998 11.8 67.5998 15.1C67.5998 15.8 67.3998 16.5 67.0998 17.1C67.6998 18.1 67.8998 19.4 67.8998 20.7C67.8998 21.6 67.8998 22.2 67.8998 22.7C67.8998 22.9 67.8998 23 67.8998 23.2C67.8998 24.7 67.7998 25.8 67.3998 26.8C67.4998 26.9 67.5998 26.9 67.6998 27C68.6998 27.7 69.5998 29 70.0998 30.4C70.9998 31 71.5998 31.7 71.9998 32.6C73.2998 32.7 74.3998 33.1 75.2998 34.4C75.7998 35.1 75.9998 36 75.9998 36.9C75.9998 37.6 75.6998 38.5 75.3998 39.4C77.5998 40 79.8998 41.5 81.3998 42.8C83.2998 44.4 85.7998 47.7 86.2998 50.2C86.2998 50.3 86.2998 50.3 86.2998 50.4C86.3998 50.5 86.4998 50.7 86.4998 50.8C86.6998 51.1 86.8998 51.5 87.0998 51.8C87.9998 53.4 88.9998 56.2 88.9998 58.1C88.9998 58.2 88.9998 58.3 88.9998 58.4C89.2998 59.2 89.8998 60.1 90.1998 60.6C90.5998 61.2 90.6998 61.8 90.7998 62.4C90.9998 62.7 91.1998 63 91.2998 63.3C91.2998 63.4 91.3998 63.4 91.3998 63.5C91.6998 63.9 91.8998 64.3 92.0998 64.7C93.5998 67.6 93.9998 69.8 93.9998 73.2C93.9998 73.5 93.9998 73.8 93.8998 74.1C94.8998 75.3 95.4998 76.2 95.6998 77.9C95.8998 79.4 95.8998 80.6 95.8998 82.1C95.8998 83.2 95.6998 84.1 95.5998 85.1C95.5998 85.2 95.5998 85.3 95.5998 85.3C95.5998 86.2 95.2998 87.1 94.7998 87.7C94.7998 88 94.7998 88.2 94.7998 88.5C94.7998 88.6 94.7998 88.8 94.7998 88.9L95.5998 89.8C96.5998 91 96.7998 92.6 96.2998 94C96.4998 94.4 96.5998 94.8 96.5998 95.2L97.6998 96.4C98.3998 97.2 98.7998 98.2 98.6998 99.2L100.4 100.5C100.9 100.6 101.5 100.8 102 101.1C102.9 101.8 104.5 102.9 105.6 103.9C105.8 104 106.1 104.1 106.3 104.2C107 104.6 107.5 105 108.1 105.5C108.2 105.6 108.3 105.7 108.4 105.7C108.7 105.8 109.1 105.9 109.4 106.1C110 106.4 110.6 106.9 110.9 107.5C111.4 107.9 111.9 108.4 112.4 108.7C113.9 109.4 114.8 111.2 114.4 113.1C114 114.9 112.8 116.6 111.3 117.5C110.1 118.2 108.7 118.1 107.6 117.2L107.1 116.8C106.5 116.3 106.1 115.7 105.8 114.9C104.9 114.7 104.2 114.1 103.7 113.2C101.8 113.2 100.5 112 100.1 110.4L99.4998 110C99.3998 110 99.3998 110 99.2998 110C97.7998 110.1 96.3998 109.4 95.6998 108C95.5998 107.8 95.4998 107.7 95.4998 107.5C94.9998 107.2 94.4998 106.8 94.0998 106.4C93.9998 106.3 93.9998 106.3 93.8998 106.2C92.7998 106.3 91.7998 106 90.9998 105.3C89.9998 106 88.6998 106.1 87.4998 105.5C86.8998 105.3 86.3998 105 85.9998 104.5C85.7998 104.4 85.5998 104.3 85.3998 104.2C84.8998 104 84.4998 103.7 84.1998 103.3C83.7998 103.1 83.4998 102.9 83.0998 102.6C82.8998 102.5 82.7998 102.4 82.5998 102.2C82.2998 102.1 81.9998 102 81.6998 101.8C81.3998 101.6 80.9998 101.3 80.7998 101.1C80.5998 101 80.3998 100.9 80.1998 100.8C79.9998 100.9 79.8998 101 79.6998 101.1L79.1998 101.5C77.9998 102.4 76.4998 102.5 75.2998 101.7L73.6998 100.6C73.2998 100.9 72.9998 101.2 72.6998 101.4C72.5998 101.6 72.4998 101.9 72.2998 102.1C71.5998 103.1 70.5998 103.6 69.4998 103.6C69.0998 103.6 68.7998 103.7 68.3998 103.7C65.6998 104 63.1998 104.1 60.4998 104.1C59.7998 104.1 59.1998 103.9 58.6998 103.6C58.5998 103.6 58.4998 103.6 58.3998 103.5C58.1998 103.4 57.8998 103.4 57.6998 103.3C57.0998 103.8 56.2998 104.2 55.4998 104.2C52.1998 104.2 48.8998 104.1 45.6998 104C43.7998 103.9 41.8998 103.9 39.8998 103.8C38.5998 103.7 37.1998 103.7 35.9998 103.6H35.8998L33.3998 103.2C31.5998 102.9 30.3998 101.3 30.3998 99.5C30.3998 99.3 30.3998 99.2 30.3998 99C28.7998 99.1 27.0998 98.8 25.9998 97.5C24.5998 96 24.2998 93.5 23.9998 91.5C23.7998 90.2 23.4998 88.1 23.5998 86.6C23.3998 86.1 23.2998 85.5 23.2998 84.9C23.2998 83.9 23.2998 83.1 23.3998 82.4C22.8998 81.7 22.5998 80.7 22.6998 79.8C22.4998 79.2 22.5998 76.4 22.5998 76.4C15.8998 74.3 12.6998 73.5 11.2998 67.4C9.7998 66.2 9.1998 64.2 9.4998 62.3V62.2C9.6998 60.9 10.1998 59.7 10.9998 58.8C11.2998 58.5 11.5998 58.2 11.8998 58C12.0998 57.9 12.2998 57.8 12.4998 57.7C13.0998 56.4 13.9998 55 15.0998 54.1C15.4998 53.8 15.6998 53.5 16.0998 53.2C16.1998 53.1 16.2998 53.1 16.3998 53C16.3998 51.1 16.7998 49.3 17.3998 47.7Z" fill="#1A1A1A"/>
<path fill-rule="evenodd" clip-rule="evenodd" d="M107.6 109.8C107.7 109.7 107.8 109.7 107.8 109.8C107.9 109.9 107.9 110 107.9 110.1C107.4 110.9 107.1 111.3 107.1 111.3C107.1 111.4 107 111.4 106.9 111.4C106.8 111.4 106.8 111.3 106.7 111.3C106.7 111.2 106.7 111.1 106.7 111.1C107.4 110.2 107.6 109.8 107.6 109.8ZM104.1 109.5C104 109.6 103.9 109.6 103.8 109.6C103.7 109.5 103.7 109.4 103.7 109.3C104.1 108.6 104.4 108.2 104.7 107.9C104.7 107.9 105.4 108.5 106.9 109.6C107 109.8 107.1 110 106.9 110.2C106.8 110.4 106.6 110.4 106.4 110.3C105.2 109.4 104.5 108.9 104.5 109C104.4 109.1 104.2 109.3 104.1 109.5ZM99.3999 106.3C99.2999 106.4 99.1999 106.4 99.0999 106.4C98.9999 106.3 98.9999 106.2 98.9999 106.1C99.3999 105.4 99.6999 105 99.9999 104.7C99.9999 104.7 102.1 106.3 103.6 107.4C103.7 107.6 103.8 107.8 103.6 108C103.5 108.2 103.3 108.2 103.1 108.1C101.9 107.2 99.7999 105.7 99.7999 105.7C99.6999 105.9 99.4999 106.1 99.3999 106.3ZM93.7999 102.6C93.6999 102.7 93.5999 102.7 93.4999 102.7C93.3999 102.6 93.3999 102.5 93.3999 102.4C93.7999 101.7 94.0999 101.3 94.3999 101C94.3999 101 97.2999 103.2 98.7999 104.3C98.8999 104.5 98.9999 104.7 98.7999 104.9C98.6999 105.1 98.4999 105.1 98.2999 105C97.0999 104.1 94.1999 102 94.1999 102.1C94.0999 102.2 93.8999 102.4 93.7999 102.6ZM66.0999 83C66.2999 82.7 66.5999 82.4 66.9999 82.3C83.1999 93.3 91.2999 98.9 91.2999 98.9C91.3999 99 91.4999 99.1 91.4999 99.2C91.4999 99.3 91.3999 99.4 91.2999 99.5C91.1999 99.6 91.0999 99.6 90.9999 99.5C74.3999 88.5 66.0999 83 66.0999 83ZM94.0999 100C94.7999 99.5 95.0999 99.3 95.0999 99.3C95.0999 99.3 94.2999 98.5 92.7999 96.8C93.0999 96.3 93.0999 96 92.9999 95.9C92.9999 95.9 92.1999 95.3 90.6999 94C90.6999 94 90.8999 93.8 91.2999 93.3C91.2999 93.3 91.6999 93.3 92.3999 93.3C92.3999 93.3 92.5999 93.1 93.0999 92.7C93.0999 92.7 92.6999 92.2 91.7999 91.3C91.7999 91.3 91.1999 92 89.8999 93.4C89.8999 93.4 88.1999 92 84.6999 89.3C84.6999 89.3 84.1999 89.7 83.2999 90.6C83.2999 90.6 85.5999 92.6 90.1999 96.5C90.1999 96.5 88.5999 95.3 85.2999 93C85.2999 93 85.0999 93.3 84.5999 93.8C84.5999 93.8 87.7999 95.9 94.0999 100ZM82.3999 88.6C83.0999 87.8 83.3999 87.4 83.3999 87.4C77.4999 82.9 74.5999 80.7 74.5999 80.7C73.5999 82.6 73.0999 83.6 73.0999 83.6C77.0999 86.4 78.9999 87.7 78.9999 87.7C79.1999 87.6 79.3999 87.3 79.3999 87C77.4999 85.3 76.5999 84.5 76.5999 84.5C80.3999 87.3 82.3999 88.6 82.3999 88.6ZM65.0999 69.8C64.1999 70.8 63.9999 71.2 63.9999 71.2C69.9999 75.7 73.0999 77.9 73.0999 77.9C72.2999 78.6 71.8999 78.9 71.8999 78.9C67.8999 76.1 65.9999 74.6 65.9999 74.6C65.6999 75 65.4999 75.2 65.4999 75.2C69.4999 78 71.3999 79.3 71.3999 79.3C70.8999 79.9 70.5999 80.2 70.5999 80.2C65.4999 77 62.9999 75.4 62.9999 75.4C62.8999 72.9 62.8999 71.6 62.8999 71.6C60.4999 70 59.1999 69.2 59.1999 69.2C56.6999 71 55.4999 71.9 55.4999 71.9C51.8999 69.2 50.0999 67.9 50.0999 67.9C50.6999 67.2 50.9999 66.9 50.9999 66.9C54.3999 69 56.1999 70.1 56.1999 70.2C58.4999 68.8 59.5999 68 59.5999 68C60.7999 66.8 60.9999 66.7 60.9999 66.7C63.6999 69.1 65.0999 69.8 65.0999 69.8ZM56.2999 66.6C55.5999 67.7 55.2999 68.3 55.2999 68.3C52.8999 66.6 51.5999 65.7 51.5999 65.7C52.6999 64.9 53.2999 64.5 53.2999 64.5C55.2999 65.9 56.2999 66.6 56.2999 66.6ZM79.1999 93L78.2999 95.1C78.2999 95.2 78.2999 95.3 78.3999 95.3L78.6999 95.5C78.7999 95.5 78.8999 95.5 78.8999 95.4L79.7999 93.3C79.7999 93.2 79.7999 93.1 79.6999 93.1L79.3999 93C79.2999 92.9 79.2999 92.9 79.1999 93ZM84.3999 96.4L83.4999 98.5C83.4999 98.6 83.4999 98.7 83.5999 98.7L83.8999 98.9C83.9999 98.9 84.0999 98.9 84.0999 98.8L84.9999 96.7C84.9999 96.6 84.9999 96.5 84.8999 96.5L84.5999 96.3C84.4999 96.3 84.3999 96.3 84.3999 96.4ZM86.0999 97.5L85.1999 99.6C85.1999 99.7 85.1999 99.8 85.2999 99.8L85.5999 100C85.6999 100 85.7999 100 85.7999 99.9L86.6999 97.8C86.6999 97.7 86.6999 97.6 86.5999 97.6L86.2999 97.4C86.1999 97.4 86.0999 97.4 86.0999 97.5ZM87.7999 98.7L86.8999 100.8C86.8999 100.9 86.8999 101 86.9999 101L87.2999 101.2C87.3999 101.2 87.4999 101.2 87.4999 101.1L88.3999 99C88.3999 98.9 88.3999 98.8 88.2999 98.8L87.9999 98.6C87.8999 98.6 87.7999 98.6 87.7999 98.7ZM80.8999 94.1L79.9999 96.2C79.9999 96.3 79.9999 96.4 80.0999 96.4L80.3999 96.6C80.4999 96.6 80.5999 96.6 80.5999 96.5L81.4999 94.4C81.4999 94.3 81.4999 94.2 81.3999 94.2L81.0999 94C80.9999 94 80.9999 94 80.8999 94.1ZM82.6999 95.3L81.7999 97.4C81.7999 97.5 81.7999 97.6 81.8999 97.6L82.1999 97.8C82.2999 97.8 82.3999 97.8 82.3999 97.7L83.2999 95.6C83.2999 95.5 83.2999 95.4 83.1999 95.4L82.8999 95.2C82.7999 95.2 82.6999 95.2 82.6999 95.3ZM74.0999 89.7L73.1999 91.8C73.1999 91.9 73.1999 92 73.2999 92L73.5999 92.2C73.6999 92.2 73.7999 92.2 73.7999 92.1L74.6999 90C74.6999 89.9 74.6999 89.8 74.5999 89.8L74.2999 89.6C74.1999 89.6 74.0999 89.6 74.0999 89.7ZM75.7999 90.7L74.8999 92.8C74.8999 92.9 74.8999 93 74.9999 93L75.2999 93.2C75.3999 93.2 75.4999 93.2 75.4999 93.1L76.3999 91C76.3999 90.9 76.3999 90.8 76.2999 90.8L75.9999 90.7C75.8999 90.6 75.7999 90.7 75.7999 90.7ZM77.4999 91.9L76.6999 94C76.6999 94.1 76.6999 94.2 76.7999 94.2L77.0999 94.4C77.1999 94.4 77.2999 94.4 77.2999 94.3L78.1999 92.2C78.1999 92.1 78.1999 92 78.0999 92L77.7999 91.8C77.5999 91.8 77.4999 91.9 77.4999 91.9ZM67.0999 85.1L66.1999 87.2C66.1999 87.3 66.1999 87.4 66.2999 87.4L66.5999 87.6C66.6999 87.6 66.7999 87.6 66.7999 87.5L67.6999 85.4C67.6999 85.3 67.6999 85.2 67.5999 85.2L67.2999 85C67.1999 84.9 67.0999 85 67.0999 85.1ZM68.7999 86.1L67.8999 88.2C67.8999 88.3 67.8999 88.4 67.9999 88.4L68.2999 88.6C68.3999 88.6 68.4999 88.6 68.4999 88.5L69.3999 86.4C69.3999 86.3 69.3999 86.2 69.2999 86.2L68.9999 86.1C68.8999 86 68.7999 86.1 68.7999 86.1ZM70.4999 87.3L69.5999 89.4C69.5999 89.5 69.5999 89.6 69.6999 89.6L69.9999 89.8C70.0999 89.8 70.1999 89.8 70.1999 89.7L71.0999 87.6C71.0999 87.5 71.0999 87.4 70.9999 87.4L70.6999 87.2C70.5999 87.2 70.5999 87.3 70.4999 87.3ZM72.1999 88.4L71.2999 90.5C71.2999 90.6 71.2999 90.7 71.3999 90.7L71.6999 90.9C71.7999 90.9 71.8999 90.9 71.8999 90.8L72.7999 88.7C72.7999 88.6 72.7999 88.5 72.6999 88.5L72.3999 88.3C72.2999 88.3 72.2999 88.3 72.1999 88.4ZM89.4999 99.8L88.5999 101.9C88.5999 102 88.5999 102.1 88.6999 102.1L88.9999 102.3C89.0999 102.3 89.1999 102.3 89.1999 102.2L90.0999 100.1C90.0999 100 90.0999 99.9 89.9999 99.9L89.6999 99.7C89.5999 99.7 89.4999 99.7 89.4999 99.8ZM68.0999 92.5C67.9999 91.3 67.8999 90.2 67.7999 89.1C67.7999 89.1 71.7999 91.7 79.7999 97C78.0999 98.2 77.2999 98.7 77.2999 98.7C71.0999 94.5 68.0999 92.5 68.0999 92.5ZM54.5999 78.7C54.1999 79.1 53.9999 79.4 53.9999 79.4C60.4999 84 63.6999 86.3 63.6999 86.3C63.9999 85.8 64.1999 85.6 64.1999 85.6C57.7999 81 54.5999 78.7 54.5999 78.7ZM57.0999 83.1C56.8999 83.3 56.7999 83.4 56.7999 83.4C60.0999 85.7 61.6999 86.9 61.6999 86.9C61.8999 86.7 61.8999 86.5 61.8999 86.5C58.6999 84.2 57.0999 83.1 57.0999 83.1ZM56.5999 83.9C56.3999 84.1 56.2999 84.2 56.2999 84.2C59.5999 86.5 61.1999 87.7 61.1999 87.7C61.3999 87.5 61.3999 87.3 61.3999 87.3C58.1999 85.1 56.5999 83.9 56.5999 83.9ZM53.5999 85.2C53.1999 85.6 52.9999 85.9 52.9999 85.9C59.4999 90.5 60.1999 90.7 60.1999 90.7C60.4999 90.2 60.6999 90 60.6999 90C54.2999 85.5 53.5999 85.2 53.5999 85.2ZM56.2999 75.8C55.8999 76.2 54.9999 77.8 54.9999 77.8C61.4999 82.4 63.3999 84.1 63.3999 84.1C63.6999 83.6 64.6999 81.6 64.6999 81.6C58.3999 77.1 56.2999 75.8 56.2999 75.8ZM59.7999 92.9C59.9999 91.8 59.9999 91.3 59.9999 91.3C55.1999 88.2 52.8999 86.6 52.8999 86.6C52.1999 91.6 51.8999 94.8 51.9999 96.2C53.8999 97.2 54.7999 97.7 54.7999 97.7C54.8999 96.5 54.9999 95.9 54.9999 95.9C55.2999 97.3 55.3999 98.1 55.3999 98.1C57.8999 99.4 59.1999 100.1 59.1999 100.1C59.4999 96.2 59.6999 94.3 59.6999 94.3C58.5999 93.8 57.9999 93.5 57.9999 93.5C59.0999 93.7 59.5999 93.9 59.5999 93.9C57.0999 92.3 55.8999 91.4 55.9999 91.3C58.4999 92.3 59.7999 92.9 59.7999 92.9ZM52.5999 75.7C53.4999 74.4 53.9999 73.8 53.9999 73.8C49.9999 70.8 47.9999 69.3 47.9999 69.3C46.7999 69.6 46.1999 69.7 46.1999 69.7C48.1999 71.4 49.1999 72.3 49.1999 72.3C45.5999 70.6 43.8999 69.8 43.8999 69.8C43.2999 70.6 42.9999 71 42.9999 71.1C49.3999 74.2 52.5999 75.7 52.5999 75.7ZM42.7999 69C43.0999 69.2 43.3999 69.3 43.7999 69.3C44.1999 68.2 44.8999 67.2 45.8999 66.6C45.5999 66.2 45.2999 65.8 44.8999 65.5C43.7999 66.4 43.0999 67.6 42.7999 69ZM41.7999 68.4C41.9999 67 42.6999 65.8 43.8999 65.1C41.3999 63.6 40.0999 62.8 40.0999 62.8C39.3999 63.8 38.8999 65 38.6999 66.3C40.6999 67.7 41.7999 68.4 41.7999 68.4ZM39.7999 62.1C32.5999 57 28.9999 54.5 28.9999 54.5C28.9999 54.5 28.3999 54.8 27.0999 55.4C27.0999 55.4 27.0999 56.5 27.0999 58.7C27.0999 58.7 30.5999 61.2 37.5999 66.3C37.4999 64.5 38.2999 62.9 39.7999 62.1ZM32.4999 65.8C33.6999 65.3 34.2999 65 34.2999 65C29.3999 61.3 26.8999 59.5 26.8999 59.5C26.8999 60.7 26.8999 61.2 26.8999 61.2C30.6999 64.3 32.4999 65.8 32.4999 65.8ZM108 111C107.9 110.9 107.8 110.8 107.8 110.7C107.8 110.6 107.9 110.5 108 110.4C108.1 110.4 108.2 110.4 108.3 110.5C110.1 111.9 111 112.6 111 112.6C110.4 113.6 110.1 114.2 110.1 114.2C109.9 114.3 109.7 114.3 109.5 114.2C109.3 114.1 109.2 113.9 109.3 113.6C109.7 113 109.9 112.6 109.9 112.6C108.6 111.5 108 111 108 111Z" fill="#666666"/>
<path fill-rule="evenodd" clip-rule="evenodd" d="M107.6 109.8C107.7 109.7 107.8 109.7 107.8 109.8C107.9 109.9 107.9 110 107.9 110.1C107.4 110.9 107.1 111.3 107.1 111.3C107.1 111.4 107 111.4 106.9 111.4C106.8 111.4 106.8 111.3 106.7 111.3C106.7 111.2 106.7 111.1 106.7 111.1C107.4 110.2 107.6 109.8 107.6 109.8ZM104.1 109.5C104 109.6 103.9 109.6 103.8 109.6C103.7 109.5 103.7 109.4 103.7 109.3C104.1 108.6 104.4 108.2 104.7 107.9C104.7 107.9 105.4 108.5 106.9 109.6C107 109.8 107.1 110 106.9 110.2C106.8 110.4 106.6 110.4 106.4 110.3C105.2 109.4 104.5 108.9 104.5 109C104.4 109.1 104.2 109.3 104.1 109.5ZM99.4 106.3C99.3 106.4 99.2 106.4 99.1 106.4C99 106.3 99 106.2 99 106.1C99.4 105.4 99.7 105 100 104.7C100 104.7 102.1 106.3 103.6 107.4C103.7 107.6 103.8 107.8 103.6 108C103.5 108.2 103.3 108.2 103.1 108.1C101.9 107.2 99.8 105.7 99.8 105.7C99.7 105.9 99.5 106.1 99.4 106.3ZM82.4 88.6001C83.1 87.8001 83.4 87.4001 83.4 87.4001C77.5 82.9001 74.6 80.7001 74.6 80.7001C73.6 82.6001 73.1 83.6001 73.1 83.6001C77.1 86.4001 79 87.7001 79 87.7001C79.2 87.6001 79.4 87.3001 79.4 87.0001C77.5 85.3001 76.6 84.5001 76.6 84.5001C80.4 87.3001 82.4 88.6001 82.4 88.6001ZM65.2 69.8001C64.3 70.8001 64.1 71.3001 64.1 71.3001C70.1 75.8001 73.2 78.0001 73.2 78.0001C72.4 78.7001 72 79.0001 72 79.0001C68 76.2001 66.1 74.7001 66.1 74.7001C65.8 75.1001 65.6 75.3001 65.6 75.3001C69.6 78.1001 71.5 79.4001 71.5 79.4001C71 80.0001 70.7 80.3001 70.7 80.3001C65.6 77.1001 63.1 75.5001 63.1 75.5001C63 73.0001 63 71.7001 63 71.7001C60.6 70.1001 59.3 69.3001 59.3 69.3001C56.8 71.1001 55.6 72.0001 55.6 72.0001C52 69.3001 50.2 68.0001 50.2 68.0001C50.8 67.3001 51.1 67.0001 51.1 67.0001C54.5 69.1001 56.3 70.2001 56.3 70.3001C58.6 68.9001 59.7 68.1001 59.7 68.1001C60.9 66.9001 61.1 66.8001 61.1 66.8001C63.7 69.1001 65.2 69.8001 65.2 69.8001ZM56.3 66.6001C55.6 67.7001 55.3 68.3001 55.3 68.3001C52.9 66.6001 51.6 65.7001 51.6 65.7001C52.7 64.9001 53.3 64.5001 53.3 64.5001C55.3 65.9001 56.3 66.6001 56.3 66.6001ZM93.4 102.5C93.4 102.6 93.5 102.6 93.5 102.7C93.6 102.7 93.7 102.7 93.8 102.6C93.9 102.4 94.1 102.2 94.3 102.1C94.3 102.1 97.2 104.1 98.4 105C98.6 105.1 98.8 105 98.9 104.9C99 104.7 99 104.5 98.9 104.3C97.4 103.2 94.5 101 94.5 101C94.2 101.3 93.9 101.7 93.5 102.4C93.4 102.4 93.4 102.5 93.4 102.5ZM89.5 97.7001C90.1 98.3001 90.6 98.9001 91.1 99.5001C91.2 99.5001 91.2 99.5001 91.3 99.4001C91.4 99.3001 91.5 99.2001 91.5 99.1001C91.5 99.0001 91.4 98.9001 91.3 98.8001L89.5 97.7001ZM85 93.4001C85.9 94.2001 86.8 95.0001 87.7 95.8001L94.1 100C94.8 99.5001 95.1 99.3001 95.1 99.3001C95.1 99.3001 94.3 98.5001 92.8 96.8001C93.1 96.3001 93.1 96.0001 93 95.9001C93 95.9001 92.2 95.3001 90.7 94.0001C90.7 94.0001 90.9 93.8001 91.3 93.3001C91.3 93.3001 91.7 93.3001 92.4 93.3001C92.4 93.3001 92.6 93.1001 93.1 92.7001C93.1 92.7001 92.7 92.2001 91.8 91.3001C91.8 91.3001 91.2 92.0001 89.9 93.4001C89.9 93.4001 88.2 92.0001 84.7 89.3001C84.7 89.3001 84.2 89.7001 83.3 90.6001C83.3 90.6001 85.6 92.6001 90.2 96.5001C90.2 96.5001 88.6 95.3001 85.3 93.0001L85 93.4001ZM66.1 82.9001C67.5 83.4001 68.9 84.0001 70.3 84.6001L66.9 82.3001C66.6 82.4001 66.3 82.6001 66.1 82.9001ZM60.5 81.9001C61.3 82.0001 62.1 82.1001 62.9 82.1001C61.9 82.0001 61 81.6001 60.3 81.0001C61.7 81.4001 63.1 81.9001 64.4 82.4001C64.6 82.0001 64.7 81.7001 64.7 81.7001C58.3 77.2001 56.3 75.9001 56.3 75.9001C55.9 76.3001 55 77.9001 55 77.9001C57.4 79.6001 59.2 80.9001 60.5 81.9001ZM54.1 79.3001C55.4 80.2001 56.9 80.9001 58.4 81.4001L54.6 78.7001L54.1 79.3001ZM47.7 71.0001L49.2 72.3001L48 71.7001C48.3 72.5001 48.7 73.3001 49.2 74.1001L52.6 75.7001C53.5 74.4001 54 73.8001 54 73.8001C50 70.8001 48 69.3001 48 69.3001C46.8 69.6001 46.2 69.7001 46.2 69.7001L47.7 71.0001ZM45.9 70.7001C46.8 71.6001 47.6 72.6001 48.4 73.7001L47.9 71.7001L45.9 70.7001ZM43 68.1001C43.3 68.3001 43.6 68.6001 43.9 68.8001C44.3 67.9001 45 67.1001 45.8 66.5001C45.5 66.1001 45.2 65.7001 44.8 65.4001C44 66.2001 43.4 67.1001 43 68.1001ZM38.8 65.6001C39.9 66.1001 41 66.7001 42 67.4001C42.3 66.4001 43 65.6001 43.8 65.1001C41.3 63.6001 40 62.8001 40 62.8001C39.5 63.6001 39 64.6001 38.8 65.6001ZM34.2 63.9001C35.4 64.2001 36.5 64.6001 37.6 65.0001C37.9 63.7001 38.7 62.7001 39.7 62.0001C32.5 56.9001 28.9 54.4001 28.9 54.4001C28.9 54.4001 28.3 54.7001 27 55.3001C27 55.3001 27 56.4001 27 58.6001L34.2 63.9001ZM29.4 63.2001C30.4 63.2001 31.3 63.3001 32.3 63.5001L27 59.5001C27 60.7001 27 61.2001 27 61.2001L29.4 63.2001ZM108 111C107.9 110.9 107.8 110.8 107.8 110.7C107.8 110.6 107.9 110.5 108 110.4C108.1 110.4 108.2 110.4 108.3 110.5C110.1 111.9 111 112.6 111 112.6C110.4 113.6 110.1 114.2 110.1 114.2C109.9 114.3 109.7 114.3 109.5 114.2C109.3 114.1 109.2 113.9 109.3 113.6C109.7 113 109.9 112.6 109.9 112.6C108.6 111.5 108 111 108 111Z" fill="#999999"/>
<path fill-rule="evenodd" clip-rule="evenodd" d="M53.5997 86.3L54.1997 85.6C53.7997 85.3 53.6997 85.3 53.6997 85.3C53.2997 85.7 53.0997 86 53.0997 86C53.1997 86 53.3997 86.2 53.5997 86.3ZM59.4997 97.2L52.6997 94C52.7997 93.4 52.7997 93.1 52.7997 93.1C52.5997 93.7 52.3997 93.9 52.3997 93.9C52.3997 91.5 52.6997 89.1 53.2997 86.8L52.8997 86.5C52.1997 91.5 51.8997 94.7 51.9997 96.1C53.8997 97.1 54.7997 97.6 54.7997 97.6C54.8997 96.4 54.9997 95.8 54.9997 95.8C55.2997 97.2 55.3997 98 55.3997 98C57.8997 99.3 59.1997 100 59.1997 100L59.4997 97.2Z" fill="#333333"/>
<path fill-rule="evenodd" clip-rule="evenodd" d="M77.8 98.2L68 91C68 91.5 68.1 91.9 68.1 92.4C68.1 92.4 71.2 94.5 77.3 98.6L77.8 98.2Z" fill="#333333"/>
<path fill-rule="evenodd" clip-rule="evenodd" d="M89.1998 100.5L89.7998 100.9L90.0998 100.1C90.0998 100 90.0998 99.9 89.9998 99.9L89.6998 99.7C89.5998 99.7 89.4998 99.7 89.4998 99.8L89.1998 100.5ZM87.4998 99.4L88.0998 99.8L88.3998 99.1C88.3998 99 88.3998 98.9 88.2998 98.9L87.9998 98.6C87.8998 98.6 87.7998 98.6 87.7998 98.7L87.4998 99.4ZM85.7998 98.2L86.3998 98.6L86.6998 97.8C86.6998 97.7 86.6998 97.6 86.5998 97.6L86.2998 97.4C86.1998 97.4 86.0998 97.4 86.0998 97.5L85.7998 98.2ZM84.0998 97.1L84.6998 97.5L84.9998 96.8C84.9998 96.7 84.9998 96.6 84.8998 96.6L84.5998 96.4C84.4998 96.4 84.3998 96.4 84.3998 96.5L84.0998 97.1ZM82.3998 96L82.9998 96.4L83.2998 95.7C83.2998 95.6 83.2998 95.5 83.1998 95.5L82.8998 95.3C82.7998 95.3 82.6998 95.3 82.6998 95.4L82.3998 96ZM80.5998 94.8L81.1998 95.2L81.4998 94.5C81.4998 94.4 81.4998 94.3 81.3998 94.3L81.0998 94.1C80.9998 94.1 80.8998 94.1 80.8998 94.2L80.5998 94.8ZM78.9998 93.7L79.5998 94.1L79.8998 93.4C79.8998 93.3 79.8998 93.2 79.7998 93.2L79.3998 93C79.2998 93 79.1998 93 79.1998 93.1L78.9998 93.7ZM77.2998 92.6L77.8998 93L78.1998 92.3C78.1998 92.2 78.1998 92.1 78.0998 92.1L77.7998 91.9C77.6998 91.9 77.5998 91.9 77.5998 92L77.2998 92.6ZM75.4998 91.4L76.0998 91.8L76.3998 91.1C76.3998 91 76.3998 90.9 76.2998 90.9L75.9998 90.7C75.8998 90.7 75.7998 90.7 75.7998 90.8L75.4998 91.4ZM73.7998 90.3L74.3998 90.7L74.6998 90C74.6998 89.9 74.6998 89.8 74.5998 89.8L74.2998 89.6C74.1998 89.6 74.0998 89.6 74.0998 89.7L73.7998 90.3ZM71.9998 89L72.5998 89.4L72.8998 88.7C72.8998 88.6 72.8998 88.5 72.7998 88.5L72.4998 88.3C72.3998 88.3 72.2998 88.3 72.2998 88.4L71.9998 89ZM70.2998 87.9L70.8998 88.3L71.1998 87.7C71.1998 87.6 71.1998 87.5 71.0998 87.5L70.7998 87.3C70.6998 87.3 70.5998 87.3 70.5998 87.4L70.2998 87.9ZM68.4998 86.8L69.0998 87.2L69.3998 86.6C69.3998 86.5 69.3998 86.4 69.2998 86.4L68.9998 86.1C68.8998 86.1 68.7998 86.1 68.7998 86.2L68.4998 86.8ZM66.7998 85.6L67.3998 86L67.6998 85.4C67.6998 85.3 67.6998 85.2 67.5998 85.2L67.2998 85C67.1998 85 67.0998 85 67.0998 85.1L66.7998 85.6Z" fill="#E6E6E6"/>
<path fill-rule="evenodd" clip-rule="evenodd" d="M107.3 110.4L107.6 110.6L108 110.1C108.1 110 108 109.9 107.9 109.8C107.8 109.7 107.7 109.7 107.7 109.8L107.3 110.4ZM104.3 108.3L106.9 110.1C107 109.9 107 109.7 106.8 109.6C105.3 108.5 104.6 107.9 104.6 107.9C104.6 108 104.5 108.2 104.3 108.3ZM99.5997 105.1L103.7 107.9C103.8 107.7 103.8 107.5 103.6 107.4C102.1 106.3 99.9997 104.7 99.9997 104.7C99.8997 104.8 99.7997 104.9 99.5997 105.1ZM94.0997 101.3L98.8997 104.6C98.8997 104.5 98.8997 104.4 98.7997 104.3C97.2997 103.2 94.3997 101 94.3997 101C94.2997 101.1 94.1997 101.2 94.0997 101.3ZM84.2997 89.7L92.8997 96.6C93.0997 96.2 93.0997 96 92.9997 95.9C92.9997 95.9 92.1997 95.3 90.6997 94C90.6997 94 90.8997 93.8 91.2997 93.3C91.2997 93.3 91.6997 93.3 92.3997 93.3C92.3997 93.3 92.5997 93.1 93.0997 92.7C93.0997 92.7 92.6997 92.2 91.7997 91.3C91.7997 91.3 91.1997 92 89.8997 93.4C89.8997 93.4 88.1997 92 84.6997 89.3L84.2997 89.7ZM74.0997 81.6L82.5997 88.3L83.3997 87.4C77.4997 82.9 74.5997 80.7 74.5997 80.7L74.0997 81.6ZM58.8997 68.6L72.3997 78.6L73.0997 78C73.0997 78 70.0997 75.8 63.9997 71.3C63.9997 71.3 64.4997 70.7 65.2997 69.8L60.9997 66.8L59.5997 68.2L58.8997 68.6ZM52.6997 65L55.8997 67.3L56.2997 66.6C56.2997 66.6 55.2997 65.9 53.2997 64.5L52.6997 65ZM107.8 110.8C107.8 110.7 107.8 110.7 107.8 110.8C107.8 110.6 107.9 110.5 108 110.4C108.1 110.4 108.2 110.4 108.3 110.5C110.1 111.9 111 112.6 111 112.6L110.8 112.9L107.8 110.8Z" fill="#E6E6E6"/>
<path fill-rule="evenodd" clip-rule="evenodd" d="M43.9 66.5001L45 67.3001C45.3 67.0001 45.6 66.8001 45.9 66.6001C45.6 66.2001 45.3 65.8001 44.9 65.5001C44.5 65.8001 44.1 66.2001 43.9 66.5001ZM39.6 63.4001L42.9 65.8001C43.2 65.5001 43.5 65.3001 43.8 65.1001C41.3 63.6001 40 62.8001 40 62.8001C39.9 63.0001 39.8 63.2001 39.6 63.4001ZM28 54.9001L38.8 62.8001C39.1 62.5001 39.4 62.2001 39.8 62.0001C32.6 56.9001 29 54.4001 29 54.4001L28 54.9001Z" fill="#E6E6E6"/>
<path fill-rule="evenodd" clip-rule="evenodd" d="M66.2 93.6001C66.6 93.6001 67 93.4001 67.3 93.1001C68.2 94.3001 68.6 94.9001 68.6 94.9001C68.7 95.2001 68.6 95.6001 68.4 96.0001C68 96.4001 67.5 96.7001 67 96.8001C66.6 96.8001 66.2 96.3001 65.6 95.3001C64 92.8001 64.9 87.8001 66.4 90.2001C66.8 91.0001 67 91.8001 67.1 92.7001C66.9 93.1001 66.6 93.4001 66.2 93.6001ZM60.5 92.1001C60.6 90.8001 61.3 89.6001 62.4 89.1001C62 90.6001 62 92.1001 62.5 93.6001C61.7 93.4001 60.9 92.9001 60.5 92.1001ZM65 95.3001C64 92.3001 64.1 90.0001 65.2 89.2001C65.3 88.8001 65.2 88.4001 65 88.0001C64.8 87.7001 64.4 87.4001 64 87.4001C62.2 87.4001 61.2 93.6001 65 95.3001ZM71.6 97.9001C71.8 97.6001 72.1 97.4001 72.5 97.3001C71 95.7001 70.3 95.0001 70.3 95.0001C70 94.7001 69.6 94.6001 69.2 94.9001C68.8 95.1001 68.7 95.5001 68.7 96.0001C69.8 97.4001 70.4 98.2001 70.4 98.2001C70.8 98.4001 71.2 98.3001 71.6 97.9001Z" fill="#666666"/>
<path fill-rule="evenodd" clip-rule="evenodd" d="M65.1 94.2001C65.2 94.6001 65.4 94.9001 65.5 95.2001C65.5 95.3001 65.6 95.3001 65.6 95.3001C65.7 95.5001 65.8 95.6001 65.8 95.7001C66.6 95.7001 67.4 95.2001 67.8 94.4001C67.3 93.7001 67.1 93.4001 67.1 93.4001C66.7 93.6001 66.2 93.7001 65.8 93.6001C66.2 93.5001 66.4 93.1001 66.5 92.7001C66.3 93.0001 66.2 93.1001 66.2 93.1001C66.5 92.7001 66.6 92.1001 66.3 91.4001C66 90.3001 65.7 89.7001 65.4 89.6001C64.8 90.1001 64.5 92.3001 65.1 94.2001ZM62.7 92.6001C63.1 92.8001 63.5 93.0001 63.8 93.4001C63.6 92.5001 63.7 91.5001 63.8 90.5001C63.7 90.4001 63.6 90.4001 63.6 90.4001C63.8 90.4001 63.9 90.4001 63.9 90.4001C63.7 90.2001 63.5 90.0001 63.3 89.9001C63.5 89.9001 63.8 89.9001 64 90.1001C64.2 89.5001 64.7 89.2001 65.2 89.2001C65.3 88.8001 65.2 88.4001 65 88.0001C64.8 87.7001 64.4 87.4001 64 87.4001C62.8 87.4001 61.9 90.3001 62.7 92.6001ZM62.4 89.1001C61.6 89.7001 61.1 90.6001 61 91.6001C61.3 92.0001 61.7 92.3001 62.2 92.5001C62 91.3001 62.1 90.2001 62.4 89.1001ZM71.8 96.5001L70.3 95.0001C70 94.7001 69.6 94.6001 69.2 94.9001C69.1 95.0001 69 95.1001 68.9 95.2001C69.9 96.7001 70.5 97.4001 70.8 97.6001C71 97.0001 71.3 96.6001 71.8 96.5001Z" fill="#999999"/>
<path fill-rule="evenodd" clip-rule="evenodd" d="M65.5999 95.4C64.9999 93.6 64.8999 91.6 65.3999 89.7C64.6999 90.1 64.3999 92.4 64.9999 94.2C65.0999 94.6 65.2999 94.9 65.3999 95.2C65.4999 95.3 65.5999 95.3 65.5999 95.4Z" fill="#B3B3B3"/>
<path fill-rule="evenodd" clip-rule="evenodd" d="M65.1995 89.2001C65.1995 88.8001 65.0995 88.4001 64.8995 88.2001C64.5995 87.9001 64.2995 87.8001 63.8995 87.8001C63.9995 87.9001 64.0995 88.0001 64.0995 88.0001C62.6995 89.0001 62.0995 90.9001 62.6995 92.6001C62.6995 92.6001 62.6995 92.5001 62.5995 92.5001C61.8995 90.2001 62.7995 87.5001 63.9995 87.4001C64.3995 87.4001 64.6995 87.7001 64.9995 88.0001C65.1995 88.4001 65.2995 88.8001 65.1995 89.2001Z" fill="#B3B3B3"/>
<path fill-rule="evenodd" clip-rule="evenodd" d="M45.5 78.8C45.4 78 45.7 76.4 46.5 76C47.3 76.5 49.2 77.5 49.2 77.5C49.9 77.9 50.1 78.9 49.7 79.7C49.3 80.5 48.7 80.5 47.9 80.1C46.2 79.1 45.5 78.8 45.5 78.8Z" fill="#666666"/>
<path fill-rule="evenodd" clip-rule="evenodd" d="M45.6997 77.3001C45.7997 76.7001 46.0997 76.1001 46.4997 75.9001C47.2997 76.4001 49.1997 77.4001 49.1997 77.4001C49.7997 77.8001 49.9997 78.5001 49.8997 79.1001C49.7997 78.0001 49.0997 77.7001 48.6997 77.5001C47.7997 77.0001 46.9997 77.6001 47.6997 78.4001C46.8997 78.1001 46.3997 77.7001 45.6997 77.3001Z" fill="#4C4C4C"/>
<path fill-rule="evenodd" clip-rule="evenodd" d="M31.0996 76.5C31.0996 74.1 31.6996 71.7 32.9996 69.7C32.9996 69.7 35.0996 69.6 39.2996 69.3C40.3996 70.1 40.9996 70.6 40.9996 70.6C40.9996 71.3 40.9996 71.9 40.6996 72.6C43.7996 74.5 45.3996 75.5 45.3996 75.5C44.7996 76.4 44.4996 77.5 44.3996 78.6C41.5996 77.3 40.3996 76.7 40.5996 76.8C41.6996 78 42.8996 79 44.1996 79.9C43.7996 80.9 43.1996 81.7 42.4996 82.4C41.3996 82 40.3996 81.3 39.5996 80.4C40.1996 81.4 40.9996 82.3 41.8996 82.9C41.9996 83.5 41.2996 83.6 39.7996 83.3C40.0996 83.5 40.4996 83.7 40.8996 83.7C40.7996 84.1 40.2996 84.3 39.4996 84.4C37.1996 84.6 34.7996 83.6 33.1996 81.8C34.2996 80.1 33.8996 79.5 31.9996 80.1C31.6996 79.6 31.8996 78.6 32.6996 77.1C33.1996 76.2 33.2996 75.5 33.1996 75.1C32.6996 76.1 32.0996 77.2 31.2996 78.3C31.9996 76.3 32.2996 75.2 32.1996 74.8C31.4996 75.8 31.0996 76.5 31.0996 76.5Z" fill="#2C3032"/>
<path fill-rule="evenodd" clip-rule="evenodd" d="M31.0996 76.5001C31.0996 74.7001 31.3996 73.0001 32.0996 71.4001C31.8996 72.6001 31.8996 72.5001 32.3996 73.4001C32.7996 72.4001 33.3996 71.8001 34.5996 71.5001C33.2996 74.0001 34.6996 77.8001 38.1996 79.0001C37.6996 78.4001 37.1996 77.3001 37.1996 76.5001C38.2996 78.0001 39.9996 79.2001 42.1996 80.5001C42.8996 80.9001 42.9996 80.9001 43.7996 80.8001C43.4996 81.3001 43.0996 81.8001 42.5996 82.2001C41.4996 81.8001 40.4996 81.1001 39.6996 80.2001C40.2996 81.2001 41.0996 82.1001 41.9996 82.7001C42.0996 83.3001 41.3996 83.4001 39.8996 83.1001C40.1996 83.3001 40.5996 83.5001 40.9996 83.5001C40.8996 83.9001 40.3996 84.1001 39.5996 84.2001C37.2996 84.4001 34.8996 83.4001 33.2996 81.6001C34.3996 79.9001 33.9996 79.3001 32.0996 79.9001C31.7996 79.4001 31.9996 78.4001 32.7996 76.9001C33.2996 76.0001 33.3996 75.3001 33.2996 74.9001C32.7996 75.9001 32.1996 77.0001 31.3996 78.1001C32.0996 76.1001 32.3996 75.0001 32.2996 74.6001C31.4996 75.8001 31.0996 76.5001 31.0996 76.5001Z" fill="#202325"/>
<path fill-rule="evenodd" clip-rule="evenodd" d="M74.8998 58C74.0998 58.3 73.0998 60.7 72.7998 61.6C72.5998 60 72.7998 58.4 73.3998 56.9C72.1998 57.8 71.2998 59 70.7998 60.4C69.9998 54.4 70.9998 48.4 73.4998 43C77.5998 44 81.0998 47 82.8998 51.2C80.5998 51.5 78.3998 52.7 76.7998 54.5C77.3998 59 79.0998 63.2 81.6998 66.8C81.3998 65.6 81.2998 65 81.2998 65C81.6998 65.6 82.0998 66.1 82.4998 66.6C84.0998 65.3 86.0998 64.8 88.0998 65.1C89.7998 67.4 90.6998 70.4 90.6998 73.4C88.2998 72.2 85.6998 71.9 83.0998 72.4C88.4998 73.8 93.9998 76.4 92.1998 85.4C91.3998 83.5 89.7998 82.1 87.8998 81.8C90.3998 83.6 91.6998 86.7 91.2998 90C90.3998 91 89.9998 91.6 89.9998 91.6C87.3998 88.1 84.0998 85.3 80.4998 83.1C81.6998 82.8 82.8998 83 83.8998 83.7C83.9998 81.2 82.0998 77.3 79.8998 75.7C81.6998 76.3 83.8998 77.5 85.1998 79.8C85.1998 75.8 78.7998 73.4 77.3998 68.7C78.6998 69.7 79.5998 70.6 81.3998 70.9C78.2998 69.5 75.2998 62.5 74.8998 58Z" fill="#3C4245"/>
<path fill-rule="evenodd" clip-rule="evenodd" d="M91.2999 89.0001C91.2999 89.0001 91.2999 89.1001 91.2999 89.0001C90.1999 89.1001 89.0999 89.1001 87.9999 89.2001C85.7999 86.8001 83.2999 84.8001 80.4999 83.2001C81.6999 82.9001 82.8999 83.1001 83.8999 83.8001C83.9999 81.3001 82.0999 77.4001 79.8999 75.9001C82.1999 76.8001 84.2999 78.6001 87.6999 86.7001C88.0999 85.2001 87.7999 83.7001 87.0999 82.3001C89.3999 84.0001 90.6999 86.4001 91.2999 89.0001Z" fill="#2C3032"/>
<path fill-rule="evenodd" clip-rule="evenodd" d="M74.8997 58C74.0997 58.3 73.0997 60.7 72.7997 61.6C72.5997 60 72.7997 58.4 73.3997 56.9C72.1997 57.8 71.2997 59 70.7997 60.4C69.9997 54.8 70.3997 51.3 73.6997 47C73.2997 49.7 72.8997 51.5 73.0997 54.2C73.6997 53.1 74.5997 52.2 75.8997 51.7C75.5997 58.6 77.9997 66 82.5997 69.9C81.9997 68.6 81.9997 68.3 81.7997 67.4C83.1997 70 84.6997 71.4 87.9997 72.5C86.3997 72.1 84.6997 72.1 83.0997 72.4C82.6997 72.3 82.2997 72.3 81.7997 72.3C83.1997 74.5 84.0997 75.4 84.5997 78C84.5997 78 84.5997 78 84.4997 77.9C82.8997 75 78.3997 72.7 77.1997 68.9C78.4997 69.9 79.3997 70.8 81.1997 71.1C78.2997 69.5 75.2997 62.5 74.8997 58Z" fill="#2C3032"/>
<path fill-rule="evenodd" clip-rule="evenodd" d="M72.6997 45C72.9997 44.3 73.2997 43.7 73.5997 43C77.6997 44 81.1997 47 82.9997 51.2C82.4997 51.3 81.8997 51.4 81.3997 51.5C78.5997 48 77.0997 45.4 72.6997 45Z" fill="#878F92"/>
<path fill-rule="evenodd" clip-rule="evenodd" d="M83.8999 65.7001C85.1999 65.1001 86.5999 64.9001 88.0999 65.1001C89.7999 67.4001 90.6999 70.4001 90.6999 73.4001C90.0999 73.1001 89.5999 72.9001 88.9999 72.7001C88.5999 70.0001 87.8999 68.0001 86.5999 65.7001C85.3999 65.5001 84.8999 65.3001 83.8999 65.7001Z" fill="#878F92"/>
<path fill-rule="evenodd" clip-rule="evenodd" d="M83.0996 72.4001C88.3996 73.8001 93.8996 76.4001 91.9996 85.4001C91.5996 84.4001 90.8996 83.6001 90.0996 82.9001C91.5996 77.9001 88.2996 74.1001 83.0996 72.4001Z" fill="#878F92"/>
<path fill-rule="evenodd" clip-rule="evenodd" d="M76.6999 80.3C73.4999 77.7 71.4999 73.7 71.3999 69.3C71.3999 69.3 72.1999 70.3 72.7999 72C72.6999 70.1 72.4999 68.1 73.1999 66.3C73.5999 71.2 74.7999 76 76.6999 80.3Z" fill="#3C4245"/>
<path fill-rule="evenodd" clip-rule="evenodd" d="M15.0998 62.1001C14.7998 59.8001 16.4998 57.1001 18.7998 55.7001C18.9998 56.8001 19.1998 57.6001 19.4998 58.2001C19.2998 47.1001 23.6998 42.1001 31.3998 43.0001C31.9998 47.0001 32.1998 49.7001 31.0998 53.5001C30.0998 52.8001 30.1998 52.8001 29.0998 52.2001C27.8998 52.8001 26.3998 53.8001 25.3998 54.3001C25.2998 56.2001 25.1998 58.4001 25.2998 61.0001C24.8998 59.9001 24.3998 58.5001 23.4998 58.0001C24.0998 59.5001 24.2998 61.1001 24.0998 62.8001C22.9998 60.8001 20.5998 59.4001 18.6998 60.4001C19.5998 60.3001 20.4998 60.6001 21.1998 61.1001C19.2998 60.8001 17.2998 61.3001 15.6998 62.4001C15.9998 61.9001 16.0998 61.6001 16.0998 61.6001C15.3998 61.9001 15.0998 62.1001 15.0998 62.1001Z" fill="#5B646A"/>
<path fill-rule="evenodd" clip-rule="evenodd" d="M23.4999 58C24.0999 59.5 24.2999 61.1 24.0999 62.7C23.6999 61.9 23.0999 61.2999 22.3999 60.7999C22.4999 60.3999 22.5999 60.1 22.6999 59.7C22.6999 59.2 22.5999 58.6999 22.5999 58.0999C22.3999 57.4999 22.1999 56.9 21.8999 56.4C22.2999 56.7 22.5999 56.9999 22.9999 57.2999C23.0999 57.5999 23.2999 57.8 23.4999 58ZM31.7999 47.2C31.8999 49.3 31.6999 51.2 31.0999 53.5C30.0999 52.8 30.1999 52.8 29.0999 52.2C27.8999 52.8 26.3999 53.7999 25.3999 54.2999C25.2999 56.1999 25.1999 58.4 25.2999 61C24.9999 60.2 24.6999 59.2999 24.1999 58.5999C24.3999 56.9999 24.1999 55.5999 24.3999 54.2999C24.6999 52.7999 26.9999 51 27.5999 49.5C27.4999 50.3 27.2999 51.2999 26.7999 52.0999C28.7999 50.5999 29.2999 47.9 31.7999 47.2Z" fill="#2C3032"/>
<path fill-rule="evenodd" clip-rule="evenodd" d="M19.5998 56.6001C19.6998 46.6001 24.0998 42.1001 31.3998 43.0001C24.9998 43.4001 22.4998 46.9001 21.8998 53.5001C21.6998 52.0001 21.5998 50.4001 21.8998 49.0001C20.5998 51.3001 19.9998 53.8001 19.5998 56.6001ZM15.0998 62.1001C14.7998 59.8001 16.4998 57.1001 18.7998 55.7001C16.8998 57.5001 16.1998 59.2001 15.9998 60.7001C16.8998 59.6001 17.6998 59.3001 18.8998 59.1001C18.4998 59.4001 17.9998 59.6001 17.7998 60.1001C18.8998 59.5001 20.5998 59.6001 21.5998 60.4001C20.5998 59.9001 19.4998 59.8001 18.5998 60.4001C19.4998 60.3001 20.3998 60.6001 21.0998 61.1001C19.1998 60.8001 17.1998 61.3001 15.5998 62.4001C15.8998 61.9001 15.9998 61.6001 15.9998 61.6001C15.3998 61.9001 15.0998 62.1001 15.0998 62.1001Z" fill="#878F92"/>
<path fill-rule="evenodd" clip-rule="evenodd" d="M28.1998 70.2001C27.3998 70.7001 27.0998 70.9001 27.0998 70.9001C24.5998 70.5001 19.4998 72.4001 17.0998 70.3001C18.8998 70.6001 20.8998 69.0001 21.7998 68.1001C18.2998 68.9001 14.6998 66.9001 13.2998 63.3001C13.1998 63.6001 13.1998 63.9001 13.1998 64.2001C12.6998 63.2001 12.8998 61.9001 13.6998 61.1001C13.6998 62.9001 15.1998 64.6001 17.7998 64.1001C16.9998 64.0001 16.3998 63.8001 15.9998 63.3001C18.5998 61.7001 21.7998 62.0001 23.9998 64.1001C23.1998 64.1001 22.2998 64.3001 21.5998 64.8001C23.9998 64.9001 25.8998 65.5001 27.7998 66.9001C26.9998 67.1001 26.0998 67.5001 25.5998 68.2001C27.5998 67.4001 30.0998 67.0001 31.6998 67.8001C29.2998 70.1001 27.9998 73.3001 27.9998 76.7001C27.5998 76.6001 27.2998 76.4001 26.9998 76.1001C26.7998 74.1001 27.1998 72.0001 28.1998 70.2001Z" fill="#5B646A"/>
<path fill-rule="evenodd" clip-rule="evenodd" d="M21.5998 68.1001C18.0998 68.8001 14.5998 66.8001 13.2998 63.3001C13.1998 63.6001 13.1998 63.9001 13.1998 64.2001C12.6998 63.2001 12.8998 61.9001 13.6998 61.1001C13.6998 62.1001 14.1998 63.1001 15.0998 63.7001C16.1998 65.9001 17.7998 65.9001 18.6998 66.1001C18.3998 66.4001 17.8998 66.4001 17.4998 66.4001C19.9998 67.5001 20.6998 67.6001 23.2998 67.4001C22.7998 67.6001 22.2998 67.8001 21.8998 68.1001C21.7998 68.1001 21.6998 68.1001 21.5998 68.1001Z" fill="#878F92"/>
<path fill-rule="evenodd" clip-rule="evenodd" d="M27.0996 70.9C24.5996 70.5 19.4996 72.4 17.0996 70.3C17.8996 70.4 18.8996 70.3 20.9996 68.8C20.2996 69.5 20.3996 70.4 20.6996 70.4C22.3996 71 23.9996 69.9 27.0996 70.9Z" fill="#878F92"/>
<path fill-rule="evenodd" clip-rule="evenodd" d="M21.6 64.8C24 64.9 25.9 65.5 27.8 66.9C27 67.1 26.1 67.5 25.6 68.2C27.6 67.4 30.1 67 31.7 67.8C31.3 68.2 31 68.6 30.6 69C27.4 67.9 24 68.9 22.7 69.9C23.4 68.9 24 68 25.1 67.6C23.6 66 21.5 65.6 19.5 64.9C19.9 64.9 20.8 64.8 21.6 64.8ZM19 62.3C20.8 62.2 22.6 62.8 24 64.1C23.5 64.1 23.1 64.2 22.6 64.3C21.7 63.2 20.8 62.6 19 62.3Z" fill="#2C3032"/>
<path fill-rule="evenodd" clip-rule="evenodd" d="M30.3998 72.9C31.0998 70.5 32.4998 68.4 34.1998 66.7C30.8998 69 28.8998 72.9 28.7998 77.2C29.7998 77.7 30.2998 78 30.2998 78C30.0998 73.9 31.6998 70 34.5998 67.4C32.7998 68.6 31.2998 70.5 30.3998 72.9Z" fill="#5B646A"/>
<path fill-rule="evenodd" clip-rule="evenodd" d="M29.1997 77.3C29.9997 77.7 30.3997 77.9 30.3997 77.9C30.2997 75.4 30.8997 72.9 31.9997 70.8C30.5997 72.7 29.7997 75.1 29.5997 77.6C29.4997 76.1 29.5997 74.6 29.8997 73.1C29.3997 74.4 29.1997 75.9 29.1997 77.3Z" fill="#3C4245"/>
<path fill-rule="evenodd" clip-rule="evenodd" d="M29.9998 93.8001C29.6998 94.0001 29.2998 94.0001 28.9998 93.9001C28.2998 91.8001 27.9998 89.5001 27.9998 87.3001C28.2998 86.9001 28.6998 86.6001 29.1998 86.4001C29.1998 88.9001 29.4998 91.4001 29.9998 93.8001ZM32.0998 94.5001C31.0998 95.2001 29.7998 95.4001 28.5998 95.0001C27.9998 94.7001 27.3998 92.4001 26.9998 87.9001C26.8998 87.1001 26.8998 86.5001 27.1998 86.1001C28.1998 85.5001 28.8998 84.6001 29.1998 83.4001C28.3998 84.0001 27.5998 84.4001 26.7998 84.9001C26.7998 84.9001 26.7998 84.2001 26.7998 82.9001C27.2998 81.4001 28.3998 80.2001 29.8998 79.9001C30.0998 86.8001 30.3998 91.2001 30.5998 93.1001C30.7998 92.3001 30.8998 91.9001 30.8998 91.9001C31.0998 92.8001 31.1998 93.3001 31.1998 93.3001C30.9998 84.9001 30.8998 80.7001 30.8998 80.7001C31.3998 81.0001 31.5998 81.2001 31.5998 81.2001C32.0998 89.4001 32.4998 94.1001 32.6998 95.4001C32.2998 94.7001 32.0998 94.5001 32.0998 94.5001Z" fill="#A84300"/>
<path fill-rule="evenodd" clip-rule="evenodd" d="M27.4997 84.4001C27.1997 84.5001 26.9997 84.7001 26.6997 84.8001C26.6997 84.8001 26.6997 84.1001 26.6997 82.8001C26.8997 82.3001 27.0997 81.8001 27.3997 81.4001C27.3997 82.5001 27.3997 83.5001 27.4997 84.4001ZM30.8997 95.0001C30.1997 95.2001 29.3997 95.2001 28.5997 94.9001C27.9997 94.6001 27.3997 92.3001 26.9997 87.8001C26.8997 87.0001 26.8997 86.4001 27.1997 86.0001C27.8997 85.6001 28.3997 85.0001 28.7997 84.3001C28.4997 85.3001 28.0997 86.0001 27.6997 86.4001C27.3997 87.8001 27.5997 89.1001 28.1997 90.1001C28.3997 91.4001 28.5997 92.6001 28.9997 93.8001C29.2997 93.9001 29.6997 93.9001 29.9997 93.7001C29.8997 93.1001 29.6997 92.4001 29.5997 91.8001C30.0997 92.5001 30.5997 93.6001 30.8997 95.0001Z" fill="#FF6600"/>
<path fill-rule="evenodd" clip-rule="evenodd" d="M55.3999 99.2C55.3999 100 55.4999 100.4 55.4999 100.4C42.0999 100.2 34.9999 99.8 33.9999 99.4C33.2999 92.3 32.9999 86.9 32.8999 83.2C33.0999 83.6 33.3999 83.9 33.7999 84.1C33.8999 85.7 33.8999 86.5 33.8999 86.5C33.9999 84.9 33.9999 84.1 33.9999 84.1C34.2999 84.2 34.4999 84.2 34.7999 84.3C35.0999 92 35.3999 96.2 35.4999 97.1C40.5999 97.4 45.2999 97.6 49.7999 97.7C49.3999 93.8 49.5999 90 50.3999 86.2C51.5999 85.5 52.1999 85.1 52.1999 85.1C50.9999 89.1 50.6999 93.4 51.1999 97.6C51.2999 97.1 51.2999 96.8 51.2999 96.8C51.4999 97.5 51.5999 97.8 51.5999 97.8C54.0999 98.7 55.3999 99.2 55.3999 99.2Z" fill="#A84300"/>
<path fill-rule="evenodd" clip-rule="evenodd" d="M49.8 97.7001V97.5001V97.3001V97.1001V96.9001V96.7001V96.5001V96.3001V96.1001V95.9001V95.7001V95.5001V95.3001V95.1001V94.9001V94.7001V94.5001V94.3001V94.1001V93.9001V93.7001V93.5001V93.3001V93.1001V92.9001V92.7001V92.5001V92.3001V92.1001V91.9001V91.7001V91.5001V91.3001V91.1001V90.9001V90.7001V90.5001V90.3001V90.1001V89.9001V89.7001V89.5001V89.3001V89.1001V88.9001V88.7001V88.5001V88.3001V88.1001V87.9001V87.7001V87.5001V87.3001V87.1001V86.9001V86.7001V86.5001V86.3001V86.1001V85.9001V85.7001V85.5001V85.3001V85.1001V84.9001C48.8 89.2001 48.6 93.8001 49.2 98.2001C45.8 98.4001 42.1 98.2001 38 97.7001C41.9 98.6001 45.4 98.3001 49.8 97.7001Z" fill="#FF6600"/>
<path fill-rule="evenodd" clip-rule="evenodd" d="M55.3997 99.2L55.4997 100.4C55.3997 99.9 55.2997 99.6 55.2997 99.6C53.4997 99 52.1997 98.6 51.3997 98.3C51.3997 98.6 51.3997 98.9 51.2997 99.2C50.1997 94.6 50.2997 89.8 51.5997 85.4L52.1997 85C50.9997 89 50.6997 93.3 51.1997 97.5C51.2997 97 51.2997 96.7 51.2997 96.7C51.4997 97.4 51.5997 97.7 51.5997 97.7C54.0997 98.7 55.3997 99.2 55.3997 99.2Z" fill="#FF6600"/>
<path fill-rule="evenodd" clip-rule="evenodd" d="M58.8996 55.7001C58.8996 55.2001 58.6996 54.9001 58.0996 54.8001C58.0996 56.5001 58.0996 58.3001 58.0996 60.0001C62.1996 60.1001 64.9996 60.1001 66.6996 60.0001C66.6996 56.5001 66.6996 54.7001 66.6996 54.7001C64.8996 54.0001 62.5996 54.1001 60.8996 54.8001C60.6996 57.0001 61.0996 58.2001 62.1996 58.4001C61.7996 58.4001 59.5996 58.4001 58.8996 58.4001C58.8996 56.8001 58.8996 55.7001 58.8996 55.7001Z" fill="#FF6600"/>
<path fill-rule="evenodd" clip-rule="evenodd" d="M58.0996 59.2999C58.0996 59.4999 58.0996 59.8 58.0996 60C62.1996 60.1 64.9996 60.1 66.6996 60C66.6996 56.5 66.6996 54.7 66.6996 54.7C65.8996 54.4 65.0996 54.3 64.2996 54.2C64.2996 55.6 64.2996 57 64.2996 58.4C64.2996 59.1 63.7996 59.4 63.1996 59.4C61.4996 59.4 59.7996 59.3999 58.0996 59.2999Z" fill="#A84300"/>
<path fill-rule="evenodd" clip-rule="evenodd" d="M58.2998 60.7C58.8998 60.7 59.2998 60.6999 59.2998 60.7999C59.2998 60.7999 59.2998 62.5999 59.2998 66.0999C59.2998 66.0999 58.9998 66.2999 58.2998 66.6999C58.2998 66.7999 58.2998 64.8 58.2998 60.7Z" fill="#A84300"/>
<path fill-rule="evenodd" clip-rule="evenodd" d="M64.0998 61C62.6998 61 61.9998 64 63.1998 66.4C64.0998 67.7 65.1998 68.5 66.6998 68.7C66.6998 68.7 66.6998 66.2 66.6998 61.2C66.6998 61 66.5998 61 66.4998 61C64.8998 61 64.0998 61 64.0998 61Z" fill="#FF6600"/>
<path fill-rule="evenodd" clip-rule="evenodd" d="M63 66C63.1 66.1 63.1 66.3 63.2 66.4C64.1 67.7 65.2 68.5 66.7 68.7C66.7 68.7 66.7 66.2 66.7 61.2C66.7 61 66.6 61 66.5 61H64.7L64.8 64.7C64.8 64.7 64.7 65.2 64.7 65.4C64.6 65.6 64.2 65.8 64.2 65.8L63.2 66H63Z" fill="#A84300"/>
<path fill-rule="evenodd" clip-rule="evenodd" d="M71.7 42C69.8 46.1 68.7 51.6 68.9 55.9C69.3 69.3 69.4 73 69.4 73C68.8 71.6 68.2 70.6 67.6 70.1C67.5 61.8 67.5 59.1 67.5 56C67.5 51.7 69.3 45.8 71.7 42Z" fill="#FF6600"/>
<path fill-rule="evenodd" clip-rule="evenodd" d="M36.2998 86.9C36.2998 86.6 36.1998 86.4 35.7998 86.3C35.7998 87.5 35.7998 88.6 35.8998 89.8C38.6998 89.7 40.5998 89.6 41.7998 89.5C41.6998 87.1 41.5998 86 41.5998 86C40.2998 85.6 38.7998 85.7 37.6998 86.3C37.5998 87.8 37.8998 88.6 38.6998 88.7C37.9998 88.8 37.1998 88.8 36.4998 88.8C36.5998 88.7 36.5998 88.6 36.5998 88.6C36.4998 88.6 36.4998 88.6 36.4998 88.6C36.3998 87.4 36.2998 86.9 36.2998 86.9Z" fill="#A84300"/>
<path fill-rule="evenodd" clip-rule="evenodd" d="M40.4997 89.6C40.9997 89.6 41.3997 89.5 41.7997 89.5C41.6997 87.1 41.5997 86 41.5997 86C40.2997 85.6 38.7997 85.7 37.6997 86.3C37.6997 86.7 37.6997 87.1 37.6997 87.4C38.5997 87 39.6997 86.9 40.5997 87.2C39.8997 87.3 39.4997 87.4 39.4997 87.4C39.9997 88.1 40.2997 88.8 40.4997 89.6Z" fill="#FF6600"/>
<path fill-rule="evenodd" clip-rule="evenodd" d="M35.8999 90.7C35.8999 92.5 35.9999 94.3 36.1999 96C37.9999 96.5 39.8999 96.6 41.7999 96.4C42.2999 94.4 39.7999 94.6 39.3999 92C38.8999 90.5 37.0999 90.7 35.8999 90.7Z" fill="#A84300"/>
<path fill-rule="evenodd" clip-rule="evenodd" d="M85.0997 57.4001C85.3997 59.3001 86.0997 61.1 87.1997 62.8C85.6997 63 84.2997 63.6 83.0997 64.5C83.0997 64.5 82.6997 64.0001 81.9997 62.9001C81.9997 62.9001 82.0997 63.3 82.1997 64.1C80.4997 61.5 79.2997 58.5001 78.6997 55.4001C80.0997 54.2001 81.6997 53.3 83.4997 52.8C84.5997 54.4 85.3997 56.4001 85.6997 58.4001C85.1997 57.7001 85.0997 57.4001 85.0997 57.4001Z" fill="#B3B3B3"/>
<path fill-rule="evenodd" clip-rule="evenodd" d="M85.0998 57.4001C85.3998 59.3001 86.0998 61.1 87.1998 62.8C86.9998 62.8 86.7998 62.9001 86.5998 62.9001C84.8998 61.4001 83.8998 59 83.9998 56.6C84.3998 57.4 84.6998 57.8 84.6998 57.8C84.5998 56.2 83.9998 54.7 82.8998 53.6C81.3998 54 80.0998 54.6001 78.7998 55.4001C80.1998 54.2001 81.7998 53.3 83.5998 52.8C84.6998 54.4 85.4998 56.4001 85.7998 58.4001C85.1998 57.7001 85.0998 57.4001 85.0998 57.4001Z" fill="white"/>
<path fill-rule="evenodd" clip-rule="evenodd" d="M84.4996 54.6001C84.7996 55.2001 84.9996 55.7001 85.1996 56.3001L80.7996 57.0001C80.7996 57.0001 80.5996 56.5001 80.0996 55.5001L84.4996 54.6001Z" fill="#666666"/>
<path fill-rule="evenodd" clip-rule="evenodd" d="M85.3996 57.4001C85.4996 57.7001 85.4996 58.1001 85.5996 58.4001L85.1996 57.4001H85.3996ZM85.0996 57.5001C85.1996 58.1001 85.2996 58.7001 85.4996 59.3001L81.6996 59.6001C81.6996 59.6001 81.4996 59.1001 81.0996 58.0001L85.0996 57.5001Z" fill="#666666"/>
<path fill-rule="evenodd" clip-rule="evenodd" d="M85.9996 60.5C86.2996 61.1 86.5996 61.7 86.8996 62.3H82.5996C82.5996 62.3 82.3996 61.8 82.0996 60.7L85.9996 60.5Z" fill="#666666"/>
<path fill-rule="evenodd" clip-rule="evenodd" d="M84.4999 54.6V54.7001L84.5999 54.9001C84.5999 55.0001 84.6999 55.1 84.6999 55.1V55.2001C84.6999 55.3001 84.6999 55.3001 84.7999 55.4001L84.0999 55.5C83.9999 54.9 83.6999 54.3 83.3999 53.8L84.4999 54.6Z" fill="#999999"/>
<path fill-rule="evenodd" clip-rule="evenodd" d="M85.3996 57.4001V57.5001V57.4001ZM85.0996 57.5001V57.7001V57.8001V57.9001V58.0001V58.1001L83.8996 58.2001C83.6996 57.6001 83.5996 57.1001 83.5996 56.5001L84.0996 56.4001L84.1996 56.6001C84.1996 56.5001 84.1996 56.4001 84.1996 56.4001L85.0996 57.5001Z" fill="#999999"/>
<path fill-rule="evenodd" clip-rule="evenodd" d="M85.9999 60.5001V60.6001V60.7001V60.8001V60.9001V61.0001V61.1001V61.2001V61.3001H85.0999C84.5999 60.8001 84.1999 60.2001 83.8999 59.6001L85.9999 60.5001Z" fill="#999999"/>
<path fill-rule="evenodd" clip-rule="evenodd" d="M68.3 98.3C69.1 99.4 69.5 99.9 69.5 99.9C66.5 100.4 63.5 100.5 60.5 100.5C60.5 98.7 60.6 96.9 60.6 95.2C61.1 95.9 61.8 96.2 62.6 96.2C63.2 96.7 63.9 97 64.7 97.2C65.8 98 67 98.4 68.3 98.3Z" fill="#A84300"/>
<path fill-rule="evenodd" clip-rule="evenodd" d="M56.3997 42.2001C54.2997 43.8001 51.3997 43.8001 49.2997 42.2001C51.4997 43.2001 54.0997 43.2001 56.3997 42.2001ZM39.3997 30.5001C41.2997 34.0001 43.9997 36.9001 47.1997 38.9001C47.1997 38.9001 47.0997 38.4001 46.9997 37.5001C48.0997 39.3001 49.7997 40.6001 51.7997 41.1001C51.2997 40.7001 50.9997 40.2001 50.6997 39.6001C52.0997 41.0001 54.1997 40.9001 55.4997 39.5001C55.0997 40.1001 54.6997 40.6001 54.0997 41.0001C58.9997 39.1001 63.1997 35.3001 65.7997 30.4001C66.3997 31.1001 66.7997 32.0001 67.0997 32.9001C66.2997 33.7001 65.4997 34.7001 64.8997 35.7001C65.7997 34.9001 66.6997 34.2001 67.5997 33.5001C68.3997 33.7001 68.9997 34.4001 69.0997 35.4001C64.3997 37.4001 60.1997 40.4001 56.4997 44.1001C58.4997 42.5001 61.6997 41.5001 63.0997 40.1001C62.8997 41.4001 62.3997 42.6001 61.5997 43.6001C61.5997 43.6001 61.8997 43.6001 62.4997 43.5001C56.7997 50.8001 49.3997 50.7001 42.6997 43.7001C43.0997 43.6001 43.3997 43.6001 43.3997 43.6001C42.7997 42.3001 42.3997 41.0001 41.9997 39.6001C43.9997 41.7001 46.6997 42.3001 49.1997 43.9001C45.1997 40.1001 40.5997 37.2001 35.5997 35.4001C35.4997 34.9001 35.6997 34.4001 35.9997 34.0001C36.2997 33.6001 36.6997 33.4001 37.1997 33.4001C38.4997 34.3001 39.6997 35.3001 40.8997 36.4001C40.0997 35.2001 39.1997 34.0001 38.1997 32.8001C38.2997 31.9001 38.7997 31.1001 39.3997 30.5001Z" fill="#5B646A"/>
<path fill-rule="evenodd" clip-rule="evenodd" d="M39.3997 30.5C41.2997 34 43.9997 36.9 47.1997 38.9C47.1997 38.9 47.0997 38.4 46.9997 37.5C49.6997 41.8 52.4997 42.1 56.4997 41.3C53.8997 42.5 51.8997 43.4 49.2997 42.2C50.6997 43.3 52.9997 44 54.6997 43.9C52.9997 44.5 52.0997 44.9 50.2997 45.1C50.2997 45.5 50.1997 46 50.1997 46.4C49.0997 46.3 48.5997 46.1 47.4997 45.7C51.5997 48.3 53.7997 48.5 58.0997 47.4C53.2997 50.2 47.7997 48.9 42.6997 43.7C43.0997 43.6 43.3997 43.6 43.3997 43.6C42.7997 42.3 42.3997 41 41.9997 39.6C43.9997 41.7 46.6997 42.3 49.1997 43.9C45.1997 40.1 40.5997 37.2 35.5997 35.4C35.4997 34.9 35.6997 34.4 35.9997 34C36.2997 33.6 36.6997 33.4 37.1997 33.4C38.4997 34.3 39.6997 35.3 40.8997 36.4C40.0997 35.2 39.1997 34 38.1997 32.8C38.2997 31.9 38.7997 31.1 39.3997 30.5Z" fill="#2C3032"/>
<path fill-rule="evenodd" clip-rule="evenodd" d="M61.8999 40.8C62.2999 40.5 62.6999 40.3 62.9999 40C62.7999 41.3 62.2999 42.5 61.4999 43.5C61.4999 43.5 61.7999 43.5 62.3999 43.4C60.7999 44.3 59.0999 45.1 57.3999 45.5C58.9999 45.1 60.3999 44.1 61.3999 42.8C60.9999 43.2 60.4999 43.5 59.8999 43.7C60.8999 43 61.5999 42 61.8999 40.8Z" fill="#878F92"/>
<path fill-rule="evenodd" clip-rule="evenodd" d="M65.6997 34.9001C66.2997 34.4001 66.8997 33.9 67.4997 33.5C68.2997 33.7 68.8997 34.4001 68.9997 35.4001C67.3997 36.1001 65.8997 36.9 64.3997 37.8C63.7997 37.9 63.2997 38 62.6997 38C63.7997 37.7 64.7997 37 65.3997 36C65.4997 35.5 65.5997 35.2001 65.6997 34.9001ZM65.1997 31.3C65.3997 31 65.5997 30.7 65.6997 30.3C66.2997 31 66.6997 31.9 66.9997 32.8C66.5997 33.2 66.1997 33.7001 65.7997 34.2001C65.8997 33.6001 65.8997 33 65.6997 32.3C65.6997 32.3 65.6997 32.6 65.5997 33.1C65.5997 32.5 65.4997 31.9 65.1997 31.3Z" fill="#878F92"/>
<path fill-rule="evenodd" clip-rule="evenodd" d="M53.1997 18.8C53.9997 18.8 54.6997 21.3 55.8997 21.8C55.8997 21.8 55.9997 22 56.0997 22.4C56.0997 22.4 56.0997 22.3 56.0997 22.1C58.6997 22 60.7997 21.5001 62.4997 20.7001C62.4997 20.7001 62.3997 21 62.2997 21.5C62.5997 21 62.8997 20.4 63.0997 19.5C63.4997 18.2 64.2997 19.4 64.1997 20.3C64.1997 20.3 64.1997 21.1001 64.1997 22.7001C64.0997 22.8001 63.8997 22.9 63.5997 23.1C63.9997 23.1 64.1997 23.1001 64.1997 23.2001C64.2997 23.3001 64.2997 24 64.2997 25C64.0997 25.8 63.5997 26.5 62.7997 27C62.5997 27 62.5997 26 62.6997 23.9C62.5997 22.8 61.9997 22.3 60.7997 22.4C56.8997 23.9 49.6997 23.9 45.6997 22.4C44.4997 22.3 43.8997 22.8 43.7997 23.9C43.8997 26 43.8997 27 43.6997 27C42.8997 26.5 42.3997 25.8 42.1997 25C42.1997 23.9 42.1997 23.3001 42.2997 23.2001C42.3997 23.1001 42.5997 23.1 42.8997 23.1C42.5997 23 42.3997 22.9001 42.2997 22.7001C42.2997 21.1001 42.2997 20.3 42.2997 20.3C42.1997 19.4 42.9997 18.2 43.3997 19.5C43.5997 20.4 43.8997 21 44.1997 21.5C44.0997 21 43.9997 20.7001 43.9997 20.7001C45.6997 21.6001 47.8997 22 50.3997 22.1C50.3997 22.3 50.3997 22.4 50.3997 22.4C50.4997 22 50.5997 21.8 50.5997 21.8C51.6997 21.3 52.1997 18.8 53.1997 18.8Z" fill="#2C3032"/>
<path fill-rule="evenodd" clip-rule="evenodd" d="M53.1998 18.8C53.9998 18.8 54.6998 21.3 55.8998 21.8C55.8998 21.8 55.9998 22 56.0998 22.4C56.0998 22.4 56.0998 22.3 56.0998 22.1C58.6998 22 60.7998 21.5001 62.4998 20.7001C62.4998 20.7001 62.3998 21 62.2998 21.5C62.5998 21 62.8998 20.4 63.0998 19.5C63.4998 18.2 64.2998 19.4 64.1998 20.3C64.1998 20.3 64.1998 21.1001 64.1998 22.7001C64.0998 22.8001 63.8998 22.9 63.5998 23.1C63.9998 23.1 64.1998 23.1001 64.1998 23.2001C64.2998 23.3001 64.2998 24 64.2998 25C64.0998 25.8 63.5998 26.5 62.7998 27C62.5998 24.5 63.5998 22.9 63.3998 20.5C63.0998 21.2 62.5998 21.8 61.9998 22.1C61.9998 22.1 61.9998 21.9 61.9998 21.6C60.0998 22.4 58.0998 22.9 55.9998 23C55.9998 23 55.8998 22.8 55.7998 22.5C55.7998 22.5 55.7998 22.7 55.7998 23C55.7998 23 55.6998 22.7 55.3998 22.1C55.3998 22.1 55.3998 22.2 55.3998 22.5C54.4998 21.6 53.5998 18.8 52.7998 19C52.7998 18.9 52.8998 18.8 53.1998 18.8Z" fill="#878F92"/>
<path fill-rule="evenodd" clip-rule="evenodd" d="M45.3995 13.9C45.6995 14 45.8995 14 45.8995 14C45.4995 14.2 45.1995 14.9 45.1995 15.9C45.0995 17.5 44.9995 18.5 44.9995 18.6C46.3995 19.3 47.9995 19.7 49.5995 19.7C49.5995 19.9 49.5995 20 49.5995 20C50.6995 18.8 50.8995 16.4 53.4995 16.4C55.5995 16.5 56.0995 18.9 57.0995 20C57.0995 20 57.0995 19.9 57.0995 19.7C58.6995 19.7 60.2995 19.3 61.6995 18.6C61.6995 18.4 61.5995 17.5 61.4995 15.9C61.3995 14.9 61.1995 14.3 60.7995 14C60.7995 14 60.9995 14 61.2995 13.9C55.9995 11.4 50.2995 11.4 45.3995 13.9ZM61.6995 13.4C61.7995 13.8 61.8995 14.2 61.9995 14.7C61.7995 14.6 61.5995 14.6 61.3995 14.6C61.5995 14.8 61.7995 14.9 61.7995 14.9C61.8995 16.6 61.9995 17.8 62.1995 18.5C62.3995 18.4 62.3995 18.4 62.3995 18.4C62.3995 18.8 62.3995 19.3 62.3995 19.7C60.5995 20.7 58.4995 21.2 56.4995 21.2C55.8995 21.1 55.3995 20.8 55.0995 20.1C54.3995 18.9 53.6995 18.2 53.1995 18.2C52.6995 18.3 51.9995 18.9 51.2995 20.1C50.9995 20.7 50.4995 21.1 49.8995 21.2C47.7995 21.3 45.7995 20.8 43.9995 19.7C43.9995 19.3 43.8995 18.9 43.9995 18.4C43.9995 18.4 44.0995 18.4 44.1995 18.5C44.3995 17.8 44.5995 16.6 44.5995 14.9C44.5995 14.9 44.6995 14.8 44.9995 14.6C44.7995 14.6 44.5995 14.6 44.3995 14.7C44.4995 14.3 44.5995 13.8 44.6995 13.4C49.7995 9.7 56.3995 9.7 61.6995 13.4Z" fill="#878F92"/>
<path fill-rule="evenodd" clip-rule="evenodd" d="M51.3999 12.1001C49.1999 12.2001 46.9999 12.8001 44.9999 13.8001C45.2999 14.0001 45.3999 14.1001 45.3999 14.1001C44.9999 14.6001 44.7999 15.2001 44.7999 16.0001C44.6999 15.6001 44.6999 15.4001 44.6999 15.4001C44.7999 16.7001 44.6999 18.1001 44.3999 19.4001C44.5999 19.2001 44.6999 19.1001 44.6999 19.1001C46.1999 19.9001 47.8999 20.2001 49.4999 20.1001C49.4999 20.1001 49.4999 20.0001 49.4999 19.8001C47.8999 19.8001 46.2999 19.4001 44.8999 18.7001C44.8999 18.5001 44.9999 17.6001 45.0999 16.0001C45.1999 15.0001 45.3999 14.4001 45.7999 14.1001C45.7999 14.1001 45.5999 14.1001 45.2999 14.0001C47.2999 12.9001 49.2999 12.3001 51.3999 12.1001Z" fill="#343643"/>
<path fill-rule="evenodd" clip-rule="evenodd" d="M61.6999 13.4C61.7999 13.8 61.8999 14.2 61.9999 14.7C61.7999 14.6 61.5999 14.6 61.3999 14.6C61.5999 14.8 61.7999 14.9 61.7999 14.9C61.8999 16.6 61.9999 17.8 62.1999 18.5C62.3999 18.4 62.3999 18.4 62.3999 18.4C62.3999 18.8 62.3999 19.3 62.3999 19.7C60.6999 20.5 58.8999 21 56.9999 21C56.7999 20.8 56.6999 20.5 56.4999 20.2C56.4999 20.2 56.4999 20.3 56.3999 20.4C55.8999 19 55.2999 17.8 54.3999 16.8C55.5999 17.5 56.0999 19.2 56.7999 20.1C56.7999 20.1 56.7999 20 56.7999 19.8C58.3999 19.8 59.9999 19.4 61.3999 18.7C61.3999 18.5 61.1999 17.1 60.9999 15.5C60.8999 14.5 60.7999 14.4 60.3999 14.1C60.3999 14.1 60.5999 14.1 60.8999 14C58.6999 12.9 56.2999 12.2 53.8999 12.1C53.6999 11.9 53.3999 11.6 52.9999 11.5C54.2999 11.5 55.5999 11.7 56.8999 12C55.3999 11.2 53.6999 10.8 51.9999 10.8C51.9999 10.8 51.9999 10.7 51.8999 10.7C55.2999 10.4 58.6999 11.3 61.6999 13.4Z" fill="#CCCCCC"/>
<path fill-rule="evenodd" clip-rule="evenodd" d="M42.2998 15.2C42.5998 14.8 42.8998 14.5 43.2998 14.2C43.2998 14.2 43.2998 14.4 43.3998 14.8C43.7998 13.9 43.7998 12.8 44.2998 12.2C44.0998 12.5 44.0998 12.9 44.0998 13.2C46.6998 11 49.8998 9.90005 53.1998 9.80005C56.4998 9.80005 59.6998 11 62.2998 13.2C62.2998 12.8 62.1998 12.5 62.0998 12.2C62.5998 12.8 62.5998 13.9 62.9998 14.8C62.9998 14.4 63.0998 14.2 63.0998 14.2C63.4998 14.5 63.7998 14.8 64.0998 15.2C61.5998 3.50005 44.5998 3.50005 42.2998 15.2Z" fill="#2C3032"/>
<path fill-rule="evenodd" clip-rule="evenodd" d="M51.8 9.80003C52.2 9.80003 52.7 9.70003 53.1 9.70003C56.4 9.70003 59.6 10.9 62.2 13.1C62.2 12.7 62.1 12.4 62 12.1C62.5 12.7 62.5 13.8 62.9 14.7C62.9 14.3 63 14.1 63 14.1C63.4 14.4 63.7 14.7 64 15.1C62.3 6.60003 52.9 4.30003 47 8.20003C49 7.20003 51.2 6.90003 53.3 7.30003C52.7 7.60003 52.2 8.10003 52 8.70003C51.8 9.10003 51.8 9.50003 51.8 9.80003Z" fill="#878F92"/>
<path fill-rule="evenodd" clip-rule="evenodd" d="M55.1997 27.3C56.5997 24 58.0997 26.1 60.3997 24C59.8997 26.5 57.2997 27.2 55.1997 27.3Z" fill="white"/>
<path fill-rule="evenodd" clip-rule="evenodd" d="M53.1997 27.7001C55.5997 29.6001 58.9997 29.5001 61.4997 27.6001C61.2997 32.8001 57.9997 37.3001 53.2997 38.5001C48.2997 37.6001 44.5997 32.9001 44.6997 27.4001C46.9997 29.7001 50.5997 30.0001 53.1997 27.7001Z" fill="#FF6600"/>
<path fill-rule="evenodd" clip-rule="evenodd" d="M47.6996 35.4001C45.7996 33.3001 44.5996 30.5 44.5996 27.3C44.8996 27.6 45.2996 27.9 45.5996 28.1C45.4996 30.8001 46.1996 33.4001 47.6996 35.4001Z" fill="#A84300"/>
<path fill-rule="evenodd" clip-rule="evenodd" d="M50.9998 27.3C49.5998 24 48.0998 26.1 45.7998 24C46.3998 26.5 48.9998 27.2 50.9998 27.3Z" fill="white"/>
<path fill-rule="evenodd" clip-rule="evenodd" d="M53.1996 27.7C52.6996 28.1 52.4996 28.2 52.4996 28.2C54.8996 30.1 57.9996 30.4 60.6996 29.2C58.3996 34.4 54.6996 32.3 52.2996 36.4C52.5996 36.6 52.8996 36.7 53.2996 36.7C51.4996 37.2 49.5996 36.8 48.0996 35.6C49.5996 37.1 51.3996 38 53.3996 38.4C58.0996 37.2 61.4996 32.7 61.5996 27.5C58.9996 29.6 55.6996 29.6 53.1996 27.7Z" fill="#FF9933"/>
<path fill-rule="evenodd" clip-rule="evenodd" d="M58.1998 19.4001C57.5998 15.1001 57.2998 12.9001 57.2998 12.9001C57.9998 13.0001 58.6998 13.2001 59.2998 13.5001C59.2998 13.5001 59.6998 15.2001 60.4998 18.7001C59.6998 19.1001 58.9998 19.3001 58.1998 19.4001Z" fill="white"/>
<path fill-rule="evenodd" clip-rule="evenodd" d="M56.3999 12.7C56.7999 12.8 56.9999 12.8 56.9999 12.8C57.4999 17.2 57.7999 19.4 57.7999 19.4C57.3999 19.4 57.2999 19.4 57.2999 19.4C56.6999 15 56.3999 12.7 56.3999 12.7Z" fill="white"/>
<path fill-rule="evenodd" clip-rule="evenodd" d="M49.5996 12.7001C49.7996 12.6001 49.9996 12.6001 49.9996 12.6001C50.3996 16.1001 50.5996 17.9001 50.5996 17.9001C50.2996 18.3001 50.1996 18.5001 50.2996 18.5001C49.7996 14.7001 49.5996 12.7001 49.5996 12.7001Z" fill="white"/>
<path fill-rule="evenodd" clip-rule="evenodd" d="M48.6997 13.0001C49.0997 12.9001 49.1997 12.9001 49.1997 12.9001C49.5997 17.0001 49.7997 19.1001 49.7997 19.1001C49.4997 19.4001 49.3997 19.6001 49.3997 19.6001C48.8997 15.1001 48.6997 13.0001 48.6997 13.0001Z" fill="white"/>
<path fill-rule="evenodd" clip-rule="evenodd" d="M42.3997 19.7001C42.2997 19.9001 42.2997 21.6001 42.3997 22.6001C42.6997 22.8001 43.0997 22.9001 43.3997 23.1001C42.3997 22.2001 42.9997 18.9001 42.3997 19.7001Z" fill="#5B646A"/>
<path fill-rule="evenodd" clip-rule="evenodd" d="M42.9996 26.2999C42.6996 25.9999 42.4996 25.7 42.3996 25.4C42.1996 25.1 42.1996 24.3999 42.2996 23.2999C42.3996 23.1999 42.4996 23.2 42.7996 23.2C42.6996 24.7 42.6996 25.7999 42.9996 26.2999Z" fill="#5B646A"/>
<path fill-rule="evenodd" clip-rule="evenodd" d="M36.0998 96.0001C37.5998 96.4001 39.0998 96.5001 40.4998 96.5001C39.2998 96.2001 38.2998 95.1001 37.9998 93.8001C37.7998 92.6001 36.8998 91.6001 35.7998 91.4001C35.9998 94.0001 36.0998 95.5001 36.0998 96.0001Z" fill="#FF6600"/>
<path fill-rule="evenodd" clip-rule="evenodd" d="M70.2999 40.6C68.8999 40.3 65.3999 40.0001 64.6999 40.9001C62.3999 44.6001 61.3999 47.8 60.3999 51.7C62.2999 51.5 63.7999 51.7 65.6999 51.5C65.9999 49.9 66.7999 48.4 67.1999 47.2C65.6999 47.2 64.4999 47.2 62.9999 47.2C62.9999 46.7 63.1999 46.3001 63.4999 45.9001C64.8999 46.0001 66.2999 45.7 67.6999 45.8C68.5999 43.1 69.0999 42 70.2999 40.6Z" fill="#FF6600"/>
<path fill-rule="evenodd" clip-rule="evenodd" d="M63.4998 45.9001C64.8998 45.9001 66.2998 45.7001 67.6998 45.8001C68.0998 44.5001 68.3998 43.6001 68.7998 42.9001C67.7998 44.2001 67.6998 44.5001 66.1998 44.8001C65.3998 44.9001 64.5998 44.9001 63.7998 45.0001C63.6998 45.3001 63.5998 45.6001 63.4998 45.9001ZM60.6998 50.3001C60.5998 50.7001 60.4998 51.2001 60.2998 51.7001C61.9998 51.5001 63.4998 51.6001 65.1998 51.5001C65.3998 51.5001 65.2998 53.2001 65.4998 53.2001C65.6998 50.8001 66.6998 48.4001 67.1998 47.2001C66.8998 47.2001 66.5998 47.2001 66.2998 47.2001C66.0998 47.7001 65.7998 48.5001 65.6998 49.1001C64.9998 50.4001 64.9998 50.3001 63.4998 50.4001C62.5998 50.3001 61.6998 50.3001 60.6998 50.3001Z" fill="#A84300"/>
<path fill-rule="evenodd" clip-rule="evenodd" d="M70.2999 40.6C68.8999 40.3 65.3999 40.0001 64.6999 40.9001C62.7999 44.0001 61.7999 46.7001 60.8999 49.9001C61.8999 47.3001 63.0999 45 64.5999 42.8C65.1999 42 65.2999 41.3 66.3999 41.3C67.5999 41.3 68.5999 41.4001 69.7999 41.4001C69.8999 41.1001 70.0999 40.9 70.2999 40.6Z" fill="#FF9933"/>
<path fill-rule="evenodd" clip-rule="evenodd" d="M45.8 55.7001C45.8 55.2001 46 54.9001 46.6 54.8001C46.6 56.5001 46.6 58.3001 46.6 60.0001C44 60.1001 41.9 60.1001 40.3 60.1001L38 58.4001V54.7001C39.8 54.0001 42.1 54.1001 43.8 54.8001C44 57.0001 43.6 58.2001 42.5 58.4001C42.9 58.4001 45.1 58.4001 45.8 58.4001C45.8 56.8001 45.8 55.7001 45.8 55.7001Z" fill="#FF6600"/>
<path fill-rule="evenodd" clip-rule="evenodd" d="M46.4999 59.2999C46.4999 59.4999 46.4999 59.8 46.4999 60C43.8999 60.1 41.7999 60.0999 40.1999 60.0999L37.8999 58.4V54.7C38.6999 54.4 39.4999 54.3 40.2999 54.2C40.2999 55.6 40.2999 57 40.2999 58.4C40.2999 59.1 40.7999 59.4 41.3999 59.4C43.0999 59.4 44.7999 59.3999 46.4999 59.2999Z" fill="#A84300"/>
<path fill-rule="evenodd" clip-rule="evenodd" d="M46.2998 60.7C45.6998 60.7 45.2998 60.6999 45.2998 60.7999V63.7L46.2998 64.4V60.7Z" fill="#A84300"/>
<path fill-rule="evenodd" clip-rule="evenodd" d="M32.8999 42C34.7999 46.1 35.8999 51.6 35.6999 55.9V56.9L36.9999 57.8C36.9999 57.2 36.9999 56.6 36.9999 56C37.0999 51.7 35.2999 45.8 32.8999 42Z" fill="#FF6600"/>
<path fill-rule="evenodd" clip-rule="evenodd" d="M34.3999 40.6C35.7999 40.3 39.2999 40.0001 39.9999 40.9001C42.2999 44.6001 43.2999 47.8 44.2999 51.7C42.3999 51.5 40.8999 51.7 38.9999 51.5C38.6999 49.9 37.8999 48.4 37.4999 47.2C38.9999 47.2 40.1999 47.2 41.6999 47.2C41.6999 46.7 41.4999 46.3001 41.1999 45.9001C39.7999 46.0001 38.3999 45.7 36.9999 45.8C35.9999 43.1 35.4999 42 34.3999 40.6Z" fill="#FF6600"/>
<path fill-rule="evenodd" clip-rule="evenodd" d="M41.0998 45.9001C39.6998 45.9001 38.2998 45.7001 36.8998 45.8001C36.4998 44.5001 36.1998 43.6001 35.7998 42.9001C36.7998 44.2001 36.8998 44.5001 38.3998 44.8001C39.1998 44.9001 39.9998 44.9001 40.7998 45.0001C40.8998 45.3001 40.9998 45.6001 41.0998 45.9001ZM43.8998 50.3001C43.9998 50.7001 44.0998 51.2001 44.2998 51.7001C42.5998 51.5001 41.0998 51.6001 39.3998 51.5001C39.1998 51.5001 39.2998 53.2001 39.0998 53.2001C38.8998 50.8001 37.8998 48.4001 37.3998 47.2001C37.6998 47.2001 37.9998 47.2001 38.2998 47.2001C38.4998 47.7001 38.7998 48.5001 38.8998 49.1001C39.5998 50.4001 39.5998 50.3001 41.0998 50.4001C42.0998 50.3001 42.9998 50.3001 43.8998 50.3001Z" fill="#A84300"/>
<path fill-rule="evenodd" clip-rule="evenodd" d="M34.3999 40.6C35.7999 40.3 39.2999 40.0001 39.9999 40.9001C41.8999 44.0001 42.8999 46.7001 43.7999 49.9001C42.7999 47.3001 41.5999 45 40.0999 42.8C39.4999 42 39.3999 41.3 38.2999 41.3C37.0999 41.3 36.0999 41.4001 34.8999 41.4001C34.7999 41.1001 34.5999 40.9 34.3999 40.6Z" fill="#FF9933"/>
<path fill-rule="evenodd" clip-rule="evenodd" d="M43.6997 46.1001C47.7997 49.5001 51.8997 51.3001 56.0997 49.5001C53.4997 52.2001 48.8997 52.9001 43.6997 46.1001Z" fill="#5B646A"/>
<path fill-rule="evenodd" clip-rule="evenodd" d="M61.3 45.9001C57.2 50.6001 53.7 53.3001 49 52.8001C54.9 54.4001 57.6 53.1001 61.3 45.9001Z" fill="#5B646A"/>
<path fill-rule="evenodd" clip-rule="evenodd" d="M37.1998 110.8C35.8998 111.9 33.8998 112.2 32.2998 112.3C30.9998 112.4 29.6998 112.5 28.3998 112.6C26.8998 112.7 24.9998 112.7 23.5998 112C23.3998 113.1 22.8998 114.1 22.1998 114.9C20.8998 116.3 18.8998 116.9 17.0998 117.1C15.7998 117.3 14.4998 117.5 13.1998 117.6C11.2998 117.9 9.0998 117.9 7.5998 116.5C6.1998 115.2 5.7998 113.3 5.7998 111.4C5.7998 110.1 5.7998 108.9 5.7998 107.6V105L7.3998 104.8C6.2998 103.6 5.9998 101.8 5.9998 100C5.9998 98.7001 5.9998 97.4001 5.9998 96.2001C5.9998 94.3001 6.3998 92.5001 7.6998 91.2001C9.0998 89.7001 11.1998 89.4001 13.0998 89.4001C57.3998 89.2001 44.8998 89.3001 97.2998 89.4001C99.1998 89.4001 101.3 89.7001 102.7 91.2001C103.9 92.5001 104.4 94.4001 104.4 96.2001C104.4 98.1001 104.4 99.9001 104.4 101.8C104.4 103 104.1 104.1 103.6 105C104.2 106 104.5 107.2 104.5 108.5C104.5 109.7 104.5 110.8 104.5 112C104.5 113.2 104.5 114.3 104.5 115.5V118.9L101.4 118.4C99.7998 118.1 98.1998 117.9 96.5998 117.6L95.7998 117.5L93.4998 117.2C91.8998 117 90.3998 116.8 88.7998 116.6L86.3998 116.3V113.7C86.3998 113.5 86.3998 113.3 86.3998 113.1H86.2998C82.6998 112.8 79.1998 112.5 75.5998 112.3L73.3998 112.2H72.3998C70.7998 112.1 69.1998 112.1 67.5998 112L64.9998 111.9V110.6L64.8998 110.7C63.4998 111.7 61.4998 111.8 59.8998 111.8C57.1998 111.8 54.3998 111.8 51.6998 111.8H50.3998H50.0998C46.6998 111.9 43.2998 112 39.9998 112.2L37.1998 112.3V110.8V110.8Z" fill="#1A1A1A"/>
<path fill-rule="evenodd" clip-rule="evenodd" d="M28.5999 105.9C28.5999 106.2 28.7999 106.4 29.0999 106.3C29.7999 106.3 30.3999 106.2 31.0999 106.2C31.4999 106.2 31.6999 106 31.6999 105.7C31.6999 104.1 31.6999 102.5 31.6999 100.8C31.6999 99.2 31.6999 97.6 31.6999 95.9C31.6999 95.6 31.4999 95.4 31.0999 95.4C30.3999 95.4 29.7999 95.4 29.0999 95.4C28.6999 95.4 28.5999 95.6 28.5999 95.9C28.5999 97.5 28.5999 99.2 28.5999 100.8C28.5999 102.6 28.5999 104.2 28.5999 105.9ZM23.7999 95.2C23.7999 94.2 24.0999 93.4 24.6999 92.9C25.2999 92.4 26.4999 92.2 28.1999 92.2C29.4999 92.2 30.7999 92.2 32.0999 92.2C33.7999 92.2 34.9999 92.4 35.5999 92.9C36.1999 93.4 36.4999 94.1 36.4999 95.1C36.4999 97 36.4999 98.8 36.4999 100.7C36.4999 102.6 36.4999 104.4 36.4999 106.3C36.4999 107.3 36.1999 108 35.5999 108.5C34.9999 109 33.7999 109.3 32.0999 109.4C30.7999 109.5 29.4999 109.6 28.1999 109.7C26.4999 109.8 25.2999 109.7 24.6999 109.3C24.0999 108.9 23.7999 108.1 23.7999 107.1C23.7999 105.1 23.7999 103.2 23.7999 101.2C23.7999 99.2 23.7999 97.2 23.7999 95.2ZM39.8999 92.2C41.4999 92.2 43.0999 92.2 44.6999 92.2C44.6999 94.4 44.6999 96.7 44.6999 98.9C44.6999 101.1 44.6999 103.4 44.6999 105.6C46.4999 105.6 48.2999 105.5 50.0999 105.5C50.0999 106.6 50.0999 107.6 50.0999 108.7C46.6999 108.8 43.2999 108.9 39.8999 109.1C39.8999 106.3 39.8999 103.5 39.8999 100.7C39.8999 97.8 39.8999 95 39.8999 92.2ZM51.6999 108.6C51.6999 105.9 51.6999 103.1 51.6999 100.4C51.6999 97.7 51.6999 94.9 51.6999 92.2C54.4999 92.2 57.1999 92.2 59.9999 92.2C61.6999 92.2 62.8999 92.4 63.4999 92.9C64.0999 93.4 64.3999 94.1 64.3999 95C64.3999 96.8 64.3999 98.6 64.3999 100.4C64.3999 102.2 64.3999 104 64.3999 105.8C64.3999 106.8 64.0999 107.5 63.4999 107.9C62.8999 108.3 61.6999 108.5 59.9999 108.5C57.1999 108.6 54.3999 108.6 51.6999 108.6ZM56.3999 105.4C57.1999 105.4 58.0999 105.4 58.8999 105.4C59.2999 105.4 59.4999 105.3 59.4999 105C59.4999 103.5 59.4999 101.9 59.4999 100.4C59.4999 98.9 59.4999 97.3 59.4999 95.8C59.4999 95.5 59.2999 95.4 58.8999 95.4C58.0999 95.4 57.1999 95.4 56.3999 95.4C56.3999 97.1 56.3999 98.8 56.3999 100.4C56.3999 102.1 56.3999 103.7 56.3999 105.4ZM67.6999 92.2C69.2999 92.2 70.8999 92.2 72.4999 92.2C72.4999 95 72.4999 97.8 72.4999 100.6C72.4999 103.4 72.4999 106.2 72.4999 109C70.8999 108.9 69.2999 108.9 67.6999 108.8C67.6999 106 67.6999 103.3 67.6999 100.5C67.6999 97.7 67.6999 95 67.6999 92.2ZM86.4999 92.2C86.4999 93.3 86.4999 94.5 86.4999 95.6C84.4999 95.6 82.4999 95.5 80.5999 95.5C80.5999 96.7 80.5999 97.9 80.5999 99.2C82.2999 99.3 83.9999 99.3 85.6999 99.4C85.6999 100.5 85.6999 101.7 85.6999 102.8C83.9999 102.7 82.2999 102.6 80.5999 102.5C80.5999 103.7 80.5999 104.9 80.5999 106.2C82.5999 106.3 84.5999 106.5 86.4999 106.6C86.4999 107.7 86.4999 108.9 86.4999 110C82.8999 109.7 79.2999 109.4 75.7999 109.1C75.7999 108 75.7999 106.9 75.7999 105.8C75.7999 103.5 75.7999 101.2 75.7999 98.9C75.7999 96.6 75.7999 94.3 75.7999 92C79.2999 92.2 82.8999 92.2 86.4999 92.2ZM93.8999 96.4C93.8999 97.4 93.8999 98.4 93.8999 99.3C93.8999 100.3 93.8999 101.3 93.8999 102.2C94.6999 102.3 95.5999 102.3 96.3999 102.4C96.7999 102.4 96.9999 102.2 96.9999 101.8C96.9999 100.2 96.9999 98.6 96.9999 97C96.9999 96.6 96.7999 96.4 96.3999 96.4C95.5999 96.5 94.6999 96.4 93.8999 96.4ZM93.8999 106.5C93.8999 107.8 93.8999 109.1 93.8999 110.3C93.8999 111.6 93.8999 112.8 93.8999 114.1C92.2999 113.9 90.6999 113.6 89.0999 113.5C89.0999 109.9 89.0999 106.4 89.0999 102.8C89.0999 99.2 89.0999 95.7 89.0999 92.1C91.7999 92.1 94.4999 92.1 97.1999 92.1C98.8999 92.1 100.1 92.4 100.7 93.1C101.3 93.7 101.6 94.8 101.6 96.1C101.6 98 101.6 99.8 101.6 101.7C101.6 103 101.1 104 99.9999 104.5C99.6999 104.6 99.5999 104.7 99.5999 104.8C99.5999 104.9 99.7999 105 99.9999 105.2C101.2 105.9 101.8 107 101.8 108.4C101.8 109.6 101.8 110.7 101.8 111.9C101.8 113.1 101.8 114.2 101.8 115.4C100.2 115.1 98.5999 114.9 96.9999 114.6C96.9999 113.4 96.9999 112.2 96.9999 111C96.9999 109.8 96.9999 108.6 96.9999 107.4C96.9999 107 96.7999 106.8 96.3999 106.7C95.5999 106.7 94.6999 106.6 93.8999 106.5ZM9.4999 103.1C8.8999 102.5 8.5999 101.5 8.5999 100C8.5999 98.7 8.5999 97.4 8.5999 96.2C8.5999 94.9 8.8999 93.8 9.4999 93.2C10.0999 92.6 11.2999 92.3 12.9999 92.2C14.1999 92.2 15.3999 92.2 16.5999 92.2C18.2999 92.2 19.4999 92.5 20.0999 93.1C20.6999 93.7 20.9999 94.6 20.9999 95.9C20.9999 97.1 20.9999 98.2 20.9999 99.4C19.4999 99.5 17.9999 99.5 16.4999 99.6C16.4999 98.8 16.4999 97.9 16.4999 97.1C16.4999 96.7 16.2999 96.5 15.8999 96.5C15.1999 96.5 14.4999 96.5 13.7999 96.6C13.3999 96.6 13.2999 96.8 13.2999 97.2C13.2999 97.9 13.2999 98.6 13.2999 99.3C13.2999 99.8 14.2999 100.6 16.2999 101.5C18.2999 102.5 19.6999 103.2 20.1999 103.7C20.7999 104.3 21.0999 105.2 21.0999 106.6C21.0999 107.7 21.0999 108.9 21.0999 110C21.0999 111.2 20.7999 112.2 20.1999 112.9C19.5999 113.6 18.4999 114 16.6999 114.2C15.3999 114.4 14.0999 114.6 12.7999 114.8C11.0999 115.1 9.8999 114.9 9.2999 114.4C8.6999 113.8 8.3999 112.9 8.3999 111.5C8.3999 110.2 8.3999 109 8.3999 107.7C9.8999 107.5 11.4999 107.4 12.9999 107.2C12.9999 108.1 12.9999 108.9 12.9999 109.7C12.9999 110.1 13.1999 110.3 13.5999 110.2C14.2999 110.1 14.9999 110 15.6999 110C16.0999 110 16.1999 109.7 16.1999 109.4C16.1999 108.7 16.1999 108 16.1999 107.3C16.1999 106.9 15.1999 106.3 13.1999 105.3C11.3999 104.4 10.0999 103.7 9.4999 103.1Z" fill="white"/>
<path fill-rule="evenodd" clip-rule="evenodd" d="M89.7997 101.7H93.0997V102.3V103H93.7997C94.5997 103.1 95.4997 103.1 96.2997 103.2C97.0997 103.3 97.5997 102.7 97.5997 101.9V101.7H100.8C100.8 102.7 100.5 103.4 99.5997 103.8C99.1997 104 98.6997 104.2 98.6997 104.8C98.6997 105.3 99.0997 105.6 99.4997 105.8C100.4 106.4 100.9 107.1 100.9 108.3C100.9 109.5 100.9 110.6 100.9 111.8C100.9 112.7 100.9 113.5 100.9 114.4C99.7997 114.2 98.6997 114 97.4997 113.8C97.4997 112.8 97.4997 111.8 97.4997 110.9C97.4997 109.7 97.4997 108.5 97.4997 107.3C97.4997 106.5 96.9997 105.9 96.2997 105.9C95.4997 105.8 94.5997 105.7 93.7997 105.7L92.9997 105.6V106.4C92.9997 107.7 92.9997 108.9 92.9997 110.2C92.9997 111.2 92.9997 112.2 92.9997 113.1C91.8997 112.9 90.7997 112.8 89.6997 112.6C89.6997 109.3 89.6997 106 89.6997 102.6V101.7H89.7997ZM76.4997 101.7H79.8997V102.5C79.8997 103.7 79.8997 104.9 79.8997 106.2V106.9H80.5997C82.3997 107 84.0997 107.1 85.8997 107.3C85.8997 107.9 85.8997 108.5 85.8997 109.2C82.7997 108.9 79.6997 108.7 76.5997 108.5C76.5997 107.9 76.5997 107.3 76.5997 106.7V105.9V101.7H76.4997ZM68.3997 101.7H71.6997V108.2C70.5997 108.1 69.4997 108.1 68.3997 108V101.7ZM52.3997 101.7H55.7997V105.4V106.2H56.4997C57.2997 106.2 58.1997 106.2 58.9997 106.2C59.6997 106.2 60.2997 105.8 60.2997 105V101.7H63.6997V105.9C63.6997 106.5 63.5997 107 63.0997 107.4C62.4997 107.9 60.6997 107.9 59.9997 107.9C57.4997 107.9 54.9997 107.9 52.3997 107.9V101.7V101.7ZM40.5997 101.7H43.8997V105.6V106.4H44.5997C46.1997 106.4 47.6997 106.3 49.2997 106.3C49.2997 106.8 49.2997 107.4 49.2997 107.9C46.3997 108 43.4997 108.1 40.4997 108.2V101.7H40.5997ZM24.4997 101.7H27.8997V105.9C27.8997 106.7 28.4997 107.1 29.1997 107.1C29.8997 107.1 30.4997 107 31.1997 107C31.8997 107 32.3997 106.5 32.3997 105.7V101.7H35.7997V106.3C35.7997 106.9 35.6997 107.5 35.1997 107.9C34.5997 108.4 32.8997 108.6 32.0997 108.7C30.7997 108.8 29.4997 108.9 28.1997 109C27.4997 109.1 25.7997 109.1 25.1997 108.7C24.6997 108.4 24.5997 107.7 24.5997 107.1V101.7H24.4997ZM12.3997 108.1C11.2997 108.2 10.2997 108.3 9.19971 108.4C9.19971 109.4 9.19971 110.4 9.19971 111.5C9.19971 112.2 9.29971 113.3 9.79971 113.8C10.3997 114.3 12.0997 114.1 12.6997 114C13.9997 113.8 15.2997 113.6 16.5997 113.4C17.4997 113.3 18.9997 113 19.6997 112.3C20.1997 111.7 20.3997 110.8 20.3997 110C20.3997 108.9 20.3997 107.7 20.3997 106.6C20.3997 105.9 20.2997 104.8 19.7997 104.3C19.4997 104 18.8997 103.7 18.4997 103.4C17.6997 102.9 16.8997 102.5 15.9997 102.1C15.6997 101.9 15.2997 101.8 14.9997 101.6H9.59971C9.69971 101.9 9.79971 102.2 9.99971 102.4C10.2997 102.7 10.8997 103.1 11.2997 103.3C12.0997 103.8 12.8997 104.2 13.6997 104.5C14.4997 104.9 15.2997 105.3 15.9997 105.7C16.4997 106 17.0997 106.5 17.0997 107.1C17.0997 107.8 17.0997 108.5 17.0997 109.2C17.0997 110 16.5997 110.5 15.8997 110.6C15.1997 110.7 14.4997 110.8 13.7997 110.8C12.9997 110.9 12.3997 110.4 12.3997 109.5C12.3997 109.2 12.3997 108.7 12.3997 108.1Z" fill="#B1B5B8"/>
</g>
<defs>
<clipPath id="clip0_97_1084">
<rect width="120" height="133" fill="white"/>
</clipPath>
</defs>
</svg>
