<svg width="99" height="121" viewBox="0 0 99 121" fill="none" xmlns="http://www.w3.org/2000/svg">
<g clip-path="url(#clip0_97_2628)">
<path d="M49.4999 7.73315L46.6124 10.0986L46.1999 16.467L42.8999 20.7429V24.1091L56.3474 23.4723L56.0999 20.1061L52.7999 16.9219L52.2224 9.5527L49.4999 7.73315Z" fill="white"/>
<path d="M26.5649 1.72852V11.0992L35.8874 17.7405V8.46085L26.5649 1.72852Z" fill="white"/>
<path d="M24.5024 22.4714L29.6174 24.9278L31.2674 29.0218L30.4424 33.6617L27.7199 33.8436L24.2549 30.4774L24.5024 22.4714Z" fill="white"/>
<path d="M35.0623 38.3015L32.4223 38.4835L32.0923 43.6692C32.0923 43.6692 21.3673 44.0331 16.7473 49.8556C16.7473 49.8556 8.74483 51.4023 7.91983 55.4053C7.09483 59.4083 10.7248 65.0489 10.7248 65.0489L15.7573 63.5023C15.7573 63.5023 13.4473 52.676 20.4598 49.4008C27.4723 46.1256 38.2798 46.0346 38.2798 46.0346L39.6823 43.5782L35.0623 38.3015Z" fill="white"/>
<path d="M49.4998 7.73315L52.3873 10.0986L52.7998 16.467L56.0998 20.7429V24.1091L42.6523 23.4723L42.8998 20.1061L46.1998 16.9219L46.7773 9.5527L49.4998 7.73315Z" fill="white"/>
<path d="M72.4348 1.72852V11.0992L63.1123 17.7405V8.46085L72.4348 1.72852Z" fill="white"/>
<path d="M74.4974 22.4714L69.3824 24.9278L67.7324 29.0218L68.5574 33.6617L71.2799 33.8436L74.7449 30.4774L74.4974 22.4714Z" fill="white"/>
<path d="M63.9374 38.3015L66.5774 38.4835L66.9074 43.6692C66.9074 43.6692 77.6324 44.0331 82.2524 49.8556C82.2524 49.8556 90.2549 51.4023 91.0799 55.4053C91.9049 59.4083 88.2749 65.0489 88.2749 65.0489L83.2424 63.5023C83.2424 63.5023 85.5524 52.676 78.5399 49.4008C71.5274 46.1256 60.7199 46.0346 60.7199 46.0346L59.3174 43.5782L63.9374 38.3015Z" fill="white"/>
<path d="M68.5572 33.5707L64.7622 38.1195L66.9897 38.3925L66.6597 42.4865L73.2597 39.3932L74.0847 31.3872L71.0322 33.9346L68.5572 33.5707Z" fill="#08B7D0"/>
<path d="M45.9524 22.9263L42.8174 25.5646L43.1474 28.4759L49.4999 36.027L56.3474 27.8391L56.1824 25.0188L53.2124 22.9263H45.9524Z" fill="#08B7D0"/>
<path d="M24.915 31.5691L25.575 40.03L32.01 42.8503L32.4225 38.3014L34.2375 38.1194L30.4425 33.6615L27.72 33.8435L24.915 31.0232V31.5691Z" fill="#08B7D0"/>
<path d="M48.0148 60.3181L42.5698 64.5941L42.9823 67.6873L49.4998 73.9647L56.5948 67.4144L56.0173 64.1392L51.1498 61.3189L48.0148 60.3181Z" fill="#08B7D0"/>
<path d="M43.8894 65.322L46.6119 67.5054L48.5919 67.1415H46.6119L43.8894 64.8671L47.4369 62.2288L42.9819 64.1393V67.6874L49.4994 73.328V72.5092L43.8894 67.2325V65.322Z" fill="#19456F"/>
<path d="M30.1124 35.1174C30.0299 34.5716 30.5249 34.3896 30.5249 34.3896C30.4424 33.9347 28.4624 34.2077 28.4624 34.2077L31.9274 38.2107L32.7524 38.0287C32.7524 37.9377 30.1949 35.6633 30.1124 35.1174Z" fill="#19456F"/>
<path d="M28.2147 37.9377C26.2347 35.5723 25.9872 32.934 25.9872 32.934L25.4097 32.2971L25.8222 39.3024L31.7622 42.5776V40.94C31.6797 40.849 30.1947 40.3031 28.2147 37.9377Z" fill="#19456F"/>
<path d="M38.4448 30.4775L36.2173 32.843L40.5073 39.3024L46.0348 37.3918L38.4448 30.4775Z" fill="#19456F"/>
<path d="M44.0548 28.4761V27.8393L47.7673 29.6588L48.8398 29.2949H47.8498L44.0548 27.3844V26.3836L46.1998 23.8363C45.7048 23.2904 43.0648 25.2919 43.0648 25.2919L42.6523 28.2032L49.4998 35.6633V35.1175L44.0548 28.4761Z" fill="#19456F"/>
<path d="M55.1095 64.8671L52.387 67.1415H50.407L52.387 67.5054L55.1095 65.322V67.2325L49.4995 72.5092V73.328L56.017 67.6874V64.1393L51.562 62.2288L55.1095 64.8671Z" fill="#19456F"/>
<path d="M68.4746 34.3897C68.4746 34.3897 68.9696 34.6626 68.8871 35.1175C68.8046 35.6634 66.2471 37.9378 66.2471 37.9378L67.0721 38.1198L70.5371 34.1168C70.5371 34.1168 68.5571 33.9348 68.4746 34.3897Z" fill="#19456F"/>
<path d="M73.0123 32.9339C73.0123 32.9339 72.7648 35.5722 70.7848 37.9376C68.8048 40.303 67.3198 40.8489 67.3198 40.8489V42.4865L73.2598 39.2113L73.6723 32.2061L73.0123 32.9339Z" fill="#19456F"/>
<path d="M52.9648 37.3918L58.4923 39.3024L62.7823 32.843L60.5548 30.4775L52.9648 37.3918Z" fill="#19456F"/>
<path d="M56.017 25.2008C56.017 25.2008 53.377 23.1993 52.882 23.7452L55.027 26.2926V27.2933L51.1495 29.2948H50.077L51.1495 29.6587L54.862 27.8392V28.476L49.4995 35.0264V35.5723L56.347 28.1121L56.017 25.2008Z" fill="#19456F"/>
<path d="M49.8298 55.5873L49.6648 60.3182L42.5698 64.3212L43.0648 67.9603L47.9323 74.5106L41.9098 73.7828C41.9098 73.7828 40.0948 75.2385 35.7223 78.6956C31.3498 82.2437 29.2873 80.8791 29.1223 74.7836C29.0398 68.6881 30.3598 58.1347 33.5773 55.3144C36.7948 52.4031 37.3723 50.7655 41.0023 53.1309C44.7148 55.6783 49.8298 55.5873 49.8298 55.5873Z" fill="#DF9E27"/>
<path d="M26.8124 11.2812L35.8049 17.1948L42.7349 24.6549L42.3224 27.9301L29.4524 18.6504C29.4524 18.6504 26.5649 12.282 26.8124 11.2812Z" fill="#DF9E27"/>
<path d="M7.34243 57.5888C7.34243 57.5888 6.02243 59.9542 7.50743 66.1407C9.07493 72.3271 13.6949 73.9647 19.0574 71.9632C24.4199 69.9617 15.6749 63.8662 15.6749 63.8662L11.6324 64.685C11.6324 64.685 8.57993 63.6843 8.41493 61.5008C8.24993 59.3174 7.75493 56.2241 7.75493 56.2241L7.34243 57.5888Z" fill="#DF9E27"/>
<path d="M49.1699 55.5872L49.3349 60.318L56.4299 64.321L55.9349 67.9601L51.0674 74.6015L57.0899 73.8736C57.0899 73.8736 58.9049 75.3293 63.2774 78.7864C67.6499 82.3345 69.7124 80.9699 69.8774 74.8744C69.9599 68.7789 68.6399 58.2255 65.4224 55.4052C62.2049 52.4939 61.6274 50.8563 57.9974 53.2218C54.2849 55.6782 49.1699 55.5872 49.1699 55.5872Z" fill="#DF9E27"/>
<path d="M72.1872 11.2812L63.1946 17.1948L56.2646 24.6549L56.6771 27.9301L69.6297 18.7414C69.5472 18.6504 72.4347 12.282 72.1872 11.2812Z" fill="#DF9E27"/>
<path d="M91.6575 57.5888C91.6575 57.5888 92.9775 59.9542 91.4925 66.1407C89.925 72.3271 85.305 73.9647 79.9425 71.9632C74.58 69.9617 83.325 63.8662 83.325 63.8662L87.3675 64.685C87.3675 64.685 90.42 63.6843 90.585 61.5008C90.75 59.3174 91.245 56.2241 91.245 56.2241L91.6575 57.5888Z" fill="#DF9E27"/>
<path d="M64.8449 48.8547C64.0199 48.8547 63.1949 49.5826 62.5349 50.6743L61.8749 50.4923L59.2349 50.8562L54.3674 54.3134L49.4999 55.4961V57.9525V55.4961L44.6324 54.2224L39.7649 50.7653L37.1249 50.4923L36.4649 50.6743C35.8049 49.5826 35.0624 48.8547 34.1549 48.8547C31.2674 48.9457 27.8024 60.1359 27.8024 60.1359C27.8024 60.1359 25.7399 75.7841 30.4424 76.239C35.1449 76.6938 36.5474 72.8728 37.1249 72.9638C37.7024 73.0547 38.1149 75.2382 36.2999 77.3307C34.4849 79.4232 30.2774 81.5156 30.2774 81.5156C30.2774 81.5156 30.2774 82.6074 31.1024 82.7893C31.9274 82.9713 33.9074 82.6983 36.6299 79.969C39.2699 77.1487 40.9199 73.1457 40.9199 73.1457L38.7749 69.8705L37.1249 69.4156C35.6399 72.6908 32.9999 73.3277 32.9999 73.3277C32.9174 72.5998 33.2474 71.1442 35.7224 69.0517C38.1974 66.8683 37.4549 62.4104 37.4549 62.4104C37.4549 66.6863 33.9074 68.5059 32.7524 68.5968C31.6799 68.5968 32.7524 57.8615 34.9799 58.8623C37.2074 59.954 38.8574 58.8623 38.8574 58.8623C39.0224 58.4074 38.6099 56.3149 38.0324 54.2224L39.6824 57.2247L41.9099 57.6795C39.4349 55.769 39.4349 53.1307 39.4349 53.1307C41.6624 56.3149 49.0874 57.5886 49.0049 58.2254C48.9224 58.7713 44.3849 58.4074 44.3849 58.4074V59.3171L49.5824 59.5901L54.7799 59.3171V58.4074C54.7799 58.4074 50.2424 58.7713 50.1599 58.2254C50.0774 57.6795 57.5024 56.3149 59.7299 53.1307C59.7299 53.1307 59.7299 55.678 57.2549 57.6795L59.3999 57.3156L61.0499 54.3134C60.3899 56.4059 60.0599 58.4074 60.2249 58.9532C60.2249 58.9532 61.8749 60.045 64.1024 58.9532C66.3299 57.8615 67.4849 68.6878 66.3299 68.6878C65.2574 68.6878 61.6274 66.7773 61.6274 62.5014C61.6274 62.5014 60.8849 66.9592 63.3599 69.1427C65.8349 71.3262 66.2474 72.6908 66.0824 73.4186C66.0824 73.4186 63.4424 72.7818 61.9574 69.5066L60.2249 69.8705L58.0799 73.1457C58.0799 73.1457 59.7299 77.2397 62.3699 79.969C65.0099 82.7893 66.9899 82.9713 67.8974 82.7893C68.7224 82.6074 68.7224 81.5156 68.7224 81.5156C68.7224 81.5156 64.5974 79.4232 62.6999 77.3307C60.8849 75.2382 61.2974 73.0547 61.8749 72.9638C62.4524 72.8728 63.8549 76.6029 68.5574 76.239C73.2599 75.7841 71.1974 60.1359 71.1974 60.1359C71.1974 60.1359 67.7324 48.9457 64.8449 48.8547Z" fill="#A54C22"/>
<path d="M82.9124 70.6893C83.2424 69.7795 83.7374 67.4141 83.9849 65.9585L88.4399 66.9592C88.4399 66.9592 91.5749 62.9562 91.6574 59.0442C91.6574 59.0442 89.0174 65.3216 86.6249 65.1397C85.4699 65.0487 84.5624 64.6848 83.9024 64.3209L83.4899 63.684L83.3249 64.0479C82.9949 63.866 82.8299 63.684 82.8299 63.684L82.9124 64.9577L79.8599 72.1449L81.2624 72.4179C88.2749 73.5096 89.8424 66.1404 89.8424 66.1404C88.2749 69.4156 82.9124 70.6893 82.9124 70.6893Z" fill="#A54C22"/>
<path d="M43.1472 64.6849L46.4472 62.2286L46.2822 61.4098L41.6622 63.5022V68.415C41.6622 68.415 45.3747 73.1459 44.9622 73.2368C44.5497 73.2368 39.9297 68.9609 40.3422 66.7774C40.6722 64.503 39.8472 58.7714 39.8472 58.7714L39.3522 57.6797V60.8639L38.0322 68.8699L49.0047 80.424L49.4997 74.0556L43.3122 68.0511L43.1472 64.6849Z" fill="#A54C22"/>
<path d="M16.1698 63.5022C16.1698 63.5022 16.0048 63.6841 15.6748 63.8661L15.5098 63.5022L15.0973 64.139C14.4373 64.5029 13.5298 64.8668 12.3748 64.9578C9.98229 65.2307 7.34229 58.8623 7.34229 58.8623C7.42479 62.8653 10.5598 66.7773 10.5598 66.7773L15.0148 65.7766C15.2623 67.2322 15.7573 69.5976 16.0873 70.5074C16.0873 70.5074 10.7248 69.2337 9.15729 65.8676C9.15729 65.8676 10.7248 73.1458 17.7373 72.145L19.1398 71.8721L16.0873 64.6849L16.1698 63.5022Z" fill="#A54C22"/>
<path d="M59.73 60.7728V57.5886L59.235 58.6804C59.235 58.6804 58.3275 64.4119 58.74 66.6864C59.07 68.9608 54.5325 73.2367 54.12 73.1458C53.7075 73.1458 57.42 68.324 57.42 68.324V63.4112L52.8 61.3187L52.635 62.1375L55.935 64.5939L55.77 67.8691L49.5 73.9646L49.995 80.333L60.9675 68.7788L59.73 60.7728Z" fill="#A54C22"/>
<path d="M67.7324 15.3751L69.8774 14.1924C68.3099 16.1029 64.0199 18.7413 64.0199 18.7413L66.4949 19.2871L57.5024 26.2014L64.0199 17.5586L56.4299 24.2909L56.3474 27.93L49.4999 36.7548L42.6524 27.839L42.5699 24.1999L34.9799 17.4676L41.4974 26.1105L32.5049 19.1962L34.9799 18.6503C34.9799 18.6503 30.6899 16.012 29.1224 14.1014L31.2674 15.2841L27.0599 11.918L26.5649 14.6473C26.5649 14.6473 29.3699 17.6495 29.4524 21.7435C29.4524 25.9285 29.6999 27.3841 30.7724 27.3841C31.8449 27.3841 35.8049 27.1112 35.8049 27.1112L49.4999 40.121L63.1949 27.1112C63.1949 27.1112 67.1549 27.3841 68.2274 27.3841C69.2999 27.3841 69.5474 25.9285 69.5474 21.7435C69.5474 17.5586 72.4349 14.6473 72.4349 14.6473L71.9399 11.918L67.7324 15.3751Z" fill="#A54C22"/>
<path d="M31.0201 82.7894C31.0201 82.7894 37.1251 81.9706 41.7451 73.1458L50.1601 80.7879L57.9151 73.6006C57.9151 73.6006 62.2876 82.7894 68.7226 82.6074L64.0201 86.5194L33.9076 85.8826C33.9076 85.9736 30.8551 84.6999 31.0201 82.7894Z" fill="#717785"/>
<path d="M32.5872 46.3984C32.5872 46.3984 20.1297 45.8525 16.4997 54.2224C12.7872 62.5924 19.4697 72.5089 19.4697 72.5089L12.9522 73.0548V75.6931C12.9522 75.6931 9.32218 79.7871 9.07468 85.1548C8.82718 90.5224 9.89968 90.7954 9.89968 90.7954L26.9772 90.5224L30.4422 82.2435C30.4422 82.2435 23.9247 72.054 23.9247 65.5036C23.9247 58.9533 32.5872 46.3984 32.5872 46.3984Z" fill="#717785"/>
<path d="M66.4126 46.3984C66.4126 46.3984 78.8701 45.8525 82.5001 54.2224C86.2126 62.5924 79.5301 72.5089 79.5301 72.5089L86.0476 73.0548V75.6931C86.0476 75.6931 89.6776 79.7871 89.9251 85.1548C90.1726 90.5224 89.1001 90.7954 89.1001 90.7954L72.0226 90.5224L68.5576 82.2435C68.5576 82.2435 75.0751 72.054 75.0751 65.5036C75.0751 58.9533 66.4126 46.3984 66.4126 46.3984Z" fill="#717785"/>
<path d="M32.5874 35.3902L40.8374 44.124L39.6824 46.3984C39.6824 46.3984 49.3349 50.6744 50.9024 50.7654C52.4699 50.7654 52.4699 50.7654 52.4699 50.7654L58.4924 43.7601L66.2474 33.4797L63.4424 33.2067L58.0799 39.6661L52.0574 37.9375L49.1699 39.9391L46.6949 38.2105L40.6724 39.6661L35.1449 32.115L32.5874 35.3902Z" fill="#717785"/>
<path d="M51.5626 3.6391C51.5626 3.6391 42.6526 3.45715 39.5176 6.91429C36.3826 10.3714 38.9401 16.4669 41.9101 16.285C44.8801 16.194 46.6126 13.7376 46.6126 13.7376L45.8701 9.91654L49.9951 7.46015L52.4701 10.7353L52.7176 15.4662C52.7176 15.4662 61.5451 18.2865 62.1226 14.2835C62.5351 10.3714 57.6676 3.73008 51.5626 3.6391Z" fill="#717785"/>
<path d="M60.802 83.0624C59.3995 80.9699 61.2145 78.6045 61.2145 78.6045L59.152 76.3301C56.842 79.3323 53.9545 78.1496 53.9545 78.1496L52.387 79.1504L54.367 80.697L49.4995 80.879L44.632 80.788L46.612 79.2414L45.0445 78.1496C45.0445 78.1496 42.157 79.4233 39.847 76.3301L37.7845 78.6045C37.7845 78.6045 39.5995 81.0609 38.197 83.0624C36.7945 85.1549 33.247 84.9729 32.422 82.7895H30.937L31.762 85.7917L36.6295 86.9744L43.8895 81.2429L37.1245 89.9767L37.7845 90.5226L37.702 90.6135H37.9495L38.527 91.0684L49.4995 90.7955L60.3895 90.9774L60.967 90.5226H61.2145L61.132 90.4316L61.792 89.8857L55.027 81.2429L62.287 86.9744L67.1545 85.7917L67.9795 82.7895H66.4945C65.752 84.9729 62.2045 85.1549 60.802 83.0624Z" fill="#2C2E37"/>
<path d="M85.7996 82.4257C88.8521 87.0656 85.7996 88.3393 82.1696 85.519C78.6221 82.6987 79.4471 79.8784 82.5821 79.8784C85.7171 79.8784 88.2746 83.0626 88.2746 83.0626C87.3671 79.2415 83.7371 76.7851 84.2321 76.3302C84.7271 75.8754 85.7171 76.3302 85.7171 76.3302L86.0471 73.237L76.4771 72.4182L69.5471 75.6934L68.5571 82.4257L71.6921 90.7047L89.0996 91.0686L89.9246 87.2475C89.1821 82.0618 85.7996 82.4257 85.7996 82.4257Z" fill="#2C2E37"/>
<path d="M76.725 70.6897C79.53 61.5009 75.57 53.8588 77.3025 54.3137C79.1175 54.7686 81.4275 60.9551 81.4275 60.9551C81.7575 48.8551 65.835 46.3987 65.835 46.3987C65.835 46.3987 65.835 46.3987 68.0625 49.4009C70.29 52.4032 70.8675 68.3242 70.8675 68.3242L76.725 70.6897Z" fill="#2C2E37"/>
<path d="M40.0123 43.9423L38.5273 45.216C38.5273 45.216 38.5273 46.0348 42.9823 48.7641C47.4373 51.4935 49.4173 51.1296 49.4173 51.1296V48.8551C49.4173 48.8551 48.1798 48.3093 47.4373 47.3995C46.7773 46.4897 49.0048 44.2153 49.0048 44.2153C49.0048 44.2153 46.5298 45.6709 45.2923 45.6709C44.0548 45.6709 42.8173 43.1235 42.8173 43.1235L49.4173 41.395V40.5762L38.6098 41.9408L40.0123 43.9423Z" fill="#2C2E37"/>
<path d="M44.8799 38.4835L47.5199 40.667L49.0874 39.8482L46.4474 37.8467L44.8799 38.4835Z" fill="#2C2E37"/>
<path d="M39.5995 41.4858C39.5995 41.4858 34.897 34.6625 35.4745 34.5715C35.9695 34.3895 40.2595 39.9391 40.2595 39.9391L36.2995 33.1158L37.7845 30.8414L35.4745 27.8391L31.597 27.1113L31.0195 33.4797L38.197 41.9407L39.5995 41.4858Z" fill="#2C2E37"/>
<path d="M42.6524 23.4723V20.2881L46.4474 16.649L45.7874 9.91665C45.1274 14.3745 41.2499 15.8302 40.9199 12.9189C40.5899 10.0076 45.9524 7.55124 45.9524 7.55124L48.7574 4.45801L40.7549 8.09711C41.5799 6.18658 46.4474 4.54899 46.4474 4.54899C41.3324 4.63996 37.4549 6.64147 35.8874 9.00688C34.3199 11.3723 35.4749 16.74 35.4749 16.74L42.6524 23.4723Z" fill="#2C2E37"/>
<path d="M22.6047 72.3271L13.0347 73.1459L13.3647 76.2392C13.3647 76.2392 14.3547 75.7843 14.8497 76.2392C15.3447 76.6941 11.7147 79.1505 10.8072 82.9715C10.8072 82.9715 13.3647 79.7873 16.4997 79.7873C19.6347 79.7873 20.4597 82.6076 16.9122 85.4279C13.3647 88.2482 10.2297 86.9745 13.2822 82.3347C13.2822 82.3347 9.98225 81.9708 9.23975 86.8835L10.0647 90.7046L27.4722 90.3407L30.6072 82.0617L29.6172 75.3294L22.6047 72.3271Z" fill="#2C2E37"/>
<path d="M17.5724 60.9551C17.5724 60.9551 19.8824 54.6776 21.6974 54.3137C23.5124 53.8588 19.5524 61.5009 22.2749 70.6897L28.1324 68.3242C28.1324 68.3242 28.7099 52.4032 30.9374 49.4009C33.1649 46.3987 33.1649 46.3987 33.1649 46.3987C33.1649 46.3987 17.2424 48.8551 17.5724 60.9551Z" fill="#2C2E37"/>
<path d="M46.117 55.0414C46.282 55.1324 46.447 55.2233 46.612 55.2233C47.5195 55.5872 48.5095 55.6782 49.417 55.6782C50.3245 55.6782 51.3145 55.5872 52.222 55.2233C52.387 55.1324 52.552 55.0414 52.717 55.0414C55.4395 54.0406 57.502 52.2211 57.502 52.2211V51.4933C58.987 49.7647 59.647 48.2181 59.647 48.2181L57.9145 47.7632C57.9145 47.7632 57.7495 47.9451 57.502 48.2181V48.0361C57.502 48.0361 57.502 48.1271 57.4195 48.309C56.677 49.0369 55.1095 50.2196 52.6345 50.8564C52.057 50.9474 51.3145 51.0384 50.572 51.1293C50.1595 51.1293 49.747 51.2203 49.417 51.2203C49.0045 51.2203 48.6745 51.2203 48.262 51.1293C47.5195 51.0384 46.8595 50.9474 46.1995 50.8564C43.7245 50.2196 42.157 49.0369 41.4145 48.309C41.332 48.1271 41.332 48.0361 41.332 48.0361V48.2181C41.0845 47.9451 40.9195 47.7632 40.9195 47.7632L39.187 48.2181C39.187 48.2181 39.847 49.7647 41.332 51.4933V52.2211C41.4145 52.3121 43.3945 54.0406 46.117 55.0414Z" fill="#2C2E37"/>
<path d="M53.5425 45.6709C52.305 45.6709 49.83 44.2153 49.83 44.2153C49.83 44.2153 52.0575 46.4897 51.3975 47.3995C50.7375 48.3093 49.4175 48.8551 49.4175 48.8551V51.1296C49.4175 51.1296 51.3975 51.4935 55.8525 48.7641C60.3075 46.0348 60.3075 45.216 60.3075 45.216L58.8225 43.9423L60.1425 41.9408L49.5 40.5762V41.395L56.1 43.1235C56.1 43.0326 54.78 45.6709 53.5425 45.6709Z" fill="#2C2E37"/>
<path d="M54.1196 38.4835L52.5521 37.8467L49.9121 39.8482L51.4796 40.667L54.1196 38.4835Z" fill="#2C2E37"/>
<path d="M61.2973 30.9325L62.7823 33.2069L58.8223 40.0302C58.8223 40.0302 63.0298 34.4806 63.6073 34.6625C64.1023 34.8445 59.4823 41.5768 59.4823 41.5768L60.9673 42.0317L68.1448 33.5708L67.5673 27.2024L63.5248 27.8392L61.2973 30.9325Z" fill="#2C2E37"/>
<path d="M52.9646 7.55124C52.9646 7.55124 58.3272 10.0076 57.9972 12.9189C57.6672 15.8302 53.7896 14.2836 53.1296 9.91665L52.4696 16.649L56.2646 20.2881V23.4723L63.3597 16.649C63.3597 16.649 64.5147 11.2813 62.9472 8.9159C61.3797 6.64147 57.5021 4.63996 52.3871 4.54899C52.3871 4.54899 57.2546 6.18658 58.0796 8.09711L50.0771 4.45801L52.9646 7.55124Z" fill="#2C2E37"/>
<path d="M48.6748 30.2955L49.4998 34.5714V29.8406L48.6748 30.2955Z" fill="#8BD9DF"/>
<path d="M25.4097 32.7519L30.8547 38.5745C30.8547 38.5745 28.3797 37.5737 27.7197 36.0271C27.7197 36.0271 29.0397 39.1203 31.5972 39.1203V38.2106L25.4097 32.2061V32.7519Z" fill="#8BD9DF"/>
<path d="M49.4996 71.5993V67.4143L48.0146 67.6872L49.4996 71.5993Z" fill="#8BD9DF"/>
<path d="M49.4999 24.4729H46.6124L44.9624 26.4744V27.1112L48.0974 28.6579H49.4999H50.9024L54.0374 27.1112V26.4744L52.3874 24.4729H49.4999Z" fill="#8BD9DF"/>
<path d="M49.4995 34.5714L50.3245 30.2955L49.4995 29.8406V34.5714Z" fill="#8BD9DF"/>
<path d="M73.5898 32.2969L67.4023 38.3014V39.2112C70.0423 39.2112 71.2798 36.1179 71.2798 36.1179C70.6198 37.6645 68.1448 38.6653 68.1448 38.6653L73.5898 32.8427V32.2969Z" fill="#8BD9DF"/>
<path d="M49.4995 62.7744V64.594V62.7744H47.5195L45.292 64.7759L46.777 66.4135H49.4995H52.222L53.707 64.7759L51.4795 62.7744H49.4995Z" fill="#8BD9DF"/>
<path d="M49.4995 71.5993L50.9845 67.6872L49.4995 67.4143V71.5993Z" fill="#8BD9DF"/>
<path d="M23.5123 47.6723C25.4923 47.1264 33.9073 45.9437 33.9073 45.9437L31.6798 43.7603L30.0298 44.2151L30.7723 44.943C30.7723 44.943 24.9148 45.0339 18.0673 50.4016L16.0873 50.2197L14.1898 50.8565L16.3348 51.5843C16.3348 51.5843 12.6223 55.5873 12.9523 60.3182C13.0348 61.6828 12.7873 62.2287 12.2923 62.2287C11.1373 62.2287 9.07479 58.6806 9.56979 55.4054C9.56979 55.4054 7.83728 58.6806 11.5498 64.1392L15.7573 62.9565C15.7573 62.9565 14.8498 58.6806 16.4998 55.4963C16.5823 55.3144 16.6648 55.1324 16.8298 54.9505C14.6848 61.6828 18.3148 71.2354 18.3148 71.2354L21.2848 72.873C18.8098 66.8685 21.6148 58.6806 19.6348 59.4994C17.6548 60.4091 17.5723 64.5031 17.5723 64.5031C14.8498 52.0392 23.0173 48.946 23.0173 48.946C21.9448 49.2189 21.0373 49.6738 20.2123 50.1287C21.3673 48.855 22.6048 47.9452 23.5123 47.6723Z" fill="#BFC1C1"/>
<path d="M66.4122 43.1233L66.5772 38.4835L64.4322 38.3015L63.7722 39.2113H65.8347L60.7197 45.1248L61.1322 45.8526L66.4122 43.1233Z" fill="#BFC1C1"/>
<path d="M63.7725 16.1032L72.0225 10.7355L71.8575 6.55054L70.95 7.36933C70.95 7.36933 70.95 8.37009 69.5475 10.1896C68.145 12.0092 64.2675 14.6475 64.2675 14.6475L63.7725 16.1032Z" fill="#BFC1C1"/>
<path d="M52.1397 43.1235C52.9647 43.2144 53.8722 43.3964 54.6972 43.6693L53.4597 43.3054C54.2022 43.3964 54.6972 43.5784 54.6972 43.5784L49.4997 42.0317L44.3847 43.4874C44.3847 43.4874 44.7972 43.3964 45.6222 43.2144L44.3022 43.6693C45.1272 43.3964 45.9522 43.2144 46.8597 43.1235C47.6022 43.0325 48.5097 42.9415 49.4997 42.9415C50.4897 42.9415 51.3972 43.0325 52.1397 43.1235Z" fill="#BFC1C1"/>
<path d="M45.2097 39.4843L39.9297 40.3941L38.0322 37.8467L39.6822 41.2128L46.2822 40.576L45.2097 39.4843Z" fill="#BFC1C1"/>
<path d="M14.1902 76.512C14.2727 76.0571 12.7052 76.512 12.7052 76.512C8.00265 80.515 9.48766 90.4315 9.48766 90.4315H10.3952C8.82766 79.6962 14.1077 76.9669 14.1902 76.512Z" fill="#BFC1C1"/>
<path d="M15.0147 81.7889C15.0147 81.7889 12.3747 83.7904 13.5297 85.5189C14.6847 87.1565 19.0572 82.8806 18.3972 81.5159C17.7372 80.0603 15.0147 81.7889 15.0147 81.7889Z" fill="#BFC1C1"/>
<path d="M45.2098 8.55194C45.2098 8.55194 41.9923 10.3715 42.4873 12.0091C43.0648 13.5557 47.1898 8.18803 45.2098 8.55194Z" fill="#BFC1C1"/>
<path d="M48.2622 4.27588H47.1897C47.1897 4.27588 42.4872 6.45934 42.6522 6.91422C42.8997 7.36911 48.2622 4.27588 48.2622 4.27588Z" fill="#BFC1C1"/>
<path d="M33.2471 82.6076C33.2471 82.6076 34.4846 84.0632 36.2996 82.8805C38.1146 81.6978 37.2071 79.4233 37.2071 79.4233L33.2471 82.6076Z" fill="#BFC1C1"/>
<path d="M41.3322 73.9646L40.0947 75.6932C40.0947 75.6932 41.9097 77.0578 43.4772 76.33C44.9622 75.5112 41.3322 73.9646 41.3322 73.9646Z" fill="#BFC1C1"/>
<path d="M69.2996 27.3843L68.3921 33.4798L70.8671 33.8437L73.5896 31.2054L74.4971 24.1091L73.7546 24.2911L70.2896 25.7467L69.2996 27.3843Z" fill="#BFC1C1"/>
<path d="M64.1025 11.3722L71.94 6.00456L71.775 2.09253L70.29 3.09328C70.29 3.09328 70.455 4.54892 69.8775 5.27674C69.3 6.00456 64.02 10.3715 64.02 10.3715L64.1025 11.3722Z" fill="#BFC1C1"/>
<path d="M35.2274 39.2113L34.5674 38.3015L32.4224 38.4835L32.5874 43.1233L37.8674 45.8526L38.2799 45.1248L33.1649 39.2113H35.2274Z" fill="#BFC1C1"/>
<path d="M25.4099 31.2054L28.1324 33.8437L30.6074 33.4798L29.6999 27.3843L28.7099 25.7467L25.2449 24.2911L24.5024 24.1091L25.4099 31.2054Z" fill="#BFC1C1"/>
<path d="M46.7774 9.5527V15.0113L42.8999 19.8331V24.1091L49.4999 21.6527L56.0999 24.1091V19.8331L52.2224 15.0113V9.5527C52.2224 9.5527 50.2424 8.18804 49.6649 8.27901C49.5824 8.27901 49.4999 8.36999 49.4999 8.46097C49.4999 8.36999 49.4174 8.27901 49.3349 8.27901C48.6749 8.18804 46.7774 9.5527 46.7774 9.5527ZM49.4999 19.8331H47.1074C47.1074 19.8331 44.4674 22.0166 44.3849 22.0166C44.3024 22.0166 47.9324 18.9234 47.9324 18.9234C47.9324 18.9234 46.9424 19.4692 46.4474 19.4692C46.3649 19.4692 46.3649 19.4692 46.2824 19.3783C46.0349 19.1053 49.1699 16.1031 49.1699 16.1031L48.0974 16.9219V11.1903L49.0874 10.2805L49.4999 14.6474L49.9124 10.2805L50.9024 11.1903V16.9219L49.8299 16.1031C49.8299 16.1031 52.9649 19.1053 52.7174 19.3783C52.7174 19.3783 52.6349 19.4692 52.5524 19.4692C52.1399 19.4692 51.0674 18.9234 51.0674 18.9234C51.0674 18.9234 54.6974 22.0166 54.6149 22.0166C54.5324 22.0166 51.8924 19.8331 51.8924 19.8331H49.4999Z" fill="#BFC1C1"/>
<path d="M34.8971 11.3722L35.0621 10.3715C35.0621 10.3715 29.7821 6.00456 29.2046 5.27674C28.6271 4.54892 28.7921 3.09328 28.7921 3.09328L27.3071 2.09253L27.1421 6.00456L34.8971 11.3722Z" fill="#BFC1C1"/>
<path d="M35.2275 16.1032L34.815 14.6475C34.815 14.6475 30.9375 12.1002 29.535 10.1896C28.05 8.37009 28.05 7.36933 28.05 7.36933L27.06 6.55054L26.895 10.7355L35.2275 16.1032Z" fill="#BFC1C1"/>
<path d="M59.0698 40.3941L53.7898 39.4843L52.7173 40.576L59.3173 41.2128L60.9673 37.8467L59.0698 40.3941Z" fill="#BFC1C1"/>
<path d="M80.6848 71.1444C80.6848 71.1444 84.3148 61.5008 82.1698 54.8594C82.2523 55.0414 82.3348 55.2233 82.4998 55.4053C84.1498 58.5895 83.2423 62.8654 83.2423 62.8654L87.4498 64.0481C91.1623 58.5895 89.4298 55.3143 89.4298 55.3143C89.9248 58.5895 87.8623 62.1376 86.7073 62.1376C86.2948 62.1376 85.9648 61.5917 86.0473 60.2271C86.3773 55.4963 82.6648 51.4932 82.6648 51.4932L84.8098 50.7654L82.9123 50.1286L80.9323 50.3105C74.0023 45.0339 68.2273 44.8519 68.2273 44.8519L68.9698 44.1241L67.3198 43.6692L65.0923 45.8526C65.0923 45.8526 73.5073 47.0354 75.4873 47.5812C76.3948 47.8542 77.5498 48.8549 78.7873 50.1286C77.9623 49.5827 77.0548 49.2188 75.9823 48.9459C75.9823 48.9459 84.1498 52.0391 81.4273 64.503C81.4273 64.503 81.3448 60.3181 79.3648 59.4993C77.3848 58.5895 80.1073 66.8684 77.7148 72.8729L80.6848 71.1444Z" fill="#BFC1C1"/>
<path d="M86.2123 76.512C86.2123 76.512 84.6448 76.0571 84.7273 76.512C84.8098 76.9669 90.0898 79.7872 88.5223 90.4315H89.4298C89.4298 90.4315 90.9148 80.515 86.2123 76.512Z" fill="#BFC1C1"/>
<path d="M83.9846 81.7887C83.9846 81.7887 81.2621 80.0602 80.6021 81.4248C79.9421 82.7895 84.3146 87.1564 85.4696 85.4278C86.7071 83.7902 83.9846 81.7887 83.9846 81.7887Z" fill="#BFC1C1"/>
<path d="M53.79 8.55194C51.81 8.18803 55.935 13.5557 56.5125 12.0091C57.0075 10.3715 53.79 8.55194 53.79 8.55194Z" fill="#BFC1C1"/>
<path d="M56.3473 6.91422C56.5123 6.45934 51.8098 4.27588 51.8098 4.27588H50.7373C50.7373 4.27588 56.0998 7.36911 56.3473 6.91422Z" fill="#BFC1C1"/>
<path d="M62.6998 82.8804C64.5148 84.0631 65.7523 82.6075 65.7523 82.6075L61.7923 79.4233C61.7923 79.3323 60.8848 81.6068 62.6998 82.8804Z" fill="#BFC1C1"/>
<path d="M55.6047 76.2392C57.1722 77.058 58.9872 75.6024 58.9872 75.6024L57.7497 73.8738C57.6672 73.9648 54.0372 75.5114 55.6047 76.2392Z" fill="#BFC1C1"/>
<path d="M92.8949 60.5C93.1424 51.0383 84.4799 49.6737 82.7474 49.4917C79.2824 44.9429 71.4449 43.6692 67.6499 43.3053L73.9199 39.7571L75.5699 21.0158L70.1249 23.8361C70.1249 22.0165 70.3724 18.0135 73.1774 15.1932L73.3424 15.0113L72.8474 0L63.1124 7.82406C62.6999 7.2782 62.0399 6.55038 60.8849 5.82256C60.8024 5.73158 60.6374 5.6406 60.5549 5.6406C60.1424 5.36767 59.7299 5.18571 59.2349 4.91278C59.0699 4.8218 58.9049 4.8218 58.8224 4.73083H58.7399C58.5749 4.63985 58.4099 4.54887 58.2449 4.45789C57.6674 4.27594 57.0899 4.09399 56.4299 3.91203H56.3474C56.1824 3.82105 55.9349 3.82105 55.7699 3.82105H55.6874C55.4399 3.6391 55.2749 3.6391 55.0274 3.6391H54.9449C54.4499 3.54812 53.9549 3.45714 53.3774 3.36617H53.2949C53.0474 3.36617 52.7999 3.27519 52.6349 3.27519C52.5524 3.27519 52.4699 3.27519 52.4699 3.27519C52.2224 3.27519 52.0574 3.27519 51.8099 3.18421C51.7274 3.18421 51.6449 3.18421 51.5624 3.18421C51.3149 3.18421 51.1499 3.18421 50.9024 3.18421C50.8199 3.18421 50.7374 3.18421 50.6549 3.18421C50.3249 3.18421 50.0774 3.18421 49.7474 3.18421C49.6649 3.18421 49.5824 3.18421 49.4999 3.18421C49.4174 3.18421 49.3349 3.18421 49.2524 3.18421C48.9224 3.18421 48.6749 3.18421 48.3449 3.18421C48.2624 3.18421 48.1799 3.18421 48.0974 3.18421C47.9324 3.18421 47.6849 3.18421 47.5199 3.18421C47.4374 3.18421 47.2724 3.18421 47.1899 3.18421C47.0249 3.18421 46.8599 3.18421 46.6124 3.18421C46.5299 3.18421 46.4474 3.18421 46.2824 3.18421C46.1174 3.18421 45.8699 3.18421 45.7049 3.27519C45.6224 3.27519 45.5399 3.27519 45.4574 3.27519C45.2099 3.27519 44.9624 3.36617 44.7149 3.36617H44.6324C44.3849 3.36617 44.2199 3.45714 44.0549 3.45714C43.9724 3.45714 43.8899 3.45714 43.8074 3.45714C43.7249 3.6391 43.5599 3.6391 43.3949 3.73008C43.3124 3.73008 43.2299 3.73007 43.1474 3.82105C42.9824 3.82105 42.8999 3.91203 42.7349 3.91203C42.6524 3.91203 42.5699 3.91203 42.4874 4.00301C42.3224 4.00301 42.1574 4.09398 42.0749 4.09398C41.9924 4.09398 41.9924 4.09398 41.9099 4.09398C41.7449 4.18496 41.4974 4.18496 41.3324 4.27594H41.2499C41.0849 4.36692 40.9199 4.36692 40.8374 4.45789C40.7549 4.45789 40.7549 4.45789 40.6724 4.54887C40.5899 4.54887 40.4249 4.63985 40.3424 4.63985C40.2599 4.63985 40.2599 4.73083 40.1774 4.73083C40.0949 4.8218 39.9299 4.8218 39.8474 4.91278C39.7649 4.91278 39.7649 4.91278 39.6824 5.00376C39.5999 5.09474 39.4349 5.09474 39.3524 5.18571H39.2699C39.1049 5.27669 39.0224 5.36767 38.8574 5.36767C38.8574 5.36767 38.7749 5.36767 38.7749 5.45865C38.6924 5.54962 38.6099 5.54962 38.4449 5.6406L38.3624 5.73158C38.2799 5.82256 38.1974 5.82256 38.1149 5.91353L38.0324 6.00451C37.9499 6.09549 37.8674 6.09549 37.7849 6.18647C37.7849 6.18647 37.7024 6.18647 37.7024 6.27744C37.6199 6.36842 37.5374 6.4594 37.4549 6.4594C37.3724 6.36842 37.2074 6.4594 37.1249 6.55038C37.1249 6.55038 37.1249 6.55038 37.0424 6.64135C36.9599 6.73233 36.8774 6.73233 36.8774 6.82331C36.8774 6.82331 36.7949 6.82331 36.7949 6.91429C36.7124 7.00526 36.7124 7.00526 36.6299 7.09624C36.6299 7.09624 36.5474 7.09624 36.5474 7.18722C36.4649 7.2782 36.4649 7.2782 36.3824 7.36917C36.3824 7.36917 36.3824 7.36917 36.2999 7.46015C36.2174 7.55113 36.0524 7.73308 35.9699 7.82406C35.9699 7.82406 35.9699 7.82406 35.8874 7.91504L35.8049 8.00602C35.8049 8.00602 35.8049 8.00601 35.7224 8.09699C35.7224 8.09699 35.7224 8.09699 35.7224 8.18797L26.1524 0L25.6574 14.9203L25.8224 15.1023C28.6274 17.9226 28.8749 21.9256 28.8749 23.7451L23.4299 20.9248L25.0799 39.6662L31.3499 43.2143C27.5549 43.5782 19.7174 44.8519 16.1699 49.4008C14.4374 49.6737 5.77489 51.0383 6.10489 60.5C6.35239 69.2338 10.7249 71.8722 12.2099 72.509L12.0449 75.7842C11.2199 76.9669 6.59989 84.4271 8.99239 90.8865L9.15739 91.3414H27.7199L30.4424 84.1541L31.1024 85.9737L38.4449 91.3414H60.6374L67.9799 85.9737L68.6399 84.1541L71.3624 91.3414H89.9249L90.0899 90.8865C92.4824 84.4271 87.7799 76.9669 87.0374 75.7842L86.8724 72.509C88.2749 71.8722 92.6474 69.2338 92.8949 60.5ZM82.5824 50.7654C83.1599 50.7654 85.1399 51.0383 87.2024 52.1301C88.5224 52.8579 89.5949 53.8586 90.3374 55.0414C91.1624 59.3173 89.1824 62.6835 88.1924 64.1391L84.3149 63.1383C84.3149 63.1383 85.1399 61.4098 84.3149 57.3158C83.6549 54.0406 82.0874 52.0391 81.5099 51.4023L82.5824 50.7654ZM79.9424 70.6895C79.9424 70.6895 78.2099 70.7804 76.3124 70.1436C78.7049 56.8609 73.7549 51.9481 73.7549 51.9481C76.9724 58.9534 75.9824 66.5045 75.2399 69.7797C74.3324 69.3248 73.4249 68.688 72.7649 67.6872C72.7649 67.6872 74.4149 55.4053 68.4749 48.1271C68.4749 48.1271 81.0149 49.9466 81.4274 60.8639C81.4274 60.8639 82.3349 53.4947 75.9824 48.8549C77.2199 49.5827 78.4574 50.4015 79.5299 51.5842C85.1399 57.4977 81.3449 67.5053 79.9424 70.6895ZM30.4424 76.2391C32.9174 75.9662 34.9799 74.7835 36.5474 72.8729C37.1249 72.1451 37.5374 71.4173 37.9499 70.5985L39.5999 72.3271C38.6099 73.7827 35.2274 78.4226 33.2474 78.9684C30.9374 79.7872 30.4424 76.3301 30.4424 76.2391ZM26.2349 67.6872C25.5749 68.688 24.6674 69.3248 23.7599 69.7797C23.0999 66.5955 22.0274 58.9534 25.2449 51.9481C25.2449 51.9481 20.2124 56.8609 22.6874 70.1436C20.7899 70.7804 19.0574 70.6895 19.0574 70.6895C17.6549 67.4143 13.9424 57.4068 19.4699 51.6752C20.5424 50.5835 21.7799 49.6737 23.0174 48.9459C16.5824 53.5857 17.5724 60.9549 17.5724 60.9549C17.9849 50.0376 30.5249 48.218 30.5249 48.218C24.5849 55.4962 26.2349 67.6872 26.2349 67.6872ZM65.3399 43.1233L61.2149 45.4887L59.8949 44.0331L64.4324 38.9383H66.4124L66.0824 42.7594L65.3399 43.1233ZM49.4999 59.1353V60.9549V59.1353C49.4999 59.1353 48.0149 59.2263 43.3949 58.4075C38.7749 57.6797 35.1449 47.0353 39.1049 52.1301C43.0649 57.3158 49.4999 56.6789 49.4999 56.6789V56.1331V56.6789C49.4999 56.6789 55.9349 57.3158 59.8949 52.2211C63.8549 47.1263 60.1424 57.7707 55.6049 58.4985C50.9849 59.1353 49.4999 59.1353 49.4999 59.1353ZM56.9249 49.6737C56.9249 49.6737 55.1924 53.8586 49.4999 54.2226C43.8899 53.8586 42.0749 49.6737 42.0749 49.6737C46.1999 52.8579 49.4999 51.8571 49.4999 51.8571C49.4999 51.8571 52.7999 52.9489 56.9249 49.6737ZM49.4999 54.8594V54.7684V54.8594ZM37.7849 45.4887L33.8249 43.2143L32.9174 42.7594L32.5874 38.9383H34.5674L39.1049 44.0331L37.7849 45.4887ZM51.5624 62.2286L55.6049 64.7759V67.4143L49.4999 73.2368L43.3949 67.4143V64.7759L47.4374 62.2286H51.5624V62.2286ZM65.5874 37.6647L68.4749 34.3895L69.9599 34.4805L66.8249 37.6647H65.5874ZM62.4524 32.7519L58.3274 38.4835L53.6249 37.3917L60.4724 30.8414L62.4524 32.7519ZM58.8224 39.9391L64.1849 32.5699L62.2874 30.7504L64.1024 28.4759C64.1024 28.4759 66.3299 27.9301 66.3299 30.4774C66.3299 33.0248 60.4724 40.5759 60.4724 40.5759L67.7324 32.388L67.6499 33.3887L60.8024 41.1218L50.9024 40.0301L52.4699 38.5744L58.8224 39.9391ZM59.6474 42.3955L58.1624 44.1241L59.3174 45.3977L53.6249 49.4917C53.1299 49.8556 52.5524 50.1286 51.8924 50.4015C51.3149 50.5835 50.7374 50.6744 50.1599 50.6744H48.8399C48.2624 50.6744 47.6849 50.5835 47.1074 50.4015C46.5299 50.2195 45.9524 49.9466 45.3749 49.4917L39.6824 45.3977L40.8374 44.1241L39.3524 42.3955L49.3349 41.2128L49.5824 41.3947L49.8299 41.2128L59.6474 42.3955ZM38.2799 41.2128L31.4324 33.4797L31.3499 32.4789L38.6099 40.6669C38.6099 40.6669 32.8349 33.0248 32.7524 30.5684C32.7524 28.0211 34.9799 28.5669 34.9799 28.5669L36.7949 30.8414L34.8974 32.6609L40.2599 40.0301L46.5299 38.5744L48.0974 40.0301L38.2799 41.2128ZM40.7549 38.4835L36.6299 32.7519L38.6099 30.8414L45.4574 37.3917L40.7549 38.4835ZM30.5249 34.3895L33.4124 37.6647H32.1749L29.0399 34.3895H30.5249ZM39.7649 58.7714C41.9924 60.5 44.2199 61.4098 45.7049 61.8647L42.1574 64.0481V67.9601L48.8399 74.4196V79.4233L38.8574 68.3241C39.9299 64.685 39.9299 60.8639 39.7649 58.7714ZM45.5399 78.9684C44.2199 79.3323 41.3324 79.7872 39.5999 77.1489C40.3424 76.1481 40.9199 75.1474 41.3324 74.4196L45.5399 78.9684ZM57.6674 74.4196C58.0799 75.2383 58.7399 76.1481 59.3999 77.1489C57.6674 79.7872 54.7799 79.3323 53.4599 78.9684L57.6674 74.4196ZM50.1599 79.3323V74.3286L56.8424 67.8692V63.9571L53.2949 61.8647C54.6974 61.4098 57.0074 60.5 59.2349 58.7714C59.1524 60.8639 59.0699 64.685 60.1424 68.3241L50.1599 79.3323ZM81.4274 49.8556L80.1074 50.4925C75.8999 46.3075 70.2074 45.3977 66.0824 45.3068L66.9074 44.5789C70.2899 44.8519 77.8799 45.9436 81.4274 49.8556ZM72.6824 38.9383L67.4024 41.9406L67.6499 38.5744L73.1774 32.7519L72.6824 38.9383ZM74.0849 23.1992L73.4249 30.7504L71.1149 33.1158L68.8874 33.0248L69.2999 27.2932L70.0424 25.2008L74.0849 23.1992ZM71.8574 10.4624L64.1024 15.6481C64.2674 14.3744 64.3499 13.1917 64.3499 12.282L71.7749 7.00526L71.8574 10.4624ZM71.6099 2.54737L71.6924 5.36767L64.1849 10.7353C64.0199 9.91654 63.8549 9.37068 63.6899 8.91579L71.6099 2.54737ZM50.1599 4.45789C50.2424 4.45789 50.3249 4.45789 50.3249 4.45789C50.4899 4.45789 50.6549 4.45789 50.8199 4.45789C50.9849 4.45789 51.1499 4.45789 51.3149 4.45789C51.4799 4.45789 51.6449 4.45789 51.8099 4.45789C51.9749 4.45789 52.0574 4.45789 52.2224 4.45789C52.3874 4.45789 52.5524 4.45789 52.6349 4.45789C52.7999 4.45789 52.8824 4.45789 53.0474 4.45789C53.2124 4.45789 53.3774 4.45789 53.4599 4.54887C53.5424 4.54887 53.7074 4.54887 53.7899 4.54887C53.9549 4.54887 54.1199 4.54887 54.2849 4.63985C54.3674 4.63985 54.4499 4.63985 54.5324 4.63985C54.6974 4.63985 54.8624 4.73083 55.0274 4.73083H55.1099C60.9674 5.91353 62.4524 8.82481 62.4524 8.91579L62.6999 9.55263C63.0299 10.4624 63.5249 12.6459 62.6999 16.4669L62.1224 17.0128C62.4524 15.5571 62.6999 13.1008 62.2874 10.5534C61.6274 6.64135 55.5224 5.54962 55.5224 5.54962C59.4824 6.4594 58.9049 9.55263 58.9049 9.55263L50.1599 4.45789V7.2782L53.2124 9.91654C53.2124 9.91654 51.8924 8.18797 51.8924 7.46015C51.8924 6.73233 61.6274 10.4624 60.5549 13.9195C59.4824 17.3767 53.9549 16.103 53.9549 16.103L57.4199 19.7421V22.1985L56.9249 22.7444V20.015L53.2949 16.285V9.91654L50.1599 7.2782V4.45789ZM38.4449 13.9195C37.3724 10.4624 47.1899 6.64135 47.1074 7.46015C47.1074 8.18797 45.7874 9.91654 45.7874 9.91654V16.285L42.1574 20.015V22.6534L41.6624 22.1075V19.6511L45.1274 16.012C45.1274 16.103 39.5174 17.4677 38.4449 13.9195ZM43.3949 25.8376L46.1174 23.7451H49.4174V21.2887V23.7451H52.7174L55.4399 25.8376V28.203L49.4999 35.5722L43.3949 28.203V25.8376ZM49.4999 8.4609L51.8924 10.5534V16.8308L55.5224 20.5609V22.9263L51.9749 20.015H47.0249L43.3949 22.9263V20.5609L47.0249 16.8308V10.5534L49.4999 8.4609ZM36.3824 9.64361L36.6299 9.09774C36.6299 9.09774 37.2074 7.91504 39.1049 6.73233C40.5074 5.82256 42.8999 4.91278 46.6124 4.54887C46.6949 4.54887 46.6949 4.54887 46.7774 4.54887C47.0249 4.54887 47.1899 4.54887 47.4374 4.45789C47.5199 4.45789 47.6024 4.45789 47.7674 4.45789C47.9324 4.45789 48.1799 4.45789 48.3449 4.45789C48.5099 4.45789 48.5924 4.45789 48.7574 4.45789C48.8399 4.45789 48.9224 4.45789 48.9224 4.45789L40.0949 9.73459C40.0949 9.73459 39.4349 6.64135 43.4774 5.73158C43.4774 5.73158 37.3724 6.82331 36.7124 10.7353C36.2999 13.1917 36.6299 15.7391 36.8774 17.1947L36.2999 16.6489C35.4749 12.6459 36.0524 10.4624 36.3824 9.64361ZM27.3899 2.54737L35.3099 8.91579C35.1449 9.2797 34.9799 9.91654 34.8149 10.7353L27.3074 5.36767L27.3899 2.54737ZM27.2249 6.91429L34.6499 12.191C34.6499 13.1008 34.6499 14.1925 34.8974 15.5571L27.1424 10.3714L27.2249 6.91429ZM26.9774 14.3744L27.0599 11.918L35.3099 17.3767L42.1574 24.4729V26.9293L32.5874 20.3789L42.3224 28.7489L49.4999 37.4827L56.6774 28.7489L66.4124 20.3789L56.8424 26.9293V24.5639L63.6899 17.4677L71.9399 12.009L72.0224 14.4654C68.3924 18.2865 68.7224 23.7451 68.8874 24.7459L68.2274 26.6564H63.0299L49.4999 39.5752L35.9699 26.5654H30.7724L30.1124 24.6549C30.2774 23.7451 30.6074 18.1955 26.9774 14.3744ZM24.9149 23.1992L28.9574 25.2917L29.6999 27.3842L30.1124 33.1158L27.8849 33.2068L25.5749 30.7504L24.9149 23.1992ZM26.3174 38.9383L25.7399 32.7519L31.2674 38.5744L31.5149 41.9406L26.3174 38.9383ZM32.0099 44.5789L32.8349 45.3068C28.7099 45.3977 23.0174 46.3075 18.8099 50.4925L17.4899 49.8556C21.1199 45.9436 28.7099 44.8519 32.0099 44.5789ZM8.66239 54.9504C10.9724 51.3113 15.5099 50.7654 16.4174 50.6744L17.4899 51.2203C16.9124 51.8571 15.3449 53.8586 14.6849 57.1338C13.8599 61.2278 14.6849 62.9564 14.6849 62.9564L10.8074 63.9571C9.81739 62.5925 7.83739 59.2263 8.66239 54.9504ZM7.34239 60.5C7.34239 60.0451 7.34239 59.5902 7.34239 59.2263C8.00239 63.1383 10.3949 65.6857 10.5599 65.7767L10.8074 66.0496L15.8399 64.9579C16.4999 68.0511 17.5724 70.5985 18.1499 71.7812C16.0049 72.418 14.2724 71.9632 13.6124 71.7812V71.6902L13.1174 71.5083C12.7874 71.4173 7.58989 69.7797 7.34239 60.5ZM9.98239 89.9767C8.08489 83.8812 13.1174 76.4211 13.1999 76.4211L13.2824 76.2391L13.3649 74.0556C14.6849 73.9647 17.3249 73.8737 17.4899 74.3286C17.6549 74.9654 14.2724 78.2406 14.2724 78.2406L21.6974 74.4196C21.6974 74.4196 25.2449 79.2414 25.7399 81.9707C26.1524 84.2451 22.1099 88.5211 20.6249 89.9767H17.5724C19.2224 88.703 23.4299 85.2459 23.8424 83.6992C24.3374 81.7887 21.1199 76.603 21.1199 76.603L14.4374 79.6053C14.4374 79.6053 20.0474 78.6955 20.4599 81.7887C20.9549 84.9729 9.98239 89.9767 9.98239 89.9767ZM26.8124 89.9767H24.9149L29.4524 78.6045L29.7824 82.1526L26.8124 89.9767ZM30.3599 74.9654L29.8649 70.1436V70.0526C29.8649 70.0526 28.7924 65.5038 29.3699 60.409C29.8649 55.9511 31.3499 52.494 33.7424 49.9466C34.7324 53.3128 36.5474 55.7692 38.4449 57.5887C38.6099 58.9534 39.2699 67.5053 35.5574 72.0541C34.2374 73.6917 32.5049 74.6925 30.3599 74.9654ZM31.0199 81.8797V81.5158C35.1449 81.9707 40.2599 73.1459 40.2599 73.1459L40.5074 73.4188C40.0124 74.2376 39.3524 75.3293 38.5274 76.512C36.4649 79.4233 34.4849 81.2429 32.9174 81.7887C32.1749 82.0617 31.5974 82.0617 31.0199 81.8797ZM49.4999 89.9767H38.7749L32.0924 85.0639L31.4324 83.2444C31.5974 83.2444 31.7624 83.2444 31.8449 83.2444C32.2574 83.2444 32.7524 83.1534 33.1649 83.0624C35.2274 82.4256 37.2074 80.3331 38.7749 78.2406C39.2699 79.1504 40.2599 81.4248 38.9399 83.5173C37.2899 86.3376 32.0099 85.0639 32.0099 85.0639L38.6924 89.9767C38.6924 89.9767 44.4674 89.2489 45.3749 81.9707L48.0149 84.1541L49.4999 89.9767L50.8199 84.1541L53.4599 81.9707C54.4499 89.2489 60.1424 89.9767 60.1424 89.9767H49.4999V89.9767ZM66.9074 85.1549C66.9074 85.1549 61.6274 86.4286 59.9774 83.6083C58.7399 81.4248 59.6474 79.2414 60.1424 78.3316C61.7099 80.4241 63.6899 82.5165 65.7524 83.1534C66.1649 83.3353 66.6599 83.3353 67.0724 83.3353C67.2374 83.3353 67.4024 83.3353 67.4849 83.3353L66.9074 85.1549ZM66.1649 81.8797C63.1124 80.8789 59.8949 75.8752 58.5749 73.4188L58.8224 73.1459C58.8224 73.1459 63.9374 81.9707 68.0624 81.5158V81.8797C67.4024 82.0617 66.8249 82.0617 66.1649 81.8797ZM65.7524 79.0594C63.7724 78.5135 60.4724 73.8737 59.3999 72.418L61.0499 70.6895C61.4624 71.5083 61.8749 72.2361 62.4524 72.9639C64.0199 74.8744 65.9999 75.9662 68.5574 76.3301C68.5574 76.2391 68.0624 79.7872 65.7524 79.0594ZM68.6399 74.9654C66.4949 74.6925 64.7624 73.6917 63.4424 72.0541C59.7299 67.5053 60.4724 58.9534 60.5549 57.5887C62.4524 55.7692 64.2674 53.3128 65.2574 49.9466C67.7324 52.494 69.1349 55.9511 69.6299 60.409C70.2074 65.5038 69.1349 69.9617 69.1349 70.0526L68.6399 74.9654ZM72.1874 89.9767L69.2174 82.1526L69.5474 78.6045L74.0849 89.9767H72.1874ZM89.0174 89.9767C89.0174 89.9767 78.1274 84.882 78.4574 81.6977C78.8699 78.5135 84.4799 79.5143 84.4799 79.5143L77.7974 76.512C77.7974 76.512 74.5799 81.6977 75.0749 83.6083C75.4874 85.1549 79.6949 88.612 81.3449 89.8857H78.2924C76.8074 88.4301 72.7649 84.1541 73.1774 81.8797C73.6724 79.1504 77.2199 74.3286 77.2199 74.3286L84.6449 78.1496C84.6449 78.1496 81.2624 74.8744 81.4274 74.2376C81.5099 73.7827 84.2324 73.8737 85.5524 73.9647L85.6349 76.1481L85.7999 76.4211C85.8824 76.4211 90.9149 83.8812 89.0174 89.9767ZM85.9649 71.4173L85.4699 71.5083V71.5992C84.7274 71.8722 83.0774 72.2361 80.9324 71.5992C81.5099 70.4165 82.5824 67.8692 83.2424 64.7759L88.2749 65.8677L88.5224 65.5947C88.6874 65.4128 90.9974 62.9564 91.7399 59.0444C91.7399 59.4992 91.8224 59.9541 91.7399 60.409C91.4099 69.7797 86.2124 71.4173 85.9649 71.4173Z" fill="black"/>
<path d="M29.6176 32.7519L29.3701 27.5662L28.7101 25.7467V27.6572L25.2451 24.291L25.7401 30.5685L27.9676 32.7519H29.6176Z" fill="black"/>
<path d="M30.4422 24.6549L31.0197 26.0195H35.8872L49.4997 39.2113V37.8466L42.1572 29.1128C42.1572 29.1128 46.5297 35.2082 46.0347 35.0263C45.5397 34.9353 36.2172 25.4737 36.2172 25.4737L32.2572 20.8338C32.2572 20.8338 33.8247 24.4729 33.3297 24.5639C32.8347 24.7458 31.2672 15.6481 27.4722 12.7368V14.2834C27.4722 14.2834 31.4322 17.2857 30.4422 24.6549Z" fill="black"/>
<path d="M41.8275 26.3836V24.655L34.98 17.4678L41.415 24.9279L41.8275 26.3836Z" fill="black"/>
<path d="M27.4722 7.46021V10.2805L34.0722 14.6474C34.0722 14.6474 27.8847 10.4625 27.4722 7.46021Z" fill="black"/>
<path d="M34.4031 10.0986L34.0723 9.82568C34.2377 10.0076 34.4031 10.0986 34.4031 10.0986Z" fill="black"/>
<path d="M27.6372 3.27515V5.0947L34.0722 9.82552C32.6697 8.82477 27.5547 4.91274 27.6372 3.27515Z" fill="black"/>
<path d="M43.7251 22.2895L46.9426 19.6512C46.9426 19.6512 45.7876 20.0151 45.6226 19.8331C45.3751 19.6512 47.8501 17.1038 47.8501 17.1038L47.7676 11.0083L49.5001 9.18877V8.73389L47.3551 10.7354V17.0128L43.7251 20.6519V22.2895Z" fill="black"/>
<path d="M33.0824 42.5774L37.7024 45.2158C37.7024 45.2158 33.8249 42.5774 32.7524 39.3022L33.0824 42.5774Z" fill="black"/>
<path d="M25.9873 33.4797L26.5648 38.7564L31.2673 41.4858C31.2673 41.4858 26.5648 38.3015 25.9873 33.4797Z" fill="black"/>
<path d="M69.6298 27.5662L69.3823 32.7519H71.0323L73.2598 30.5685L73.7548 24.291L70.2898 27.6572V25.7467L69.6298 27.5662Z" fill="black"/>
<path d="M68.0625 26.1105L68.64 24.7458C67.65 17.3767 71.61 14.3744 71.61 14.3744V12.7368C67.815 15.6481 66.2475 24.7458 65.7525 24.5639C65.2575 24.3819 66.825 20.8338 66.825 20.8338L62.7825 25.4737C62.7825 25.4737 53.46 34.9353 52.965 35.1173C52.47 35.2082 56.8425 29.2037 56.8425 29.2037L49.5 37.8466V39.2113L63.1125 26.1105H68.0625V26.1105Z" fill="black"/>
<path d="M57.1724 26.3836L57.5849 24.9279L64.0199 17.4678L57.1724 24.655V26.3836Z" fill="black"/>
<path d="M71.5272 7.46021C71.1147 10.4625 64.9272 14.6474 64.9272 14.6474L71.5272 10.2805V7.46021Z" fill="black"/>
<path d="M71.3622 3.27515C71.4447 4.91274 66.2472 8.82477 64.9272 9.82552L71.3622 5.0947V3.27515Z" fill="black"/>
<path d="M64.5972 10.0986C64.5972 10.0986 64.6799 10.0076 64.928 9.82568L64.5972 10.0986Z" fill="black"/>
<path d="M51.2325 17.1038C51.2325 17.1038 53.625 19.6512 53.46 19.8331C53.2125 20.0151 52.14 19.6512 52.14 19.6512L55.3575 22.2895V20.6519L51.7275 16.9219V10.6444L49.5 8.73389V9.0978L51.2325 10.9173V17.1038Z" fill="black"/>
<path d="M49.4997 49.5827V50.1285V49.5827C49.4997 49.5827 42.6522 46.3984 42.5697 42.9413L49.0872 41.3947L40.0947 42.4864L41.4147 44.033L40.4247 45.1248C40.4247 45.1248 45.1272 49.6736 49.4997 50.2195C53.7897 49.6736 58.5747 45.1248 58.5747 45.1248L57.6672 43.9421L58.9872 42.3954L49.9947 41.3037L56.5122 42.8503C56.3472 46.4894 49.4997 49.5827 49.4997 49.5827Z" fill="black"/>
<path d="M61.2974 45.1249L65.9174 42.4865L66.2474 39.1204C65.2574 42.4865 61.2974 45.1249 61.2974 45.1249Z" fill="black"/>
<path d="M73.0124 33.4797C72.4349 38.3015 67.7324 41.4858 67.7324 41.4858L72.4349 38.7564L73.0124 33.4797Z" fill="black"/>
<path d="M61.5449 57.7707C64.2674 58.5895 64.1849 55.9511 65.5049 57.2248C66.8249 58.5895 67.9799 70.3256 67.9799 70.3256C70.6199 57.7707 65.5049 51.5842 65.5049 51.5842C65.2574 55.1323 61.5449 57.7707 61.5449 57.7707Z" fill="black"/>
<path d="M56.8422 68.688L50.4072 74.6016V78.4226L59.7297 68.2332C59.7297 68.2332 52.9647 75.0565 52.3047 74.8745C51.6447 74.7835 56.8422 68.688 56.8422 68.688Z" fill="black"/>
<path d="M37.4549 57.7707C37.4549 57.7707 33.7424 55.1323 33.4949 51.5842C33.4949 51.5842 28.2974 57.7707 31.0199 70.3256C31.0199 70.3256 32.1749 58.4985 33.4949 57.2248C34.8974 55.9511 34.8149 58.5895 37.4549 57.7707Z" fill="black"/>
<path d="M46.695 74.9653C46.035 75.1473 39.27 68.324 39.27 68.324L48.5925 78.5135V74.6014L42.1575 68.5969C42.1575 68.6879 47.355 74.7834 46.695 74.9653Z" fill="black"/>
<path d="M38.775 31.7512L37.29 32.9339L40.92 37.8467L44.4675 37.2099L38.775 31.7512Z" fill="#08B7D0"/>
<path d="M38.0322 33.2068L38.9397 32.479L43.2297 36.7549L41.0847 37.1189L38.0322 33.2068Z" fill="#8BD9DF"/>
<path d="M60.2247 31.7512L61.7097 32.9339L58.0797 37.8467L54.5322 37.2099L60.2247 31.7512Z" fill="#08B7D0"/>
<path d="M60.9675 33.2068L60.06 32.479L55.77 36.7549L57.915 37.1189L60.9675 33.2068Z" fill="#8BD9DF"/>
<path d="M99 86.4286V95.7083L98.835 96.0722L96.7725 100.348L96.525 100.985L96.03 101.258L93.885 102.441V104.715V106.353V110.174V113.449V115.996L91.1625 119.18L89.76 118.726C87.5325 117.998 86.46 117.725 84.2325 117.088L82.9125 116.724V115.268V113.449L73.26 114.268C72.6 114.45 71.94 114.45 71.28 114.45C71.115 114.45 70.95 114.45 70.8675 114.45H70.785L69.7125 114.541L69.5475 114.268H69.465C69.2175 114.177 68.97 114.177 68.64 114.086V120.909H30.4425V114.177C30.03 114.268 29.7 114.268 29.2875 114.268C28.545 114.268 27.8025 114.177 27.1425 113.995L21.615 113.176L22.77 115.086L20.295 115.632C17.9025 116.178 16.7475 116.451 14.355 117.179L13.53 117.361L12.87 116.906L11.3025 115.814V116.633V117.998L9.9825 118.362C7.755 119.089 6.6825 119.453 4.455 120.181L3.0525 120.636L2.31 119.362L0.2475 115.905L0 115.723V86.4286H1.815H3.2175C5.775 86.4286 7.425 86.4286 10.3125 86.3376H10.395C11.4675 86.3376 12.54 86.5196 13.53 86.8835L21.6975 89.5218C21.8625 89.3399 22.11 89.0669 22.3575 88.885C24.42 86.8835 26.9775 85.7917 29.865 85.7917C29.9475 85.7917 30.03 85.7917 30.03 85.7917C30.1125 85.7917 30.195 85.7917 30.195 85.7917H30.2775C30.36 85.7917 30.36 85.7917 30.4425 85.7917C30.525 85.7917 30.69 85.7917 30.7725 85.7917C30.855 85.7917 30.9375 85.7917 30.9375 85.7917C31.02 85.7917 31.185 85.7917 31.2675 85.7917C31.35 85.7917 31.4325 85.7917 31.515 85.7917C31.5975 85.7917 31.68 85.7917 31.845 85.8827C31.9275 85.8827 32.01 85.8827 32.0925 85.8827C32.175 85.8827 32.2575 85.8827 32.34 85.9737C32.4225 85.9737 32.505 85.9737 32.5875 86.0647C32.67 86.0647 32.7525 86.1557 32.835 86.1557C32.9175 86.1557 33 86.2466 33.0825 86.2466C33.165 86.2466 33.2475 86.3376 33.33 86.3376C33.4125 86.3376 33.495 86.4286 33.5775 86.4286C33.66 86.4286 33.7425 86.5196 33.825 86.5196C33.9075 86.5196 33.99 86.6105 34.0725 86.6105L39.765 88.612V86.0647H41.58C44.055 86.0647 46.53 86.0647 49.005 86.0647H51.15C51.315 86.0647 51.48 86.0647 51.645 86.0647H51.8925C51.975 86.0647 52.0575 86.0647 52.0575 86.0647H52.14C52.2225 86.0647 52.305 86.0647 52.3875 86.0647H52.5525C52.635 86.0647 52.7175 86.0647 52.8 86.0647H52.965C53.0475 86.0647 53.13 86.0647 53.2125 86.0647H53.3775C53.46 86.0647 53.5425 86.0647 53.625 86.0647H53.7075C53.79 86.0647 53.8725 86.0647 53.955 86.1557H54.0375C54.12 86.1557 54.2025 86.1557 54.285 86.2466H54.3675C54.45 86.2466 54.5325 86.2466 54.615 86.3376H54.6975C54.78 86.3376 54.8625 86.4286 54.945 86.4286H55.0275C55.11 86.4286 55.1925 86.5196 55.275 86.5196H55.3575C55.44 86.5196 55.5225 86.6105 55.605 86.6105H55.6875C55.77 86.6105 55.935 86.7015 56.0175 86.7015C56.265 86.7925 56.5125 86.8835 56.6775 87.0654C56.6775 87.0654 56.76 87.0654 56.76 87.1564C56.8425 87.2474 56.925 87.2474 57.0075 87.3384C57.0075 87.3384 57.09 87.3384 57.09 87.4293C57.1725 87.5203 57.255 87.5203 57.3375 87.6113L57.42 87.7023C57.5025 87.7933 57.585 87.7932 57.585 87.8842L57.6675 87.9752C57.75 88.0662 57.75 88.0662 57.8325 88.1572L57.915 88.2481C57.9975 88.3391 57.9975 88.3391 58.08 88.4301L58.1625 88.5211C58.245 88.612 58.245 88.612 58.3275 88.703L58.41 88.794C58.4925 88.885 58.4925 88.885 58.575 88.976L58.6575 89.0669C58.74 89.1579 58.74 89.1579 58.8225 89.2489L58.905 89.3399L58.9875 89.4308L65.34 86.5196C65.505 86.4286 65.67 86.3376 65.835 86.3376L66.825 86.4286H66.9075C68.0625 86.0647 69.3 85.7917 70.5375 85.7917C72.93 85.7917 75.1575 86.5196 76.9725 87.8842C77.1375 87.9752 77.22 88.0662 77.385 88.2481C77.385 88.2481 77.385 88.2481 77.4675 88.2481C77.55 88.2481 77.55 88.3391 77.6325 88.3391L79.1175 87.1564V86.1557H80.9325C85.14 86.1557 89.43 86.2466 93.6375 86.2466C94.1325 86.2466 94.71 86.2466 95.205 86.2466C95.865 86.2466 96.4425 86.2466 97.1025 86.2466L99 86.4286Z" fill="black"/>
<path d="M97.1849 88.3391C91.7399 88.3391 86.3774 88.2481 80.9324 88.2481C80.9324 90.6135 80.9324 91.7053 80.9324 94.0707C82.9949 94.1617 83.9849 94.2526 86.0474 94.4346C86.0474 96.5271 86.0474 98.7105 86.0474 100.803C86.0474 104.442 86.0474 108.081 86.1299 111.72C88.5224 112.357 89.6774 112.721 91.9874 113.449C91.9874 109.628 91.9874 105.807 91.9874 101.986C91.9874 99.6203 91.9874 97.2549 91.9874 94.8895C94.0499 95.0714 95.0399 95.1624 97.1024 95.3444V88.3391H97.1849ZM14.9324 104.078C16.3349 102.896 17.3249 101.349 17.8199 99.4384C18.0674 98.5286 18.2324 97.5278 18.3149 96.5271C18.4799 91.8872 14.7674 88.3391 10.3124 88.2481C6.92994 88.2481 5.19744 88.2481 1.81494 88.3391V115.177C4.12494 114.359 5.36244 113.904 7.67244 113.176C7.67244 110.629 7.67244 109.446 7.67244 106.899C8.33244 106.717 8.66244 106.717 9.23994 106.535C10.3949 108.718 10.9724 109.81 12.2099 111.811C14.7674 111.083 16.0049 110.811 18.4799 110.174C17.0774 107.899 16.3349 106.626 14.9324 104.078ZM7.75494 94.7075C8.57994 94.6166 9.07494 94.6166 9.89994 94.5256C11.5499 94.4346 12.2924 95.3444 12.2924 97.0729C12.2924 98.8015 11.4674 99.9842 9.89994 100.166C9.07494 100.257 8.57994 100.348 7.75494 100.53C7.75494 98.2557 7.75494 97.0729 7.75494 94.7075ZM56.7599 97.5278C56.5124 97.3459 56.1824 97.2549 55.9349 97.0729C57.5849 96.2541 58.4099 94.7985 58.3274 93.0699C58.3274 89.3399 54.2849 87.9752 51.2324 88.1572C48.0974 88.1572 44.9624 88.1572 41.8274 88.1572C41.8274 91.2504 41.8274 94.3436 41.8274 97.4369C41.8274 100.621 41.8274 103.805 41.8274 106.989C45.1274 106.808 48.4274 106.808 51.8099 106.808C55.0274 106.899 59.2349 105.989 59.3174 101.895C59.2349 99.9842 58.3274 98.4376 56.7599 97.5278ZM47.6849 92.5241C48.7574 92.5241 49.3349 92.5241 50.4899 92.5241C51.8099 92.5241 52.3874 92.979 52.3874 93.8887C52.3874 94.7985 51.8099 95.2534 50.4899 95.2534C49.4174 95.2534 48.8399 95.2534 47.6849 95.2534C47.6849 94.1617 47.6849 93.6158 47.6849 92.5241ZM51.2324 102.35C49.8299 102.35 49.0874 102.35 47.6849 102.35C47.6849 101.167 47.6849 100.621 47.6849 99.4384C49.0874 99.4384 49.8299 99.4384 51.2324 99.4384C52.5524 99.4384 53.2124 99.9842 53.2124 100.894C53.2124 101.895 52.5524 102.35 51.2324 102.35ZM70.4549 87.7023C65.2574 87.7023 60.5549 92.3421 60.5549 97.7098C60.6374 103.168 65.5049 107.899 70.5374 108.809C76.1474 109.901 80.1899 105.079 80.3549 99.8023C80.3549 99.6203 80.3549 99.4384 80.3549 99.2564C80.3549 93.3429 76.6424 87.7023 70.4549 87.7023ZM70.5374 103.259C68.3924 102.986 66.6599 101.076 66.5774 98.0737C66.5774 97.9827 66.5774 97.9827 66.5774 97.8917C66.5774 94.7985 68.3099 93.0699 70.5374 93.1609C72.7649 93.2519 74.4974 95.3444 74.4974 98.5286C74.4974 98.6196 74.4974 98.8015 74.4974 98.8925C74.3324 101.986 72.6824 103.532 70.5374 103.259ZM29.7824 87.7023C23.7599 87.7932 19.9649 93.4338 19.7999 99.0744V99.1654C19.7174 104.806 24.0899 109.446 29.6999 108.627C34.8974 107.899 39.6824 103.168 39.6824 97.6188V97.5278C39.5999 92.1602 34.9799 87.6113 29.7824 87.7023ZM33.6599 97.8917C33.6599 100.894 31.8449 102.896 29.6999 103.168C27.4724 103.441 25.7399 101.713 25.7399 98.5286C25.7399 95.3444 27.5549 93.2519 29.6999 93.1609C31.9274 93.0699 33.6599 94.7985 33.6599 97.8917Z" fill="white"/>
<path d="M44.2199 117.634L43.8899 116.178L43.8074 115.723L43.6424 114.814L43.3949 113.904H42.0749L41.4974 114.814L40.9199 115.723L40.6724 116.178L39.7649 117.634L39.0224 118.817H40.4249L41.0024 117.907H43.0649L43.2299 118.817H44.5499L44.2199 117.634ZM42.2399 115.814L42.4874 115.359L42.5699 115.814L42.6524 116.269L42.8174 116.997H41.5799L41.9924 116.269L42.2399 115.814ZM36.1349 115.814C36.3824 115.359 36.8774 115.087 37.4549 115.087C37.9499 115.087 38.2799 115.268 38.6099 115.632L39.4349 114.996L39.5174 114.905C39.1049 114.359 38.3624 113.995 37.4549 113.995C36.4649 113.995 35.6399 114.359 35.1449 114.996C34.8974 115.268 34.7324 115.541 34.6499 115.905C34.5674 115.996 34.5674 116.178 34.5674 116.36C34.4849 116.542 34.4849 116.815 34.4849 116.997C34.4849 117.27 34.5674 117.543 34.6499 117.816C34.9799 118.635 35.8049 119.181 36.8774 119.181C37.6199 119.181 38.2799 118.999 38.7749 118.635L38.9399 117.907L39.1874 116.633H38.0324L37.7849 117.907V117.998C37.6199 118.089 37.3724 118.089 37.1249 118.089C36.7949 118.089 36.5474 117.998 36.3824 117.907C36.0524 117.725 35.8874 117.361 35.8874 116.997C35.8874 116.815 35.8874 116.633 35.9699 116.451C36.0524 116.087 36.0524 115.905 36.1349 115.814ZM57.5024 115.814L57.4199 116.269H58.7399L58.8224 115.814H57.5024ZM60.9674 115.814C61.2149 115.359 61.7099 115.087 62.2874 115.087C62.7824 115.087 63.1124 115.268 63.4424 115.632L64.2674 114.996L64.3499 114.905C63.9374 114.359 63.1949 113.995 62.2874 113.995C61.2974 113.995 60.4724 114.359 59.9774 114.996C59.7299 115.268 59.5649 115.541 59.4824 115.905C59.3999 115.996 59.3999 116.178 59.3999 116.36C59.3174 116.542 59.3174 116.815 59.3174 116.997C59.3174 117.27 59.3999 117.543 59.4824 117.816C59.8124 118.635 60.6374 119.181 61.7099 119.181C62.4524 119.181 63.1124 118.999 63.6074 118.635L63.7724 117.907L64.0199 116.633H62.8649L62.6174 117.907V117.998C62.4524 118.089 62.2049 118.089 61.9574 118.089C61.6274 118.089 61.3799 117.998 61.2149 117.907C60.8849 117.725 60.7199 117.361 60.7199 116.997C60.7199 116.815 60.7199 116.633 60.8024 116.451C60.8024 116.087 60.8849 115.905 60.9674 115.814ZM43.8074 115.814H42.5699L42.6524 116.269H43.8899L43.8074 115.814ZM43.8074 115.814H42.5699L42.6524 116.269H43.8899L43.8074 115.814ZM50.2424 113.995L49.5824 114.905L48.9224 115.814L48.5924 116.269L48.0974 116.906L47.8499 116.269L47.6849 115.814L47.3549 114.905L47.0249 113.995H45.9524L45.7874 114.905L45.6224 115.814L45.5399 116.269L45.2924 117.725L45.0449 118.908H46.2824L46.5299 117.725L46.7774 116.36L47.3549 117.725L47.6849 118.453H48.2624L48.8399 117.725L49.8299 116.36L49.5824 117.725L49.3349 118.908H50.5724L50.8199 117.725L51.0674 116.269L51.1499 115.814L51.3149 114.905L51.4799 113.995H50.2424V113.995ZM43.8074 115.814H42.5699L42.6524 116.269H43.8899L43.8074 115.814ZM43.8074 115.814H42.5699L42.6524 116.269H43.8899L43.8074 115.814ZM51.9749 115.814L51.8924 116.269H53.2124L53.2949 115.814H51.9749ZM57.8324 113.995L57.6674 114.905L57.5024 115.814L57.4199 116.269L57.3374 116.724L57.0899 116.269L56.8424 115.814L56.3474 114.905L55.8524 113.995H54.7799L54.6149 114.905L54.4499 115.814L54.3674 116.269L54.1199 117.725L53.8724 118.908H55.1924L55.4399 117.725L55.6874 116.269L56.5124 117.725L57.2549 118.908H58.3274L58.5749 117.725L58.8224 116.269L58.9049 115.814L59.0699 114.905L59.2349 113.995H57.8324V113.995ZM51.9749 115.814L51.8924 116.269H53.2124L53.2949 115.814H51.9749ZM52.3049 113.995L52.1399 114.905L51.9749 115.814L51.8924 116.269L51.6449 117.725L51.3974 118.908H52.7174L52.9649 117.725L53.2124 116.269L53.2949 115.814L53.4599 114.905L53.6249 113.995H52.3049V113.995Z" fill="url(#paint0_linear_97_2628)"/>
<g opacity="0.5">
<path d="M39.517 114.904L38.692 115.541C38.362 115.177 38.032 114.995 37.537 114.995C36.9595 114.995 36.4645 115.268 36.217 115.723H34.8145C34.897 115.359 35.062 115.086 35.3095 114.813H39.517V114.904Z" fill="#8BD9DF"/>
<path d="M43.8069 115.814H42.5694L42.4869 115.359L42.2394 115.814H40.9194L41.4969 114.905H43.5594L43.8069 115.814Z" fill="#8BD9DF"/>
<path d="M47.6845 115.814H45.5396L45.7046 114.905H47.272L47.6845 115.814Z" fill="#8BD9DF"/>
<path d="M49.4998 114.905H51.2323L51.0673 115.814H48.8398L49.4998 114.905Z" fill="#8BD9DF"/>
<path d="M53.4596 114.905L53.2946 115.814H51.9746L52.1396 114.905H53.4596Z" fill="#8BD9DF"/>
<path d="M56.7597 115.814H54.2847L54.4497 114.905H56.2647L56.7597 115.814Z" fill="#8BD9DF"/>
<path d="M58.987 114.905L58.822 115.814H57.502L57.667 114.905H58.987Z" fill="#8BD9DF"/>
<path d="M64.3495 114.904L63.5245 115.541C63.1945 115.177 62.8645 114.995 62.3695 114.995C61.792 114.995 61.297 115.268 61.0495 115.723H59.647C59.7295 115.359 59.8945 115.086 60.142 114.813H64.3495V114.904Z" fill="#8BD9DF"/>
<path d="M36.3824 117.634H34.7324C34.6499 117.361 34.5674 117.088 34.5674 116.815C34.5674 116.633 34.5674 116.36 34.6499 116.178H36.0524C35.9699 116.36 35.9699 116.542 35.9699 116.724C35.8874 117.179 36.0524 117.452 36.3824 117.634Z" fill="#8BD9DF"/>
<path d="M38.0322 116.36H39.1872L38.9397 117.634H37.7847L38.0322 116.36Z" fill="#8BD9DF"/>
<path d="M44.2196 117.634H39.7646L40.6721 116.178H41.9921L41.5796 116.906H42.8171L42.6521 116.178H43.8896L44.2196 117.634Z" fill="#8BD9DF"/>
<path d="M50.9845 116.178L50.6545 117.634H49.417L49.6645 116.36L48.6745 117.634H47.1895L46.612 116.36L46.3645 117.634H45.127L45.457 116.178H47.8495L48.097 116.815L48.592 116.178H50.9845Z" fill="#8BD9DF"/>
<path d="M53.212 116.178L52.9645 117.634H51.6445L51.892 116.178H53.212Z" fill="#8BD9DF"/>
<path d="M58.7396 116.178L58.4096 117.634H56.3471L55.5221 116.178L55.2746 117.634H53.9546L54.2021 116.178H57.0071L57.3371 116.633L57.4196 116.178H58.7396Z" fill="#8BD9DF"/>
<path d="M61.2149 117.634H59.5649C59.4824 117.361 59.3999 117.088 59.3999 116.815C59.3999 116.633 59.3999 116.36 59.4824 116.178H60.8849C60.8024 116.36 60.8024 116.542 60.8024 116.724C60.7199 117.179 60.8849 117.452 61.2149 117.634Z" fill="#8BD9DF"/>
<path d="M64.0197 116.36L63.7722 117.634H62.5347L62.8647 116.36H64.0197Z" fill="#8BD9DF"/>
</g>
<path d="M17.8199 99.4385C11.0549 100.348 5.60994 101.531 1.81494 102.35V115.087C4.12494 114.268 5.36244 113.813 7.67244 113.085C7.67244 110.538 7.67244 109.355 7.67244 106.808C8.33244 106.626 8.66244 106.626 9.23994 106.444C10.3949 108.627 10.9724 109.719 12.2099 111.72C14.7674 110.993 16.0049 110.72 18.4799 110.083C16.9949 107.717 16.2524 106.444 14.8499 103.896C16.3349 102.896 17.2424 101.258 17.8199 99.4385Z" fill="url(#paint1_linear_97_2628)"/>
<path d="M33.66 97.8918C33.66 100.894 31.845 102.896 29.7 103.169C27.4725 103.441 25.74 101.713 25.74 98.5287C23.6775 98.7106 21.6975 98.9836 19.7175 99.2565C19.635 104.897 24.0075 109.537 29.6175 108.718C34.815 107.99 39.6 103.259 39.6 97.7099V97.6189C37.62 97.6189 35.5575 97.7099 33.66 97.8918Z" fill="url(#paint2_linear_97_2628)"/>
<path d="M56.7601 97.5279C51.5626 97.346 46.5301 97.346 41.8276 97.437C41.8276 100.621 41.8276 103.805 41.8276 106.99C45.1276 106.808 48.4276 106.808 51.8101 106.808C55.0276 106.899 59.2351 105.989 59.3176 101.895C59.2351 99.9843 58.3276 98.4377 56.7601 97.5279ZM51.2326 102.35C49.8301 102.35 49.0876 102.35 47.6851 102.35C47.6851 101.167 47.6851 100.621 47.6851 99.4385C49.0876 99.4385 49.8301 99.4385 51.2326 99.4385C52.5526 99.4385 53.2126 99.9843 53.2126 100.894C53.2126 101.895 52.5526 102.35 51.2326 102.35Z" fill="url(#paint3_linear_97_2628)"/>
<path d="M70.5377 103.259C68.3927 102.987 66.6602 101.076 66.5777 98.0738C64.5152 97.8918 62.5352 97.8009 60.5552 97.6189C60.6377 103.078 65.5052 107.808 70.5377 108.718C76.1477 109.81 80.1902 104.988 80.3552 99.7114C78.3752 99.4384 76.3127 99.0745 74.4152 98.8926C74.3327 101.986 72.6827 103.532 70.5377 103.259Z" fill="url(#paint4_linear_97_2628)"/>
<path d="M92.0699 101.895C90.0899 101.44 88.1099 101.076 86.1299 100.712C86.1299 104.351 86.1299 107.99 86.2124 111.629C88.6049 112.266 89.7599 112.63 92.0699 113.358C92.0699 109.628 92.0699 105.807 92.0699 101.895Z" fill="url(#paint5_linear_97_2628)"/>
<path d="M10.1472 93.8889C10.0647 93.8889 9.89973 93.8889 9.81723 93.8889C8.99223 93.9799 8.49723 93.9799 7.67223 94.0709L7.09473 94.1619V94.7077V97.619V100.53V101.258L7.75473 101.167C8.57973 101.076 9.07473 100.985 9.89973 100.803C11.7147 100.53 12.7872 99.1656 12.8697 97.0731C12.8697 95.9814 12.6222 95.1626 12.0447 94.6167C11.6322 94.1619 10.9722 93.8889 10.1472 93.8889ZM9.89973 100.257C9.07473 100.348 8.57973 100.439 7.75473 100.621C7.75473 98.2558 7.75473 97.0731 7.75473 94.7987C8.57973 94.7077 9.07473 94.7077 9.89973 94.6167C9.98223 94.6167 10.0647 94.6167 10.1472 94.6167C11.5497 94.6167 12.2922 95.6175 12.2922 97.1641C12.2922 98.8927 11.4672 99.9844 9.89973 100.257Z" fill="white"/>
<path d="M29.8651 92.5242C29.7826 92.5242 29.7826 92.5242 29.7001 92.5242C27.0601 92.6151 25.1626 95.0715 25.1626 98.4377C25.1626 100.257 25.6576 101.713 26.5651 102.623C27.3076 103.35 28.2151 103.714 29.2876 103.714C29.4526 103.714 29.6176 103.714 29.7826 103.714C32.4226 103.441 34.3201 100.985 34.3201 97.8009C34.3201 96.0723 33.8251 94.6167 32.8351 93.7069C32.0101 92.9791 31.0201 92.5242 29.8651 92.5242ZM29.7001 103.169C29.5351 103.169 29.4526 103.169 29.2876 103.169C27.3076 103.169 25.7401 101.44 25.7401 98.4377C25.7401 95.2535 27.5551 93.161 29.7001 93.07C29.7826 93.07 29.7826 93.07 29.8651 93.07C32.0101 93.07 33.6601 94.8896 33.6601 97.8009C33.6601 100.894 31.8451 102.896 29.7001 103.169Z" fill="white"/>
<path d="M18.2324 96.5272C18.3974 91.8874 14.6849 88.3393 10.2299 88.2483C6.84742 88.2483 5.11492 88.2483 1.73242 88.3393V115.178C4.04242 114.359 5.27992 113.904 7.58992 113.176C7.58992 110.629 7.58992 109.446 7.58992 106.899C8.24992 106.717 8.57992 106.717 9.15742 106.535C10.3124 108.718 10.8899 109.81 12.1274 111.811C14.6849 111.084 15.9224 110.811 18.3974 110.174C16.9124 107.808 16.1699 106.535 14.7674 103.987C16.9949 102.259 18.1499 99.6205 18.2324 96.5272ZM17.5724 109.81C15.6749 110.265 14.5199 110.538 12.5399 111.084C11.4674 109.264 10.8899 108.263 9.81742 106.171L9.56992 105.807L9.15742 105.898C8.49742 106.08 8.16742 106.08 7.58992 106.262L7.09492 106.444V106.899V109.992V112.63C5.27992 113.176 4.12492 113.54 2.47492 114.177V88.8851C5.44492 88.8851 7.17742 88.8851 10.3124 88.7942C12.3749 88.7942 14.3549 89.7039 15.7574 91.2505C17.0774 92.7062 17.7374 94.5257 17.6549 96.4363C17.5724 99.4385 16.4174 101.895 14.5199 103.533L14.1074 103.896L14.3549 104.351C15.6749 106.626 16.3349 107.808 17.5724 109.81Z" fill="white"/>
<path d="M49.3349 95.8905C49.6649 95.8905 49.9949 95.8905 50.4074 95.8905C51.3149 95.8905 51.9749 95.7085 52.4699 95.2536C52.7999 94.8897 52.9649 94.4348 52.9649 93.889C52.9649 93.1611 52.6349 91.8875 50.4074 91.8875C49.9949 91.8875 49.6649 91.8875 49.3349 91.8875C48.8399 91.8875 48.3449 91.8875 47.6024 91.8875H47.0249V92.5243V95.2536V95.8905H47.6024C48.3449 95.8905 48.8399 95.8905 49.3349 95.8905ZM47.6849 92.5243C48.3449 92.5243 48.8399 92.5243 49.4174 92.5243C49.7474 92.5243 50.0774 92.5243 50.4899 92.5243C51.8099 92.5243 52.3874 92.9792 52.4699 93.889C52.4699 94.7987 51.8924 95.2536 50.5724 95.2536C50.1599 95.2536 49.8299 95.2536 49.4999 95.2536C49.0049 95.2536 48.5099 95.2536 47.7674 95.2536C47.6849 94.1619 47.6849 93.616 47.6849 92.5243Z" fill="white"/>
<path d="M70.4548 87.7024C65.1748 87.7024 60.4723 92.3422 60.5548 97.7099C60.5548 103.169 65.5048 107.899 70.5373 108.9C71.1148 108.991 71.6098 109.082 72.1048 109.082C77.0548 109.082 80.4373 104.351 80.4373 99.3475C80.3548 93.434 76.6423 87.7024 70.4548 87.7024ZM77.2198 106.171C75.8173 107.626 74.0848 108.354 72.1048 108.354C71.6098 108.354 71.1148 108.263 70.6198 108.172C68.2273 107.717 65.8348 106.353 64.1023 104.442C62.2048 102.441 61.1323 99.9843 61.1323 97.6189C61.1323 95.2535 62.0398 92.9791 63.7723 91.1595C65.5873 89.34 67.9798 88.2483 70.3723 88.2483C76.3948 88.2483 79.6948 93.8889 79.6948 99.1655C79.8598 101.895 78.9523 104.351 77.2198 106.171Z" fill="white"/>
<path d="M97.1851 88.3393C91.7401 88.3393 86.3776 88.2483 80.9326 88.2483C80.9326 90.6137 80.9326 91.7054 80.9326 94.0708C82.9951 94.1618 83.9851 94.2528 86.0476 94.4348C86.0476 100.257 86.1301 105.989 86.1301 111.811C88.5226 112.448 89.6776 112.812 91.9876 113.54C91.9876 107.354 91.9876 101.167 91.9051 94.9806C93.9676 95.1626 94.9576 95.2536 97.0201 95.4355V88.3393H97.1851ZM96.6076 94.6167C94.9576 94.4348 93.9676 94.3438 92.1526 94.1618L91.4926 94.0708V94.7077V112.448C89.7601 111.902 88.6051 111.539 86.7901 111.084V102.896V94.2528V93.7069H86.2126C84.3151 93.525 83.3251 93.525 81.5926 93.343V91.7964V88.7032C86.5426 88.7032 91.6576 88.7942 96.6076 88.7942V94.6167Z" fill="white"/>
<path d="M70.5375 92.6152C70.455 92.6152 70.455 92.6152 70.3725 92.6152C69.3 92.6152 68.2275 93.0701 67.485 93.7979C66.495 94.7987 66 96.2543 66 97.9829C66 101.167 67.8975 103.623 70.5375 103.896C70.7025 103.896 70.8675 103.896 71.0325 103.896C72.105 103.896 73.0125 103.533 73.6725 102.805C74.58 101.804 75.075 100.348 75.075 98.5288C75.075 95.1626 73.1775 92.7062 70.5375 92.6152ZM70.95 103.351C70.785 103.351 70.7025 103.351 70.5375 103.351C68.31 103.078 66.5775 101.076 66.5775 97.9829C66.5775 94.9806 68.2275 93.2521 70.3725 93.2521C70.455 93.2521 70.455 93.2521 70.5375 93.2521C72.765 93.3431 74.4975 95.4355 74.4975 98.6197C74.4975 101.622 72.93 103.351 70.95 103.351Z" fill="white"/>
<path d="M29.8651 87.7024C29.7826 87.7024 29.7826 87.7024 29.7001 87.7024C23.6776 87.7934 19.8826 93.434 19.7176 99.0746C19.5526 104.26 23.3476 108.718 28.2976 108.718C28.7101 108.718 29.1226 108.718 29.5351 108.627C34.7326 107.899 39.5176 103.169 39.5176 97.6189C39.6826 92.2513 35.0626 87.7024 29.8651 87.7024ZM29.5351 107.99C29.1226 108.081 28.7101 108.081 28.3801 108.081C26.2351 108.081 24.2551 107.263 22.7701 105.625C21.1201 103.896 20.2951 101.531 20.3776 99.0746C20.4601 96.3453 21.4501 93.6159 23.0176 91.6144C24.2551 90.0678 26.4001 88.3392 29.7001 88.2483C29.7826 88.2483 29.7826 88.2483 29.8651 88.2483C32.2576 88.2483 34.5676 89.249 36.3001 91.0686C38.0326 92.8881 39.0226 95.1625 38.9401 97.528C39.0226 102.623 34.7326 107.263 29.5351 107.99Z" fill="white"/>
<path d="M51.2324 98.8018C50.5724 98.8018 49.9949 98.8018 49.4999 98.8018C48.9224 98.8018 48.4274 98.8018 47.6849 98.8018H47.1074V99.4386V100.894V102.35V102.987H47.6849C48.4274 102.987 49.0049 102.987 49.4999 102.987C49.9949 102.987 50.5724 102.987 51.2324 102.987H51.3149C52.2224 102.987 52.8824 102.805 53.2949 102.35C53.6249 101.986 53.7899 101.531 53.7899 100.985C53.7899 100.257 53.5424 98.8018 51.2324 98.8018ZM51.3149 102.35C51.2324 102.35 51.2324 102.35 51.3149 102.35C50.5724 102.35 50.0774 102.35 49.4999 102.35C48.9224 102.35 48.4274 102.35 47.6849 102.35C47.6849 101.167 47.6849 100.621 47.6849 99.4386C48.4274 99.4386 49.0049 99.4386 49.4999 99.4386C49.9949 99.4386 50.5724 99.4386 51.2324 99.4386C52.5524 99.4386 53.2124 99.9845 53.2124 100.894C53.2124 101.895 52.5524 102.35 51.3149 102.35Z" fill="white"/>
<path d="M55.9351 97.0732C57.5851 96.2544 58.4101 94.7987 58.3276 93.0702C58.3276 89.522 54.6976 88.0664 51.7276 88.0664C51.5626 88.0664 51.3976 88.0664 51.2326 88.0664C50.5726 88.0664 49.9126 88.0664 49.2526 88.0664C46.7776 88.0664 44.3026 88.0664 41.8276 88.0664C41.8276 94.3439 41.8276 100.621 41.7451 106.899C44.7976 106.808 47.8501 106.717 50.9026 106.717C51.1501 106.717 51.3976 106.717 51.6451 106.717C51.7276 106.717 51.8926 106.717 51.9751 106.717C55.1926 106.717 59.0701 105.716 59.0701 101.804C59.2351 99.6205 57.9976 97.892 55.9351 97.0732ZM56.5951 105.17C55.1926 105.898 53.3776 106.08 52.1401 106.08C52.0576 106.08 51.8926 106.08 51.8101 106.08C51.5626 106.08 51.3151 106.08 50.9851 106.08C48.0976 106.08 45.2926 106.171 42.4051 106.262V97.5281V88.7032C44.6326 88.7032 46.9426 88.7032 49.1701 88.7032H51.1501C51.3151 88.7032 51.4801 88.7032 51.6451 88.7032C53.2126 88.7032 54.6976 89.0672 55.7701 89.795C57.0076 90.6138 57.6676 91.7055 57.6676 93.0702C57.6676 94.6168 56.9251 95.7995 55.6051 96.5273L54.3676 97.1642L55.6051 97.71C57.5026 98.5288 58.4926 99.9844 58.4926 101.895C58.5751 103.351 57.9151 104.442 56.5951 105.17Z" fill="white"/>
</g>
<defs>
<linearGradient id="paint0_linear_97_2628" x1="49.5001" y1="118.973" x2="49.5001" y2="113.922" gradientUnits="userSpaceOnUse">
<stop stop-color="#19456F"/>
<stop offset="0.5019" stop-color="#08B7D0"/>
<stop offset="1" stop-color="#8BD9DF"/>
</linearGradient>
<linearGradient id="paint1_linear_97_2628" x1="10.1835" y1="115.158" x2="10.1835" y2="99.4611" gradientUnits="userSpaceOnUse">
<stop stop-color="white" stop-opacity="0"/>
<stop offset="1" stop-color="#BFC1C1"/>
</linearGradient>
<linearGradient id="paint2_linear_97_2628" x1="29.6953" y1="108.72" x2="29.6953" y2="97.5036" gradientUnits="userSpaceOnUse">
<stop stop-color="white" stop-opacity="0"/>
<stop offset="1" stop-color="#BFC1C1"/>
</linearGradient>
<linearGradient id="paint3_linear_97_2628" x1="50.4906" y1="106.944" x2="50.4906" y2="97.3318" gradientUnits="userSpaceOnUse">
<stop stop-color="white" stop-opacity="0"/>
<stop offset="1" stop-color="#BFC1C1"/>
</linearGradient>
<linearGradient id="paint4_linear_97_2628" x1="70.5048" y1="108.969" x2="70.5048" y2="97.677" gradientUnits="userSpaceOnUse">
<stop stop-color="white" stop-opacity="0"/>
<stop offset="1" stop-color="#BFC1C1"/>
</linearGradient>
<linearGradient id="paint5_linear_97_2628" x1="89.1283" y1="113.436" x2="89.1283" y2="100.75" gradientUnits="userSpaceOnUse">
<stop stop-color="white" stop-opacity="0"/>
<stop offset="1" stop-color="#BFC1C1"/>
</linearGradient>
<clipPath id="clip0_97_2628">
<rect width="99" height="121" fill="white"/>
</clipPath>
</defs>
</svg>
