<svg width="68" height="80" viewBox="0 0 68 80" fill="none" xmlns="http://www.w3.org/2000/svg">
<g clip-path="url(#clip0_97_2508)">
<path fill-rule="evenodd" clip-rule="evenodd" d="M62.9002 40.1805C62.9002 40.1805 62.3902 41.2632 62.3902 41.7444C62.3902 42.2256 62.6736 42.4662 62.5036 42.9474C62.3336 43.4286 62.2202 43.97 62.2202 43.97C62.2202 43.97 63.0702 42.8873 62.9569 42.4662C62.8436 42.0452 62.6736 42.0452 62.7869 41.4437C62.8436 40.7219 62.9002 40.1805 62.9002 40.1805ZM55.4769 28.9324C55.4769 28.9324 54.7969 28.391 54.8536 27.7895C54.9102 27.188 55.3069 27.5489 55.3069 26.767C55.3069 25.985 54.9669 25.1429 54.9669 25.1429C54.9669 25.1429 55.4769 26.2256 55.5336 26.8271C55.5902 27.4286 55.3069 27.4286 55.3069 27.6692C55.3069 27.9098 55.4769 28.9324 55.4769 28.9324ZM67.6602 60.5113C67.9436 60.5113 67.9436 58.4061 67.9436 58.4061C67.9436 58.4061 66.7536 57.8647 66.5269 57.0226C66.3002 56.1805 67.3769 55.8196 67.3769 54.6166C67.3769 53.4136 66.0169 50.9474 66.0169 50.9474C66.0169 50.9474 66.7536 53.3534 66.3569 53.8948C66.0169 54.4361 64.9969 54.7369 64.8836 54.0151C64.7702 53.2933 65.3369 52.8121 64.8269 51.97C64.3169 51.1279 65.4502 48.4813 65.4502 48.4813C65.4502 48.4813 64.4302 49.6241 64.2036 50.3459C63.9769 51.0677 63.8636 51.5489 63.8636 51.5489C63.8636 51.5489 63.1836 49.9249 63.4102 49.2632C63.6369 48.6016 65.1102 45.8948 64.7136 45.2331C64.3736 44.5715 63.5802 43.7895 63.5802 43.7895C63.5802 43.7895 64.3169 44.5715 63.9202 45.5339C63.5802 46.4963 63.2402 46.1955 63.1269 46.7369C63.0136 47.3384 62.9002 47.8196 62.9002 47.8196L62.9569 45.3534L62.2769 46.8572C62.2769 46.8572 60.8602 43.9098 61.5969 41.4437C62.3336 39.0376 62.5602 38.6767 62.6169 38.3158C62.6736 37.8948 62.2202 36.6316 62.2202 36.6316C62.2202 36.6316 62.1636 38.1955 61.5969 38.9173C61.0302 39.6391 61.0302 39.6392 61.0302 39.6392C61.0302 39.6392 60.6902 38.4963 60.6336 37.6542C60.5769 36.8121 60.0669 35.0677 60.0669 35.0677L59.9536 36.8121C59.9536 36.8121 59.5002 35.9098 59.1036 34.3459C58.7069 32.782 57.7436 32.2407 57.4602 31.6993C57.1769 31.1579 56.4969 29.173 56.4969 29.173L57.0069 31.8196C57.0069 31.8196 55.7036 31.4587 55.0802 30.7369C54.4569 30.0151 54.2869 28.8722 54.2869 28.8722L53.8336 30.4361C53.8336 30.4361 53.4936 28.2106 53.4936 27.3083C53.4369 26.3459 54.1169 25.564 53.4369 24.0602C52.7002 22.4963 51.9069 21.5339 51.9069 21.5339L52.7002 23.8196C52.7002 23.8196 50.6036 20.6918 50.0369 18.5264C49.4702 16.4211 49.4702 14.9173 49.4702 14.9173L49.3002 16.8422C49.3002 16.8422 48.1102 13.1128 44.9369 9.08276C41.7636 5.11283 39.8369 30.4361 39.8369 30.4361C39.8369 30.4361 43.2369 47.6391 44.0869 48.9625C44.8802 50.2858 63.2969 63.7594 63.2969 63.7594L67.6602 60.5113Z" fill="#1FF0F7"/>
<path fill-rule="evenodd" clip-rule="evenodd" d="M5.04333 40.1805C5.04333 40.1805 5.55333 41.2632 5.55333 41.7444C5.55333 42.2256 5.27 42.4662 5.44 42.9474C5.61 43.4287 5.72333 43.97 5.72333 43.97C5.72333 43.97 4.87333 42.8873 4.98667 42.4662C5.1 42.0452 5.27 42.0452 5.15667 41.4437C5.15667 40.7219 5.04333 40.1805 5.04333 40.1805ZM12.4667 28.9324C12.4667 28.9324 13.1467 28.3911 13.09 27.7896C13.0333 27.1881 12.6367 27.549 12.6367 26.767C12.6367 25.985 12.9767 25.1429 12.9767 25.1429C12.9767 25.1429 12.4667 26.2256 12.41 26.8271C12.3533 27.4287 12.6367 27.4287 12.6367 27.6693C12.6367 27.9099 12.4667 28.9324 12.4667 28.9324ZM0.283333 60.5114C0 60.5114 0 58.4061 0 58.4061C0 58.4061 1.19 57.8647 1.41667 57.0226C1.64333 56.1805 0.566667 55.8196 0.566667 54.6166C0.566667 53.4136 1.92667 50.9474 1.92667 50.9474C1.92667 50.9474 1.19 53.3535 1.58667 53.8948C1.92667 54.4362 2.94667 54.7369 3.06 54.0151C3.17333 53.2933 2.60667 52.8121 3.11667 51.97C3.62667 51.1279 2.49333 48.4813 2.49333 48.4813C2.49333 48.4813 3.51333 49.6241 3.74 50.3459C3.96667 51.0677 4.08 51.5489 4.08 51.5489C4.08 51.5489 4.76 49.9249 4.53333 49.2632C4.30667 48.6016 2.83333 45.8948 3.23 45.2332C3.57 44.5715 4.36333 43.7896 4.36333 43.7896C4.36333 43.7896 3.62667 44.5715 4.02333 45.5339C4.36333 46.4963 4.70333 46.1956 4.81667 46.7369C4.93 47.3384 5.04333 47.8196 5.04333 47.8196L4.98667 45.3535L5.66667 46.8572C5.66667 46.8572 7.08333 43.9099 6.34667 41.4437C5.61 39.0377 5.38333 38.6768 5.32667 38.3159C5.27 37.8948 5.72333 36.6317 5.72333 36.6317C5.72333 36.6317 5.78 38.1956 6.34667 38.9174C6.91333 39.6392 6.91333 39.6392 6.91333 39.6392C6.91333 39.6392 7.25333 38.4963 7.31 37.6542C7.36667 36.8121 7.87667 35.0677 7.87667 35.0677L7.99 36.8121C7.99 36.8121 8.44333 35.9099 8.84 34.3459C9.23667 32.782 10.2 32.2407 10.4833 31.6993C10.7667 31.158 11.4467 29.173 11.4467 29.173L10.9367 31.8196C10.9367 31.8196 12.24 31.4587 12.8633 30.7369C13.4867 30.0151 13.6567 28.8723 13.6567 28.8723L14.0533 30.2557C14.0533 30.2557 14.3933 28.0302 14.3933 27.1279C14.45 26.1655 13.7133 25.3835 14.45 23.8798C15.1867 22.3159 15.98 21.3535 15.98 21.3535L15.1867 23.6392C15.1867 23.6392 17.2833 20.5114 17.85 18.3459C18.4167 16.2407 18.4167 14.7369 18.4167 14.7369L18.5867 16.6617C18.5867 16.6617 19.7767 12.9324 22.95 8.90234C26.1233 4.93241 28.05 30.2557 28.05 30.2557C28.05 30.2557 24.65 47.4587 23.8 48.782C23.1767 50.2256 4.76 63.7595 4.76 63.7595L0.283333 60.5114Z" fill="#1FF0F7"/>
<path fill-rule="evenodd" clip-rule="evenodd" d="M7.70667 58.406C7.02667 57.5038 6.51667 56.4812 6.23333 55.3985L6.06333 54.8571V54.3158C6.23333 47.6992 7.08333 39.5789 10.5967 33.9248L11.1633 33.0226L12.07 32.5414C13.8267 31.6391 15.64 30.7368 17.3967 29.8346C17.1133 29.1128 16.9433 28.3308 16.83 27.5489C16.83 27.4887 16.83 27.4286 16.83 27.3684L14.79 28.812L18.87 17.6842C21.42 10.7669 25.5 3.96992 32.47 0.781955L34 0L35.53 0.721805C42.4433 3.90977 46.58 10.7068 49.13 17.6241L53.21 28.7519L51.17 27.3083C51.17 27.3684 51.17 27.4286 51.17 27.4887C51.0567 28.2707 50.8867 28.9925 50.6033 29.7744C52.36 30.6767 54.1733 31.5789 55.93 32.4812L56.8367 32.9624L57.4033 33.8647C60.9733 39.5789 61.8233 47.6391 61.9367 54.2556V54.797L61.7667 55.3383C61.4267 56.421 60.9733 57.4436 60.4067 58.3459H68V80L66.64 79.5188C45.5033 72.2406 22.4967 72.2406 1.36 79.5188L0 80V58.406H7.70667Z" fill="#1FF0F7"/>
<path fill-rule="evenodd" clip-rule="evenodd" d="M9.97333 59.4285C8.61333 58.1654 7.64999 56.7218 7.19666 55.0977L7.08333 54.6767V54.2556C7.25333 47.8797 8.04666 39.8797 11.5033 34.3458L11.9 33.6842L12.58 33.3233C14.62 32.3007 16.7167 31.218 18.7567 30.1955C18.3033 29.2932 18.02 28.3308 17.9067 27.3082C17.7933 26.6466 17.7933 25.9849 17.85 25.3233L16.9433 25.9849L19.8333 17.9849C22.27 11.3082 26.2367 4.69169 32.8667 1.62403L34 1.14282L35.1333 1.62403C41.82 4.69169 45.73 11.3082 48.1667 17.9849L51.1133 26.0451L50.2067 25.3834C50.2633 26.0451 50.2633 26.7067 50.15 27.3684C50.0367 28.3909 49.6967 29.3533 49.3 30.2556C51.34 31.2782 53.4367 32.3609 55.4767 33.3834L56.1567 33.7443L56.5533 34.406C60.01 39.9398 60.8033 47.9398 60.9733 54.3158V54.7368L60.86 55.1579C60.35 56.9022 59.5 58.3458 58.3667 59.4887H67.0367V78.6165C45.6733 71.218 22.44 71.218 1.07666 78.6165V59.4285H9.97333Z" fill="#071224"/>
<path fill-rule="evenodd" clip-rule="evenodd" d="M44.5966 59.3084C43.0666 61.4136 40.9133 63.0978 38.0233 64.361C50.3199 61.955 57.0633 58.6467 58.3099 54.2557C58.1399 45.8347 56.7799 39.6994 54.3433 35.7294C54.3433 35.7294 51.8499 34.4663 46.8066 31.94C46.8066 31.94 45.4466 32.4813 42.6699 33.5039C42.6699 33.5039 43.4066 32.9024 44.9366 31.7595C49.4699 27.1279 48.1666 21.7745 41.0266 15.5189C41.0266 15.5189 42.5566 16.6016 45.6733 18.767C42.8399 11.3084 38.9866 6.37605 33.9999 4.09033C29.0133 6.37605 25.1599 11.3084 22.3266 18.9475C25.4433 16.7821 26.9733 15.6994 26.9733 15.6994C19.8333 21.8948 18.5299 27.3084 23.0633 31.94C24.5933 33.0828 25.3299 33.6843 25.3299 33.6843C22.6099 32.6618 21.1933 32.1204 21.1933 32.1204C16.1499 34.6467 13.6566 35.9099 13.6566 35.9099C11.2199 39.8798 9.85994 46.0151 9.68994 54.4362C10.9366 58.767 17.6799 62.1354 29.9766 64.5415C25.2166 59.1881 22.8366 56.5415 22.8366 56.5415C31.0533 54.9775 35.1333 54.2557 35.1333 54.2557C32.0733 56.5415 30.5433 58.8272 30.6566 61.0527C35.8699 61.5941 40.5166 60.9926 44.5966 59.3084Z" fill="#394253"/>
<path fill-rule="evenodd" clip-rule="evenodd" d="M9.80325 52.5715C9.80325 53.1128 9.74658 53.7143 9.74658 54.3158C10.9932 58.6466 17.7366 62.0151 30.0332 64.4211C25.2732 59.0677 22.8932 56.4211 22.8932 56.4211C19.5499 57.8647 16.3199 58.3459 13.2599 57.8045C13.7132 57.6241 13.9399 57.5639 13.9399 57.5639C18.5299 56.4812 21.1932 54.9173 21.8166 52.9925C18.0199 54.6166 14.7899 55.3985 12.1832 55.3985C11.3332 53.594 10.9366 52.6918 10.9366 52.6918C14.4499 51.7294 16.2066 51.2481 16.2066 51.2481C13.7132 49.6241 12.4666 48.782 12.4666 48.782C12.8632 49.9248 13.0899 50.4662 13.0899 50.4662L9.80325 52.5715Z" fill="#778399"/>
<path fill-rule="evenodd" clip-rule="evenodd" d="M45.5035 38.2556C36.1535 42.7068 31.4502 44.9323 31.4502 44.9323C34.0569 36.6316 38.5335 33.5038 44.7669 35.4286C44.7669 35.4286 45.0502 34.9474 45.6169 33.9248C45.8435 36.7519 45.7869 38.1955 45.5035 38.2556Z" fill="#778399"/>
<path fill-rule="evenodd" clip-rule="evenodd" d="M56.5532 57.2029C57.4032 56.3007 58.0266 55.3383 58.3099 54.3759C58.1399 47.1578 57.1199 41.5638 55.3066 37.6541C54.5132 38.4962 53.5499 40.0601 52.4166 42.3458C52.4166 42.3458 53.6066 42.1052 56.0432 41.624C56.0432 41.624 55.3632 42.4661 53.9466 44.2104C53.9466 44.2104 54.5132 44.7518 55.7032 45.8345C56.3266 46.7368 56.7232 47.9398 56.8932 49.5037C55.9866 47.8796 54.7399 46.7368 53.0966 46.1954C53.0399 48.3608 52.0199 50.2255 50.1499 51.8495C52.3032 52.5713 54.4566 54.3759 56.5532 57.2029Z" fill="#778399"/>
<path fill-rule="evenodd" clip-rule="evenodd" d="M46.0698 52.6315C36.5498 48.3608 29.6931 48.3608 25.3864 52.6315C23.6864 53.1728 22.8364 54.436 22.8364 56.3608C24.0831 53.4134 26.4064 52.5112 29.8631 53.5337C29.6364 54.6164 29.5231 55.2179 29.5231 55.2179C33.9431 53.7142 36.8898 53.0525 38.3631 53.1728C36.2098 54.2555 34.4531 55.9397 33.2064 58.1052C38.4198 56.1202 40.9698 55.0976 40.9698 55.0976C40.1198 56.4811 39.7231 57.1428 39.7231 57.1428C44.8231 56.4811 48.0531 57.3232 49.3564 59.5488C49.5264 58.4059 49.3564 57.3232 48.8464 56.3608C50.6598 56.6014 52.3598 57.5638 53.8898 59.1277C53.6631 58.4059 53.3798 57.7443 53.0398 57.1428C51.0564 53.5337 48.7331 52.03 46.0698 52.6315Z" fill="#778399"/>
<path fill-rule="evenodd" clip-rule="evenodd" d="M18.7002 40.7218C18.0769 39.2782 16.7169 37.9548 14.6202 36.6315C17.3402 39.0977 18.8135 42.1654 19.0402 45.7142C16.7735 45.2932 14.7335 44.5112 12.9202 43.3684C14.5069 44.9323 16.5469 46.1954 19.0402 47.1579C19.9469 49.3233 20.4002 50.406 20.4002 50.406C18.0769 49.3233 15.3569 48.421 12.2969 47.7594C17.1702 49.5037 20.3435 51.2481 21.7602 52.9323C18.8702 55.4586 16.2069 57.0225 13.8835 57.5037C15.4702 57.3834 18.0202 56.4812 21.4769 54.8571C22.3835 55.8797 22.8369 56.3609 22.8369 56.3609C22.8369 54.015 24.0835 52.6917 26.6335 52.3909C31.4502 52.2706 33.8302 52.2105 33.8302 52.2105C31.7902 53.4736 30.7702 54.1353 30.7702 54.1353C38.0235 51.1879 42.7835 50.7669 45.0502 52.812C44.4269 54.1954 44.0869 54.8571 44.0869 54.8571C48.6202 51.0676 50.3769 53.4736 53.0402 57.203C51.3969 53.1127 49.1869 51.4285 46.4669 52.1503C49.6402 49.7443 51.3402 46.9774 51.4535 43.7293C51.8502 42.0451 52.7569 40.1203 54.1735 37.9548C52.0769 40.1203 50.7735 42.1052 50.3202 43.9097C47.2602 47.7594 42.9535 48.3007 37.4002 45.5338C42.1602 45.4135 45.7869 42.6466 48.2802 37.3533C45.9002 39.3383 44.7102 40.3609 44.7102 40.3609C47.2602 37.1729 48.5635 35.5488 48.5635 35.5488C46.9202 36.7518 46.1269 37.3533 46.1269 37.3533C45.9002 35.0075 45.7869 33.8045 45.7869 33.8045C45.5602 36.2105 45.4469 37.3533 45.4469 37.3533C41.9902 35.4887 39.0435 35.609 36.6635 37.7142C34.1135 39.9398 32.4135 42.2857 31.6202 44.812C32.4135 39.8797 34.5102 36.3909 37.9102 34.406C42.5002 32.4812 45.1069 29.4135 45.6169 25.2631C46.1835 27.0075 45.9002 28.9924 44.8235 31.2782C48.0535 26.7669 47.5435 22.6165 43.2935 18.827C40.5735 16.4812 37.5135 15.218 34.0569 15.0375C28.6735 14.9172 24.7635 17.4436 22.2702 22.5563C20.2869 27.5488 22.3835 31.4586 28.5602 34.2857C26.5769 33.6842 25.6135 33.4436 25.6135 33.4436C22.8935 32.421 21.4769 31.8797 21.4769 31.8797C22.0435 35.1278 22.3269 36.7518 22.3269 36.7518C21.5902 35.609 21.1935 35.0676 21.1935 35.0676C21.3069 39.3985 22.4969 42.827 24.8769 45.4135C22.2135 44.7518 20.2302 43.1278 18.7002 40.7218Z" fill="#071224"/>
<path fill-rule="evenodd" clip-rule="evenodd" d="M10.8232 52.7518C13.3732 51.9097 14.6766 51.4887 14.6766 51.4887C14.6766 51.4887 13.8832 50.5864 12.3532 48.842C14.2232 49.5638 16.3199 50.4661 18.5299 51.609C16.6032 52.9924 14.4499 53.8345 11.9566 54.1954C11.9566 54.1353 11.6166 53.6541 10.8232 52.7518Z" fill="#071224"/>
<path fill-rule="evenodd" clip-rule="evenodd" d="M12.0698 39.2181C12.6365 37.7745 13.1465 36.6918 13.5998 35.97C14.9032 37.4737 15.7532 38.9173 16.2065 40.4211C14.6198 40 13.8265 39.7594 13.8265 39.7594C14.5632 39.7594 14.9032 39.7594 14.9032 39.7594C14.2798 38.7369 13.3165 38.5564 12.0698 39.2181Z" fill="#071224"/>
<path fill-rule="evenodd" clip-rule="evenodd" d="M10.9931 42.8271C10.5965 44.5715 10.2565 46.6166 10.0298 49.0226C10.3131 47.6392 10.7665 46.6166 11.3898 45.955C11.9565 46.1956 13.2031 46.4963 15.1298 46.7971C13.1465 45.8347 11.7865 44.5114 10.9931 42.8271Z" fill="#071224"/>
<path fill-rule="evenodd" clip-rule="evenodd" d="M54.7967 44.6316C55.3067 45.4136 55.5901 45.7745 55.5901 45.7745C55.5901 45.7745 54.3434 45.2331 51.9067 44.0903C54.5701 42.4061 55.9301 41.564 55.9301 41.564C56.3834 42.4662 56.5534 43.3685 56.4967 44.2707C56.2134 43.6091 55.8734 43.188 55.5901 43.0677C55.0801 44.0903 54.7967 44.6316 54.7967 44.6316Z" fill="#071224"/>
<path fill-rule="evenodd" clip-rule="evenodd" d="M46.1266 42.767C47.8833 42.1053 49.2433 40.7219 50.2633 38.7369C49.98 41.1429 49.2433 43.188 47.94 44.9324C45.7866 47.158 42.2166 47.3986 37.2866 45.7143C42.84 48.4813 47.1466 47.9399 50.2066 44.0903C50.66 42.2858 51.9633 40.3008 54.06 38.1354C54.0033 38.2557 53.9466 38.3158 53.89 38.4362L54.8533 36.9925C54.6266 36.6316 54.4566 36.2707 54.23 35.9098L46.6933 32.1204L46.4666 35.188L47.7133 33.985L47.09 36.3309L49.6966 34.5264C48.6766 37.3534 48.11 40.4211 46.1266 42.767Z" fill="#778399"/>
<path fill-rule="evenodd" clip-rule="evenodd" d="M18.2466 47.7594L18.8699 49.7443C19.3799 49.9849 19.8899 50.1654 20.3999 50.406L19.0399 47.1579C16.5466 46.1955 14.5633 44.9925 12.9199 43.3684C13.8833 45.1128 15.6966 46.5564 18.2466 47.7594Z" fill="#778399"/>
<path fill-rule="evenodd" clip-rule="evenodd" d="M17.8501 45.4737C18.2468 45.594 18.6434 45.6541 19.0401 45.7143C18.8701 42.1053 17.3968 39.0978 14.6201 36.6316C16.9435 40.0602 18.0201 43.0075 17.8501 45.4737Z" fill="#778399"/>
<path fill-rule="evenodd" clip-rule="evenodd" d="M15.1298 46.7369C13.2032 46.4361 11.9565 46.1354 11.3898 45.8948C10.7098 46.6166 10.2565 47.6391 10.0298 48.9624C9.97317 49.5038 9.9165 49.985 9.9165 50.5264C10.6532 48.7218 11.3332 47.5188 11.9565 46.9173L15.1298 46.7369Z" fill="#778399"/>
<path fill-rule="evenodd" clip-rule="evenodd" d="M10.9932 42.8272C11.8432 41.3836 13.5998 40.6016 16.2065 40.4813L13.8265 39.8196H14.9032C14.2798 38.7369 13.3165 38.5565 12.0698 39.2783C11.6732 40.3009 11.3332 41.5039 10.9932 42.8272Z" fill="#778399"/>
<path fill-rule="evenodd" clip-rule="evenodd" d="M15.1864 43.3683C14.3931 43.1277 13.7698 42.827 13.2598 42.5262C13.7131 42.1653 14.2798 41.9247 15.0164 41.7443C15.1298 42.2255 15.1864 42.7668 15.1864 43.3683ZM16.4898 43.7292C16.3198 43.6691 16.0931 43.6089 15.9231 43.5488C15.9231 42.8871 15.8098 42.2255 15.6964 41.5638C15.8664 41.5638 16.0931 41.5037 16.2631 41.5037C16.4898 42.5262 16.5464 43.248 16.4898 43.7292Z" fill="#071224"/>
<path fill-rule="evenodd" clip-rule="evenodd" d="M13.7134 35.8496L14.62 36.6917C16.7167 38.015 18.0767 39.3985 18.7 40.7819C19.89 42.6466 21.3634 44.03 23.12 44.9323C20.4567 42.6466 18.8134 38.8571 18.19 33.624L13.7134 35.8496Z" fill="#778399"/>
<path fill-rule="evenodd" clip-rule="evenodd" d="M13.7134 35.8495L14.62 36.6916C16.7167 38.0149 18.0767 39.3984 18.7 40.7819C19.4934 42.045 20.4 43.0074 21.42 43.8495C20.1734 42.4661 19.38 41.3834 19.04 40.7217C18.1334 38.5563 16.7167 37.2931 14.96 36.2104C16.5467 34.7668 17.51 33.9849 17.51 33.9849L13.7134 35.8495Z" fill="#D0E1FB"/>
<path fill-rule="evenodd" clip-rule="evenodd" d="M26.9733 15.639C28.22 14.7969 30.1466 14.1954 31.96 13.7744V7.39844C30.09 8.12024 27.54 10.5263 24.2533 14.4962C23.5733 15.8195 22.95 17.3232 22.3833 18.8872L26.9733 15.639Z" fill="#071224"/>
<path fill-rule="evenodd" clip-rule="evenodd" d="M33.8301 15.158C37.2867 15.3385 40.3467 16.6016 43.0667 18.9475C47.3167 22.7369 47.8267 26.8873 44.5967 31.3986C47.4867 28.6317 47.9967 25.3836 46.2401 21.7144C45.1634 19.7896 43.4067 17.7445 40.9701 15.6392L45.6167 18.8873C42.8401 11.3084 38.9867 6.37605 34.0001 4.09033C30.7134 5.59409 27.9367 8.24071 25.6134 12.0302C28.6167 8.18056 31.3367 6.13544 33.8301 5.83469V14.2557C29.1834 14.4362 25.6701 16.6016 23.2334 20.6317C25.7267 16.9024 29.2401 15.0377 33.8301 15.158Z" fill="#778399"/>
<path fill-rule="evenodd" clip-rule="evenodd" d="M33.8301 15.158C37.2868 15.3385 40.3468 16.6016 43.0668 18.9475C45.5034 21.1129 46.6934 23.3986 46.6934 25.8046C47.2601 21.2332 42.3868 17.9249 39.8368 14.6166C42.0468 15.3385 43.6334 16.3009 44.8801 17.0227C42.2168 10.5264 38.5334 6.1956 34.0001 4.09033C35.9268 6.13544 37.1168 7.93996 37.4001 9.44371C36.0401 10.8873 35.3034 11.6091 35.3034 11.6091C37.2301 12.752 38.7034 13.7144 39.6101 14.376C37.5701 13.955 36.5501 13.7144 36.5501 13.7144C38.1368 14.9775 38.8734 15.5791 38.8734 15.5791C35.6434 14.6768 32.5268 14.6768 29.5234 15.6392C30.8834 15.3385 32.3001 15.158 33.8301 15.158Z" fill="#D0E1FB"/>
<path fill-rule="evenodd" clip-rule="evenodd" d="M36.4934 37.8345C38.8734 35.7293 41.8201 35.609 45.2767 37.4736L45.5034 35.0676L44.9934 36.6315C39.9501 34.4661 35.8701 36.2706 32.8101 42.0451C33.7167 40.5413 34.9634 39.1579 36.4934 37.8345Z" fill="#D0E1FB"/>
<path fill-rule="evenodd" clip-rule="evenodd" d="M53.7201 36.3911C51.6234 39.0979 50.2634 41.6242 49.6401 44.0302C47.6001 46.8573 44.4267 47.7595 40.2334 46.8573C44.4267 48.1204 47.7701 47.2182 50.2634 44.0302C50.7167 42.2257 52.0201 40.2407 54.1167 38.0753L53.9467 38.3761L54.9101 36.9325C54.6834 36.5716 54.5134 36.2106 54.2867 35.8497L47.2034 32.2407L53.7201 36.3911Z" fill="#D0E1FB"/>
<path fill-rule="evenodd" clip-rule="evenodd" d="M56.4966 55.7593C54.74 53.7142 52.5866 52.451 50.0366 51.8495C52.3033 52.6315 54.4566 54.436 56.5533 57.263C57.4033 56.3608 58.0266 55.4585 58.31 54.436C58.31 54.436 58.31 54.436 58.31 54.3758C58.2533 50.7668 57.9133 47.639 57.46 44.8721C57.8 49.2029 57.9133 52.2706 57.7433 54.1352C57.3466 54.7367 56.95 55.2781 56.4966 55.7593Z" fill="#D0E1FB"/>
<path fill-rule="evenodd" clip-rule="evenodd" d="M55.6465 50.7067C55.9298 50.5263 56.1565 50.3458 56.3832 50.1052C55.6465 49.0827 54.7398 48.2406 53.6632 47.6992C53.6065 48 53.5498 48.3609 53.4932 48.6015C54.3432 49.203 55.0232 49.9248 55.6465 50.7067ZM51.3965 51.609C52.8698 51.609 54.0598 51.4285 55.0232 51.0075C54.6265 50.2857 54.0032 49.7443 53.2665 49.3834C52.8698 50.3458 52.2465 51.0676 51.3965 51.609Z" fill="#394253"/>
<path fill-rule="evenodd" clip-rule="evenodd" d="M30.77 54.1956L33.83 52.2708L26.6334 52.3911C26.5767 52.3911 26.52 52.3911 26.4634 52.3911C30.09 52.5114 31.96 52.5715 32.0734 52.6317L30.77 54.1956Z" fill="#D0E1FB"/>
<path fill-rule="evenodd" clip-rule="evenodd" d="M30.77 54.1956C36.9467 51.97 41.31 51.6091 43.86 53.0527L42.9534 56.1805L44.0867 54.9174L45.05 52.8723C42.7834 50.767 38.0234 51.2482 30.77 54.1956Z" fill="#D0E1FB"/>
<path fill-rule="evenodd" clip-rule="evenodd" d="M52.1331 56.0602C49.8665 53.0527 48.1098 51.5489 44.0298 54.9173C47.0898 52.8121 49.8098 53.173 52.1331 56.0602Z" fill="#D0E1FB"/>
<path fill-rule="evenodd" clip-rule="evenodd" d="M38.7599 53.7144C37.1166 55.3384 36.3232 56.1204 36.3232 56.1204C37.9666 55.3986 39.1566 54.8572 40.0066 54.4963C39.6666 54.1354 39.2699 53.8948 38.7599 53.7144Z" fill="#394253"/>
<path fill-rule="evenodd" clip-rule="evenodd" d="M51.2834 36.9323L50.8867 39.218C51.2834 38.5564 51.6801 37.9549 52.0201 37.4737L51.2834 36.9323ZM51.4534 35.8496L51.34 36.4511L52.19 37.1128C52.3034 36.9323 52.4167 36.7519 52.53 36.6316C52.5867 36.5714 52.1901 36.3308 51.4534 35.8496Z" fill="#D0E1FB"/>
<path fill-rule="evenodd" clip-rule="evenodd" d="M47.3166 56.4211C46.4666 56.4211 45.6165 56.4211 44.8799 56.5414C45.8432 56.6016 46.6932 56.8422 47.4866 57.2031C47.4866 56.9023 47.4299 56.6617 47.3166 56.4211ZM48.2799 56.4813C48.1099 56.4813 47.9399 56.4813 47.7699 56.4211C47.8832 56.782 47.9965 57.1429 47.9965 57.4437C48.2232 57.564 48.3932 57.6843 48.6199 57.8647C48.5632 57.3234 48.4499 56.8422 48.2799 56.4813Z" fill="#D0E1FB"/>
<path fill-rule="evenodd" clip-rule="evenodd" d="M22.8365 56.3608L25.3298 62.0751C19.7765 61.3533 15.3565 59.9699 12.1265 57.8044C15.2431 60.5112 21.1931 62.6766 29.9765 64.421L22.8365 56.3608Z" fill="#D0E1FB"/>
<path fill-rule="evenodd" clip-rule="evenodd" d="M12.9199 54.8572C16.1499 53.9549 18.1899 53.0526 19.0966 52.1504C19.6066 52.6316 19.8899 52.8722 19.8899 52.8722C18.1333 53.7745 15.8099 54.4361 12.9199 54.8572Z" fill="#071224"/>
<path fill-rule="evenodd" clip-rule="evenodd" d="M19.6066 54.1354C18.0766 55.579 16.15 56.7218 13.8833 57.5038C16.2066 57.0226 18.8133 55.5188 21.76 52.9324C20.23 53.594 18.7566 54.1354 17.3966 54.4963C19.0966 54.1955 19.8333 54.0752 19.6066 54.1354Z" fill="#D0E1FB"/>
<path fill-rule="evenodd" clip-rule="evenodd" d="M28.9002 20.8722L28.6169 20.9925L28.1636 20.5112L28.1069 20.4511H28.0502C27.7669 20.5112 27.5402 20.6316 27.2569 20.6917C27.0869 20.2105 26.9736 19.4285 26.9736 18.9473V18.7669L26.8036 18.8872C26.6336 19.0075 26.3502 19.0676 26.1236 19.1278C25.5002 18.1052 25.3302 16.9624 25.3869 15.8195V15.6992H25.1602V15.8195C24.9336 17.203 25.1036 18.6466 25.9536 19.8496L26.0102 19.9699L26.1236 19.9097C26.2936 19.8496 26.4069 19.7894 26.5769 19.7293C26.6902 20.3308 26.8036 20.9323 26.9169 21.5338L26.9736 21.7143L27.1436 21.6541C27.3702 21.5338 27.5402 21.4135 27.7669 21.2932C27.9936 21.6541 28.2202 22.015 28.5036 22.3759L28.5602 22.4361H28.6736L30.0902 22.0752H32.0169L32.1869 21.6541L28.9002 20.8722Z" fill="#071224"/>
<path fill-rule="evenodd" clip-rule="evenodd" d="M29.07 21.0527L28.6167 21.2332L28.9567 21.7144C28.9567 21.7144 29.75 21.7745 30.0334 21.7745C30.3167 21.7745 31.3934 21.7745 31.3934 21.7745C31.3934 21.7745 31.45 21.5339 31.45 21.5941C31.45 21.6542 30.5434 21.4738 30.5434 21.4738L29.9767 21.3535L29.07 21.0527Z" fill="#1FF0F7"/>
<path fill-rule="evenodd" clip-rule="evenodd" d="M28.6731 21.2331C29.7498 21.594 30.2598 21.7745 30.2598 21.7745C29.0131 22.0752 28.3898 22.2557 28.3898 22.2557C27.8798 21.4737 27.5965 21.0527 27.5965 21.0527C27.0865 21.3534 26.8598 21.4737 26.8598 21.4737C26.6331 20.1504 26.5198 19.4888 26.5198 19.4888C26.1231 19.6692 25.9531 19.7895 25.9531 19.7895C25.2165 18.7068 24.9898 17.3835 25.2165 15.8196C25.1598 17.3233 25.4998 18.406 26.0665 19.2482C26.6898 19.0677 26.8598 18.9474 26.8598 18.9474C26.9731 20.2707 27.1998 20.8722 27.1998 20.8722C27.8231 20.6918 28.1065 20.5715 28.1065 20.5715C28.4465 20.9925 28.6731 21.2331 28.6731 21.2331Z" fill="#1FF0F7"/>
<path fill-rule="evenodd" clip-rule="evenodd" d="M29.1267 21.3535L31.45 21.7144C31.45 21.7144 31.45 21.5941 31.5067 21.5339C31.5067 21.5339 31.5067 21.5339 31.5067 21.4738C31.5067 21.4738 31.3933 21.4738 31.28 21.4738C30.9967 21.4136 30.6 21.3535 30.6 21.3535L30.0333 21.2332L29.07 21.0527H29.0133L28.6733 21.173L29.0133 21.6542L29.1267 21.3535Z" fill="#2F6D92"/>
<path fill-rule="evenodd" clip-rule="evenodd" d="M27.1432 20.8721C26.9732 20.2706 26.8032 19.6089 26.8032 18.9473C26.8599 20.5713 26.8599 21.4134 26.8599 21.4134C27.0866 21.0525 27.1432 20.8721 27.1432 20.8721Z" fill="#2F6D92"/>
<path fill-rule="evenodd" clip-rule="evenodd" d="M26.0098 19.248C26.4065 19.1277 26.6898 19.0074 26.8031 18.9473C26.2365 19.4886 25.9531 19.7292 25.9531 19.7292C26.0098 19.4285 26.0098 19.248 26.0098 19.248Z" fill="#2F6D92"/>
<path fill-rule="evenodd" clip-rule="evenodd" d="M28.39 22.2557C27.88 21.4738 27.5967 21.0527 27.5967 21.0527L28.73 22.1956C28.3333 22.2557 28.39 22.2557 28.39 22.2557Z" fill="#2F6D92"/>
<path fill-rule="evenodd" clip-rule="evenodd" d="M37.5131 20.8722L37.7965 20.9925L38.2498 20.5112L38.3065 20.4511H38.3631C38.6465 20.5112 38.8731 20.6316 39.1565 20.6917C39.3265 20.2105 39.4398 19.4285 39.4398 18.9473V18.7669L39.6098 18.8872C39.7798 19.0075 40.0631 19.0676 40.2898 19.1278C40.9131 18.1052 41.0831 16.9624 41.0265 15.8195V15.6992H41.2531V15.8195C41.4798 17.203 41.3098 18.6466 40.4598 19.8496L40.4031 19.9699V19.8496C40.2331 19.7894 40.1198 19.7293 39.9498 19.6691C39.8365 20.2706 39.7231 20.8722 39.6098 21.4737L39.6665 21.594L39.4965 21.5338C39.2698 21.4135 39.0998 21.2932 38.8731 21.1729C38.6465 21.5338 38.4198 21.8947 38.1365 22.2556L38.0798 22.3158H37.9665L36.5498 21.9549H34.6231L34.4531 21.5338L37.5131 20.8722Z" fill="#071224"/>
<path fill-rule="evenodd" clip-rule="evenodd" d="M37.3434 21.0527L37.7967 21.2332L37.4001 21.7144C37.4001 21.7144 36.6067 21.7745 36.3234 21.7745C36.0401 21.7745 34.9634 21.7745 34.9634 21.7745C34.9634 21.7745 34.9067 21.5339 34.9067 21.5941C34.9067 21.6542 35.8134 21.4738 35.8134 21.4738L36.3801 21.3535L37.3434 21.0527Z" fill="#1FF0F7"/>
<path fill-rule="evenodd" clip-rule="evenodd" d="M37.74 21.2331C36.6633 21.594 36.1533 21.7745 36.1533 21.7745C37.4 22.0752 38.0233 22.2557 38.0233 22.2557C38.5333 21.4737 38.8167 21.0527 38.8167 21.0527C39.3267 21.3534 39.5533 21.4737 39.5533 21.4737C39.78 20.1504 39.8933 19.4888 39.8933 19.4888C40.29 19.6692 40.46 19.7895 40.46 19.7895C41.1967 18.7068 41.4233 17.3835 41.1967 15.8196C41.2533 17.3233 40.9133 18.406 40.3467 19.2482C39.7233 19.0677 39.5533 18.9474 39.5533 18.9474C39.44 20.2707 39.2133 20.8722 39.2133 20.8722C38.59 20.6918 38.3067 20.5715 38.3067 20.5715C37.9667 20.9925 37.74 21.2331 37.74 21.2331Z" fill="#1FF0F7"/>
<path fill-rule="evenodd" clip-rule="evenodd" d="M37.2867 21.3533L34.9634 21.7142C34.9634 21.7142 34.9634 21.5939 34.9067 21.5338C34.9067 21.5338 34.9067 21.5338 34.9067 21.4736C34.9067 21.4736 35.0201 21.4736 35.1334 21.4736C35.4167 21.4135 35.8134 21.3533 35.8134 21.3533L36.3801 21.233L37.2867 20.9924H37.3434L37.6834 21.1127L37.4001 21.7142L37.2867 21.3533Z" fill="#2F6D92"/>
<path fill-rule="evenodd" clip-rule="evenodd" d="M39.27 20.8721C39.44 20.2706 39.61 19.6089 39.61 18.9473C39.5534 20.5713 39.5534 21.4134 39.5534 21.4134C39.3267 21.0525 39.27 20.8721 39.27 20.8721Z" fill="#2F6D92"/>
<path fill-rule="evenodd" clip-rule="evenodd" d="M40.4032 19.248C40.0065 19.1277 39.7232 19.0074 39.6099 18.9473C40.1765 19.4886 40.4599 19.7292 40.4599 19.7292C40.4032 19.4285 40.4032 19.248 40.4032 19.248Z" fill="#2F6D92"/>
<path fill-rule="evenodd" clip-rule="evenodd" d="M38.0231 22.2557C38.5331 21.4738 38.8164 21.0527 38.8164 21.0527L37.6831 22.1956C38.0798 22.2557 38.0231 22.2557 38.0231 22.2557Z" fill="#2F6D92"/>
<path fill-rule="evenodd" clip-rule="evenodd" d="M39.2701 13.2932C37.6835 12.2706 36.8901 11.7293 36.8901 11.7293C37.5701 11.1277 37.9101 10.7668 37.9101 10.7668C38.8168 12.4511 39.2701 13.2932 39.2701 13.2932Z" fill="#394253"/>
<path fill-rule="evenodd" clip-rule="evenodd" d="M34 59.4285H23.97H1.02002V78.5563C22.3834 71.1578 45.6167 71.1578 66.98 78.5563V59.4285H34Z" fill="#071224"/>
<path d="M61.9933 74.8871C61.0867 74.6465 60.4633 74.1653 60.01 73.5036C59.5567 72.842 59.33 72.06 59.33 71.0375C59.8967 70.9172 60.4633 70.7969 61.03 70.6164C61.03 70.9172 61.03 71.2179 61.03 71.5187C61.03 72.3608 61.37 72.842 61.9933 72.9623C62.3333 73.0224 62.56 72.9623 62.6733 72.842C62.8433 72.6615 62.9 72.3608 62.9 71.8796C62.9 71.3382 62.7867 70.7969 62.56 70.3157C62.3333 69.8345 61.9367 69.2931 61.3133 68.6315C60.5767 67.7894 60.0667 67.0676 59.7267 66.4661C59.4433 65.8645 59.2733 65.2029 59.2733 64.4811C59.2733 63.5187 59.5 62.7367 59.9533 62.1954C60.4067 61.654 61.0867 61.3533 61.9933 61.3533C62.8433 61.3533 63.5233 61.654 63.9767 62.2555C64.43 62.857 64.6567 63.7593 64.6567 64.842C64.09 64.9623 63.5233 65.1427 62.9567 65.263C62.9567 65.0224 62.9567 64.7818 62.9567 64.6014C62.9567 64.1202 62.9 63.8194 62.73 63.5788C62.56 63.3382 62.3333 63.2781 62.05 63.2179C61.4267 63.2179 61.1433 63.5788 61.1433 64.4209C61.1433 64.9021 61.2567 65.3232 61.4833 65.7443C61.71 66.1653 62.1067 66.7067 62.73 67.3683C63.4667 68.2104 64.0333 69.0525 64.3167 69.7142C64.6 70.436 64.77 71.2179 64.77 72.06C64.77 73.2029 64.5433 73.9849 64.09 74.4661C63.58 75.0676 62.9 75.1879 61.9933 74.8871ZM55.6467 73.3232C54.74 73.1427 54.1167 72.7818 53.6067 72.1803C53.1533 71.639 52.9267 70.9172 52.9267 70.0149C52.9267 68.8721 52.9267 67.7894 52.9267 66.6465C52.9267 65.5036 52.9267 64.4209 52.9267 63.2781C53.55 62.7367 54.1167 62.1954 54.74 61.5939C54.74 63.0375 54.74 64.5412 54.74 65.9848C54.74 67.4285 54.74 68.9322 54.74 70.3758C54.74 70.7367 54.7967 71.0375 54.9667 71.2781C55.1367 71.4585 55.3633 71.5788 55.6467 71.639C55.93 71.6991 56.1567 71.639 56.3267 71.5187C56.4967 71.3984 56.5533 71.0976 56.5533 70.6766C56.5533 69.1728 56.5533 67.6691 56.5533 66.1052C56.5533 64.6014 56.5533 63.0976 56.5533 61.5337C57.12 61.5337 57.7433 61.5337 58.31 61.5337C58.31 63.0976 58.31 64.6014 58.31 66.1653C58.31 67.7292 58.31 69.233 58.31 70.7969C58.31 71.7593 58.0833 72.4811 57.63 72.9021C57.1767 73.4435 56.4967 73.5036 55.6467 73.3232ZM49.0167 70.6766C49.64 70.7367 49.98 70.436 49.98 69.7743C49.98 68.8119 49.98 67.8495 49.98 66.8871C49.98 65.9247 49.98 64.9623 49.98 63.9999C49.98 63.2781 49.64 62.9773 49.0167 62.9172C48.3933 62.9172 48.0533 63.2179 48.0533 63.8796C48.0533 64.842 48.0533 65.7443 48.0533 66.6465C48.0533 67.5488 48.0533 68.5112 48.0533 69.4134C48.0533 70.1954 48.3933 70.5563 49.0167 70.6766ZM49.0167 72.1202C48.11 71.9999 47.43 71.6991 46.9767 71.1578C46.5233 70.6766 46.2967 70.0149 46.2967 69.233C46.2967 68.3307 46.2967 67.4886 46.2967 66.5864C46.2967 65.6841 46.2967 64.842 46.2967 63.9397C46.2967 63.1578 46.5233 62.4961 46.9767 62.0751C47.43 61.654 48.11 61.4134 49.0167 61.4134C49.9233 61.4134 50.6033 61.654 51.0567 62.1352C51.51 62.6164 51.7367 63.2781 51.7367 64.1803C51.7367 65.1427 51.7367 66.1052 51.7367 67.0074C51.7367 67.9698 51.7367 68.9322 51.7367 69.8345C51.7367 70.6766 51.51 71.3382 51.0567 71.7593C50.5467 72.1803 49.8667 72.2405 49.0167 72.1202ZM37.4567 61.5939C38.3067 61.5939 39.1567 61.5939 40.0633 61.5939C40.2333 62.7367 40.46 63.8796 40.63 64.9623C40.8 66.1052 41.0267 67.248 41.1967 68.3909C41.1967 68.3909 41.1967 68.3909 41.2533 68.3909C41.4233 67.248 41.65 66.1052 41.82 65.0224C41.99 63.8796 42.2167 62.7367 42.3867 61.5939C43.2367 61.5939 44.1433 61.5939 44.9933 61.5939C44.9933 63.2179 44.9933 64.9021 44.9933 66.5262C44.9933 68.1503 44.9933 69.8345 44.9933 71.4585C44.4267 71.3984 43.86 71.3382 43.2933 71.2781C43.2933 70.0751 43.2933 68.8119 43.2933 67.6089C43.2933 66.4059 43.2933 65.1427 43.2933 63.9397C43.2933 63.9397 43.2933 63.9397 43.2367 63.9397C43.01 65.1427 42.7833 66.3458 42.5567 67.5488C42.33 68.7518 42.1033 69.9548 41.8767 71.1578C41.3667 71.0976 40.8567 71.0976 40.3467 71.0375C40.12 69.8345 39.8933 68.6315 39.6667 67.4285C39.44 66.2255 39.2133 65.0224 38.9867 63.8796C38.9867 63.8796 38.9867 63.8796 38.93 63.8796C38.93 65.0826 38.93 66.2255 38.93 67.4285C38.93 68.6315 38.93 69.7743 38.93 70.9773C38.42 70.9773 37.8533 70.9172 37.3433 70.9172C37.3433 69.3533 37.3433 67.7894 37.3433 66.2856C37.4567 64.7217 37.4567 63.1578 37.4567 61.5939ZM32.64 66.8871C32.2433 65.9848 31.9033 65.1427 31.5633 64.2405C31.2233 63.3382 30.8267 62.4961 30.4867 61.5939C31.11 61.5939 31.79 61.5939 32.4133 61.5939C32.64 62.1352 32.81 62.7367 33.0367 63.2781C33.2633 63.8194 33.4333 64.4209 33.66 64.9623C33.66 64.9623 33.66 64.9623 33.7167 64.9623C33.9433 64.4209 34.1133 63.8194 34.34 63.2781C34.5667 62.7367 34.7367 62.1352 34.9633 61.5939C35.53 61.5939 36.1533 61.5939 36.72 61.5939C36.3233 62.4961 35.9833 63.3382 35.6433 64.2405C35.3033 65.1427 34.9067 65.9848 34.5667 66.8871C34.5667 67.5488 34.5667 68.2104 34.5667 68.8721C34.5667 69.5337 34.5667 70.1954 34.5667 70.857C33.9433 70.857 33.3767 70.857 32.7533 70.857C32.7533 70.1954 32.7533 69.5337 32.7533 68.8721C32.64 68.2104 32.64 67.5488 32.64 66.8871ZM23.9133 61.5939C24.65 61.5939 25.4433 61.5939 26.18 61.5939C26.4633 62.5563 26.7467 63.4585 27.0867 64.4209C27.37 65.3833 27.6533 66.2856 27.9933 67.248C27.9933 67.248 27.9933 67.248 28.05 67.248C28.05 66.5262 28.05 65.8646 28.05 65.1427C28.05 64.4209 28.05 63.7593 28.05 63.0375C28.56 62.5563 29.1267 62.0751 29.6933 61.5939C29.6933 63.1578 29.6933 64.7217 29.6933 66.2856C29.6933 67.8495 29.6933 69.4134 29.6933 70.9773C29.07 70.9773 28.4467 71.0375 27.8233 71.0976C27.4833 69.9548 27.0867 68.8119 26.7467 67.7292C26.4067 66.5864 26.01 65.4435 25.67 64.3006C25.67 64.3006 25.67 64.3006 25.6133 64.3006C25.6133 65.4435 25.6133 66.6465 25.6133 67.7894C25.6133 68.9322 25.6133 70.1352 25.6133 71.2781C25.0467 71.3382 24.5367 71.3984 23.97 71.3984C23.97 69.7743 23.97 68.1503 23.97 66.5262C23.9133 64.842 23.9133 63.2179 23.9133 61.5939ZM19.9467 70.4961C20.57 70.436 20.91 70.0751 20.91 69.4134C20.91 68.5112 20.91 67.6089 20.91 66.6465C20.91 65.7443 20.91 64.842 20.91 63.8796C20.91 63.2179 20.6267 62.9172 19.9467 62.9172C19.3233 62.9172 18.9833 63.2781 18.9833 63.9397C18.9833 64.9021 18.9833 65.8044 18.9833 66.7668C18.9833 67.7292 18.9833 68.6315 18.9833 69.5939C18.9833 70.2555 19.3233 70.5563 19.9467 70.4961ZM19.9467 71.9397C19.04 72.06 18.36 71.9397 17.9067 71.5788C17.4533 71.2179 17.17 70.5563 17.17 69.7142C17.17 68.8119 17.17 67.8495 17.17 66.9473C17.17 66.045 17.17 65.0826 17.17 64.1803C17.17 63.3382 17.3967 62.6766 17.9067 62.1954C18.36 61.7142 19.04 61.5337 19.9467 61.5337C20.8533 61.5337 21.5333 61.7743 21.9867 62.1954C22.44 62.6164 22.7233 63.2179 22.7233 63.9999C22.7233 64.842 22.7233 65.7442 22.7233 66.5864C22.7233 67.4285 22.7233 68.3307 22.7233 69.1728C22.7233 69.9548 22.4967 70.6164 21.9867 71.0976C21.5333 71.5187 20.8533 71.8194 19.9467 71.9397ZM10.2567 61.654C10.9933 61.654 11.7867 61.654 12.5233 61.654C12.8067 62.7969 13.09 63.9397 13.43 65.0224C13.7133 66.1052 13.9967 67.1879 14.3367 68.2706C14.3367 68.2706 14.3367 68.2706 14.3933 68.2706C14.3933 67.4285 14.3933 66.5864 14.3933 65.8044C14.3933 64.9623 14.3933 64.1202 14.3933 63.3382C14.9033 62.7969 15.47 62.1954 16.0367 61.654C16.0367 63.4585 16.0367 65.263 16.0367 67.0676C16.0367 68.8721 16.0367 70.6766 16.0367 72.4811C15.4133 72.6014 14.79 72.7217 14.1667 72.842C13.8267 71.5788 13.43 70.2555 13.09 68.9322C12.75 67.6089 12.3533 66.2255 12.0133 64.842C12.0133 64.842 12.0133 64.842 11.9567 64.842C11.9567 66.2255 11.9567 67.6691 11.9567 69.0525C11.9567 70.436 11.9567 71.8796 11.9567 73.263C11.39 73.3833 10.88 73.5036 10.3133 73.6239C10.3133 71.639 10.3133 69.654 10.3133 67.6691C10.2567 65.6239 10.2567 63.639 10.2567 61.654ZM7.02667 70.1352C6.91334 69.1127 6.74334 68.0901 6.63001 67.0074C6.51667 65.9849 6.34667 64.9021 6.23334 63.8796C6.23334 63.8796 6.23334 63.8796 6.17667 63.8796C6.00667 65.263 5.83667 66.6465 5.66667 68.03C5.49667 69.4134 5.32667 70.857 5.15667 72.2405C5.78001 71.5788 6.40334 70.857 7.02667 70.1352ZM5.04334 61.654C5.83667 61.654 6.68667 61.654 7.48001 61.654C7.82001 63.7593 8.10334 65.8044 8.44334 67.8495C8.78334 69.8345 9.06667 71.8194 9.40667 73.8044C8.78334 73.9247 8.21667 74.1052 7.59334 74.2856C7.48001 73.5036 7.36667 72.6615 7.25334 71.8796C7.25334 71.8796 7.25334 71.8796 7.25334 71.9397C6.57334 72.06 5.89334 72.2405 5.21334 72.4209C5.10001 73.3232 4.98667 74.2255 4.87334 75.1277C4.30667 75.3082 3.74001 75.4886 3.17334 75.6089C3.45667 73.2029 3.79667 70.857 4.13667 68.5713C4.42001 66.1653 4.70334 63.8796 5.04334 61.654Z" fill="white"/>
<path fill-rule="evenodd" clip-rule="evenodd" d="M63.4665 68.6918C63.2399 68.3309 62.9565 68.0301 62.7299 67.7294C61.9932 67.4888 61.1999 67.3083 60.4632 67.0677C60.6899 67.3685 60.9165 67.7294 61.1432 67.97C61.8799 68.2707 62.6732 68.4512 63.4665 68.6918ZM64.2599 70.2557C64.2032 70.1354 64.2032 70.0753 64.1465 69.9549C64.0899 69.7745 63.9765 69.594 63.8632 69.4136C63.1265 69.173 62.4465 68.9925 61.7099 68.7519C61.9365 69.0527 62.2199 69.3534 62.4465 69.7143C63.0699 69.8948 63.6365 70.0753 64.2599 70.2557ZM60.8599 70.9174C60.7465 70.9174 60.5765 70.9174 60.4632 70.9174C60.2365 70.9174 59.7265 70.8572 59.5565 71.158C59.1599 71.9399 59.7832 72.782 60.2365 73.3835C60.6899 74.0452 61.3699 74.4662 62.1065 74.6467C62.7299 74.8271 63.4665 74.8873 63.9199 74.4061C64.4865 73.8647 64.5432 72.9023 64.5432 72.1204C64.5432 71.6993 64.4865 71.2181 64.4299 70.7971C63.9199 70.6166 63.4099 70.4963 62.8432 70.3159C63.0699 70.7971 63.1265 71.3384 63.1265 71.8798C63.1265 72.2407 63.0699 72.7219 62.8432 72.9625C62.6165 73.2031 62.2765 73.2632 61.9365 73.1429C61.0865 72.9625 60.8032 72.2407 60.8032 71.4587C60.8599 71.3384 60.8599 71.158 60.8599 70.9174ZM54.5699 66.4061V65.985V65.6843C54.1165 65.564 53.6632 65.5038 53.2099 65.3835V66.1053C53.6065 66.2256 54.1165 66.3459 54.5699 66.4061ZM54.5699 67.7294V67.0076C54.1165 66.8873 53.6632 66.8271 53.2099 66.7068V67.4286C53.6065 67.5489 54.1165 67.6091 54.5699 67.7294ZM56.8365 68.8121V70.7369C56.8365 71.0978 56.7799 71.4587 56.5532 71.6993C56.3265 71.9399 55.9865 71.9399 55.7032 71.8798C55.3632 71.8196 55.0799 71.6993 54.9099 71.3986C54.6832 71.0978 54.6265 70.7369 54.6265 70.376V68.2707C54.1732 68.1504 53.7199 68.0903 53.2665 67.97V69.9549C53.2665 70.6768 53.4365 71.3986 53.8899 72.0001C54.3999 72.6016 55.0232 72.9023 55.7599 73.0828C56.3832 73.2031 57.0632 73.2632 57.5732 72.782C58.0832 72.3008 58.1965 71.5189 58.1965 70.8572V69.0527C57.6865 68.9925 57.2899 68.9324 56.8365 68.8121ZM56.8365 67.4888V68.2106C57.2899 68.3309 57.6865 68.391 58.1399 68.5113V67.7895C57.6865 67.6692 57.2899 67.6091 56.8365 67.4888ZM56.8365 66.2256V66.9474C57.2899 67.0677 57.6865 67.1279 58.1399 67.2482V66.5264C57.6865 66.4061 57.2899 66.2858 56.8365 66.2256ZM46.4665 65.6843V66.4061C46.9199 66.4662 47.3732 66.5264 47.8265 66.5865V65.8647C47.4299 65.7444 46.9765 65.6843 46.4665 65.6843ZM46.4665 64.361V65.0828C46.9199 65.1429 47.3732 65.2031 47.8265 65.2632V64.5414C47.4299 64.4813 46.9765 64.4211 46.4665 64.361ZM51.5665 65.8647V65.1429C51.1132 65.0828 50.6599 64.9625 50.2065 64.9023V65.6241C50.6599 65.6843 51.1132 65.8046 51.5665 65.8647ZM51.5665 67.1279V67.0076V66.4061C51.1132 66.3459 50.6599 66.2256 50.2065 66.1655V66.8271V66.8873C50.6599 67.0076 51.1132 67.0677 51.5665 67.1279ZM49.0732 71.9399C49.6965 72.0602 50.4332 72.0602 50.9432 71.6392C51.4532 71.2181 51.5665 70.5565 51.5665 69.8948V67.7895C51.1132 67.7294 50.6599 67.6091 50.2065 67.5489V69.7745C50.2065 70.5565 49.8099 70.9775 49.0165 70.9174C48.2799 70.7971 47.8832 70.3158 47.8832 69.594V67.2482C47.4299 67.188 46.9765 67.1279 46.5232 67.0677V69.2933C46.5232 69.9549 46.6932 70.6166 47.1465 71.0978C47.6565 71.579 48.3365 71.8196 49.0732 71.9399ZM43.5765 66.6467V67.6091C43.5765 68.7519 43.5765 69.8948 43.5765 71.0978C44.0299 71.158 44.4265 71.158 44.8799 71.2181V66.767C44.4265 66.767 43.9732 66.7068 43.5765 66.6467ZM43.5765 65.3234V66.0452C44.0299 66.1053 44.4265 66.1053 44.8799 66.1655V65.4437C44.4265 65.4437 43.9732 65.3835 43.5765 65.3234ZM43.5765 64.0602V64.782C44.0299 64.8422 44.4265 64.8422 44.8799 64.9023V64.1805C44.4265 64.1204 43.9732 64.1204 43.5765 64.0602ZM42.9532 64.7219C43.0099 64.4813 43.0665 64.2407 43.0665 64.0001C42.7832 64.0001 42.5565 63.9399 42.2732 63.9399C42.2165 64.1805 42.2165 64.4211 42.1599 64.6617C42.4432 64.6617 42.6699 64.7219 42.9532 64.7219ZM42.7265 65.985L42.8399 65.2632C42.5565 65.2632 42.3299 65.2031 42.0465 65.2031L41.9332 65.9249C42.2165 65.9249 42.4432 65.9249 42.7265 65.985ZM39.8365 66.4061C39.8932 66.767 39.9499 67.0677 40.0065 67.4286C40.2332 68.5715 40.4032 69.7143 40.6299 70.8572C41.0265 70.8572 41.4232 70.9174 41.7632 70.9174C41.9899 69.7745 42.1599 68.6316 42.3865 67.5489C42.4432 67.2482 42.4999 66.8873 42.5565 66.5865C42.3299 66.5865 42.0465 66.5264 41.8199 66.5264C41.7065 67.188 41.5932 67.7895 41.4799 68.4512L41.4232 68.6316H41.1965H41.0265L40.9699 68.4512C40.8565 67.7895 40.7432 67.1279 40.6299 66.4662C40.4032 66.4061 40.1199 66.4061 39.8365 66.4061ZM39.5532 65.0226L39.6665 65.7444C39.9499 65.7444 40.2899 65.8046 40.5732 65.8046C40.5165 65.564 40.5165 65.3234 40.4599 65.0828C40.1765 65.0828 39.8932 65.0828 39.5532 65.0226ZM39.3265 63.7595V63.8196C39.3832 64.0602 39.3832 64.2407 39.4399 64.4813C39.7232 64.4813 40.0632 64.5414 40.3465 64.5414L40.2332 63.8196C39.9499 63.7595 39.6665 63.7595 39.3265 63.7595ZM37.7399 66.2858V70.6768C38.1365 70.6768 38.5332 70.7369 38.8732 70.7369C38.8732 69.6542 38.8732 68.5113 38.8732 67.4286V66.3459C38.5332 66.2858 38.1365 66.2858 37.7399 66.2858ZM37.7399 64.9625V65.6843C38.1365 65.6843 38.5332 65.7444 38.8732 65.7444V65.0226C38.5332 64.9625 38.1365 64.9625 37.7399 64.9625ZM37.7399 63.6993V64.4211C38.1365 64.4211 38.5332 64.4813 38.8732 64.4813V63.9399V63.8196C38.5332 63.6993 38.1365 63.6993 37.7399 63.6993ZM35.3032 64.361C35.3032 64.3008 35.3599 64.2407 35.3599 64.1805C35.4165 64.0001 35.5299 63.8196 35.5865 63.6392C35.1899 63.6392 34.7932 63.6392 34.3965 63.6392C34.2832 63.8798 34.2265 64.1204 34.1132 64.361C34.5665 64.3008 34.9632 64.3008 35.3032 64.361ZM32.6399 66.2256L32.8665 66.8271V66.8873V66.9474C32.8665 67.6091 32.8665 68.2707 32.8665 68.9324C32.8665 69.5339 32.8665 70.0752 32.8665 70.6768C33.3199 70.6768 33.7732 70.6768 34.2265 70.6768C34.2265 70.0752 34.2265 69.5339 34.2265 68.9324C34.2265 68.2707 34.2265 67.6091 34.2265 66.9474V66.8873V66.8271C34.2832 66.6467 34.3965 66.4061 34.4532 66.2256C33.8865 66.2256 33.2632 66.2256 32.6399 66.2256ZM32.0732 64.9023C32.1865 65.1429 32.2432 65.3835 32.3565 65.6241C32.9232 65.6241 33.4899 65.6241 33.9999 65.6241C34.2265 65.6241 34.5099 65.6241 34.7365 65.6241C34.8499 65.3835 34.9065 65.1429 35.0199 64.9023C34.6799 64.9023 34.3399 64.9023 33.9432 64.9023H33.8865L33.8299 65.0828L33.7732 65.2031H33.6032C33.6032 65.2031 33.6032 65.2031 33.5465 65.2031H33.3765L33.3199 65.0828L33.2632 64.9023C32.9232 64.9023 32.5265 64.9023 32.0732 64.9023ZM31.5632 63.6392C31.6199 63.8196 31.7332 64.0001 31.7899 64.1805L31.8465 64.361C32.2999 64.361 32.7532 64.361 33.1499 64.361C33.0365 64.1204 32.9799 63.8798 32.8665 63.6392C32.4699 63.6392 32.0165 63.6392 31.5632 63.6392ZM29.4665 64.4211V63.6993C29.0699 63.6993 28.6732 63.7595 28.2765 63.7595V64.4813C28.6732 64.4813 29.0699 64.4211 29.4665 64.4211ZM29.4665 65.6843V64.9625C29.0699 64.9625 28.6732 65.0226 28.2765 65.0226V65.0828V65.7444C28.6732 65.7444 29.0699 65.7444 29.4665 65.6843ZM26.5765 66.4662C26.6899 66.8271 26.8032 67.188 26.9165 67.5489C27.2565 68.6316 27.5965 69.7143 27.9365 70.7971C28.4465 70.7971 28.9565 70.7369 29.4099 70.7369V66.3459C29.0132 66.3459 28.6165 66.4061 28.2199 66.4061V67.2482V67.4888H27.9932C27.9932 67.4888 27.9932 67.4888 27.9365 67.4888H27.7665L27.7099 67.3083C27.5965 67.0076 27.5399 66.7068 27.4265 66.4061C27.1999 66.4662 26.8599 66.4662 26.5765 66.4662ZM26.1799 65.2031L26.4065 65.9249C26.7465 65.9249 27.0299 65.8647 27.3699 65.8647C27.3132 65.6241 27.1999 65.3835 27.1432 65.1429C26.8032 65.1429 26.4632 65.1429 26.1799 65.2031ZM25.4999 64.0001H25.6132C25.6132 64.0001 25.6132 64.0001 25.6699 64.0001H25.8399L25.8965 64.1805L26.0665 64.7219C26.4065 64.7219 26.6899 64.6617 27.0299 64.6617V64.6016L26.8599 64.0001C26.2932 63.8798 25.8965 63.9399 25.4999 64.0001ZM24.1965 66.7068V71.0978C24.5932 71.0377 24.9899 71.0377 25.3865 70.9775C25.3865 69.8948 25.3865 68.7519 25.3865 67.6692V66.5865C24.9899 66.6467 24.5932 66.6467 24.1965 66.7068ZM24.1965 65.3835V66.1053C24.5932 66.0452 24.9899 66.0452 25.3865 65.985V65.2632C24.9899 65.3234 24.5932 65.3234 24.1965 65.3835ZM24.1965 64.1204V64.8422C24.5932 64.782 24.9899 64.782 25.3865 64.7219V64.2407V64.0602C24.9899 64.0001 24.5932 64.0602 24.1965 64.1204ZM17.4532 66.2858V66.9474V67.0076C17.9065 66.9474 18.3599 66.8271 18.8699 66.767V66.0452C18.3599 66.1053 17.9065 66.1655 17.4532 66.2858ZM17.4532 64.9625V65.6843C17.9065 65.6241 18.3599 65.5038 18.8699 65.4437V64.7219C18.3599 64.8422 17.9065 64.9023 17.4532 64.9625ZM22.4965 64.9625V64.2407C22.0432 64.3008 21.5899 64.361 21.0799 64.4211V65.1429C21.5899 65.0828 22.0432 65.0226 22.4965 64.9625ZM22.4965 66.2858V65.564C22.0432 65.6241 21.5899 65.6843 21.0799 65.7444V66.4662C21.5899 66.3459 22.0432 66.2858 22.4965 66.2858ZM19.9465 71.7595C20.6265 71.6392 21.3632 71.4587 21.8732 70.9174C22.3265 70.4362 22.5532 69.8346 22.5532 69.173V66.9474C22.0999 67.0076 21.6465 67.0677 21.1365 67.1279V69.4737C21.1365 70.2557 20.7399 70.6768 20.0032 70.7971C19.2099 70.9174 18.8132 70.4362 18.8132 69.6542V67.3685C18.3599 67.4286 17.9065 67.4888 17.3965 67.6091V69.7143C17.3965 70.3159 17.5099 70.9775 18.0199 71.3986C18.5865 71.8196 19.3232 71.8196 19.9465 71.7595ZM15.7532 65.985V65.2632C15.3565 65.3234 14.9599 65.3835 14.5632 65.5038V65.8046V66.2256C14.9599 66.1655 15.3565 66.0452 15.7532 65.985ZM15.7532 67.2482V67.0076V66.5264C15.3565 66.5865 14.9599 66.6467 14.5632 66.767V67.4888C14.9599 67.4286 15.3565 67.3685 15.7532 67.2482ZM13.1465 68.391C13.2032 68.5113 13.2032 68.6316 13.2599 68.7519C13.5999 70.0151 13.9399 71.2181 14.2799 72.4813C14.7899 72.361 15.2999 72.3008 15.7532 72.1805V67.7895C15.3565 67.8497 14.9599 67.9098 14.5632 68.0301V68.2106V68.391L14.3932 68.4512C14.3932 68.4512 14.3932 68.4512 14.3365 68.4512L14.1665 68.5113L14.1099 68.3309L14.0532 68.2106C13.7699 68.2707 13.4865 68.3309 13.1465 68.391ZM12.8065 67.1279C12.8632 67.3685 12.9199 67.6091 12.9765 67.7895C13.3165 67.7294 13.5999 67.6692 13.9399 67.6091C13.8832 67.3685 13.8265 67.1279 13.7699 66.9474C13.4299 67.0076 13.1465 67.0677 12.8065 67.1279ZM12.4665 65.9249C12.5232 66.1655 12.5799 66.4061 12.6365 66.5865C12.9765 66.5264 13.2599 66.4662 13.5999 66.4061C13.5432 66.1655 13.4865 65.9249 13.4299 65.7444C13.0899 65.8046 12.8065 65.8647 12.4665 65.9249ZM10.4832 68.9925V73.3234C10.8799 73.2632 11.2765 73.1429 11.6732 73.0828C11.6732 71.7595 11.6732 70.376 11.6732 69.0527V68.7519C11.2765 68.8121 10.8799 68.8722 10.4832 68.9925ZM10.4832 67.6692V68.391C10.8799 68.2707 11.2765 68.2106 11.6732 68.0903V67.3685C11.2765 67.4888 10.8799 67.5489 10.4832 67.6692ZM10.4832 66.3459V67.0677C10.8799 66.9474 11.2765 66.8873 11.6732 66.767V66.0452C11.2765 66.1655 10.8799 66.2858 10.4832 66.3459ZM7.25321 69.8346L7.30988 70.1354V70.2557L7.25321 70.3159C6.79988 70.8572 6.28988 71.3986 5.83654 71.9399C6.23321 71.8196 6.68654 71.7595 7.08321 71.6392V71.579H7.47988V71.7595C7.59321 72.4813 7.70654 73.2031 7.76321 73.9249C8.21654 73.8046 8.66988 73.6843 9.17988 73.564C8.95321 72.1805 8.72654 70.7971 8.49988 69.4136C8.10321 69.594 7.64988 69.7143 7.25321 69.8346ZM7.08321 68.5113L7.19654 69.2331C7.59321 69.1128 8.04654 68.9925 8.44321 68.8722L8.32988 68.1504C7.87654 68.3309 7.47988 68.4512 7.08321 68.5113ZM6.91321 67.3083C6.96988 67.5489 6.96988 67.7895 7.02654 68.0301C7.42321 67.9098 7.87654 67.7895 8.27321 67.6692L8.15988 66.9474C7.70654 67.0677 7.30988 67.188 6.91321 67.3083ZM5.43988 68.4512L5.49654 68.0301L5.55321 67.6692C5.15654 67.7895 4.81654 67.9098 4.41988 68.0301L4.36321 68.4512L4.30654 68.8121C4.70321 68.6918 5.04321 68.5715 5.43988 68.4512ZM5.26988 69.7745L5.38321 68.9925C4.98654 69.1128 4.58988 69.2331 4.24988 69.3534L4.13654 70.1354C4.53321 70.0151 4.87321 69.8948 5.26988 69.7745ZM4.98654 72.3008C5.04321 71.6993 5.15654 71.0377 5.21321 70.4362C4.81654 70.5565 4.41988 70.6768 4.02321 70.7971C3.85321 72.3008 3.62654 73.7444 3.45654 75.2482C3.85321 75.1279 4.24988 75.0076 4.70321 74.8873C4.75988 73.985 4.87321 73.1429 4.98654 72.3008Z" fill="#778399"/>
</g>
<defs>
<clipPath id="clip0_97_2508">
<rect width="68" height="80" fill="white"/>
</clipPath>
</defs>
</svg>
