<svg width="99" height="121" viewBox="0 0 99 121" fill="none" xmlns="http://www.w3.org/2000/svg">
<g clip-path="url(#clip0_98_3164)">
<path d="M49.0221 120.773C41.0338 116.841 34.0014 111.093 28.1297 103.682L8.73931 105.951L11.4703 86.5906L0 67.3819L1.43379 66.7769C5.39379 65.0375 9.49034 63.9031 10.5145 63.6006C7.23724 48.5513 7.30552 36.8294 7.30552 36.3756V35.3169L8.26138 35.0144C13.9283 33.3506 21.5752 30.0231 31.0655 24.9563C31.2703 24.5025 31.4752 24.1244 31.68 23.8219C31.68 23.7463 31.68 23.6706 31.68 23.595C31.68 23.3681 31.68 23.0656 31.68 22.8388C31.68 22.3094 31.7483 21.7044 31.8166 21.0994C31.9531 19.965 32.2262 18.9063 32.4993 17.8475C32.6359 17.3181 32.8407 16.8644 32.9772 16.4862C33.1821 15.9569 33.3869 15.5031 33.66 15.0494C33.8648 14.5956 34.1379 14.2175 34.411 13.8394C35.2303 12.705 36.1179 11.9488 36.8007 11.495C37.8248 7.10875 40.6924 5.29375 42.331 4.61313C42.809 3.9325 43.3552 3.25188 43.9697 2.64688C44.4476 2.19313 44.9938 1.815 45.6083 1.5125C45.9497 1.28563 46.291 1.13438 46.6324 0.983125C47.1786 0.75625 47.6566 0.605 48.1345 0.45375L49.5 0L50.9338 0.378125C52.5041 0.831875 55.0986 1.96625 56.669 4.46188C58.3076 5.1425 61.1752 6.9575 62.1993 11.3438C63.2234 12.0244 64.8621 13.4613 66.0228 16.335C66.569 17.6963 66.9786 19.2844 67.1835 20.9481C67.2517 21.5531 67.32 22.1581 67.32 22.6875C67.32 22.99 67.32 23.2169 67.32 23.4438C67.32 23.5194 67.32 23.595 67.32 23.6706C67.5248 23.9731 67.7297 24.3513 67.9345 24.805C77.4248 29.8719 85.0717 33.1994 90.7386 34.8631L91.6945 35.1656V36.2244C91.6945 36.7538 91.7628 48.4 88.4855 63.4494C89.5097 63.7519 93.6062 64.8863 97.5662 66.6256L99 67.2306L87.5297 86.4394L90.2607 105.799L70.8703 103.531C64.9986 110.942 57.9662 116.689 49.9779 120.622L49.5 120.849L49.0221 120.773Z" fill="#00E7FF"/>
<path d="M86.7785 85.3805L97.0882 68.0624C92.7185 66.1718 88.0075 64.8861 88.0075 64.8861C88.0075 64.8861 87.5978 64.8105 86.9833 64.6593C90.602 48.9293 90.4654 36.3755 90.4654 36.3755C83.6378 34.4093 74.762 30.1743 67.0468 26.0149C66.7054 25.2586 66.364 24.6536 66.0909 24.1999C66.0909 23.973 66.0909 23.7461 66.0909 23.5193C66.0909 23.2924 66.0909 23.0655 66.0909 22.763C66.0909 22.2336 66.0226 21.7043 65.9544 21.0993C65.7495 19.4355 65.3399 18.0743 64.862 16.8643C63.7695 14.293 62.2675 12.8561 61.0385 12.2511C60.2192 7.63802 57.2151 6.04989 55.7813 5.59614C54.0061 2.34427 50.1826 1.51239 49.4999 1.43677C49.4999 1.43677 49.4999 1.43677 49.4316 1.43677H49.3633C49.2951 1.43677 49.2951 1.43677 49.2268 1.43677C48.8171 1.51239 48.0661 1.73927 47.1102 2.11739C46.8371 2.26864 46.4958 2.41989 46.1544 2.57114C45.6764 2.87364 45.1985 3.17614 44.7206 3.55427C44.1061 4.08364 43.5599 4.76427 43.082 5.52052C41.6482 6.04989 38.644 7.63802 37.8247 12.1755C37.0737 12.5536 36.1861 13.3099 35.2985 14.4443C35.0937 14.7468 34.8206 15.1249 34.6158 15.503C34.4109 15.8811 34.2061 16.3349 34.0013 16.7886C33.8647 17.1668 33.7282 17.6205 33.5916 17.9986C33.3185 18.9061 33.1137 19.8893 32.9771 20.948C32.9089 21.553 32.8406 22.0824 32.8406 22.6118C32.8406 22.8386 32.8406 23.0655 32.8406 23.368C32.8406 23.5949 32.8406 23.8218 32.8406 24.0486C32.5675 24.5024 32.2261 25.1074 31.8847 25.8636C24.2378 30.0986 15.362 34.3336 8.53438 36.2999C8.53438 36.2999 8.39783 48.8536 12.0164 64.5836L10.9923 64.8105C10.9923 64.8105 6.28128 66.0961 1.91162 67.9868L12.2896 85.3049L12.8358 86.2124L10.2413 104.362L28.6075 102.169C34.0013 109.127 40.8289 115.252 49.4999 119.412C58.1709 115.177 64.9985 109.127 70.324 102.169L88.7585 104.362L86.2323 86.288L86.7785 85.3805Z" fill="#1B1464"/>
<path d="M10.9243 80.8433L10.5146 82.4314L13.7236 87.8764L19.254 83.717L17.8884 81.2214L10.9243 80.8433Z" fill="black"/>
<path d="M88.0762 80.8433L88.4859 82.4314L85.2769 87.8764L79.7466 83.717L81.1121 81.2214L88.0762 80.8433Z" fill="black"/>
<path d="M10.1729 37.283C10.1729 37.283 32.4991 28.1324 49.7046 18.1499C49.7046 18.1499 80.3604 35.0143 88.7584 37.283C88.7584 37.283 92.5135 91.5061 49.4315 117.143C49.4315 117.143 13.2453 101.489 10.1729 37.283Z" fill="#357584"/>
<path d="M80.9069 83.717C90.6704 60.5001 90.4655 36.3757 90.4655 36.3757C75.0352 31.9138 49.5 15.8813 49.5 15.8813C49.5 15.8813 23.9649 31.8382 8.53451 36.3001C8.53451 36.3001 8.32968 60.4245 18.0931 83.6413L12.9042 85.3051L10.2414 104.363L28.6076 102.169C34.0014 109.127 40.829 115.253 49.5 119.412C58.1711 115.177 64.9987 109.127 70.3242 102.169L88.7587 104.363L86.0959 85.3807L80.9069 83.717ZM15.089 54.9038L13.1773 55.0551C13.1773 55.0551 11.4704 44.3163 11.8118 38.5688C11.8118 38.5688 35.0255 29.5695 47.8614 21.0238C48.4076 20.6457 49.0221 20.2676 49.5 19.8895C50.0462 20.2676 50.5924 20.6457 51.1387 21.0238C63.9745 29.5695 87.1883 38.5688 87.1883 38.5688C87.5297 44.3163 85.8228 55.0551 85.8228 55.0551L83.9111 54.9038C85.4814 48.7782 85.4814 39.8545 85.4814 39.8545C71.5531 35.317 52.9138 24.1245 50.0462 22.3851C49.978 22.3095 49.8414 22.3095 49.8414 22.2338L49.7049 22.1582L49.5 22.007L49.2952 22.1582L49.1587 22.3095C49.0904 22.3095 49.0221 22.3851 48.9538 22.4607C46.0862 24.2001 27.4469 35.3926 13.5186 39.9301C13.5186 39.9301 13.5869 48.7782 15.089 54.9038ZM13.3821 100.884L14.9524 87.8763L17.6835 87.5738L16.7276 97.632L25.4669 99.8251L13.3821 100.884ZM49.5 114.799C49.5 114.799 39.6683 110.413 33.3869 102.926C33.7283 103.153 44.1745 109.732 49.5 111.32C54.8255 109.808 65.2718 103.153 65.6131 102.926C59.3318 110.337 49.5 114.799 49.5 114.799ZM49.5 92.187C35.1621 92.187 19.7318 94.6826 19.7318 94.6826L20.5511 84.7001C38.3028 82.7338 49.5 82.7338 49.5 82.7338C49.5 82.7338 60.6973 82.7338 78.449 84.7001L79.2683 94.6826C79.2683 94.6826 63.838 92.187 49.5 92.187ZM73.6014 99.8251L82.3407 97.632L81.3849 87.5738L84.1159 87.8763L85.6862 100.884L73.6014 99.8251Z" fill="black"/>
<path d="M49.5 98.3125L50.5924 100.884L53.1186 101.337L51.3434 103.304L51.7531 106.102L49.5 104.816L47.2469 106.102L47.6565 103.304L45.8813 101.337L48.4076 100.884L49.5 98.3125Z" fill="#E6E6E6"/>
<path d="M70.7335 100.884C68.9583 99.6736 58.4439 92.8673 49.4997 92.8673C40.5556 92.8673 30.0411 99.7492 28.2659 100.884L11.7432 102.85L13.9963 86.5148L19.1852 84.7755L19.3901 83.1117C22.1211 82.5067 31.9528 80.7673 49.4997 80.7673C67.0466 80.7673 76.8783 82.5823 79.6094 83.1117L79.8142 84.7755L85.0032 86.5148L87.2563 102.85L70.7335 100.884Z" fill="#357584"/>
<path d="M86.0957 85.3805L80.9067 83.7168L80.7019 81.9774C80.7019 81.9774 70.5971 78.3474 49.295 78.3474C27.9247 78.3474 18.2978 81.9774 18.2978 81.9774L18.0929 83.7168L12.904 85.3805L10.2412 104.362L28.6074 102.169C28.6074 102.169 40.0778 94.153 49.4998 94.153C58.8536 94.153 70.3922 102.169 70.3922 102.169L88.7585 104.362L86.0957 85.3805ZM13.3819 100.884L14.9522 87.8762L17.6833 87.5737L16.7274 97.6318L25.4667 99.8249L13.3819 100.884ZM49.4998 91.6574C35.1619 91.6574 19.7316 94.6068 19.7316 94.6068L20.5509 84.6243C37.0053 81.6749 42.1943 81.7505 49.4998 81.8262C56.7371 81.9018 60.6288 81.9774 78.4488 84.6243L79.2681 94.6068C79.2681 94.6824 63.8378 91.6574 49.4998 91.6574ZM73.6012 99.8249L82.3405 97.6318L81.3847 87.5737L84.1157 87.8762L85.686 100.884L73.6012 99.8249Z" fill="black"/>
<path d="M34.684 86.4394C34.684 86.2125 34.6158 85.91 34.6158 85.6831C33.3185 85.8344 31.953 85.9856 30.6558 86.1369C30.7923 87.2712 30.8606 88.4056 30.9971 89.4644C32.2944 89.3131 33.5916 89.1619 34.8889 89.0106C34.8889 88.7837 34.8206 88.4812 34.8206 88.2544C33.7965 88.33 32.7723 88.4812 31.7482 88.5569C31.7482 88.33 31.6799 88.1787 31.6799 87.9519C32.5675 87.8762 33.4551 87.725 34.3427 87.6494C34.3427 87.4225 34.2744 87.1956 34.2744 86.8931C33.3868 86.9687 32.4992 87.0444 31.6116 87.1956C31.6116 87.0444 31.6116 86.8175 31.5433 86.6662C32.6358 86.6662 33.6599 86.515 34.684 86.4394Z" fill="white"/>
<path d="M41.102 86.8173C40.8972 86.5904 40.6241 86.5148 40.2827 86.5148C40.0779 86.5148 39.7365 86.5148 39.2586 86.5904C38.7806 86.5904 38.5075 86.666 38.2344 86.666C38.1661 86.666 38.0979 86.666 38.0296 86.5904C37.9613 86.5148 37.9613 86.5148 37.9613 86.4392C37.9613 86.3635 37.9613 86.2879 38.0296 86.2879C38.0979 86.2123 38.1661 86.2123 38.2344 86.2123C38.8489 86.1367 39.4634 86.1367 40.0779 86.061C40.1461 86.061 40.2144 86.061 40.2827 86.1367C40.351 86.2123 40.351 86.2123 40.351 86.2879C40.6241 86.2879 40.8972 86.2879 41.2386 86.2123C41.2386 85.9098 41.102 85.6829 40.8972 85.5317C40.6924 85.3804 40.4192 85.2292 40.1461 85.3048C39.4634 85.3804 38.7806 85.3804 38.0979 85.456C37.8248 85.456 37.5517 85.6073 37.3468 85.8342C37.142 86.061 37.0737 86.2879 37.0737 86.5904C37.0737 86.8929 37.2103 87.1198 37.4151 87.271C37.6199 87.4223 37.893 87.4979 38.1661 87.4979C38.8489 87.4223 39.5317 87.4223 40.2144 87.3467C40.2827 87.3467 40.351 87.3467 40.4192 87.4223C40.4875 87.4979 40.4875 87.5735 40.4875 87.6492C40.4875 87.7248 40.4875 87.8004 40.4192 87.876C40.351 87.9517 40.2827 87.9517 40.2144 87.9517C39.5317 88.0273 38.9172 88.0273 38.2344 88.1029C38.1661 88.1029 38.0979 88.1029 38.0296 88.0273C37.9613 87.9517 37.9613 87.876 37.893 87.8004C37.6199 87.8004 37.3468 87.876 37.0737 87.876C37.0737 88.1785 37.2103 88.4054 37.4151 88.5567C37.6199 88.7079 37.893 88.8592 38.1661 88.7835C38.8489 88.7079 39.5999 88.7079 40.2827 88.6323C40.5558 88.6323 40.8289 88.481 41.0337 88.2542C41.2386 88.0273 41.3068 87.8004 41.3068 87.4979C41.4434 87.1954 41.3068 86.9685 41.102 86.8173Z" fill="white"/>
<path d="M47.9298 85.5318C47.7932 85.3805 47.6567 85.2293 47.4519 85.078C47.247 85.0024 47.0422 84.9268 46.8374 84.9268C45.745 84.9268 44.7208 85.0024 43.6284 85.0024C43.6284 86.1368 43.6967 87.2711 43.6967 88.4055C43.9698 88.4055 44.2429 88.4055 44.5843 88.4055C44.5843 87.498 44.516 86.6661 44.516 85.7586C45.267 85.7586 46.0181 85.683 46.7691 85.683C46.9057 85.683 46.9739 85.683 47.1105 85.7586C47.1788 85.8343 47.247 85.9099 47.247 86.0611C47.247 86.2124 47.1788 86.288 47.1105 86.3636C47.0422 86.4393 46.9057 86.5149 46.8374 86.5149C46.3595 86.5149 45.8815 86.5149 45.4036 86.5149C45.4036 86.7418 45.4036 87.0443 45.4036 87.2711C45.8815 87.2711 46.3594 87.2711 46.9057 87.2711C47.1105 87.2711 47.3153 87.1955 47.5201 87.1199C47.725 87.0443 47.8615 86.893 47.9298 86.6661C48.0663 86.5149 48.0663 86.288 48.0663 86.0611C48.1346 85.9099 48.0663 85.7586 47.9298 85.5318Z" fill="white"/>
<path d="M54.7569 85.3806C54.5521 85.1537 54.3473 85.0781 54.0059 85.0781C53.1866 85.0781 52.299 85.0024 51.4797 85.0024C51.2066 85.0024 50.9335 85.0781 50.7287 85.3049C50.5238 85.5318 50.4556 85.7587 50.4556 85.9856C50.4556 86.4393 50.4556 86.8931 50.4556 87.4224C50.4556 87.7249 50.5238 87.9518 50.7287 88.1031C50.9335 88.3299 51.1383 88.4056 51.4797 88.4056C52.299 88.4056 53.1183 88.4056 53.9376 88.4812C54.2107 88.4812 54.4838 88.4056 54.6887 88.1787C54.8935 88.0274 55.03 87.8006 55.03 87.4981C55.03 87.0443 55.03 86.5906 55.0983 86.0612C55.03 85.7587 54.9618 85.5318 54.7569 85.3806ZM54.1425 87.2712C54.1425 87.3468 54.0742 87.4981 54.0059 87.5737C53.9376 87.6493 53.8011 87.6493 53.7328 87.6493C53.05 87.6493 52.4356 87.6493 51.7528 87.5737C51.6163 87.5737 51.548 87.4981 51.4797 87.4224C51.4114 87.3468 51.3431 87.2712 51.3431 87.1199C51.3431 86.7418 51.3431 86.3637 51.3431 86.0612C51.3431 85.9099 51.4114 85.8343 51.4797 85.7587C51.548 85.6831 51.6845 85.6074 51.7528 85.6074C52.4356 85.6074 53.1183 85.6074 53.7328 85.6831C53.8694 85.6831 53.9376 85.7587 54.0059 85.8343C54.0742 85.9099 54.1425 85.9856 54.1425 86.1368C54.1425 86.5149 54.1425 86.8931 54.1425 87.2712Z" fill="white"/>
<path d="M60.6289 87.4979C60.902 87.4979 61.1751 87.4223 61.3799 87.1954C61.5848 87.0442 61.7213 86.8173 61.7213 86.5148C61.7213 86.2123 61.653 85.9854 61.4482 85.7586C61.2434 85.5317 60.9703 85.3804 60.6972 85.3804C59.673 85.3048 58.5806 85.2292 57.5565 85.1536C57.4882 86.2879 57.4882 87.4223 57.4199 88.5567C57.693 88.5567 57.9661 88.5567 58.3075 88.6323C58.3758 87.7248 58.3758 86.8929 58.4441 85.9854C59.1951 86.0611 59.8779 86.0611 60.6289 86.1367C60.6972 86.1367 60.8337 86.2123 60.902 86.2123C60.9703 86.2879 60.9703 86.3636 60.9703 86.4392C60.9703 86.5148 60.902 86.5904 60.8337 86.6661C60.7654 86.7417 60.6972 86.7417 60.5606 86.7417C60.0827 86.7417 59.6047 86.6661 59.1951 86.6661C59.1951 86.8929 59.1951 87.1954 59.1268 87.4223C59.3316 87.4223 59.5365 87.4223 59.8096 87.4979C60.0827 87.9517 60.4241 88.3298 60.6972 88.7836C61.0385 88.7836 61.3799 88.8592 61.7213 88.8592C61.2434 88.4054 60.902 87.9517 60.6289 87.4979Z" fill="white"/>
<path d="M64.1108 85.6831C64.1108 85.91 64.0425 86.2125 64.0425 86.4394C64.5887 86.515 65.1349 86.515 65.6811 86.5906C65.6128 87.4981 65.5445 88.33 65.4763 89.2375C65.7494 89.2375 66.0225 89.3131 66.3639 89.3131C66.4321 88.4812 66.5004 87.5737 66.5687 86.7419C67.1149 86.8175 67.6611 86.8931 68.2073 86.9687C68.2073 86.7419 68.2756 86.4394 68.2756 86.2125C66.9101 85.9856 65.5445 85.8344 64.1108 85.6831Z" fill="white"/>
<path d="M24.4425 87.3468L19.117 88.1787L18.9805 86.7418L24.5791 85.9099L24.4425 87.3468Z" fill="black"/>
<path d="M24.4425 89.7669L19.117 90.5231L18.9805 89.0863L24.5791 88.2544L24.4425 89.7669Z" fill="black"/>
<path d="M24.4425 92.1111L19.117 92.8674L18.9805 91.4305L24.5791 90.5986L24.4425 92.1111Z" fill="black"/>
<path d="M74.557 87.3468L79.8825 88.1787L80.019 86.7418L74.4204 85.9099L74.557 87.3468Z" fill="black"/>
<path d="M74.557 89.7669L79.8825 90.5231L80.019 89.0863L74.4204 88.2544L74.557 89.7669Z" fill="black"/>
<path d="M74.557 92.1111L79.8825 92.8674L80.019 91.4305L74.4204 90.5986L74.557 92.1111Z" fill="black"/>
<path d="M49.5001 94.002C36.9373 94.0776 27.9932 96.5732 27.9932 96.5732C35.2987 95.2119 42.809 94.8338 49.5001 94.8338C56.1911 94.7582 63.7014 95.2119 71.007 96.5732C71.007 96.4976 62.0628 94.002 49.5001 94.002Z" fill="#00E7FF"/>
<path d="M97.0883 68.0625C92.7186 66.1719 88.0076 64.8863 88.0076 64.8863C88.0076 64.8863 80.0876 62.8444 75.991 62.4663C75.7179 62.3906 75.5131 62.3906 75.24 62.315L74.6255 62.2394L73.6696 62.0881L72.782 61.9369L72.1676 61.8613C69.6414 61.4831 67.1152 61.1806 64.5889 60.9538V60.8781L62.3358 60.7269L61.1752 60.6513H60.9703C59.6731 60.5756 58.4441 60.5 57.1469 60.4244H56.8738H55.7814H55.2352H54.3476C53.2552 60.4244 52.0945 60.3488 51.002 60.3488H48.5441V60.8025C47.1103 60.4244 45.6765 60.1975 44.3793 60.1975C44.2427 60.1975 44.1062 60.1975 43.9696 60.1975C42.331 60.2731 41.102 60.5756 40.0779 61.2563C39.3269 61.71 38.3027 62.6931 37.6883 64.4325C37.5517 63.9788 37.4834 63.525 37.3469 63.0713L36.8007 60.8781L34.7524 61.0294C32.7041 61.1806 30.6558 61.4831 28.6758 61.71L26.6276 61.7856L26.4227 64.0544C26.4227 64.2056 26.4227 64.2813 26.4227 64.4325L26.0814 61.8613L23.6234 62.2394C22.531 62.3906 21.3703 62.6175 20.2779 62.8444L19.2538 63.0713L18.571 63.2225L17.8883 63.3738L16.8641 63.6006C15.7717 63.8275 14.6793 64.0544 13.5186 64.3569L11.0607 64.9619C11.0607 64.9619 6.34964 66.2475 1.97998 68.1381L12.3579 85.4563L14.4745 83.1875L16.9324 82.5825C17.9565 82.3556 18.9124 82.1288 19.9365 81.9019L21.5069 81.5994L23.0772 81.2969C24.1014 81.07 25.1255 80.9188 26.1496 80.7675L27.3103 80.5406L28.471 80.3894C29.4952 80.2381 30.5193 80.0869 31.5434 79.9356L33.3869 79.7088L35.2986 79.4819C36.3227 79.4063 37.3469 79.255 38.371 79.1794L41.3752 78.9525L41.2386 78.4988C42.1262 78.8769 43.1503 79.1038 44.3793 79.1038C44.5158 79.1038 44.6524 79.1038 44.7889 79.1038C45.8814 79.1038 47.1103 78.8769 48.4758 78.5744V78.8013H50.9338C51.9579 78.8013 52.982 78.8013 54.0062 78.8769L55.1669 78.9525L56.4641 79.0281C57.6248 79.1038 58.7855 79.1794 59.9462 79.255L61.1752 79.3306L62.4041 79.4063C64.9986 79.6331 67.5248 79.9356 70.1193 80.3138L71.5531 80.5406L72.9186 80.7675C73.9427 80.9188 74.8986 81.1456 75.9227 81.2969L77.0834 81.5238L78.2441 81.7506C79.3365 81.9775 80.4289 82.2044 81.5214 82.5069L84.7986 83.2631V83.1875L86.7786 85.305L97.0883 68.0625Z" fill="black"/>
<path d="M49.4999 78.877C33.8647 78.9526 22.6675 81.4482 22.6675 81.4482C31.8164 80.0869 41.1702 79.7088 49.4999 79.7088C57.8295 79.6332 67.1833 80.0869 76.3323 81.4482C76.3323 81.3726 65.1351 78.877 49.4999 78.877Z" fill="#E6E6E6"/>
<path d="M84.8668 61.0294C84.0475 62.2394 80.4972 63.0713 78.3806 63.4494C76.2641 63.8275 74.1475 63.4494 72.4406 63.9788C70.802 64.4325 66.7737 65.34 65.4765 65.1131C64.2475 64.8863 63.4965 64.4325 63.4965 64.4325C63.4965 64.4325 59.9462 64.8863 59.1268 64.735C58.3075 64.5838 49.4317 64.735 49.4317 64.735C49.4317 64.735 40.6241 64.5838 39.7365 64.735C38.9172 64.8863 35.3668 64.4325 35.3668 64.4325C35.3668 64.4325 34.6158 64.8863 33.3868 65.1131C32.1579 65.34 28.1296 64.4325 26.4227 63.9788C24.7841 63.525 22.6675 63.8275 20.4827 63.4494C18.3661 63.0713 14.8158 62.2394 13.9965 61.0294C13.1772 59.8194 12.4261 55.9625 12.7675 53.845C13.1089 51.7275 15.9765 46.6606 16.3861 45.7531C16.7958 44.8456 17.5468 43.56 18.3661 41.5181C18.9124 40.0813 20.551 38.8713 21.5068 38.2663C21.5068 37.6613 21.5751 37.0563 21.7117 36.6025C22.531 33.6531 30.2461 31.6113 30.2461 31.6113C30.451 28.435 31.953 25.6369 32.7724 24.2756C32.7041 23.4438 32.7724 22.4606 32.9089 21.2506C33.5917 15.9569 36.0496 13.31 37.8248 12.4025C38.6441 7.78938 41.6482 6.20126 43.082 5.74751C44.8572 2.49563 48.6806 1.66376 49.3634 1.58813C49.3634 1.58813 49.3634 1.58813 49.4317 1.58813C49.4999 1.58813 49.4999 1.58813 49.4999 1.58813C50.1827 1.73938 54.0061 2.57126 55.7813 5.74751C57.2151 6.27688 60.2193 7.86501 61.0386 12.4025C62.8137 13.2344 65.2717 15.8813 65.9544 21.175C66.091 22.3094 66.1593 23.3681 66.091 24.2C66.9103 25.5613 68.4124 28.3594 68.6172 31.5356C68.6172 31.5356 76.3324 33.5775 77.1517 36.5269C77.2882 37.0563 77.3565 37.5856 77.3565 38.1906C78.3124 38.7956 79.951 40.0056 80.4972 41.4425C81.2482 43.4844 81.9993 44.8456 82.4089 45.6775C82.8186 46.5094 85.6862 51.6519 86.0275 53.7694C86.4372 55.8869 85.7544 59.8194 84.8668 61.0294Z" fill="#357584"/>
<path d="M49.295 17.5449C49.295 17.5449 46.9054 22.3093 45.7447 23.4437C44.584 24.6537 40.4874 28.5105 40.9654 31.0818C41.4433 33.653 43.4916 39.7787 43.6964 40.5349C43.9012 41.2912 49.295 44.9968 49.295 44.9968C49.295 44.9968 54.7571 42.4255 55.4398 40.3837C56.1909 38.3418 58.2391 31.0818 58.2391 31.0818C58.2391 31.0818 56.6005 25.9393 55.0302 24.8049C53.4598 23.6705 49.295 17.5449 49.295 17.5449Z" fill="#38484C"/>
<path d="M42.6039 43.2576C42.6039 43.2576 38.439 40.6107 37.8246 38.1907C37.2101 35.695 38.8487 24.5025 39.1901 23.5194C39.5997 22.5363 40.9652 18.4525 42.6721 17.545C44.379 16.6375 47.9294 15.5032 47.9294 15.5032C47.9294 15.5032 48.7487 17.0913 48.2025 19.0575C47.6563 21.0238 45.6763 23.2925 43.6963 25.0319C41.7846 26.8469 40.0094 30.0988 41.2383 32.8213C42.399 35.5438 42.6721 35.8463 42.8087 37.5857C43.0135 39.3251 42.6039 43.2576 42.6039 43.2576Z" fill="#024C4A"/>
<path d="M56.6003 43.2576C56.6003 43.2576 60.7652 40.6107 61.3797 38.1907C61.9941 35.695 60.3555 24.5025 60.0141 23.5194C59.6045 22.5363 58.239 18.4525 56.5321 17.545C54.8252 16.6375 51.2748 15.5032 51.2748 15.5032C51.2748 15.5032 50.4555 17.0913 51.0017 19.0575C51.5479 21.0238 53.5279 23.2925 55.5079 25.0319C57.4197 26.8469 59.1948 30.0988 57.9659 32.8213C56.8052 35.5438 56.5321 35.8463 56.3955 37.5857C56.1907 39.3251 56.6003 43.2576 56.6003 43.2576Z" fill="#024C4A"/>
<path d="M37.074 49.0807C37.074 49.0807 35.9815 48.2489 35.5036 48.4757C35.0257 48.7026 34.8891 50.5176 34.4795 51.3495C34.1381 52.1057 32.4995 51.7276 31.6119 53.6182C30.7243 55.5089 30.1098 60.9539 32.0898 61.8614C34.0698 62.7689 39.1222 63.752 40.0781 63.5251C41.034 63.2982 43.0822 60.5001 43.2871 59.2145C43.4919 57.9289 43.6284 55.1307 42.7409 54.6014C41.8533 54.072 37.6884 54.677 37.3471 53.6182C37.0057 52.5595 37.2105 49.6101 37.074 49.0807Z" fill="#0C343D"/>
<path d="M61.9265 49.0807C61.9265 49.0807 63.0189 48.2489 63.4968 48.4757C63.9748 48.7026 64.1113 50.5176 64.521 51.3495C64.8623 52.1057 66.501 51.7276 67.3886 53.6182C68.2761 55.5089 68.8906 60.9539 66.9106 61.8614C64.9306 62.7689 59.8782 63.752 58.9223 63.5251C57.9665 63.2982 55.9182 60.5001 55.7134 59.2145C55.5086 57.9289 55.372 55.1307 56.2596 54.6014C57.1472 54.072 61.312 54.677 61.6534 53.6182C61.9948 52.5595 61.7899 49.6101 61.9265 49.0807Z" fill="#0C343D"/>
<path d="M68.4125 32.9724C68.1394 30.4768 66.6374 28.3593 65.9546 26.0149C65.067 22.7631 65.6132 18.9062 63.7015 16.2593C62.8822 15.1249 61.5849 14.3687 60.9022 13.0831C60.0829 11.7218 59.9463 9.98243 59.0587 8.69681C58.4443 7.86493 57.5567 7.33556 56.6691 7.03306C56.0546 6.80618 55.4401 6.57931 55.167 6.04993C54.9622 5.67181 54.8939 5.21806 54.7574 4.83993C54.416 3.85681 53.4601 3.32743 52.5725 2.94931C52.436 2.87368 52.2312 2.79806 52.0946 2.72243C51.4801 2.34431 50.7291 2.11743 49.978 2.11743C49.8415 2.11743 49.7049 2.11743 49.5001 2.11743C49.3636 2.11743 49.227 2.11743 49.0222 2.11743C48.2712 2.11743 47.5884 2.34431 46.9056 2.72243C46.7691 2.79806 46.5643 2.87368 46.4277 2.94931C45.5401 3.32743 44.5843 3.85681 44.2429 4.83993C44.1063 5.21806 44.038 5.74743 43.8332 6.04993C43.4918 6.57931 42.8774 6.80618 42.3312 7.03306C41.4436 7.41118 40.556 7.86493 39.9415 8.69681C39.0539 9.98243 38.8491 11.7218 38.098 13.0831C37.347 14.2931 36.118 15.0493 35.2987 16.2593C33.387 18.9062 34.0015 22.7631 33.0456 26.0149C32.3629 28.4349 30.8608 30.4768 30.5877 32.9724C30.3829 34.6362 30.7925 36.2243 31.5436 37.6612C32.0898 38.7199 33.5918 41.1399 34.8208 41.3668C36.3912 41.5937 34.8208 38.9468 34.5477 38.1149C33.8649 36.2243 33.5236 34.1824 33.387 32.2162C33.387 31.6868 33.4553 30.9306 33.9332 30.8549C34.138 30.8549 34.3429 30.9306 34.5477 30.8549C35.0256 30.7793 35.1622 29.9474 35.0939 29.4181C34.9574 26.1662 35.367 22.9143 36.3912 19.8893C36.4594 19.7381 36.5277 19.5868 36.6643 19.5112C37.0056 19.3599 37.2105 19.8893 37.347 20.2674C37.4153 20.6456 37.8932 21.0993 38.098 20.7968C38.8491 17.7718 39.7367 14.8224 40.8974 11.9487C41.0339 11.7974 41.307 11.9487 41.4436 12.1756C41.5801 12.4024 41.5801 12.6293 41.6484 12.8562C41.8532 13.2343 42.3312 13.3856 42.7408 13.2343C43.1505 13.0831 43.4236 12.7049 43.6967 12.4024C44.8574 11.1168 46.0181 9.67993 47.3153 8.62118C48.6125 7.56243 50.3877 7.56243 51.7532 8.62118C53.0505 9.67993 54.2794 11.0412 55.3718 12.4024C55.6449 12.7049 55.9863 13.0831 56.3277 13.2343C56.7374 13.3856 57.2153 13.3099 57.4201 12.8562C57.5567 12.6293 57.5567 12.4024 57.6249 12.1756C57.7615 11.9487 58.0346 11.7974 58.1711 11.9487C59.2636 14.8224 60.2194 17.7718 60.9705 20.7968C61.1753 21.0993 61.5849 20.6456 61.7215 20.2674C61.7898 19.8893 62.0629 19.3599 62.4043 19.5112C62.5408 19.5868 62.6091 19.7381 62.6774 19.8893C63.7015 22.9143 64.1111 26.1662 63.9746 29.4181C63.9746 30.0231 64.0429 30.7793 64.5208 30.8549C64.7256 30.8549 64.9305 30.7793 65.1353 30.8549C65.6132 30.9306 65.7498 31.6868 65.6815 32.2162C65.5449 34.2581 65.2036 36.2243 64.5208 38.1149C64.2477 38.9468 62.6774 41.5937 64.2477 41.3668C65.4767 41.1399 66.9787 38.7199 67.5249 37.6612C68.1394 36.2243 68.5491 34.5606 68.4125 32.9724Z" fill="#0C343D"/>
<path d="M31.8846 63.6762C31.8163 62.693 31.2019 61.7855 30.4508 61.483C29.9729 61.3318 29.495 61.2562 29.0853 60.9537C28.6074 60.5755 28.4025 59.8949 28.0612 59.3655C27.9929 59.2143 27.7881 58.9874 27.6515 59.063C27.5832 59.063 27.515 59.1387 27.515 59.2143C27.1736 59.668 27.4467 60.3487 27.6515 60.878C27.8563 61.4074 27.9246 62.1637 27.515 62.4662C27.1736 61.4074 26.4908 60.4999 25.6032 60.0462C25.1253 59.8193 24.4425 59.5924 24.306 58.9874C24.1694 58.5337 24.3743 58.0043 24.6474 57.6262C24.9205 57.248 25.1936 56.7943 25.2619 56.3405C25.2619 56.1893 25.2619 56.038 25.1936 55.9624C25.1253 55.8868 24.9888 55.8868 24.8522 55.8868C23.4184 55.8868 21.9163 55.9624 20.4826 55.9624C20.0729 55.9624 19.6632 55.9624 19.3219 55.8112C18.9805 55.6599 18.6391 55.2062 18.7074 54.7524C18.7074 54.5255 18.8439 54.223 18.7074 53.9962C18.6391 53.9205 18.5026 53.9205 18.4343 53.8449C18.0929 53.8449 17.7515 53.8449 17.4784 53.8449C17.3419 53.618 17.2736 53.2399 17.2736 52.9374C17.2736 52.2568 17.4784 51.5762 17.6832 50.8955C17.8881 50.2905 18.0929 49.7612 18.366 49.1562C18.5026 48.8537 18.6391 48.5512 18.8439 48.3999C19.3219 47.9462 19.9363 48.0218 20.5508 47.9462C20.8922 47.8705 21.2336 47.7949 21.5067 47.7193C22.0529 47.568 23.3501 47.6437 23.8963 47.4168C23.4867 47.1143 22.4626 46.2824 22.9405 44.7699C23.2136 43.7112 24.3743 43.6355 24.8522 43.5599C24.9888 43.333 24.8522 42.9549 24.6474 42.8037C24.5108 42.728 24.1694 42.0474 23.7598 41.2912C23.8963 40.6862 24.306 38.1905 24.8522 37.4343C25.3984 36.6024 26.6274 36.9805 27.1736 37.3587C27.7881 37.8124 30.6557 33.2749 30.6557 33.2749C30.6557 33.2749 24.5791 34.9387 23.8963 35.6949C23.1453 36.4512 22.4626 39.2493 22.4626 39.2493C22.4626 39.2493 22.3943 39.3249 22.1894 39.4005C21.6432 39.5518 21.2336 40.0055 20.8239 40.5349C20.5508 40.8374 20.2777 41.1399 20.2094 41.3668C20.2094 41.4424 20.1412 41.518 20.1412 41.5937C19.3901 42.8793 18.7074 44.4674 17.8881 45.3749C17.0688 46.2824 16.386 47.4168 15.8398 48.5512C15.635 49.0049 15.3619 49.4587 15.157 49.9124C14.406 50.8199 14.2012 52.1812 14.2012 53.3912C14.2012 54.4499 14.2694 55.433 14.406 56.4162C14.5426 57.5505 14.8839 58.6849 15.4301 59.668C15.5667 59.4412 15.9081 59.2143 16.1812 59.2143C16.7957 59.2143 20.0729 60.1974 22.3943 59.3655C22.3943 59.3655 20.2094 62.088 17.2736 61.1805C16.8639 61.0293 16.5226 60.878 16.2494 60.8024C16.3177 60.878 16.386 60.9537 16.4543 60.9537C17.0005 61.483 17.6832 61.7855 18.4343 62.088C20.1412 62.7687 21.8481 63.0712 23.6232 63.1468C24.6474 63.1468 25.6032 63.0712 26.6274 63.2224C28.3343 63.4493 29.9729 64.3568 31.6798 64.2055C31.8846 64.2055 32.0894 64.1299 32.1577 63.903C31.8846 63.903 31.8846 63.7518 31.8846 63.6762Z" fill="#0C343D"/>
<path d="M67.1149 63.6762C67.1832 62.693 67.7977 61.7855 68.5487 61.483C69.0266 61.3318 69.5046 61.2562 69.9142 60.9537C70.3921 60.5755 70.597 59.8949 70.9383 59.3655C71.0066 59.2143 71.2115 58.9874 71.348 59.063C71.4163 59.063 71.4846 59.1387 71.4846 59.2143C71.8259 59.668 71.5528 60.3487 71.348 60.878C71.1432 61.4074 71.0749 62.1637 71.4846 62.4662C71.8259 61.4074 72.5087 60.4999 73.3963 60.0462C73.8742 59.8193 74.557 59.5924 74.6935 58.9874C74.8301 58.5337 74.6252 58.0043 74.3521 57.6262C74.079 57.248 73.8059 56.7943 73.7377 56.3405C73.7377 56.1893 73.7377 56.038 73.8059 55.9624C73.8742 55.8868 74.0108 55.8868 74.1473 55.8868C75.5811 55.8868 77.0832 55.9624 78.517 55.9624C78.9266 55.9624 79.3363 55.9624 79.6777 55.8112C80.019 55.6599 80.3604 55.2062 80.2921 54.7524C80.2921 54.5255 80.1556 54.223 80.2921 53.9962C80.3604 53.9205 80.497 53.9205 80.5652 53.8449C80.9066 53.8449 81.248 53.8449 81.5211 53.8449C81.6577 53.618 81.7259 53.2399 81.7259 52.9374C81.7259 52.2568 81.5211 51.5762 81.3163 50.8955C81.1115 50.2905 80.9066 49.7612 80.6335 49.1562C80.497 48.8537 80.3604 48.5512 80.1556 48.3999C79.6777 47.9462 79.0632 48.0218 78.4487 47.9462C78.1073 47.8705 77.7659 47.7949 77.4928 47.7193C76.9466 47.568 75.6494 47.6437 75.1032 47.4168C75.5128 47.1143 76.537 46.2824 76.059 44.7699C75.7859 43.7112 74.6252 43.6355 74.1473 43.5599C74.0108 43.333 74.1473 42.9549 74.3521 42.8037C74.4887 42.728 74.8301 42.0474 75.2397 41.2912C75.1032 40.6862 74.6935 38.1905 74.1473 37.4343C73.6011 36.6024 72.3721 36.9805 71.8259 37.3587C71.2114 37.8124 68.3439 33.2749 68.3439 33.2749C68.3439 33.2749 74.4204 34.9387 75.1032 35.6949C75.8542 36.4512 76.537 39.2493 76.537 39.2493C76.537 39.2493 76.6052 39.3249 76.8101 39.4005C77.3563 39.5518 77.7659 40.0055 78.1756 40.5349C78.4487 40.8374 78.7218 41.1399 78.7901 41.3668C78.7901 41.4424 78.8583 41.518 78.8583 41.5937C79.6094 42.8793 80.2921 44.4674 81.1115 45.3749C81.9308 46.2824 82.6135 47.4168 83.1597 48.5512C83.3646 49.0049 83.6377 49.4587 83.8425 49.9124C84.5935 50.8199 84.7983 52.1812 84.7983 53.3912C84.7983 54.4499 84.7301 55.433 84.5935 56.4162C84.457 57.5505 84.1156 58.6849 83.5694 59.668C83.4328 59.4412 83.0915 59.2143 82.8183 59.2143C82.2039 59.2143 78.9266 60.1974 76.6052 59.3655C76.6052 59.3655 78.7901 62.088 81.7259 61.1805C82.1356 61.0293 82.477 60.878 82.7501 60.8024C82.6818 60.878 82.6135 60.9537 82.5452 60.9537C81.999 61.483 81.3163 61.7855 80.5652 62.088C78.8583 62.7687 77.1515 63.0712 75.3763 63.1468C74.3521 63.1468 73.3963 63.0712 72.3721 63.2224C70.6652 63.4493 69.0266 64.3568 67.3197 64.2055C67.1149 64.2055 66.9101 64.1299 66.8418 63.903C67.1149 63.903 67.1149 63.7518 67.1149 63.6762Z" fill="#0C343D"/>
<path d="M63.2919 31.1576C61.5167 23.1413 58.5126 17.3938 57.2836 15.8813C56.1229 14.2932 50.3194 12.8563 49.5684 12.7051C48.8174 12.8563 43.0139 14.2932 41.8532 15.8813C40.6243 17.4695 37.5519 23.1413 35.845 31.1576C34.0698 39.1738 38.1663 41.2157 38.1663 41.2157C38.1663 41.2157 36.6643 36.3757 37.2105 32.5945C37.7567 28.8132 40.4877 21.0995 42.1263 18.7551C43.6284 16.6376 48.8857 14.2932 49.6367 13.9907C50.3877 14.2932 55.5767 16.6376 57.147 18.7551C58.7857 21.0238 61.5167 28.8132 62.0629 32.5188C62.6091 36.2245 61.107 41.1401 61.107 41.1401C61.107 41.1401 64.9988 39.1738 63.2919 31.1576Z" fill="#00E7FF"/>
<path d="M31.4752 56.4163C31.4752 56.4163 32.0214 54.3745 33.5235 53.7695C35.0256 53.1645 35.7766 52.257 35.8449 50.9713C35.9132 49.6857 36.3911 50.1395 36.7325 50.3663C36.7325 50.3663 36.5959 49.3076 35.9132 49.0051C35.2304 48.7026 34.8207 48.8538 34.7525 49.6857C34.6842 50.5176 34.4111 52.1057 33.3187 52.4082C32.2263 52.7107 30.929 54.2988 31.4752 56.4163Z" fill="#00E7FF"/>
<path d="M67.5248 56.4163C67.5248 56.4163 66.9786 54.3745 65.4765 53.7695C63.9745 53.1645 63.2234 52.257 63.1552 50.9713C63.0869 49.6857 62.609 50.1395 62.2676 50.3663C62.2676 50.3663 62.4041 49.3076 63.0869 49.0051C63.7697 48.7026 64.1793 48.8538 64.2476 49.6857C64.3159 50.5176 64.589 52.1057 65.6814 52.4082C66.7738 52.6351 68.071 54.2988 67.5248 56.4163Z" fill="#00E7FF"/>
<path d="M53.1187 37.2075C52.5042 35.695 47.5201 39.0982 47.6566 35.09C47.6566 34.7875 47.5201 33.1238 49.3635 31.8382C49.0904 27.225 44.3794 27.9057 42.6725 28.7375C42.3311 28.8132 42.1945 27.83 42.3311 27.4519C40.6242 28.5863 41.1704 32.8969 43.0821 34.485C42.8773 35.1657 43.0821 36.0732 43.8332 36.3757C44.1063 36.4513 44.4476 37.0563 44.789 37.2075C45.3352 37.51 45.9497 37.5857 46.6325 37.5857C48.4759 37.6613 49.7732 38.3419 51.5483 38.3419C53.1869 38.3419 54.689 37.1319 53.1187 37.2075Z" fill="#00E7FF"/>
<path d="M50.7974 30.4013C50.7974 30.4013 50.8656 28.8132 52.5725 28.3594C54.2794 27.9057 55.5767 28.5107 56.3277 28.8888L55.4401 29.1913C55.4401 29.1913 56.6008 30.5525 55.4401 31.9138C54.7574 32.2163 50.7974 30.4013 50.7974 30.4013Z" fill="#00E7FF"/>
<path d="M43.56 38.4932C43.56 39.2494 43.3551 39.8544 43.6965 40.6107C44.0379 41.2913 44.6524 41.5938 45.1986 41.8963C46.7689 42.8038 48.3393 43.7113 49.9096 44.6944C51.3434 45.5263 53.7331 42.8794 52.2993 42.0475C48.271 43.4844 44.7889 40.0057 45.8813 38.2663C45.8131 36.4513 43.4917 36.6782 43.56 38.4932Z" fill="#00E7FF"/>
<path d="M49.6367 32.6699C49.6367 32.6699 50.3878 32.443 50.6609 32.9724C51.1388 34.258 50.3878 34.5605 50.3878 34.5605L49.6367 32.6699Z" fill="#00E7FF"/>
<path d="M45.4033 38.4176C45.4033 38.4176 49.9778 42.6526 54.3475 37.3588L54.1426 36.9807C54.1426 36.9807 52.1626 38.0395 50.2509 38.0395C48.3392 38.0395 45.6764 37.4345 45.6764 37.4345L45.4033 38.4176Z" fill="#00E7FF"/>
<path d="M36.2545 45.2239C35.8449 44.8457 35.2987 44.6945 34.7525 44.392C34.6159 44.3164 34.4111 44.1651 34.3428 44.0139C34.3428 43.6357 34.889 43.5601 35.0256 43.182C35.1621 42.8795 34.9573 42.577 34.7525 42.4257C33.7966 41.2914 32.4311 40.762 31.2021 40.2326C30.5194 40.0057 29.9049 39.7032 29.2904 39.4007C28.6759 39.0982 28.198 38.6445 27.5835 38.2664C27.1056 37.9639 25.9449 37.8126 25.9449 38.7957C25.9449 39.0226 26.0814 39.3251 26.218 39.4764C27.1739 40.8376 28.6076 41.7451 29.9732 42.577C29.6318 42.8039 29.1539 42.8039 28.8125 42.7282C28.6759 43.2576 29.0856 43.787 29.4952 44.1651C30.1097 44.6945 30.6559 45.2239 31.2704 45.7532C31.3387 45.8289 31.4752 45.9045 31.5435 46.0557C31.6801 46.2826 31.6118 46.5851 31.4752 46.812C31.2704 47.1901 30.8607 47.417 30.4511 47.4926C30.0414 47.5682 29.6318 47.5682 29.2221 47.4926C28.5394 47.417 27.7883 47.3414 27.1056 47.2657C26.6276 47.1901 26.0814 47.1901 25.7401 47.5682C25.3987 48.022 25.467 48.7782 25.8766 49.232C26.0132 49.3832 26.1497 49.5345 26.3545 49.6101L27.5152 52.1057L30.4511 52.4839L31.4752 49.0807C31.7483 50.0639 31.1339 51.1226 31.2704 52.1057C31.2704 52.1814 31.2704 52.257 31.3387 52.257C31.407 52.3326 31.4752 52.3326 31.5435 52.3326C32.158 52.3326 32.7042 52.257 33.2504 52.1057C33.7966 51.8789 34.3428 51.5007 34.5476 50.8957C34.7525 50.3664 34.7525 49.837 34.7525 49.3076C34.8208 48.7782 34.889 48.1732 35.2987 47.8707C35.6401 47.4926 36.2545 47.4926 36.5276 47.0389C36.9373 46.3582 36.7325 45.6776 36.2545 45.2239Z" fill="#00E7FF"/>
<path d="M73.1916 47.5681C72.8503 47.19 72.3041 47.19 71.8261 47.2656C71.1434 47.3412 70.3923 47.4169 69.7096 47.4925C69.2999 47.4925 68.8903 47.5681 68.4806 47.4925C68.071 47.4169 67.7296 47.19 67.4565 46.8119C67.3199 46.585 67.2516 46.2825 67.3882 46.0556C67.4565 45.9044 67.5247 45.8287 67.6613 45.7531C68.2758 45.2237 68.822 44.6944 69.4365 44.165C69.8461 43.7869 70.2558 43.3331 70.1192 42.7281C69.7096 42.8794 69.2999 42.8037 68.9585 42.5769C70.3241 41.745 71.7578 40.8375 72.7137 39.4762C72.8503 39.2494 72.9868 39.0225 72.9868 38.7956C72.9868 37.8881 71.8261 37.9637 71.3482 38.2662C70.802 38.6444 70.2558 39.0981 69.6413 39.4006C69.0268 39.7031 68.3441 40.0056 67.7296 40.2325C66.4323 40.7619 65.1351 41.2912 64.1792 42.4256C63.9744 42.6525 63.8378 42.955 63.9061 43.1819C64.0427 43.56 64.6572 43.6356 64.5889 44.0137C64.5889 44.2406 64.3841 44.3162 64.1792 44.3919C63.7013 44.6187 63.0868 44.77 62.6772 45.2237C62.2675 45.6019 61.9944 46.3581 62.3358 46.8875C62.6089 47.3412 63.1551 47.4169 63.5647 47.7194C63.9061 48.0975 64.0427 48.6269 64.111 49.1562C64.1792 49.6856 64.111 50.2906 64.3158 50.7444C64.5206 51.3494 65.0668 51.7275 65.613 51.9544C66.1592 52.1812 66.7737 52.1812 67.3199 52.1812C67.3882 52.1812 67.5247 52.1812 67.5247 52.1056C67.593 52.03 67.593 52.03 67.593 51.9544C67.7296 50.9712 67.1151 49.9125 67.3882 48.9294L68.4123 52.3325L71.3482 51.9544L72.5089 49.4587C72.7137 49.3831 72.8503 49.2319 72.9868 49.0806C73.4647 48.7781 73.533 48.0219 73.1916 47.5681Z" fill="#00E7FF"/>
<path d="M38.7124 31.1574C38.7124 31.1574 38.7124 25.5612 42.5358 23.7462L42.3993 24.5781C42.3993 24.5781 42.6724 23.9731 43.56 23.2924C44.4476 22.6874 46.291 21.2506 47.0421 17.9231L47.6565 16.9399C47.6565 16.9399 48.271 17.7718 48.1345 18.3012C47.9979 18.8306 46.7007 22.3093 45.9496 23.0656C45.1986 23.7462 38.7124 31.1574 38.7124 31.1574Z" fill="#00E7FF"/>
<path d="M41.0337 20.948C41.0337 20.948 41.3751 19.6624 43.082 18.9818C44.8571 18.3011 45.4716 17.923 46.1544 16.713L46.8371 16.5618C46.8371 16.5618 46.4958 18.528 45.6082 19.0574C44.7889 19.5868 41.0337 20.948 41.0337 20.948Z" fill="#00E7FF"/>
<path d="M40.0095 30.0229C40.0095 30.0229 39.3267 34.2579 40.0095 36.7536L38.9854 36.3754C38.9854 36.3754 39.7364 39.8542 41.5798 41.518L41.4433 35.9973L40.0095 30.0229Z" fill="#00E7FF"/>
<path d="M60.2876 31.1574C60.2876 31.1574 60.2876 25.5612 56.4641 23.7462L56.6007 24.5781C56.6007 24.5781 56.3276 23.9731 55.44 23.2924C54.5524 22.6874 52.709 21.2506 51.9579 17.9231L51.3434 16.9399C51.3434 16.9399 50.729 17.7718 50.8655 18.3012C51.0021 18.8306 52.2993 22.3093 53.0503 23.0656C53.8014 23.7462 60.2876 31.1574 60.2876 31.1574Z" fill="#00E7FF"/>
<path d="M57.966 20.948C57.966 20.948 57.6247 19.6624 55.9178 18.9818C54.1426 18.3011 53.5281 17.923 52.8454 16.713L52.1626 16.5618C52.1626 16.5618 52.504 18.528 53.3916 19.0574C54.2109 19.5868 57.966 20.948 57.966 20.948Z" fill="#00E7FF"/>
<path d="M58.9903 30.0229C58.9903 30.0229 59.673 34.2579 58.9903 36.7536L60.0144 36.3754C60.0144 36.3754 59.2634 39.8542 57.4199 41.518L57.5565 35.9973L58.9903 30.0229Z" fill="#00E7FF"/>
<path d="M42.604 28.8888C42.604 28.8888 43.4233 29.1913 43.6281 29.4182C43.2868 30.0988 42.7406 31.0819 43.6964 32.1407C44.3792 32.8213 45.1985 33.1238 46.7006 32.5944C48.2026 32.065 48.2709 30.7038 48.1343 30.1744C47.9295 29.2669 45.9495 27.83 42.604 28.8888Z" fill="black"/>
<path d="M50.8654 30.1744C50.7289 30.7794 50.7972 32.065 52.2992 32.5944C53.8013 33.1238 54.6206 32.8213 55.3034 32.1407C56.2592 31.1575 55.713 30.0988 55.3716 29.4182C55.5765 29.1913 56.3958 28.8888 56.3958 28.8888C53.0503 27.83 51.0703 29.2669 50.8654 30.1744Z" fill="black"/>
<path d="M86.0958 53.845C85.7544 51.7275 82.8868 46.6606 82.4771 45.7531C82.0675 44.8456 81.3165 43.56 80.5654 41.5181C80.0192 40.0813 78.3806 38.8713 77.4247 38.2663C77.4247 37.6613 77.3565 37.0563 77.2199 36.6025C76.4006 33.6531 68.6854 31.6113 68.6854 31.6113C68.4806 28.435 66.9785 25.6369 66.1592 24.2756C66.1592 23.4438 66.1592 22.4606 66.0227 21.2506C65.3399 15.9569 62.882 13.31 61.1068 12.4025C60.2875 7.78938 57.2833 6.20126 55.8496 5.74751C54.0744 2.49563 50.2509 1.66376 49.5682 1.58813C49.5682 1.58813 49.5682 1.58813 49.4999 1.58813H49.4316C48.7489 1.73938 44.9254 2.57126 43.1502 5.74751C41.7164 6.27688 38.7123 7.86501 37.893 12.4025C36.1861 13.2344 33.7282 15.8813 33.0454 21.175C32.9089 22.3094 32.8406 23.3681 32.9089 24.2C32.0896 25.5613 30.5875 28.3594 30.3827 31.5356C30.3827 31.5356 22.6675 33.5775 21.8482 36.5269C21.7116 37.0563 21.6433 37.5856 21.6433 38.1906C20.6875 38.7956 19.0489 40.0056 18.5027 41.4425C17.7516 43.4844 17.0006 44.8456 16.5227 45.6775C16.113 46.585 13.2454 51.6519 12.904 53.7694C12.5627 55.8869 13.2454 59.7438 14.133 60.9538C14.9523 62.1638 18.5027 62.9956 20.6192 63.3738C22.7358 63.7519 24.8523 63.3738 26.5592 63.9031C28.2661 64.3569 32.2944 65.2644 33.5233 65.0375C34.7523 64.8106 35.5033 64.3569 35.5033 64.3569C35.5033 64.3569 39.0537 64.8106 39.873 64.6594C40.6923 64.5081 49.5682 64.6594 49.5682 64.6594C49.5682 64.6594 58.3758 64.5081 59.2633 64.6594C60.0827 64.8106 63.633 64.3569 63.633 64.3569C63.633 64.3569 64.384 64.8106 65.613 65.0375C66.842 65.2644 70.8702 64.3569 72.5771 63.9031C74.284 63.4494 76.3323 63.7519 78.5171 63.3738C80.6337 62.9956 84.184 62.1638 85.0033 60.9538C85.7544 59.8194 86.4371 55.8869 86.0958 53.845ZM33.3185 26.7713C33.7282 28.0569 34.3427 28.5106 34.3427 28.5106C33.8647 25.3344 34.1378 23.5194 34.9571 20.4944C35.5716 18.15 37.142 15.9569 37.8247 15.125C37.8247 15.8813 37.893 16.7131 38.0296 17.6206C38.0296 17.6206 38.3027 10.0581 42.4675 8.01626C42.3309 8.84813 42.3309 9.75563 42.4675 10.7388C42.4675 10.7388 43.082 4.76438 49.5682 3.63001C56.0544 4.76438 56.6689 10.7388 56.6689 10.7388C56.8054 9.75563 56.8054 8.84813 56.6689 8.01626C60.8337 10.1338 61.1068 17.6206 61.1068 17.6206C61.2433 16.7131 61.3116 15.9569 61.3116 15.125C61.9261 15.9569 63.4965 18.15 64.1792 20.4944C64.9985 23.4438 65.2033 25.2588 64.7937 28.5106C64.7937 28.5106 65.3399 28.0569 65.8178 26.7713C66.364 28.2081 67.5247 31.5356 66.7054 34.8631C65.613 39.1738 60.7654 41.2156 60.7654 41.2156C62.8137 39.1738 63.4964 35.9219 63.2916 32.7456C63.0868 29.5694 60.4923 21.78 58.3075 18.0744C56.2592 14.5956 50.5923 13.6881 49.773 13.6125C49.773 13.6125 49.773 13.6125 49.7047 13.6125H49.6364C48.8171 13.7638 43.1502 14.6713 41.102 18.0744C38.9171 21.78 36.3227 29.645 36.1178 32.7456C35.913 35.8463 36.5275 39.1738 38.644 41.2156C38.644 41.2156 33.7964 39.1738 32.704 34.8631C31.6116 31.5356 32.7723 28.2081 33.3185 26.7713ZM40.8289 37.8881L39.5999 37.1319C40.1461 39.7031 41.4433 41.4425 41.6482 41.6694C37.7564 38.2663 38.0978 33.9556 38.0978 33.9556C38.5075 35.0144 39.3268 35.7706 39.3268 35.7706C39.2585 31.7625 40.0096 30.0231 40.0096 30.0231C39.8047 34.7119 40.7606 37.7369 40.8289 37.8881ZM40.8971 28.2081C41.1702 26.2419 42.1944 24.4269 42.1944 24.4269C39.4633 26.2419 38.8489 30.855 38.8489 30.855C38.4392 24.3513 41.7847 22.1581 44.2427 20.8725C46.7006 19.5869 47.4516 17.545 47.4516 17.545C47.1102 19.5869 46.6323 21.9313 44.3792 23.4438C42.1944 24.9563 40.8971 28.2081 40.8971 28.2081ZM41.0337 20.9481C41.7847 17.6963 44.1061 18.6794 46.1544 16.6375C45.6082 18.3769 44.7889 18.6038 43.082 19.2844C41.5116 20.1163 41.102 20.8725 41.0337 20.9481ZM51.4799 17.545C51.4799 17.545 52.2309 19.6625 54.6889 20.8725C57.1468 22.1581 60.4923 24.2756 60.0827 30.855C60.0827 30.855 59.4682 26.2419 56.7371 24.4269C56.7371 24.4269 57.7613 26.1663 58.0344 28.2081C58.0344 28.2081 56.7371 24.9563 54.484 23.4438C52.3675 21.9313 51.8213 19.5869 51.4799 17.545ZM52.8454 16.7131C54.8937 18.6794 57.2151 17.7719 57.9661 21.0238C57.8978 20.9481 57.4882 20.1163 55.9178 19.4356C54.2109 18.6038 53.3916 18.4525 52.8454 16.7131ZM59.3999 37.1319L58.2392 37.8881C58.3075 37.7369 59.2633 34.7119 59.0585 30.0231C59.0585 30.0231 59.8096 31.7625 59.7413 35.7706C59.7413 35.7706 60.5606 35.0144 60.9702 33.9556C60.9702 33.9556 61.2433 38.2663 57.4199 41.6694C57.4882 41.4425 58.8537 39.7788 59.3999 37.1319ZM25.8764 50.5931C24.3744 50.215 22.5309 49.7613 21.5751 49.9125C19.8682 50.1394 18.5709 52.4081 18.5027 52.5594C18.6392 52.4838 21.2337 51.1981 23.282 51.9544C23.282 51.9544 22.1895 53.3913 20.3461 53.845C20.3461 53.845 21.4385 54.6013 22.6675 54.2988C23.8964 53.9963 25.6716 52.9375 26.9689 52.8619C26.9689 52.8619 26.9006 53.7694 27.3102 54.6769C27.3102 54.6769 28.6075 53.6938 30.0413 53.4669C30.0413 53.4669 28.6758 59.6681 30.6558 63.4494C30.6558 63.4494 26.9689 63.1469 27.6516 57.6263C27.6516 57.6263 26.013 59.5169 25.7399 61.9369C25.7399 61.9369 20.6875 62.1638 18.7758 61.5588C16.864 60.9538 16.1813 59.9706 16.1813 59.9706C16.1813 59.9706 19.322 61.2563 22.1895 59.5169C22.1895 59.5169 17.4102 59.5169 15.8399 58.3069C14.2695 57.1725 15.362 53.6181 15.9082 51.9544C16.4544 50.215 17.8882 46.6606 18.4344 46.1313C19.0489 45.6775 21.0289 44.9969 21.0289 44.9969C21.0289 44.9969 20.4144 42.8794 20.6875 42.1231C20.8923 41.5938 21.8482 40.9888 22.2578 40.6863C23.1454 42.8794 25.3302 44.77 29.222 44.2406C29.222 44.2406 25.8082 43.1063 24.6475 40.3081C23.4868 37.51 24.3061 36.9806 24.7158 36.1488C25.1254 35.3169 28.8123 34.5606 29.0171 34.485C28.8806 34.5606 27.242 35.3925 26.9689 36.6781C26.6958 37.9638 26.5592 39.325 28.9489 40.6106C31.2702 41.8963 34.6158 42.4256 33.7964 43.1819C32.9771 43.9381 31.2702 42.955 31.8847 44.2406C32.4992 45.6019 34.9571 45.6019 35.913 46.5094C35.913 46.5094 34.8206 46.6606 34.5475 47.2656C34.2744 47.8706 34.684 48.5513 34.4109 50.0638C34.1378 51.6519 32.0213 51.3494 32.0213 51.3494C32.0213 51.3494 32.2261 49.3075 33.2502 47.0388C33.1137 47.1144 30.7923 48.2488 29.9047 51.0469L28.4027 51.1225C28.4027 51.1225 28.3344 51.1225 28.1978 51.0469C27.6516 49.6856 25.5351 45.5263 20.4827 47.9463C20.4827 48.0219 23.4185 47.19 25.8764 50.5931ZM42.1261 58.6094C41.7164 58.9119 38.9171 58.6094 37.9613 58.3825C37.0054 58.1556 36.3909 58.0044 36.1861 58.08C35.9813 58.1556 35.913 58.5338 36.3227 58.8363C36.7323 59.1388 38.7123 59.7438 40.3509 59.8194C41.9896 59.895 41.7164 60.2731 41.6482 60.5C41.6482 60.8025 40.8289 61.105 39.3951 60.9538C37.9613 60.8025 36.7323 60.0463 36.5275 60.0463C36.3227 60.0463 35.9813 60.4244 36.3227 60.8025C36.664 61.2563 38.644 61.8613 39.122 62.0125C39.5999 62.0881 39.5999 62.4663 39.3951 62.6931C39.1902 62.92 37.7564 62.8444 36.5958 62.4663C35.4351 62.0881 34.7523 61.4075 34.3427 61.105C33.8647 60.8025 33.1137 61.1806 32.3627 60.1219C31.6116 59.0631 31.6799 56.265 31.8164 55.4331C31.953 54.6013 32.4309 53.5425 33.2502 53.24C34.0013 52.9375 34.7523 52.7863 35.0937 52.03C35.4351 51.2738 35.5033 49.61 35.5716 49.4588C35.7082 49.2319 35.8447 49.3075 35.8447 49.3075C36.9371 50.2906 36.8006 51.1225 36.7323 51.8788C36.664 52.635 35.9813 53.4669 36.3909 53.845C36.8006 54.2231 39.4633 55.1306 40.624 55.2063C41.7847 55.2819 42.1261 55.3575 42.0578 55.66C42.0578 55.9625 41.9213 56.3406 40.4875 56.3406C39.0537 56.3406 37.7564 55.8113 37.2785 55.66C36.8006 55.5844 36.5958 55.8869 36.5958 56.1894C36.664 56.4919 37.142 56.7944 38.3027 57.0969C39.4633 57.475 40.7606 57.3238 41.5799 57.475C42.3992 57.5506 42.5358 58.3069 42.1261 58.6094ZM49.4999 43.4844C49.4999 43.4844 45.9496 42.35 44.3109 39.5519C44.3109 39.5519 44.7206 38.5688 44.7889 37.2831C46.0861 38.6444 47.7247 39.4763 49.4999 39.4763C51.2751 39.4763 52.9137 38.6444 54.2109 37.2831C54.2792 38.5688 54.6889 39.5519 54.6889 39.5519C53.0502 42.35 49.4999 43.4844 49.4999 43.4844ZM54.2109 36.4513C52.7771 37.2075 51.2068 37.5856 49.4999 37.5856C47.793 37.5856 46.1544 37.1319 44.7889 36.4513C44.7206 34.8631 44.0378 33.0481 41.9213 31.6869C41.9213 31.6869 41.1702 28.6619 43.833 25.9394C44.5158 25.2588 45.1985 24.5781 45.813 23.9731C45.813 23.9731 49.2951 21.4775 53.2551 23.9731C53.8696 24.5781 54.5523 25.2588 55.2351 25.9394C57.8978 28.7375 57.1468 31.6869 57.1468 31.6869C54.962 33.1238 54.3475 34.9388 54.2109 36.4513ZM66.6371 60.1975C65.8861 61.2563 65.1351 60.8781 64.6571 61.1806C64.1792 61.4831 63.4965 62.1638 62.404 62.5419C61.2433 62.92 59.8778 62.9956 59.6047 62.7688C59.3999 62.5419 59.3316 62.1638 59.8778 62.0881C60.424 62.0125 62.3358 61.3319 62.6771 60.8781C63.0185 60.4244 62.7454 60.1219 62.5406 60.1219C62.3358 60.1219 61.1068 60.8781 59.673 61.0294C58.2392 61.1806 57.4199 60.8781 57.4199 60.5756C57.4199 60.2731 57.0785 59.895 58.7171 59.895C60.3558 59.895 62.3358 59.29 62.7454 58.9119C63.1551 58.5338 63.0868 58.1556 62.882 58.1556C62.6771 58.08 62.0627 58.2313 61.1068 58.4581C60.1509 58.685 57.3516 58.9875 56.942 58.685C56.5323 58.3825 56.6689 57.5506 57.4882 57.475C58.3075 57.3994 59.6047 57.475 60.7654 57.0969C61.9261 56.7188 62.404 56.4919 62.4723 56.1894C62.5406 55.8869 62.3358 55.5844 61.7896 55.66C61.3116 55.7356 60.0144 56.3406 58.5806 56.3406C57.1468 56.3406 57.0102 55.9625 57.0102 55.66C57.0102 55.3575 57.2833 55.2819 58.5123 55.2063C59.673 55.1306 62.3358 54.2231 62.7454 53.845C63.1551 53.4669 62.5406 52.635 62.404 51.8788C62.3358 51.1225 62.1309 50.2906 63.2916 49.3075C63.2916 49.3075 63.4964 49.3075 63.5647 49.4588C63.7013 49.6856 63.7013 51.2738 64.0427 52.03C64.384 52.7863 65.1351 53.0131 65.8861 53.24C66.6371 53.5425 67.1833 54.5256 67.3199 55.4331C67.3199 56.3406 67.3882 59.1388 66.6371 60.1975ZM83.2282 58.3069C81.6578 59.4413 76.8785 59.5169 76.8785 59.5169C79.7461 61.2563 82.8868 59.9706 82.8868 59.9706C82.8868 59.9706 82.204 60.9538 80.2923 61.5588C78.3806 62.1638 73.3282 61.9369 73.3282 61.9369C73.0551 59.5169 71.4165 57.6263 71.4165 57.6263C72.1675 63.0713 68.4123 63.4494 68.4123 63.4494C70.3923 59.6681 69.0268 53.4669 69.0268 53.4669C70.3923 53.7694 71.6896 54.6769 71.6896 54.6769C72.0992 53.6938 72.0309 52.8619 72.0309 52.8619C73.3282 53.0131 75.1034 54.0719 76.3323 54.2988C77.5613 54.6013 78.6537 53.845 78.6537 53.845C76.8102 53.3913 75.7178 51.9544 75.7178 51.9544C77.7661 51.1981 80.3606 52.4838 80.4971 52.5594C80.4289 52.4081 79.1316 50.1394 77.4247 49.9125C76.4689 49.7613 74.6254 50.215 73.1233 50.5931C75.513 47.19 78.5171 48.0219 78.7902 48.0975C73.6696 45.6775 71.553 49.9125 71.0068 51.1981C70.8702 51.2738 70.802 51.2738 70.802 51.2738L69.2999 51.1981C68.344 48.4 66.0909 47.2656 65.9544 47.19C66.9785 49.4588 67.1833 51.5006 67.1833 51.5006C67.1833 51.5006 65.0668 51.7275 64.7937 50.215C64.5206 48.6269 64.9302 48.0219 64.6571 47.4169C64.384 46.8119 63.2916 46.6606 63.2916 46.6606C64.2475 45.6775 66.7054 45.6775 67.3199 44.3919C67.9344 43.0306 66.2275 44.0894 65.4082 43.3331C64.5889 42.5769 67.9344 42.0475 70.324 40.7619C72.6454 39.4763 72.5771 38.115 72.304 36.8294C72.0309 35.5438 70.3923 34.7119 70.2558 34.6363C70.4606 34.7119 74.1475 35.4681 74.5571 36.3C74.9668 37.1319 75.7861 37.6613 74.6254 40.4594C73.4647 43.2575 70.0509 44.3919 70.0509 44.3919C73.9427 44.9213 76.0592 43.0306 77.0151 40.8375C77.4247 41.0644 78.3806 41.6694 78.5854 42.2744C78.8585 42.955 78.244 45.1481 78.244 45.1481C78.244 45.1481 80.224 45.8288 80.8385 46.2825C81.453 46.7363 82.8185 50.3663 83.3647 52.1056C83.7061 53.6181 84.7985 57.0969 83.2282 58.3069Z" fill="black"/>
<path d="M48.4756 33.653V34.258C48.4756 34.4849 48.6804 34.6362 48.8852 34.5605L49.4314 34.3337V32.6699C48.8852 32.6699 48.4756 33.1237 48.4756 33.653Z" fill="black"/>
<path d="M49.6362 32.6699V34.3337L50.1824 34.5605C50.3873 34.6362 50.5921 34.4849 50.5921 34.258V33.653C50.5238 33.1237 50.1142 32.6699 49.6362 32.6699Z" fill="black"/>
<path d="M61.9943 47.5681H37.0054V47.9462H61.9943V47.5681Z" fill="#00E7FF"/>
<path d="M53.2552 52.1057C53.1187 51.9544 52.8456 51.8788 52.709 52.03C52.7773 51.8032 52.7773 51.5763 52.6408 51.425C52.4359 51.1982 52.1628 51.1982 51.958 51.425C51.7532 51.6519 51.7532 51.9544 51.958 52.1813C52.0263 52.2569 52.0263 52.2569 52.0945 52.2569L51.5483 52.8619C51.7532 52.9375 51.8897 53.0888 52.0263 53.24L52.5042 52.7107C52.5042 52.7863 52.5725 52.7863 52.5725 52.8619C52.7773 53.0888 53.0504 53.0888 53.2552 52.8619C53.3918 52.635 53.3918 52.3325 53.2552 52.1057Z" fill="#164956"/>
<path d="M46.7689 58.2312C46.7689 58.1556 46.7006 58.1556 46.7006 58.08C46.4958 57.8531 46.2227 57.8531 46.0179 58.08C45.8131 58.3069 45.8131 58.6094 46.0179 58.8362C46.1544 58.9875 46.4275 59.0631 46.5641 58.9119C46.4958 59.1387 46.4958 59.3656 46.6324 59.5169C46.8372 59.7437 47.1103 59.7437 47.3151 59.5169C47.5199 59.29 47.5199 58.9875 47.3151 58.7606C47.2468 58.685 47.2468 58.685 47.1786 58.685L47.9979 57.7775V57.5506C47.8613 57.475 47.7248 57.3994 47.5882 57.3237L46.7689 58.2312ZM46.7006 58.7606C46.7006 58.685 46.7689 58.685 46.7006 58.7606C46.7689 58.685 46.7689 58.685 46.7006 58.7606C46.7689 58.7606 46.7689 58.685 46.7006 58.7606Z" fill="#164956"/>
<path d="M52.3675 58.08C52.2993 58.1556 52.2993 58.1556 52.2993 58.2312L51.48 57.3237C51.3434 57.3994 51.2069 57.475 51.0703 57.5506V57.7775L51.8896 58.685C51.8213 58.685 51.8213 58.7606 51.7531 58.7606C51.5482 58.9875 51.5482 59.29 51.7531 59.5169C51.9579 59.7437 52.231 59.7437 52.4358 59.5169C52.5724 59.3656 52.6407 59.0631 52.5041 58.9119C52.7089 58.9875 52.9138 58.9875 53.0503 58.8362C53.2551 58.6094 53.2551 58.3069 53.0503 58.08C52.8455 57.9287 52.5041 57.9287 52.3675 58.08ZM52.231 58.685C52.231 58.685 52.2993 58.685 52.231 58.685C52.231 58.7606 52.231 58.685 52.231 58.685Z" fill="#164956"/>
<path d="M46.4277 52.8619C46.496 52.7863 46.496 52.7863 46.496 52.7107L46.9739 53.24C47.1104 53.0888 47.3153 52.9375 47.4518 52.8619L46.9056 52.2569C46.9739 52.2569 46.9739 52.1813 47.0422 52.1813C47.247 51.9544 47.247 51.6519 47.0422 51.425C46.8373 51.1982 46.5642 51.1982 46.3594 51.425C46.2229 51.5763 46.1546 51.8788 46.2911 52.03C46.0863 51.9544 45.8815 51.9544 45.7449 52.1057C45.5401 52.3325 45.5401 52.635 45.7449 52.8619C45.9498 53.0888 46.2229 53.0888 46.4277 52.8619Z" fill="#164956"/>
<path d="M52.2993 55.055C52.2993 53.845 51.0703 52.9375 49.5 52.9375C47.9296 52.9375 46.7007 53.9206 46.7007 55.055C46.7007 55.9625 47.4517 56.7944 48.5441 57.0969V58.685C48.5441 58.8362 48.6807 58.9875 48.8172 58.9875C48.9538 58.9875 49.0903 58.8362 49.0903 58.685C49.0903 58.8362 49.2269 58.9875 49.3634 58.9875C49.5 58.9875 49.6365 58.8362 49.6365 58.685C49.6365 58.8362 49.7731 58.9875 49.9096 58.9875C50.0462 58.9875 50.1828 58.8362 50.1828 58.685C50.1828 58.8362 50.3193 58.9875 50.4559 58.9875C50.5924 58.9875 50.729 58.8362 50.729 58.685V57.0969C51.5483 56.7944 52.2993 56.0381 52.2993 55.055ZM48.3393 56.1137C47.9297 56.1137 47.52 55.8113 47.52 55.5088C47.52 55.2063 47.8614 54.9037 48.3393 54.9037C48.749 54.9037 49.0903 55.2063 49.0903 55.5088C49.0903 55.8869 48.749 56.1137 48.3393 56.1137ZM49.8414 56.4919C49.7731 56.5675 49.6365 56.4919 49.5 56.3406C49.5 56.3406 49.5 56.265 49.4317 56.265C49.4317 56.265 49.4317 56.3406 49.3634 56.3406C49.2269 56.4919 49.0903 56.4919 49.0221 56.4919C48.9538 56.4162 49.0221 56.265 49.1586 56.1137C49.2269 56.0381 49.3634 55.9625 49.4317 55.9625C49.5 55.9625 49.5683 55.9625 49.7048 56.1137C49.8414 56.265 49.9096 56.4162 49.8414 56.4919ZM50.729 56.1137C50.3193 56.1137 49.9096 55.8113 49.9096 55.5088C49.9096 55.2063 50.251 54.9037 50.729 54.9037C51.1386 54.9037 51.48 55.2063 51.48 55.5088C51.48 55.8869 51.1386 56.1137 50.729 56.1137Z" fill="#164956"/>
<path d="M21.3019 65.6426C21.575 67.3064 21.7798 68.8945 22.0529 70.5582C20.9605 70.7851 19.7998 71.012 18.7074 71.2388C18.4343 69.5751 18.1612 67.987 17.8881 66.3232C16.7957 66.5501 15.7033 66.777 14.6108 67.0795C15.3619 71.3145 16.1812 75.6251 16.9322 79.8601C17.9564 79.6332 18.9805 79.4063 20.0046 79.1795C19.7315 77.5157 19.4584 75.852 19.1853 74.1882C20.2777 73.9613 21.3702 73.7345 22.4626 73.5076C22.7357 75.1713 22.9405 76.8351 23.2136 78.4989C24.2377 78.272 25.2619 78.1207 26.286 77.9695C25.7398 73.6588 25.1936 69.3482 24.5791 65.0376C23.4867 65.2645 22.3943 65.4157 21.3019 65.6426Z" fill="#E6E6E6"/>
<path d="M29.5634 64.2812C29.222 68.7431 28.9489 73.1293 28.6758 77.5912C29.6999 77.44 30.7241 77.2887 31.8165 77.1375C31.8165 76.6081 31.8847 76.0031 31.8847 75.4737C33.0454 75.3225 34.1379 75.1712 35.2985 75.0956C35.4351 75.625 35.5034 76.1543 35.6399 76.7593C36.6641 76.6837 37.6882 76.5325 38.7806 76.4568C37.7565 72.1462 36.7323 67.9112 35.5716 63.6006C33.5916 63.8275 31.5434 64.0543 29.5634 64.2812ZM32.0896 72.4487C32.1579 70.5581 32.2944 68.6675 32.431 66.8525C32.7041 66.8525 32.9772 66.7768 33.2503 66.7768C33.6599 68.5918 34.1378 70.4068 34.5475 72.2218C33.7282 72.2975 32.9089 72.3731 32.0896 72.4487Z" fill="#E6E6E6"/>
<path d="M45.7444 73.2807C45.1299 73.2807 44.7203 73.205 44.4472 73.0538C44.1741 72.9025 43.9692 72.6 43.8327 72.2219C43.6961 71.7682 43.6279 71.0876 43.5596 70.1801C43.5596 69.9532 43.4913 69.6507 43.4913 69.1969C43.4913 68.365 43.4913 67.6844 43.6279 67.2307C43.7644 66.7769 43.9693 66.3988 44.3106 66.1719C44.652 65.945 45.1299 65.7938 45.8127 65.7938C46.4955 65.7938 47.4513 65.8694 48.612 66.0207C48.612 65.1132 48.6803 64.2057 48.6803 63.2982C47.2465 62.92 45.881 62.7688 44.652 62.7688C43.4913 62.8444 42.5355 63.0713 41.8527 63.4494C41.1699 63.8275 40.7603 64.5838 40.4872 65.5669C40.2141 66.55 40.1458 67.9869 40.2141 69.8775C40.2824 71.4657 40.4872 72.7513 40.8286 73.6588C41.1017 74.5663 41.6479 75.2469 42.3306 75.7007C43.0134 76.1544 44.0375 76.3057 45.2665 76.3057C46.2906 76.3057 47.4513 76.0788 48.6803 75.7763C48.6803 74.8688 48.612 73.8857 48.612 72.9782C47.5196 73.205 46.5637 73.2807 45.7444 73.2807Z" fill="#E6E6E6"/>
<path d="M57.6931 63.1469C57.1469 64.8862 56.6689 66.6256 56.191 68.365C55.7131 68.4406 55.3034 68.4406 54.8255 68.5162C54.8938 66.7012 54.8938 64.8862 54.962 63.0712C53.8696 63.0712 52.7772 62.9956 51.6165 62.9956C51.5483 67.3819 51.5483 71.6925 51.48 76.0787C52.5041 76.0787 53.5283 76.0787 54.5524 76.1544C54.6207 74.6419 54.6207 73.0537 54.6889 71.5412C55.0986 71.5412 55.5765 71.4656 55.9862 71.4656C56.3276 73.0537 56.7372 74.7175 57.0786 76.3056C58.2393 76.3812 59.4683 76.4569 60.6289 76.5325C60.0827 74.2637 59.4683 72.0706 58.9221 69.8775C59.7414 67.76 60.5607 65.6425 61.4483 63.525C60.2193 63.2981 58.922 63.2225 57.6931 63.1469Z" fill="#E6E6E6"/>
<path d="M63.1548 76.6839C65.7493 76.9108 68.3438 77.2133 71.0065 77.5914C71.1431 76.6083 71.2113 75.6251 71.3479 74.5664C69.7775 74.3395 68.1389 74.1126 66.5003 73.9614C66.5686 73.2808 66.6369 72.6001 66.7051 71.9195C68.0024 72.0708 69.2313 72.222 70.5286 72.3733C70.6651 71.3901 70.7334 70.407 70.87 69.4239C69.5727 69.2726 68.2755 69.0458 66.9782 68.8945C67.0465 68.2139 67.1148 67.5333 67.1831 66.8526C68.8217 67.0795 70.5286 67.2308 72.1672 67.5333C72.3037 66.5501 72.372 65.567 72.5086 64.5083C69.7093 64.1301 66.91 63.752 64.1106 63.5251C63.7693 67.987 63.4279 72.2976 63.1548 76.6839Z" fill="#E6E6E6"/>
<path d="M83.7061 67.9114C83.0916 67.0039 81.9992 66.3233 80.4288 66.0208C78.7902 65.7183 77.1516 65.4158 75.4447 65.1133C74.8985 69.4239 74.284 73.7345 73.7378 78.0452C74.7619 78.1964 75.7861 78.4233 76.8102 78.5745C77.015 77.2889 77.2199 76.0033 77.4247 74.7177C77.9709 74.7933 78.5171 74.9445 78.995 75.0202C79.0633 76.3814 79.1316 77.7427 79.1999 79.1039C80.2923 79.3308 81.453 79.5577 82.5454 79.8602C82.4088 78.1964 82.2723 76.5327 82.1357 74.8689C83.2964 74.1127 83.9792 72.9783 84.2523 71.5414C84.5254 70.0289 84.3888 68.8189 83.7061 67.9114ZM80.975 70.7852C80.9068 71.2389 80.7019 71.617 80.4971 71.8439C80.224 72.1464 79.9509 72.222 79.5412 72.1464C78.995 72.0708 78.4488 71.9195 77.8343 71.8439C77.9709 70.7852 78.1757 69.7264 78.3123 68.6677C78.8585 68.7433 79.4047 68.8945 79.9509 68.9702C80.2923 69.0458 80.6337 69.2727 80.7702 69.6508C81.0433 69.9533 81.0433 70.3314 80.975 70.7852Z" fill="#E6E6E6"/>
<path d="M84.6618 67.1551C84.6618 67.1551 82.1356 66.3988 80.019 65.9451L82.2039 68.4407L82.1356 68.5163L82.2039 70.5582C84.5935 69.3482 92.377 69.4238 92.377 69.4238C90.4653 68.6676 84.6618 67.1551 84.6618 67.1551Z" fill="#E6E6E6"/>
<path d="M15.0888 67.2306L14.6108 67.0793L14.3377 67.155C14.3377 67.155 8.53428 68.7431 6.62256 69.4237C6.62256 69.4237 14.406 69.3481 16.7957 70.5581L16.8639 68.5162L15.0205 67.6087V67.2306H15.0888Z" fill="#E6E6E6"/>
<path d="M8.6709 73.5833L13.8599 71.6926L14.2695 74.037L8.6709 73.5833Z" fill="#E6E6E6"/>
<path d="M10.5825 77.0621L14.6108 75.6252L14.9522 77.6671L10.5825 77.0621Z" fill="#E6E6E6"/>
<path d="M90.3286 73.5833L85.1396 71.6926L84.73 74.037L90.3286 73.5833Z" fill="#E6E6E6"/>
<path d="M88.417 77.0621L84.3887 75.6252L84.0474 77.6671L88.417 77.0621Z" fill="#E6E6E6"/>
<path d="M30.997 24.8805C30.997 24.8805 29.1536 29.0399 30.3143 31.4599C30.3143 31.4599 30.6556 27.603 32.8405 24.1243L30.997 24.8805Z" fill="#00E7FF"/>
<path d="M68.0026 24.8805C68.0026 24.8805 69.8461 29.0399 68.6854 31.4599C68.6854 31.4599 68.344 27.603 66.1592 24.1243L68.0026 24.8805Z" fill="#00E7FF"/>
<path d="M12.0166 64.6593C12.0166 64.6593 15.7718 63.8275 19.8001 63.3737C19.8001 63.3737 17.069 62.4662 10.4463 63.6006L12.0166 64.6593Z" fill="#00E7FF"/>
<path d="M86.9836 64.6593C86.9836 64.6593 83.2285 63.8275 79.2002 63.3737C79.2002 63.3737 81.9312 62.4662 88.554 63.6006L86.9836 64.6593Z" fill="#00E7FF"/>
</g>
<defs>
<clipPath id="clip0_98_3164">
<rect width="99" height="121" fill="white"/>
</clipPath>
</defs>
</svg>
