<svg width="145" height="160" viewBox="0 0 145 160" fill="none" xmlns="http://www.w3.org/2000/svg">
<g clip-path="url(#clip0_98_3164)">
<path d="M71.8 159.7C60.1 154.5 49.8 146.9 41.2 137.1L12.8 140.1L16.8 114.5L0 89.1L2.1 88.3C7.9 86 13.9 84.5 15.4 84.1C10.6 64.2 10.7 48.7 10.7 48.1V46.7L12.1 46.3C20.4 44.1 31.6 39.7 45.5 33C45.8 32.4 46.1 31.9 46.4 31.5C46.4 31.4 46.4 31.3 46.4 31.2C46.4 30.9 46.4 30.5 46.4 30.2C46.4 29.5 46.5 28.7 46.6 27.9C46.8 26.4 47.2 25 47.6 23.6C47.8 22.9 48.1 22.3 48.3 21.8C48.6 21.1 48.9 20.5 49.3 19.9C49.6 19.3 50 18.8 50.4 18.3C51.6 16.8 52.9 15.8 53.9 15.2C55.4 9.4 59.6 7 62 6.1C62.7 5.2 63.5 4.3 64.4 3.5C65.1 2.9 65.9 2.4 66.8 2C67.3 1.7 67.8 1.5 68.3 1.3C69.1 1 69.8 0.8 70.5 0.6L72.5 0L74.6 0.5C76.9 1.1 80.7 2.6 83 5.9C85.4 6.8 89.6 9.2 91.1 15C92.6 15.9 95 17.8 96.7 21.6C97.5 23.4 98.1 25.5 98.4 27.7C98.5 28.5 98.6 29.3 98.6 30C98.6 30.4 98.6 30.7 98.6 31C98.6 31.1 98.6 31.2 98.6 31.3C98.9 31.7 99.2 32.2 99.5 32.8C113.4 39.5 124.6 43.9 132.9 46.1L134.3 46.5V47.9C134.3 48.6 134.4 64 129.6 83.9C131.1 84.3 137.1 85.8 142.9 88.1L145 88.9L128.2 114.3L132.2 139.9L103.8 136.9C95.2 146.7 84.9 154.3 73.2 159.5L72.5 159.8L71.8 159.7Z" fill="#00E7FF"/>
<path d="M127.1 112.9L142.2 89.9999C135.8 87.4999 128.9 85.7999 128.9 85.7999C128.9 85.7999 128.3 85.6999 127.4 85.4999C132.7 64.6999 132.5 48.0999 132.5 48.0999C122.5 45.4999 109.5 39.8999 98.1998 34.3999C97.6998 33.3999 97.1998 32.5999 96.7998 31.9999C96.7998 31.6999 96.7998 31.3999 96.7998 31.0999C96.7998 30.7999 96.7998 30.4999 96.7998 30.0999C96.7998 29.3999 96.6998 28.6999 96.5998 27.8999C96.2998 25.6999 95.6998 23.8999 94.9998 22.2999C93.3998 18.8999 91.1998 16.9999 89.3998 16.1999C88.1998 10.0999 83.7998 7.9999 81.6998 7.3999C79.0998 3.0999 73.4998 1.9999 72.4998 1.8999C72.4998 1.8999 72.4998 1.8999 72.3998 1.8999H72.2998C72.1998 1.8999 72.1998 1.8999 72.0998 1.8999C71.4998 1.9999 70.3998 2.2999 68.9998 2.7999C68.5998 2.9999 68.0998 3.1999 67.5998 3.3999C66.8998 3.7999 66.1998 4.1999 65.4998 4.6999C64.5998 5.3999 63.7998 6.2999 63.0998 7.2999C60.9998 7.9999 56.5998 10.0999 55.3998 16.0999C54.2998 16.5999 52.9998 17.5999 51.6998 19.0999C51.3998 19.4999 50.9998 19.9999 50.6998 20.4999C50.3998 20.9999 50.0998 21.5999 49.7998 22.1999C49.5998 22.6999 49.3998 23.2999 49.1998 23.7999C48.7998 24.9999 48.4998 26.2999 48.2998 27.6999C48.1998 28.4999 48.0998 29.1999 48.0998 29.8999C48.0998 30.1999 48.0998 30.4999 48.0998 30.8999C48.0998 31.1999 48.0998 31.4999 48.0998 31.7999C47.6998 32.3999 47.1998 33.1999 46.6998 34.1999C35.4998 39.7999 22.4998 45.3999 12.4998 47.9999C12.4998 47.9999 12.2998 64.5999 17.5998 85.3999L16.0998 85.6999C16.0998 85.6999 9.1998 87.3999 2.7998 89.8999L17.9998 112.8L18.7998 114L14.9998 138L41.8998 135.1C49.7998 144.3 59.7998 152.4 72.4998 157.9C85.1998 152.3 95.1998 144.3 103 135.1L130 138L126.3 114.1L127.1 112.9Z" fill="#1B1464"/>
<path d="M15.9999 106.9L15.3999 109L20.0999 116.2L28.1999 110.7L26.1999 107.4L15.9999 106.9Z" fill="black"/>
<path d="M129 106.9L129.6 109L124.9 116.2L116.8 110.7L118.8 107.4L129 106.9Z" fill="black"/>
<path d="M14.8999 49.3C14.8999 49.3 47.5999 37.2 72.7999 24C72.7999 24 117.7 46.3 130 49.3C130 49.3 135.5 121 72.3999 154.9C72.3999 154.9 19.3999 134.2 14.8999 49.3Z" fill="#357584"/>
<path d="M118.5 110.7C132.8 80 132.5 48.1 132.5 48.1C109.9 42.2 72.5 21 72.5 21C72.5 21 35.1 42.1 12.5 48C12.5 48 12.2 79.9 26.5 110.6L18.9 112.8L15 138L41.9 135.1C49.8 144.3 59.8 152.4 72.5 157.9C85.2 152.3 95.2 144.3 103 135.1L130 138L126.1 112.9L118.5 110.7ZM22.1 72.6L19.3 72.8C19.3 72.8 16.8 58.6 17.3 51C17.3 51 51.3 39.1 70.1 27.8C70.9 27.3 71.8 26.8 72.5 26.3C73.3 26.8 74.1 27.3 74.9 27.8C93.7 39.1 127.7 51 127.7 51C128.2 58.6 125.7 72.8 125.7 72.8L122.9 72.6C125.2 64.5 125.2 52.7 125.2 52.7C104.8 46.7 77.5 31.9 73.3 29.6C73.2 29.5 73 29.5 73 29.4L72.8 29.3L72.5 29.1L72.2 29.3L72 29.5C71.9 29.5 71.8 29.6 71.7 29.7C67.5 32 40.2 46.8 19.8 52.8C19.8 52.8 19.9 64.5 22.1 72.6ZM19.6 133.4L21.9 116.2L25.9 115.8L24.5 129.1L37.3 132L19.6 133.4ZM72.5 151.8C72.5 151.8 58.1 146 48.9 136.1C49.4 136.4 64.7 145.1 72.5 147.2C80.3 145.2 95.6 136.4 96.1 136.1C86.9 145.9 72.5 151.8 72.5 151.8ZM72.5 121.9C51.5 121.9 28.9 125.2 28.9 125.2L30.1 112C56.1 109.4 72.5 109.4 72.5 109.4C72.5 109.4 88.9 109.4 114.9 112L116.1 125.2C116.1 125.2 93.5 121.9 72.5 121.9ZM107.8 132L120.6 129.1L119.2 115.8L123.2 116.2L125.5 133.4L107.8 132Z" fill="black"/>
<path d="M72.4997 130L74.0997 133.4L77.7997 134L75.1997 136.6L75.7997 140.3L72.4997 138.6L69.1997 140.3L69.7997 136.6L67.1997 134L70.8997 133.4L72.4997 130Z" fill="#E6E6E6"/>
<path d="M103.6 133.4C101 131.8 85.6002 122.8 72.5002 122.8C59.4002 122.8 44.0002 131.9 41.4002 133.4L17.2002 136L20.5002 114.4L28.1002 112.1L28.4002 109.9C32.4002 109.1 46.8002 106.8 72.5002 106.8C98.2002 106.8 112.6 109.2 116.6 109.9L116.9 112.1L124.5 114.4L127.8 136L103.6 133.4Z" fill="#357584"/>
<path d="M126.1 112.9L118.5 110.7L118.2 108.4C118.2 108.4 103.4 103.6 72.2 103.6C40.9 103.6 26.8 108.4 26.8 108.4L26.5 110.7L18.9 112.9L15 138L41.9 135.1C41.9 135.1 58.7 124.5 72.5 124.5C86.2 124.5 103.1 135.1 103.1 135.1L130 138L126.1 112.9ZM19.6 133.4L21.9 116.2L25.9 115.8L24.5 129.1L37.3 132L19.6 133.4ZM72.5 121.2C51.5 121.2 28.9 125.1 28.9 125.1L30.1 111.9C54.2 108 61.8 108.1 72.5 108.2C83.1 108.3 88.8 108.4 114.9 111.9L116.1 125.1C116.1 125.2 93.5 121.2 72.5 121.2ZM107.8 132L120.6 129.1L119.2 115.8L123.2 116.2L125.5 133.4L107.8 132Z" fill="black"/>
<path d="M50.7999 114.3C50.7999 114 50.6999 113.6 50.6999 113.3C48.7999 113.5 46.7999 113.7 44.8999 113.9C45.0999 115.4 45.1999 116.9 45.3999 118.3C47.2999 118.1 49.1999 117.9 51.0999 117.7C51.0999 117.4 50.9999 117 50.9999 116.7C49.4999 116.8 47.9999 117 46.4999 117.1C46.4999 116.8 46.3999 116.6 46.3999 116.3C47.6999 116.2 48.9999 116 50.2999 115.9C50.2999 115.6 50.1999 115.3 50.1999 114.9C48.8999 115 47.5999 115.1 46.2999 115.3C46.2999 115.1 46.2999 114.8 46.1999 114.6C47.7999 114.6 49.2999 114.4 50.7999 114.3Z" fill="white"/>
<path d="M60.1998 114.8C59.8998 114.5 59.4998 114.4 58.9998 114.4C58.6998 114.4 58.1998 114.4 57.4998 114.5C56.7998 114.5 56.3998 114.6 55.9998 114.6C55.8998 114.6 55.7998 114.6 55.6998 114.5C55.5998 114.4 55.5998 114.4 55.5998 114.3C55.5998 114.2 55.5998 114.1 55.6998 114.1C55.7998 114 55.8998 114 55.9998 114C56.8998 113.9 57.7998 113.9 58.6998 113.8C58.7998 113.8 58.8998 113.8 58.9998 113.9C59.0998 114 59.0998 114 59.0998 114.1C59.4998 114.1 59.8998 114.1 60.3998 114C60.3998 113.6 60.1998 113.3 59.8998 113.1C59.5998 112.9 59.1998 112.7 58.7998 112.8C57.7998 112.9 56.7998 112.9 55.7998 113C55.3998 113 54.9998 113.2 54.6998 113.5C54.3998 113.8 54.2998 114.1 54.2998 114.5C54.2998 114.9 54.4998 115.2 54.7998 115.4C55.0998 115.6 55.4998 115.7 55.8998 115.7C56.8998 115.6 57.8998 115.6 58.8998 115.5C58.9998 115.5 59.0998 115.5 59.1998 115.6C59.2998 115.7 59.2998 115.8 59.2998 115.9C59.2998 116 59.2998 116.1 59.1998 116.2C59.0998 116.3 58.9998 116.3 58.8998 116.3C57.8998 116.4 56.9998 116.4 55.9998 116.5C55.8998 116.5 55.7998 116.5 55.6998 116.4C55.5998 116.3 55.5998 116.2 55.4998 116.1C55.0998 116.1 54.6998 116.2 54.2998 116.2C54.2998 116.6 54.4998 116.9 54.7998 117.1C55.0998 117.3 55.4998 117.5 55.8998 117.4C56.8998 117.3 57.9998 117.3 58.9998 117.2C59.3998 117.2 59.7998 117 60.0998 116.7C60.3998 116.4 60.4998 116.1 60.4998 115.7C60.6998 115.3 60.4998 115 60.1998 114.8Z" fill="white"/>
<path d="M70.1999 113.1C69.9999 112.9 69.7999 112.7 69.4999 112.5C69.1999 112.4 68.8999 112.3 68.5999 112.3C66.9999 112.3 65.4999 112.4 63.8999 112.4C63.8999 113.9 63.9999 115.4 63.9999 116.9C64.3999 116.9 64.7999 116.9 65.2999 116.9C65.2999 115.7 65.1999 114.6 65.1999 113.4C66.2999 113.4 67.3999 113.3 68.4999 113.3C68.6999 113.3 68.7999 113.3 68.9999 113.4C69.0999 113.5 69.1999 113.6 69.1999 113.8C69.1999 114 69.0999 114.1 68.9999 114.2C68.8999 114.3 68.6999 114.4 68.5999 114.4C67.8999 114.4 67.1999 114.4 66.4999 114.4C66.4999 114.7 66.4999 115.1 66.4999 115.4C67.1999 115.4 67.8999 115.4 68.6999 115.4C68.9999 115.4 69.2999 115.3 69.5999 115.2C69.8999 115.1 70.0999 114.9 70.1999 114.6C70.3999 114.4 70.3999 114.1 70.3999 113.8C70.4999 113.6 70.3999 113.4 70.1999 113.1Z" fill="white"/>
<path d="M80.1999 112.9C79.8999 112.6 79.5999 112.5 79.0999 112.5C77.8999 112.5 76.5999 112.4 75.3999 112.4C74.9999 112.4 74.5999 112.5 74.2999 112.8C73.9999 113.1 73.8999 113.4 73.8999 113.7C73.8999 114.3 73.8999 114.9 73.8999 115.6C73.8999 116 73.9999 116.3 74.2999 116.5C74.5999 116.8 74.8999 116.9 75.3999 116.9C76.5999 116.9 77.7999 116.9 78.9999 117C79.3999 117 79.7999 116.9 80.0999 116.6C80.3999 116.4 80.5999 116.1 80.5999 115.7C80.5999 115.1 80.5999 114.5 80.6999 113.8C80.5999 113.4 80.4999 113.1 80.1999 112.9ZM79.2999 115.4C79.2999 115.5 79.1999 115.7 79.0999 115.8C78.9999 115.9 78.7999 115.9 78.6999 115.9C77.6999 115.9 76.7999 115.9 75.7999 115.8C75.5999 115.8 75.4999 115.7 75.3999 115.6C75.2999 115.5 75.1999 115.4 75.1999 115.2C75.1999 114.7 75.1999 114.2 75.1999 113.8C75.1999 113.6 75.2999 113.5 75.3999 113.4C75.4999 113.3 75.6999 113.2 75.7999 113.2C76.7999 113.2 77.7999 113.2 78.6999 113.3C78.8999 113.3 78.9999 113.4 79.0999 113.5C79.1999 113.6 79.2999 113.7 79.2999 113.9C79.2999 114.4 79.2999 114.9 79.2999 115.4Z" fill="white"/>
<path d="M88.8001 115.7C89.2001 115.7 89.6001 115.6 89.9001 115.3C90.2001 115.1 90.4001 114.8 90.4001 114.4C90.4001 114 90.3001 113.7 90.0001 113.4C89.7001 113.1 89.3001 112.9 88.9001 112.9C87.4001 112.8 85.8001 112.7 84.3001 112.6C84.2001 114.1 84.2001 115.6 84.1001 117.1C84.5001 117.1 84.9001 117.1 85.4001 117.2C85.5001 116 85.5001 114.9 85.6001 113.7C86.7001 113.8 87.7001 113.8 88.8001 113.9C88.9001 113.9 89.1001 114 89.2001 114C89.3001 114.1 89.3001 114.2 89.3001 114.3C89.3001 114.4 89.2001 114.5 89.1001 114.6C89.0001 114.7 88.9001 114.7 88.7001 114.7C88.0001 114.7 87.3001 114.6 86.7001 114.6C86.7001 114.9 86.7001 115.3 86.6001 115.6C86.9001 115.6 87.2001 115.6 87.6001 115.7C88.0001 116.3 88.5001 116.8 88.9001 117.4C89.4001 117.4 89.9001 117.5 90.4001 117.5C89.7001 116.9 89.2001 116.3 88.8001 115.7Z" fill="white"/>
<path d="M93.8998 113.3C93.8998 113.6 93.7998 114 93.7998 114.3C94.5998 114.4 95.3998 114.4 96.1998 114.5C96.0998 115.7 95.9998 116.8 95.8998 118C96.2998 118 96.6998 118.1 97.1998 118.1C97.2998 117 97.3998 115.8 97.4998 114.7C98.2998 114.8 99.0998 114.9 99.8998 115C99.8998 114.7 99.9998 114.3 99.9998 114C97.9998 113.7 95.9998 113.5 93.8998 113.3Z" fill="white"/>
<path d="M35.7998 115.5L27.9998 116.6L27.7998 114.7L35.9998 113.6L35.7998 115.5Z" fill="black"/>
<path d="M35.7998 118.7L27.9998 119.7L27.7998 117.8L35.9998 116.7L35.7998 118.7Z" fill="black"/>
<path d="M35.7998 121.8L27.9998 122.8L27.7998 120.9L35.9998 119.8L35.7998 121.8Z" fill="black"/>
<path d="M109.2 115.5L117 116.6L117.2 114.7L109 113.6L109.2 115.5Z" fill="black"/>
<path d="M109.2 118.7L117 119.7L117.2 117.8L109 116.7L109.2 118.7Z" fill="black"/>
<path d="M109.2 121.8L117 122.8L117.2 120.9L109 119.8L109.2 121.8Z" fill="black"/>
<path d="M72.5 124.3C54.1 124.4 41 127.7 41 127.7C51.7 125.9 62.7 125.4 72.5 125.4C82.3 125.3 93.3 125.9 104 127.7C104 127.6 90.9 124.3 72.5 124.3Z" fill="#00E7FF"/>
<path d="M142.2 90.0001C135.8 87.5001 128.9 85.8001 128.9 85.8001C128.9 85.8001 117.3 83.1001 111.3 82.6001C110.9 82.5001 110.6 82.5001 110.2 82.4001L109.3 82.3001L107.9 82.1001L106.6 81.9001L105.7 81.8001C102 81.3001 98.2999 80.9001 94.5999 80.6001V80.5001L91.2999 80.3001L89.5999 80.2001H89.2999C87.3999 80.1001 85.5999 80.0001 83.6999 79.9001H83.2999H81.6999H80.8999H79.5999C77.9999 79.9001 76.2999 79.8001 74.6999 79.8001H71.0999V80.4001C68.9999 79.9001 66.8999 79.6001 64.9999 79.6001C64.7999 79.6001 64.5999 79.6001 64.3999 79.6001C61.9999 79.7001 60.1999 80.1001 58.6999 81.0001C57.5999 81.6001 56.0999 82.9001 55.1999 85.2001C54.9999 84.6001 54.8999 84.0001 54.6999 83.4001L53.8999 80.5001L50.8999 80.7001C47.8999 80.9001 44.8999 81.3001 41.9999 81.6001L38.9999 81.7001L38.6999 84.7001C38.6999 84.9001 38.6999 85.0001 38.6999 85.2001L38.1999 81.8001L34.5999 82.3001C32.9999 82.5001 31.2999 82.8001 29.6999 83.1001L28.1999 83.4001L27.1999 83.6001L26.1999 83.8001L24.6999 84.1001C23.0999 84.4001 21.4999 84.7001 19.7999 85.1001L16.1999 85.9001C16.1999 85.9001 9.2999 87.6001 2.8999 90.1001L18.0999 113L21.1999 110L24.7999 109.2C26.2999 108.9 27.6999 108.6 29.1999 108.3L31.4999 107.9L33.7999 107.5C35.2999 107.2 36.7999 107 38.2999 106.8L39.9999 106.5L41.6999 106.3C43.1999 106.1 44.6999 105.9 46.1999 105.7L48.8999 105.4L51.6999 105.1C53.1999 105 54.6999 104.8 56.1999 104.7L60.5999 104.4L60.3999 103.8C61.6999 104.3 63.1999 104.6 64.9999 104.6C65.1999 104.6 65.3999 104.6 65.5999 104.6C67.1999 104.6 68.9999 104.3 70.9999 103.9V104.2H74.5999C76.0999 104.2 77.5999 104.2 79.0999 104.3L80.7999 104.4L82.6999 104.5C84.3999 104.6 86.0999 104.7 87.7999 104.8L89.5999 104.9L91.3999 105C95.1999 105.3 98.8999 105.7 102.7 106.2L104.8 106.5L106.8 106.8C108.3 107 109.7 107.3 111.2 107.5L112.9 107.8L114.6 108.1C116.2 108.4 117.8 108.7 119.4 109.1L124.2 110.1V110L127.1 112.8L142.2 90.0001Z" fill="black"/>
<path d="M72.4997 104.3C49.5997 104.4 33.1997 107.7 33.1997 107.7C46.5997 105.9 60.2997 105.4 72.4997 105.4C84.6997 105.3 98.3997 105.9 111.8 107.7C111.8 107.6 95.3997 104.3 72.4997 104.3Z" fill="#E6E6E6"/>
<path d="M124.3 80.7001C123.1 82.3001 117.9 83.4001 114.8 83.9001C111.7 84.4001 108.6 83.9001 106.1 84.6001C103.7 85.2001 97.7998 86.4001 95.8998 86.1001C94.0998 85.8001 92.9998 85.2001 92.9998 85.2001C92.9998 85.2001 87.7998 85.8001 86.5998 85.6001C85.3998 85.4001 72.3998 85.6001 72.3998 85.6001C72.3998 85.6001 59.4998 85.4001 58.1998 85.6001C56.9998 85.8001 51.7998 85.2001 51.7998 85.2001C51.7998 85.2001 50.6998 85.8001 48.8998 86.1001C47.0998 86.4001 41.1998 85.2001 38.6998 84.6001C36.2998 84.0001 33.1998 84.4001 29.9998 83.9001C26.8998 83.4001 21.6998 82.3001 20.4998 80.7001C19.2998 79.1001 18.1998 74.0001 18.6998 71.2001C19.1998 68.4001 23.3998 61.7001 23.9998 60.5001C24.5998 59.3001 25.6998 57.6001 26.8998 54.9001C27.6998 53.0001 30.0998 51.4001 31.4998 50.6001C31.4998 49.8001 31.5998 49.0001 31.7998 48.4001C32.9998 44.5001 44.2998 41.8001 44.2998 41.8001C44.5998 37.6001 46.7998 33.9001 47.9998 32.1001C47.8998 31.0001 47.9998 29.7001 48.1998 28.1001C49.1998 21.1001 52.7998 17.6001 55.3998 16.4001C56.5998 10.3001 60.9998 8.2001 63.0998 7.6001C65.6998 3.3001 71.2998 2.2001 72.2998 2.1001C72.2998 2.1001 72.2998 2.1001 72.3998 2.1001C72.4998 2.1001 72.4998 2.1001 72.4998 2.1001C73.4998 2.3001 79.0998 3.4001 81.6998 7.6001C83.7998 8.3001 88.1998 10.4001 89.3998 16.4001C91.9998 17.5001 95.5998 21.0001 96.5998 28.0001C96.7998 29.5001 96.8998 30.9001 96.7998 32.0001C97.9998 33.8001 100.2 37.5001 100.5 41.7001C100.5 41.7001 111.8 44.4001 113 48.3001C113.2 49.0001 113.3 49.7001 113.3 50.5001C114.7 51.3001 117.1 52.9001 117.9 54.8001C119 57.5001 120.1 59.3001 120.7 60.4001C121.3 61.5001 125.5 68.3001 126 71.1001C126.6 73.9001 125.6 79.1001 124.3 80.7001Z" fill="#357584"/>
<path d="M72.1999 23.2002C72.1999 23.2002 68.6999 29.5002 66.9999 31.0002C65.2999 32.6002 59.2999 37.7002 59.9999 41.1002C60.6999 44.5002 63.6999 52.6002 63.9999 53.6002C64.2999 54.6002 72.1999 59.5002 72.1999 59.5002C72.1999 59.5002 80.1999 56.1002 81.1999 53.4002C82.2999 50.7002 85.2999 41.1002 85.2999 41.1002C85.2999 41.1002 82.8999 34.3002 80.5999 32.8002C78.2999 31.3002 72.1999 23.2002 72.1999 23.2002Z" fill="#38484C"/>
<path d="M62.3997 57.2C62.3997 57.2 56.2997 53.7 55.3997 50.5C54.4997 47.2 56.8997 32.4 57.3997 31.1C57.9997 29.8 59.9997 24.4 62.4997 23.2C64.9997 22 70.1997 20.5 70.1997 20.5C70.1997 20.5 71.3997 22.6 70.5997 25.2C69.7997 27.8 66.8997 30.8 63.9997 33.1C61.1997 35.5 58.5997 39.8 60.3997 43.4C62.0997 47 62.4997 47.4 62.6997 49.7C62.9997 52 62.3997 57.2 62.3997 57.2Z" fill="#024C4A"/>
<path d="M82.8998 57.2C82.8998 57.2 88.9998 53.7 89.8998 50.5C90.7998 47.2 88.3998 32.4 87.8998 31.1C87.2998 29.8 85.2998 24.4 82.7998 23.2C80.2998 22 75.0998 20.5 75.0998 20.5C75.0998 20.5 73.8998 22.6 74.6998 25.2C75.4998 27.8 78.3998 30.8 81.2998 33.1C84.0998 35.5 86.6998 39.8 84.8998 43.4C83.1998 47 82.7998 47.4 82.5998 49.7C82.2998 52 82.8998 57.2 82.8998 57.2Z" fill="#024C4A"/>
<path d="M54.2996 64.9002C54.2996 64.9002 52.6996 63.8002 51.9996 64.1002C51.2996 64.4002 51.0996 66.8002 50.4996 67.9002C49.9996 68.9002 47.5996 68.4002 46.2996 70.9002C44.9996 73.4002 44.0996 80.6002 46.9996 81.8002C49.8996 83.0002 57.2996 84.3002 58.6996 84.0002C60.0996 83.7002 63.0996 80.0002 63.3996 78.3002C63.6996 76.6002 63.8996 72.9002 62.5996 72.2002C61.2996 71.5002 55.1996 72.3002 54.6996 70.9002C54.1996 69.5002 54.4996 65.6002 54.2996 64.9002Z" fill="#0C343D"/>
<path d="M90.6994 64.9002C90.6994 64.9002 92.2994 63.8002 92.9994 64.1002C93.6994 64.4002 93.8994 66.8002 94.4994 67.9002C94.9994 68.9002 97.3994 68.4002 98.6994 70.9002C99.9994 73.4002 100.899 80.6002 97.9994 81.8002C95.0994 83.0002 87.6994 84.3002 86.2994 84.0002C84.8994 83.7002 81.8994 80.0002 81.5994 78.3002C81.2994 76.6002 81.0994 72.9002 82.3994 72.2002C83.6994 71.5002 89.7994 72.3002 90.2994 70.9002C90.7994 69.5002 90.4994 65.6002 90.6994 64.9002Z" fill="#0C343D"/>
<path d="M100.2 43.6C99.7996 40.3 97.5996 37.5001 96.5996 34.4001C95.2996 30.1001 96.0996 25 93.2996 21.5C92.0996 20 90.1996 19 89.1996 17.3C87.9996 15.5 87.7996 13.2 86.4996 11.5C85.5996 10.4 84.2996 9.70005 82.9996 9.30005C82.0996 9.00005 81.1996 8.70005 80.7996 8.00005C80.4996 7.50005 80.3996 6.90005 80.1996 6.40005C79.6996 5.10005 78.2996 4.40005 76.9996 3.90005C76.7996 3.80005 76.4996 3.70005 76.2996 3.60005C75.3996 3.10005 74.2996 2.80005 73.1996 2.80005C72.9996 2.80005 72.7996 2.80005 72.4996 2.80005C72.2996 2.80005 72.0996 2.80005 71.7996 2.80005C70.6996 2.80005 69.6996 3.10005 68.6996 3.60005C68.4996 3.70005 68.1996 3.80005 67.9996 3.90005C66.6996 4.40005 65.2996 5.10005 64.7996 6.40005C64.5996 6.90005 64.4996 7.60005 64.1996 8.00005C63.6996 8.70005 62.7996 9.00005 61.9996 9.30005C60.6996 9.80005 59.3996 10.4 58.4996 11.5C57.1996 13.2 56.8996 15.5 55.7996 17.3C54.6996 18.9 52.8996 19.9 51.6996 21.5C48.8996 25 49.7996 30.1001 48.3996 34.4001C47.3996 37.6001 45.1996 40.3 44.7996 43.6C44.4996 45.8 45.0996 47.9 46.1996 49.8C46.9996 51.2 49.1996 54.4001 50.9996 54.7001C53.2996 55.0001 50.9996 51.5001 50.5996 50.4001C49.5996 47.9001 49.0996 45.2 48.8996 42.6C48.8996 41.9 48.9996 40.9 49.6996 40.8C49.9996 40.8 50.2996 40.9 50.5996 40.8C51.2996 40.7 51.4996 39.6001 51.3996 38.9001C51.1996 34.6001 51.7996 30.3 53.2996 26.3C53.3996 26.1 53.4996 25.9 53.6996 25.8C54.1996 25.6 54.4996 26.3 54.6996 26.8C54.7996 27.3 55.4996 27.9 55.7996 27.5C56.8996 23.5 58.1996 19.6 59.8996 15.8C60.0996 15.6 60.4996 15.8 60.6996 16.1C60.8996 16.4 60.8996 16.7 60.9996 17C61.2996 17.5 61.9996 17.7 62.5996 17.5C63.1996 17.3 63.5996 16.8 63.9996 16.4C65.6996 14.7 67.3996 12.8 69.2996 11.4C71.1996 10 73.7996 10 75.7996 11.4C77.6996 12.8 79.4996 14.6 81.0996 16.4C81.4996 16.8 81.9996 17.3 82.4996 17.5C83.0996 17.7 83.7996 17.6 84.0996 17C84.2996 16.7 84.2996 16.4 84.3996 16.1C84.5996 15.8 84.9996 15.6 85.1996 15.8C86.7996 19.6 88.1996 23.5 89.2996 27.5C89.5996 27.9 90.1996 27.3 90.3996 26.8C90.4996 26.3 90.8996 25.6 91.3996 25.8C91.5996 25.9 91.6996 26.1 91.7996 26.3C93.2996 30.3 93.8996 34.6001 93.6996 38.9001C93.6996 39.7001 93.7996 40.7 94.4996 40.8C94.7996 40.8 95.0996 40.7 95.3996 40.8C96.0996 40.9 96.2996 41.9 96.1996 42.6C95.9996 45.3 95.4996 47.9001 94.4996 50.4001C94.0996 51.5001 91.7996 55.0001 94.0996 54.7001C95.8996 54.4001 98.0996 51.2 98.8996 49.8C99.7996 47.9 100.4 45.7 100.2 43.6Z" fill="#0C343D"/>
<path d="M46.6998 84.2C46.5998 82.9 45.6998 81.7 44.5998 81.3C43.8998 81.1 43.1998 81 42.5998 80.6C41.8998 80.1 41.5998 79.2 41.0998 78.5C40.9998 78.3 40.6998 78 40.4998 78.1C40.3998 78.1 40.2998 78.2 40.2998 78.3C39.7998 78.9 40.1998 79.8 40.4998 80.5C40.7998 81.2 40.8998 82.2 40.2998 82.6C39.7998 81.2 38.7998 80 37.4998 79.4C36.7998 79.1 35.7998 78.8 35.5998 78C35.3998 77.4 35.6998 76.7 36.0998 76.2C36.4998 75.7 36.8998 75.1 36.9998 74.5C36.9998 74.3 36.9998 74.1 36.8998 74C36.7998 73.9 36.5998 73.9 36.3998 73.9C34.2998 73.9 32.0998 74 29.9998 74C29.3998 74 28.7998 74 28.2998 73.8C27.7998 73.6 27.2998 73 27.3998 72.4C27.3998 72.1 27.5998 71.7 27.3998 71.4C27.2998 71.3 27.0998 71.3 26.9998 71.2C26.4998 71.2 25.9998 71.2 25.5998 71.2C25.3998 70.9 25.2998 70.4 25.2998 70C25.2998 69.1 25.5998 68.2 25.8998 67.3C26.1998 66.5 26.4998 65.8 26.8998 65C27.0998 64.6 27.2998 64.2 27.5998 64C28.2998 63.4 29.1998 63.5 30.0998 63.4C30.5998 63.3 31.0998 63.2 31.4998 63.1C32.2998 62.9 34.1998 63 34.9998 62.7C34.3998 62.3 32.8998 61.2 33.5998 59.2C33.9998 57.8 35.6998 57.7 36.3998 57.6C36.5998 57.3 36.3998 56.8 36.0998 56.6C35.8998 56.5 35.3998 55.6 34.7998 54.6C34.9998 53.8 35.5998 50.5 36.3998 49.5C37.1998 48.4 38.9998 48.9 39.7998 49.4C40.6998 50 44.8998 44 44.8998 44C44.8998 44 35.9998 46.2 34.9998 47.2C33.8998 48.2 32.8998 51.9 32.8998 51.9C32.8998 51.9 32.7998 52 32.4998 52.1C31.6998 52.3 31.0998 52.9 30.4998 53.6C30.0998 54 29.6998 54.4 29.5998 54.7C29.5998 54.8 29.4998 54.9 29.4998 55C28.3998 56.7 27.3998 58.8 26.1998 60C24.9998 61.2 23.9998 62.7 23.1998 64.2C22.8998 64.8 22.4998 65.4 22.1998 66C21.0998 67.2 20.7998 69 20.7998 70.6C20.7998 72 20.8998 73.3 21.0998 74.6C21.2998 76.1 21.7998 77.6 22.5998 78.9C22.7998 78.6 23.2998 78.3 23.6998 78.3C24.5998 78.3 29.3998 79.6 32.7998 78.5C32.7998 78.5 29.5998 82.1 25.2998 80.9C24.6998 80.7 24.1998 80.5 23.7998 80.4C23.8998 80.5 23.9998 80.6 24.0998 80.6C24.8998 81.3 25.8998 81.7 26.9998 82.1C29.4998 83 31.9998 83.4 34.5998 83.5C36.0998 83.5 37.4998 83.4 38.9998 83.6C41.4998 83.9 43.8998 85.1 46.3998 84.9C46.6998 84.9 46.9998 84.8 47.0998 84.5C46.6998 84.5 46.6998 84.3 46.6998 84.2Z" fill="#0C343D"/>
<path d="M98.2999 84.2C98.3999 82.9 99.2999 81.7 100.4 81.3C101.1 81.1 101.8 81 102.4 80.6C103.1 80.1 103.4 79.2 103.9 78.5C104 78.3 104.3 78 104.5 78.1C104.6 78.1 104.7 78.2 104.7 78.3C105.2 78.9 104.8 79.8 104.5 80.5C104.2 81.2 104.1 82.2 104.7 82.6C105.2 81.2 106.2 80 107.5 79.4C108.2 79.1 109.2 78.8 109.4 78C109.6 77.4 109.3 76.7 108.9 76.2C108.5 75.7 108.1 75.1 108 74.5C108 74.3 108 74.1 108.1 74C108.2 73.9 108.4 73.9 108.6 73.9C110.7 73.9 112.9 74 115 74C115.6 74 116.2 74 116.7 73.8C117.2 73.6 117.7 73 117.6 72.4C117.6 72.1 117.4 71.7 117.6 71.4C117.7 71.3 117.9 71.3 118 71.2C118.5 71.2 119 71.2 119.4 71.2C119.6 70.9 119.7 70.4 119.7 70C119.7 69.1 119.4 68.2 119.1 67.3C118.8 66.5 118.5 65.8 118.1 65C117.9 64.6 117.7 64.2 117.4 64C116.7 63.4 115.8 63.5 114.9 63.4C114.4 63.3 113.9 63.2 113.5 63.1C112.7 62.9 110.8 63 110 62.7C110.6 62.3 112.1 61.2 111.4 59.2C111 57.8 109.3 57.7 108.6 57.6C108.4 57.3 108.6 56.8 108.9 56.6C109.1 56.5 109.6 55.6 110.2 54.6C110 53.8 109.4 50.5 108.6 49.5C107.8 48.4 106 48.9 105.2 49.4C104.3 50 100.1 44 100.1 44C100.1 44 109 46.2 110 47.2C111.1 48.2 112.1 51.9 112.1 51.9C112.1 51.9 112.2 52 112.5 52.1C113.3 52.3 113.9 52.9 114.5 53.6C114.9 54 115.3 54.4 115.4 54.7C115.4 54.8 115.5 54.9 115.5 55C116.6 56.7 117.6 58.8 118.8 60C120 61.2 121 62.7 121.8 64.2C122.1 64.8 122.5 65.4 122.8 66C123.9 67.2 124.2 69 124.2 70.6C124.2 72 124.1 73.3 123.9 74.6C123.7 76.1 123.2 77.6 122.4 78.9C122.2 78.6 121.7 78.3 121.3 78.3C120.4 78.3 115.6 79.6 112.2 78.5C112.2 78.5 115.4 82.1 119.7 80.9C120.3 80.7 120.8 80.5 121.2 80.4C121.1 80.5 121 80.6 120.9 80.6C120.1 81.3 119.1 81.7 118 82.1C115.5 83 113 83.4 110.4 83.5C108.9 83.5 107.5 83.4 106 83.6C103.5 83.9 101.1 85.1 98.5999 84.9C98.2999 84.9 97.9999 84.8 97.8999 84.5C98.2999 84.5 98.2999 84.3 98.2999 84.2Z" fill="#0C343D"/>
<path d="M92.7 41.2001C90.1 30.6 85.7 23 83.9 21C82.2 18.9 73.7 17 72.6 16.8C71.5 17 63 18.9 61.3 21C59.5 23.1 55 30.6 52.5 41.2001C49.9 51.8001 55.9 54.5 55.9 54.5C55.9 54.5 53.7 48.1 54.5 43.1C55.3 38.1 59.3 27.9 61.7 24.8C63.9 22 71.6 18.9 72.7 18.5C73.8 18.9 81.4 22 83.7 24.8C86.1 27.8 90.1 38.1 90.9 43C91.7 47.9 89.5 54.4001 89.5 54.4001C89.5 54.4001 95.2 51.8001 92.7 41.2001Z" fill="#00E7FF"/>
<path d="M46.0996 74.6002C46.0996 74.6002 46.8996 71.9002 49.0996 71.1002C51.2996 70.3002 52.3996 69.1002 52.4996 67.4002C52.5996 65.7002 53.2996 66.3002 53.7996 66.6002C53.7996 66.6002 53.5996 65.2002 52.5996 64.8002C51.5996 64.4002 50.9996 64.6002 50.8996 65.7002C50.7996 66.8002 50.3996 68.9002 48.7996 69.3002C47.1996 69.7002 45.2996 71.8002 46.0996 74.6002Z" fill="#00E7FF"/>
<path d="M98.8997 74.6002C98.8997 74.6002 98.0997 71.9002 95.8997 71.1002C93.6997 70.3002 92.5997 69.1002 92.4997 67.4002C92.3997 65.7002 91.6997 66.3002 91.1997 66.6002C91.1997 66.6002 91.3997 65.2002 92.3997 64.8002C93.3997 64.4002 93.9997 64.6002 94.0997 65.7002C94.1997 66.8002 94.5997 68.9002 96.1997 69.3002C97.7997 69.6002 99.6997 71.8002 98.8997 74.6002Z" fill="#00E7FF"/>
<path d="M77.8 49.2001C76.9 47.2001 69.6 51.7001 69.8 46.4001C69.8 46.0001 69.6 43.8 72.3 42.1C71.9 36 65 36.9 62.5 38C62 38.1 61.8 36.8 62 36.3C59.5 37.8 60.3 43.5 63.1 45.6C62.8 46.5 63.1 47.7 64.2 48.1C64.6 48.2 65.1 49.0001 65.6 49.2001C66.4 49.6001 67.3 49.7001 68.3 49.7001C71 49.8001 72.9 50.7001 75.5 50.7001C77.9 50.7001 80.1 49.1001 77.8 49.2001Z" fill="#00E7FF"/>
<path d="M74.3999 40.2C74.3999 40.2 74.4999 38.1 76.9999 37.5C79.4999 36.9 81.3999 37.7 82.4999 38.2L81.1999 38.6C81.1999 38.6 82.8999 40.4 81.1999 42.2C80.1999 42.6 74.3999 40.2 74.3999 40.2Z" fill="#00E7FF"/>
<path d="M63.8002 50.9001C63.8002 51.9001 63.5002 52.7001 64.0002 53.7001C64.5002 54.6001 65.4002 55.0001 66.2002 55.4001C68.5002 56.6001 70.8002 57.8001 73.1002 59.1001C75.2002 60.2001 78.7002 56.7001 76.6002 55.6001C70.7002 57.5001 65.6002 52.9001 67.2002 50.6001C67.1002 48.2001 63.7002 48.5001 63.8002 50.9001Z" fill="#00E7FF"/>
<path d="M72.7002 43.2001C72.7002 43.2001 73.8002 42.9001 74.2002 43.6001C74.9002 45.3001 73.8002 45.7001 73.8002 45.7001L72.7002 43.2001Z" fill="#00E7FF"/>
<path d="M66.5 50.8001C66.5 50.8001 73.2 56.4001 79.6 49.4001L79.3 48.9001C79.3 48.9001 76.4 50.3001 73.6 50.3001C70.8 50.3001 66.9 49.5001 66.9 49.5001L66.5 50.8001Z" fill="#00E7FF"/>
<path d="M53.1 59.8002C52.5 59.3002 51.7 59.1002 50.9 58.7002C50.7 58.6002 50.4 58.4002 50.3 58.2002C50.3 57.7002 51.1 57.6002 51.3 57.1002C51.5 56.7002 51.2 56.3002 50.9 56.1002C49.5 54.6002 47.5 53.9002 45.7 53.2002C44.7 52.9002 43.8 52.5002 42.9 52.1002C42 51.7002 41.3 51.1002 40.4 50.6002C39.7 50.2002 38 50.0002 38 51.3002C38 51.6002 38.2 52.0002 38.4 52.2002C39.8 54.0002 41.9 55.2002 43.9 56.3002C43.4 56.6002 42.7 56.6002 42.2 56.5002C42 57.2002 42.6 57.9002 43.2 58.4002C44.1 59.1002 44.9 59.8002 45.8 60.5002C45.9 60.6002 46.1 60.7002 46.2 60.9002C46.4 61.2002 46.3 61.6002 46.1 61.9002C45.8 62.4002 45.2 62.7002 44.6 62.8002C44 62.9002 43.4 62.9002 42.8 62.8002C41.8 62.7002 40.7 62.6002 39.7 62.5002C39 62.4002 38.2 62.4002 37.7 62.9002C37.2 63.5002 37.3 64.5002 37.9 65.1002C38.1 65.3002 38.3 65.5002 38.6 65.6002L40.3 68.9002L44.6 69.4002L46.1 64.9002C46.5 66.2002 45.6 67.6002 45.8 68.9002C45.8 69.0002 45.8 69.1002 45.9 69.1002C46 69.2002 46.1 69.2002 46.2 69.2002C47.1 69.2002 47.9 69.1002 48.7 68.9002C49.5 68.6002 50.3 68.1002 50.6 67.3002C50.9 66.6002 50.9 65.9002 50.9 65.2002C51 64.5002 51.1 63.7002 51.7 63.3002C52.2 62.8002 53.1 62.8002 53.5 62.2002C54.1 61.3002 53.8 60.4002 53.1 59.8002Z" fill="#00E7FF"/>
<path d="M107.2 62.9001C106.7 62.4001 105.9 62.4001 105.2 62.5001C104.2 62.6001 103.1 62.7001 102.1 62.8001C101.5 62.8001 100.9 62.9001 100.3 62.8001C99.7002 62.7001 99.2002 62.4001 98.8002 61.9001C98.6002 61.6001 98.5002 61.2001 98.7002 60.9001C98.8002 60.7001 98.9002 60.6001 99.1002 60.5001C100 59.8001 100.8 59.1001 101.7 58.4001C102.3 57.9001 102.9 57.3001 102.7 56.5001C102.1 56.7001 101.5 56.6001 101 56.3001C103 55.2001 105.1 54.0001 106.5 52.2001C106.7 51.9001 106.9 51.6001 106.9 51.3001C106.9 50.1001 105.2 50.2001 104.5 50.6001C103.7 51.1001 102.9 51.7001 102 52.1001C101.1 52.5001 100.1 52.9001 99.2002 53.2001C97.3002 53.9001 95.4002 54.6001 94.0002 56.1001C93.7002 56.4001 93.5002 56.8001 93.6002 57.1001C93.8002 57.6001 94.7002 57.7001 94.6002 58.2001C94.6002 58.5001 94.3002 58.6001 94.0002 58.7001C93.3002 59.0001 92.4002 59.2001 91.8002 59.8001C91.2002 60.3001 90.8002 61.3001 91.3002 62.0001C91.7002 62.6001 92.5002 62.7001 93.1002 63.1001C93.6002 63.6001 93.8002 64.3001 93.9002 65.0001C94.0002 65.7001 93.9002 66.5001 94.2002 67.1001C94.5002 67.9001 95.3002 68.4001 96.1002 68.7001C96.9002 69.0001 97.8002 69.0001 98.6002 69.0001C98.7002 69.0001 98.9002 69.0001 98.9002 68.9001C99.0002 68.8001 99.0002 68.8001 99.0002 68.7001C99.2002 67.4001 98.3002 66.0001 98.7002 64.7001L100.2 69.2001L104.5 68.7001L106.2 65.4001C106.5 65.3001 106.7 65.1001 106.9 64.9001C107.6 64.5001 107.7 63.5001 107.2 62.9001Z" fill="#00E7FF"/>
<path d="M56.6997 41.2001C56.6997 41.2001 56.6997 33.8001 62.2997 31.4001L62.0997 32.5001C62.0997 32.5001 62.4997 31.7001 63.7997 30.8001C65.0997 30.0001 67.7997 28.1001 68.8997 23.7001L69.7997 22.4001C69.7997 22.4001 70.6997 23.5001 70.4997 24.2001C70.2997 24.9001 68.3997 29.5001 67.2997 30.5001C66.1997 31.4001 56.6997 41.2001 56.6997 41.2001Z" fill="#00E7FF"/>
<path d="M60.0996 27.7001C60.0996 27.7001 60.5996 26.0001 63.0996 25.1001C65.6996 24.2001 66.5996 23.7001 67.5996 22.1001L68.5996 21.9001C68.5996 21.9001 68.0996 24.5001 66.7996 25.2001C65.5996 25.9001 60.0996 27.7001 60.0996 27.7001Z" fill="#00E7FF"/>
<path d="M58.5996 39.7002C58.5996 39.7002 57.5996 45.3002 58.5996 48.6002L57.0996 48.1002C57.0996 48.1002 58.1996 52.7002 60.8996 54.9002L60.6996 47.6002L58.5996 39.7002Z" fill="#00E7FF"/>
<path d="M88.2997 41.2001C88.2997 41.2001 88.2997 33.8001 82.6997 31.4001L82.8997 32.5001C82.8997 32.5001 82.4997 31.7001 81.1997 30.8001C79.8997 30.0001 77.1997 28.1001 76.0997 23.7001L75.1997 22.4001C75.1997 22.4001 74.2997 23.5001 74.4997 24.2001C74.6997 24.9001 76.5997 29.5001 77.6997 30.5001C78.7997 31.4001 88.2997 41.2001 88.2997 41.2001Z" fill="#00E7FF"/>
<path d="M84.8999 27.7001C84.8999 27.7001 84.3999 26.0001 81.8999 25.1001C79.2999 24.2001 78.3999 23.7001 77.3999 22.1001L76.3999 21.9001C76.3999 21.9001 76.8999 24.5001 78.1999 25.2001C79.3999 25.9001 84.8999 27.7001 84.8999 27.7001Z" fill="#00E7FF"/>
<path d="M86.3996 39.7002C86.3996 39.7002 87.3996 45.3002 86.3996 48.6002L87.8996 48.1002C87.8996 48.1002 86.7996 52.7002 84.0996 54.9002L84.2996 47.6002L86.3996 39.7002Z" fill="#00E7FF"/>
<path d="M62.3999 38.2C62.3999 38.2 63.5999 38.6 63.8999 38.9C63.3999 39.8 62.5999 41.1 63.9999 42.5C64.9999 43.4 66.1999 43.8 68.3999 43.1C70.5999 42.4 70.6999 40.6 70.4999 39.9C70.1999 38.7 67.2999 36.8 62.3999 38.2Z" fill="black"/>
<path d="M74.4998 39.9C74.2998 40.7 74.3998 42.4 76.5998 43.1C78.7998 43.8 79.9998 43.4 80.9998 42.5C82.3998 41.2 81.5998 39.8 81.0998 38.9C81.3998 38.6 82.5998 38.2 82.5998 38.2C77.6998 36.8 74.7998 38.7 74.4998 39.9Z" fill="black"/>
<path d="M126.1 71.2001C125.6 68.4001 121.4 61.7001 120.8 60.5001C120.2 59.3001 119.1 57.6001 118 54.9001C117.2 53.0001 114.8 51.4001 113.4 50.6001C113.4 49.8001 113.3 49.0001 113.1 48.4001C111.9 44.5001 100.6 41.8001 100.6 41.8001C100.3 37.6001 98.0998 33.9001 96.8998 32.1001C96.8998 31.0001 96.8998 29.7001 96.6998 28.1001C95.6998 21.1001 92.0998 17.6001 89.4998 16.4001C88.2998 10.3001 83.8998 8.2001 81.7998 7.6001C79.1998 3.3001 73.5998 2.2001 72.5998 2.1001C72.5998 2.1001 72.5998 2.1001 72.4998 2.1001H72.3998C71.3998 2.3001 65.7998 3.4001 63.1998 7.6001C61.0998 8.3001 56.6998 10.4001 55.4998 16.4001C52.9998 17.5001 49.3998 21.0001 48.3998 28.0001C48.1998 29.5001 48.0998 30.9001 48.1998 32.0001C46.9998 33.8001 44.7998 37.5001 44.4998 41.7001C44.4998 41.7001 33.1998 44.4001 31.9998 48.3001C31.7998 49.0001 31.6998 49.7001 31.6998 50.5001C30.2998 51.3001 27.8998 52.9001 27.0998 54.8001C25.9998 57.5001 24.8998 59.3001 24.1998 60.4001C23.5998 61.6001 19.3998 68.3001 18.8998 71.1001C18.3998 73.9001 19.3998 79.0001 20.6998 80.6001C21.8998 82.2001 27.0998 83.3001 30.1998 83.8001C33.2998 84.3001 36.3998 83.8001 38.8998 84.5001C41.3998 85.1001 47.2998 86.3001 49.0998 86.0001C50.8998 85.7001 51.9998 85.1001 51.9998 85.1001C51.9998 85.1001 57.1998 85.7001 58.3998 85.5001C59.5998 85.3001 72.5998 85.5001 72.5998 85.5001C72.5998 85.5001 85.4998 85.3001 86.7998 85.5001C87.9998 85.7001 93.1998 85.1001 93.1998 85.1001C93.1998 85.1001 94.2998 85.7001 96.0998 86.0001C97.8998 86.3001 103.8 85.1001 106.3 84.5001C108.8 83.9001 111.8 84.3001 115 83.8001C118.1 83.3001 123.3 82.2001 124.5 80.6001C125.6 79.1001 126.6 73.9001 126.1 71.2001ZM48.7998 35.4001C49.3998 37.1001 50.2998 37.7001 50.2998 37.7001C49.5998 33.5001 49.9998 31.1001 51.1998 27.1001C52.0998 24.0001 54.3998 21.1001 55.3998 20.0001C55.3998 21.0001 55.4998 22.1001 55.6998 23.3001C55.6998 23.3001 56.0998 13.3001 62.1998 10.6001C61.9998 11.7001 61.9998 12.9001 62.1998 14.2001C62.1998 14.2001 63.0998 6.3001 72.5998 4.8001C82.0998 6.3001 82.9998 14.2001 82.9998 14.2001C83.1998 12.9001 83.1998 11.7001 82.9998 10.6001C89.0998 13.4001 89.4998 23.3001 89.4998 23.3001C89.6998 22.1001 89.7998 21.1001 89.7998 20.0001C90.6998 21.1001 92.9998 24.0001 93.9998 27.1001C95.1998 31.0001 95.4998 33.4001 94.8998 37.7001C94.8998 37.7001 95.6998 37.1001 96.3998 35.4001C97.1998 37.3001 98.8998 41.7001 97.6998 46.1001C96.0998 51.8001 88.9998 54.5001 88.9998 54.5001C91.9998 51.8001 92.9998 47.5001 92.6998 43.3001C92.3998 39.1001 88.5998 28.8001 85.3998 23.9001C82.3998 19.3001 74.0998 18.1001 72.8998 18.0001C72.8998 18.0001 72.8998 18.0001 72.7998 18.0001H72.6998C71.4998 18.2001 63.1998 19.4001 60.1998 23.9001C56.9998 28.8001 53.1998 39.2001 52.8998 43.3001C52.5998 47.4001 53.4998 51.8001 56.5998 54.5001C56.5998 54.5001 49.4998 51.8001 47.8998 46.1001C46.2998 41.7001 47.9998 37.3001 48.7998 35.4001ZM59.7998 50.1001L57.9998 49.1001C58.7998 52.5001 60.6998 54.8001 60.9998 55.1001C55.2998 50.6001 55.7998 44.9001 55.7998 44.9001C56.3998 46.3001 57.5998 47.3001 57.5998 47.3001C57.4998 42.0001 58.5998 39.7001 58.5998 39.7001C58.2998 45.9001 59.6998 49.9001 59.7998 50.1001ZM59.8998 37.3001C60.2998 34.7001 61.7998 32.3001 61.7998 32.3001C57.7998 34.7001 56.8998 40.8001 56.8998 40.8001C56.2998 32.2001 61.1998 29.3001 64.7998 27.6001C68.3998 25.9001 69.4998 23.2001 69.4998 23.2001C68.9998 25.9001 68.2998 29.0001 64.9998 31.0001C61.7998 33.0001 59.8998 37.3001 59.8998 37.3001ZM60.0998 27.7001C61.1998 23.4001 64.5998 24.7001 67.5998 22.0001C66.7998 24.3001 65.5998 24.6001 63.0998 25.5001C60.7998 26.6001 60.1998 27.6001 60.0998 27.7001ZM75.3998 23.2001C75.3998 23.2001 76.4998 26.0001 80.0998 27.6001C83.6998 29.3001 88.5998 32.1001 87.9998 40.8001C87.9998 40.8001 87.0998 34.7001 83.0998 32.3001C83.0998 32.3001 84.5998 34.6001 84.9998 37.3001C84.9998 37.3001 83.0998 33.0001 79.7998 31.0001C76.6998 29.0001 75.8998 25.9001 75.3998 23.2001ZM77.3998 22.1001C80.3998 24.7001 83.7998 23.5001 84.8998 27.8001C84.7998 27.7001 84.1998 26.6001 81.8998 25.7001C79.3998 24.6001 78.1998 24.4001 77.3998 22.1001ZM86.9998 49.1001L85.2998 50.1001C85.3998 49.9001 86.7998 45.9001 86.4998 39.7001C86.4998 39.7001 87.5998 42.0001 87.4998 47.3001C87.4998 47.3001 88.6998 46.3001 89.2998 44.9001C89.2998 44.9001 89.6998 50.6001 84.0998 55.1001C84.1998 54.8001 86.1998 52.6001 86.9998 49.1001ZM37.8998 66.9001C35.6998 66.4001 32.9998 65.8001 31.5998 66.0001C29.0998 66.3001 27.1998 69.3001 27.0998 69.5001C27.2998 69.4001 31.0998 67.7001 34.0998 68.7001C34.0998 68.7001 32.4998 70.6001 29.7998 71.2001C29.7998 71.2001 31.3998 72.2001 33.1998 71.8001C34.9998 71.4001 37.5998 70.0001 39.4998 69.9001C39.4998 69.9001 39.3998 71.1001 39.9998 72.3001C39.9998 72.3001 41.8998 71.0001 43.9998 70.7001C43.9998 70.7001 41.9998 78.9001 44.8998 83.9001C44.8998 83.9001 39.4998 83.5001 40.4998 76.2001C40.4998 76.2001 38.0998 78.7001 37.6998 81.9001C37.6998 81.9001 30.2998 82.2001 27.4998 81.4001C24.6998 80.6001 23.6998 79.3001 23.6998 79.3001C23.6998 79.3001 28.2998 81.0001 32.4998 78.7001C32.4998 78.7001 25.4998 78.7001 23.1998 77.1001C20.8998 75.6001 22.4998 70.9001 23.2998 68.7001C24.0998 66.4001 26.1998 61.7001 26.9998 61.0001C27.8998 60.4001 30.7998 59.5001 30.7998 59.5001C30.7998 59.5001 29.8998 56.7001 30.2998 55.7001C30.5998 55.0001 31.9998 54.2001 32.5998 53.8001C33.8998 56.7001 37.0998 59.2001 42.7998 58.5001C42.7998 58.5001 37.7998 57.0001 36.0998 53.3001C34.3998 49.6001 35.5998 48.9001 36.1998 47.8001C36.7998 46.7001 42.1998 45.7001 42.4998 45.6001C42.2998 45.7001 39.8998 46.8001 39.4998 48.5001C39.0998 50.2001 38.8998 52.0001 42.3998 53.7001C45.7998 55.4001 50.6998 56.1001 49.4998 57.1001C48.2998 58.1001 45.7998 56.8001 46.6998 58.5001C47.5998 60.3001 51.1998 60.3001 52.5998 61.5001C52.5998 61.5001 50.9998 61.7001 50.5998 62.5001C50.1998 63.3001 50.7998 64.2001 50.3998 66.2001C49.9998 68.3001 46.8998 67.9001 46.8998 67.9001C46.8998 67.9001 47.1998 65.2001 48.6998 62.2001C48.4998 62.3001 45.0998 63.8001 43.7998 67.5001L41.5998 67.6001C41.5998 67.6001 41.4998 67.6001 41.2998 67.5001C40.4998 65.7001 37.3998 60.2001 29.9998 63.4001C29.9998 63.5001 34.2998 62.4001 37.8998 66.9001ZM61.6998 77.5001C61.0998 77.9001 56.9998 77.5001 55.5998 77.2001C54.1998 76.9001 53.2998 76.7001 52.9998 76.8001C52.6998 76.9001 52.5998 77.4001 53.1998 77.8001C53.7998 78.2001 56.6998 79.0001 59.0998 79.1001C61.4998 79.2001 61.0998 79.7001 60.9998 80.0001C60.9998 80.4001 59.7998 80.8001 57.6998 80.6001C55.5998 80.4001 53.7998 79.4001 53.4998 79.4001C53.1998 79.4001 52.6998 79.9001 53.1998 80.4001C53.6998 81.0001 56.5998 81.8001 57.2998 82.0001C57.9998 82.1001 57.9998 82.6001 57.6998 82.9001C57.3998 83.2001 55.2998 83.1001 53.5998 82.6001C51.8998 82.1001 50.8998 81.2001 50.2998 80.8001C49.5998 80.4001 48.4998 80.9001 47.3998 79.5001C46.2998 78.1001 46.3998 74.4001 46.5998 73.3001C46.7998 72.2001 47.4998 70.8001 48.6998 70.4001C49.7998 70.0001 50.8998 69.8001 51.3998 68.8001C51.8998 67.8001 51.9998 65.6001 52.0998 65.4001C52.2998 65.1001 52.4998 65.2001 52.4998 65.2001C54.0998 66.5001 53.8998 67.6001 53.7998 68.6001C53.6998 69.6001 52.6998 70.7001 53.2998 71.2001C53.8998 71.7001 57.7998 72.9001 59.4998 73.0001C61.1998 73.1001 61.6998 73.2001 61.5998 73.6001C61.5998 74.0001 61.3998 74.5001 59.2998 74.5001C57.1998 74.5001 55.2998 73.8001 54.5998 73.6001C53.8998 73.5001 53.5998 73.9001 53.5998 74.3001C53.6998 74.7001 54.3998 75.1001 56.0998 75.5001C57.7998 76.0001 59.6998 75.8001 60.8998 76.0001C62.0998 76.1001 62.2998 77.1001 61.6998 77.5001ZM72.4998 57.5001C72.4998 57.5001 67.2998 56.0001 64.8998 52.3001C64.8998 52.3001 65.4998 51.0001 65.5998 49.3001C67.4998 51.1001 69.8998 52.2001 72.4998 52.2001C75.0998 52.2001 77.4998 51.1001 79.3998 49.3001C79.4998 51.0001 80.0998 52.3001 80.0998 52.3001C77.6998 56.0001 72.4998 57.5001 72.4998 57.5001ZM79.3998 48.2001C77.2998 49.2001 74.9998 49.7001 72.4998 49.7001C69.9998 49.7001 67.5998 49.1001 65.5998 48.2001C65.4998 46.1001 64.4998 43.7001 61.3998 41.9001C61.3998 41.9001 60.2998 37.9001 64.1998 34.3001C65.1998 33.4001 66.1998 32.5001 67.0998 31.7001C67.0998 31.7001 72.1998 28.4001 77.9998 31.7001C78.8998 32.5001 79.8998 33.4001 80.8998 34.3001C84.7998 38.0001 83.6998 41.9001 83.6998 41.9001C80.4998 43.8001 79.5998 46.2001 79.3998 48.2001ZM97.5998 79.6001C96.4998 81.0001 95.3998 80.5001 94.6998 80.9001C93.9998 81.3001 92.9998 82.2001 91.3998 82.7001C89.6998 83.2001 87.6998 83.3001 87.2998 83.0001C86.9998 82.7001 86.8998 82.2001 87.6998 82.1001C88.4998 82.0001 91.2998 81.1001 91.7998 80.5001C92.2998 79.9001 91.8998 79.5001 91.5998 79.5001C91.2998 79.5001 89.4998 80.5001 87.3998 80.7001C85.2998 80.9001 84.0998 80.5001 84.0998 80.1001C84.0998 79.7001 83.5998 79.2001 85.9998 79.2001C88.3998 79.2001 91.2998 78.4001 91.8998 77.9001C92.4998 77.4001 92.3998 76.9001 92.0998 76.9001C91.7998 76.8001 90.8998 77.0001 89.4998 77.3001C88.0998 77.6001 83.9998 78.0001 83.3998 77.6001C82.7998 77.2001 82.9998 76.1001 84.1998 76.0001C85.3998 75.9001 87.2998 76.0001 88.9998 75.5001C90.6998 75.0001 91.3998 74.7001 91.4998 74.3001C91.5998 73.9001 91.2998 73.5001 90.4998 73.6001C89.7998 73.7001 87.8998 74.5001 85.7998 74.5001C83.6998 74.5001 83.4998 74.0001 83.4998 73.6001C83.4998 73.2001 83.8998 73.1001 85.6998 73.0001C87.3998 72.9001 91.2998 71.7001 91.8998 71.2001C92.4998 70.7001 91.5998 69.6001 91.3998 68.6001C91.2998 67.6001 90.9998 66.5001 92.6998 65.2001C92.6998 65.2001 92.9998 65.2001 93.0998 65.4001C93.2998 65.7001 93.2998 67.8001 93.7998 68.8001C94.2998 69.8001 95.3998 70.1001 96.4998 70.4001C97.5998 70.8001 98.3998 72.1001 98.5998 73.3001C98.5998 74.5001 98.6998 78.2001 97.5998 79.6001ZM121.9 77.1001C119.6 78.6001 112.6 78.7001 112.6 78.7001C116.8 81.0001 121.4 79.3001 121.4 79.3001C121.4 79.3001 120.4 80.6001 117.6 81.4001C114.8 82.2001 107.4 81.9001 107.4 81.9001C107 78.7001 104.6 76.2001 104.6 76.2001C105.7 83.4001 100.2 83.9001 100.2 83.9001C103.1 78.9001 101.1 70.7001 101.1 70.7001C103.1 71.1001 105 72.3001 105 72.3001C105.6 71.0001 105.5 69.9001 105.5 69.9001C107.4 70.1001 110 71.5001 111.8 71.8001C113.6 72.2001 115.2 71.2001 115.2 71.2001C112.5 70.6001 110.9 68.7001 110.9 68.7001C113.9 67.7001 117.7 69.4001 117.9 69.5001C117.8 69.3001 115.9 66.3001 113.4 66.0001C112 65.8001 109.3 66.4001 107.1 66.9001C110.6 62.4001 115 63.5001 115.4 63.6001C107.9 60.4001 104.8 66.0001 104 67.7001C103.8 67.8001 103.7 67.8001 103.7 67.8001L101.5 67.7001C100.1 64.0001 96.7998 62.5001 96.5998 62.4001C98.0998 65.4001 98.3998 68.1001 98.3998 68.1001C98.3998 68.1001 95.2998 68.4001 94.8998 66.4001C94.4998 64.3001 95.0998 63.5001 94.6998 62.7001C94.2998 61.9001 92.6998 61.7001 92.6998 61.7001C94.0998 60.4001 97.6998 60.4001 98.5998 58.7001C99.4998 56.9001 96.9998 58.3001 95.7998 57.3001C94.5998 56.3001 99.4998 55.6001 103 53.9001C106.4 52.2001 106.3 50.4001 105.9 48.7001C105.5 47.0001 103.1 45.9001 102.9 45.8001C103.2 45.9001 108.6 46.9001 109.2 48.0001C109.8 49.1001 111 49.8001 109.3 53.5001C107.6 57.2001 102.6 58.7001 102.6 58.7001C108.3 59.4001 111.4 56.9001 112.8 54.0001C113.4 54.3001 114.8 55.1001 115.1 55.9001C115.5 56.8001 114.6 59.7001 114.6 59.7001C114.6 59.7001 117.5 60.6001 118.4 61.2001C119.3 61.8001 121.3 66.6001 122.1 68.9001C122.6 70.9001 124.2 75.5001 121.9 77.1001Z" fill="black"/>
<path d="M71 44.5002V45.3002C71 45.6002 71.3 45.8002 71.6 45.7002L72.4 45.4002V43.2002C71.6 43.2002 71 43.8002 71 44.5002Z" fill="black"/>
<path d="M72.6997 43.2002V45.4002L73.4997 45.7002C73.7997 45.8002 74.0997 45.6002 74.0997 45.3002V44.5002C73.9997 43.8002 73.3997 43.2002 72.6997 43.2002Z" fill="black"/>
<path d="M90.7997 62.9001H54.1997V63.4001H90.7997V62.9001Z" fill="#00E7FF"/>
<path d="M78 68.9001C77.8 68.7001 77.4 68.6001 77.2 68.8001C77.3 68.5001 77.3 68.2001 77.1 68.0001C76.8 67.7001 76.4 67.7001 76.1 68.0001C75.8 68.3001 75.8 68.7001 76.1 69.0001C76.2 69.1001 76.2 69.1001 76.3 69.1001L75.5 69.9001C75.8 70.0001 76 70.2001 76.2 70.4001L76.9 69.7001C76.9 69.8001 77 69.8001 77 69.9001C77.3 70.2001 77.7 70.2001 78 69.9001C78.2 69.6001 78.2 69.2001 78 68.9001Z" fill="#164956"/>
<path d="M68.4998 77C68.4998 76.9 68.3998 76.9 68.3998 76.8C68.0998 76.5 67.6998 76.5 67.3998 76.8C67.0998 77.1 67.0998 77.5 67.3998 77.8C67.5998 78 67.9998 78.1 68.1998 77.9C68.0998 78.2 68.0998 78.5 68.2998 78.7C68.5998 79 68.9998 79 69.2998 78.7C69.5998 78.4 69.5998 78 69.2998 77.7C69.1998 77.6 69.1998 77.6 69.0998 77.6L70.2998 76.4V76.1C70.0998 76 69.8998 75.9 69.6998 75.8L68.4998 77ZM68.3998 77.7C68.3998 77.6 68.4998 77.6 68.3998 77.7C68.4998 77.6 68.4998 77.6 68.3998 77.7C68.4998 77.7 68.4998 77.6 68.3998 77.7Z" fill="#164956"/>
<path d="M76.6998 76.8C76.5998 76.9 76.5998 76.9 76.5998 77L75.3998 75.8C75.1998 75.9 74.9998 76 74.7998 76.1V76.4L75.9998 77.6C75.8998 77.6 75.8998 77.7 75.7998 77.7C75.4998 78 75.4998 78.4 75.7998 78.7C76.0998 79 76.4998 79 76.7998 78.7C76.9998 78.5 77.0998 78.1 76.8998 77.9C77.1998 78 77.4998 78 77.6998 77.8C77.9998 77.5 77.9998 77.1 77.6998 76.8C77.3998 76.6 76.8998 76.6 76.6998 76.8ZM76.4998 77.6C76.4998 77.6 76.5998 77.6 76.4998 77.6C76.4998 77.7 76.4998 77.6 76.4998 77.6Z" fill="#164956"/>
<path d="M67.9999 69.9001C68.0999 69.8001 68.0999 69.8001 68.0999 69.7001L68.7999 70.4001C68.9999 70.2001 69.2999 70.0001 69.4999 69.9001L68.6999 69.1001C68.7999 69.1001 68.7999 69.0001 68.8999 69.0001C69.1999 68.7001 69.1999 68.3001 68.8999 68.0001C68.5999 67.7001 68.1999 67.7001 67.8999 68.0001C67.6999 68.2001 67.5999 68.6001 67.7999 68.8001C67.4999 68.7001 67.1999 68.7001 66.9999 68.9001C66.6999 69.2001 66.6999 69.6001 66.9999 69.9001C67.2999 70.2001 67.6999 70.2001 67.9999 69.9001Z" fill="#164956"/>
<path d="M76.5999 72.8002C76.5999 71.2002 74.7999 70.0002 72.4999 70.0002C70.1999 70.0002 68.3999 71.3002 68.3999 72.8002C68.3999 74.0002 69.4999 75.1002 71.0999 75.5002V77.6002C71.0999 77.8002 71.2999 78.0002 71.4999 78.0002C71.6999 78.0002 71.8999 77.8002 71.8999 77.6002C71.8999 77.8002 72.0999 78.0002 72.2999 78.0002C72.4999 78.0002 72.6999 77.8002 72.6999 77.6002C72.6999 77.8002 72.8999 78.0002 73.0999 78.0002C73.2999 78.0002 73.4999 77.8002 73.4999 77.6002C73.4999 77.8002 73.6999 78.0002 73.8999 78.0002C74.0999 78.0002 74.2999 77.8002 74.2999 77.6002V75.5002C75.4999 75.1002 76.5999 74.1002 76.5999 72.8002ZM70.7999 74.2002C70.1999 74.2002 69.5999 73.8002 69.5999 73.4002C69.5999 73.0002 70.0999 72.6002 70.7999 72.6002C71.3999 72.6002 71.8999 73.0002 71.8999 73.4002C71.8999 73.9002 71.3999 74.2002 70.7999 74.2002ZM72.9999 74.7002C72.8999 74.8002 72.6999 74.7002 72.4999 74.5002C72.4999 74.5002 72.4999 74.4002 72.3999 74.4002C72.3999 74.4002 72.3999 74.5002 72.2999 74.5002C72.0999 74.7002 71.8999 74.7002 71.7999 74.7002C71.6999 74.6002 71.7999 74.4002 71.9999 74.2002C72.0999 74.1002 72.2999 74.0002 72.3999 74.0002C72.4999 74.0002 72.5999 74.0002 72.7999 74.2002C72.9999 74.4002 73.0999 74.6002 72.9999 74.7002ZM74.2999 74.2002C73.6999 74.2002 73.0999 73.8002 73.0999 73.4002C73.0999 73.0002 73.5999 72.6002 74.2999 72.6002C74.8999 72.6002 75.3999 73.0002 75.3999 73.4002C75.3999 73.9002 74.8999 74.2002 74.2999 74.2002Z" fill="#164956"/>
<path d="M31.1999 86.8C31.5999 89 31.8999 91.1 32.2999 93.3C30.6999 93.6 28.9999 93.9 27.3999 94.2C26.9999 92 26.5999 89.9 26.1999 87.7C24.5999 88 22.9999 88.3 21.3999 88.7C22.4999 94.3 23.6999 100 24.7999 105.6C26.2999 105.3 27.7999 105 29.2999 104.7C28.8999 102.5 28.4999 100.3 28.0999 98.1C29.6999 97.8 31.2999 97.5 32.8999 97.2C33.2999 99.4 33.5999 101.6 33.9999 103.8C35.4999 103.5 36.9999 103.3 38.4999 103.1C37.6999 97.4 36.8999 91.7 35.9999 86C34.3999 86.3 32.7999 86.5 31.1999 86.8Z" fill="#E6E6E6"/>
<path d="M43.3 85.0001C42.8 90.9001 42.4 96.7001 42 102.6C43.5 102.4 45 102.2 46.6 102C46.6 101.3 46.7 100.5 46.7 99.8001C48.4 99.6001 50 99.4001 51.7 99.3001C51.9 100 52 100.7 52.2 101.5C53.7 101.4 55.2 101.2 56.8 101.1C55.3 95.4001 53.8 89.8001 52.1 84.1001C49.2 84.4001 46.2 84.7001 43.3 85.0001ZM47 95.8001C47.1 93.3001 47.3 90.8001 47.5 88.4001C47.9 88.4001 48.3 88.3001 48.7 88.3001C49.3 90.7001 50 93.1001 50.6 95.5001C49.4 95.6001 48.2 95.7001 47 95.8001Z" fill="#E6E6E6"/>
<path d="M66.9998 96.9C66.0998 96.9 65.4998 96.8 65.0998 96.6C64.6998 96.4 64.3998 96 64.1998 95.5C63.9998 94.9 63.8998 94 63.7998 92.8C63.7998 92.5 63.6998 92.1 63.6998 91.5C63.6998 90.4 63.6998 89.5 63.8998 88.9C64.0998 88.3 64.3998 87.8 64.8998 87.5C65.3998 87.2 66.0998 87 67.0998 87C68.0998 87 69.4998 87.1 71.1998 87.3C71.1998 86.1 71.2998 84.9 71.2998 83.7C69.1998 83.2 67.1998 83 65.3998 83C63.6998 83.1 62.2998 83.4 61.2998 83.9C60.2998 84.4 59.6998 85.4 59.2998 86.7C58.8998 88 58.7998 89.9 58.8998 92.4C58.9998 94.5 59.2998 96.2 59.7998 97.4C60.1998 98.6 60.9998 99.5 61.9998 100.1C62.9998 100.7 64.4998 100.9 66.2998 100.9C67.7998 100.9 69.4998 100.6 71.2998 100.2C71.2998 99 71.1998 97.7 71.1998 96.5C69.5998 96.8 68.1998 96.9 66.9998 96.9Z" fill="#E6E6E6"/>
<path d="M84.4999 83.5C83.6999 85.8 82.9999 88.1 82.2999 90.4C81.5999 90.5 80.9999 90.5 80.2999 90.6C80.3999 88.2 80.3999 85.8 80.4999 83.4C78.8999 83.4 77.2999 83.3 75.5999 83.3C75.4999 89.1 75.4999 94.8 75.3999 100.6C76.8999 100.6 78.3999 100.6 79.8999 100.7C79.9999 98.7 79.9999 96.6 80.0999 94.6C80.6999 94.6 81.3999 94.5 81.9999 94.5C82.4999 96.6 83.0999 98.8 83.5999 100.9C85.2999 101 87.0999 101.1 88.7999 101.2C87.9999 98.2 87.0999 95.3 86.2999 92.4C87.4999 89.6 88.6999 86.8 89.9999 84C88.1999 83.7 86.2999 83.6 84.4999 83.5Z" fill="#E6E6E6"/>
<path d="M92.5 101.4C96.3 101.7 100.1 102.1 104 102.6C104.2 101.3 104.3 100 104.5 98.6C102.2 98.3 99.8 98 97.4 97.8C97.5 96.9 97.6 96 97.7 95.1C99.6 95.3 101.4 95.5 103.3 95.7C103.5 94.4 103.6 93.1 103.8 91.8C101.9 91.6 100 91.3 98.1 91.1C98.2 90.2 98.3 89.3 98.4 88.4C100.8 88.7 103.3 88.9 105.7 89.3C105.9 88 106 86.7 106.2 85.3C102.1 84.8 98 84.3 93.9 84C93.4 89.9 92.9 95.6 92.5 101.4Z" fill="#E6E6E6"/>
<path d="M122.6 89.8001C121.7 88.6001 120.1 87.7001 117.8 87.3001C115.4 86.9001 113 86.5001 110.5 86.1001C109.7 91.8001 108.8 97.5001 108 103.2C109.5 103.4 111 103.7 112.5 103.9C112.8 102.2 113.1 100.5 113.4 98.8001C114.2 98.9001 115 99.1001 115.7 99.2001C115.8 101 115.9 102.8 116 104.6C117.6 104.9 119.3 105.2 120.9 105.6C120.7 103.4 120.5 101.2 120.3 99.0001C122 98.0001 123 96.5001 123.4 94.6001C123.8 92.6001 123.6 91.0001 122.6 89.8001ZM118.6 93.6001C118.5 94.2001 118.2 94.7001 117.9 95.0001C117.5 95.4001 117.1 95.5001 116.5 95.4001C115.7 95.3001 114.9 95.1001 114 95.0001C114.2 93.6001 114.5 92.2001 114.7 90.8001C115.5 90.9001 116.3 91.1001 117.1 91.2001C117.6 91.3001 118.1 91.6001 118.3 92.1001C118.7 92.5001 118.7 93.0001 118.6 93.6001Z" fill="#E6E6E6"/>
<path d="M124 88.8C124 88.8 120.3 87.8 117.2 87.2L120.4 90.5L120.3 90.6L120.4 93.3C123.9 91.7 135.3 91.8 135.3 91.8C132.5 90.8 124 88.8 124 88.8Z" fill="#E6E6E6"/>
<path d="M22.0997 88.9L21.3997 88.7L20.9997 88.8C20.9997 88.8 12.4997 90.9 9.69971 91.8C9.69971 91.8 21.0997 91.7 24.5997 93.3L24.6997 90.6L21.9997 89.4V88.9H22.0997Z" fill="#E6E6E6"/>
<path d="M12.6997 97.3L20.2997 94.8L20.8997 97.9L12.6997 97.3Z" fill="#E6E6E6"/>
<path d="M15.4995 101.9L21.3995 100L21.8995 102.7L15.4995 101.9Z" fill="#E6E6E6"/>
<path d="M132.3 97.3L124.7 94.8L124.1 97.9L132.3 97.3Z" fill="#E6E6E6"/>
<path d="M129.5 101.9L123.6 100L123.1 102.7L129.5 101.9Z" fill="#E6E6E6"/>
<path d="M45.4002 32.8999C45.4002 32.8999 42.7002 38.3999 44.4002 41.5999C44.4002 41.5999 44.9002 36.4999 48.1002 31.8999L45.4002 32.8999Z" fill="#00E7FF"/>
<path d="M99.6004 32.8999C99.6004 32.8999 102.3 38.3999 100.6 41.5999C100.6 41.5999 100.1 36.4999 96.9004 31.8999L99.6004 32.8999Z" fill="#00E7FF"/>
<path d="M17.5998 85.4999C17.5998 85.4999 23.0998 84.3999 28.9998 83.7999C28.9998 83.7999 24.9998 82.5999 15.2998 84.0999L17.5998 85.4999Z" fill="#00E7FF"/>
<path d="M127.4 85.4999C127.4 85.4999 121.9 84.3999 116 83.7999C116 83.7999 120 82.5999 129.7 84.0999L127.4 85.4999Z" fill="#00E7FF"/>
</g>
<defs>
<clipPath id="clip0_98_3164">
<rect width="145" height="160" fill="white"/>
</clipPath>
</defs>
</svg>
