<svg width="68" height="80" viewBox="0 0 68 80" fill="none" xmlns="http://www.w3.org/2000/svg">
<g clip-path="url(#clip0_97_2900)">
<path d="M56.95 52.812H62.4467L64.0333 58.2256L62.7867 58.5865V66.1654L63.0133 66.2256L63.5233 71.7594H43.1233C40.7433 74.2857 38.25 76.5714 35.5867 78.7368L34.0567 80.0602L32.5267 78.7368C29.92 76.5714 27.4267 74.2256 24.99 71.7594H5.72333L4.19333 66.2857L5.44 65.985V58.2857L5.1 58.1654L4.70333 52.6917H11.2767C8.16 46.6767 5.83667 40.2406 4.64667 33.5639L2.04 31.9399C1.30333 31.5188 1.02 30.4962 1.36 29.6541L1.7 28.9925L1.41667 28.8722C1.36 28.812 1.30333 28.812 1.30333 28.7519C1.13333 28.6316 0.963333 28.4511 0.85 28.2707L0 27.7895L2.94667 22.5564L3.68333 23.0376V22.2556L5.38333 21.5338C8.78333 20.1504 12.1833 18.8271 15.64 17.5639C16.8867 17.1429 18.1333 16.6617 19.3233 16.2406C19.8333 13.9549 20.6833 11.7293 21.9867 9.86466C22.95 8.54135 24.0267 7.2782 25.2167 6.13534C26.69 4.75188 28.2767 3.42857 29.8633 2.22556C30.6 1.68421 31.3933 1.14286 32.1867 0.601504L33.32 0L34.2833 0.541353C34.9067 0.902256 35.53 1.26316 36.0967 1.56391C37.1167 2.16541 38.1367 2.82707 39.1 3.48872C40.2333 4.03008 41.5933 5.17293 42.5 6.01504C43.01 6.43609 43.4633 6.91729 43.9167 7.45865C44.8233 8.54135 45.6733 9.68421 46.3533 10.8872C46.5233 11.188 46.6933 11.5489 46.8067 11.9098C47.4867 13.1729 47.9967 14.6767 48.3367 16.1805C49.64 16.6015 51 17.0226 52.3033 17.5038C55.7033 18.8271 59.16 20.1504 62.56 21.4737L64.26 22.1955V22.9774L64.9967 22.4962L67.9433 27.7293L67.2067 28.1504C67.0933 28.3308 66.9233 28.5714 66.7533 28.6316C66.6967 28.6917 66.64 28.6917 66.64 28.7519L66.3567 28.8722L66.6967 29.594C67.0933 30.4361 66.81 31.4586 66.0167 31.8797L63.41 33.5038C62.39 40.3609 60.0667 46.797 56.95 52.812Z" fill="url(#paint0_linear_97_2900)"/>
<path d="M6.40332 24.1806C6.57332 45.4137 19.38 64.3009 34.1133 76.4513C48.9033 64.2407 61.6533 45.4137 61.8233 24.1806C61.8233 24.1806 58.2533 22.737 51.6233 20.1505C44.9933 17.564 34.0567 15.2783 34.0567 15.2783C34.0567 15.2783 23.1767 17.6242 16.49 20.1505C9.97332 22.737 6.40332 24.1806 6.40332 24.1806Z" fill="#873720"/>
<path d="M7.76346 25.2631C8.04679 34.406 10.7101 43.188 14.9035 51.0075C19.7201 60.1504 26.6335 68.2105 34.1135 74.5263C41.5368 68.1504 48.4501 60.1504 53.3235 51.0075C57.5168 43.1278 60.1801 34.406 60.4635 25.2631C58.9901 24.6616 55.9301 23.4586 51.2268 21.6541C45.3335 19.3684 35.8135 17.2631 34.1701 16.8421C32.4701 17.2631 23.0635 19.3684 17.1135 21.6541C12.3535 23.4586 9.23679 24.7218 7.76346 25.2631ZM12.5235 52.5714C7.99012 43.9699 5.10012 34.3458 5.04346 24.1804V23.0977L6.00679 22.7368C6.00679 22.7368 9.69012 21.2331 16.2635 18.7067C22.9501 16.1804 33.9435 13.7744 33.9435 13.7744H34.4535C34.5101 13.7744 45.4468 16.1804 52.1335 18.7067C58.7068 21.2331 62.3335 22.7368 62.3901 22.7368L63.3535 23.0977V24.1804C63.2401 34.3458 60.4068 43.9098 55.8168 52.5714C50.6035 62.4962 43.1235 71.0977 35.0768 77.7143L34.2268 78.4361L33.3768 77.7143C25.2735 71.0977 17.7935 62.4962 12.5235 52.5714Z" fill="#240347"/>
<path d="M17.3971 29.1731L8.61377 35.549C8.61377 35.549 12.5238 52.752 21.6471 63.8197C30.7704 74.8874 34.5671 76.1505 34.5671 76.1505C34.5671 76.1505 45.5038 66.5265 51.0004 58.5265C56.3838 50.5265 60.9171 36.0904 60.9171 36.0904L53.3804 35.7295L17.3971 29.1731Z" fill="#240347"/>
<path d="M54.7971 32.6015L55.1371 33.5639L48.9604 29.9549L49.8671 29.7744L50.5471 30.1353L50.2638 30.4962L53.4938 32.3609L53.8904 32L54.7971 32.6015Z" fill="#3875DA"/>
<path d="M50.2638 30.6767L48.9604 29.9549L49.8671 29.7744L50.5471 30.1353L50.2638 30.4962L50.3771 30.5564L50.2638 30.6767Z" fill="#12EBFA"/>
<path d="M55.3068 33.925L54.7968 34.346L48.5635 30.8573L48.6768 30.1355L55.3068 33.925Z" fill="#3875DA"/>
<path d="M55.3068 33.925L55.0235 34.2257L49.6968 31.2784L49.5835 31.4588L48.5635 30.8573L48.6768 30.1355L55.3068 33.925Z" fill="#12EBFA"/>
<path d="M53.4367 34.1055L43.5201 52.5716L42.3867 52.1506L52.53 33.6243L53.4367 34.1055Z" fill="white"/>
<path d="M52.0768 33.3233L41.8768 52.03L39.4968 50.7669L39.0435 49.8646L49.1868 31.6992L52.0768 33.3233Z" fill="#C6C8C9"/>
<path d="M39.6668 50.827L39.4968 50.7669L39.0435 49.8646L49.1868 31.6992L50.0368 32.1804L39.6668 50.827Z" fill="#12EBFA"/>
<path d="M17.3402 28.0303C17.3402 27.91 17.3402 27.91 17.3402 27.7897L19.6636 25.7445L23.9136 22.9175L22.8936 15.3987L40.9136 18.7671L43.3502 23.2182L47.1469 25.7445L49.4702 27.7897C49.4702 27.91 49.4702 27.91 49.4702 28.0303L57.9702 33.7445C57.5736 35.0077 57.0636 36.6919 56.4402 38.9175C55.7602 41.143 53.9469 44.0904 51.6236 47.0979C51.5102 47.1581 51.2836 47.2182 51.1702 47.2784L48.4502 49.3235C46.6936 51.4889 45.3336 54.0754 43.4636 56.1205C42.5002 57.2032 41.4236 58.346 40.3469 59.3686C38.6469 60.9927 37.1169 62.6769 35.4169 64.3611L34.3402 65.7445L32.0169 63.2784C30.3736 61.5942 28.6736 59.8498 26.9736 58.2257C25.8969 57.2032 24.9336 56.0603 23.8569 54.9776C21.9302 52.8724 20.0602 50.7069 18.2469 48.5415L17.1136 48.0603C14.3369 42.707 11.6169 36.5716 10.0869 32.7821L17.3402 28.0303ZM42.5569 22.0152L39.6669 18.1054L42.7269 22.0152C42.7269 22.0152 42.6136 22.0152 42.5569 22.0152Z" fill="#240347"/>
<path d="M25.1035 25.2632C25.1035 25.2632 24.5368 27.4887 26.9735 32.1805C29.0702 36.2707 32.6402 38.4963 33.4335 38.9775C34.1702 38.1955 35.2468 37.1128 36.2102 34.8271C37.1735 32.5414 37.4002 31.6391 37.4002 31.6391L34.3968 34.406V28.9925L35.6435 30.1354C35.6435 30.1354 36.5502 29.8948 38.2502 28.6918C40.0068 27.4887 42.2168 25.4436 42.2168 25.4436L42.1035 25.3233C41.7068 25.6241 39.7802 27.0677 37.6268 27.8496C35.3035 28.6918 35.8702 28.3309 35.8702 28.3309L33.5468 27.9098L31.2235 28.3309C31.2235 28.3309 31.8468 28.6918 29.4668 27.8496C27.2568 26.9474 25.1035 25.2632 25.1035 25.2632Z" fill="#55526F"/>
<path d="M26.8604 32.0603C26.917 32.1205 26.917 32.1806 26.9737 32.1806C29.0703 36.331 32.5837 38.5566 33.4337 39.0378C34.1704 38.2558 35.247 37.1731 36.2104 34.8874C37.1737 32.6017 37.4004 31.6994 37.4004 31.6994L34.397 34.4663V28.9927L35.6437 30.1355C35.6437 30.1355 36.5504 29.8949 38.2504 28.6919C40.007 27.4889 42.217 25.4438 42.217 25.4438L42.1037 25.3235C41.707 25.6242 39.7804 27.0678 37.627 27.8498C35.3037 28.6919 35.8704 28.331 35.8704 28.331L33.547 27.91L33.717 35.4889L35.1903 34.5265L33.207 37.3536C33.207 37.3536 29.5237 35.0678 27.937 33.3836C27.427 32.9024 27.1437 32.4212 26.8604 32.0603Z" fill="#2D2846"/>
<path d="M31.6204 25.925L26.6904 23.8799C26.6904 23.8799 28.7304 26.1054 29.5804 26.4062C30.5438 26.707 31.6204 25.925 31.6204 25.925ZM35.4171 25.925L40.3471 23.8799C40.3471 23.8799 38.3071 26.1054 37.4571 26.4062C36.4938 26.707 35.4171 25.925 35.4171 25.925Z" fill="#FDDB34"/>
<path d="M33.5469 45.6541C33.5469 45.6541 30.1469 43.8496 28.1636 41.5639C26.1236 39.2782 25.3303 37.5338 25.3303 37.5338L26.4636 42.5263C26.4636 42.5263 24.9336 39.0977 24.1403 36.7519C23.4036 34.4661 23.3469 32.7819 23.3469 32.7819L22.6669 34.2857C22.6669 34.2857 22.7236 33.0225 23.0069 32.0601C23.2903 31.0376 23.7436 30.5564 23.7436 30.5564L23.8003 28.5113L20.4569 30.6767C20.4569 30.6767 20.5703 31.7594 21.1369 33.9849C21.7036 36.2105 21.9303 36.812 21.9303 36.812C21.9303 36.812 20.7969 35.5489 20.0036 33.6842C19.2669 31.6391 18.9836 31.2782 18.9836 31.2782C18.9836 31.2782 18.6436 35.0075 20.6269 40C22.6103 44.9925 28.6736 49.0827 28.6736 49.0827L28.2769 47.2782L33.4903 51.3083L38.7036 47.2782L38.3069 49.0827C38.3069 49.0827 44.4269 45.0526 46.3536 40C48.3369 35.0075 47.9403 31.2782 47.9403 31.2782C47.9403 31.2782 47.7136 31.6992 46.9203 33.5037C46.1269 35.3684 44.9936 36.6316 44.9936 36.6316C44.9936 36.6316 45.2769 36.0902 45.7869 33.8045C46.3536 31.5789 46.4669 30.4962 46.4669 30.4962L43.1236 28.3308L43.1803 30.3759C43.1803 30.3759 43.6336 30.8571 43.9169 31.8797C44.2003 32.9022 44.2569 34.1052 44.2569 34.1052L43.5769 32.6015C43.5769 32.6015 43.5203 34.2255 42.7836 36.5714C42.0469 38.9173 40.5736 42.3458 40.5736 42.3458L41.6503 37.3534C41.6503 37.3534 40.9136 39.0977 38.8169 41.3834C36.9469 43.8496 33.5469 45.6541 33.5469 45.6541Z" fill="#FDDB34"/>
<path d="M33.5469 45.6543C33.5469 45.6543 30.1469 43.8498 28.1635 41.564C26.9735 40.2407 26.1802 39.0377 25.8402 38.3159C26.2369 40.7219 31.2802 46.6768 33.6035 47.0377C35.6435 46.737 40.8569 40.9024 41.3669 38.3159C40.9702 39.0377 40.1769 40.2407 39.0435 41.564C36.9469 43.8498 33.5469 45.6543 33.5469 45.6543ZM23.2335 31.5791C23.5169 30.8573 23.8569 30.4964 23.8569 30.4964L23.9135 28.4513L21.5902 29.955L21.3069 30.0753L20.7402 30.4362L20.5702 30.5565C20.5702 30.5565 20.6835 31.5189 21.1369 33.4437C21.5902 34.4663 22.1002 35.3686 22.5535 35.9099C23.7435 37.4738 23.8002 37.4738 23.8002 37.4738L26.8035 43.549L26.4635 42.4062C26.1802 41.8046 24.8769 38.7971 24.1969 36.752C23.4602 34.4663 23.4035 32.7821 23.4035 32.7821L22.7235 34.2858C22.7235 34.2858 22.7802 33.0227 23.0635 32.0603V32.0001V31.94V31.8798L23.2335 31.5791ZM46.3535 30.3761L43.2935 28.3911L43.3502 30.4362C43.3502 30.4362 43.6902 30.7971 43.9735 31.5189V31.5791V31.6392V31.6994V31.7595V31.8197C44.2569 32.8422 44.3135 34.0452 44.3135 34.0452L43.6335 32.5415C43.6335 32.5415 43.5769 34.1655 42.8402 36.5716C42.1602 38.6167 40.8569 41.6242 40.5735 42.2257L40.2335 43.3686L43.1235 37.2934C43.1235 37.2934 43.1235 37.2934 44.3702 35.7295C44.7669 35.1881 45.3335 34.2858 45.7869 33.2633C46.2969 31.2783 46.3535 30.3761 46.3535 30.3761ZM19.0402 31.2783C19.0402 31.2783 18.6435 35.0077 20.6269 40.0001C22.6102 44.9926 28.6735 49.0828 28.6735 49.0828L28.2769 47.2783L33.4902 51.3084L38.7035 47.2783L38.3069 49.0828C38.3069 49.0828 44.4269 45.0528 46.3535 40.0001C48.3369 35.0077 47.9402 31.2783 47.9402 31.2783C47.9402 31.2783 47.8835 36.6317 45.1635 40.6016C42.5569 44.5716 39.6669 46.6768 39.6669 46.6768L39.7235 44.8122L33.6035 49.4437L27.4835 44.8122L27.5402 46.6768C27.5402 46.6768 24.6502 44.6317 21.9302 40.6016C19.0969 36.5716 19.0402 31.2783 19.0402 31.2783Z" fill="#EE7E24"/>
<path d="M20.0034 34.5867C20.0034 34.5867 20.2301 36.4513 22.2134 39.6995C24.1968 42.9476 26.8601 45.534 26.8601 45.534L27.3701 44.2107C27.3701 44.2107 28.9568 45.4739 30.2601 46.4964C31.5634 47.519 31.9034 47.6393 31.9034 47.6393C31.9034 47.6393 29.5801 45.4137 28.4468 44.5115C27.3701 43.5491 27.0301 43.128 27.0301 43.128L26.6334 44.5716C26.6334 44.5716 23.1201 40.722 21.8734 38.5566C20.6268 36.3912 20.0034 34.5867 20.0034 34.5867Z" fill="#FDDB34"/>
<path d="M20.1737 23.158L20.117 21.0527C20.0604 19.97 20.2304 18.5866 20.4004 17.5038C20.797 15.0377 21.647 12.6317 23.0637 10.5866C23.9704 9.26324 25.047 8.12039 26.1237 7.09783C27.597 5.71437 29.0704 4.45121 30.657 3.24821C31.337 2.70685 32.1304 2.1655 32.9237 1.62415L33.3204 1.38354L33.717 1.62415C34.3404 1.9249 34.9637 2.2858 35.4737 2.6467C36.4937 3.24821 37.5137 3.90986 38.5337 4.57151C38.5337 4.57151 39.8937 5.17302 41.6504 6.97753C42.1037 7.39858 42.6137 7.81963 42.9537 8.30084C43.8037 9.32339 44.6537 10.4061 45.277 11.549C45.3904 11.7896 45.617 12.1505 45.6737 12.4512C49.0737 18.7069 48.2804 32.8422 48.2804 32.8422L48.3937 33.2632L44.8804 28.0302C44.5404 27.549 44.2004 27.0076 43.8037 26.5264C43.0104 25.5038 42.217 24.4211 41.3104 23.3986C40.517 22.4963 39.4404 21.4136 38.4204 20.752C37.3437 20.0903 36.1537 19.4888 35.0204 19.0678C34.6237 18.9475 34.2837 18.767 33.887 18.6467C33.1504 18.9475 32.357 19.3084 31.5637 19.6091L32.0737 20.8121L31.3937 21.2332C30.827 21.6542 30.2604 22.0151 29.6937 22.4362C28.447 23.3384 27.3137 24.2407 26.1237 25.2632C25.1037 26.1655 23.9137 27.3084 23.1204 28.4512C22.327 29.7144 21.5337 30.9775 20.7404 32.1805C20.5137 32.6016 20.2304 33.0226 20.0037 33.5038L18.3037 36.6918L18.417 33.0226C18.4737 32.1805 18.5304 31.2783 18.587 30.4362C18.757 28.5715 18.9837 26.7069 19.437 24.9023C19.8337 24.361 20.0037 23.7595 20.1737 23.158Z" fill="#240347"/>
<path d="M45.8435 27.549C45.8435 27.549 41.9335 21.7746 39.1569 20.0904C36.2669 18.4062 34.1135 17.8648 34.1135 17.8648C34.1135 17.8648 29.5802 19.6092 27.9935 20.8122C26.2935 21.955 25.6702 22.9174 25.6702 22.9174C25.6702 22.9174 27.0869 22.1956 29.0135 21.534C30.9402 20.8122 31.3369 20.6919 31.3369 20.6919C31.3369 20.6919 25.0469 24.7821 22.8369 28.1505C20.6269 31.5189 19.7202 33.3235 19.7202 33.3235C19.7202 33.3235 19.8335 27.549 21.1935 23.158C22.5535 18.7671 25.8969 14.5565 25.8969 14.5565C25.8969 14.5565 24.5369 15.158 23.1769 17.3235C21.7035 19.4287 20.9669 21.0528 20.9669 21.0528C20.9669 21.0528 20.8535 15.5189 23.8002 11.1881C26.7469 6.85729 33.4335 2.46631 33.4335 2.46631C33.4335 2.46631 40.1202 6.01518 42.5002 8.9024C44.8802 11.7295 45.1635 12.9926 45.1635 12.9926C45.1635 12.9926 44.2002 11.3686 42.3869 9.8648C40.5736 8.4212 37.9669 6.97759 37.9669 6.97759C37.9669 6.97759 39.7235 8.4212 40.8002 10.2257C41.8769 12.0302 43.0669 16.1204 43.0669 16.1204C43.0669 16.1204 42.4436 15.0979 40.4036 13.7144C38.3636 12.331 35.9835 11.4889 35.9835 11.4889C35.9835 11.4889 41.0836 15.5791 43.2369 18.6468C45.3902 21.7144 45.5602 23.0979 45.5602 23.0979C45.5602 23.0979 44.5969 21.955 43.0669 20.9926C41.5369 19.9701 40.4036 19.4889 40.4036 19.4889C40.4036 19.4889 42.9535 21.7144 44.0302 23.5189C44.9935 25.2633 45.8435 27.549 45.8435 27.549Z" fill="#55526F"/>
<path d="M34.0003 17.8047C34.0003 17.8047 29.4669 19.549 27.8803 20.752C26.1803 21.8949 25.5569 22.8573 25.5569 22.8573C25.5569 22.8573 26.9736 22.1355 28.9003 21.4738C30.8269 20.8122 31.2236 20.6317 31.2236 20.6317C31.2236 20.6317 24.9336 24.722 22.7236 28.0904C20.5136 31.4588 19.6069 33.2633 19.6069 33.2633C19.6069 33.2633 19.7769 27.4889 21.1369 23.0979C22.4969 18.6468 25.7836 14.4362 25.7836 14.4362C25.7836 14.4362 25.6703 14.4964 25.5569 14.5565L28.1636 12.5716C28.1636 12.5716 26.6903 13.534 24.4803 17.6844C22.2703 21.8949 20.9103 28.5114 20.9103 28.5114C20.9103 28.5114 21.3636 27.4889 22.8369 25.9851C24.2536 24.4813 25.3303 23.6392 25.3303 23.6392L23.8003 24.0001C23.8003 24.0001 25.7836 21.4137 28.7869 19.6092C31.6769 17.8047 34.0003 17.8047 34.0003 17.8047ZM21.8736 19.1881C21.2503 20.2708 20.9103 20.9926 20.9103 20.9926C20.9103 20.9926 20.7969 15.4588 23.7436 11.128C26.6903 6.79714 33.4336 2.46631 33.4336 2.46631C33.4336 2.46631 28.9003 6.19563 25.4436 10.4663C22.6669 13.8347 21.9869 17.7445 21.8736 19.1881Z" fill="#7E7F9D"/>
<path d="M17.9068 30.2556C17.9068 30.2556 17.2268 37.594 21.4201 44.3308C25.6134 51.0676 29.0701 53.7143 29.0701 53.7143L24.7634 47.3383C24.7634 47.3383 29.3534 51.7293 31.6768 53.1128C34.0001 54.4962 34.0001 54.4962 34.0001 54.4962C34.0001 54.4962 41.8201 49.9248 45.5034 45.0526C49.1868 40.1804 49.9234 33.624 49.9234 33.624C49.9234 33.624 50.6034 36.0301 48.3934 42.1052C46.1268 48.1804 44.5401 50.406 44.5401 50.406C44.5401 50.406 45.9001 48.9624 47.6568 46.4361C49.4134 43.9097 50.2634 41.8646 50.2634 41.8646C50.2634 41.8646 48.6201 47.8797 46.1268 51.3684C43.6334 54.9774 43.6334 54.9774 43.6334 54.9774L46.3534 53.6541C46.3534 53.6541 42.3868 58.827 39.3834 61.3534C36.3801 63.8797 34.7934 64.7819 34.7934 64.7819C34.7934 64.7819 27.4268 58.5263 23.4034 53.6541C19.4368 48.7218 17.3968 44.2105 17.3968 44.2105C17.3968 44.2105 18.0768 46.4962 18.9268 48.7819C19.8334 51.0676 20.2868 51.9098 20.2868 51.9098C20.2868 51.9098 17.7368 48.9022 15.2434 42.827C12.8068 36.7519 12.5234 34.6466 12.5234 34.6466C12.5234 34.6466 13.6001 33.5037 14.2234 32.9022C14.8468 32.3609 14.8468 32.3609 14.8468 32.3609C14.8468 32.3609 15.7534 35.4887 16.1501 36.9323C16.5468 38.2556 17.1134 39.0376 17.1134 39.0376C17.1134 39.0376 15.8668 32.8421 16.0368 31.9398C16.1501 31.0376 17.9068 30.2556 17.9068 30.2556Z" fill="#55526F"/>
<path d="M24.7635 47.2783C24.7635 47.2783 29.3535 51.6693 31.6768 53.0528C34.0002 54.4362 34.0002 54.4362 34.0002 54.4362C34.0002 54.4362 41.8202 49.8047 45.5602 44.9325C49.2435 40.0603 49.9802 33.5039 49.9802 33.5039C49.9802 33.5039 50.6602 35.9099 48.4502 41.9851C46.1835 48.0603 44.5968 50.2859 44.5968 50.2859C44.5968 50.2859 45.9568 48.8423 47.7135 46.3159C49.4702 43.7896 50.3202 41.7445 50.3202 41.7445C50.3202 41.7445 48.6768 47.7595 46.1835 51.2483C43.6335 54.9174 43.6335 54.9174 43.6335 54.9174L46.3535 53.5941C46.3535 53.5941 42.3868 58.7671 39.3835 61.2934C36.3802 63.8197 34.7935 64.722 34.7935 64.722C34.7935 64.722 27.4268 58.5265 23.4035 53.5941C21.2502 50.9475 19.7202 48.4212 18.6435 46.6167C19.6635 48.2407 21.3635 50.5265 24.2535 53.1129C29.8635 58.2859 33.4902 58.5265 34.3968 58.6468C35.3035 58.8272 38.9302 57.0227 38.9302 57.0227C38.9302 57.0227 35.5868 59.6092 35.0768 59.7896C34.5668 59.9099 29.8068 58.0453 29.8068 58.0453L34.8502 62.3159C34.8502 62.3159 39.7802 58.8874 41.0835 57.143C42.4435 55.3986 44.1435 52.0302 44.1435 52.0302L40.2335 55.2783C40.2335 55.2783 41.5935 53.6543 43.2935 50.8874C44.9368 48.0603 45.8435 46.1355 45.8435 46.1355C45.8435 46.1355 45.6735 46.2558 43.0102 49.2032C40.2902 52.2107 34.0568 55.94 34.0568 55.94C34.0568 55.94 33.7168 55.5791 30.9402 53.7144C28.2202 51.8498 24.7635 47.2783 24.7635 47.2783ZM18.4168 47.4588C18.5302 47.8798 18.7568 48.3009 18.8702 48.7821C19.7768 51.0678 20.2302 51.9099 20.2302 51.9099C20.2302 51.9099 17.6802 48.9024 15.1868 42.8272C14.9602 42.2257 14.7335 41.6242 14.5068 41.143C15.6968 43.1881 17.4535 45.955 18.4168 47.4588Z" fill="#2D2846"/>
<path d="M17.9068 30.2556C17.9068 30.2556 17.2268 37.594 21.4201 44.3308C25.6134 51.0676 29.0701 53.7143 29.0701 53.7143C21.5901 48.4812 18.0201 41.8646 16.7168 32.5413L16.0368 32.9624C15.9801 32.5413 15.9801 32.1804 15.9801 31.9398C16.1501 31.0376 17.9068 30.2556 17.9068 30.2556ZM12.9201 36.2707C12.5801 35.0676 12.5234 34.6466 12.5234 34.6466C12.5234 34.6466 13.6001 33.5037 14.2234 32.9022C14.8468 32.3609 14.8468 32.3609 14.8468 32.3609C14.8468 32.3609 14.9601 32.9022 15.2434 33.6842L12.9201 36.2707Z" fill="#7E7F9D"/>
<path d="M45.8437 27.549C45.8437 27.549 41.9337 21.7745 39.157 20.0903C36.267 18.4061 34.1137 17.8647 34.1137 17.8647C34.1137 17.8647 29.5804 19.6091 27.9937 20.8121C26.747 21.6542 26.067 22.4362 25.7837 22.7369C25.897 22.4963 26.407 21.7144 27.767 20.5114C29.5237 18.8873 32.527 17.0828 33.6604 16.7219C34.7937 16.361 38.7037 18.3459 38.7037 18.3459L36.8337 16.5414C36.8337 16.5414 37.4004 16.6016 38.477 16.782C39.497 17.0226 40.4037 17.2031 40.4037 17.2031C40.4037 17.2031 34.7937 11.4287 34.2837 11.4287C33.7737 11.4287 29.1837 13.955 29.1837 13.955C29.1837 13.955 33.547 9.98505 34.2837 9.98505C35.0204 9.9249 40.5737 12.1505 40.5737 12.1505C40.5737 12.1505 40.5737 12.1505 39.6104 10.767C38.647 9.38354 35.1337 5.35347 35.1337 5.35347C35.1337 5.35347 35.6437 5.41362 36.6637 5.71437C37.7404 5.95497 38.7604 6.43617 38.7604 6.43617C38.7604 6.43617 38.3637 6.01512 37.3437 5.17302C36.3804 4.39106 33.3204 2.34595 33.3204 2.34595C33.3204 2.34595 40.0637 6.01512 42.4437 8.90234C44.8237 11.7294 45.107 12.9926 45.107 12.9926C45.107 12.9926 44.1437 11.3685 42.3304 9.86474C40.5737 8.42114 37.967 6.97753 37.967 6.97753C37.967 6.97753 39.7237 8.42114 40.8004 10.2256C41.877 12.0302 43.067 16.1204 43.067 16.1204C43.067 16.1204 42.4437 15.0978 40.4037 13.7144C38.3637 12.3309 35.9837 11.4888 35.9837 11.4888C35.9837 11.4888 41.0837 15.579 43.237 18.6467C45.3904 21.7144 45.5604 23.0978 45.5604 23.0978C45.5604 23.0978 44.597 21.955 43.067 20.9926C41.537 19.97 40.4037 19.4888 40.4037 19.4888C40.4037 19.4888 42.9537 21.7144 44.0304 23.5189C44.9937 25.2632 45.8437 27.549 45.8437 27.549Z" fill="#2D2846"/>
<path d="M12.1836 36.752C12.2969 36.6317 12.4103 36.5114 12.5803 36.3911C13.0903 35.9099 14.8469 35.6092 17.2836 35.4287C21.7603 39.5189 32.4136 50.1656 32.4136 50.1656C32.4136 50.1656 26.9736 52.8723 22.7803 54.8573C21.9869 51.6693 20.1169 44.0302 20.3436 43.0077C20.6269 41.6843 16.7169 36.9325 16.7169 36.9325C16.7169 36.9325 14.6203 36.8723 12.1836 36.752Z" fill="#2D2846"/>
<path d="M21.7602 34.1054L19.4369 32.722C19.3802 32.6017 19.3235 32.6017 19.2102 32.5415L15.4135 30.2558C15.4135 30.0754 15.3002 30.0754 15.2435 30.0152L10.5402 27.0679L10.9369 26.1054C11.0502 25.8648 10.9369 25.5039 10.6535 25.3836L7.02686 23.4588C6.8002 23.3385 6.57353 23.3987 6.40353 23.5791L5.9502 24.1205C5.83686 24.0603 5.66686 24.0603 5.55353 24.1205L4.30686 24.7821L3.45686 24.2408L1.7002 27.3085L1.81353 27.3686C1.81353 27.4889 1.92686 27.6694 2.0402 27.7897L2.09686 27.8498L2.77686 28.2709L3.0602 29.1731L2.5502 30.316C2.43686 30.5566 2.49353 30.8573 2.7202 31.0378L7.08353 33.7445L6.9702 33.925C6.85686 34.1656 6.91353 34.5265 7.1402 34.6468L12.4102 38.1355C12.2402 38.1355 12.0135 38.1957 11.9002 38.2558C11.9002 38.2558 11.9002 38.2558 11.8435 38.2558C11.5602 38.3761 11.3335 38.6167 11.1635 38.9175C10.9935 39.1581 10.8802 39.4588 10.7669 39.6994C10.6535 40.1205 10.5402 40.6618 10.6535 41.0829C10.7669 41.5039 10.9369 41.8648 11.3335 42.1054C11.5035 42.2257 11.7302 42.2859 12.0135 42.2859C12.1835 42.2859 12.4102 42.2859 12.5235 42.2859C12.6369 42.346 12.6369 42.346 12.7502 42.4062C12.8635 42.4663 12.9769 42.5265 13.1469 42.5265C13.2602 42.5866 13.4302 42.6468 13.5435 42.6468L13.9402 42.7671C14.2235 42.8272 14.3935 42.8874 14.5069 42.8874C14.3935 43.0077 14.3935 43.0679 14.3369 43.1882C14.2802 43.3085 14.2235 43.3686 14.2235 43.4889C14.1669 43.4889 14.1669 43.5491 14.1102 43.5491C13.9969 43.6092 13.9402 43.6694 13.8269 43.7295C13.5435 43.91 13.3169 44.2107 13.1469 44.5716C13.0335 44.7521 13.0335 44.9927 13.0335 45.2333V45.3536C12.9202 45.4739 12.8635 45.534 12.7502 45.6543L11.7302 46.9776C11.5602 47.1581 11.6169 47.519 11.7302 47.6994C11.7302 47.8197 11.7302 48.0002 11.7869 48.1205C11.8435 48.3009 11.9002 48.4814 11.9569 48.6017C12.0135 48.6618 12.0702 48.722 12.0702 48.7821L12.2402 51.0077C12.2402 51.1882 12.3535 51.3686 12.5235 51.4288L17.7935 54.2558C17.7935 54.2558 18.0202 54.3761 18.3035 54.6167L18.3602 54.6769C18.4735 54.7972 18.5302 54.7972 18.6435 54.7972C18.7569 54.9175 18.9835 54.9776 19.0969 55.0979C19.6069 55.3987 22.5535 55.3987 22.5535 55.3987L22.7802 55.519L23.9135 56.3009C24.0835 56.4212 24.3102 56.4212 24.5369 56.3009L25.0469 55.8799C25.6135 55.4588 26.2369 54.8573 26.7469 54.1957C27.2569 53.534 27.7669 52.8724 28.1635 52.1506C28.5602 51.4288 28.8435 50.5866 29.1269 49.6844C29.3535 48.7821 29.5235 47.7596 29.6369 46.9175L29.6935 46.316C29.6935 46.0754 29.5802 45.8949 29.4102 45.7746L24.3669 42.6468L24.4235 42.5866C24.4802 42.4663 24.5369 42.4062 24.5369 42.2859V36.0904C24.5369 35.91 24.4235 35.6694 24.2535 35.6092L21.7602 34.1054Z" fill="#240347"/>
<path d="M22.4403 36.2709V40.4213L23.1203 40.8423V36.6919L22.4403 36.2709ZM17.567 37.7145L17.227 38.3761L17.7936 39.3386L22.7803 42.2859L22.9503 41.3837L17.567 37.7145ZM9.35029 32.5416L8.67029 33.8047L9.01029 33.9852L9.40695 33.4438L9.80362 33.5641C9.80362 33.5641 9.63362 33.8649 9.40695 34.2258L9.91695 34.5867L10.2003 34.0453L10.4836 34.2258L10.1436 34.7671L10.6536 35.128L10.8236 34.6468L11.2203 34.7671L10.9936 35.3686L17.227 39.519L16.6036 38.6769L17.057 37.7145L9.35029 32.5416ZM4.59029 29.1731L4.19362 30.0754L8.33029 32.6619L8.72695 32.2408L4.76029 29.7746L4.98695 29.3536L4.53362 29.113L4.59029 29.1731ZM6.46029 25.8047L7.02695 25.1431L9.35029 26.4062L7.08362 25.6844L6.74362 26.0453L6.46029 25.8047ZM4.25029 26.0453L3.62695 27.0679L13.4303 33.0829V34.3461L13.997 34.7671V32.4814L4.25029 26.0453ZM14.0536 30.9777L13.9403 32.0002L4.76029 26.1656L5.66695 25.7446L14.0536 30.9777ZM18.1336 33.5641V37.534L14.2803 35.0077L14.3936 31.3386L18.1336 33.5641ZM18.417 33.7446V37.7145L19.097 38.1355V34.1656L18.417 33.7446ZM19.2103 34.2258V38.1957L19.8903 38.6167V34.5867L19.2103 34.2258ZM20.0036 34.7671V38.7972L20.6836 39.2183V35.1882L20.0036 34.7671ZM20.8536 35.2483V39.2784L21.5336 39.6995V35.6092L20.8536 35.2483ZM21.647 35.7897V39.8799L22.327 40.301V36.2107L21.647 35.7897Z" fill="#55526F"/>
<path d="M22.4403 39.1581V40.4212L23.1203 40.8423V39.5791L22.4403 39.1581ZM3.79695 26.7671L13.997 33.0829V34.7671L13.4303 34.346V33.0829L3.62695 27.0077L3.79695 26.7671ZM14.337 33.8648L18.1336 36.4513V37.4739L14.2803 34.9475L14.337 33.8648ZM18.417 36.5716L19.097 36.9927V38.1355L18.417 37.7145V36.5716ZM19.2103 37.113L19.8903 37.534V38.6769L19.2103 38.2558V37.113ZM20.0036 37.6543L20.6836 38.0754V39.2784L20.0036 38.8573V37.6543ZM20.8536 38.1355L21.5336 38.5566V39.7596L20.8536 39.3385V38.1355ZM21.647 38.6769L22.327 39.0979V40.3009L21.647 39.8799V38.6769ZM17.907 37.8949L17.7936 38.316L18.0203 38.7972L22.837 41.6242L22.7236 42.1054L17.7936 39.1581L17.227 38.1957L17.567 37.534L17.907 37.8949ZM4.25029 29.9551L8.50029 32.4814L8.33029 32.6618L4.19362 30.0754L4.25029 29.9551ZM9.06695 33.0227L16.8303 38.0754L16.6036 38.5566L17.227 39.3987L11.0503 35.3084L11.277 34.7069L10.8803 34.5866L10.7103 35.0678L10.2003 34.7069L10.5403 34.1656L10.2003 34.0453L9.80362 34.5866L9.35029 34.2859C9.57695 33.925 9.74695 33.6242 9.74695 33.6242L9.35029 33.5039L8.95362 34.0453L8.61362 33.8648L9.06695 33.0227Z" fill="#2D2846"/>
<path d="M22.44 36.2709V36.7521L23.12 37.1731V36.6919L22.44 36.2709ZM22.27 36.6318L21.59 36.2107V35.7295L22.27 36.1506V36.6318ZM21.42 36.1506L20.74 35.7295V35.3085L21.42 35.7295V36.1506ZM20.6267 35.6694L19.9467 35.2483V34.8273L20.6267 35.2483V35.6694ZM19.8333 35.128L19.1533 34.707V34.2859L19.8333 34.707V35.128ZM18.9833 34.5867L18.3033 34.1656V33.7446L18.9833 34.1656V34.5867ZM18.1333 34.0453L14.45 31.6995V31.3386L18.1333 33.5641V34.0453ZM14.0533 31.3987L5.32666 25.925L5.66666 25.8047L14.0533 31.0378V31.3987ZM6.45999 25.8047L7.02666 25.1431L9.34999 26.4062L7.08333 25.6844L6.74333 26.0453L6.45999 25.8047Z" fill="#7E7F9D"/>
<path d="M16.3204 39.6392L15.4137 41.5641C15.4137 41.5641 13.2037 41.0829 13.2037 40.9626C13.2037 40.8423 13.657 40.722 13.6004 40.722C13.5437 40.722 12.2404 40.9024 12.0704 40.8423C11.9004 40.7821 12.1837 39.6994 12.467 39.5791C12.6937 39.5189 16.3204 39.6392 16.3204 39.6392Z" fill="#55526F"/>
<path d="M22.7804 43.1882C22.7804 43.1882 19.9471 40.9626 18.8704 40.3611C17.8504 39.8198 17.1137 39.8799 17.1137 39.8799C17.1137 39.8799 16.1504 41.5641 16.1504 41.7446C16.2071 41.8649 16.6037 41.9852 16.6037 41.9852L16.9437 41.504L17.0004 41.8649L18.8137 42.8273C18.8137 42.8273 20.4571 42.9476 21.7037 43.128C23.0071 43.3686 22.7804 43.1882 22.7804 43.1882Z" fill="#FEC013"/>
<path d="M22.4971 44.5115L20.6837 46.0153C20.6837 46.0153 17.0571 45.0529 16.1504 45.0529C15.2437 45.0529 14.6204 45.4138 14.5637 45.2333C14.5071 45.113 15.3571 44.6318 15.7537 44.5115C16.1504 44.3912 16.3204 44.2709 16.3204 44.2709C16.3204 44.2709 15.7537 44.2709 15.6404 44.2709C15.5271 44.2108 15.9237 43.5491 16.6037 43.5491C17.1704 43.3687 22.4971 44.5115 22.4971 44.5115Z" fill="#FEC013"/>
<path d="M20.0603 46.4363C20.0037 46.5566 18.7003 48.1205 18.7003 48.1205C18.7003 48.1205 16.037 47.6994 14.847 47.6994C13.657 47.7596 13.0903 47.8197 13.2037 47.8197C13.317 47.7596 13.657 47.4588 14.167 47.1581C14.677 46.9175 14.9037 46.7972 14.9037 46.7972L13.827 46.6167C13.827 46.6167 14.337 46.0152 15.527 45.9551C16.717 45.9551 20.0603 46.4363 20.0603 46.4363Z" fill="#FEC013"/>
<path d="M17.9635 48.722C18.0202 48.9626 17.5668 51.4889 17.5668 51.4889C17.5668 51.4889 16.7735 50.5265 16.6602 50.5265C16.5468 50.4664 14.6768 50.4062 14.6768 50.4062L15.1868 51.1882L13.5435 50.3461L13.4302 48.9025C13.4302 48.9025 13.7135 48.6619 14.8468 48.6619C16.0935 48.6619 17.9635 48.722 17.9635 48.722Z" fill="#FEC013"/>
<path d="M23.687 43.9702C23.687 43.9702 18.8704 48.8424 18.7004 49.1431C18.5304 49.4439 21.307 53.7747 21.307 53.7747H21.987C21.987 53.7747 20.8537 52.3913 21.1937 52.5717C21.5337 52.7522 24.3104 54.7973 24.3104 54.7973C24.3104 54.7973 25.9537 53.474 27.0304 51.489C28.107 49.5642 28.277 46.9777 28.277 46.9777L23.687 43.9702ZM21.987 50.4063C22.2704 50.8875 24.2537 53.2334 24.2537 53.2334C24.2537 53.2334 23.7437 53.1131 22.837 52.3913C21.8737 51.6695 20.4004 49.9251 20.4004 49.9251L24.1404 44.9326L24.8204 45.6544C24.8204 45.6544 21.7037 49.9251 21.987 50.4063Z" fill="#FEC013"/>
<path d="M19.2103 48.6018C18.927 48.9025 18.757 49.0228 18.7003 49.083C18.587 49.3236 21.307 53.7145 21.307 53.7145H21.987C21.987 53.7145 20.8537 52.3311 21.1937 52.5115C21.5337 52.692 24.3103 54.7371 24.3103 54.7371C24.3103 54.7371 24.5937 54.4965 24.9903 54.0754L24.367 53.6544C24.367 53.6544 23.9703 53.5341 23.347 53.1732C22.667 52.8123 20.797 51.0078 20.797 51.0078V51.2484C20.797 51.2484 20.3437 51.0679 20.1737 50.5867C20.0037 50.4063 19.4937 49.2033 19.2103 48.6018ZM20.9103 43.0679C20.0037 42.5867 17.9637 41.4439 17.7937 41.2634C17.6237 41.0228 17.6803 40.5416 17.6803 40.5416L17.9637 40.1205C17.397 40.0002 17.057 40.0002 17.057 40.0002C17.057 40.0002 16.0937 41.6845 16.0937 41.8649C16.1503 41.9852 16.547 42.1055 16.547 42.1055L16.887 41.6243L16.9437 41.9852L18.757 42.9476C18.757 42.8273 19.8337 42.8875 20.9103 43.0679ZM16.547 43.4288H16.6603C16.6603 43.4288 16.2637 43.7296 16.377 43.8499C16.4903 43.9702 17.0003 44.1506 17.0003 44.1506C17.0003 44.1506 16.3203 44.5717 16.4337 44.6318C16.547 44.6318 20.5703 45.113 21.477 45.3536L20.7403 46.0153C20.7403 46.0153 17.1137 45.0529 16.207 45.0529C15.3003 45.0529 14.677 45.4138 14.6203 45.2333C14.5637 45.113 15.4137 44.6318 15.8103 44.5115C16.207 44.3912 16.377 44.2709 16.377 44.2709C16.377 44.2709 15.8103 44.2709 15.697 44.2709C15.4703 44.1506 15.867 43.489 16.547 43.4288ZM15.0737 46.0153C15.017 46.4965 15.697 46.7972 15.697 46.7972C15.697 46.7972 15.2437 47.0378 15.3003 47.098C15.357 47.1581 18.3037 47.2183 19.3803 47.2183C19.267 47.519 18.7003 48.1205 18.7003 48.1205C18.7003 48.1205 16.037 47.6995 14.847 47.6995C13.657 47.6995 13.0903 47.8198 13.2037 47.8198C13.317 47.7596 13.657 47.4589 14.167 47.1581C14.677 46.9175 14.9037 46.7972 14.9037 46.7972L13.827 46.6168C13.827 46.6769 14.2237 46.1957 15.0737 46.0153ZM14.2803 48.6619C14.1103 48.8424 13.9403 49.083 13.997 49.2033C14.0537 49.4439 14.507 49.9251 14.507 49.9251C14.507 49.9251 16.8303 49.9852 17.057 50.0454C17.1703 50.0454 17.3403 50.0454 17.5103 49.9852C17.567 50.707 17.6237 51.489 17.6237 51.489C17.6237 51.489 16.8303 50.5266 16.7737 50.5266C16.6603 50.4664 14.7903 50.4063 14.7903 50.4063L15.3003 51.1281L13.657 50.286L13.5437 48.8423C13.487 48.9025 13.657 48.7221 14.2803 48.6619ZM24.8203 45.6544L25.1037 46.0754C25.1037 46.0754 23.5737 48.7822 23.517 49.3236C23.4603 49.8649 25.217 52.7521 25.217 52.7521L24.2537 53.2333C24.2537 53.2333 22.327 50.9476 21.987 50.4063C21.7037 49.9251 24.8203 45.6544 24.8203 45.6544Z" fill="#FA6F19"/>
<path d="M34.3971 48.9625C34.5104 48.9024 34.5671 48.8422 34.6804 48.8422C35.2471 48.6016 35.8704 48.3008 36.4371 48.0602C37.4004 47.6392 38.4204 47.2181 39.3838 46.7971L40.1204 46.4963L44.4271 56.1204L40.6304 59.1881L40.7438 59.2482L32.8671 65.5039L27.2571 60.0302C27.2571 60.0302 22.3838 56.2407 19.0971 57.0227C18.5304 57.143 18.0204 57.2633 17.5671 57.3836C17.4538 57.143 17.2838 56.9625 17.1138 56.7219C17.3971 56.6016 17.6238 56.6016 17.9071 56.4813C18.8138 56.1805 19.7771 55.7595 20.6271 55.3384C21.9871 54.7369 23.2904 54.0753 24.5938 53.4136C27.0304 52.2106 29.4104 50.9475 31.8471 49.6843L33.3204 49.2031L34.3971 48.9625Z" fill="#240347"/>
<path d="M39.7235 47.6392C39.7235 47.6392 33.7735 50.767 33.0935 51.3083C32.4135 51.8497 30.4302 55.579 30.4302 56.1805C30.4302 56.782 32.4702 57.8046 32.4702 57.8046C32.4702 57.8046 30.0902 57.4437 29.4102 56.8422C28.7302 56.2407 30.9402 51.1279 30.9402 51.1279C30.9402 51.1279 20.9668 56.4211 18.1902 57.3234L17.6802 57.4437C19.4935 60.0301 21.7602 63.2181 23.9702 65.8647C25.9535 65.7444 31.4502 65.2632 31.4502 65.2632L38.9302 59.3685C38.9302 59.3685 37.6835 58.9474 37.2302 57.3835C36.7768 55.8196 36.6635 55.2181 36.6635 55.2181C36.6635 55.2181 37.5702 56.8422 38.6468 57.6843C39.7235 58.5264 39.8935 58.5264 39.8935 58.5264L43.5202 55.6993L39.7235 47.6392Z" fill="#55526F"/>
<path d="M37.9102 48.6619C36.0968 49.6243 33.5468 51.0077 33.0935 51.3686C32.9802 51.4889 32.6968 51.7897 32.4135 52.1506C33.6602 51.6092 37.9102 49.6243 37.9102 49.6243V48.6619ZM31.7335 57.8047C30.9968 57.6844 29.8635 57.3837 29.4102 57.0228C28.7302 56.4213 30.9402 51.3085 30.9402 51.3085C30.9402 51.3085 20.9668 56.4814 18.1902 57.3837L17.6802 57.504C17.7935 57.6243 17.7935 57.7446 17.9068 57.8649C18.9268 57.8047 20.1168 57.6844 21.1368 57.1431C24.0268 55.7596 29.6368 52.9325 29.6368 52.9325C29.6368 52.9325 28.1068 56.2408 28.3902 56.9626C28.6168 57.8047 31.7902 57.8649 31.7335 57.8047C31.7902 57.8047 31.7902 57.8649 31.7335 57.8047Z" fill="#7E7F9D"/>
<path d="M39.2137 48.0002C38.8171 48.2408 38.1937 48.5416 37.4571 48.9626C37.5137 49.3837 37.7404 50.1055 38.7037 51.7897C40.4037 54.9175 41.4237 56.0002 41.4237 56.0002C41.4237 56.0002 39.2137 57.3236 38.5337 57.7446C38.5904 57.7446 38.5904 57.8048 38.6471 57.8048C39.7237 58.6469 39.8937 58.6469 39.8937 58.6469L43.5204 55.8198L43.4071 55.6393C42.4437 54.6769 39.7237 51.91 39.6104 50.2258C39.3837 48.9025 39.2704 48.2408 39.2137 48.0002ZM32.4704 52.0905C31.6204 53.4138 30.4304 55.6995 30.4304 56.2408C30.4304 56.9025 32.4704 57.8649 32.4704 57.8649C32.4704 57.8649 32.0737 57.8048 31.5071 57.6845C32.9804 58.2258 35.2471 57.6845 35.2471 57.6845C35.2471 57.6845 32.3571 56.9626 31.8471 55.6995C31.5637 54.8574 32.0737 53.113 32.4704 52.0905ZM28.9004 65.6243C30.3737 65.504 31.5071 65.4439 31.5071 65.4439L38.9304 59.5491C38.9304 59.5491 37.6837 59.1281 37.2304 57.5642C36.7771 56.0002 36.6637 55.3987 36.6637 55.3987C36.6637 55.3987 36.2104 55.2183 36.4937 57.0228C36.7771 58.8273 36.8904 59.2484 36.8904 59.2484L29.0704 65.4439L28.9004 65.6243ZM36.6637 55.3386C36.6637 55.3386 36.8337 55.6995 37.1737 56.1205C36.8904 55.6995 36.6637 55.3386 36.6637 55.3386Z" fill="#2D2846"/>
<path d="M46.467 34.1054L48.7904 32.722C48.847 32.6017 48.9037 32.6017 49.017 32.5415L52.8137 30.2558C52.8704 30.1355 52.927 30.1355 52.9837 30.0754L57.6871 27.128L57.2904 26.1656C57.177 25.925 57.2904 25.5641 57.5737 25.4438L61.2004 23.4588C61.427 23.3385 61.6537 23.3987 61.8237 23.5791L62.2771 24.1205C62.3904 24.0603 62.5604 24.0603 62.6737 24.1205L63.9204 24.7821L64.7704 24.2408L66.5271 27.3085L66.4704 27.3686C66.4704 27.4889 66.3571 27.6694 66.2437 27.7897L66.1871 27.8498L65.507 28.2709L65.167 29.1731L65.6771 30.316C65.7904 30.5566 65.7337 30.8573 65.507 31.0378L61.1437 33.7445L61.257 33.925C61.3704 34.1656 61.3137 34.5265 61.0871 34.6468L55.7604 38.1355C55.9304 38.1355 56.1571 38.1957 56.2704 38.2558C56.2704 38.2558 56.2704 38.2558 56.3271 38.2558C56.6104 38.3761 56.837 38.6167 57.007 38.9175C57.1204 39.1581 57.2904 39.4588 57.4037 39.6994C57.5171 40.1205 57.6304 40.6618 57.517 41.0829C57.4037 41.5039 57.2337 41.8648 56.8371 42.1054C56.6671 42.2257 56.4404 42.2859 56.157 42.2859C55.987 42.2859 55.7604 42.2859 55.647 42.2859C55.5337 42.346 55.5337 42.346 55.4204 42.4062C55.3071 42.4663 55.1937 42.5265 55.0237 42.5265C54.9104 42.5866 54.7404 42.6468 54.6271 42.6468L54.2304 42.707C53.947 42.7671 53.777 42.8272 53.6637 42.8272C53.777 42.9475 53.777 43.0077 53.8337 43.128C53.8904 43.2483 53.947 43.3085 53.947 43.4288C54.0037 43.4288 54.0037 43.4889 54.0604 43.4889C54.1737 43.5491 54.2304 43.6092 54.3437 43.6694C54.6271 43.8498 54.8537 44.1506 55.0237 44.5115C55.137 44.6919 55.1371 44.9325 55.1371 45.1731L55.1937 45.2333C55.3071 45.3536 55.3637 45.4137 55.4771 45.534L56.497 46.8573C56.667 47.0378 56.6104 47.3987 56.4404 47.5791C56.4404 47.6994 56.4404 47.8799 56.3837 48.0002C56.327 48.1806 56.2704 48.3611 56.2137 48.4814C56.1004 48.5415 56.1004 48.6618 56.0437 48.722L55.8737 50.9476C55.8737 51.128 55.7604 51.3085 55.5904 51.3686L50.3204 54.1355C50.3204 54.1355 50.0937 54.2558 49.8104 54.4964L49.7537 54.5566C49.6404 54.6769 49.5837 54.6769 49.4704 54.6769C49.3571 54.7972 49.1304 54.8573 49.017 54.9776C48.507 55.2784 45.5604 55.2784 45.5604 55.2784L45.3337 55.3987L44.2004 56.1806C44.0304 56.3009 43.8037 56.3009 43.5771 56.1806L43.067 55.7596C42.5004 55.3385 41.877 54.737 41.367 54.0754C40.857 53.4137 40.347 52.7521 39.9504 52.0303C39.5537 51.3085 39.2704 50.4663 38.9871 49.5641C38.7604 48.6618 38.5904 47.6393 38.4771 46.7972L38.5904 46.3761C38.5904 46.1355 38.7037 45.9551 38.8737 45.8348L43.917 42.707L43.8604 42.6468C43.8037 42.5265 43.747 42.4663 43.747 42.346V36.0904C43.747 35.91 43.8604 35.6694 44.0304 35.6092L46.467 34.1054Z" fill="#240347"/>
<path d="M45.7869 36.2709V40.4213L45.1069 40.8423V36.6919L45.7869 36.2709ZM50.6603 37.7145L51.0003 38.3761L50.4336 39.3386L45.4469 42.2859L45.2769 41.3837L50.6603 37.7145ZM58.8769 32.5416L59.5569 33.8047L59.2169 33.9852L58.8203 33.4438L58.4236 33.5641C58.4236 33.5641 58.5936 33.8649 58.8203 34.2258L58.3103 34.5867L58.0269 34.0453L57.7436 34.2258L58.0269 34.7671L57.5169 35.128L57.3469 34.6468L56.9503 34.7671L57.1769 35.3686L51.0003 39.519L51.6236 38.6769L51.1703 37.7145L58.8769 32.5416ZM63.6369 29.1731L64.0336 30.1355L59.8969 32.722L59.5003 32.301L63.4669 29.8348L63.2403 29.4137L63.6369 29.1731ZM61.7669 25.8047L61.2003 25.1431L58.8769 26.4062L61.1436 25.6844L61.4269 26.0453L61.7669 25.8047ZM63.9769 26.0453L64.6003 27.0679L54.7969 33.0829V34.3461L54.2303 34.7671V32.4814L63.9769 26.0453ZM54.1736 30.9777L54.2869 32.0002L63.4669 26.1656L62.5603 25.7446L54.1736 30.9777ZM50.0936 33.5641V37.534L53.9469 35.0077L53.7769 31.2784L50.0936 33.5641ZM49.8669 33.7446V37.7145L49.1869 38.1355V34.1656L49.8669 33.7446ZM49.0169 34.2258V38.1957L48.3369 38.6167V34.5867L49.0169 34.2258ZM48.2236 34.7671V38.7972L47.6003 39.2183V35.1882L48.2236 34.7671ZM47.3736 35.2483V39.2784L46.7503 39.6995V35.6092L47.3736 35.2483ZM46.5803 35.7897V39.8799L45.9569 40.301V36.2107L46.5803 35.7897Z" fill="#55526F"/>
<path d="M45.7869 39.1581V40.4212L45.1069 40.8423V39.5791L45.7869 39.1581ZM64.4303 26.7671L54.2303 33.0829V34.7671L54.7969 34.346V33.0829L64.6003 27.0077L64.4303 26.7671ZM53.8903 33.8648L50.0936 36.4513V37.4739L53.9469 34.9475L53.8903 33.8648ZM49.8669 36.5716L49.1869 36.9927V38.1355L49.8669 37.7145V36.5716ZM49.0169 37.113L48.3369 37.534V38.6769L49.0169 38.2558V37.113ZM48.2236 37.6543L47.6003 38.0754V39.2784L48.2803 38.8573V37.6543H48.2236ZM47.3736 38.1355L46.6936 38.5566V39.7596L47.3736 39.3385V38.1355ZM46.5803 38.6769L45.9003 39.0979V40.3009L46.5803 39.8799V38.6769ZM50.3769 37.8949L50.4903 38.316L50.2636 38.7972L45.4469 41.6242L45.5603 42.1054L50.5469 39.1581L51.1136 38.1957L50.7736 37.534L50.3769 37.8949ZM64.0336 29.9551L59.7836 32.4814L59.9536 32.6618L64.0903 30.0754L64.0336 29.9551ZM59.1603 33.0227L51.3969 38.0754L51.6236 38.5566L51.0003 39.4588L57.1769 35.3686L56.9503 34.7671L57.3469 34.6468L57.5169 35.128L58.0269 34.7671L57.7436 34.2257L58.0269 34.0453L58.3103 34.5866L58.8203 34.2257C58.5936 33.8648 58.4236 33.5641 58.4236 33.5641L58.8203 33.4438L59.2169 33.9851L59.5569 33.8047L59.1603 33.0227Z" fill="#2D2846"/>
<path d="M45.7869 36.2709V36.7521L45.1069 37.1731V36.6919L45.7869 36.2709ZM46.0136 36.6318L46.6936 36.2107V35.7295L46.0136 36.1506V36.6318ZM46.8069 36.1506L47.4869 35.7295V35.3085L46.8069 35.7295V36.1506ZM47.6003 35.6694L48.2803 35.2483V34.8273L47.6003 35.1882V35.6694ZM48.3936 35.128L49.0736 34.707V34.2859L48.3936 34.707V35.128ZM49.2436 34.5867L49.9236 34.1656V33.7446L49.2436 34.1656V34.5867ZM50.0936 34.0453L53.7769 31.6995V31.3386L50.0936 33.5641V34.0453ZM54.2303 31.3987L62.9003 25.8649L62.5603 25.7446L54.1736 31.0378L54.2303 31.3987ZM61.7669 25.8047L61.2003 25.1431L58.8769 26.4062L61.1436 25.6844L61.4269 26.0453L61.7669 25.8047Z" fill="#7E7F9D"/>
<path d="M51.9067 39.6392L52.7567 41.5641C52.7567 41.5641 54.9667 41.0829 54.9667 40.9626C54.9667 40.8423 54.5134 40.722 54.5701 40.722C54.6267 40.722 55.9301 40.9024 56.1001 40.8423C56.2701 40.722 55.9867 39.6994 55.7034 39.5791C55.5334 39.5189 51.9067 39.6392 51.9067 39.6392Z" fill="#55526F"/>
<path d="M45.4468 43.1882C45.4468 43.1882 48.2801 40.9626 49.3568 40.3611C50.3768 39.8198 51.1135 39.8799 51.1135 39.8799C51.1135 39.8799 52.0768 41.5641 52.0768 41.7446C52.0201 41.8649 51.6235 41.9852 51.6235 41.9852L51.3401 41.504L51.2835 41.8649L49.4701 42.8273C49.4701 42.8273 47.8268 42.9476 46.5801 43.128C45.2201 43.3686 45.4468 43.1882 45.4468 43.1882Z" fill="#FEC013"/>
<path d="M46.0137 43.9099L47.9403 45.8347C47.9403 45.8347 51.227 45.0528 52.1337 45.0528C53.0403 45.0528 53.6637 45.4137 53.7203 45.2332C53.777 45.1129 52.927 44.6317 52.5303 44.5114C52.1337 44.3911 51.9637 44.2708 51.9637 44.2708C51.9637 44.2708 52.5303 44.2708 52.6437 44.2708C52.757 44.2107 52.3603 43.549 51.6803 43.549C51.057 43.3686 46.0137 43.9099 46.0137 43.9099Z" fill="#FEC013"/>
<path d="M48.2803 46.4964C48.3936 46.6167 49.8669 48.1204 49.8669 48.1204C49.8669 48.1204 52.1903 47.6994 53.3803 47.7595C54.5703 47.8197 55.1369 47.8798 55.0236 47.8798C54.9103 47.8197 54.5703 47.5189 54.0603 47.2182C53.5503 46.9776 53.3236 46.8573 53.3236 46.8573L54.4003 46.6768C54.4003 46.6768 53.9469 46.0753 52.7003 46.0152C51.5103 45.955 48.2803 46.4964 48.2803 46.4964Z" fill="#FEC013"/>
<path d="M50.0935 48.722C50.0368 48.9626 50.6602 51.4889 50.6602 51.4889C50.6602 51.4889 51.4535 50.5265 51.5668 50.5265C51.6802 50.4664 53.5502 50.4062 53.5502 50.4062L53.0402 51.1882L54.6835 50.3461L54.7968 48.9025C54.7968 48.9025 54.5135 48.6619 53.3801 48.6619C52.1335 48.6619 50.0935 48.722 50.0935 48.722Z" fill="#FEC013"/>
<path d="M49.5835 49.0828C49.4702 48.8422 44.8802 43.6091 44.8802 43.6091L40.0068 47.0377C40.0068 47.0377 40.1768 49.564 41.2535 51.549C42.3302 53.5339 43.9735 54.8572 43.9735 54.8572C43.9735 54.8572 46.7502 52.8723 47.0902 52.6317C47.4302 52.4512 46.2968 53.8347 46.2968 53.8347H46.9768C46.9202 53.7745 49.7535 49.3234 49.5835 49.0828ZM45.4468 52.3309C44.4835 53.0527 44.0302 53.173 44.0302 53.173C44.0302 53.173 45.9568 50.8873 46.2968 50.346C46.5802 49.8648 43.5202 45.5941 43.5202 45.5941L44.4835 44.6317L47.8835 49.8648C47.9402 49.9249 46.3535 51.6693 45.4468 52.3309Z" fill="#FEC013"/>
<path d="M49.0169 48.6018C49.3003 48.9025 49.4703 49.0228 49.5269 49.083C49.6403 49.3236 46.9203 53.7145 46.9203 53.7145H46.2403C46.2403 53.7145 47.3736 52.3311 47.0336 52.5115C46.6936 52.692 43.9169 54.7371 43.9169 54.7371C43.9169 54.7371 43.6336 54.5566 43.2369 54.1356L43.8603 53.7145C43.8603 53.7145 44.2569 53.5942 44.8803 53.2333C45.5603 52.8724 47.4303 51.0679 47.4303 51.0679V51.3085C47.4303 51.3085 47.8836 51.1281 48.0536 50.6469C48.2236 50.4063 48.7336 49.2033 49.0169 48.6018ZM47.3169 43.0679C48.2236 42.5867 50.2636 41.4439 50.4336 41.2634C50.6036 41.0228 50.5469 40.5416 50.5469 40.5416L50.2636 40.1205C50.8303 40.0002 51.1703 40.0002 51.1703 40.0002C51.1703 40.0002 52.1336 41.6845 52.1336 41.8649C52.0769 41.9852 51.6803 42.1055 51.6803 42.1055L51.3403 41.6243L51.2836 41.9852L49.4703 42.9476C49.4703 42.8273 48.3936 42.8875 47.3169 43.0679ZM51.7369 43.4288H51.6236C51.6236 43.4288 52.0203 43.7296 51.9069 43.8499C51.7936 43.9702 51.2836 44.1506 51.2836 44.1506C51.2836 44.1506 51.9636 44.5717 51.8503 44.6318C51.7369 44.6318 48.1669 44.8724 47.2036 45.0529L47.9403 45.7747C47.9403 45.7747 51.2269 44.9927 52.1336 44.9927C53.0403 44.9927 53.6636 45.3536 53.7203 45.1732C53.7769 45.0529 52.9269 44.5717 52.5303 44.4514C52.1336 44.3311 51.9636 44.2108 51.9636 44.2108C51.9636 44.2108 52.5303 44.2108 52.6436 44.2108C52.7569 44.1506 52.3603 43.489 51.7369 43.4288ZM53.1536 46.0153C53.2103 46.4965 52.5303 46.7972 52.5303 46.7972C52.5303 46.7972 52.9836 47.0378 52.9269 47.098C52.8136 47.1581 50.6036 47.519 49.5836 47.519C49.6969 47.7596 49.8669 47.9401 49.8669 47.9401C49.8669 47.9401 52.1903 47.519 53.3803 47.5792C54.5703 47.6393 55.1369 47.6995 55.0236 47.6995C54.9103 47.6393 54.5703 47.3386 54.0603 47.0378C53.5503 46.7972 53.3236 46.6769 53.3236 46.6769L54.4003 46.4965C54.4003 46.6769 54.0036 46.1957 53.1536 46.0153ZM53.9469 48.6619C54.1169 48.8424 54.2869 49.083 54.2303 49.2033C54.1736 49.4439 53.7203 49.9251 53.7203 49.9251C53.7203 49.9251 51.3969 49.9852 51.1703 50.0454C51.0569 50.0454 50.8869 50.0454 50.7169 49.9852C50.6603 50.707 50.6036 51.489 50.6036 51.489C50.6036 51.489 51.3969 50.5266 51.5103 50.5266C51.6236 50.4664 53.4936 50.4063 53.4936 50.4063L52.9269 51.1281L54.5703 50.286L54.6836 48.8423C54.7403 48.9025 54.5703 48.7221 53.9469 48.6619ZM43.4069 45.6544L43.1236 46.0754C43.1236 46.0754 44.6536 48.7822 44.7103 49.3236C44.7669 49.8649 43.0103 52.7521 43.0103 52.7521L43.9736 53.2333C43.9736 53.2333 45.9003 50.9476 46.2403 50.4063C46.5803 49.9251 43.4069 45.6544 43.4069 45.6544Z" fill="#FA6F19"/>
<path d="M30.827 70.4962H6.68697L5.72363 67.1278L6.6303 66.9474V57.3835L6.23363 57.3233L6.00697 54.0752H44.3136H61.597L62.5036 57.3233L61.597 57.5639V67.1278L61.937 67.188L62.277 70.4962H52.587H42.217H30.827Z" fill="#240347"/>
<path d="M10.1437 68.2105V62.6766L12.127 63.639V68.2105C12.0703 68.4511 11.9003 68.6315 11.6737 68.6315H14.507C14.2237 68.5714 14.1103 68.4511 13.997 68.2105V56.3007C14.1103 56.1202 14.2237 55.9398 14.507 55.8796H7.76367C8.04701 55.9999 8.16034 56.0601 8.27367 56.3007V68.1503C8.16034 68.3909 8.04701 68.5714 7.76367 68.5714H10.597C10.3703 68.5714 10.2003 68.4511 10.1437 68.2105ZM15.4137 63.5789V68.2706C15.357 68.5112 15.187 68.6917 14.9603 68.6917H21.647C21.3637 68.6315 21.2503 68.5112 21.137 68.2706V62.8571C19.607 62.1353 22.0437 63.2781 17.3403 60.9924V57.5037H19.267V60.2105C20.797 60.9323 18.587 59.8496 21.0803 61.1127V56.421C21.1937 56.2405 21.307 56.0601 21.5903 55.9999H14.9037C15.187 56.0601 15.3003 56.1804 15.357 56.421V61.8345C16.037 62.1954 15.5837 61.9548 19.1537 63.6992V67.1879H17.1703V64.4811C16.4903 64.1202 16.4903 64.1202 16.4903 64.1202C16.4337 64.0601 16.1503 63.8796 15.4137 63.5789ZM43.8603 63.5789V68.2706C43.8037 68.5112 43.6337 68.6917 43.407 68.6917H50.0937C49.8103 68.6315 49.697 68.5112 49.5837 68.2706V62.8571L49.1303 62.6766C49.017 62.6165 49.6403 62.9172 45.7303 61.0526V57.5638H47.7137V60.2706C49.2437 60.9924 47.0337 59.9097 49.527 61.1729V56.4811C49.6403 56.2405 49.7537 56.1202 50.037 56.0601H43.2937C43.577 56.1202 43.747 56.2405 43.747 56.4811V61.8947L47.5437 63.7593V67.2481H45.5603V64.5413C44.8803 64.1804 44.8803 64.1804 44.8803 64.1804C44.8803 64.0601 44.597 63.8796 43.8603 63.5789ZM54.2303 56.3608V68.2105C54.1737 68.4511 54.0037 68.6315 53.777 68.6315H56.6103C56.327 68.5714 56.2137 68.4511 56.1003 68.2105V57.624L58.0837 58.6466V68.2105C58.027 68.4511 57.857 68.6315 57.6303 68.6315H60.4637C60.1803 68.5714 60.067 68.4511 59.9537 68.2105V56.3608C60.067 56.1804 60.1803 55.9999 60.4637 55.9398H57.6303C57.9137 55.9999 58.027 56.1202 58.0837 56.3608V56.9022L56.1003 55.8796H53.777C54.0603 55.9398 54.2303 56.1202 54.2303 56.3608ZM50.9437 56.3608V68.2105C50.887 68.4511 50.717 68.6315 50.4903 68.6315H53.3237C53.0403 68.5714 52.927 68.4511 52.8137 68.2105V57.3834V56.3608C52.927 56.1804 53.0403 55.9999 53.3237 55.9398H50.4903C50.717 55.9999 50.9437 56.1202 50.9437 56.3608ZM37.0037 63.5187V68.2105C36.947 68.4511 36.777 68.6315 36.5503 68.6315H43.237C42.9537 68.5714 42.8403 68.4511 42.727 68.2105V62.7969L42.2737 62.6165C42.1603 62.5563 42.7837 62.8571 38.8737 60.9924V57.5037H40.857V60.2105C42.387 60.9323 40.177 59.8496 42.6703 61.1127V56.421C42.7837 56.1804 42.897 56.0601 43.1803 55.9999H36.4937C36.777 56.0601 36.947 56.1804 36.947 56.421V61.8345L40.7437 63.6992V67.1879H38.7603V64.4811C38.0803 64.1202 38.0803 64.1202 38.0803 64.1202C38.0803 64.0601 37.797 63.8796 37.0037 63.5187ZM29.9203 56.3608V68.2105C29.807 68.4511 29.6937 68.6315 29.4103 68.6315H32.2437C31.9603 68.5714 31.847 68.4511 31.7903 68.2105V62.6766L33.7737 63.639V68.2105C33.717 68.4511 33.547 68.6315 33.3203 68.6315H36.1537C35.8703 68.5714 35.757 68.4511 35.6437 68.2105V56.3007C35.757 56.1202 35.8703 55.9398 36.1537 55.8796H29.4103C29.6937 55.9398 29.9203 56.1202 29.9203 56.3608ZM31.7903 60.8721V57.3834H33.7737V61.8345L31.7903 60.8721ZM22.837 63.5789V68.2706C22.7803 68.5112 22.6103 68.6917 22.3837 68.6917H29.0703C28.787 68.6315 28.6737 68.5112 28.5603 68.2706V62.8571C27.0303 62.1353 29.467 63.2781 24.7637 60.9924V57.5037H26.747V60.2105C28.277 60.9323 26.067 59.8496 28.5603 61.1127V56.421C28.6737 56.2405 28.787 56.0601 29.0703 55.9999H22.327C22.6103 56.0601 22.7237 56.1804 22.7803 56.421V61.8345C23.4603 62.1954 23.007 61.9548 26.577 63.6992V67.1879H24.5937V64.4811C23.9137 64.1202 23.9137 64.1202 23.9137 64.1202C23.9137 64.0601 23.5737 63.8796 22.837 63.5789ZM10.1437 60.9323V57.4435H12.127V61.8947L10.1437 60.9323Z" fill="white"/>
<path d="M12.9202 56.7821V67.7896H13.1469V56.7821H12.9202ZM9.3502 56.7821H9.12354V67.7896H9.3502V56.7821ZM16.2069 64.7821V67.7294H16.4335V64.9024C16.4335 64.9024 16.3769 64.9024 16.3769 64.8422C16.3202 64.8422 16.2635 64.8422 16.2069 64.7821ZM20.0035 67.7294H20.2302V63.2182C20.1169 63.158 20.1169 63.158 20.0035 63.0979V67.7294ZM16.4335 61.4137V56.8422H16.2069V61.3535C16.2635 61.2934 16.3202 61.3535 16.4335 61.4137ZM20.0035 56.7821V59.6091C20.0602 59.6693 20.1169 59.6693 20.1169 59.7294C20.1169 59.7294 20.1735 59.7294 20.1735 59.7896V56.8422L20.0035 56.7821ZM44.6535 64.7821V67.7294H44.8802V64.9024C44.8802 64.9024 44.8235 64.9024 44.8235 64.8422H44.7669C44.7102 64.8422 44.6535 64.8422 44.6535 64.7821ZM48.4502 67.7294H48.7335V63.2182C48.6769 63.158 48.6202 63.158 48.5069 63.0979V67.7294H48.4502ZM44.8802 61.4137V56.8422H44.6535V61.3535L44.8802 61.4137ZM48.4502 56.7821V59.6091C48.5069 59.6693 48.5635 59.6693 48.5635 59.7294C48.5635 59.7294 48.6202 59.7294 48.6202 59.7896V56.8422L48.4502 56.7821ZM55.0802 67.7294H55.3069V56.7219H55.0802V67.7294ZM58.8769 58.1655V67.7896H59.1035V56.7219H58.8769V58.1655ZM51.7369 67.7294H51.9635V56.7219H51.7369V67.7294ZM37.7969 64.7821V67.7294H38.0235V64.9024C38.0235 64.9024 37.9669 64.9024 37.9669 64.8422V64.8422C37.9102 64.8422 37.8535 64.7821 37.7969 64.7821ZM41.6502 67.7294H41.8769V63.2182C41.7635 63.158 41.7635 63.158 41.6502 63.0979V67.7294ZM38.0802 61.3535V56.7821H37.8535V61.2934L38.0802 61.3535ZM41.6502 56.7219V59.549C41.7069 59.6091 41.7635 59.6091 41.7635 59.6693C41.7635 59.6693 41.8202 59.6693 41.8202 59.7294V56.7821L41.6502 56.7219ZM30.9969 61.4137V56.8422H30.7702V67.8497H30.9969V61.4137ZM34.5669 63.158V67.7294H34.7935V56.7219H34.5669V63.158ZM23.6302 64.7821V67.7294H23.8569V64.9024C23.8569 64.9024 23.8002 64.9024 23.8002 64.8422C23.6869 64.8422 23.6869 64.7821 23.6302 64.7821ZM27.4269 67.7294H27.6535V63.2182C27.5402 63.158 27.5402 63.158 27.4269 63.0979V67.7294ZM23.8569 61.4137V56.8422H23.6302V61.3535C23.6869 61.2934 23.8002 61.3535 23.8569 61.4137ZM27.4269 56.7821V59.6091C27.4835 59.6693 27.5402 59.6693 27.5402 59.7294C27.5402 59.7294 27.5969 59.7294 27.5969 59.7896V56.8422L27.4269 56.7821Z" fill="#02344D"/>
<path d="M10.1436 68.2105V62.6766L9.57698 62.3759V68.1503C9.63365 68.3909 9.80365 68.5714 10.0303 68.5714H10.597C10.3703 68.5714 10.2003 68.4511 10.1436 68.2105ZM13.8836 68.6315H14.337H14.3936C14.167 68.5714 13.997 68.4511 13.9403 68.2105V56.421C13.997 56.2405 14.167 56.0601 14.3936 55.9999H14.337H7.82031H13.9403C13.657 56.0601 13.5436 56.1804 13.4303 56.421V68.2706C13.4303 68.4511 13.6003 68.5714 13.8836 68.6315ZM14.4503 55.8796H14.337H14.4503ZM15.4136 63.5789V63.8796C15.7536 63.9999 15.9236 64.1202 16.037 64.1804C15.9803 64.1804 16.037 64.1804 16.717 64.5413V67.2481H18.7003H17.2836V64.5413C16.6036 64.1804 16.6036 64.1804 16.6036 64.1804C16.4336 64.0601 16.1503 63.8796 15.4136 63.5789ZM20.967 68.6315H21.5336C21.2503 68.5714 21.137 68.4511 21.0236 68.2105V62.7969C19.4936 62.0751 21.9303 63.218 17.227 60.9323V57.4435H16.6603V60.9323C21.4203 63.218 18.9836 62.015 20.457 62.7969V68.2105C20.5703 68.4511 20.6836 68.5714 20.967 68.6315ZM20.457 60.7518C20.5703 60.8721 20.797 60.8721 21.0236 61.0526V56.3608C21.137 56.1804 21.2503 55.9999 21.5336 55.9398H14.9036H20.967C20.6836 56.0601 20.5703 56.1804 20.457 56.3608V60.7518ZM43.8603 63.5789V63.8796C44.2003 63.9999 44.3703 64.1202 44.4836 64.1804C44.427 64.1804 44.4836 64.1804 45.1636 64.5413V67.2481H47.147H45.7303V64.5413C45.0503 64.1804 45.0503 64.1804 45.0503 64.1804C44.8803 64.0601 44.597 63.8796 43.8603 63.5789ZM49.4703 68.6315H49.9236C49.9803 68.6315 49.9803 68.6315 49.9803 68.6315C49.7536 68.5714 49.5836 68.4511 49.527 68.2105V62.7969L49.0736 62.6165C48.9603 62.5563 49.5836 62.8571 45.6736 60.9924V57.5037H45.0503V60.9924C48.9036 62.9172 48.2803 62.6165 48.4503 62.6165L48.9036 62.7969V68.2105C49.017 68.4511 49.187 68.5714 49.4703 68.6315ZM48.9603 60.7518C49.0736 60.8721 49.3003 60.8721 49.527 61.0526V56.3608C49.5836 56.1804 49.7536 55.9999 49.9803 55.9398H49.9236H50.037H49.4703H43.407H49.4703C49.187 55.9999 49.0736 56.1202 48.9603 56.3608V60.7518V60.7518ZM56.0436 68.6315H56.6103C56.327 68.5714 56.2136 68.4511 56.1003 68.2105V57.624L55.5336 57.3232V68.1503C55.5903 68.4511 55.7603 68.5714 56.0436 68.6315ZM59.8403 68.6315H60.407C60.1236 68.5714 60.0103 68.4511 59.897 68.2105V56.3608C60.0103 56.1804 60.1236 55.9999 60.407 55.9398H59.8403H57.5736H59.8403C59.557 56.0601 59.4436 56.1202 59.3303 56.3608V68.2105C59.387 68.4511 59.6136 68.5714 59.8403 68.6315ZM58.0836 56.9022L56.1003 55.8796H53.8336H55.5903L58.1403 57.1428V56.9022H58.0836ZM52.757 68.6315H53.2103H53.267C53.0403 68.5714 52.8703 68.4511 52.8136 68.2105V57.3834V56.3608C52.8703 56.1804 53.0403 55.9999 53.267 55.9398H53.2103H53.3236H52.757H50.4903H52.757C52.4736 55.9999 52.3603 56.1202 52.247 56.3608V57.3834V68.2105C52.3036 68.4511 52.4736 68.5714 52.757 68.6315ZM37.0036 63.5187V63.8195C37.3436 63.9398 37.5136 64.0601 37.627 64.1202C37.5703 64.1202 37.627 64.1202 38.307 64.4811V67.1879H40.2903H38.8736V64.4811C38.1936 64.1202 38.1936 64.1202 38.1936 64.1202C38.0803 64.0601 37.797 63.8796 37.0036 63.5187ZM42.6136 68.6315H42.8403C42.897 68.6315 42.9536 68.5714 42.9536 68.5714C42.8403 68.4511 42.6703 68.3909 42.6136 68.1503V62.7368L42.1603 62.5563C42.047 62.4962 42.6703 62.7969 38.7603 60.9323V57.4435H38.1936V60.9323C42.047 62.8571 41.4236 62.5563 41.5936 62.5563L42.047 62.7368V68.1503C42.217 68.4511 42.3303 68.5714 42.6136 68.6315ZM42.1036 60.7518C42.217 60.8721 42.4436 60.8721 42.6703 61.0526V56.3608C42.727 56.2405 42.7836 56.1202 42.9536 55.9999C42.897 55.9398 42.7836 55.9398 42.727 55.9398H43.1236H43.1803H42.6136H36.4936H42.6136C42.3303 55.9999 42.217 56.1202 42.1036 56.3608C42.1036 56.421 42.1036 60.7518 42.1036 60.7518ZM31.677 68.6315H32.2436C31.9603 68.5714 31.847 68.4511 31.7903 68.2105V62.6766L31.2236 62.3759V68.1503C31.2803 68.4511 31.4503 68.5714 31.677 68.6315ZM35.5303 68.6315H35.927C35.9836 68.6315 35.9836 68.6315 35.9836 68.6315C35.757 68.5714 35.587 68.4511 35.5303 68.2105V56.421C35.587 56.2405 35.757 56.0601 35.9836 55.9999H35.927H36.0403H29.4103H35.5303C35.247 56.1202 35.1336 56.1804 35.0203 56.421V68.2706C35.077 68.4511 35.247 68.5714 35.5303 68.6315ZM31.7903 60.8721V57.3834H31.2236V60.8721L33.7736 62.1353V61.8345L31.7903 60.8721ZM22.837 63.5789V63.8796C23.177 63.9999 23.347 64.1202 23.4603 64.1804C23.4036 64.1804 23.4603 64.1804 24.1403 64.5413V67.2481H26.067H24.6503V64.5413C23.9703 64.1804 23.9703 64.1804 23.9703 64.1804C23.9136 64.0601 23.5736 63.8796 22.837 63.5789ZM28.447 68.6315H29.0136H28.9003C28.6736 68.5714 28.5036 68.4511 28.447 68.2105V62.7969C26.917 62.0751 29.3536 63.218 24.6503 60.9323V57.4435H24.0836V60.9323C28.8436 63.218 26.407 62.015 27.8803 62.7969V68.2105C27.9936 68.4511 28.1636 68.5714 28.447 68.6315ZM27.937 60.7518C28.0503 60.8721 28.277 60.8721 28.5036 61.0526V56.3608C28.5603 56.1804 28.7303 55.9999 28.957 55.9398H28.9003H28.447H22.327H28.447C28.1636 55.9999 28.0503 56.1202 27.937 56.3608C27.937 56.421 27.937 60.7518 27.937 60.7518ZM10.1436 60.9323V57.4435H9.57698V60.9323L12.127 62.1954V61.8947L10.1436 60.9323Z" fill="#A9C0DE"/>
</g>
<defs>
<linearGradient id="paint0_linear_97_2900" x1="33.5006" y1="5.08804" x2="35.1633" y2="72.173" gradientUnits="userSpaceOnUse">
<stop stop-color="#FDE32B"/>
<stop offset="1" stop-color="#EE563C"/>
</linearGradient>
<clipPath id="clip0_97_2900">
<rect width="68" height="80" fill="white"/>
</clipPath>
</defs>
</svg>
