<svg width="68" height="80" viewBox="0 0 68 80" fill="none" xmlns="http://www.w3.org/2000/svg">
<g clip-path="url(#clip0_97_2628)">
<path d="M34.0001 5.11279L32.0168 6.6767L31.7335 10.8872L29.4668 13.7143V15.9399L38.7035 15.5188L38.5335 13.2932L36.2668 11.188L35.8701 6.3158L34.0001 5.11279Z" fill="white"/>
<path d="M18.2466 1.14282V7.33831L24.6499 11.7293V5.59395L18.2466 1.14282Z" fill="white"/>
<path d="M16.8302 14.8572L20.3435 16.4812L21.4768 19.188L20.9102 22.2557L19.0402 22.376L16.6602 20.1504L16.8302 14.8572Z" fill="white"/>
<path d="M24.0836 25.3232L22.2702 25.4435L22.0436 28.8721C22.0436 28.8721 14.6769 29.1127 11.5036 32.9623C11.5036 32.9623 6.0069 33.9849 5.44023 36.6315C4.87356 39.2781 7.3669 43.0075 7.3669 43.0075L10.8236 41.9849C10.8236 41.9849 9.2369 34.827 14.0536 32.6616C18.8702 30.4962 26.2936 30.436 26.2936 30.436L27.2569 28.812L24.0836 25.3232Z" fill="white"/>
<path d="M34.0002 5.11279L35.9835 6.6767L36.2669 10.8872L38.5335 13.7143V15.9399L29.2969 15.5188L29.4669 13.2932L31.7335 11.188L32.1302 6.3158L34.0002 5.11279Z" fill="white"/>
<path d="M49.7534 1.14282V7.33831L43.3501 11.7293V5.59395L49.7534 1.14282Z" fill="white"/>
<path d="M51.1701 14.8572L47.6568 16.4812L46.5234 19.188L47.0901 22.2557L48.9601 22.376L51.3401 20.1504L51.1701 14.8572Z" fill="white"/>
<path d="M43.9165 25.3232L45.7298 25.4435L45.9565 28.8721C45.9565 28.8721 53.3232 29.1127 56.4965 32.9623C56.4965 32.9623 61.9932 33.9849 62.5598 36.6315C63.1265 39.2781 60.6332 43.0075 60.6332 43.0075L57.1765 41.9849C57.1765 41.9849 58.7632 34.827 53.9465 32.6616C49.1298 30.4962 41.7065 30.436 41.7065 30.436L40.7432 28.812L43.9165 25.3232Z" fill="white"/>
<path d="M47.0901 22.1956L44.4834 25.2031L46.0134 25.3835L45.7867 28.0903L50.3201 26.0452L50.8867 20.752L48.7901 22.4362L47.0901 22.1956Z" fill="#08B7D0"/>
<path d="M31.5635 15.158L29.4102 16.9023L29.6368 18.8271L34.0002 23.8196L38.7035 18.4061L38.5902 16.5414L36.5502 15.158H31.5635Z" fill="#08B7D0"/>
<path d="M17.1133 20.8721L17.5666 26.4661L21.9866 28.3308L22.2699 25.3233L23.5166 25.203L20.9099 22.2556L19.0399 22.3759L17.1133 20.5112V20.8721Z" fill="#08B7D0"/>
<path d="M32.9797 39.8796L29.2397 42.7067L29.5231 44.7518L33.9997 48.9022L38.8731 44.5714L38.4764 42.406L35.1331 40.5413L32.9797 39.8796Z" fill="#08B7D0"/>
<path d="M30.1463 43.1879L32.0163 44.6315L33.3763 44.3909H32.0163L30.1463 42.8872L32.583 41.1428L29.5229 42.406V44.7518L33.9996 48.4812V47.9398L30.1463 44.4511V43.1879Z" fill="#19456F"/>
<path d="M20.6831 23.2182C20.6265 22.8573 20.9665 22.737 20.9665 22.737C20.9098 22.4362 19.5498 22.6167 19.5498 22.6167L21.9298 25.2633L22.4965 25.143C22.4965 25.0828 20.7398 23.5791 20.6831 23.2182Z" fill="#19456F"/>
<path d="M19.3798 25.0828C18.0198 23.5189 17.8498 21.7746 17.8498 21.7746L17.4531 21.3535L17.7365 25.9851L21.8165 28.1505V27.0678C21.7598 27.0077 20.7398 26.6467 19.3798 25.0828Z" fill="#19456F"/>
<path d="M26.4065 20.1504L24.8765 21.7143L27.8231 25.985L31.6198 24.7218L26.4065 20.1504Z" fill="#19456F"/>
<path d="M30.2597 18.8271V18.406L32.8097 19.609L33.5464 19.3684H32.8664L30.2597 18.1053V17.4436L31.7331 15.7594C31.3931 15.3985 29.5797 16.7218 29.5797 16.7218L29.2964 18.6466L33.9997 23.5789V23.218L30.2597 18.8271Z" fill="#19456F"/>
<path d="M37.8533 42.8872L35.9833 44.3909H34.6233L35.9833 44.6315L37.8533 43.1879V44.4511L34 47.9398V48.4812L38.4767 44.7518V42.406L35.4167 41.1428L37.8533 42.8872Z" fill="#19456F"/>
<path d="M47.0329 22.7369C47.0329 22.7369 47.3729 22.9174 47.3163 23.2181C47.2596 23.579 45.5029 25.0828 45.5029 25.0828L46.0696 25.2031L48.4496 22.5565C48.4496 22.5565 47.0896 22.4362 47.0329 22.7369Z" fill="#19456F"/>
<path d="M50.1497 21.7744C50.1497 21.7744 49.9797 23.5188 48.6197 25.0827C47.2597 26.6466 46.2397 27.0075 46.2397 27.0075V28.0902L50.3197 25.9248L50.6031 21.2932L50.1497 21.7744Z" fill="#19456F"/>
<path d="M36.3799 24.7218L40.1766 25.985L43.1232 21.7143L41.5932 20.1504L36.3799 24.7218Z" fill="#19456F"/>
<path d="M38.4767 16.6617C38.4767 16.6617 36.6633 15.3384 36.3233 15.6993L37.7967 17.3835V18.0452L35.1333 19.3685H34.3967L35.1333 19.6091L37.6833 18.4061V18.8271L34 23.158V23.5189L38.7033 18.5865L38.4767 16.6617Z" fill="#19456F"/>
<path d="M34.2268 36.752L34.1135 39.8798L29.2401 42.5264L29.5801 44.9324L32.9235 49.2633L28.7868 48.7821C28.7868 48.7821 27.5401 49.7445 24.5368 52.0302C21.5335 54.3761 20.1168 53.4738 20.0035 49.4437C19.9468 45.4136 20.8535 38.4362 23.0635 36.5715C25.2735 34.6467 25.6701 33.564 28.1635 35.1279C30.7135 36.8121 34.2268 36.752 34.2268 36.752Z" fill="#DF9E27"/>
<path d="M18.4166 7.45874L24.5933 11.3685L29.3533 16.3008L29.0699 18.4663L20.2299 12.3309C20.2299 12.3309 18.2466 8.12039 18.4166 7.45874Z" fill="#DF9E27"/>
<path d="M5.04325 38.0751C5.04325 38.0751 4.13658 39.639 5.15658 43.7292C6.23325 47.8195 9.40658 48.9022 13.0899 47.5789C16.7732 46.2556 10.7666 42.2255 10.7666 42.2255L7.98991 42.7668C7.98991 42.7668 5.89325 42.1052 5.77991 40.6616C5.66658 39.218 5.32658 37.1729 5.32658 37.1729L5.04325 38.0751Z" fill="#DF9E27"/>
<path d="M33.7734 36.7519L33.8868 39.8797L38.7601 42.5263L38.4201 44.9324L35.0768 49.3233L39.2134 48.8421C39.2134 48.8421 40.4601 49.8045 43.4634 52.0902C46.4668 54.4361 47.8834 53.5339 47.9968 49.5038C48.0534 45.4737 47.1468 38.4963 44.9368 36.6316C42.7268 34.7068 42.3301 33.6241 39.8368 35.188C37.2868 36.8121 33.7734 36.7519 33.7734 36.7519Z" fill="#DF9E27"/>
<path d="M49.5832 7.45874L43.4065 11.3685L38.6465 16.3008L38.9298 18.4663L47.8265 12.3911C47.7698 12.3309 49.7532 8.12039 49.5832 7.45874Z" fill="#DF9E27"/>
<path d="M62.9566 38.0751C62.9566 38.0751 63.8632 39.639 62.8432 43.7292C61.7666 47.8195 58.5932 48.9022 54.9099 47.5789C51.2266 46.2556 57.2332 42.2255 57.2332 42.2255L60.0099 42.7668C60.0099 42.7668 62.1066 42.1052 62.2199 40.6616C62.3332 39.218 62.6732 37.1729 62.6732 37.1729L62.9566 38.0751Z" fill="#DF9E27"/>
<path d="M44.5403 32.3008C43.9736 32.3008 43.4069 32.782 42.9536 33.5038L42.5003 33.3835L40.6869 33.6241L37.3436 35.9098L34.0003 36.6918V38.3158V36.6918L30.6569 35.8497L27.3136 33.5639L25.5003 33.3835L25.0469 33.5038C24.5936 32.782 24.0836 32.3008 23.4603 32.3008C21.4769 32.3609 19.0969 39.7594 19.0969 39.7594C19.0969 39.7594 17.6803 50.1053 20.9103 50.406C24.1403 50.7068 25.1036 48.1805 25.5003 48.2406C25.8969 48.3008 26.1803 49.7444 24.9336 51.1278C23.6869 52.5113 20.7969 53.8948 20.7969 53.8948C20.7969 53.8948 20.7969 54.6166 21.3636 54.7369C21.9303 54.8572 23.2903 54.6767 25.1603 52.8722C26.9736 51.0075 28.1069 48.3609 28.1069 48.3609L26.6336 46.1955L25.5003 45.8948C24.4803 48.0602 22.6669 48.4812 22.6669 48.4812C22.6103 48 22.8369 47.0376 24.5369 45.6542C26.2369 44.2106 25.7269 41.2632 25.7269 41.2632C25.7269 44.0903 23.2903 45.2933 22.4969 45.3534C21.7603 45.3534 22.4969 38.2557 24.0269 38.9173C25.5569 39.6391 26.6903 38.9173 26.6903 38.9173C26.8036 38.6166 26.5203 37.2331 26.1236 35.8497L27.2569 37.8346L28.7869 38.1354C27.0869 36.8722 27.0869 35.1278 27.0869 35.1278C28.6169 37.2331 33.7169 38.0752 33.6603 38.4963C33.6036 38.8572 30.4869 38.6166 30.4869 38.6166V39.2181L34.0569 39.3985L37.6269 39.2181V38.6166C37.6269 38.6166 34.5103 38.8572 34.4536 38.4963C34.3969 38.1354 39.4969 37.2331 41.0269 35.1278C41.0269 35.1278 41.0269 36.8121 39.3269 38.1354L40.8003 37.8948L41.9336 35.9098C41.4803 37.2933 41.2536 38.6166 41.3669 38.9775C41.3669 38.9775 42.5003 39.6993 44.0303 38.9775C45.5603 38.2557 46.3536 45.4136 45.5603 45.4136C44.8236 45.4136 42.3303 44.1504 42.3303 41.3233C42.3303 41.3233 41.8203 44.2707 43.5203 45.7143C45.2203 47.1579 45.5036 48.0602 45.3903 48.5414C45.3903 48.5414 43.5769 48.1203 42.5569 45.9549L41.3669 46.1955L39.8936 48.3609C39.8936 48.3609 41.0269 51.0677 42.8403 52.8722C44.6536 54.7369 46.0136 54.8572 46.6369 54.7369C47.2036 54.6166 47.2036 53.8948 47.2036 53.8948C47.2036 53.8948 44.3703 52.5113 43.0669 51.1278C41.8203 49.7444 42.1036 48.3008 42.5003 48.2406C42.8969 48.1805 43.8603 50.6466 47.0903 50.406C50.3203 50.1053 48.9036 39.7594 48.9036 39.7594C48.9036 39.7594 46.5236 32.3609 44.5403 32.3008Z" fill="#A54C22"/>
<path d="M56.9502 46.7368C57.1768 46.1353 57.5168 44.5714 57.6868 43.609L60.7468 44.2707C60.7468 44.2707 62.9002 41.6241 62.9568 39.0376C62.9568 39.0376 61.1435 43.188 59.5002 43.0677C58.7068 43.0075 58.0835 42.7669 57.6302 42.5263L57.3468 42.1053L57.2335 42.3459C57.0068 42.2256 56.8935 42.1053 56.8935 42.1053L56.9502 42.9474L54.8535 47.6993L55.8168 47.8797C60.6335 48.6015 61.7102 43.7293 61.7102 43.7293C60.6335 45.8947 56.9502 46.7368 56.9502 46.7368Z" fill="#A54C22"/>
<path d="M29.6369 42.7668L31.9035 41.1428L31.7902 40.6014L28.6169 41.9849V45.233C28.6169 45.233 31.1669 48.3608 30.8835 48.421C30.6002 48.421 27.4269 45.5939 27.7102 44.1503C27.9369 42.6465 27.3702 38.8571 27.3702 38.8571L27.0302 38.1353V40.2405L26.1235 45.5337L33.6602 53.1728L34.0002 48.9623L29.7502 44.9924L29.6369 42.7668Z" fill="#A54C22"/>
<path d="M11.1068 41.9849C11.1068 41.9849 10.9935 42.1052 10.7668 42.2255L10.6535 41.9849L10.3701 42.406C9.91679 42.6466 9.29346 42.8872 8.50012 42.9473C6.85679 43.1278 5.04346 38.9172 5.04346 38.9172C5.10012 41.5639 7.25346 44.1503 7.25346 44.1503L10.3135 43.4887C10.4835 44.4511 10.8235 46.015 11.0501 46.6165C11.0501 46.6165 7.36679 45.7744 6.29012 43.5488C6.29012 43.5488 7.36679 48.3608 12.1835 47.6992L13.1468 47.5187L11.0501 42.7669L11.1068 41.9849Z" fill="#A54C22"/>
<path d="M41.0267 40.1805V38.0752L40.6867 38.797C40.6867 38.797 40.0633 42.5865 40.3467 44.0902C40.5733 45.594 37.4567 48.4211 37.1733 48.3609C36.89 48.3609 39.44 45.1729 39.44 45.1729V41.9248L36.2667 40.5414L36.1533 41.0827L38.42 42.7068L38.3067 44.8722L34 48.9023L34.34 53.1128L41.8767 45.4737L41.0267 40.1805Z" fill="#A54C22"/>
<path d="M46.5232 10.1654L47.9966 9.3834C46.9199 10.6466 43.9732 12.3909 43.9732 12.3909L45.6732 12.7518L39.4966 17.3232L43.9732 11.609L38.7599 16.0601L38.7032 18.4661L33.9999 24.3007L29.2966 18.406L29.2399 15.9999L24.0266 11.5488L28.5032 17.2631L22.3266 12.6917L24.0266 12.3308C24.0266 12.3308 21.0799 10.5864 20.0032 9.32325L21.4766 10.1052L18.5866 7.87964L18.2466 9.68415C18.2466 9.68415 20.1732 11.6691 20.2299 14.3759C20.2299 17.1428 20.3999 18.1052 21.1366 18.1052C21.8732 18.1052 24.5932 17.9248 24.5932 17.9248L33.9999 26.5263L43.4066 17.9248C43.4066 17.9248 46.1266 18.1052 46.8632 18.1052C47.5999 18.1052 47.7699 17.1428 47.7699 14.3759C47.7699 11.609 49.7532 9.68415 49.7532 9.68415L49.4132 7.87964L46.5232 10.1654Z" fill="#A54C22"/>
<path d="M21.3067 54.7368C21.3067 54.7368 25.5 54.1954 28.6733 48.3608L34.4533 53.4135L39.78 48.6616C39.78 48.6616 42.7833 54.7368 47.2033 54.6165L43.9733 57.2029L23.29 56.7819C23.29 56.842 21.1933 55.9999 21.3067 54.7368Z" fill="#717785"/>
<path d="M22.3835 30.6767C22.3835 30.6767 13.8268 30.3158 11.3335 35.8496C8.78348 41.3834 13.3735 47.9398 13.3735 47.9398L8.89681 48.3007V50.0451C8.89681 50.0451 6.40348 52.7519 6.23348 56.3007C6.06348 59.8496 6.80014 60.0301 6.80014 60.0301L18.5301 59.8496L20.9101 54.3759C20.9101 54.3759 16.4335 47.6391 16.4335 43.3083C16.4335 38.9774 22.3835 30.6767 22.3835 30.6767Z" fill="#717785"/>
<path d="M45.6167 30.6767C45.6167 30.6767 54.1734 30.3158 56.6667 35.8496C59.2167 41.3834 54.6267 47.9398 54.6267 47.9398L59.1034 48.3007V50.0451C59.1034 50.0451 61.5967 52.7519 61.7667 56.3007C61.9367 59.8496 61.2 60.0301 61.2 60.0301L49.47 59.8496L47.09 54.3759C47.09 54.3759 51.5667 47.6391 51.5667 43.3083C51.5667 38.9774 45.6167 30.6767 45.6167 30.6767Z" fill="#717785"/>
<path d="M22.3833 23.3986L28.05 29.173L27.2566 30.6768C27.2566 30.6768 33.8866 33.5038 34.9633 33.564C36.04 33.564 36.04 33.564 36.04 33.564L40.1766 28.9324L45.5033 22.1354L43.5766 21.955L39.8933 26.2256L35.7566 25.0828L33.7733 26.4061L32.0733 25.2632L27.9366 26.2256L24.14 21.2332L22.3833 23.3986Z" fill="#717785"/>
<path d="M35.4166 2.40612C35.4166 2.40612 29.2966 2.28582 27.1432 4.57153C24.9899 6.85725 26.7466 10.8873 28.7866 10.767C30.8266 10.7069 32.0166 9.08281 32.0166 9.08281L31.5066 6.5565L34.3399 4.93244L36.0399 7.09785L36.2099 10.2257C36.2099 10.2257 42.2732 12.0903 42.6699 9.44371C42.9532 6.85725 39.6099 2.46627 35.4166 2.40612Z" fill="#717785"/>
<path d="M41.7633 54.9172C40.8 53.5337 42.0467 51.9698 42.0467 51.9698L40.63 50.4661C39.0433 52.451 37.06 51.6691 37.06 51.6691L35.9833 52.3307L37.3433 53.3533L34 53.4736L30.6567 53.4134L32.0167 52.3909L30.94 51.6691C30.94 51.6691 28.9567 52.5112 27.37 50.4661L25.9533 51.9698C25.9533 51.9698 27.2 53.5939 26.2367 54.9172C25.2733 56.3007 22.8367 56.1803 22.27 54.7367H21.25L21.8167 56.7217L25.16 57.5037L30.1467 53.7142L25.5 59.4886L25.9533 59.8495L25.8967 59.9097H26.0667L26.4633 60.2104L34 60.03L41.48 60.1503L41.8767 59.8495H42.0467L41.99 59.7894L42.4433 59.4285L37.7967 53.7142L42.7833 57.5037L46.1267 56.7217L46.6933 54.7367H45.6733C45.1633 56.1803 42.7267 56.3007 41.7633 54.9172Z" fill="#2C2E37"/>
<path d="M58.9332 54.4962C61.0298 57.5638 58.9332 58.406 56.4398 56.5413C54.0032 54.6766 54.5698 52.812 56.7232 52.812C58.8765 52.812 60.6332 54.9172 60.6332 54.9172C60.0098 52.3909 57.5165 50.7669 57.8565 50.4661C58.1965 50.1654 58.8765 50.4661 58.8765 50.4661L59.1032 48.421L52.5298 47.8796L47.7698 50.0451L47.0898 54.4962L49.2432 59.9699L61.1998 60.2105L61.7665 57.6842C61.2565 54.2556 58.9332 54.4962 58.9332 54.4962Z" fill="#2C2E37"/>
<path d="M52.7002 46.7367C54.6269 40.6615 51.9069 35.6088 53.0969 35.9096C54.3435 36.2103 55.9302 40.3006 55.9302 40.3006C56.1569 32.3006 45.2202 30.6765 45.2202 30.6765C45.2202 30.6765 45.2202 30.6765 46.7502 32.6615C48.2802 34.6464 48.6769 45.1728 48.6769 45.1728L52.7002 46.7367Z" fill="#2C2E37"/>
<path d="M27.4834 29.0525L26.4634 29.8946C26.4634 29.8946 26.4634 30.4359 29.5234 32.2404C32.5834 34.0449 33.9434 33.8043 33.9434 33.8043V32.3006C33.9434 32.3006 33.0934 31.9397 32.5834 31.3382C32.13 30.7367 33.66 29.2329 33.66 29.2329C33.66 29.2329 31.96 30.1953 31.11 30.1953C30.26 30.1953 29.41 28.5111 29.41 28.5111L33.9434 27.3683V26.8269L26.52 27.7292L27.4834 29.0525Z" fill="#2C2E37"/>
<path d="M30.8267 25.4435L32.64 26.8871L33.7167 26.3458L31.9033 25.0225L30.8267 25.4435Z" fill="#2C2E37"/>
<path d="M27.2 27.4286C27.2 27.4286 23.97 22.9173 24.3666 22.8571C24.7066 22.7368 27.6533 26.406 27.6533 26.406L24.9333 21.8947L25.9533 20.391L24.3666 18.406L21.7033 17.9248L21.3066 22.1353L26.2366 27.7293L27.2 27.4286Z" fill="#2C2E37"/>
<path d="M29.2965 15.5187V13.4134L31.9032 11.0074L31.4499 6.55629C30.9965 9.50366 28.3332 10.4661 28.1065 8.54125C27.8799 6.61644 31.5632 4.99238 31.5632 4.99238L33.4899 2.94727L27.9932 5.35328C28.5599 4.09012 31.9032 3.00742 31.9032 3.00742C28.3899 3.06757 25.7265 4.39087 24.6499 5.95478C23.5732 7.51869 24.3665 11.0676 24.3665 11.0676L29.2965 15.5187Z" fill="#2C2E37"/>
<path d="M15.5267 47.8193L8.95335 48.3607L9.18001 50.4058C9.18001 50.4058 9.86001 50.1051 10.2 50.4058C10.54 50.7066 8.04668 52.3306 7.42335 54.8569C7.42335 54.8569 9.18001 52.7517 11.3333 52.7517C13.4867 52.7517 14.0533 54.6163 11.6167 56.481C9.18001 58.3457 7.02668 57.5035 9.12335 54.4359C9.12335 54.4359 6.85668 54.1953 6.34668 57.4434L6.91335 59.9697L18.87 59.7291L21.0233 54.2554L20.3433 49.8043L15.5267 47.8193Z" fill="#2C2E37"/>
<path d="M12.0699 40.3006C12.0699 40.3006 13.6565 36.1502 14.9032 35.9096C16.1499 35.6088 13.4299 40.6615 15.2999 46.7367L19.3232 45.1728C19.3232 45.1728 19.7199 34.6464 21.2499 32.6615C22.7799 30.6765 22.7799 30.6765 22.7799 30.6765C22.7799 30.6765 11.8432 32.3006 12.0699 40.3006Z" fill="#2C2E37"/>
<path d="M31.6765 36.3909C31.7898 36.451 31.9032 36.5112 32.0165 36.5112C32.6398 36.7518 33.3198 36.8119 33.9432 36.8119C34.5665 36.8119 35.2465 36.7518 35.8698 36.5112C35.9832 36.451 36.0965 36.3909 36.2098 36.3909C38.0798 35.7292 39.4965 34.5262 39.4965 34.5262V34.045C40.5165 32.9022 40.9698 31.8796 40.9698 31.8796L39.7798 31.5789C39.7798 31.5789 39.6665 31.6992 39.4965 31.8796V31.7593C39.4965 31.7593 39.4965 31.8195 39.4398 31.9398C38.9298 32.421 37.8532 33.2029 36.1532 33.624C35.7565 33.6841 35.2465 33.7443 34.7365 33.8044C34.4532 33.8044 34.1698 33.8646 33.9432 33.8646C33.6598 33.8646 33.4332 33.8646 33.1498 33.8044C32.6398 33.7443 32.1865 33.6841 31.7332 33.624C30.0332 33.2029 28.9565 32.421 28.4465 31.9398C28.3898 31.8195 28.3898 31.7593 28.3898 31.7593V31.8796C28.2198 31.6992 28.1065 31.5789 28.1065 31.5789L26.9165 31.8796C26.9165 31.8796 27.3698 32.9022 28.3898 34.045V34.5262C28.4465 34.5864 29.8065 35.7292 31.6765 36.3909Z" fill="#2C2E37"/>
<path d="M36.7767 30.1953C35.9267 30.1953 34.2267 29.2329 34.2267 29.2329C34.2267 29.2329 35.7567 30.7367 35.3034 31.3382C34.85 31.9397 33.9434 32.3006 33.9434 32.3006V33.8043C33.9434 33.8043 35.3034 34.0449 38.3634 32.2404C41.4234 30.4359 41.4234 29.8946 41.4234 29.8946L40.4034 29.0525L41.31 27.7292L34 26.8269V27.3683L38.5334 28.5111C38.5334 28.451 37.6267 30.1953 36.7767 30.1953Z" fill="#2C2E37"/>
<path d="M37.1732 25.4435L36.0965 25.0225L34.2832 26.3458L35.3599 26.8871L37.1732 25.4435Z" fill="#2C2E37"/>
<path d="M42.1033 20.451L43.1233 21.9548L40.4033 26.4661C40.4033 26.4661 43.2933 22.7969 43.69 22.9172C44.03 23.0375 40.8567 27.4886 40.8567 27.4886L41.8767 27.7894L46.8067 22.1954L46.41 17.9849L43.6333 18.4059L42.1033 20.451Z" fill="#2C2E37"/>
<path d="M36.3798 4.99238C36.3798 4.99238 40.0632 6.61644 39.8365 8.54125C39.6098 10.4661 36.9465 9.44351 36.4932 6.55629L36.0398 11.0074L38.6465 13.4134V15.5187L43.5198 11.0074C43.5198 11.0074 44.3132 7.45854 43.2365 5.89463C42.1598 4.39087 39.4965 3.06757 35.9832 3.00742C35.9832 3.00742 39.3265 4.09012 39.8932 5.35328L34.3965 2.94727L36.3798 4.99238Z" fill="#2C2E37"/>
<path d="M33.4331 20.03L33.9998 22.8571V19.7292L33.4331 20.03Z" fill="#8BD9DF"/>
<path d="M17.4531 21.6541L21.1931 25.5037C21.1931 25.5037 19.4931 24.8421 19.0398 23.8195C19.0398 23.8195 19.9465 25.8646 21.7031 25.8646V25.2631L17.4531 21.2932V21.6541Z" fill="#8BD9DF"/>
<path d="M34 47.3382V44.5713L32.98 44.7517L34 47.3382Z" fill="#8BD9DF"/>
<path d="M34 16.1804H32.0166L30.8833 17.5037V17.9248L33.0366 18.9473H34H34.9633L37.1166 17.9248V17.5037L35.9833 16.1804H34Z" fill="#8BD9DF"/>
<path d="M34 22.8571L34.5667 20.03L34 19.7292V22.8571Z" fill="#8BD9DF"/>
<path d="M50.5464 21.3533L46.2964 25.3232V25.9247C48.1097 25.9247 48.9597 23.8796 48.9597 23.8796C48.5064 24.9021 46.8064 25.5638 46.8064 25.5638L50.5464 21.7142V21.3533Z" fill="#8BD9DF"/>
<path d="M33.9999 41.5037V42.7067V41.5037H32.6399L31.1099 42.827L32.1299 43.9097H33.9999H35.8699L36.8899 42.827L35.3599 41.5037H33.9999Z" fill="#8BD9DF"/>
<path d="M34 47.3382L35.02 44.7517L34 44.5713V47.3382Z" fill="#8BD9DF"/>
<path d="M16.1499 31.5188C17.5099 31.1579 23.2899 30.376 23.2899 30.376L21.7599 28.9324L20.6266 29.2331L21.1366 29.7143C21.1366 29.7143 17.1132 29.7745 12.4099 33.3234L11.0499 33.2031L9.74657 33.6241L11.2199 34.1053C11.2199 34.1053 8.6699 36.7519 8.89657 39.8797C8.95323 40.782 8.78323 41.1429 8.44323 41.1429C7.6499 41.1429 6.23324 38.797 6.57324 36.6316C6.57324 36.6316 5.38323 38.797 7.93323 42.4061L10.8232 41.6241C10.8232 41.6241 10.1999 38.797 11.3332 36.6918C11.3899 36.5715 11.4466 36.4512 11.5599 36.3309C10.0866 40.782 12.5799 47.0978 12.5799 47.0978L14.6199 48.1805C12.9199 44.2106 14.8466 38.797 13.4866 39.3384C12.1266 39.9399 12.0699 42.6467 12.0699 42.6467C10.1999 34.4061 15.8099 32.3609 15.8099 32.3609C15.0732 32.5414 14.4499 32.8421 13.8832 33.1429C14.6766 32.3008 15.5266 31.6993 16.1499 31.5188Z" fill="#BFC1C1"/>
<path d="M45.6165 28.5115L45.7299 25.4438L44.2565 25.3235L43.8032 25.925H45.2199L41.7065 29.8348L41.9899 30.316L45.6165 28.5115Z" fill="#BFC1C1"/>
<path d="M43.8032 10.6466L49.4699 7.09773L49.3566 4.33081L48.7332 4.87216C48.7332 4.87216 48.7332 5.53382 47.7699 6.73683C46.8066 7.93983 44.1432 9.68419 44.1432 9.68419L43.8032 10.6466Z" fill="#BFC1C1"/>
<path d="M35.813 28.5114C36.3797 28.5715 37.003 28.6918 37.5697 28.8723L36.7197 28.6317C37.2297 28.6918 37.5697 28.8121 37.5697 28.8121L33.9997 27.7896L30.4864 28.752C30.4864 28.752 30.7697 28.6918 31.3364 28.5715L30.4297 28.8723C30.9964 28.6918 31.563 28.5715 32.1864 28.5114C32.6964 28.4512 33.3197 28.3911 33.9997 28.3911C34.6797 28.3911 35.303 28.4512 35.813 28.5114Z" fill="#BFC1C1"/>
<path d="M31.053 26.1054L27.4264 26.7069L26.123 25.0227L27.2564 27.2483L31.7897 26.8272L31.053 26.1054Z" fill="#BFC1C1"/>
<path d="M9.74661 50.5865C9.80328 50.2858 8.72661 50.5865 8.72661 50.5865C5.49661 53.2332 6.51661 59.7896 6.51661 59.7896H7.13994C6.06328 52.6918 9.68994 50.8873 9.74661 50.5865Z" fill="#BFC1C1"/>
<path d="M10.3131 54.0752C10.3131 54.0752 8.49976 55.3985 9.2931 56.5414C10.0864 57.6241 13.0898 54.797 12.6364 53.8948C12.1831 52.9324 10.3131 54.0752 10.3131 54.0752Z" fill="#BFC1C1"/>
<path d="M31.053 5.65432C31.053 5.65432 28.843 6.85733 29.183 7.94003C29.5797 8.96259 32.413 5.41372 31.053 5.65432Z" fill="#BFC1C1"/>
<path d="M33.1497 2.82715H32.413C32.413 2.82715 29.183 4.27076 29.2964 4.57151C29.4664 4.87226 33.1497 2.82715 33.1497 2.82715Z" fill="#BFC1C1"/>
<path d="M22.8364 54.6167C22.8364 54.6167 23.6864 55.5791 24.9331 54.7972C26.1798 54.0152 25.5564 52.5115 25.5564 52.5115L22.8364 54.6167Z" fill="#BFC1C1"/>
<path d="M28.39 48.9023L27.54 50.0452C27.54 50.0452 28.7867 50.9475 29.8634 50.4663C30.8834 49.9249 28.39 48.9023 28.39 48.9023Z" fill="#BFC1C1"/>
<path d="M47.5999 18.1054L46.9766 22.1354L48.6766 22.376L50.5466 20.6317L51.1699 15.9399L50.6599 16.0602L48.2799 17.0226L47.5999 18.1054Z" fill="#BFC1C1"/>
<path d="M44.0298 7.51888L49.4131 3.97001L49.2998 1.38354L48.2798 2.0452C48.2798 2.0452 48.3931 3.00761 47.9965 3.48881C47.5998 3.97001 43.9731 6.85723 43.9731 6.85723L44.0298 7.51888Z" fill="#BFC1C1"/>
<path d="M24.1967 25.925L23.7434 25.3235L22.27 25.4438L22.3834 28.5115L26.01 30.316L26.2934 29.8348L22.78 25.925H24.1967Z" fill="#BFC1C1"/>
<path d="M17.4534 20.6317L19.3234 22.376L21.0234 22.1354L20.4001 18.1054L19.7201 17.0226L17.3401 16.0602L16.8301 15.9399L17.4534 20.6317Z" fill="#BFC1C1"/>
<path d="M32.1301 6.31593V9.92495L29.4668 13.1129V15.94L34.0001 14.3159L38.5335 15.94V13.1129L35.8701 9.92495V6.31593C35.8701 6.31593 34.5101 5.41368 34.1135 5.47383C34.0568 5.47383 34.0001 5.53398 34.0001 5.59413C34.0001 5.53398 33.9435 5.47383 33.8868 5.47383C33.4335 5.41368 32.1301 6.31593 32.1301 6.31593ZM34.0001 13.1129H32.3568C32.3568 13.1129 30.5435 14.5565 30.4868 14.5565C30.4301 14.5565 32.9235 12.5114 32.9235 12.5114C32.9235 12.5114 32.2435 12.8723 31.9035 12.8723C31.8468 12.8723 31.8468 12.8723 31.7901 12.8122C31.6201 12.6317 33.7735 10.6468 33.7735 10.6468L33.0368 11.1881V7.39864L33.7168 6.79713L34.0001 9.68435L34.2835 6.79713L34.9635 7.39864V11.1881L34.2268 10.6468C34.2268 10.6468 36.3801 12.6317 36.2101 12.8122C36.2101 12.8122 36.1535 12.8723 36.0968 12.8723C35.8135 12.8723 35.0768 12.5114 35.0768 12.5114C35.0768 12.5114 37.5701 14.5565 37.5135 14.5565C37.4568 14.5565 35.6435 13.1129 35.6435 13.1129H34.0001Z" fill="#BFC1C1"/>
<path d="M23.9697 7.51888L24.0831 6.85723C24.0831 6.85723 20.4564 3.97001 20.0597 3.48881C19.6631 3.00761 19.7764 2.0452 19.7764 2.0452L18.7564 1.38354L18.6431 3.97001L23.9697 7.51888Z" fill="#BFC1C1"/>
<path d="M24.1965 10.6466L23.9131 9.68419C23.9131 9.68419 21.2498 7.99998 20.2865 6.73683C19.2665 5.53382 19.2665 4.87216 19.2665 4.87216L18.5865 4.33081L18.4731 7.09773L24.1965 10.6466Z" fill="#BFC1C1"/>
<path d="M40.5733 26.7069L36.9466 26.1054L36.21 26.8272L40.7433 27.2483L41.8766 25.0227L40.5733 26.7069Z" fill="#BFC1C1"/>
<path d="M55.42 47.0377C55.42 47.0377 57.9133 40.6618 56.44 36.2708C56.4966 36.3911 56.5533 36.5114 56.6666 36.6317C57.8 38.737 57.1766 41.564 57.1766 41.564L60.0666 42.346C62.6166 38.737 61.4266 36.5716 61.4266 36.5716C61.7666 38.737 60.35 41.0828 59.5566 41.0828C59.2733 41.0828 59.0466 40.7219 59.1033 39.8197C59.33 36.6919 56.78 34.0452 56.78 34.0452L58.2533 33.564L56.95 33.143L55.59 33.2633C50.83 29.7746 46.8633 29.6543 46.8633 29.6543L47.3733 29.1731L46.24 28.8723L44.71 30.3159C44.71 30.3159 50.49 31.0979 51.85 31.4588C52.4733 31.6392 53.2666 32.3009 54.1166 33.143C53.55 32.7821 52.9266 32.5415 52.19 32.361C52.19 32.361 57.8 34.4061 55.93 42.6468C55.93 42.6468 55.8733 39.8798 54.5133 39.3385C53.1533 38.737 55.0233 44.2107 53.38 48.1806L55.42 47.0377Z" fill="#BFC1C1"/>
<path d="M59.2165 50.5865C59.2165 50.5865 58.1398 50.2858 58.1965 50.5865C58.2532 50.8873 61.8798 52.752 60.8032 59.7896H61.4265C61.4265 59.7896 62.4465 53.2332 59.2165 50.5865Z" fill="#BFC1C1"/>
<path d="M57.6866 54.0753C57.6866 54.0753 55.8166 52.9324 55.3632 53.8347C54.9099 54.7369 57.9132 57.6242 58.7066 56.4813C59.5566 55.3986 57.6866 54.0753 57.6866 54.0753Z" fill="#BFC1C1"/>
<path d="M36.9466 5.65432C35.5866 5.41372 38.42 8.96259 38.8166 7.94003C39.1566 6.85733 36.9466 5.65432 36.9466 5.65432Z" fill="#BFC1C1"/>
<path d="M38.7034 4.57151C38.8168 4.27076 35.5868 2.82715 35.5868 2.82715H34.8501C34.8501 2.82715 38.5334 4.87226 38.7034 4.57151Z" fill="#BFC1C1"/>
<path d="M43.0668 54.797C44.3134 55.5789 45.1634 54.6165 45.1634 54.6165L42.4434 52.5113C42.4434 52.4511 41.8201 53.9549 43.0668 54.797Z" fill="#BFC1C1"/>
<path d="M38.1933 50.4062C39.27 50.9476 40.5166 49.9851 40.5166 49.9851L39.6666 48.8423C39.61 48.9024 37.1166 49.925 38.1933 50.4062Z" fill="#BFC1C1"/>
<path d="M63.8067 40C63.9767 33.7444 58.0267 32.8421 56.8367 32.7218C54.4567 29.7143 49.0733 28.8722 46.4667 28.6316L50.7733 26.2857L51.9067 13.8947L48.1667 15.7594C48.1667 14.5564 48.3366 11.9098 50.2633 10.0451L50.3767 9.92481L50.0367 0L43.35 5.17293C43.0667 4.81203 42.6133 4.33083 41.82 3.84962C41.7633 3.78947 41.65 3.72932 41.5933 3.72932C41.31 3.54887 41.0267 3.42857 40.6867 3.24812C40.5733 3.18797 40.46 3.18797 40.4033 3.12782H40.3466C40.2333 3.06767 40.12 3.00752 40.0067 2.94737C39.61 2.82707 39.2133 2.70677 38.76 2.58647H38.7033C38.59 2.52632 38.42 2.52632 38.3067 2.52632H38.25C38.08 2.40602 37.9666 2.40602 37.7966 2.40602H37.74C37.4 2.34586 37.06 2.28571 36.6633 2.22556H36.6067C36.4367 2.22556 36.2667 2.16541 36.1533 2.16541C36.0967 2.16541 36.04 2.16541 36.04 2.16541C35.87 2.16541 35.7567 2.16541 35.5867 2.10526C35.53 2.10526 35.4733 2.10526 35.4167 2.10526C35.2467 2.10526 35.1333 2.10526 34.9633 2.10526C34.9067 2.10526 34.85 2.10526 34.7933 2.10526C34.5667 2.10526 34.3967 2.10526 34.17 2.10526C34.1133 2.10526 34.0567 2.10526 34 2.10526C33.9433 2.10526 33.8867 2.10526 33.83 2.10526C33.6033 2.10526 33.4333 2.10526 33.2067 2.10526C33.15 2.10526 33.0933 2.10526 33.0367 2.10526C32.9233 2.10526 32.7533 2.10526 32.64 2.10526C32.5833 2.10526 32.47 2.10526 32.4133 2.10526C32.3 2.10526 32.1867 2.10526 32.0167 2.10526C31.96 2.10526 31.9033 2.10526 31.79 2.10526C31.6767 2.10526 31.5067 2.10526 31.3933 2.16541C31.3367 2.16541 31.28 2.16541 31.2233 2.16541C31.0533 2.16541 30.8833 2.22556 30.7133 2.22556H30.6567C30.4867 2.22556 30.3733 2.28571 30.26 2.28571C30.2033 2.28571 30.1467 2.28571 30.09 2.28571C30.0333 2.40602 29.92 2.40602 29.8067 2.46617C29.75 2.46617 29.6933 2.46617 29.6367 2.52632C29.5233 2.52632 29.4667 2.58647 29.3533 2.58647C29.2967 2.58647 29.24 2.58647 29.1833 2.64662C29.07 2.64662 28.9567 2.70677 28.9 2.70677C28.8433 2.70677 28.8433 2.70677 28.7867 2.70677C28.6733 2.76692 28.5033 2.76692 28.39 2.82707H28.3333C28.22 2.88722 28.1067 2.88722 28.05 2.94737C27.9933 2.94737 27.9933 2.94737 27.9367 3.00752C27.88 3.00752 27.7667 3.06767 27.71 3.06767C27.6533 3.06767 27.6533 3.12782 27.5967 3.12782C27.54 3.18797 27.4267 3.18797 27.37 3.24812C27.3133 3.24812 27.3133 3.24812 27.2567 3.30827C27.2 3.36842 27.0867 3.36842 27.03 3.42857H26.9733C26.86 3.48872 26.8033 3.54887 26.69 3.54887C26.69 3.54887 26.6333 3.54887 26.6333 3.60902C26.5767 3.66917 26.52 3.66917 26.4067 3.72932L26.35 3.78947C26.2933 3.84962 26.2367 3.84962 26.18 3.90977L26.1233 3.96992C26.0667 4.03008 26.01 4.03008 25.9533 4.09023C25.9533 4.09023 25.8967 4.09023 25.8967 4.15038C25.84 4.21053 25.7833 4.27068 25.7267 4.27068C25.67 4.21053 25.5567 4.27068 25.5 4.33083C25.5 4.33083 25.5 4.33083 25.4433 4.39098C25.3867 4.45113 25.33 4.45113 25.33 4.51128C25.33 4.51128 25.2733 4.51128 25.2733 4.57143C25.2167 4.63158 25.2167 4.63158 25.16 4.69173C25.16 4.69173 25.1033 4.69173 25.1033 4.75188C25.0467 4.81203 25.0467 4.81203 24.99 4.87218C24.99 4.87218 24.99 4.87218 24.9333 4.93233C24.8767 4.99248 24.7633 5.11278 24.7067 5.17293C24.7067 5.17293 24.7067 5.17293 24.65 5.23308L24.5933 5.29323C24.5933 5.29323 24.5933 5.29323 24.5367 5.35338C24.5367 5.35338 24.5367 5.35338 24.5367 5.41353L17.9633 0L17.6233 9.86466L17.7367 9.98496C19.6633 11.8496 19.8333 14.4962 19.8333 15.6992L16.0933 13.8346L17.2267 26.2256L21.5333 28.5714C18.9267 28.812 13.5433 29.6541 11.1067 32.6617C9.91665 32.8421 3.96665 33.7444 4.19332 40C4.36332 45.7744 7.36665 47.5188 8.38665 47.9399L8.27332 50.1053C7.70665 50.8872 4.53332 55.8196 6.17665 60.0902L6.28999 60.391H19.04L20.91 55.6391L21.3633 56.8421L26.4067 60.391H41.65L46.6933 56.8421L47.1466 55.6391L49.0167 60.391H61.7667L61.88 60.0902C63.5233 55.8196 60.2933 50.8872 59.7833 50.1053L59.67 47.9399C60.6333 47.5188 63.6367 45.7744 63.8067 40ZM56.7233 33.5639C57.12 33.5639 58.48 33.7444 59.8966 34.4662C60.8033 34.9474 61.54 35.609 62.05 36.391C62.6167 39.218 61.2567 41.4436 60.5767 42.406L57.9133 41.7444C57.9133 41.7444 58.48 40.6015 57.9133 37.8947C57.46 35.7293 56.3833 34.406 55.9867 33.985L56.7233 33.5639ZM54.91 46.7368C54.91 46.7368 53.72 46.797 52.4167 46.3759C54.06 37.594 50.66 34.3459 50.66 34.3459C52.87 38.9774 52.19 43.9699 51.68 46.1353C51.0566 45.8346 50.4333 45.4135 49.98 44.7519C49.98 44.7519 51.1133 36.6316 47.0333 31.8196C47.0333 31.8196 55.6466 33.0226 55.93 40.2406C55.93 40.2406 56.5533 35.3684 52.19 32.3008C53.04 32.782 53.89 33.3233 54.6267 34.1053C58.48 38.015 55.8733 44.6316 54.91 46.7368ZM20.91 50.406C22.61 50.2256 24.0267 49.4436 25.1033 48.1805C25.5 47.6992 25.7833 47.218 26.0667 46.6767L27.2 47.8196C26.52 48.782 24.1967 51.8496 22.8367 52.2105C21.25 52.7519 20.91 50.4662 20.91 50.406ZM18.02 44.7519C17.5667 45.4135 16.9433 45.8346 16.32 46.1353C15.8667 44.0301 15.13 38.9774 17.34 34.3459C17.34 34.3459 13.8833 37.594 15.5833 46.3759C14.28 46.797 13.09 46.7368 13.09 46.7368C12.1267 44.5714 9.57665 37.9549 13.3733 34.1654C14.11 33.4436 14.96 32.8421 15.81 32.3609C11.39 35.4286 12.07 40.3008 12.07 40.3008C12.3533 33.0827 20.9667 31.8797 20.9667 31.8797C16.8867 36.6917 18.02 44.7519 18.02 44.7519ZM44.88 28.5113L42.0466 30.0752L41.14 29.1128L44.2567 25.7444H45.6167L45.39 28.2707L44.88 28.5113ZM34 39.0977V40.3008V39.0977C34 39.0977 32.98 39.1579 29.8067 38.6165C26.6333 38.1353 24.14 31.0977 26.86 34.4662C29.58 37.8947 34 37.4737 34 37.4737V37.1128V37.4737C34 37.4737 38.42 37.8947 41.14 34.5263C43.86 31.1579 41.31 38.1955 38.1933 38.6767C35.02 39.0977 34 39.0977 34 39.0977ZM39.1 32.8421C39.1 32.8421 37.91 35.609 34 35.8496C30.1467 35.609 28.9 32.8421 28.9 32.8421C31.7333 34.9474 34 34.2857 34 34.2857C34 34.2857 36.2667 35.0075 39.1 32.8421ZM34 36.2707V36.2105V36.2707ZM25.9533 30.0752L23.2333 28.5714L22.61 28.2707L22.3833 25.7444H23.7433L26.86 29.1128L25.9533 30.0752ZM35.4167 41.1429L38.1933 42.8271V44.5714L34 48.4211L29.8067 44.5714V42.8271L32.5833 41.1429H35.4167V41.1429ZM45.05 24.9023L47.0333 22.7368L48.0533 22.797L45.9 24.9023H45.05ZM42.8966 21.6541L40.0633 25.4436L36.8333 24.7218L41.5367 20.391L42.8966 21.6541ZM40.4033 26.406L44.0867 21.5338L42.7833 20.3308L44.03 18.8271C44.03 18.8271 45.56 18.4662 45.56 20.1504C45.56 21.8346 41.5367 26.8271 41.5367 26.8271L46.5233 21.4135L46.4667 22.0752L41.7633 27.188L34.9633 26.4662L36.04 25.5038L40.4033 26.406ZM40.97 28.0301L39.95 29.1729L40.7433 30.015L36.8333 32.7218C36.4933 32.9624 36.0967 33.1429 35.6433 33.3233C35.2467 33.4436 34.85 33.5038 34.4533 33.5038H33.5467C33.15 33.5038 32.7533 33.4436 32.3567 33.3233C31.96 33.203 31.5633 33.0226 31.1667 32.7218L27.2567 30.015L28.05 29.1729L27.03 28.0301L33.8867 27.2481L34.0567 27.3684L34.2267 27.2481L40.97 28.0301ZM26.2933 27.2481L21.59 22.1353L21.5333 21.4737L26.52 26.8872C26.52 26.8872 22.5533 21.8346 22.4967 20.2105C22.4967 18.5263 24.0267 18.8872 24.0267 18.8872L25.2733 20.391L23.97 21.594L27.6533 26.4662L31.96 25.5038L33.0367 26.4662L26.2933 27.2481ZM27.9933 25.4436L25.16 21.6541L26.52 20.391L31.2233 24.7218L27.9933 25.4436ZM20.9667 22.7368L22.95 24.9023H22.1L19.9467 22.7368H20.9667ZM27.3133 38.8571C28.8433 40 30.3733 40.6015 31.3933 40.9023L28.9567 42.3459V44.9323L33.5467 49.203V52.5113L26.69 45.1729C27.4267 42.7669 27.4267 40.2406 27.3133 38.8571ZM31.28 52.2105C30.3733 52.4511 28.39 52.7519 27.2 51.0075C27.71 50.3459 28.1067 49.6842 28.39 49.203L31.28 52.2105ZM39.61 49.203C39.8933 49.7444 40.3467 50.3459 40.8 51.0075C39.61 52.7519 37.6267 52.4511 36.72 52.2105L39.61 49.203ZM34.4533 52.4511V49.1429L39.0433 44.8722V42.2857L36.6067 40.9023C37.57 40.6015 39.1567 40 40.6867 38.8571C40.63 40.2406 40.5733 42.7669 41.31 45.1729L34.4533 52.4511ZM55.93 32.9624L55.0233 33.3835C52.1333 30.6165 48.2233 30.015 45.39 29.9549L45.9567 29.4737C48.28 29.6541 53.4933 30.3759 55.93 32.9624ZM49.9233 25.7444L46.2966 27.7293L46.4667 25.5038L50.2633 21.6541L49.9233 25.7444ZM50.8867 15.3383L50.4333 20.3308L48.8466 21.8947L47.3167 21.8346L47.6 18.0451L48.11 16.6617L50.8867 15.3383ZM49.3567 6.91729L44.03 10.3459C44.1433 9.50376 44.2 8.7218 44.2 8.1203L49.3 4.63158L49.3567 6.91729ZM49.1867 1.68421L49.2433 3.54887L44.0867 7.09774C43.9733 6.55639 43.86 6.19549 43.7466 5.89474L49.1867 1.68421ZM34.4533 2.94737C34.51 2.94737 34.5667 2.94737 34.5667 2.94737C34.68 2.94737 34.7933 2.94737 34.9067 2.94737C35.02 2.94737 35.1333 2.94737 35.2467 2.94737C35.36 2.94737 35.4733 2.94737 35.5867 2.94737C35.7 2.94737 35.7567 2.94737 35.87 2.94737C35.9833 2.94737 36.0967 2.94737 36.1533 2.94737C36.2667 2.94737 36.3233 2.94737 36.4367 2.94737C36.55 2.94737 36.6633 2.94737 36.72 3.00752C36.7767 3.00752 36.89 3.00752 36.9466 3.00752C37.06 3.00752 37.1733 3.00752 37.2867 3.06767C37.3433 3.06767 37.4 3.06767 37.4567 3.06767C37.57 3.06767 37.6833 3.12782 37.7966 3.12782H37.8533C41.8767 3.90977 42.8966 5.83459 42.8966 5.89474L43.0667 6.31579C43.2933 6.91729 43.6333 8.3609 43.0667 10.8872L42.67 11.2481C42.8967 10.2857 43.0667 8.66165 42.7833 6.97744C42.33 4.39098 38.1367 3.66917 38.1367 3.66917C40.8567 4.27068 40.46 6.31579 40.46 6.31579L34.4533 2.94737V4.81203L36.55 6.55639C36.55 6.55639 35.6433 5.41353 35.6433 4.93233C35.6433 4.45113 42.33 6.91729 41.5933 9.20301C40.8567 11.4887 37.06 10.6466 37.06 10.6466L39.44 13.0526V14.6767L39.1 15.0376V13.2331L36.6067 10.7669V6.55639L34.4533 4.81203V2.94737ZM26.4067 9.20301C25.67 6.91729 32.4133 4.39098 32.3567 4.93233C32.3567 5.41353 31.45 6.55639 31.45 6.55639V10.7669L28.9567 13.2331V14.9774L28.6167 14.6165V12.9925L30.9967 10.5865C30.9967 10.6466 27.1433 11.5489 26.4067 9.20301ZM29.8067 17.0827L31.6767 15.6992H33.9433V14.0752V15.6992H36.21L38.08 17.0827V18.6466L34 23.5188L29.8067 18.6466V17.0827ZM34 5.59399L35.6433 6.97744V11.1278L38.1367 13.594V15.1579L35.7 13.2331H32.3L29.8067 15.1579V13.594L32.3 11.1278V6.97744L34 5.59399ZM24.99 6.37594L25.16 6.01504C25.16 6.01504 25.5567 5.23308 26.86 4.45113C27.8233 3.84962 29.4667 3.24812 32.0167 3.00752C32.0733 3.00752 32.0733 3.00752 32.13 3.00752C32.3 3.00752 32.4133 3.00752 32.5833 2.94737C32.64 2.94737 32.6967 2.94737 32.81 2.94737C32.9233 2.94737 33.0933 2.94737 33.2067 2.94737C33.32 2.94737 33.3767 2.94737 33.49 2.94737C33.5467 2.94737 33.6033 2.94737 33.6033 2.94737L27.54 6.43609C27.54 6.43609 27.0867 4.39098 29.8633 3.78947C29.8633 3.78947 25.67 4.51128 25.2167 7.09774C24.9333 8.72181 25.16 10.406 25.33 11.3684L24.9333 11.0075C24.3667 8.3609 24.7633 6.91729 24.99 6.37594ZM18.8133 1.68421L24.2533 5.89474C24.14 6.13534 24.0267 6.55639 23.9133 7.09774L18.7567 3.54887L18.8133 1.68421ZM18.7 4.57143L23.8 8.06015C23.8 8.66165 23.8 9.38346 23.97 10.2857L18.6433 6.85714L18.7 4.57143ZM18.53 9.50376L18.5867 7.8797L24.2533 11.4887L28.9567 16.1805V17.8045L22.3833 13.4737L29.07 19.0075L34 24.782L38.93 19.0075L45.6167 13.4737L39.0433 17.8045V16.2406L43.7466 11.5489L49.4133 7.93985L49.47 9.56391C46.9767 12.0902 47.2033 15.6992 47.3167 16.3609L46.8633 17.6241H43.2933L34 26.1654L24.7067 17.5639H21.1367L20.6833 16.3008C20.7967 15.6992 21.0233 12.0301 18.53 9.50376ZM17.1133 15.3383L19.89 16.7218L20.4 18.1053L20.6833 21.8947L19.1533 21.9549L17.5667 20.3308L17.1133 15.3383ZM18.0767 25.7444L17.68 21.6541L21.4767 25.5038L21.6467 27.7293L18.0767 25.7444ZM21.9867 29.4737L22.5533 29.9549C19.72 30.015 15.81 30.6165 12.92 33.3835L12.0133 32.9624C14.5067 30.3759 19.72 29.6541 21.9867 29.4737ZM5.94999 36.3308C7.53665 33.9248 10.6533 33.5639 11.2767 33.5038L12.0133 33.8647C11.6167 34.2857 10.54 35.609 10.0867 37.7744C9.51999 40.4812 10.0867 41.6241 10.0867 41.6241L7.42332 42.2857C6.74332 41.3835 5.38332 39.1579 5.94999 36.3308ZM5.04332 40C5.04332 39.6993 5.04332 39.3985 5.04332 39.1579C5.49665 41.7444 7.13999 43.4286 7.25332 43.4887L7.42332 43.6692L10.88 42.9474C11.3333 44.9925 12.07 46.6767 12.4667 47.4586C10.9933 47.8797 9.80332 47.579 9.34999 47.4586V47.3985L9.00999 47.2782C8.78332 47.218 5.21332 46.1353 5.04332 40ZM6.85665 59.4887C5.55332 55.4587 9.00999 50.5263 9.06665 50.5263L9.12332 50.406L9.17999 48.9624C10.0867 48.9023 11.9 48.8421 12.0133 49.1429C12.1267 49.5639 9.80332 51.7293 9.80332 51.7293L14.9033 49.203C14.9033 49.203 17.34 52.391 17.68 54.1955C17.9633 55.6992 15.1867 58.5263 14.1667 59.4887H12.07C13.2033 58.6466 16.0933 56.3609 16.3767 55.3383C16.7167 54.0752 14.5067 50.6466 14.5067 50.6466L9.91665 52.6316C9.91665 52.6316 13.77 52.0301 14.0533 54.0752C14.3933 56.1805 6.85665 59.4887 6.85665 59.4887ZM18.4167 59.4887H17.1133L20.23 51.9699L20.4567 54.3158L18.4167 59.4887ZM20.8533 49.5639L20.5133 46.3759V46.3158C20.5133 46.3158 19.7767 43.3083 20.1733 39.9399C20.5133 36.9925 21.5333 34.7068 23.1767 33.0226C23.8567 35.2481 25.1033 36.8722 26.4067 38.0752C26.52 38.9774 26.9733 44.6316 24.4233 47.6391C23.5167 48.7218 22.3267 49.3835 20.8533 49.5639ZM21.3067 54.1353V53.8947C24.14 54.1955 27.6533 48.3609 27.6533 48.3609L27.8233 48.5414C27.4833 49.0827 27.03 49.8045 26.4633 50.5865C25.0467 52.5113 23.6867 53.7143 22.61 54.0752C22.1 54.2556 21.7033 54.2556 21.3067 54.1353ZM34 59.4887H26.6333L22.0433 56.2406L21.59 55.0376C21.7033 55.0376 21.8167 55.0376 21.8733 55.0376C22.1567 55.0376 22.4967 54.9774 22.78 54.9173C24.1967 54.4962 25.5567 53.1128 26.6333 51.7293C26.9733 52.3308 27.6533 53.8346 26.7467 55.218C25.6133 57.0827 21.9867 56.2406 21.9867 56.2406L26.5767 59.4887C26.5767 59.4887 30.5433 59.0075 31.1667 54.1955L32.98 55.6391L34 59.4887L34.9067 55.6391L36.72 54.1955C37.4 59.0075 41.31 59.4887 41.31 59.4887H34V59.4887ZM45.9567 56.3008C45.9567 56.3008 42.33 57.1429 41.1966 55.2782C40.3466 53.8346 40.97 52.391 41.31 51.7895C42.3867 53.1729 43.7466 54.5564 45.1633 54.9774C45.4466 55.0977 45.7867 55.0977 46.07 55.0977C46.1833 55.0977 46.2967 55.0977 46.3533 55.0977L45.9567 56.3008ZM45.4466 54.1353C43.35 53.4737 41.14 50.1654 40.2333 48.5414L40.4033 48.3609C40.4033 48.3609 43.9167 54.1955 46.75 53.8947V54.1353C46.2967 54.2556 45.9 54.2556 45.4466 54.1353ZM45.1633 52.2707C43.8033 51.9098 41.5367 48.8421 40.8 47.8797L41.9333 46.7368C42.2167 47.2782 42.5 47.7594 42.8966 48.2406C43.9733 49.5038 45.3333 50.2256 47.09 50.4662C47.09 50.406 46.75 52.7519 45.1633 52.2707ZM47.1466 49.5639C45.6733 49.3835 44.4833 48.7218 43.5767 47.6391C41.0267 44.6316 41.5367 38.9774 41.5933 38.0752C42.8967 36.8722 44.1433 35.2481 44.8233 33.0226C46.5233 34.7068 47.4867 36.9925 47.8267 39.9399C48.2233 43.3083 47.4867 46.2556 47.4867 46.3158L47.1466 49.5639ZM49.5833 59.4887L47.5433 54.3158L47.77 51.9699L50.8867 59.4887H49.5833ZM61.1433 59.4887C61.1433 59.4887 53.6633 56.1203 53.89 54.015C54.1733 51.9098 58.0267 52.5714 58.0267 52.5714L53.4367 50.5865C53.4367 50.5865 51.2267 54.015 51.5667 55.2782C51.85 56.3008 54.74 58.5865 55.8733 59.4286H53.7767C52.7567 58.4662 49.98 55.6391 50.2633 54.1353C50.6033 52.3308 53.04 49.1429 53.04 49.1429L58.14 51.6692C58.14 51.6692 55.8166 49.5038 55.93 49.0827C55.9866 48.782 57.8566 48.8421 58.7633 48.9023L58.82 50.3459L58.9333 50.5263C58.99 50.5263 62.4467 55.4587 61.1433 59.4887ZM59.0466 47.218L58.7067 47.2782V47.3383C58.1967 47.5188 57.0633 47.7594 55.59 47.3383C55.9867 46.5564 56.7233 44.8722 57.1767 42.8271L60.6333 43.5489L60.8033 43.3684C60.9167 43.2481 62.5033 41.6241 63.0133 39.0376C63.0133 39.3383 63.07 39.6391 63.0133 39.9399C62.7866 46.1353 59.2166 47.218 59.0466 47.218Z" fill="black"/>
<path d="M20.3432 21.654L20.1732 18.2255L19.7198 17.0225V18.2856L17.3398 16.0601L17.6798 20.2104L19.2098 21.654H20.3432Z" fill="black"/>
<path d="M20.9101 16.3008L21.3068 17.2031H24.6501L34.0001 25.9249V25.0226L28.9568 19.2482C28.9568 19.2482 31.9601 23.2783 31.6201 23.158C31.2801 23.0978 24.8768 16.8422 24.8768 16.8422L22.1568 13.7745C22.1568 13.7745 23.2335 16.1805 22.8935 16.2407C22.5535 16.361 21.4768 10.346 18.8701 8.42114V9.4437C18.8701 9.4437 21.5901 11.4287 20.9101 16.3008Z" fill="black"/>
<path d="M28.7302 17.4436V16.3007L24.0269 11.5488L28.4469 16.4812L28.7302 17.4436Z" fill="black"/>
<path d="M18.8701 4.93237V6.79704L23.4035 9.68425C23.4035 9.68425 19.1535 6.91734 18.8701 4.93237Z" fill="black"/>
<path d="M23.6306 6.67679L23.4033 6.49634C23.5169 6.61664 23.6306 6.67679 23.6306 6.67679Z" fill="black"/>
<path d="M18.9831 2.16553V3.36853L23.4031 6.49635C22.4398 5.8347 18.9264 3.24823 18.9831 2.16553Z" fill="black"/>
<path d="M30.0332 14.7368L32.2432 12.9925C32.2432 12.9925 31.4499 13.2331 31.3365 13.1128C31.1665 12.9925 32.8665 11.3082 32.8665 11.3082L32.8099 7.27817L33.9999 6.07517V5.77441L32.5265 7.09772V11.2481L30.0332 13.6541V14.7368Z" fill="black"/>
<path d="M22.7232 28.1503L25.8966 29.8946C25.8966 29.8946 23.2332 28.1503 22.4966 25.9849L22.7232 28.1503Z" fill="black"/>
<path d="M17.8501 22.1353L18.2468 25.624L21.4768 27.4285C21.4768 27.4285 18.2468 25.3232 17.8501 22.1353Z" fill="black"/>
<path d="M47.8267 18.2255L47.6567 21.654H48.7901L50.3201 20.2104L50.6601 16.0601L48.2801 18.2856V17.0225L47.8267 18.2255Z" fill="black"/>
<path d="M46.75 17.2632L47.1467 16.361C46.4667 11.4888 49.1867 9.50385 49.1867 9.50385V8.42114C46.58 10.346 45.5033 16.361 45.1633 16.2407C44.8233 16.1204 45.9 13.7745 45.9 13.7745L43.1233 16.8422C43.1233 16.8422 36.72 23.0978 36.38 23.2181C36.04 23.2783 39.0433 19.3084 39.0433 19.3084L34 25.0226V25.9249L43.35 17.2632H46.75V17.2632Z" fill="black"/>
<path d="M39.27 17.4436L39.5534 16.4812L43.9734 11.5488L39.27 16.3007V17.4436Z" fill="black"/>
<path d="M49.13 4.93237C48.8467 6.91734 44.5967 9.68425 44.5967 9.68425L49.13 6.79704V4.93237Z" fill="black"/>
<path d="M49.0167 2.16553C49.0733 3.24823 45.5033 5.8347 44.5967 6.49635L49.0167 3.36853V2.16553Z" fill="black"/>
<path d="M44.3701 6.67679C44.3701 6.67679 44.4269 6.61664 44.5973 6.49634L44.3701 6.67679Z" fill="black"/>
<path d="M35.19 11.3082C35.19 11.3082 36.8333 12.9925 36.72 13.1128C36.55 13.2331 35.8133 12.9925 35.8133 12.9925L38.0233 14.7368V13.6541L35.53 11.1879V7.03757L34 5.77441V6.01502L35.19 7.21802V11.3082Z" fill="black"/>
<path d="M34 32.782V33.1429V32.782C34 32.782 29.2967 30.6768 29.24 28.3911L33.7167 27.3685L27.54 28.0903L28.4467 29.1129L27.7667 29.8347C27.7667 29.8347 30.9967 32.8422 34 33.2031C36.9467 32.8422 40.2334 29.8347 40.2334 29.8347L39.61 29.0527L40.5167 28.0302L34.34 27.3083L38.8167 28.3309C38.7034 30.7369 34 32.782 34 32.782Z" fill="black"/>
<path d="M42.1035 29.8347L45.2768 28.0903L45.5035 25.8647C44.8235 28.0903 42.1035 29.8347 42.1035 29.8347Z" fill="black"/>
<path d="M50.1501 22.1353C49.7534 25.3232 46.5234 27.4285 46.5234 27.4285L49.7534 25.624L50.1501 22.1353Z" fill="black"/>
<path d="M42.2734 38.1954C44.1434 38.7368 44.0868 36.9924 44.9934 37.8345C45.9001 38.7368 46.6934 46.4962 46.6934 46.4962C48.5068 38.1955 44.9934 34.1052 44.9934 34.1052C44.8234 36.4511 42.2734 38.1954 42.2734 38.1954Z" fill="black"/>
<path d="M39.0435 45.4135L34.6235 49.3233V51.8496L41.0269 45.1128C41.0269 45.1128 36.3802 49.6241 35.9269 49.5038C35.4735 49.4436 39.0435 45.4135 39.0435 45.4135Z" fill="black"/>
<path d="M25.7265 38.1954C25.7265 38.1954 23.1765 36.4511 23.0065 34.1052C23.0065 34.1052 19.4365 38.1955 21.3065 46.4962C21.3065 46.4962 22.0999 38.6767 23.0065 37.8345C23.9699 36.9924 23.9132 38.7368 25.7265 38.1954Z" fill="black"/>
<path d="M32.0731 49.5638C31.6198 49.6841 26.9731 45.1729 26.9731 45.1729L33.3765 51.9097V49.3232L28.9565 45.3533C28.9565 45.4135 32.5265 49.4435 32.0731 49.5638Z" fill="black"/>
<path d="M26.6333 20.9924L25.6133 21.7744L28.1066 25.0225L30.5433 24.6015L26.6333 20.9924Z" fill="#08B7D0"/>
<path d="M26.1235 21.9548L26.7469 21.4736L29.6935 24.3007L28.2202 24.5413L26.1235 21.9548Z" fill="#8BD9DF"/>
<path d="M41.3665 20.9924L42.3865 21.7744L39.8932 25.0225L37.4565 24.6015L41.3665 20.9924Z" fill="#08B7D0"/>
<path d="M41.8766 21.9548L41.2533 21.4736L38.3066 24.3007L39.78 24.5413L41.8766 21.9548Z" fill="#8BD9DF"/>
<path d="M68 57.143V63.2783L67.8867 63.5189L66.47 66.346L66.3 66.767L65.96 66.9475L64.4867 67.7294V69.2332V70.3159V72.8422V75.0076V76.6918L62.6167 78.7971L61.6533 78.4964C60.1233 78.0152 59.3867 77.8347 57.8567 77.4137L56.95 77.1731V76.2106V75.0076L50.32 75.549C49.8667 75.6693 49.4133 75.6693 48.96 75.6693C48.8467 75.6693 48.7333 75.6693 48.6767 75.6693H48.62L47.8833 75.7294L47.77 75.549H47.7133C47.5433 75.4888 47.3733 75.4888 47.1467 75.4287V79.94H20.91V75.4888C20.6267 75.549 20.4 75.549 20.1167 75.549C19.6067 75.549 19.0967 75.4888 18.6433 75.3685L14.8467 74.8272L15.64 76.0903L13.94 76.4512C12.2967 76.8121 11.5033 76.9926 9.86 77.4738L9.29333 77.5941L8.84 77.2934L7.76333 76.5715V77.1129V78.0152L6.85667 78.2558C5.32667 78.737 4.59 78.9776 3.06 79.4588L2.09667 79.7595L1.58667 78.9174L0.17 76.6317L0 76.5114V57.143H1.24667H2.21C3.96667 57.143 5.1 57.143 7.08333 57.0828H7.14C7.87667 57.0828 8.61333 57.2031 9.29333 57.4437L14.9033 59.1881C15.0167 59.0678 15.1867 58.8873 15.3567 58.767C16.7733 57.4437 18.53 56.7219 20.5133 56.7219C20.57 56.7219 20.6267 56.7219 20.6267 56.7219C20.6833 56.7219 20.74 56.7219 20.74 56.7219H20.7967C20.8533 56.7219 20.8533 56.7219 20.91 56.7219C20.9667 56.7219 21.08 56.7219 21.1367 56.7219C21.1933 56.7219 21.25 56.7219 21.25 56.7219C21.3067 56.7219 21.42 56.7219 21.4767 56.7219C21.5333 56.7219 21.59 56.7219 21.6467 56.7219C21.7033 56.7219 21.76 56.7219 21.8733 56.7821C21.93 56.7821 21.9867 56.7821 22.0433 56.7821C22.1 56.7821 22.1567 56.7821 22.2133 56.8422C22.27 56.8422 22.3267 56.8422 22.3833 56.9024C22.44 56.9024 22.4967 56.9625 22.5533 56.9625C22.61 56.9625 22.6667 57.0227 22.7233 57.0227C22.78 57.0227 22.8367 57.0828 22.8933 57.0828C22.95 57.0828 23.0067 57.143 23.0633 57.143C23.12 57.143 23.1767 57.2031 23.2333 57.2031C23.29 57.2031 23.3467 57.2633 23.4033 57.2633L27.3133 58.5866V56.9024H28.56C30.26 56.9024 31.96 56.9024 33.66 56.9024H35.1333C35.2467 56.9024 35.36 56.9024 35.4733 56.9024H35.6433C35.7 56.9024 35.7567 56.9024 35.7567 56.9024H35.8133C35.87 56.9024 35.9267 56.9024 35.9833 56.9024H36.0967C36.1533 56.9024 36.21 56.9024 36.2667 56.9024H36.38C36.4367 56.9024 36.4933 56.9024 36.55 56.9024H36.6633C36.72 56.9024 36.7767 56.9024 36.8333 56.9024H36.89C36.9467 56.9024 37.0033 56.9024 37.06 56.9625H37.1167C37.1733 56.9625 37.23 56.9625 37.2867 57.0227H37.3433C37.4 57.0227 37.4567 57.0227 37.5133 57.0828H37.57C37.6267 57.0828 37.6833 57.143 37.74 57.143H37.7967C37.8533 57.143 37.91 57.2031 37.9667 57.2031H38.0233C38.08 57.2031 38.1367 57.2633 38.1933 57.2633H38.25C38.3067 57.2633 38.42 57.3234 38.4767 57.3234C38.6467 57.3836 38.8167 57.4437 38.93 57.564C38.93 57.564 38.9867 57.564 38.9867 57.6242C39.0433 57.6843 39.1 57.6843 39.1567 57.7445C39.1567 57.7445 39.2133 57.7445 39.2133 57.8046C39.27 57.8648 39.3267 57.8648 39.3833 57.9249L39.44 57.9851C39.4967 58.0452 39.5533 58.0452 39.5533 58.1054L39.61 58.1655C39.6667 58.2257 39.6667 58.2257 39.7233 58.2858L39.78 58.346C39.8367 58.4061 39.8367 58.4061 39.8933 58.4663L39.95 58.5264C40.0067 58.5866 40.0067 58.5866 40.0633 58.6467L40.12 58.7069C40.1767 58.767 40.1767 58.767 40.2333 58.8272L40.29 58.8873C40.3467 58.9475 40.3467 58.9475 40.4033 59.0076L40.46 59.0678L40.5167 59.1279L44.88 57.2031C44.9933 57.143 45.1067 57.0828 45.22 57.0828L45.9 57.143H45.9567C46.75 56.9024 47.6 56.7219 48.45 56.7219C50.0933 56.7219 51.6233 57.2031 52.87 58.1054C52.9833 58.1655 53.04 58.2257 53.1533 58.346C53.1533 58.346 53.1533 58.346 53.21 58.346C53.2667 58.346 53.2667 58.4061 53.3233 58.4061L54.3433 57.6242V56.9625H55.59C58.48 56.9625 61.4267 57.0227 64.3167 57.0227C64.6567 57.0227 65.0533 57.0227 65.3933 57.0227C65.8467 57.0227 66.2433 57.0227 66.6967 57.0227L68 57.143Z" fill="black"/>
<path d="M66.7533 58.4061C63.0133 58.4061 59.3299 58.3459 55.5899 58.3459C55.5899 59.9098 55.5899 60.6316 55.5899 62.1955C57.0066 62.2557 57.6866 62.3158 59.1033 62.4361C59.1033 63.8196 59.1033 65.2632 59.1033 66.6467C59.1033 69.0527 59.1033 71.4587 59.1599 73.8647C60.8033 74.2858 61.5966 74.5264 63.1832 75.0076C63.1832 72.4813 63.1832 69.9549 63.1832 67.4286C63.1832 65.8647 63.1832 64.3008 63.1832 62.7369C64.5999 62.8572 65.2799 62.9173 66.6966 63.0376V58.4061H66.7533ZM10.2566 68.8121C11.2199 68.0301 11.8999 67.0076 12.2399 65.7444C12.4099 65.1429 12.5232 64.4813 12.5799 63.8196C12.6932 60.7519 10.1432 58.4061 7.08325 58.3459C4.75992 58.3459 3.56992 58.3459 1.24658 58.4061V76.1504C2.83325 75.6091 3.68325 75.3083 5.26992 74.8271C5.26992 73.1429 5.26992 72.361 5.26992 70.6767C5.72325 70.5564 5.94992 70.5564 6.34658 70.4361C7.13992 71.8798 7.53658 72.6016 8.38658 73.9249C10.1432 73.4437 10.9932 73.2632 12.6932 72.8422C11.7299 71.3384 11.2199 70.4963 10.2566 68.8121ZM5.32658 62.6166C5.89325 62.5564 6.23325 62.5564 6.79992 62.4963C7.93325 62.4361 8.44325 63.0376 8.44325 64.1805C8.44325 65.3234 7.87658 66.1053 6.79992 66.2256C6.23325 66.2858 5.89325 66.3459 5.32658 66.4662C5.32658 64.9625 5.32658 64.1805 5.32658 62.6166ZM38.9866 64.4813C38.8166 64.361 38.5899 64.3008 38.4199 64.1805C39.5533 63.6392 40.1199 62.6767 40.0632 61.5339C40.0632 59.0677 37.2866 58.1655 35.1899 58.2858C33.0366 58.2858 30.8832 58.2858 28.7299 58.2858C28.7299 60.3309 28.7299 62.376 28.7299 64.4211C28.7299 66.5264 28.7299 68.6316 28.7299 70.7369C30.9966 70.6166 33.2632 70.6166 35.5866 70.6166C37.7966 70.6767 40.6866 70.0752 40.7433 67.3685C40.6866 66.1053 40.0633 65.0828 38.9866 64.4813ZM32.7532 61.173C33.4899 61.173 33.8866 61.173 34.6799 61.173C35.5866 61.173 35.9832 61.4737 35.9832 62.0752C35.9832 62.6767 35.5866 62.9775 34.6799 62.9775C33.9432 62.9775 33.5466 62.9775 32.7532 62.9775C32.7532 62.2557 32.7532 61.8948 32.7532 61.173ZM35.1899 67.6692C34.2266 67.6692 33.7166 67.6692 32.7532 67.6692C32.7532 66.8873 32.7532 66.5264 32.7532 65.7444C33.7166 65.7444 34.2266 65.7444 35.1899 65.7444C36.0966 65.7444 36.5499 66.1053 36.5499 66.7068C36.5499 67.3685 36.0966 67.6692 35.1899 67.6692ZM48.3933 57.985C44.8233 57.985 41.5933 61.0527 41.5933 64.6016C41.6499 68.2106 44.9933 71.3384 48.4499 71.9399C52.3033 72.6617 55.0799 69.4737 55.1933 65.985C55.1933 65.8647 55.1933 65.7444 55.1933 65.6241C55.1933 61.7143 52.6433 57.985 48.3933 57.985ZM48.4499 68.2707C46.9766 68.0903 45.7866 66.8271 45.7299 64.8422C45.7299 64.782 45.7299 64.782 45.7299 64.7219C45.7299 62.6767 46.9199 61.5339 48.4499 61.594C49.9799 61.6542 51.1699 63.0376 51.1699 65.1429C51.1699 65.2031 51.1699 65.3234 51.1699 65.3835C51.0566 67.4286 49.9233 68.4512 48.4499 68.2707ZM20.4566 57.985C16.3199 58.0452 13.7132 61.7745 13.5999 65.5038V65.564C13.5432 69.2933 16.5466 72.361 20.3999 71.8196C23.9699 71.3384 27.2566 68.2106 27.2566 64.5414V64.4813C27.1999 60.9324 24.0266 57.9249 20.4566 57.985ZM23.1199 64.7219C23.1199 66.7068 21.8732 68.0301 20.3999 68.2106C18.8699 68.391 17.6799 67.2482 17.6799 65.1429C17.6799 63.0376 18.9266 61.6542 20.3999 61.594C21.9299 61.5339 23.1199 62.6767 23.1199 64.7219Z" fill="white"/>
<path d="M30.3732 77.7745L30.1465 76.8121L30.0899 76.5114L29.9765 75.9099L29.8065 75.3083H28.8999L28.5032 75.9099L28.1065 76.5114L27.9365 76.8121L27.3132 77.7745L26.8032 78.5565H27.7665L28.1632 77.955H29.5799L29.6932 78.5565H30.5999L30.3732 77.7745ZM29.0132 76.5715L29.1832 76.2708L29.2399 76.5715L29.2965 76.8723L29.4099 77.3535H28.5599L28.8432 76.8723L29.0132 76.5715ZM24.8199 76.5715C24.9899 76.2708 25.3299 76.0903 25.7265 76.0903C26.0665 76.0903 26.2932 76.2106 26.5199 76.4512L27.0865 76.0302L27.1432 75.97C26.8599 75.6091 26.3499 75.3685 25.7265 75.3685C25.0465 75.3685 24.4799 75.6091 24.1399 76.0302C23.9699 76.2106 23.8565 76.3911 23.7999 76.6317C23.7432 76.6918 23.7432 76.8121 23.7432 76.9324C23.6865 77.0527 23.6865 77.2332 23.6865 77.3535C23.6865 77.5339 23.7432 77.7144 23.7999 77.8948C24.0265 78.4362 24.5932 78.7971 25.3299 78.7971C25.8399 78.7971 26.2932 78.6768 26.6332 78.4362L26.7465 77.955L26.9165 77.1129H26.1232L25.9532 77.955V78.0151C25.8399 78.0753 25.6699 78.0753 25.4999 78.0753C25.2732 78.0753 25.1032 78.0151 24.9899 77.955C24.7632 77.8347 24.6499 77.5941 24.6499 77.3535C24.6499 77.2332 24.6499 77.1129 24.7065 76.9926C24.7632 76.752 24.7632 76.6317 24.8199 76.5715ZM39.4965 76.5715L39.4399 76.8723H40.3465L40.4032 76.5715H39.4965ZM41.8765 76.5715C42.0465 76.2708 42.3865 76.0903 42.7832 76.0903C43.1232 76.0903 43.3499 76.2106 43.5765 76.4512L44.1432 76.0302L44.1999 75.97C43.9165 75.6091 43.4065 75.3685 42.7832 75.3685C42.1032 75.3685 41.5365 75.6091 41.1965 76.0302C41.0265 76.2106 40.9132 76.3911 40.8565 76.6317C40.7999 76.6918 40.7999 76.8121 40.7999 76.9324C40.7432 77.0527 40.7432 77.2332 40.7432 77.3535C40.7432 77.5339 40.7999 77.7144 40.8565 77.8948C41.0832 78.4362 41.6499 78.7971 42.3865 78.7971C42.8965 78.7971 43.3499 78.6768 43.6899 78.4362L43.8032 77.955L43.9732 77.1129H43.1799L43.0099 77.955V78.0151C42.8965 78.0753 42.7265 78.0753 42.5565 78.0753C42.3299 78.0753 42.1599 78.0151 42.0465 77.955C41.8199 77.8347 41.7065 77.5941 41.7065 77.3535C41.7065 77.2332 41.7065 77.1129 41.7632 76.9926C41.7632 76.752 41.8199 76.6317 41.8765 76.5715ZM30.0899 76.5715H29.2399L29.2965 76.8723H30.1465L30.0899 76.5715ZM30.0899 76.5715H29.2399L29.2965 76.8723H30.1465L30.0899 76.5715ZM34.5099 75.3685L34.0565 75.97L33.6032 76.5715L33.3765 76.8723L33.0365 77.2933L32.8665 76.8723L32.7532 76.5715L32.5265 75.97L32.2999 75.3685H31.5632L31.4499 75.97L31.3365 76.5715L31.2799 76.8723L31.1099 77.8347L30.9399 78.6166H31.7899L31.9599 77.8347L32.1299 76.9324L32.5265 77.8347L32.7532 78.3159H33.1499L33.5465 77.8347L34.2265 76.9324L34.0565 77.8347L33.8865 78.6166H34.7365L34.9065 77.8347L35.0765 76.8723L35.1332 76.5715L35.2465 75.97L35.3599 75.3685H34.5099V75.3685ZM30.0899 76.5715H29.2399L29.2965 76.8723H30.1465L30.0899 76.5715ZM30.0899 76.5715H29.2399L29.2965 76.8723H30.1465L30.0899 76.5715ZM35.6999 76.5715L35.6432 76.8723H36.5499L36.6065 76.5715H35.6999ZM39.7232 75.3685L39.6099 75.97L39.4965 76.5715L39.4399 76.8723L39.3832 77.173L39.2132 76.8723L39.0432 76.5715L38.7032 75.97L38.3632 75.3685H37.6265L37.5132 75.97L37.3999 76.5715L37.3432 76.8723L37.1732 77.8347L37.0032 78.6166H37.9099L38.0799 77.8347L38.2499 76.8723L38.8165 77.8347L39.3265 78.6166H40.0632L40.2332 77.8347L40.4032 76.8723L40.4599 76.5715L40.5732 75.97L40.6865 75.3685H39.7232V75.3685ZM35.6999 76.5715L35.6432 76.8723H36.5499L36.6065 76.5715H35.6999ZM35.9265 75.3685L35.8132 75.97L35.6999 76.5715L35.6432 76.8723L35.4732 77.8347L35.3032 78.6166H36.2099L36.3799 77.8347L36.5499 76.8723L36.6065 76.5715L36.7199 75.97L36.8332 75.3685H35.9265V75.3685Z" fill="url(#paint0_linear_97_2628)"/>
<g opacity="0.5">
<path d="M27.1431 75.9701L26.5764 76.3911C26.3498 76.1505 26.1231 76.0302 25.7831 76.0302C25.3864 76.0302 25.0464 76.2107 24.8764 76.5114H23.9131C23.9698 76.2708 24.0831 76.0904 24.2531 75.9099H27.1431V75.9701Z" fill="#8BD9DF"/>
<path d="M30.0898 76.5715H29.2398L29.1831 76.2707L29.0131 76.5715H28.1064L28.5031 75.97H29.9198L30.0898 76.5715Z" fill="#8BD9DF"/>
<path d="M32.7531 76.5715H31.2798L31.3931 75.97H32.4698L32.7531 76.5715Z" fill="#8BD9DF"/>
<path d="M33.9997 75.97H35.1897L35.0764 76.5715H33.5464L33.9997 75.97Z" fill="#8BD9DF"/>
<path d="M36.7197 75.97L36.6064 76.5715H35.6997L35.813 75.97H36.7197Z" fill="#8BD9DF"/>
<path d="M38.9861 76.5715H37.2861L37.3995 75.97H38.6461L38.9861 76.5715Z" fill="#8BD9DF"/>
<path d="M40.5166 75.97L40.4033 76.5715H39.4966L39.6099 75.97H40.5166Z" fill="#8BD9DF"/>
<path d="M44.1997 75.9701L43.6331 76.3911C43.4064 76.1505 43.1797 76.0302 42.8397 76.0302C42.4431 76.0302 42.1031 76.2107 41.9331 76.5114H40.9697C41.0264 76.2708 41.1397 76.0904 41.3097 75.9099H44.1997V75.9701Z" fill="#8BD9DF"/>
<path d="M24.9898 77.7747H23.8565C23.7998 77.5942 23.7432 77.4138 23.7432 77.2333C23.7432 77.113 23.7432 76.9326 23.7998 76.8123H24.7632C24.7065 76.9326 24.7065 77.0529 24.7065 77.1732C24.6498 77.4739 24.7632 77.6544 24.9898 77.7747Z" fill="#8BD9DF"/>
<path d="M26.1231 76.9324H26.9165L26.7465 77.7745H25.9531L26.1231 76.9324Z" fill="#8BD9DF"/>
<path d="M30.373 77.7747H27.313L27.9363 76.8123H28.843L28.5597 77.2935H29.4097L29.2963 76.8123H30.1463L30.373 77.7747Z" fill="#8BD9DF"/>
<path d="M35.0199 76.8123L34.7932 77.7747H33.9432L34.1132 76.9326L33.4332 77.7747H32.4132L32.0166 76.9326L31.8466 77.7747H30.9966L31.2232 76.8123H32.8666L33.0366 77.2333L33.3766 76.8123H35.0199Z" fill="#8BD9DF"/>
<path d="M36.5498 76.8123L36.3798 77.7747H35.4731L35.6431 76.8123H36.5498Z" fill="#8BD9DF"/>
<path d="M40.3462 76.8123L40.1196 77.7747H38.7029L38.1362 76.8123L37.9662 77.7747H37.0596L37.2296 76.8123H39.1562L39.3829 77.113L39.4396 76.8123H40.3462Z" fill="#8BD9DF"/>
<path d="M42.0465 77.7747H40.9131C40.8565 77.5942 40.7998 77.4138 40.7998 77.2333C40.7998 77.113 40.7998 76.9326 40.8565 76.8123H41.8198C41.7631 76.9326 41.7631 77.0529 41.7631 77.1732C41.7065 77.4739 41.8198 77.6544 42.0465 77.7747Z" fill="#8BD9DF"/>
<path d="M43.9731 76.9324L43.8031 77.7745H42.9531L43.1798 76.9324H43.9731Z" fill="#8BD9DF"/>
</g>
<path d="M12.2399 65.7444C7.59325 66.3459 3.85325 67.1278 1.24658 67.6692V76.0902C2.83325 75.5489 3.68325 75.2481 5.26992 74.7669C5.26992 73.0827 5.26992 72.3008 5.26992 70.6166C5.72325 70.4963 5.94992 70.4963 6.34658 70.376C7.13992 71.8196 7.53658 72.5414 8.38658 73.8647C10.1432 73.3835 10.9932 73.203 12.6932 72.782C11.6732 71.2181 11.1632 70.376 10.1999 68.6917C11.2199 68.0301 11.8432 66.9474 12.2399 65.7444Z" fill="url(#paint1_linear_97_2628)"/>
<path d="M23.1199 64.722C23.1199 66.7069 21.8733 68.0302 20.3999 68.2107C18.8699 68.3911 17.6799 67.2483 17.6799 65.143C16.2633 65.2633 14.9033 65.4438 13.5433 65.6242C13.4866 69.3535 16.4899 72.4212 20.3433 71.8798C23.9133 71.3986 27.1999 68.2708 27.1999 64.6017V64.5415C25.8399 64.5415 24.4233 64.6017 23.1199 64.722Z" fill="url(#paint2_linear_97_2628)"/>
<path d="M38.9866 64.4813C35.4166 64.361 31.96 64.361 28.73 64.4211C28.73 66.5264 28.73 68.6316 28.73 70.7369C30.9966 70.6166 33.2633 70.6166 35.5866 70.6166C37.7966 70.6767 40.6866 70.0752 40.7433 67.3685C40.6866 66.1053 40.0633 65.0828 38.9866 64.4813ZM35.19 67.6692C34.2266 67.6692 33.7166 67.6692 32.7533 67.6692C32.7533 66.8873 32.7533 66.5264 32.7533 65.7444C33.7166 65.7444 34.2266 65.7444 35.19 65.7444C36.0966 65.7444 36.55 66.1053 36.55 66.7068C36.55 67.3685 36.0966 67.6692 35.19 67.6692Z" fill="url(#paint3_linear_97_2628)"/>
<path d="M48.4499 68.2708C46.9766 68.0904 45.7866 66.8272 45.7299 64.8423C44.3133 64.722 42.9533 64.6618 41.5933 64.5415C41.6499 68.1505 44.9933 71.2783 48.4499 71.8798C52.3033 72.6017 55.0799 69.4137 55.1933 65.925C53.8333 65.7445 52.4166 65.5039 51.1133 65.3836C51.0566 67.4287 49.9233 68.4513 48.4499 68.2708Z" fill="url(#paint4_linear_97_2628)"/>
<path d="M63.2402 67.3684C61.8802 67.0676 60.5202 66.827 59.1602 66.5864C59.1602 68.9924 59.1602 71.3985 59.2168 73.8045C60.8602 74.2255 61.6535 74.4661 63.2402 74.9473C63.2402 72.4812 63.2402 69.9548 63.2402 67.3684Z" fill="url(#paint5_linear_97_2628)"/>
<path d="M6.96971 62.0754C6.91305 62.0754 6.79971 62.0754 6.74305 62.0754C6.17638 62.1356 5.83638 62.1356 5.26971 62.1957L4.87305 62.2559V62.6168V64.5416V66.4664V66.9476L5.32638 66.8875C5.89305 66.8273 6.23305 66.7672 6.79971 66.6469C8.04638 66.4664 8.78305 65.5642 8.83971 64.1807C8.83971 63.4589 8.66971 62.9175 8.27305 62.5566C7.98971 62.2559 7.53638 62.0754 6.96971 62.0754ZM6.79971 66.286C6.23305 66.3461 5.89305 66.4063 5.32638 66.5266C5.32638 64.9627 5.32638 64.1807 5.32638 62.6769C5.89305 62.6168 6.23305 62.6168 6.79971 62.5566C6.85638 62.5566 6.91305 62.5566 6.96971 62.5566C7.93305 62.5566 8.44305 63.2183 8.44305 64.2409C8.44305 65.3837 7.87638 66.1055 6.79971 66.286Z" fill="white"/>
<path d="M20.5132 61.1731C20.4565 61.1731 20.4565 61.1731 20.3999 61.1731C18.5865 61.2332 17.2832 62.8573 17.2832 65.0829C17.2832 66.2859 17.6232 67.2483 18.2465 67.8498C18.7565 68.331 19.3799 68.5716 20.1165 68.5716C20.2299 68.5716 20.3432 68.5716 20.4565 68.5716C22.2699 68.3911 23.5732 66.7671 23.5732 64.6618C23.5732 63.519 23.2332 62.5566 22.5532 61.9551C21.9865 61.4738 21.3065 61.1731 20.5132 61.1731ZM20.3999 68.2107C20.2865 68.2107 20.2299 68.2107 20.1165 68.2107C18.7565 68.2107 17.6799 67.0678 17.6799 65.0829C17.6799 62.9776 18.9265 61.5942 20.3999 61.534C20.4565 61.534 20.4565 61.534 20.5132 61.534C21.9865 61.534 23.1199 62.737 23.1199 64.6618C23.1199 66.7069 21.8732 68.0302 20.3999 68.2107Z" fill="white"/>
<path d="M12.5233 63.8196C12.6366 60.752 10.0866 58.4061 7.02661 58.3459C4.70327 58.3459 3.51327 58.3459 1.18994 58.4061V76.1505C2.77661 75.6091 3.62661 75.3084 5.21328 74.8272C5.21328 73.1429 5.21328 72.361 5.21328 70.6768C5.66661 70.5565 5.89328 70.5565 6.28994 70.4362C7.08328 71.8798 7.47994 72.6016 8.32994 73.9249C10.0866 73.4437 10.9366 73.2632 12.6366 72.8422C11.6166 71.2783 11.1066 70.4362 10.1433 68.752C11.6733 67.6091 12.4666 65.8647 12.5233 63.8196ZM12.0699 72.6016C10.7666 72.9023 9.97328 73.0828 8.61328 73.4437C7.87661 72.2407 7.47994 71.579 6.74327 70.1956L6.57328 69.955L6.28994 70.0151C5.83661 70.1354 5.60994 70.1354 5.21328 70.2557L4.87328 70.376V70.6768V72.7219V74.4662C3.62661 74.8272 2.83327 75.0678 1.69994 75.4888V58.767C3.73994 58.767 4.92994 58.767 7.08328 58.7068C8.49994 58.7068 9.85994 59.3084 10.8233 60.3309C11.7299 61.2933 12.1833 62.4963 12.1266 63.7595C12.0699 65.7444 11.2766 67.3685 9.97328 68.4512L9.68994 68.6918L9.85994 68.9926C10.7666 70.4963 11.2199 71.2783 12.0699 72.6016Z" fill="white"/>
<path d="M33.8865 63.3986C34.1131 63.3986 34.3398 63.3986 34.6231 63.3986C35.2465 63.3986 35.6998 63.2783 36.0398 62.9775C36.2665 62.7369 36.3798 62.4362 36.3798 62.0753C36.3798 61.5941 36.1531 60.752 34.6231 60.752C34.3398 60.752 34.1131 60.752 33.8865 60.752C33.5465 60.752 33.2065 60.752 32.6965 60.752H32.2998V61.173V62.9775V63.3986H32.6965C33.2065 63.3986 33.5465 63.3986 33.8865 63.3986ZM32.7531 61.173C33.2065 61.173 33.5465 61.173 33.9431 61.173C34.1698 61.173 34.3965 61.173 34.6798 61.173C35.5865 61.173 35.9831 61.4738 36.0398 62.0753C36.0398 62.6768 35.6431 62.9775 34.7365 62.9775C34.4531 62.9775 34.2265 62.9775 33.9998 62.9775C33.6598 62.9775 33.3198 62.9775 32.8098 62.9775C32.7531 62.2557 32.7531 61.8948 32.7531 61.173Z" fill="white"/>
<path d="M48.3935 57.9851C44.7668 57.9851 41.5368 61.0528 41.5935 64.6016C41.5935 68.2107 44.9935 71.3385 48.4502 72.0001C48.8468 72.0603 49.1868 72.1204 49.5268 72.1204C52.9268 72.1204 55.2502 68.9926 55.2502 65.6844C55.1935 61.7746 52.6435 57.9851 48.3935 57.9851ZM53.0402 70.1956C52.0768 71.158 50.8868 71.6392 49.5268 71.6392C49.1868 71.6392 48.8468 71.5791 48.5068 71.5189C46.8635 71.2182 45.2202 70.3159 44.0302 69.0528C42.7268 67.7295 41.9902 66.1054 41.9902 64.5415C41.9902 62.9776 42.6135 61.4738 43.8035 60.2708C45.0502 59.0678 46.6935 58.346 48.3368 58.346C52.4735 58.346 54.7402 62.0753 54.7402 65.5641C54.8535 67.3686 54.2302 68.9926 53.0402 70.1956Z" fill="white"/>
<path d="M66.7532 58.4061C63.0132 58.4061 59.3298 58.3459 55.5898 58.3459C55.5898 59.9099 55.5898 60.6317 55.5898 62.1956C57.0065 62.2557 57.6865 62.3159 59.1032 62.4362C59.1032 66.2858 59.1598 70.0753 59.1598 73.9249C60.8032 74.3459 61.5965 74.5865 63.1832 75.0678C63.1832 70.9775 63.1832 66.8873 63.1265 62.7971C64.5432 62.9174 65.2232 62.9775 66.6398 63.0978V58.4061H66.7532ZM66.3565 62.5565C65.2232 62.4362 64.5432 62.376 63.2965 62.2557L62.8432 62.1956V62.6166V74.3459C61.6532 73.985 60.8598 73.7444 59.6132 73.4437V68.0302V62.3159V61.955H59.2165C57.9132 61.8347 57.2332 61.8347 56.0432 61.7144V60.6918V58.6467C59.4432 58.6467 62.9565 58.7068 66.3565 58.7068V62.5565Z" fill="white"/>
<path d="M48.4502 61.2332C48.3935 61.2332 48.3935 61.2332 48.3368 61.2332C47.6002 61.2332 46.8635 61.5339 46.3535 62.0151C45.6735 62.6768 45.3335 63.6392 45.3335 64.782C45.3335 66.8873 46.6368 68.5113 48.4502 68.6918C48.5635 68.6918 48.6768 68.6918 48.7902 68.6918C49.5268 68.6918 50.1502 68.4512 50.6035 67.97C51.2268 67.3083 51.5668 66.3459 51.5668 65.1429C51.5668 62.9174 50.2635 61.2933 48.4502 61.2332ZM48.7335 68.3309C48.6202 68.3309 48.5635 68.3309 48.4502 68.3309C46.9202 68.1504 45.7302 66.8271 45.7302 64.782C45.7302 62.7971 46.8635 61.6542 48.3368 61.6542C48.3935 61.6542 48.3935 61.6542 48.4502 61.6542C49.9802 61.7144 51.1702 63.0978 51.1702 65.2031C51.1702 67.188 50.0935 68.3309 48.7335 68.3309Z" fill="white"/>
<path d="M20.5131 57.9851C20.4564 57.9851 20.4564 57.9851 20.3998 57.9851C16.2631 58.0453 13.6564 61.7746 13.5431 65.5039C13.4298 68.9325 16.0364 71.8798 19.4364 71.8798C19.7198 71.8798 20.0031 71.8798 20.2864 71.8197C23.8564 71.3385 27.1431 68.2107 27.1431 64.5415C27.2564 60.9926 24.0831 57.9851 20.5131 57.9851ZM20.2864 71.3986C20.0031 71.4588 19.7198 71.4588 19.4931 71.4588C18.0198 71.4588 16.6598 70.9174 15.6398 69.8347C14.5064 68.6919 13.9398 67.128 13.9964 65.5039C14.0531 63.6994 14.7331 61.8949 15.8098 60.5716C16.6598 59.549 18.1331 58.4062 20.3998 58.346C20.4564 58.346 20.4564 58.346 20.5131 58.346C22.1564 58.346 23.7431 59.0077 24.9331 60.2107C26.1231 61.4137 26.8031 62.9174 26.7464 64.4813C26.8031 67.8498 23.8564 70.9174 20.2864 71.3986Z" fill="white"/>
<path d="M35.1898 65.3235C34.7364 65.3235 34.3398 65.3235 33.9998 65.3235C33.6031 65.3235 33.2631 65.3235 32.7531 65.3235H32.3564V65.7445V66.7069V67.6694V68.0904H32.7531C33.2631 68.0904 33.6598 68.0904 33.9998 68.0904C34.3398 68.0904 34.7364 68.0904 35.1898 68.0904H35.2464C35.8698 68.0904 36.3231 67.9701 36.6064 67.6694C36.8331 67.4288 36.9464 67.128 36.9464 66.7671C36.9464 66.2859 36.7764 65.3235 35.1898 65.3235ZM35.2464 67.6694C35.1898 67.6694 35.1898 67.6694 35.2464 67.6694C34.7364 67.6694 34.3964 67.6694 33.9998 67.6694C33.6031 67.6694 33.2631 67.6694 32.7531 67.6694C32.7531 66.8874 32.7531 66.5265 32.7531 65.7445C33.2631 65.7445 33.6598 65.7445 33.9998 65.7445C34.3398 65.7445 34.7364 65.7445 35.1898 65.7445C36.0964 65.7445 36.5498 66.1054 36.5498 66.7069C36.5498 67.3686 36.0964 67.6694 35.2464 67.6694Z" fill="white"/>
<path d="M38.42 64.1807C39.5533 63.6394 40.12 62.677 40.0633 61.5341C40.0633 59.1882 37.57 58.2258 35.53 58.2258C35.4167 58.2258 35.3033 58.2258 35.19 58.2258C34.7367 58.2258 34.2833 58.2258 33.83 58.2258C32.13 58.2258 30.43 58.2258 28.73 58.2258C28.73 62.3762 28.73 66.5266 28.6733 70.677C30.77 70.6168 32.8667 70.5567 34.9633 70.5567C35.1333 70.5567 35.3033 70.5567 35.4733 70.5567C35.53 70.5567 35.6433 70.5567 35.7 70.5567C37.91 70.5567 40.5733 69.895 40.5733 67.3085C40.6867 65.8649 39.8367 64.7221 38.42 64.1807ZM38.8733 69.5341C37.91 70.0153 36.6633 70.1356 35.8133 70.1356C35.7567 70.1356 35.6433 70.1356 35.5867 70.1356C35.4167 70.1356 35.2467 70.1356 35.02 70.1356C33.0367 70.1356 31.11 70.1958 29.1267 70.2559V64.4815V58.6469C30.6567 58.6469 32.2433 58.6469 33.7733 58.6469H35.1333C35.2467 58.6469 35.36 58.6469 35.4733 58.6469C36.55 58.6469 37.57 58.8875 38.3067 59.3687C39.1567 59.91 39.61 60.6318 39.61 61.5341C39.61 62.5567 39.1 63.3386 38.1933 63.8198L37.3433 64.2409L38.1933 64.6018C39.4967 65.1431 40.1767 66.1055 40.1767 67.3687C40.2333 68.3311 39.78 69.0529 38.8733 69.5341Z" fill="white"/>
</g>
<defs>
<linearGradient id="paint0_linear_97_2628" x1="34" y1="78.6599" x2="34" y2="75.3203" gradientUnits="userSpaceOnUse">
<stop stop-color="#19456F"/>
<stop offset="0.5019" stop-color="#08B7D0"/>
<stop offset="1" stop-color="#8BD9DF"/>
</linearGradient>
<linearGradient id="paint1_linear_97_2628" x1="6.99468" y1="76.1378" x2="6.99468" y2="65.7594" gradientUnits="userSpaceOnUse">
<stop stop-color="white" stop-opacity="0"/>
<stop offset="1" stop-color="#BFC1C1"/>
</linearGradient>
<linearGradient id="paint2_linear_97_2628" x1="20.3967" y1="71.881" x2="20.3967" y2="64.4653" gradientUnits="userSpaceOnUse">
<stop stop-color="white" stop-opacity="0"/>
<stop offset="1" stop-color="#BFC1C1"/>
</linearGradient>
<linearGradient id="paint3_linear_97_2628" x1="34.6803" y1="70.707" x2="34.6803" y2="64.3516" gradientUnits="userSpaceOnUse">
<stop stop-color="white" stop-opacity="0"/>
<stop offset="1" stop-color="#BFC1C1"/>
</linearGradient>
<linearGradient id="paint4_linear_97_2628" x1="48.4274" y1="72.0457" x2="48.4274" y2="64.5799" gradientUnits="userSpaceOnUse">
<stop stop-color="white" stop-opacity="0"/>
<stop offset="1" stop-color="#BFC1C1"/>
</linearGradient>
<linearGradient id="paint5_linear_97_2628" x1="61.2197" y1="74.9991" x2="61.2197" y2="66.6112" gradientUnits="userSpaceOnUse">
<stop stop-color="white" stop-opacity="0"/>
<stop offset="1" stop-color="#BFC1C1"/>
</linearGradient>
<clipPath id="clip0_97_2628">
<rect width="68" height="80" fill="white"/>
</clipPath>
</defs>
</svg>
