<svg width="99" height="121" viewBox="0 0 99 121" fill="none" xmlns="http://www.w3.org/2000/svg">
<g clip-path="url(#clip0_97_2508)">
<path fill-rule="evenodd" clip-rule="evenodd" d="M91.5751 60.773C91.5751 60.773 90.8326 62.4106 90.8326 63.1384C90.8326 63.8663 91.2451 64.2302 90.9976 64.958C90.7501 65.6858 90.5851 66.5046 90.5851 66.5046C90.5851 66.5046 91.8226 64.867 91.6576 64.2302C91.4926 63.5933 91.2451 63.5933 91.4101 62.6836C91.4926 61.5918 91.5751 60.773 91.5751 60.773ZM80.7676 43.7602C80.7676 43.7602 79.7776 42.9415 79.8601 42.0317C79.9426 41.1219 80.5201 41.6678 80.5201 40.4851C80.5201 39.3024 80.0251 38.0287 80.0251 38.0287C80.0251 38.0287 80.7676 39.6663 80.8501 40.576C80.9326 41.4858 80.5201 41.4858 80.5201 41.8497C80.5201 42.2136 80.7676 43.7602 80.7676 43.7602ZM98.5051 91.5234C98.9176 91.5234 98.9176 88.3392 98.9176 88.3392C98.9176 88.3392 97.1851 87.5204 96.8551 86.2467C96.5251 84.973 98.0926 84.4272 98.0926 82.6076C98.0926 80.7881 96.1126 77.058 96.1126 77.058C96.1126 77.058 97.1851 80.6971 96.6076 81.5159C96.1126 82.3347 94.6276 82.7896 94.4626 81.6978C94.2976 80.6061 95.1226 79.8783 94.3801 78.6046C93.6376 77.3309 95.2876 73.3279 95.2876 73.3279C95.2876 73.3279 93.8026 75.0565 93.4726 76.1482C93.1426 77.2399 92.9776 77.9678 92.9776 77.9678C92.9776 77.9678 91.9876 75.5114 92.3176 74.5106C92.6476 73.5099 94.7926 69.4159 94.2151 68.4151C93.7201 67.4144 92.5651 66.2317 92.5651 66.2317C92.5651 66.2317 93.6376 67.4144 93.0601 68.87C92.5651 70.3257 92.0701 69.8708 91.9051 70.6896C91.7401 71.5993 91.5751 72.3272 91.5751 72.3272L91.6576 68.5971L90.6676 70.8715C90.6676 70.8715 88.6051 66.4136 89.6776 62.6836C90.7501 59.0445 91.0801 58.4986 91.1626 57.9527C91.2451 57.3159 90.5851 55.4054 90.5851 55.4054C90.5851 55.4054 90.5026 57.7708 89.6776 58.8625C88.8526 59.9542 88.8526 59.9542 88.8526 59.9542C88.8526 59.9542 88.3576 58.2257 88.2751 56.952C88.1926 55.6783 87.4501 53.0399 87.4501 53.0399L87.2851 55.6783C87.2851 55.6783 86.6251 54.3136 86.0476 51.9482C85.4701 49.5828 84.0676 48.764 83.6551 47.9452C83.2426 47.1264 82.2526 44.1242 82.2526 44.1242L82.9951 48.1272C82.9951 48.1272 81.0976 47.5813 80.1901 46.4896C79.2826 45.3978 79.0351 43.6693 79.0351 43.6693L78.3751 46.0347C78.3751 46.0347 77.8801 42.6685 77.8801 41.3039C77.7976 39.8482 78.7876 38.6655 77.7976 36.3911C76.7251 34.0257 75.5701 32.57 75.5701 32.57L76.7251 36.0272C76.7251 36.0272 73.6726 31.2963 72.8476 28.0211C72.0226 24.8369 72.0226 22.5625 72.0226 22.5625L71.7751 25.4738C71.7751 25.4738 70.0426 19.8332 65.4226 13.7377C60.8026 7.73318 57.9976 46.0347 57.9976 46.0347C57.9976 46.0347 62.9476 72.0542 64.1851 74.0557C65.3401 76.0572 92.1526 96.4362 92.1526 96.4362L98.5051 91.5234Z" fill="#1FF0F7"/>
<path fill-rule="evenodd" clip-rule="evenodd" d="M7.3425 60.773C7.3425 60.773 8.085 62.4106 8.085 63.1384C8.085 63.8662 7.6725 64.2302 7.92 64.958C8.1675 65.6858 8.3325 66.5046 8.3325 66.5046C8.3325 66.5046 7.095 64.867 7.26 64.2302C7.425 63.5933 7.6725 63.5933 7.5075 62.6835C7.5075 61.5918 7.3425 60.773 7.3425 60.773ZM18.15 43.7602C18.15 43.7602 19.14 42.9414 19.0575 42.0317C18.975 41.1219 18.3975 41.6677 18.3975 40.485C18.3975 39.3023 18.8925 38.0287 18.8925 38.0287C18.8925 38.0287 18.15 39.6662 18.0675 40.576C17.985 41.4858 18.3975 41.4858 18.3975 41.8497C18.3975 42.2136 18.15 43.7602 18.15 43.7602ZM0.4125 91.5234C0 91.5234 0 88.3392 0 88.3392C0 88.3392 1.7325 87.5204 2.0625 86.2467C2.3925 84.973 0.825 84.4272 0.825 82.6076C0.825 80.7881 2.805 77.058 2.805 77.058C2.805 77.058 1.7325 80.6971 2.31 81.5159C2.805 82.3347 4.29 82.7896 4.455 81.6978C4.62 80.6061 3.795 79.8783 4.5375 78.6046C5.28 77.3309 3.63 73.3279 3.63 73.3279C3.63 73.3279 5.115 75.0565 5.445 76.1482C5.775 77.2399 5.94 77.9677 5.94 77.9677C5.94 77.9677 6.93 75.5114 6.6 74.5106C6.27 73.5099 4.125 69.4159 4.7025 68.4151C5.1975 67.4144 6.3525 66.2317 6.3525 66.2317C6.3525 66.2317 5.28 67.4144 5.8575 68.87C6.3525 70.3256 6.8475 69.8708 7.0125 70.6896C7.1775 71.5993 7.3425 72.3271 7.3425 72.3271L7.26 68.5971L8.25 70.8715C8.25 70.8715 10.3125 66.4136 9.24 62.6835C8.1675 59.0444 7.8375 58.4986 7.755 57.9527C7.6725 57.3159 8.3325 55.4053 8.3325 55.4053C8.3325 55.4053 8.415 57.7708 9.24 58.8625C10.065 59.9542 10.065 59.9542 10.065 59.9542C10.065 59.9542 10.56 58.2256 10.6425 56.952C10.725 55.6783 11.4675 53.0399 11.4675 53.0399L11.6325 55.6783C11.6325 55.6783 12.2925 54.3136 12.87 51.9482C13.4475 49.5828 14.85 48.764 15.2625 47.9452C15.675 47.1264 16.665 44.1241 16.665 44.1241L15.9225 48.1271C15.9225 48.1271 17.82 47.5813 18.7275 46.4896C19.635 45.3978 19.8825 43.6693 19.8825 43.6693L20.46 45.7617C20.46 45.7617 20.955 42.3956 20.955 41.0309C21.0375 39.5753 19.965 38.3926 21.0375 36.1181C22.11 33.7527 23.265 32.2971 23.265 32.2971L22.11 35.7542C22.11 35.7542 25.1625 31.0234 25.9875 27.7482C26.8125 24.564 26.8125 22.2896 26.8125 22.2896L27.06 25.2008C27.06 25.2008 28.7925 19.5602 33.4125 13.4647C38.0325 7.46023 40.8375 45.7617 40.8375 45.7617C40.8375 45.7617 35.8875 71.7813 34.65 73.7828C33.7425 75.9662 6.93 96.4362 6.93 96.4362L0.4125 91.5234Z" fill="#1FF0F7"/>
<path fill-rule="evenodd" clip-rule="evenodd" d="M11.22 88.3391C10.23 86.9744 9.4875 85.4278 9.075 83.7902L8.8275 82.9714V82.1526C9.075 72.1451 10.3125 59.8632 15.4275 51.3113L16.2525 49.9466L17.5725 49.2188C20.13 47.8541 22.77 46.4895 25.3275 45.1248C24.915 44.0331 24.6675 42.8504 24.5025 41.6677C24.5025 41.5767 24.5025 41.4857 24.5025 41.3947L21.5325 43.5782L27.4725 26.7474C31.185 16.285 37.125 6.00451 47.2725 1.18271L49.5 0L51.7275 1.09173C61.7925 5.91353 67.815 16.194 71.5275 26.6564L77.4675 43.4872L74.4975 41.3038C74.4975 41.3947 74.4975 41.4857 74.4975 41.5767C74.3325 42.7594 74.085 43.8511 73.6725 45.0338C76.23 46.3985 78.87 47.7632 81.4275 49.1278L82.7475 49.8556L83.5725 51.2203C88.77 59.8632 90.0075 72.0541 90.1725 82.0617V82.8804L89.925 83.6992C89.43 85.3368 88.77 86.8835 87.945 88.2481H99V121L97.02 120.272C66.2475 109.264 32.7525 109.264 1.98 120.272L0 121V88.3391H11.22Z" fill="#1FF0F7"/>
<path fill-rule="evenodd" clip-rule="evenodd" d="M14.5199 89.8857C12.5399 87.9751 11.1374 85.7917 10.4774 83.3353L10.3124 82.6984V82.0616C10.5599 72.418 11.7149 60.318 16.7474 51.9481L17.3249 50.9473L18.3149 50.4014C21.2849 48.8548 24.3374 47.2172 27.3074 45.6706C26.6474 44.306 26.2349 42.8503 26.0699 41.3037C25.9049 40.303 25.9049 39.3022 25.9874 38.3014L24.6674 39.3022L28.8749 27.2022C32.4224 17.1037 38.1974 7.09618 47.8499 2.45634L49.4999 1.72852L51.1499 2.45634C60.8849 7.09618 66.5774 17.1037 70.1249 27.2022L74.4149 39.3932L73.0949 38.3924C73.1774 39.3932 73.1774 40.3939 73.0124 41.3947C72.8474 42.9413 72.3524 44.3969 71.7749 45.7616C74.7449 47.3082 77.7974 48.9458 80.7674 50.4924L81.7574 51.0383L82.3349 52.039C87.3674 60.409 88.5224 72.509 88.7699 82.1526V82.7894L88.6049 83.4263C87.8624 86.0646 86.6249 88.2481 84.9749 89.9766H97.5974V118.907C66.4949 107.717 32.6699 107.717 1.56738 118.907V89.8857H14.5199Z" fill="#071224"/>
<path fill-rule="evenodd" clip-rule="evenodd" d="M64.9274 89.7038C62.6999 92.888 59.5649 95.4354 55.3574 97.3459C73.2599 93.7068 83.0774 88.7031 84.8924 82.0617C84.6449 69.3249 82.6649 60.0452 79.1174 54.0407C79.1174 54.0407 75.4874 52.1301 68.1449 48.3091C68.1449 48.3091 66.1649 49.1279 62.1224 50.6745C62.1224 50.6745 63.1949 49.7647 65.4224 48.0361C72.0224 41.0309 70.1249 32.9339 59.7299 23.4722C59.7299 23.4722 61.9574 25.1098 66.4949 28.385C62.3699 17.1038 56.7599 9.64367 49.4999 6.18652C42.2399 9.64367 36.6299 17.1038 32.5049 28.658C37.0424 25.3828 39.2699 23.7452 39.2699 23.7452C28.8749 33.1158 26.9774 41.3038 33.5774 48.3091C35.8049 50.0376 36.8774 50.9474 36.8774 50.9474C32.9174 49.4008 30.8549 48.582 30.8549 48.582C23.5124 52.4031 19.8824 54.3136 19.8824 54.3136C16.3349 60.3181 14.3549 69.5978 14.1074 82.3346C15.9224 88.885 25.7399 93.9798 43.6424 97.6189C36.7124 89.5219 33.2474 85.5189 33.2474 85.5189C45.2099 83.1534 51.1499 82.0617 51.1499 82.0617C46.6949 85.5188 44.4674 88.976 44.6324 92.3422C52.2224 93.161 58.9874 92.2512 64.9274 89.7038Z" fill="#394253"/>
<path fill-rule="evenodd" clip-rule="evenodd" d="M14.2724 79.5143C14.2724 80.3331 14.1899 81.2429 14.1899 82.1526C16.0049 88.703 25.8224 93.7978 43.7249 97.4369C36.7949 89.3399 33.3299 85.3369 33.3299 85.3369C28.4624 87.5203 23.7599 88.2481 19.3049 87.4293C19.9649 87.1564 20.2949 87.0654 20.2949 87.0654C26.9774 85.4278 30.8549 83.0624 31.7624 80.1511C26.2349 82.6075 21.5324 83.7902 17.7374 83.7902C16.4999 81.0609 15.9224 79.6962 15.9224 79.6962C21.0374 78.2406 23.5949 77.5128 23.5949 77.5128C19.9649 75.0564 18.1499 73.7827 18.1499 73.7827C18.7274 75.5113 19.0574 76.3301 19.0574 76.3301L14.2724 79.5143Z" fill="#778399"/>
<path fill-rule="evenodd" clip-rule="evenodd" d="M66.2476 57.8617C52.6351 64.594 45.7876 67.9601 45.7876 67.9601C49.5826 55.4053 56.1001 50.6744 65.1751 53.5857C65.1751 53.5857 65.5876 52.8579 66.4126 51.3113C66.7426 55.5872 66.6601 57.7707 66.2476 57.8617Z" fill="#778399"/>
<path fill-rule="evenodd" clip-rule="evenodd" d="M82.3352 86.5196C83.5727 85.1549 84.4802 83.6993 84.8927 82.2436C84.6452 71.3263 83.1602 62.8654 80.5202 56.9519C79.3652 58.2256 77.9627 60.591 76.3127 64.0481C76.3127 64.0481 78.0452 63.6842 81.5927 62.9564C81.5927 62.9564 80.6027 64.2301 78.5402 66.8684C78.5402 66.8684 79.3652 67.6872 81.0977 69.3248C82.0052 70.6895 82.5827 72.5091 82.8302 74.8745C81.5102 72.4181 79.6952 70.6895 77.3027 69.8707C77.2202 73.1459 75.7352 75.9662 73.0127 78.4226C76.1477 79.5143 79.2827 82.2436 82.3352 86.5196Z" fill="#778399"/>
<path fill-rule="evenodd" clip-rule="evenodd" d="M67.0726 79.6053C53.2126 73.1459 43.2301 73.1459 36.9601 79.6053C34.4851 80.4241 33.2476 82.3346 33.2476 85.2459C35.0626 80.788 38.4451 79.4233 43.4776 80.97C43.1476 82.6075 42.9826 83.5173 42.9826 83.5173C49.4176 81.2429 53.7076 80.2421 55.8526 80.4241C52.7176 82.0617 50.1601 84.609 48.3451 87.8842C55.9351 84.882 59.6476 83.3354 59.6476 83.3354C58.4101 85.4278 57.8326 86.4286 57.8326 86.4286C65.2576 85.4278 69.9601 86.7015 71.8576 90.0677C72.1051 88.3391 71.8576 86.7015 71.1151 85.2459C73.7551 85.6098 76.2301 87.0654 78.4576 89.4309C78.1276 88.3391 77.7151 87.3384 77.2201 86.4286C74.3326 80.97 70.9501 78.6955 67.0726 79.6053Z" fill="#778399"/>
<path fill-rule="evenodd" clip-rule="evenodd" d="M27.2248 61.5916C26.3173 59.4082 24.3373 57.4067 21.2848 55.4051C25.2448 59.1352 27.3898 63.7751 27.7198 69.1427C24.4198 68.5059 21.4498 67.3232 18.8098 65.5946C21.1198 67.96 24.0898 69.8706 27.7198 71.3262C29.0398 74.6014 29.6998 76.239 29.6998 76.239C26.3173 74.6014 22.3573 73.2367 17.9023 72.236C24.9973 74.8743 29.6173 77.5127 31.6798 80.06C27.4723 83.8811 23.5948 86.2465 20.2123 86.9743C22.5223 86.7924 26.2348 85.4277 31.2673 82.9713C32.5873 84.5179 33.2473 85.2457 33.2473 85.2457C33.2473 81.6976 35.0623 79.6961 38.7748 79.2412C45.7873 79.0593 49.2523 78.9683 49.2523 78.9683C46.2823 80.8788 44.7973 81.8796 44.7973 81.8796C55.3573 77.4217 62.2873 76.7848 65.5873 79.8781C64.6798 81.9706 64.1848 82.9713 64.1848 82.9713C70.7848 77.2397 73.3423 80.8788 77.2198 86.5194C74.8273 80.333 71.6098 77.7856 67.6498 78.8773C72.2698 75.2382 74.7448 71.0533 74.9098 66.1405C75.4873 63.5931 76.8073 60.6818 78.8698 57.4066C75.8173 60.6818 73.9198 63.6841 73.2598 66.4134C68.8048 72.236 62.5348 73.0548 54.4498 68.8698C61.3798 68.6879 66.6598 64.5029 70.2898 56.4969C66.8248 59.4991 65.0923 61.0457 65.0923 61.0457C68.8048 56.2239 70.7023 53.7676 70.7023 53.7676C68.3098 55.5871 67.1548 56.4969 67.1548 56.4969C66.8248 52.9488 66.6598 51.1292 66.6598 51.1292C66.3298 54.7683 66.1648 56.4969 66.1648 56.4969C61.1323 53.6766 56.8423 53.8585 53.3773 57.0427C49.6648 60.4089 47.1898 63.957 46.0348 67.7781C47.1898 60.3179 50.2423 55.0412 55.1923 52.039C61.8748 49.1277 65.6698 44.4879 66.4123 38.2104C67.2373 40.8488 66.8248 43.851 65.2573 47.3082C69.9598 40.4848 69.2173 34.2074 63.0298 28.4758C59.0698 24.9277 54.6148 23.0172 49.5823 22.7442C41.7448 22.5623 36.0523 26.3833 32.4223 34.1164C29.5348 41.6676 32.5873 47.5811 41.5798 51.857C38.6923 50.9473 37.2898 50.5833 37.2898 50.5833C33.3298 49.0367 31.2673 48.2179 31.2673 48.2179C32.0923 53.1307 32.5048 55.5871 32.5048 55.5871C31.4323 53.8585 30.8548 53.0397 30.8548 53.0397C31.0198 59.5901 32.7523 64.7758 36.2173 68.6879C32.3398 67.6871 29.4523 65.2307 27.2248 61.5916Z" fill="#071224"/>
<path fill-rule="evenodd" clip-rule="evenodd" d="M15.7573 79.7873C19.4698 78.5136 21.3673 77.8768 21.3673 77.8768C21.3673 77.8768 20.2123 76.5121 17.9848 73.8738C20.7073 74.9655 23.7598 76.3302 26.9773 78.0587C24.1723 80.1512 21.0373 81.4249 17.4073 81.9708C17.4073 81.8798 16.9123 81.152 15.7573 79.7873Z" fill="#071224"/>
<path fill-rule="evenodd" clip-rule="evenodd" d="M17.5723 59.3173C18.3973 57.1339 19.1398 55.4963 19.7998 54.4045C21.6973 56.679 22.9348 58.8624 23.5948 61.1369C21.2848 60.5 20.1298 60.1361 20.1298 60.1361C21.2023 60.1361 21.6973 60.1361 21.6973 60.1361C20.7898 58.5895 19.3873 58.3166 17.5723 59.3173Z" fill="#071224"/>
<path fill-rule="evenodd" clip-rule="evenodd" d="M16.005 64.7759C15.4275 67.4142 14.9325 70.5075 14.6025 74.1466C15.015 72.0541 15.675 70.5075 16.5825 69.5067C17.4075 69.8706 19.2225 70.3255 22.0275 70.7804C19.14 69.3248 17.16 67.3232 16.005 64.7759Z" fill="#071224"/>
<path fill-rule="evenodd" clip-rule="evenodd" d="M79.7773 67.5053C80.5198 68.688 80.9323 69.2339 80.9323 69.2339C80.9323 69.2339 79.1173 68.4151 75.5698 66.6865C79.4473 64.1392 81.4273 62.8655 81.4273 62.8655C82.0873 64.2301 82.3348 65.5948 82.2523 66.9595C81.8398 65.9587 81.3448 65.3219 80.9323 65.1399C80.1898 66.6865 79.7773 67.5053 79.7773 67.5053Z" fill="#071224"/>
<path fill-rule="evenodd" clip-rule="evenodd" d="M67.1552 64.685C69.7127 63.6843 71.6927 61.5918 73.1777 58.5895C72.7652 62.2286 71.6927 65.3219 69.7952 67.9602C66.6602 71.3264 61.4627 71.6903 54.2852 69.1429C62.3702 73.3279 68.6402 72.5091 73.0952 66.6865C73.7552 63.9572 75.6527 60.955 78.7052 57.6798C78.6227 57.8617 78.5402 57.9527 78.4577 58.1347L79.8602 55.9512C79.5302 55.4053 79.2827 54.8595 78.9527 54.3136L67.9802 48.582L67.6502 53.2219L69.4652 51.4023L68.5577 54.9505L72.3527 52.2211C70.8677 56.4971 70.0427 61.1369 67.1552 64.685Z" fill="#778399"/>
<path fill-rule="evenodd" clip-rule="evenodd" d="M26.5651 72.2361L27.4726 75.2383C28.2151 75.6022 28.9576 75.8752 29.7001 76.2391L27.7201 71.3263C24.0901 69.8707 21.2026 68.0511 18.8101 65.5947C20.2126 68.2331 22.8526 70.4165 26.5651 72.2361Z" fill="#778399"/>
<path fill-rule="evenodd" clip-rule="evenodd" d="M25.9877 68.779C26.5652 68.9609 27.1427 69.0519 27.7202 69.1429C27.4727 63.6842 25.3277 59.1353 21.2852 55.4053C24.6677 60.591 26.2352 65.0489 25.9877 68.779Z" fill="#778399"/>
<path fill-rule="evenodd" clip-rule="evenodd" d="M22.0275 70.6895C19.2225 70.2346 17.4075 69.7797 16.5825 69.4158C15.5925 70.5075 14.9325 72.0541 14.6025 74.0556C14.52 74.8744 14.4375 75.6022 14.4375 76.421C15.51 73.6917 16.5 71.8722 17.4075 70.9624L22.0275 70.6895Z" fill="#778399"/>
<path fill-rule="evenodd" clip-rule="evenodd" d="M16.0049 64.7759C17.2424 62.5924 19.7999 61.4097 23.5949 61.2278L20.1299 60.227H21.6974C20.7899 58.5894 19.3874 58.3165 17.5724 59.4082C16.9949 60.9548 16.4999 62.7744 16.0049 64.7759Z" fill="#778399"/>
<path fill-rule="evenodd" clip-rule="evenodd" d="M22.1102 65.5947C20.9552 65.2308 20.0477 64.7759 19.3052 64.321C19.9652 63.7752 20.7902 63.4113 21.8627 63.1383C22.0277 63.8661 22.1102 64.6849 22.1102 65.5947ZM24.0077 66.1406C23.7602 66.0496 23.4302 65.9586 23.1827 65.8676C23.1827 64.8669 23.0177 63.8661 22.8527 62.8654C23.1002 62.8654 23.4302 62.7744 23.6777 62.7744C24.0077 64.321 24.0902 65.4128 24.0077 66.1406Z" fill="#071224"/>
<path fill-rule="evenodd" clip-rule="evenodd" d="M19.9648 54.2226L21.2848 55.4963C24.3373 57.4978 26.3173 59.5903 27.2248 61.6828C28.9573 64.5031 31.1023 66.5955 33.6598 67.9602C29.7823 64.5031 27.3898 58.7715 26.4823 50.8564L19.9648 54.2226Z" fill="#778399"/>
<path fill-rule="evenodd" clip-rule="evenodd" d="M19.9648 54.2226L21.2848 55.4963C24.3373 57.4978 26.3173 59.5903 27.2248 61.6828C28.3798 63.5933 29.6998 65.049 31.1848 66.3226C29.3698 64.2302 28.2148 62.5926 27.7198 61.5918C26.3998 58.3166 24.3373 56.4061 21.7798 54.7685C24.0898 52.5851 25.4923 51.4023 25.4923 51.4023L19.9648 54.2226Z" fill="#D0E1FB"/>
<path fill-rule="evenodd" clip-rule="evenodd" d="M39.2699 23.6541C41.0849 22.3804 43.8899 21.4706 46.5299 20.8338V11.1902C43.8074 12.2819 40.0949 15.921 35.3099 21.9255C34.3199 23.927 33.4124 26.2015 32.5874 28.5669L39.2699 23.6541Z" fill="#071224"/>
<path fill-rule="evenodd" clip-rule="evenodd" d="M49.2527 22.9264C54.2852 23.1993 58.7402 25.1098 62.7002 28.658C68.8877 34.3895 69.6302 40.667 64.9277 47.4903C69.1352 43.3053 69.8777 38.3925 67.3202 32.8429C65.7527 29.9316 63.1952 26.8384 59.6477 23.6542L66.4127 28.567C62.3702 17.1038 56.7602 9.64367 49.5002 6.18652C44.7152 8.46096 40.6727 12.464 37.2902 18.1955C41.6627 12.373 45.6227 9.27976 49.2527 8.82487V21.5617C42.4877 21.8346 37.3727 25.1098 33.8252 31.2053C37.4552 25.5647 42.5702 22.7444 49.2527 22.9264Z" fill="#778399"/>
<path fill-rule="evenodd" clip-rule="evenodd" d="M49.2524 22.9264C54.2849 23.1993 58.7399 25.1098 62.6999 28.658C66.2474 31.9331 67.9799 35.3903 67.9799 39.0294C68.8049 32.1151 61.7099 27.1113 57.9974 22.1076C61.2149 23.1993 63.5249 24.6549 65.3399 25.7467C61.4624 15.9211 56.0999 9.37073 49.4999 6.18652C52.3049 9.27976 54.0374 12.0091 54.4499 14.2835C52.4699 16.467 51.3974 17.5587 51.3974 17.5587C54.2024 19.2873 56.3474 20.7429 57.6674 21.7437C54.6974 21.1068 53.2124 20.7429 53.2124 20.7429C55.5224 22.6534 56.5949 23.5632 56.5949 23.5632C51.8924 22.1986 47.3549 22.1986 42.9824 23.6542C44.9624 23.1993 47.0249 22.9264 49.2524 22.9264Z" fill="#D0E1FB"/>
<path fill-rule="evenodd" clip-rule="evenodd" d="M53.1301 57.2248C56.5951 54.0405 60.8851 53.8586 65.9176 56.6789L66.2476 53.0398L65.5051 55.4052C58.1626 52.13 52.2226 54.8593 47.7676 63.5932C49.0876 61.3187 50.9026 59.2263 53.1301 57.2248Z" fill="#D0E1FB"/>
<path fill-rule="evenodd" clip-rule="evenodd" d="M78.2102 55.0414C75.1577 59.1353 73.1777 62.9564 72.2702 66.5955C69.3002 70.8714 64.6802 72.2361 58.5752 70.8714C64.6802 72.782 69.5477 71.4173 73.1777 66.5955C73.8377 63.8662 75.7352 60.8639 78.7877 57.5887L78.5402 58.0436L79.9427 55.8602C79.6127 55.3143 79.3652 54.7684 79.0352 54.2226L68.7227 48.7639L78.2102 55.0414Z" fill="#D0E1FB"/>
<path fill-rule="evenodd" clip-rule="evenodd" d="M82.2527 84.3361C79.6952 81.2428 76.5602 79.3323 72.8477 78.4225C76.1477 79.6052 79.2827 82.3346 82.3352 86.6105C83.5727 85.2458 84.4802 83.8812 84.8927 82.3346C84.8927 82.3346 84.8927 82.3346 84.8927 82.2436C84.8102 76.7849 84.3152 72.0541 83.6552 67.8691C84.1502 74.4195 84.3152 79.0594 84.0677 81.8797C83.4902 82.7894 82.9127 83.6082 82.2527 84.3361Z" fill="#D0E1FB"/>
<path fill-rule="evenodd" clip-rule="evenodd" d="M81.0151 76.6939C81.4276 76.421 81.7576 76.148 82.0876 75.7841C81.0151 74.2375 79.6951 72.9638 78.1276 72.145C78.0451 72.5999 77.9626 73.1458 77.8801 73.5097C79.1176 74.4195 80.1076 75.5112 81.0151 76.6939ZM74.8276 78.0586C76.9726 78.0586 78.7051 77.7856 80.1076 77.1488C79.5301 76.057 78.6226 75.2382 77.5501 74.6924C76.9726 76.148 76.0651 77.2398 74.8276 78.0586Z" fill="#394253"/>
<path fill-rule="evenodd" clip-rule="evenodd" d="M44.7973 81.9706L49.2523 79.0593L38.7748 79.2413C38.6923 79.2413 38.6098 79.2413 38.5273 79.2413C43.8073 79.4232 46.5298 79.5142 46.6948 79.6052L44.7973 81.9706Z" fill="#D0E1FB"/>
<path fill-rule="evenodd" clip-rule="evenodd" d="M44.7974 81.9707C53.7899 78.6046 60.1424 78.0587 63.8549 80.2422L62.5349 84.973L64.1849 83.0625L65.5874 79.9692C62.2874 76.785 55.3574 77.5128 44.7974 81.9707Z" fill="#D0E1FB"/>
<path fill-rule="evenodd" clip-rule="evenodd" d="M75.9 84.7911C72.6 80.2422 70.0425 77.9678 64.1025 83.0625C68.5575 79.8783 72.5175 80.4241 75.9 84.7911Z" fill="#D0E1FB"/>
<path fill-rule="evenodd" clip-rule="evenodd" d="M56.4298 81.2429C54.0373 83.6993 52.8823 84.882 52.8823 84.882C55.2748 83.7903 57.0073 82.9715 58.2448 82.4256C57.7498 81.8798 57.1723 81.5159 56.4298 81.2429Z" fill="#394253"/>
<path fill-rule="evenodd" clip-rule="evenodd" d="M74.6625 55.8603L74.085 59.3174C74.6625 58.3166 75.24 57.4069 75.735 56.679L74.6625 55.8603ZM74.91 54.2227L74.745 55.1324L75.9825 56.1332C76.1475 55.8603 76.3125 55.5873 76.4775 55.4054C76.56 55.3144 75.9825 54.9505 74.91 54.2227Z" fill="#D0E1FB"/>
<path fill-rule="evenodd" clip-rule="evenodd" d="M68.8873 85.3369C67.6498 85.3369 66.4123 85.3369 65.3398 85.5189C66.7423 85.6098 67.9798 85.9738 69.1348 86.5196C69.1348 86.0647 69.0523 85.7008 68.8873 85.3369ZM70.2898 85.4279C70.0423 85.4279 69.7948 85.4279 69.5473 85.3369C69.7123 85.8828 69.8773 86.4286 69.8773 86.8835C70.2073 87.0655 70.4548 87.2474 70.7848 87.5204C70.7023 86.7016 70.5373 85.9738 70.2898 85.4279Z" fill="#D0E1FB"/>
<path fill-rule="evenodd" clip-rule="evenodd" d="M33.2473 85.2458L36.8773 93.8887C28.7923 92.797 22.3573 90.7045 17.6548 87.4293C22.1923 91.5233 30.8548 94.7985 43.6423 97.4368L33.2473 85.2458Z" fill="#D0E1FB"/>
<path fill-rule="evenodd" clip-rule="evenodd" d="M18.8101 82.9714C23.5126 81.6068 26.4826 80.2421 27.8026 78.8774C28.5451 79.6053 28.9576 79.9692 28.9576 79.9692C26.4001 81.3338 23.0176 82.3346 18.8101 82.9714Z" fill="#071224"/>
<path fill-rule="evenodd" clip-rule="evenodd" d="M28.5449 81.8796C26.3174 84.0631 23.5124 85.7916 20.2124 86.9743C23.5949 86.2465 27.3899 83.9721 31.6799 80.0601C29.4524 81.0608 27.3074 81.8796 25.3274 82.4255C27.8024 81.9706 28.8749 81.7886 28.5449 81.8796Z" fill="#D0E1FB"/>
<path fill-rule="evenodd" clip-rule="evenodd" d="M42.0751 31.5692L41.6626 31.7511L41.0026 31.0233L40.9201 30.9323H40.8376C40.4251 31.0233 40.0951 31.2053 39.6826 31.2962C39.4351 30.5684 39.2701 29.3857 39.2701 28.6579V28.385L39.0226 28.5669C38.7751 28.7489 38.3626 28.8399 38.0326 28.9308C37.1251 27.3842 36.8776 25.6556 36.9601 23.9271V23.7451H36.6301V23.9271C36.3001 26.0196 36.5476 28.203 37.7851 30.0226L37.8676 30.2045L38.0326 30.1135C38.2801 30.0226 38.4451 29.9316 38.6926 29.8406C38.8576 30.7504 39.0226 31.6602 39.1876 32.5699L39.2701 32.8429L39.5176 32.7519C39.8476 32.5699 40.0951 32.388 40.4251 32.206C40.7551 32.7519 41.0851 33.2977 41.4976 33.8436L41.5801 33.9346H41.7451L43.8076 33.3887H46.6126L46.8601 32.7519L42.0751 31.5692Z" fill="#071224"/>
<path fill-rule="evenodd" clip-rule="evenodd" d="M42.3226 31.842L41.6626 32.115L42.1576 32.8428C42.1576 32.8428 43.3126 32.9338 43.7251 32.9338C44.1376 32.9338 45.7051 32.9338 45.7051 32.9338C45.7051 32.9338 45.7876 32.5699 45.7876 32.6608C45.7876 32.7518 44.4676 32.4789 44.4676 32.4789L43.6426 32.2969L42.3226 31.842Z" fill="#1FF0F7"/>
<path fill-rule="evenodd" clip-rule="evenodd" d="M41.7448 32.115C43.3123 32.6608 44.0548 32.9338 44.0548 32.9338C42.2398 33.3887 41.3323 33.6616 41.3323 33.6616C40.5898 32.4789 40.1773 31.842 40.1773 31.842C39.4348 32.2969 39.1048 32.4789 39.1048 32.4789C38.7748 30.4774 38.6098 29.4766 38.6098 29.4766C38.0323 29.7496 37.7848 29.9315 37.7848 29.9315C36.7123 28.2939 36.3823 26.2924 36.7123 23.927C36.6298 26.2014 37.1248 27.839 37.9498 29.1127C38.8573 28.8398 39.1048 28.6578 39.1048 28.6578C39.2698 30.6593 39.5998 31.5691 39.5998 31.5691C40.5073 31.2962 40.9198 31.1142 40.9198 31.1142C41.4148 31.7511 41.7448 32.115 41.7448 32.115Z" fill="#1FF0F7"/>
<path fill-rule="evenodd" clip-rule="evenodd" d="M42.4051 32.2969L45.7876 32.8428C45.7876 32.8428 45.7876 32.6608 45.8701 32.5699C45.8701 32.5699 45.8701 32.5699 45.8701 32.4789C45.8701 32.4789 45.7051 32.4789 45.5401 32.4789C45.1276 32.3879 44.5501 32.2969 44.5501 32.2969L43.7251 32.115L42.3226 31.842H42.2401L41.7451 32.024L42.2401 32.7518L42.4051 32.2969Z" fill="#2F6D92"/>
<path fill-rule="evenodd" clip-rule="evenodd" d="M39.5175 31.5692C39.27 30.6595 39.0225 29.6587 39.0225 28.658C39.105 31.1144 39.105 32.388 39.105 32.388C39.435 31.8422 39.5175 31.5692 39.5175 31.5692Z" fill="#2F6D92"/>
<path fill-rule="evenodd" clip-rule="evenodd" d="M37.8677 29.1128C38.4452 28.9309 38.8577 28.7489 39.0227 28.658C38.1977 29.4768 37.7852 29.8407 37.7852 29.8407C37.8677 29.3858 37.8677 29.1128 37.8677 29.1128Z" fill="#2F6D92"/>
<path fill-rule="evenodd" clip-rule="evenodd" d="M41.3327 33.6616C40.5902 32.4789 40.1777 31.842 40.1777 31.842L41.8277 33.5706C41.2502 33.6616 41.3327 33.6616 41.3327 33.6616Z" fill="#2F6D92"/>
<path fill-rule="evenodd" clip-rule="evenodd" d="M54.6152 31.5692L55.0277 31.7511L55.6877 31.0233L55.7702 30.9323H55.8527C56.2652 31.0233 56.5952 31.2053 57.0077 31.2962C57.2552 30.5684 57.4202 29.3857 57.4202 28.6579V28.385L57.6677 28.5669C57.9152 28.7489 58.3277 28.8399 58.6577 28.9308C59.5652 27.3842 59.8127 25.6556 59.7302 23.9271V23.7451H60.0602V23.9271C60.3902 26.0196 60.1427 28.203 58.9052 30.0226L58.8227 30.2045V30.0226C58.5752 29.9316 58.4102 29.8406 58.1627 29.7496C57.9977 30.6594 57.8327 31.5692 57.6677 32.479L57.7502 32.6609L57.5027 32.5699C57.1727 32.388 56.9252 32.206 56.5952 32.0241C56.2652 32.5699 55.9352 33.1158 55.5227 33.6617L55.4402 33.7526H55.2752L53.2127 33.2068H50.4077L50.1602 32.5699L54.6152 31.5692Z" fill="#071224"/>
<path fill-rule="evenodd" clip-rule="evenodd" d="M54.3673 31.842L55.0273 32.115L54.4498 32.8428C54.4498 32.8428 53.2948 32.9338 52.8823 32.9338C52.4698 32.9338 50.9023 32.9338 50.9023 32.9338C50.9023 32.9338 50.8198 32.5699 50.8198 32.6608C50.8198 32.7518 52.1398 32.4789 52.1398 32.4789L52.9648 32.2969L54.3673 31.842Z" fill="#1FF0F7"/>
<path fill-rule="evenodd" clip-rule="evenodd" d="M54.9448 32.115C53.3773 32.6608 52.6348 32.9338 52.6348 32.9338C54.4498 33.3887 55.3573 33.6616 55.3573 33.6616C56.0998 32.4789 56.5123 31.842 56.5123 31.842C57.2548 32.2969 57.5848 32.4789 57.5848 32.4789C57.9148 30.4774 58.0798 29.4766 58.0798 29.4766C58.6573 29.7496 58.9048 29.9315 58.9048 29.9315C59.9773 28.2939 60.3073 26.2924 59.9773 23.927C60.0598 26.2014 59.5648 27.839 58.7398 29.1127C57.8323 28.8398 57.5848 28.6578 57.5848 28.6578C57.4198 30.6593 57.0898 31.5691 57.0898 31.5691C56.1823 31.2962 55.7698 31.1142 55.7698 31.1142C55.2748 31.7511 54.9448 32.115 54.9448 32.115Z" fill="#1FF0F7"/>
<path fill-rule="evenodd" clip-rule="evenodd" d="M54.2848 32.2971L50.9023 32.8429C50.9023 32.8429 50.9023 32.661 50.8198 32.57C50.8198 32.57 50.8198 32.57 50.8198 32.479C50.8198 32.479 50.9848 32.479 51.1498 32.479C51.5623 32.3881 52.1398 32.2971 52.1398 32.2971L52.9648 32.1151L54.2848 31.7512H54.3673L54.8623 31.9332L54.4498 32.8429L54.2848 32.2971Z" fill="#2F6D92"/>
<path fill-rule="evenodd" clip-rule="evenodd" d="M57.1724 31.5692C57.4199 30.6595 57.6674 29.6587 57.6674 28.658C57.5849 31.1144 57.5849 32.388 57.5849 32.388C57.2549 31.8422 57.1724 31.5692 57.1724 31.5692Z" fill="#2F6D92"/>
<path fill-rule="evenodd" clip-rule="evenodd" d="M58.8225 29.1128C58.245 28.9309 57.8325 28.7489 57.6675 28.658C58.4925 29.4768 58.905 29.8407 58.905 29.8407C58.8225 29.3858 58.8225 29.1128 58.8225 29.1128Z" fill="#2F6D92"/>
<path fill-rule="evenodd" clip-rule="evenodd" d="M55.3573 33.6616C56.0998 32.4789 56.5123 31.842 56.5123 31.842L54.8623 33.5706C55.4398 33.6616 55.3573 33.6616 55.3573 33.6616Z" fill="#2F6D92"/>
<path fill-rule="evenodd" clip-rule="evenodd" d="M57.1725 20.106C54.8625 18.5593 53.7075 17.7406 53.7075 17.7406C54.6975 16.8308 55.1925 16.2849 55.1925 16.2849C56.5125 18.8323 57.1725 20.106 57.1725 20.106Z" fill="#394253"/>
<path fill-rule="evenodd" clip-rule="evenodd" d="M49.4999 89.8857H34.8974H1.48486V118.817C32.5874 107.626 66.4124 107.626 97.5149 118.817V89.8857H49.4999Z" fill="#071224"/>
<path d="M90.2551 113.267C88.9351 112.903 88.0276 112.175 87.3676 111.174C86.7076 110.174 86.3776 108.991 86.3776 107.444C87.2026 107.262 88.0276 107.08 88.8526 106.807C88.8526 107.262 88.8526 107.717 88.8526 108.172C88.8526 109.446 89.3476 110.174 90.2551 110.356C90.7501 110.447 91.0801 110.356 91.2451 110.174C91.4926 109.901 91.5751 109.446 91.5751 108.718C91.5751 107.899 91.4101 107.08 91.0801 106.353C90.7501 105.625 90.1726 104.806 89.2651 103.805C88.1926 102.531 87.4501 101.44 86.9551 100.53C86.5426 99.6202 86.2951 98.6194 86.2951 97.5277C86.2951 96.0721 86.6251 94.8894 87.2851 94.0706C87.9451 93.2518 88.9351 92.7969 90.2551 92.7969C91.4926 92.7969 92.4826 93.2518 93.1426 94.1615C93.8026 95.0713 94.1326 96.436 94.1326 98.0736C93.3076 98.2555 92.4826 98.5285 91.6576 98.7104C91.6576 98.3465 91.6576 97.9826 91.6576 97.7097C91.6576 96.9818 91.5751 96.5269 91.3276 96.163C91.0801 95.7991 90.7501 95.7082 90.3376 95.6172C89.4301 95.6172 89.0176 96.163 89.0176 97.4367C89.0176 98.1645 89.1826 98.8014 89.5126 99.4382C89.8426 100.075 90.4201 100.894 91.3276 101.895C92.4001 103.168 93.2251 104.442 93.6376 105.443C94.0501 106.534 94.2976 107.717 94.2976 108.991C94.2976 110.719 93.9676 111.902 93.3076 112.63C92.5651 113.54 91.5751 113.722 90.2551 113.267ZM81.0151 110.901C79.6951 110.628 78.7876 110.083 78.0451 109.173C77.3851 108.354 77.0551 107.262 77.0551 105.898C77.0551 104.169 77.0551 102.531 77.0551 100.803C77.0551 99.0743 77.0551 97.4367 77.0551 95.7082C77.9626 94.8894 78.7876 94.0706 79.6951 93.1608C79.6951 95.3442 79.6951 97.6187 79.6951 99.8021C79.6951 101.986 79.6951 104.26 79.6951 106.443C79.6951 106.989 79.7776 107.444 80.0251 107.808C80.2726 108.081 80.6026 108.263 81.0151 108.354C81.4276 108.445 81.7576 108.354 82.0051 108.172C82.2526 107.99 82.3351 107.535 82.3351 106.898C82.3351 104.624 82.3351 102.35 82.3351 99.9841C82.3351 97.7097 82.3351 95.4352 82.3351 93.0698C83.1601 93.0698 84.0676 93.0698 84.8926 93.0698C84.8926 95.4352 84.8926 97.7097 84.8926 100.075C84.8926 102.44 84.8926 104.715 84.8926 107.08C84.8926 108.536 84.5626 109.628 83.9026 110.265C83.2426 111.083 82.2526 111.174 81.0151 110.901ZM71.3626 106.898C72.2701 106.989 72.7651 106.534 72.7651 105.534C72.7651 104.078 72.7651 102.622 72.7651 101.167C72.7651 99.7112 72.7651 98.2555 72.7651 96.7999C72.7651 95.7082 72.2701 95.2533 71.3626 95.1623C70.4551 95.1623 69.9601 95.6172 69.9601 96.6179C69.9601 98.0736 69.9601 99.4382 69.9601 100.803C69.9601 102.168 69.9601 103.623 69.9601 104.988C69.9601 106.171 70.4551 106.716 71.3626 106.898ZM71.3626 109.082C70.0426 108.9 69.0526 108.445 68.3926 107.626C67.7326 106.898 67.4026 105.898 67.4026 104.715C67.4026 103.35 67.4026 102.077 67.4026 100.712C67.4026 99.3472 67.4026 98.0736 67.4026 96.7089C67.4026 95.5262 67.7326 94.5254 68.3926 93.8886C69.0526 93.2518 70.0426 92.8879 71.3626 92.8879C72.6826 92.8879 73.6726 93.2518 74.3326 93.9796C74.9926 94.7074 75.3226 95.7082 75.3226 97.0728C75.3226 98.5285 75.3226 99.9841 75.3226 101.349C75.3226 102.804 75.3226 104.26 75.3226 105.625C75.3226 106.898 74.9926 107.899 74.3326 108.536C73.5901 109.173 72.6001 109.264 71.3626 109.082ZM54.5326 93.1608C55.7701 93.1608 57.0076 93.1608 58.3276 93.1608C58.5751 94.8894 58.9051 96.6179 59.1526 98.2555C59.4001 99.9841 59.7301 101.713 59.9776 103.441C59.9776 103.441 59.9776 103.441 60.0601 103.441C60.3076 101.713 60.6376 99.9841 60.8851 98.3465C61.1326 96.6179 61.4626 94.8894 61.7101 93.1608C62.9476 93.1608 64.2676 93.1608 65.5051 93.1608C65.5051 95.6172 65.5051 98.1645 65.5051 100.621C65.5051 103.077 65.5051 105.625 65.5051 108.081C64.6801 107.99 63.8551 107.899 63.0301 107.808C63.0301 105.989 63.0301 104.078 63.0301 102.259C63.0301 100.439 63.0301 98.5285 63.0301 96.7089C63.0301 96.7089 63.0301 96.7089 62.9476 96.7089C62.6176 98.5285 62.2876 100.348 61.9576 102.168C61.6276 103.987 61.2976 105.807 60.9676 107.626C60.2251 107.535 59.4826 107.535 58.7401 107.444C58.4101 105.625 58.0801 103.805 57.7501 101.986C57.4201 100.166 57.0901 98.3465 56.7601 96.6179C56.7601 96.6179 56.7601 96.6179 56.6776 96.6179C56.6776 98.4375 56.6776 100.166 56.6776 101.986C56.6776 103.805 56.6776 105.534 56.6776 107.353C55.9351 107.353 55.1101 107.262 54.3676 107.262C54.3676 104.897 54.3676 102.531 54.3676 100.257C54.5326 97.8916 54.5326 95.5262 54.5326 93.1608ZM47.5201 101.167C46.9426 99.8021 46.4476 98.5285 45.9526 97.1638C45.4576 95.7991 44.8801 94.5254 44.3851 93.1608C45.2926 93.1608 46.2826 93.1608 47.1901 93.1608C47.5201 93.9796 47.7676 94.8894 48.0976 95.7082C48.4276 96.5269 48.6751 97.4367 49.0051 98.2555C49.0051 98.2555 49.0051 98.2555 49.0876 98.2555C49.4176 97.4367 49.6651 96.5269 49.9951 95.7082C50.3251 94.8894 50.5726 93.9796 50.9026 93.1608C51.7276 93.1608 52.6351 93.1608 53.4601 93.1608C52.8826 94.5254 52.3876 95.7991 51.8926 97.1638C51.3976 98.5285 50.8201 99.8021 50.3251 101.167C50.3251 102.168 50.3251 103.168 50.3251 104.169C50.3251 105.17 50.3251 106.171 50.3251 107.171C49.4176 107.171 48.5926 107.171 47.6851 107.171C47.6851 106.171 47.6851 105.17 47.6851 104.169C47.5201 103.168 47.5201 102.168 47.5201 101.167ZM34.8151 93.1608C35.8876 93.1608 37.0426 93.1608 38.1151 93.1608C38.5276 94.6164 38.9401 95.9811 39.4351 97.4367C39.8476 98.8924 40.2601 100.257 40.7551 101.713C40.7551 101.713 40.7551 101.713 40.8376 101.713C40.8376 100.621 40.8376 99.6202 40.8376 98.5285C40.8376 97.4367 40.8376 96.436 40.8376 95.3442C41.5801 94.6164 42.4051 93.8886 43.2301 93.1608C43.2301 95.5262 43.2301 97.8916 43.2301 100.257C43.2301 102.622 43.2301 104.988 43.2301 107.353C42.3226 107.353 41.4151 107.444 40.5076 107.535C40.0126 105.807 39.4351 104.078 38.9401 102.44C38.4451 100.712 37.8676 98.9833 37.3726 97.2548C37.3726 97.2548 37.3726 97.2548 37.2901 97.2548C37.2901 98.9833 37.2901 100.803 37.2901 102.531C37.2901 104.26 37.2901 106.08 37.2901 107.808C36.4651 107.899 35.7226 107.99 34.8976 107.99C34.8976 105.534 34.8976 103.077 34.8976 100.621C34.8151 98.0736 34.8151 95.6172 34.8151 93.1608ZM29.0401 106.625C29.9476 106.534 30.4426 105.989 30.4426 104.988C30.4426 103.623 30.4426 102.259 30.4426 100.803C30.4426 99.4382 30.4426 98.0736 30.4426 96.6179C30.4426 95.6172 30.0301 95.1623 29.0401 95.1623C28.1326 95.1623 27.6376 95.7082 27.6376 96.7089C27.6376 98.1645 27.6376 99.5292 27.6376 100.985C27.6376 102.44 27.6376 103.805 27.6376 105.261C27.6376 106.262 28.1326 106.716 29.0401 106.625ZM29.0401 108.809C27.7201 108.991 26.7301 108.809 26.0701 108.263C25.4101 107.717 24.9976 106.716 24.9976 105.443C24.9976 104.078 24.9976 102.622 24.9976 101.258C24.9976 99.8931 24.9976 98.4375 24.9976 97.0728C24.9976 95.7991 25.3276 94.7984 26.0701 94.0706C26.7301 93.3427 27.7201 93.0698 29.0401 93.0698C30.3601 93.0698 31.3501 93.4337 32.0101 94.0706C32.6701 94.7074 33.0826 95.6172 33.0826 96.7999C33.0826 98.0736 33.0826 99.4382 33.0826 100.712C33.0826 101.986 33.0826 103.35 33.0826 104.624C33.0826 105.807 32.7526 106.807 32.0101 107.535C31.3501 108.172 30.3601 108.627 29.0401 108.809ZM14.9326 93.2518C16.0051 93.2518 17.1601 93.2518 18.2326 93.2518C18.6451 94.9803 19.0576 96.7089 19.5526 98.3465C19.9651 99.9841 20.3776 101.622 20.8726 103.259C20.8726 103.259 20.8726 103.259 20.9551 103.259C20.9551 101.986 20.9551 100.712 20.9551 99.5292C20.9551 98.2555 20.9551 96.9818 20.9551 95.7991C21.6976 94.9803 22.5226 94.0706 23.3476 93.2518C23.3476 95.9811 23.3476 98.7104 23.3476 101.44C23.3476 104.169 23.3476 106.898 23.3476 109.628C22.4401 109.81 21.5326 109.992 20.6251 110.174C20.1301 108.263 19.5526 106.262 19.0576 104.26C18.5626 102.259 17.9851 100.166 17.4901 98.0736C17.4901 98.0736 17.4901 98.0736 17.4076 98.0736C17.4076 100.166 17.4076 102.35 17.4076 104.442C17.4076 106.534 17.4076 108.718 17.4076 110.81C16.5826 110.992 15.8401 111.174 15.0151 111.356C15.0151 108.354 15.0151 105.352 15.0151 102.35C14.9326 99.2563 14.9326 96.254 14.9326 93.2518ZM10.2301 106.08C10.0651 104.533 9.81762 102.986 9.65262 101.349C9.48762 99.8021 9.24012 98.1645 9.07512 96.6179C9.07512 96.6179 9.07512 96.6179 8.99262 96.6179C8.74512 98.7104 8.49762 100.803 8.25012 102.895C8.00262 104.988 7.75512 107.171 7.50762 109.264C8.41512 108.263 9.32262 107.171 10.2301 106.08ZM7.34262 93.2518C8.49762 93.2518 9.73512 93.2518 10.8901 93.2518C11.3851 96.436 11.7976 99.5292 12.2926 102.622C12.7876 105.625 13.2001 108.627 13.6951 111.629C12.7876 111.811 11.9626 112.084 11.0551 112.357C10.8901 111.174 10.7251 109.901 10.5601 108.718C10.5601 108.718 10.5601 108.718 10.5601 108.809C9.57012 108.991 8.58012 109.264 7.59012 109.537C7.42512 110.901 7.26012 112.266 7.09512 113.631C6.27012 113.904 5.44512 114.177 4.62012 114.359C5.03262 110.719 5.52762 107.171 6.02262 103.714C6.43512 100.075 6.84762 96.6179 7.34262 93.2518Z" fill="white"/>
<path fill-rule="evenodd" clip-rule="evenodd" d="M92.4002 103.896C92.0702 103.35 91.6577 102.895 91.3277 102.441C90.2552 102.077 89.1002 101.804 88.0277 101.44C88.3577 101.895 88.6877 102.441 89.0177 102.805C90.0902 103.259 91.2452 103.532 92.4002 103.896ZM93.5552 106.262C93.4727 106.08 93.4727 105.989 93.3902 105.807C93.3077 105.534 93.1427 105.261 92.9777 104.988C91.9052 104.624 90.9152 104.351 89.8427 103.987C90.1727 104.442 90.5852 104.897 90.9152 105.443C91.8227 105.716 92.6477 105.989 93.5552 106.262ZM88.6052 107.262C88.4402 107.262 88.1927 107.262 88.0277 107.262C87.6977 107.262 86.9552 107.171 86.7077 107.626C86.1302 108.809 87.0377 110.083 87.6977 110.992C88.3577 111.993 89.3477 112.63 90.4202 112.903C91.3277 113.176 92.4002 113.267 93.0602 112.539C93.8852 111.72 93.9677 110.265 93.9677 109.082C93.9677 108.445 93.8852 107.717 93.8027 107.08C93.0602 106.808 92.3177 106.626 91.4927 106.353C91.8227 107.08 91.9052 107.899 91.9052 108.718C91.9052 109.264 91.8227 109.992 91.4927 110.356C91.1627 110.72 90.6677 110.811 90.1727 110.629C88.9352 110.356 88.5227 109.264 88.5227 108.081C88.6052 107.899 88.6052 107.626 88.6052 107.262ZM79.4477 100.439V99.8023V99.3474C78.7877 99.1654 78.1277 99.0744 77.4677 98.8925V99.9842C78.0452 100.166 78.7877 100.348 79.4477 100.439ZM79.4477 102.441V101.349C78.7877 101.167 78.1277 101.076 77.4677 100.894V101.986C78.0452 102.168 78.7877 102.259 79.4477 102.441ZM82.7477 104.078V106.989C82.7477 107.535 82.6652 108.081 82.3352 108.445C82.0052 108.809 81.5102 108.809 81.0977 108.718C80.6027 108.627 80.1902 108.445 79.9427 107.99C79.6127 107.535 79.5302 106.989 79.5302 106.444V103.259C78.8702 103.077 78.2102 102.986 77.5502 102.805V105.807C77.5502 106.899 77.7977 107.99 78.4577 108.9C79.2002 109.81 80.1077 110.265 81.1802 110.538C82.0877 110.72 83.0777 110.811 83.8202 110.083C84.5627 109.355 84.7277 108.172 84.7277 107.171V104.442C83.9852 104.351 83.4077 104.26 82.7477 104.078ZM82.7477 102.077V103.168C83.4077 103.35 83.9852 103.441 84.6452 103.623V102.532C83.9852 102.35 83.4077 102.259 82.7477 102.077ZM82.7477 100.166V101.258C83.4077 101.44 83.9852 101.531 84.6452 101.713V100.621C83.9852 100.439 83.4077 100.257 82.7477 100.166ZM67.6502 99.3474V100.439C68.3102 100.53 68.9702 100.621 69.6302 100.712V99.6203C69.0527 99.4384 68.3927 99.3474 67.6502 99.3474ZM67.6502 97.3459V98.4376C68.3102 98.5286 68.9702 98.6196 69.6302 98.7105V97.6188C69.0527 97.5278 68.3927 97.4369 67.6502 97.3459ZM75.0752 99.6203V98.5286C74.4152 98.4376 73.7552 98.2557 73.0952 98.1647V99.2564C73.7552 99.3474 74.4152 99.5293 75.0752 99.6203ZM75.0752 101.531V101.349V100.439C74.4152 100.348 73.7552 100.166 73.0952 100.075V101.076V101.167C73.7552 101.349 74.4152 101.44 75.0752 101.531ZM71.4452 108.809C72.3527 108.991 73.4252 108.991 74.1677 108.354C74.9102 107.717 75.0752 106.717 75.0752 105.716V102.532C74.4152 102.441 73.7552 102.259 73.0952 102.168V105.534C73.0952 106.717 72.5177 107.353 71.3627 107.262C70.2902 107.08 69.7127 106.353 69.7127 105.261V101.713C69.0527 101.622 68.3927 101.531 67.7327 101.44V104.806C67.7327 105.807 67.9802 106.808 68.6402 107.535C69.3827 108.263 70.3727 108.627 71.4452 108.809ZM63.4427 100.803V102.259C63.4427 103.987 63.4427 105.716 63.4427 107.535C64.1027 107.626 64.6802 107.626 65.3402 107.717V100.985C64.6802 100.985 64.0202 100.894 63.4427 100.803ZM63.4427 98.8015V99.8932C64.1027 99.9842 64.6802 99.9842 65.3402 100.075V98.9835C64.6802 98.9835 64.0202 98.8925 63.4427 98.8015ZM63.4427 96.891V97.9827C64.1027 98.0737 64.6802 98.0737 65.3402 98.1647V97.0729C64.6802 96.982 64.0202 96.982 63.4427 96.891ZM62.5352 97.8917C62.6177 97.5278 62.7002 97.1639 62.7002 96.8C62.2877 96.8 61.9577 96.709 61.5452 96.709C61.4627 97.0729 61.4627 97.4369 61.3802 97.8008C61.7927 97.8008 62.1227 97.8917 62.5352 97.8917ZM62.2052 99.8023L62.3702 98.7105C61.9577 98.7105 61.6277 98.6196 61.2152 98.6196L61.0502 99.7113C61.4627 99.7113 61.7927 99.7113 62.2052 99.8023ZM57.9977 100.439C58.0802 100.985 58.1627 101.44 58.2452 101.986C58.5752 103.714 58.8227 105.443 59.1527 107.171C59.7302 107.171 60.3077 107.262 60.8027 107.262C61.1327 105.534 61.3802 103.805 61.7102 102.168C61.7927 101.713 61.8752 101.167 61.9577 100.712C61.6277 100.712 61.2152 100.621 60.8852 100.621C60.7202 101.622 60.5552 102.532 60.3902 103.532L60.3077 103.805H59.9777H59.7302L59.6477 103.532C59.4827 102.532 59.3177 101.531 59.1527 100.53C58.8227 100.439 58.4102 100.439 57.9977 100.439ZM57.5852 98.3466L57.7502 99.4384C58.1627 99.4384 58.6577 99.5293 59.0702 99.5293C58.9877 99.1654 58.9877 98.8015 58.9052 98.4376C58.4927 98.4376 58.0802 98.4376 57.5852 98.3466ZM57.2552 96.4361V96.5271C57.3377 96.891 57.3377 97.1639 57.4202 97.5278C57.8327 97.5278 58.3277 97.6188 58.7402 97.6188L58.5752 96.5271C58.1627 96.4361 57.7502 96.4361 57.2552 96.4361ZM54.9452 100.257V106.899C55.5227 106.899 56.1002 106.989 56.5952 106.989C56.5952 105.352 56.5952 103.623 56.5952 101.986V100.348C56.1002 100.257 55.5227 100.257 54.9452 100.257ZM54.9452 98.2557V99.3474C55.5227 99.3474 56.1002 99.4384 56.5952 99.4384V98.3466C56.1002 98.2557 55.5227 98.2557 54.9452 98.2557ZM54.9452 96.3451V97.4369C55.5227 97.4369 56.1002 97.5278 56.5952 97.5278V96.709V96.5271C56.1002 96.3451 55.5227 96.3451 54.9452 96.3451ZM51.3977 97.3459C51.3977 97.2549 51.4802 97.1639 51.4802 97.0729C51.5627 96.8 51.7277 96.5271 51.8102 96.2542C51.2327 96.2542 50.6552 96.2542 50.0777 96.2542C49.9127 96.6181 49.8302 96.982 49.6652 97.3459C50.3252 97.2549 50.9027 97.2549 51.3977 97.3459ZM47.5202 100.166L47.8502 101.076V101.167V101.258C47.8502 102.259 47.8502 103.259 47.8502 104.26C47.8502 105.17 47.8502 105.989 47.8502 106.899C48.5102 106.899 49.1702 106.899 49.8302 106.899C49.8302 105.989 49.8302 105.17 49.8302 104.26C49.8302 103.259 49.8302 102.259 49.8302 101.258V101.167V101.076C49.9127 100.803 50.0777 100.439 50.1602 100.166C49.3352 100.166 48.4277 100.166 47.5202 100.166ZM46.6952 98.1647C46.8602 98.5286 46.9427 98.8925 47.1077 99.2564C47.9327 99.2564 48.7577 99.2564 49.5002 99.2564C49.8302 99.2564 50.2427 99.2564 50.5727 99.2564C50.7377 98.8925 50.8202 98.5286 50.9852 98.1647C50.4902 98.1647 49.9952 98.1647 49.4177 98.1647H49.3352L49.2527 98.4376L49.1702 98.6196H48.9227C48.9227 98.6196 48.9227 98.6196 48.8402 98.6196H48.5927L48.5102 98.4376L48.4277 98.1647C47.9327 98.1647 47.3552 98.1647 46.6952 98.1647ZM45.9527 96.2542C46.0352 96.5271 46.2002 96.8 46.2827 97.0729L46.3652 97.3459C47.0252 97.3459 47.6852 97.3459 48.2627 97.3459C48.0977 96.982 48.0152 96.6181 47.8502 96.2542C47.2727 96.2542 46.6127 96.2542 45.9527 96.2542ZM42.9002 97.4369V96.3451C42.3227 96.3451 41.7452 96.4361 41.1677 96.4361V97.5278C41.7452 97.5278 42.3227 97.4369 42.9002 97.4369ZM42.9002 99.3474V98.2557C42.3227 98.2557 41.7452 98.3466 41.1677 98.3466V98.4376V99.4384C41.7452 99.4384 42.3227 99.4384 42.9002 99.3474ZM38.6927 100.53C38.8577 101.076 39.0227 101.622 39.1877 102.168C39.6827 103.805 40.1777 105.443 40.6727 107.08C41.4152 107.08 42.1577 106.989 42.8177 106.989V100.348C42.2402 100.348 41.6627 100.439 41.0852 100.439V101.713V102.077H40.7552C40.7552 102.077 40.7552 102.077 40.6727 102.077H40.4252L40.3427 101.804C40.1777 101.349 40.0952 100.894 39.9302 100.439C39.6002 100.53 39.1052 100.53 38.6927 100.53ZM38.1152 98.6196L38.4452 99.7113C38.9402 99.7113 39.3527 99.6203 39.8477 99.6203C39.7652 99.2564 39.6002 98.8925 39.5177 98.5286C39.0227 98.5286 38.5277 98.5286 38.1152 98.6196ZM37.1252 96.8H37.2902C37.2902 96.8 37.2902 96.8 37.3727 96.8H37.6202L37.7027 97.0729L37.9502 97.8917C38.4452 97.8917 38.8577 97.8008 39.3527 97.8008V97.7098L39.1052 96.8C38.2802 96.6181 37.7027 96.709 37.1252 96.8ZM35.2277 100.894V107.535C35.8052 107.444 36.3827 107.444 36.9602 107.353C36.9602 105.716 36.9602 103.987 36.9602 102.35V100.712C36.3827 100.803 35.8052 100.803 35.2277 100.894ZM35.2277 98.8925V99.9842C35.8052 99.8932 36.3827 99.8932 36.9602 99.8023V98.7105C36.3827 98.8015 35.8052 98.8015 35.2277 98.8925ZM35.2277 96.982V98.0737C35.8052 97.9827 36.3827 97.9827 36.9602 97.8917V97.1639V96.891C36.3827 96.8 35.8052 96.891 35.2277 96.982ZM25.4102 100.257V101.258V101.349C26.0702 101.258 26.7302 101.076 27.4727 100.985V99.8932C26.7302 99.9842 26.0702 100.075 25.4102 100.257ZM25.4102 98.2557V99.3474C26.0702 99.2564 26.7302 99.0745 27.4727 98.9835V97.8917C26.7302 98.0737 26.0702 98.1647 25.4102 98.2557ZM32.7527 98.2557V97.1639C32.0927 97.2549 31.4327 97.3459 30.6902 97.4369V98.5286C31.4327 98.4376 32.0927 98.3466 32.7527 98.2557ZM32.7527 100.257V99.1654C32.0927 99.2564 31.4327 99.3474 30.6902 99.4384V100.53C31.4327 100.348 32.0927 100.257 32.7527 100.257ZM29.0402 108.536C30.0302 108.354 31.1027 108.081 31.8452 107.262C32.5052 106.535 32.8352 105.625 32.8352 104.624V101.258C32.1752 101.349 31.5152 101.44 30.7727 101.531V105.079C30.7727 106.262 30.1952 106.899 29.1227 107.08C27.9677 107.262 27.3902 106.535 27.3902 105.352V101.895C26.7302 101.986 26.0702 102.077 25.3277 102.259V105.443C25.3277 106.353 25.4927 107.353 26.2352 107.99C27.0602 108.627 28.1327 108.627 29.0402 108.536ZM22.9352 99.8023V98.7105C22.3577 98.8015 21.7802 98.8925 21.2027 99.0744V99.5293V100.166C21.7802 100.075 22.3577 99.8932 22.9352 99.8023ZM22.9352 101.713V101.349V100.621C22.3577 100.712 21.7802 100.803 21.2027 100.985V102.077C21.7802 101.986 22.3577 101.895 22.9352 101.713ZM19.1402 103.441C19.2227 103.623 19.2227 103.805 19.3052 103.987C19.8002 105.898 20.2952 107.717 20.7902 109.628C21.5327 109.446 22.2752 109.355 22.9352 109.173V102.532C22.3577 102.623 21.7802 102.714 21.2027 102.895V103.168V103.441L20.9552 103.532C20.9552 103.532 20.9552 103.532 20.8727 103.532L20.6252 103.623L20.5427 103.35L20.4602 103.168C20.0477 103.259 19.6352 103.35 19.1402 103.441ZM18.6452 101.531C18.7277 101.895 18.8102 102.259 18.8927 102.532C19.3877 102.441 19.8002 102.35 20.2952 102.259C20.2127 101.895 20.1302 101.531 20.0477 101.258C19.5527 101.349 19.1402 101.44 18.6452 101.531ZM18.1502 99.7113C18.2327 100.075 18.3152 100.439 18.3977 100.712C18.8927 100.621 19.3052 100.53 19.8002 100.439C19.7177 100.075 19.6352 99.7113 19.5527 99.4384C19.0577 99.5293 18.6452 99.6203 18.1502 99.7113ZM15.2627 104.351V110.902C15.8402 110.811 16.4177 110.629 16.9952 110.538C16.9952 108.536 16.9952 106.444 16.9952 104.442V103.987C16.4177 104.078 15.8402 104.169 15.2627 104.351ZM15.2627 102.35V103.441C15.8402 103.259 16.4177 103.168 16.9952 102.986V101.895C16.4177 102.077 15.8402 102.168 15.2627 102.35ZM15.2627 100.348V101.44C15.8402 101.258 16.4177 101.167 16.9952 100.985V99.8932C16.4177 100.075 15.8402 100.257 15.2627 100.348ZM10.5602 105.625L10.6427 106.08V106.262L10.5602 106.353C9.90022 107.171 9.15772 107.99 8.49772 108.809C9.07522 108.627 9.73522 108.536 10.3127 108.354V108.263H10.8902V108.536C11.0552 109.628 11.2202 110.72 11.3027 111.811C11.9627 111.629 12.6227 111.447 13.3652 111.265C13.0352 109.173 12.7052 107.08 12.3752 104.988C11.7977 105.261 11.1377 105.443 10.5602 105.625ZM10.3127 103.623L10.4777 104.715C11.0552 104.533 11.7152 104.351 12.2927 104.169L12.1277 103.077C11.4677 103.35 10.8902 103.532 10.3127 103.623ZM10.0652 101.804C10.1477 102.168 10.1477 102.532 10.2302 102.895C10.8077 102.714 11.4677 102.532 12.0452 102.35L11.8802 101.258C11.2202 101.44 10.6427 101.622 10.0652 101.804ZM7.92022 103.532L8.00271 102.895L8.08522 102.35C7.50772 102.532 7.01272 102.714 6.43522 102.895L6.35271 103.532L6.27021 104.078C6.84771 103.896 7.34272 103.714 7.92022 103.532ZM7.67272 105.534L7.83772 104.351C7.26022 104.533 6.68272 104.715 6.18771 104.897L6.02272 106.08C6.60022 105.898 7.09522 105.716 7.67272 105.534ZM7.26022 109.355C7.34272 108.445 7.50771 107.444 7.59021 106.535C7.01271 106.717 6.43521 106.899 5.85771 107.08C5.61021 109.355 5.28021 111.538 5.03271 113.813C5.61021 113.631 6.18772 113.449 6.84772 113.267C6.93022 111.902 7.09522 110.629 7.26022 109.355Z" fill="#778399"/>
</g>
<defs>
<clipPath id="clip0_97_2508">
<rect width="99" height="121" fill="white"/>
</clipPath>
</defs>
</svg>
