<svg width="99" height="121" viewBox="0 0 99 121" fill="none" xmlns="http://www.w3.org/2000/svg">
<g clip-path="url(#clip0_97_2900)">
<path d="M82.9125 79.8782H90.915L93.225 88.0662L91.41 88.612V100.075L91.74 100.166L92.4825 108.536H62.7825C59.3175 112.357 55.6875 115.814 51.81 119.089L49.5825 121.091L47.355 119.089C43.56 115.814 39.93 112.266 36.3825 108.536H8.3325L6.105 100.257L7.92 99.8023V88.1571L7.425 87.9752L6.8475 79.6962H16.4175C11.88 70.5985 8.4975 60.8639 6.765 50.7654L2.97 48.309C1.8975 47.6722 1.485 46.1256 1.98 44.8519L2.475 43.8511L2.0625 43.6692C1.98 43.5782 1.8975 43.5782 1.8975 43.4872C1.65 43.3053 1.4025 43.0323 1.2375 42.7594L0 42.0316L4.29 34.1165L5.3625 34.8444V33.6617L7.8375 32.5699C12.7875 30.4774 17.7375 28.4759 22.77 26.5654C24.585 25.9286 26.4 25.2008 28.1325 24.5639C28.875 21.1068 30.1125 17.7406 32.01 14.9203C33.4125 12.9188 34.98 11.0083 36.7125 9.2797C38.8575 7.18722 41.1675 5.18571 43.4775 3.36617C44.55 2.54737 45.705 1.72857 46.86 0.909774L48.51 0L49.9125 0.818797C50.82 1.36466 51.7275 1.91053 52.5525 2.36541C54.0375 3.27519 55.5225 4.27594 56.925 5.27669C58.575 6.09549 60.555 7.82406 61.875 9.09774C62.6175 9.73459 63.2775 10.4624 63.9375 11.2812C65.2575 12.9188 66.495 14.6474 67.485 16.4669C67.7325 16.9218 67.98 17.4677 68.145 18.0135C69.135 19.9241 69.8775 22.1985 70.3725 24.4729C72.27 25.1098 74.25 25.7466 76.1475 26.4744C81.0975 28.4759 86.13 30.4774 91.08 32.4789L93.555 33.5707V34.7534L94.6275 34.0256L98.9175 41.9406L97.845 42.5774C97.68 42.8504 97.4325 43.2143 97.185 43.3053C97.1025 43.3962 97.02 43.3962 97.02 43.4872L96.6075 43.6692L97.1025 44.7609C97.68 46.0346 97.2675 47.5812 96.1125 48.218L92.3175 50.6744C90.8325 61.0459 87.45 70.7805 82.9125 79.8782Z" fill="url(#paint0_linear_97_2900)"/>
<path d="M9.32275 36.5731C9.57025 68.6881 28.2153 97.255 49.6653 115.632C71.1978 97.164 89.7602 68.6881 90.0077 36.5731C90.0077 36.5731 84.8102 34.3896 75.1577 30.4776C65.5052 26.5655 49.5828 23.1084 49.5828 23.1084C49.5828 23.1084 33.7428 26.6565 24.0078 30.4776C14.5203 34.3896 9.32275 36.5731 9.32275 36.5731Z" fill="#873720"/>
<path d="M11.3028 38.2107C11.7153 52.0392 15.5928 65.322 21.6978 77.149C28.7103 90.9776 38.7753 103.169 49.6653 112.721C60.4728 103.078 70.5378 90.9776 77.6328 77.149C83.7378 65.231 87.6153 52.0392 88.0278 38.2107C85.8828 37.3009 81.4278 35.4814 74.5803 32.752C66.0003 29.2949 52.1403 26.1107 49.7478 25.4738C47.2728 26.1107 33.5778 29.2949 24.9153 32.752C17.9853 35.4814 13.4478 37.3919 11.3028 38.2107ZM18.2328 79.5144C11.6328 66.5047 7.42527 51.9483 7.34277 36.5731V34.9355L8.74527 34.3896C8.74527 34.3896 14.1078 32.1152 23.6778 28.2941C33.4128 24.4731 49.4178 20.834 49.4178 20.834H50.1603C50.2428 20.834 66.1653 24.4731 75.9003 28.2941C85.4703 32.1152 90.7503 34.3896 90.8328 34.3896L92.2353 34.9355V36.5731C92.0703 51.9483 87.9453 66.4137 81.2628 79.5144C73.6728 94.5257 62.7828 107.535 51.0678 117.543L49.8303 118.635L48.5928 117.543C36.7953 107.535 25.9053 94.5257 18.2328 79.5144Z" fill="#240347"/>
<path d="M25.3275 44.124L12.54 53.7676C12.54 53.7676 18.2325 79.7872 31.515 96.527C44.7975 113.267 50.325 115.177 50.325 115.177C50.325 115.177 66.2475 100.621 74.25 88.521C82.0875 76.421 88.6875 54.5864 88.6875 54.5864L77.715 54.0406L25.3275 44.124Z" fill="#240347"/>
<path d="M79.7778 49.3099L80.2728 50.7655L71.2803 45.3069L72.6003 45.0339L73.5903 45.5798L73.1778 46.1257L77.8803 48.946L78.4578 48.4001L79.7778 49.3099Z" fill="#3875DA"/>
<path d="M73.1778 46.3986L71.2803 45.3069L72.6003 45.0339L73.5903 45.5798L73.1778 46.1257L73.3428 46.2166L73.1778 46.3986Z" fill="#12EBFA"/>
<path d="M80.5201 51.3114L79.7776 51.9483L70.7026 46.6716L70.8676 45.5798L80.5201 51.3114Z" fill="#3875DA"/>
<path d="M80.5201 51.3114L80.1076 51.7663L72.3526 47.3084L72.1876 47.5813L70.7026 46.6716L70.8676 45.5798L80.5201 51.3114Z" fill="#12EBFA"/>
<path d="M77.7975 51.5843L63.36 79.5143L61.71 78.8775L76.4775 50.8564L77.7975 51.5843Z" fill="white"/>
<path d="M75.8178 50.4015L60.9678 78.6954L57.5028 76.7849L56.8428 75.4203L71.6103 47.9451L75.8178 50.4015Z" fill="#C6C8C9"/>
<path d="M57.7503 76.8759L57.5028 76.7849L56.8428 75.4203L71.6103 47.9451L72.8478 48.6729L57.7503 76.8759Z" fill="#12EBFA"/>
<path d="M25.2451 42.3955C25.2451 42.2136 25.2451 42.2136 25.2451 42.0316L28.6276 38.9384L34.8151 34.6625L33.3301 23.2903L59.5651 28.385L63.1126 35.1173L68.6401 38.9384L72.0226 42.0316C72.0226 42.2136 72.0226 42.2136 72.0226 42.3955L84.3976 51.0384C83.8201 52.9489 83.0776 55.4963 82.1701 58.8625C81.1801 62.2286 78.5401 66.6865 75.1576 71.2354C74.9926 71.3264 74.6626 71.4174 74.4976 71.5083L70.5376 74.6016C67.9801 77.8767 66.0001 81.7888 63.2776 84.882C61.8751 86.5196 60.3076 88.2482 58.7401 89.7948C56.2651 92.2512 54.0376 94.7986 51.5626 97.3459L49.9951 99.4384L46.6126 95.7083C44.2201 93.161 41.7451 90.5226 39.2701 88.0662C37.7026 86.5196 36.3001 84.791 34.7326 83.1534C31.9276 79.9692 29.2051 76.694 26.5651 73.4189L24.9151 72.691C20.8726 64.594 16.9126 55.3143 14.6851 49.5828L25.2451 42.3955ZM61.9576 33.2978L57.7501 27.3843L62.2051 33.2978C62.2051 33.2978 62.0401 33.2978 61.9576 33.2978Z" fill="#240347"/>
<path d="M36.5475 38.2107C36.5475 38.2107 35.7225 41.5769 39.27 48.6731C42.3225 54.8596 47.52 58.2257 48.675 58.9536C49.7475 57.7708 51.315 56.1333 52.7175 52.6761C54.12 49.219 54.45 47.8543 54.45 47.8543L50.0775 52.0393V43.8513L51.8925 45.5799C51.8925 45.5799 53.2125 45.216 55.6875 43.3964C58.245 41.5769 61.4625 38.4836 61.4625 38.4836L61.2975 38.3017C60.72 38.7566 57.915 40.94 54.78 42.1227C51.3975 43.3964 52.2225 42.8505 52.2225 42.8505L48.84 42.2137L45.4575 42.8505C45.4575 42.8505 46.365 43.3964 42.9 42.1227C39.6825 40.7581 36.5475 38.2107 36.5475 38.2107Z" fill="#55526F"/>
<path d="M39.105 48.491C39.1875 48.582 39.1875 48.6729 39.27 48.6729C42.3225 54.9504 47.4375 58.3166 48.675 59.0444C49.7475 57.8617 51.315 56.2241 52.7175 52.7669C54.12 49.3098 54.45 47.9451 54.45 47.9451L50.0775 52.1301V43.8511L51.8925 45.5797C51.8925 45.5797 53.2125 45.2158 55.6875 43.3963C58.245 41.5767 61.4625 38.4835 61.4625 38.4835L61.2975 38.3015C60.72 38.7564 57.915 40.9399 54.78 42.1226C51.3975 43.3963 52.2225 42.8504 52.2225 42.8504L48.84 42.2135L49.0875 53.6767L51.2325 52.2211L48.345 56.497C48.345 56.497 42.9825 53.0399 40.6725 50.4925C39.93 49.7647 39.5175 49.0369 39.105 48.491Z" fill="#2D2846"/>
<path d="M46.0349 39.2114L38.8574 36.1182C38.8574 36.1182 41.8274 39.4843 43.0649 39.9392C44.4674 40.3941 46.0349 39.2114 46.0349 39.2114ZM51.5624 39.2114L58.7399 36.1182C58.7399 36.1182 55.7699 39.4843 54.5324 39.9392C53.1299 40.3941 51.5624 39.2114 51.5624 39.2114Z" fill="#FDDB34"/>
<path d="M48.8402 69.0518C48.8402 69.0518 43.8902 66.3225 41.0027 62.8654C38.0327 59.4082 36.8777 56.7699 36.8777 56.7699L38.5277 64.321C38.5277 64.321 36.3002 59.1353 35.1452 55.5872C34.0727 52.13 33.9902 49.5827 33.9902 49.5827L33.0002 51.8571C33.0002 51.8571 33.0827 49.9466 33.4952 48.4909C33.9077 46.9443 34.5677 46.2165 34.5677 46.2165L34.6502 43.1233L29.7827 46.3985C29.7827 46.3985 29.9477 48.0361 30.7727 51.4022C31.5977 54.7684 31.9277 55.6782 31.9277 55.6782C31.9277 55.6782 30.2777 53.7676 29.1227 50.9473C28.0502 47.8541 27.6377 47.3082 27.6377 47.3082C27.6377 47.3082 27.1427 52.9488 30.0302 60.5C32.9177 68.0511 41.7452 74.2376 41.7452 74.2376L41.1677 71.5082L48.7577 77.6037L56.3477 71.5082L55.7702 74.2376C55.7702 74.2376 64.6802 68.1421 67.4852 60.5C70.3727 52.9488 69.7952 47.3082 69.7952 47.3082C69.7952 47.3082 69.4652 47.9451 68.3102 50.6744C67.1552 53.4947 65.5052 55.4052 65.5052 55.4052C65.5052 55.4052 65.9177 54.5864 66.6602 51.1293C67.4852 47.7631 67.6502 46.1255 67.6502 46.1255L62.7827 42.8503L62.8652 45.9436C62.8652 45.9436 63.5252 46.6714 63.9377 48.218C64.3502 49.7646 64.4327 51.5842 64.4327 51.5842L63.4427 49.3097C63.4427 49.3097 63.3602 51.7661 62.2877 55.3143C61.2152 58.8624 59.0702 64.0481 59.0702 64.0481L60.6377 56.497C60.6377 56.497 59.5652 59.1353 56.5127 62.5925C53.7902 66.3225 48.8402 69.0518 48.8402 69.0518Z" fill="#FDDB34"/>
<path d="M48.84 69.0519C48.84 69.0519 43.89 66.3226 41.0025 62.8655C39.27 60.864 38.115 59.0444 37.62 57.9527C38.1975 61.5918 45.54 70.5985 48.9225 71.1444C51.8925 70.6895 59.4825 61.8647 60.225 57.9527C59.6475 59.0444 58.4925 60.864 56.8425 62.8655C53.79 66.3226 48.84 69.0519 48.84 69.0519ZM33.825 47.7632C34.2375 46.6715 34.7325 46.1256 34.7325 46.1256L34.815 43.0324L31.4325 45.3068L31.02 45.4888L30.195 46.0346L29.9475 46.2166C29.9475 46.2166 30.1125 47.6722 30.7725 50.5835C31.4325 52.1301 32.175 53.4948 32.835 54.3136C34.5675 56.679 34.65 56.679 34.65 56.679L39.0225 65.8677L38.5275 64.1392C38.115 63.2294 36.2175 58.6805 35.2275 55.5873C34.155 52.1301 34.0725 49.5828 34.0725 49.5828L33.0825 51.8572C33.0825 51.8572 33.165 49.9467 33.5775 48.491V48.4001V48.3091V48.2181L33.825 47.7632ZM67.485 45.9437L63.03 42.9414L63.1125 46.0346C63.1125 46.0346 63.6075 46.5805 64.02 47.6722V47.7632V47.8542V47.9452V48.0361V48.1271C64.4325 49.6737 64.515 51.4933 64.515 51.4933L63.525 49.2188C63.525 49.2188 63.4425 51.6752 62.37 55.3143C61.38 58.4076 59.4825 62.9564 59.07 63.8662L58.575 65.5948L62.7825 56.4061C62.7825 56.4061 62.7825 56.4061 64.5975 54.0407C65.175 53.2219 66 51.8572 66.66 50.3106C67.4025 47.3083 67.485 45.9437 67.485 45.9437ZM27.72 47.3083C27.72 47.3083 27.1425 52.9489 30.03 60.5001C32.9175 68.0512 41.745 74.2376 41.745 74.2376L41.1675 71.5083L48.7575 77.6038L56.3475 71.5083L55.77 74.2376C55.77 74.2376 64.68 68.1422 67.485 60.5001C70.3725 52.9489 69.795 47.3083 69.795 47.3083C69.795 47.3083 69.7125 55.4053 65.7525 61.4098C61.9575 67.4143 57.75 70.5985 57.75 70.5985L57.8325 67.7782L48.9225 74.7835L40.0125 67.7782L40.095 70.5985C40.095 70.5985 35.8875 67.5053 31.9275 61.4098C27.8025 55.3143 27.72 47.3083 27.72 47.3083Z" fill="#EE7E24"/>
<path d="M29.1226 52.312C29.1226 52.312 29.4526 55.1323 32.3401 60.0451C35.2276 64.9579 39.1051 68.8699 39.1051 68.8699L39.8476 66.8684C39.8476 66.8684 42.1576 68.7789 44.0551 70.3255C45.9526 71.8722 46.4476 72.0541 46.4476 72.0541C46.4476 72.0541 43.0651 68.688 41.4151 67.3233C39.8476 65.8677 39.3526 65.2308 39.3526 65.2308L38.7751 67.4143C38.7751 67.4143 33.6601 61.5917 31.8451 58.3165C30.0301 55.0413 29.1226 52.312 29.1226 52.312Z" fill="#FDDB34"/>
<path d="M29.37 35.0264L29.2875 31.8422C29.205 30.2046 29.4525 28.1121 29.7 26.4745C30.2775 22.7444 31.515 19.1053 33.5775 16.0121C34.8975 14.0106 36.465 12.282 38.0325 10.7354C40.1775 8.64291 42.3225 6.73238 44.6325 4.91283C45.6225 4.09403 46.7775 3.27524 47.9325 2.45644L48.51 2.09253L49.0875 2.45644C49.995 2.91133 50.9025 3.45719 51.645 4.00306C53.13 4.91283 54.615 5.91358 56.1 6.91433C56.1 6.91433 58.08 7.82411 60.6375 10.5534C61.2975 11.1903 62.04 11.8271 62.535 12.5549C63.7725 14.1016 65.01 15.7391 65.9175 17.4677C66.0825 17.8316 66.4125 18.3775 66.495 18.8324C71.445 28.294 70.29 49.6737 70.29 49.6737L70.455 50.3106L65.34 42.3955C64.845 41.6677 64.35 40.8489 63.7725 40.1211C62.6175 38.5745 61.4625 36.9369 60.1425 35.3903C58.9875 34.0256 57.42 32.388 55.935 31.3873C54.3675 30.3865 52.635 29.4767 50.985 28.8399C50.4075 28.6579 49.9125 28.385 49.335 28.2031C48.2625 28.6579 47.1075 29.2038 45.9525 29.6587L46.695 31.4782L45.705 32.1151C44.88 32.7519 44.055 33.2978 43.23 33.9346C41.415 35.2993 39.765 36.664 38.0325 38.2106C36.5475 39.5752 34.815 41.3038 33.66 43.0324C32.505 44.9429 31.35 46.8534 30.195 48.673C29.865 49.3098 29.4525 49.9467 29.1225 50.6745L26.6475 55.4963L26.8125 49.9467C26.895 48.673 26.9775 47.3083 27.06 46.0346C27.3075 43.2143 27.6375 40.394 28.2975 37.6647C28.875 36.8459 29.1225 35.9361 29.37 35.0264Z" fill="#240347"/>
<path d="M66.7425 41.6678C66.7425 41.6678 61.05 32.934 57.0075 30.3866C52.8 27.8392 49.665 27.0205 49.665 27.0205C49.665 27.0205 43.065 29.6588 40.755 31.4783C38.28 33.2069 37.3725 34.6626 37.3725 34.6626C37.3725 34.6626 39.435 33.5708 42.24 32.5701C45.045 31.4783 45.6225 31.2964 45.6225 31.2964C45.6225 31.2964 36.465 37.4829 33.2475 42.5776C30.03 47.6723 28.71 50.4017 28.71 50.4017C28.71 50.4017 28.875 41.6678 30.855 35.0265C32.835 28.3851 37.7025 22.0167 37.7025 22.0167C37.7025 22.0167 35.7225 22.9265 33.7425 26.2017C31.5975 29.3859 30.525 31.8423 30.525 31.8423C30.525 31.8423 30.36 23.4723 34.65 16.922C38.94 10.3716 48.675 3.73022 48.675 3.73022C48.675 3.73022 58.41 9.09789 61.875 13.4648C65.34 17.7408 65.7525 19.6513 65.7525 19.6513C65.7525 19.6513 64.35 17.1949 61.71 14.9205C59.07 12.737 55.275 10.5535 55.275 10.5535C55.275 10.5535 57.8325 12.737 59.4 15.4663C60.9675 18.1956 62.7 24.3821 62.7 24.3821C62.7 24.3821 61.7925 22.8355 58.8225 20.743C55.8525 18.6505 52.3875 17.3768 52.3875 17.3768C52.3875 17.3768 59.8125 23.5633 62.9475 28.2032C66.0825 32.843 66.33 34.9355 66.33 34.9355C66.33 34.9355 64.9275 33.2069 62.7 31.7513C60.4725 30.2047 58.8225 29.4768 58.8225 29.4768C58.8225 29.4768 62.535 32.843 64.1025 35.5723C65.505 38.2107 66.7425 41.6678 66.7425 41.6678Z" fill="#55526F"/>
<path d="M49.4999 26.9295C49.4999 26.9295 42.8999 29.5678 40.5899 31.3874C38.1149 33.1159 37.2074 34.5716 37.2074 34.5716C37.2074 34.5716 39.2699 33.4798 42.0749 32.4791C44.8799 31.4783 45.4574 31.2054 45.4574 31.2054C45.4574 31.2054 36.2999 37.3919 33.0824 42.4866C29.8649 47.5814 28.5449 50.3107 28.5449 50.3107C28.5449 50.3107 28.7924 41.5768 30.7724 34.9355C32.7524 28.2032 37.5374 21.8347 37.5374 21.8347C37.5374 21.8347 37.3724 21.9257 37.2074 22.0167L41.0024 19.0144C41.0024 19.0144 38.8574 20.4701 35.6399 26.7475C32.4224 33.1159 30.4424 43.1235 30.4424 43.1235C30.4424 43.1235 31.1024 41.5768 33.2474 39.3024C35.3099 37.028 36.8774 35.7543 36.8774 35.7543L34.6499 36.3002C34.6499 36.3002 37.5374 32.3881 41.9099 29.6588C46.1174 26.9295 49.4999 26.9295 49.4999 26.9295ZM31.8449 29.022C30.9374 30.6595 30.4424 31.7513 30.4424 31.7513C30.4424 31.7513 30.2774 23.3814 34.5674 16.831C38.8574 10.2806 48.6749 3.73022 48.6749 3.73022C48.6749 3.73022 42.0749 9.37083 37.0424 15.8302C32.9999 20.925 32.0099 26.8385 31.8449 29.022Z" fill="#7E7F9D"/>
<path d="M26.0699 45.7617C26.0699 45.7617 25.0799 56.861 31.1849 67.0504C37.2899 77.2399 42.3224 81.2429 42.3224 81.2429L36.0524 71.5993C36.0524 71.5993 42.7349 78.2407 46.1174 80.3332C49.4999 82.4256 49.4999 82.4256 49.4999 82.4256C49.4999 82.4256 60.8849 75.5113 66.2474 68.1422C71.6099 60.773 72.6824 50.8565 72.6824 50.8565C72.6824 50.8565 73.6724 54.4956 70.4549 63.6843C67.1549 72.873 64.8449 76.2392 64.8449 76.2392C64.8449 76.2392 66.8249 74.0557 69.3824 70.2346C71.9399 66.4136 73.1774 63.3204 73.1774 63.3204C73.1774 63.3204 70.7849 72.4181 67.1549 77.6948C63.5249 83.1534 63.5249 83.1534 63.5249 83.1534L67.4849 81.1519C67.4849 81.1519 61.7099 88.976 57.3374 92.7971C52.9649 96.6181 50.6549 97.9828 50.6549 97.9828C50.6549 97.9828 39.9299 88.5211 34.0724 81.1519C28.2974 73.6918 25.3274 66.8685 25.3274 66.8685C25.3274 66.8685 26.3174 70.3256 27.5549 73.7828C28.8749 77.2399 29.5349 78.5136 29.5349 78.5136C29.5349 78.5136 25.8224 73.9647 22.1924 64.776C18.6449 55.5873 18.2324 52.4031 18.2324 52.4031C18.2324 52.4031 19.7999 50.6745 20.7074 49.7647C21.6149 48.9459 21.6149 48.9459 21.6149 48.9459C21.6149 48.9459 22.9349 53.6768 23.5124 55.8602C24.0899 57.8617 24.9149 59.0444 24.9149 59.0444C24.9149 59.0444 23.0999 49.6737 23.3474 48.3091C23.5124 46.9444 26.0699 45.7617 26.0699 45.7617Z" fill="#55526F"/>
<path d="M36.0526 71.5084C36.0526 71.5084 42.7351 78.1497 46.1176 80.2422C49.5001 82.3347 49.5001 82.3347 49.5001 82.3347C49.5001 82.3347 60.8851 75.3294 66.3301 67.9603C71.6926 60.5911 72.7651 50.6746 72.7651 50.6746C72.7651 50.6746 73.7551 54.3137 70.5376 63.5024C67.2376 72.6911 64.9276 76.0573 64.9276 76.0573C64.9276 76.0573 66.9076 73.8738 69.4651 70.0528C72.0226 66.2317 73.2601 63.1385 73.2601 63.1385C73.2601 63.1385 70.8676 72.2362 67.2376 77.5129C63.5251 83.0625 63.5251 83.0625 63.5251 83.0625L67.4851 81.061C67.4851 81.061 61.7101 88.8851 57.3376 92.7061C52.9651 96.5272 50.6551 97.8919 50.6551 97.8919C50.6551 97.8919 39.9301 88.5212 34.0726 81.061C30.9376 77.058 28.7101 73.237 27.1426 70.5076C28.6276 72.964 31.1026 76.4212 35.3101 80.3332C43.4776 88.1573 48.7576 88.5212 50.0776 88.7031C51.3976 88.9761 56.6776 86.2467 56.6776 86.2467C56.6776 86.2467 51.8101 90.1588 51.0676 90.4317C50.3251 90.6137 43.3951 87.7934 43.3951 87.7934L50.7376 94.2528C50.7376 94.2528 57.9151 89.067 59.8126 86.4287C61.7926 83.7904 64.2676 78.6956 64.2676 78.6956L58.5751 83.6084C58.5751 83.6084 60.5551 81.152 63.0301 76.967C65.4226 72.6911 66.7426 69.7798 66.7426 69.7798C66.7426 69.7798 66.4951 69.9618 62.6176 74.4197C58.6576 78.9685 49.5826 84.6091 49.5826 84.6091C49.5826 84.6091 49.0876 84.0633 45.0451 81.243C41.0851 78.4227 36.0526 71.5084 36.0526 71.5084ZM26.8126 71.7813C26.9776 72.4182 27.3076 73.055 27.4726 73.7828C28.7926 77.24 29.4526 78.5137 29.4526 78.5137C29.4526 78.5137 25.7401 73.9648 22.1101 64.7761C21.7801 63.8663 21.4501 62.9565 21.1201 62.2287C22.8526 65.3219 25.4101 69.5069 26.8126 71.7813Z" fill="#2D2846"/>
<path d="M26.0699 45.7617C26.0699 45.7617 25.0799 56.861 31.1849 67.0504C37.2899 77.2399 42.3224 81.2429 42.3224 81.2429C31.4324 73.3279 26.2349 63.3204 24.3374 49.2189L23.3474 49.8557C23.2649 49.2189 23.2649 48.673 23.2649 48.3091C23.5124 46.9444 26.0699 45.7617 26.0699 45.7617ZM18.8099 54.8595C18.3149 53.0399 18.2324 52.4031 18.2324 52.4031C18.2324 52.4031 19.7999 50.6745 20.7074 49.7647C21.6149 48.9459 21.6149 48.9459 21.6149 48.9459C21.6149 48.9459 21.7799 49.7647 22.1924 50.9474L18.8099 54.8595Z" fill="#7E7F9D"/>
<path d="M66.7426 41.6676C66.7426 41.6676 61.0501 32.9338 57.0076 30.3864C52.8001 27.8391 49.6651 27.0203 49.6651 27.0203C49.6651 27.0203 43.0651 29.6586 40.7551 31.4782C38.9401 32.7519 37.9501 33.9346 37.5376 34.3894C37.7026 34.0255 38.4451 32.8428 40.4251 31.0233C42.9826 28.5669 47.3551 25.8376 49.0051 25.2917C50.6551 24.7458 56.3476 27.7481 56.3476 27.7481L53.6251 25.0188C53.6251 25.0188 54.4501 25.1098 56.0176 25.3827C57.5026 25.7466 58.8226 26.0195 58.8226 26.0195C58.8226 26.0195 50.6551 17.2857 49.9126 17.2857C49.1701 17.2857 42.4876 21.1067 42.4876 21.1067C42.4876 21.1067 48.8401 15.1022 49.9126 15.1022C50.9851 15.0113 59.0701 18.3774 59.0701 18.3774C59.0701 18.3774 59.0701 18.3774 57.6676 16.2849C56.2651 14.1925 51.1501 8.09697 51.1501 8.09697C51.1501 8.09697 51.8926 8.18795 53.3776 8.64283C54.9451 9.00674 56.4301 9.73456 56.4301 9.73456C56.4301 9.73456 55.8526 9.09772 54.3676 7.82404C52.9651 6.64133 48.5101 3.5481 48.5101 3.5481C48.5101 3.5481 58.3276 9.09772 61.7926 13.4646C65.2576 17.7406 65.6701 19.6511 65.6701 19.6511C65.6701 19.6511 64.2676 17.1947 61.6276 14.9203C59.0701 12.7368 55.2751 10.5534 55.2751 10.5534C55.2751 10.5534 57.8326 12.7368 59.4001 15.4661C60.9676 18.1955 62.7001 24.3819 62.7001 24.3819C62.7001 24.3819 61.7926 22.8353 58.8226 20.7428C55.8526 18.6504 52.3876 17.3767 52.3876 17.3767C52.3876 17.3767 59.8126 23.5631 62.9476 28.203C66.0826 32.8428 66.3301 34.9353 66.3301 34.9353C66.3301 34.9353 64.9276 33.2067 62.7001 31.7511C60.4726 30.2045 58.8226 29.4767 58.8226 29.4767C58.8226 29.4767 62.5351 32.8428 64.1026 35.5722C65.5051 38.2105 66.7426 41.6676 66.7426 41.6676Z" fill="#2D2846"/>
<path d="M17.7378 55.5872C17.9028 55.4052 18.0678 55.2233 18.3153 55.0413C19.0578 54.3135 21.6153 53.8586 25.1628 53.5857C31.6803 59.7722 47.1903 75.8752 47.1903 75.8752C47.1903 75.8752 39.2703 79.9691 33.1653 82.9714C32.0103 78.1496 29.2878 66.5955 29.6178 65.0488C30.0303 63.0473 24.3378 55.8601 24.3378 55.8601C24.3378 55.8601 21.2853 55.7691 17.7378 55.5872Z" fill="#2D2846"/>
<path d="M31.6801 51.5841L28.2976 49.4917C28.2151 49.3097 28.1326 49.3097 27.9676 49.2187L22.4401 45.7616C22.4401 45.4887 22.2751 45.4887 22.1926 45.3977L15.3451 40.9398L15.9226 39.4841C16.0876 39.1202 15.9226 38.5744 15.5101 38.3924L10.2301 35.4811C9.9001 35.2992 9.5701 35.3902 9.3226 35.6631L8.6626 36.4819C8.4976 36.3909 8.2501 36.3909 8.0851 36.4819L6.2701 37.4826L5.0326 36.6638L2.4751 41.3037L2.6401 41.3947C2.6401 41.5766 2.8051 41.8496 2.9701 42.0315L3.0526 42.1225L4.0426 42.7593L4.4551 44.124L3.7126 45.8526C3.5476 46.2165 3.6301 46.6714 3.9601 46.9443L10.3126 51.0383L10.1476 51.3112C9.9826 51.6751 10.0651 52.221 10.3951 52.4029L18.0676 57.6796C17.8201 57.6796 17.4901 57.7706 17.3251 57.8616C17.3251 57.8616 17.3251 57.8616 17.2426 57.8616C16.8301 58.0435 16.5001 58.4075 16.2526 58.8623C16.0051 59.2262 15.8401 59.6811 15.6751 60.045C15.5101 60.6819 15.3451 61.5007 15.5101 62.1375C15.6751 62.7744 15.9226 63.3202 16.5001 63.6841C16.7476 63.8661 17.0776 63.9571 17.4901 63.9571C17.7376 63.9571 18.0676 63.9571 18.2326 63.9571C18.3976 64.0481 18.3976 64.0481 18.5626 64.139C18.7276 64.23 18.8926 64.321 19.1401 64.321C19.3051 64.412 19.5526 64.5029 19.7176 64.5029L20.2951 64.6849C20.7076 64.7759 20.9551 64.8669 21.1201 64.8669C20.9551 65.0488 20.9551 65.1398 20.8726 65.3217C20.7901 65.5037 20.7076 65.5947 20.7076 65.7766C20.6251 65.7766 20.6251 65.8676 20.5426 65.8676C20.3776 65.9586 20.2951 66.0496 20.1301 66.1405C19.7176 66.4135 19.3876 66.8684 19.1401 67.4142C18.9751 67.6872 18.9751 68.0511 18.9751 68.415V68.5969C18.8101 68.7789 18.7276 68.8699 18.5626 69.0518L17.0776 71.0533C16.8301 71.3263 16.9126 71.8721 17.0776 72.1451C17.0776 72.327 17.0776 72.5999 17.1601 72.7819C17.2426 73.0548 17.3251 73.3278 17.4076 73.5097C17.4901 73.6007 17.5726 73.6917 17.5726 73.7826L17.8201 77.1488C17.8201 77.4217 17.9851 77.6947 18.2326 77.7857L25.9051 82.0616C25.9051 82.0616 26.2351 82.2436 26.6476 82.6075L26.7301 82.6984C26.8951 82.8804 26.9776 82.8804 27.1426 82.8804C27.3076 83.0623 27.6376 83.1533 27.8026 83.3353C28.5451 83.7902 32.8351 83.7902 32.8351 83.7902L33.1651 83.9721L34.8151 85.1548C35.0626 85.3368 35.3926 85.3368 35.7226 85.1548L36.4651 84.518C37.2901 83.8811 38.1976 82.9714 38.9401 81.9706C39.6826 80.9699 40.4251 79.9691 41.0026 78.8774C41.5801 77.7857 41.9926 76.512 42.4051 75.1473C42.7351 73.7826 42.9826 72.236 43.1476 70.9623L43.2301 70.0526C43.2301 69.6887 43.0651 69.4157 42.8176 69.2338L35.4751 64.5029L35.5576 64.412C35.6401 64.23 35.7226 64.139 35.7226 63.9571V54.5864C35.7226 54.3135 35.5576 53.9496 35.3101 53.8586L31.6801 51.5841Z" fill="#240347"/>
<path d="M32.6703 54.8594V61.1368L33.6603 61.7737V55.4962L32.6703 54.8594ZM25.5753 57.0429L25.0803 58.0436L25.9053 59.4992L33.1653 63.9571L33.4128 62.5925L25.5753 57.0429ZM13.6128 49.2188L12.6228 51.1293L13.1178 51.4022L13.6953 50.5834L14.2728 50.7654C14.2728 50.7654 14.0253 51.2203 13.6953 51.7662L14.4378 52.312L14.8503 51.4932L15.2628 51.7662L14.7678 52.585L15.5103 53.1308L15.7578 52.403L16.3353 52.585L16.0053 53.4947L25.0803 59.7722L24.1728 58.4985L24.8328 57.0429L13.6128 49.2188ZM6.68277 44.1241L6.10527 45.4887L12.1278 49.4007L12.7053 48.7639L6.93027 45.0338L7.26027 44.397L6.60027 44.0331L6.68277 44.1241ZM9.40527 39.0293L10.2303 38.0286L13.6128 39.9391L10.3128 38.8474L9.81777 39.3932L9.40527 39.0293ZM6.18777 39.3932L5.28027 40.9398L19.5528 50.0376V51.9481L20.3778 52.585V49.1278L6.18777 39.3932ZM20.4603 46.8534L20.2953 48.4L6.93027 39.5752L8.25027 38.9383L20.4603 46.8534ZM26.4003 50.7654V56.7699L20.7903 52.9489L20.9553 47.3992L26.4003 50.7654ZM26.8128 51.0383V57.0429L27.8028 57.6797V51.6752L26.8128 51.0383ZM27.9678 51.7662V57.7707L28.9578 58.4075V52.312L27.9678 51.7662ZM29.1228 52.585V58.6804L30.1128 59.3173V53.2218L29.1228 52.585ZM30.3603 53.3128V59.4083L31.3503 60.0451V53.8586L30.3603 53.3128ZM31.5153 54.1316V60.318L32.5053 60.9549V54.7684L31.5153 54.1316Z" fill="#55526F"/>
<path d="M32.6703 59.2262V61.1367L33.6603 61.7736V59.8631L32.6703 59.2262ZM5.52777 40.4849L20.3778 50.0375V52.5849L19.5528 51.948V50.0375L5.28027 40.8488L5.52777 40.4849ZM20.8728 51.2202L26.4003 55.1322V56.6788L20.7903 52.8578L20.8728 51.2202ZM26.8128 55.3142L27.8028 55.951V57.6796L26.8128 57.0428V55.3142ZM27.9678 56.133L28.9578 56.7698V58.4984L27.9678 57.8616V56.133ZM29.1228 56.9518L30.1128 57.5886V59.4082L29.1228 58.7713V56.9518ZM30.3603 57.6796L31.3503 58.3164V60.136L30.3603 59.4992V57.6796ZM31.5153 58.4984L32.5053 59.1352V60.9548L31.5153 60.3179V58.4984ZM26.0703 57.3157L25.9053 57.9525L26.2353 58.6804L33.2478 62.9563L33.0828 63.6841L25.9053 59.2262L25.0803 57.7706L25.5753 56.7698L26.0703 57.3157ZM6.18777 45.3067L12.3753 49.1277L12.1278 49.4007L6.10527 45.4886L6.18777 45.3067ZM13.2003 49.9465L24.5028 57.5886L24.1728 58.3164L25.0803 59.5901L16.0878 53.4037L16.4178 52.4939L15.8403 52.3119L15.5928 53.0397L14.8503 52.4939L15.3453 51.6751L14.8503 51.4931L14.2728 52.3119L13.6128 51.857C13.9428 51.3112 14.1903 50.8563 14.1903 50.8563L13.6128 50.6743L13.0353 51.4931L12.5403 51.2202L13.2003 49.9465Z" fill="#2D2846"/>
<path d="M32.6699 54.8594V55.5872L33.6599 56.2241V55.4962L32.6699 54.8594ZM32.4224 55.4053L31.4324 54.7684V54.0406L32.4224 54.6774V55.4053ZM31.1849 54.6774L30.1949 54.0406V53.4038L31.1849 54.0406V54.6774ZM30.0299 53.9496L29.0399 53.3128V52.6759L30.0299 53.3128V53.9496ZM28.8749 53.1308L27.8849 52.494V51.8571L28.8749 52.494V53.1308ZM27.6374 52.312L26.6474 51.6752V51.0383L27.6374 51.6752V52.312ZM26.3999 51.4932L21.0374 47.9451V47.3992L26.3999 50.7654V51.4932ZM20.4599 47.4902L7.75488 39.2113L8.24988 39.0293L20.4599 46.9444V47.4902ZM9.40488 39.0293L10.2299 38.0286L13.6124 39.9391L10.3124 38.8474L9.81738 39.3932L9.40488 39.0293Z" fill="#7E7F9D"/>
<path d="M23.7603 59.9541L22.4403 62.8654C22.4403 62.8654 19.2228 62.1376 19.2228 61.9556C19.2228 61.7736 19.8828 61.5917 19.8003 61.5917C19.7178 61.5917 17.8203 61.8646 17.5728 61.7736C17.3253 61.6827 17.7378 60.0451 18.1503 59.8631C18.4803 59.7721 23.7603 59.9541 23.7603 59.9541Z" fill="#55526F"/>
<path d="M33.1652 65.3217C33.1652 65.3217 29.0402 61.9555 27.4727 61.0458C25.9877 60.227 24.9152 60.3179 24.9152 60.3179C24.9152 60.3179 23.5127 62.8653 23.5127 63.1382C23.5952 63.3202 24.1727 63.5022 24.1727 63.5022L24.6677 62.7743L24.7502 63.3202L27.3902 64.7758C27.3902 64.7758 29.7827 64.9578 31.5977 65.2307C33.4952 65.5946 33.1652 65.3217 33.1652 65.3217Z" fill="#FEC013"/>
<path d="M32.7527 67.3232L30.1127 69.5977C30.1127 69.5977 24.8327 68.142 23.5127 68.142C22.1927 68.142 21.2852 68.6879 21.2027 68.415C21.1202 68.233 22.3577 67.5052 22.9352 67.3232C23.5127 67.1413 23.7602 66.9593 23.7602 66.9593C23.7602 66.9593 22.9352 66.9593 22.7702 66.9593C22.6052 66.8684 23.1827 65.8676 24.1727 65.8676C24.9977 65.5947 32.7527 67.3232 32.7527 67.3232Z" fill="#FEC013"/>
<path d="M29.2053 70.2344C29.1228 70.4164 27.2253 72.7818 27.2253 72.7818C27.2253 72.7818 23.3478 72.1449 21.6153 72.1449C19.8828 72.2359 19.0578 72.3269 19.2228 72.3269C19.3878 72.2359 19.8828 71.781 20.6253 71.3261C21.3678 70.9622 21.6978 70.7803 21.6978 70.7803L20.1303 70.5073C20.1303 70.5073 20.8728 69.5976 22.6053 69.5066C24.3378 69.5066 29.2053 70.2344 29.2053 70.2344Z" fill="#FEC013"/>
<path d="M26.1527 73.6916C26.2352 74.0555 25.5752 77.8765 25.5752 77.8765C25.5752 77.8765 24.4202 76.4209 24.2552 76.4209C24.0902 76.3299 21.3677 76.2389 21.3677 76.2389L22.1102 77.4216L19.7177 76.148L19.5527 73.9645C19.5527 73.9645 19.9652 73.6006 21.6152 73.6006C23.4302 73.6006 26.1527 73.6916 26.1527 73.6916Z" fill="#FEC013"/>
<path d="M34.4853 66.5044C34.4853 66.5044 27.4728 73.8736 27.2253 74.3285C26.9778 74.7833 31.0203 81.3337 31.0203 81.3337H32.0103C32.0103 81.3337 30.3603 79.2412 30.8553 79.5142C31.3503 79.7871 35.3928 82.8803 35.3928 82.8803C35.3928 82.8803 37.7853 80.8788 39.3528 77.8766C40.9203 74.9653 41.1678 71.0533 41.1678 71.0533L34.4853 66.5044ZM32.0103 76.239C32.4228 76.9668 35.3103 80.5149 35.3103 80.5149C35.3103 80.5149 34.5678 80.333 33.2478 79.2412C31.8453 78.1495 29.7003 75.5112 29.7003 75.5112L35.1453 67.96L36.1353 69.0518C36.1353 69.0518 31.5978 75.5112 32.0103 76.239Z" fill="#FEC013"/>
<path d="M27.9678 73.5098C27.5553 73.9647 27.3078 74.1466 27.2253 74.2376C27.0603 74.6015 31.0203 81.2429 31.0203 81.2429H32.0103C32.0103 81.2429 30.3603 79.1504 30.8553 79.4233C31.3503 79.6962 35.3928 82.7895 35.3928 82.7895C35.3928 82.7895 35.8053 82.4256 36.3828 81.7887L35.4753 81.1519C35.4753 81.1519 34.8978 80.9699 33.9903 80.4241C33.0003 79.8782 30.2778 77.1489 30.2778 77.1489V77.5128C30.2778 77.5128 29.6178 77.2398 29.3703 76.512C29.1228 76.2391 28.3803 74.4196 27.9678 73.5098ZM30.4428 65.1398C29.1228 64.412 26.1528 62.6835 25.9053 62.4105C25.6578 62.0466 25.7403 61.3188 25.7403 61.3188L26.1528 60.682C25.3278 60.5 24.8328 60.5 24.8328 60.5C24.8328 60.5 23.4303 63.0474 23.4303 63.3203C23.5128 63.5023 24.0903 63.6842 24.0903 63.6842L24.5853 62.9564L24.6678 63.5023L27.3078 64.9579C27.3078 64.7759 28.8753 64.8669 30.4428 65.1398ZM24.0903 65.6857H24.2553C24.2553 65.6857 23.6778 66.1406 23.8428 66.3226C24.0078 66.5045 24.7503 66.7774 24.7503 66.7774C24.7503 66.7774 23.7603 67.4143 23.9253 67.5053C24.0903 67.5053 29.9478 68.2331 31.2678 68.597L30.1953 69.5977C30.1953 69.5977 24.9153 68.1421 23.5953 68.1421C22.2753 68.1421 21.3678 68.688 21.2853 68.415C21.2028 68.2331 22.4403 67.5053 23.0178 67.3233C23.5953 67.1414 23.8428 66.9594 23.8428 66.9594C23.8428 66.9594 23.0178 66.9594 22.8528 66.9594C22.5228 66.7774 23.1003 65.7767 24.0903 65.6857ZM21.9453 69.5977C21.8628 70.3256 22.8528 70.7805 22.8528 70.7805C22.8528 70.7805 22.1928 71.1444 22.2753 71.2353C22.3578 71.3263 26.6478 71.4173 28.2153 71.4173C28.0503 71.8722 27.2253 72.782 27.2253 72.782C27.2253 72.782 23.3478 72.1451 21.6153 72.1451C19.8828 72.1451 19.0578 72.3271 19.2228 72.3271C19.3878 72.2361 19.8828 71.7812 20.6253 71.3263C21.3678 70.9624 21.6978 70.7805 21.6978 70.7805L20.1303 70.5075C20.1303 70.5985 20.7078 69.8707 21.9453 69.5977ZM20.7903 73.6008C20.5428 73.8737 20.2953 74.2376 20.3778 74.4196C20.4603 74.7835 21.1203 75.5113 21.1203 75.5113C21.1203 75.5113 24.5028 75.6023 24.8328 75.6932C24.9978 75.6932 25.2453 75.6932 25.4928 75.6023C25.5753 76.694 25.6578 77.8767 25.6578 77.8767C25.6578 77.8767 24.5028 76.4211 24.4203 76.4211C24.2553 76.3301 21.5328 76.2391 21.5328 76.2391L22.2753 77.3308L19.8828 76.0571L19.7178 73.8737C19.6353 73.9647 19.8828 73.6917 20.7903 73.6008ZM36.1353 69.0519L36.5478 69.6887C36.5478 69.6887 34.3203 73.7827 34.2378 74.6015C34.1553 75.4203 36.7128 79.7872 36.7128 79.7872L35.3103 80.515C35.3103 80.515 32.5053 77.0579 32.0103 76.2391C31.5978 75.5113 36.1353 69.0519 36.1353 69.0519Z" fill="#FA6F19"/>
<path d="M50.0775 74.0555C50.2425 73.9645 50.325 73.8736 50.49 73.8736C51.315 73.5096 52.2225 73.0548 53.0475 72.6909C54.45 72.054 55.935 71.4172 57.3375 70.7803L58.41 70.3254L64.68 84.8818L59.1525 89.5217L59.3175 89.6127L47.85 99.0743L39.6825 90.7954C39.6825 90.7954 32.5875 85.0638 27.8025 86.2465C26.9775 86.4284 26.235 86.6104 25.575 86.7924C25.41 86.4284 25.1625 86.1555 24.915 85.7916C25.3275 85.6097 25.6575 85.6096 26.07 85.4277C27.39 84.9728 28.7925 84.336 30.03 83.6991C32.01 82.7893 33.9075 81.7886 35.805 80.7878C39.3525 78.9683 42.8175 77.0578 46.365 75.1472L48.51 74.4194L50.0775 74.0555Z" fill="#240347"/>
<path d="M57.8327 72.054C57.8327 72.054 49.1702 76.7848 48.1802 77.6036C47.1902 78.4224 44.3027 84.063 44.3027 84.9728C44.3027 85.8825 47.2727 87.4291 47.2727 87.4291C47.2727 87.4291 43.8077 86.8833 42.8177 85.9735C41.8277 85.0637 45.0452 77.3306 45.0452 77.3306C45.0452 77.3306 30.5252 85.3367 26.4827 86.7013L25.7402 86.8833C28.3802 90.7953 31.6802 95.6171 34.8977 99.6201C37.7852 99.4382 45.7877 98.7103 45.7877 98.7103L56.6777 89.7946C56.6777 89.7946 54.8627 89.1577 54.2027 86.7923C53.5427 84.4269 53.3777 83.5171 53.3777 83.5171C53.3777 83.5171 54.6977 85.9735 56.2652 87.2472C57.8327 88.5209 58.0802 88.5209 58.0802 88.5209L63.3602 84.2449L57.8327 72.054Z" fill="#55526F"/>
<path d="M55.1927 73.6006C52.5527 75.0562 48.8402 77.1487 48.1802 77.6946C48.0152 77.8765 47.6027 78.3314 47.1902 78.8773C49.0052 78.0585 55.1927 75.0562 55.1927 75.0562V73.6006ZM46.2002 87.4292C45.1277 87.2472 43.4777 86.7923 42.8177 86.2465C41.8277 85.3367 45.0452 77.6036 45.0452 77.6036C45.0452 77.6036 30.5252 85.4277 26.4827 86.7923L25.7402 86.9743C25.9052 87.1562 25.9052 87.3382 26.0702 87.5201C27.5552 87.4292 29.2877 87.2472 30.7727 86.4284C34.9802 84.3359 43.1477 80.06 43.1477 80.06C43.1477 80.06 40.9202 85.0637 41.3327 86.1555C41.6627 87.4292 46.2827 87.5201 46.2002 87.4292C46.2827 87.4292 46.2827 87.5201 46.2002 87.4292Z" fill="#7E7F9D"/>
<path d="M57.0902 72.5999C56.5127 72.9638 55.6052 73.4186 54.5327 74.0555C54.6152 74.6923 54.9452 75.7841 56.3477 78.3314C58.8227 83.0623 60.3077 84.6998 60.3077 84.6998C60.3077 84.6998 57.0902 86.7014 56.1002 87.3382C56.1827 87.3382 56.1827 87.4292 56.2652 87.4292C57.8327 88.7029 58.0802 88.7029 58.0802 88.7029L63.3602 84.4269L63.1952 84.154C61.7927 82.6983 57.8327 78.5134 57.6677 75.966C57.3377 73.9645 57.1727 72.9638 57.0902 72.5999ZM47.2727 78.7863C46.0352 80.7878 44.3027 84.245 44.3027 85.0638C44.3027 86.0645 47.2727 87.5201 47.2727 87.5201C47.2727 87.5201 46.6952 87.4292 45.8702 87.2472C48.0152 88.066 51.3152 87.2472 51.3152 87.2472C51.3152 87.2472 47.1077 86.1555 46.3652 84.245C45.9527 82.9713 46.6952 80.3329 47.2727 78.7863ZM42.0752 99.2562C44.2202 99.0743 45.8702 98.9833 45.8702 98.9833L56.6777 90.0675C56.6777 90.0675 54.8627 89.4307 54.2027 87.0653C53.5427 84.6998 53.3777 83.7901 53.3777 83.7901C53.3777 83.7901 52.7177 83.5171 53.1302 86.2465C53.5427 88.9758 53.7077 89.6126 53.7077 89.6126L42.3227 98.9833L42.0752 99.2562ZM53.3777 83.6991C53.3777 83.6991 53.6252 84.245 54.1202 84.8818C53.7077 84.245 53.3777 83.6991 53.3777 83.6991Z" fill="#2D2846"/>
<path d="M67.6501 51.5841L71.0326 49.4917C71.1151 49.3097 71.1976 49.3097 71.3626 49.2187L76.8901 45.7616C76.9726 45.5796 77.0551 45.5796 77.1376 45.4887L83.9851 41.0308L83.4076 39.5751C83.2426 39.2112 83.4076 38.6653 83.8201 38.4834L89.1001 35.4811C89.4301 35.2992 89.7601 35.3902 90.0076 35.6631L90.6676 36.4819C90.8326 36.3909 91.0801 36.3909 91.2451 36.4819L93.0601 37.4826L94.2976 36.6638L96.8551 41.3037L96.7726 41.3947C96.7726 41.5766 96.6076 41.8496 96.4426 42.0315L96.3601 42.1225L95.3701 42.7593L94.8751 44.124L95.6176 45.8526C95.7826 46.2165 95.7001 46.6714 95.3701 46.9443L89.0176 51.0383L89.1826 51.3112C89.3476 51.6751 89.2651 52.221 88.9351 52.4029L81.1801 57.6796C81.4276 57.6796 81.7576 57.7706 81.9226 57.8616C81.9226 57.8616 81.9226 57.8616 82.0051 57.8616C82.4176 58.0435 82.7476 58.4075 82.9951 58.8623C83.1601 59.2262 83.4076 59.6811 83.5726 60.045C83.7376 60.6819 83.9026 61.5007 83.7376 62.1375C83.5726 62.7744 83.3251 63.3202 82.7476 63.6841C82.5001 63.8661 82.1701 63.9571 81.7576 63.9571C81.5101 63.9571 81.1801 63.9571 81.0151 63.9571C80.8501 64.0481 80.8501 64.0481 80.6851 64.139C80.5201 64.23 80.3551 64.321 80.1076 64.321C79.9426 64.412 79.6951 64.5029 79.5301 64.5029L78.9526 64.5939C78.5401 64.6849 78.2926 64.7759 78.1276 64.7759C78.2926 64.9578 78.2926 65.0488 78.3751 65.2308C78.4576 65.4127 78.5401 65.5037 78.5401 65.6856C78.6226 65.6856 78.6226 65.7766 78.7051 65.7766C78.8701 65.8676 78.9526 65.9586 79.1176 66.0496C79.5301 66.3225 79.8601 66.7774 80.1076 67.3232C80.2726 67.5962 80.2726 67.9601 80.2726 68.324L80.3551 68.415C80.5201 68.5969 80.6026 68.6879 80.7676 68.8699L82.2526 70.8714C82.5001 71.1443 82.4176 71.6902 82.1701 71.9631C82.1701 72.1451 82.1701 72.418 82.0876 72.5999C82.0051 72.8729 81.9226 73.1458 81.8401 73.3278C81.6751 73.4187 81.6751 73.6007 81.5926 73.6917L81.3451 77.0578C81.3451 77.3308 81.1801 77.6037 80.9326 77.6947L73.2601 81.8796C73.2601 81.8796 72.9301 82.0616 72.5176 82.4255L72.4351 82.5165C72.2701 82.6984 72.1876 82.6984 72.0226 82.6984C71.8576 82.8804 71.5276 82.9714 71.3626 83.1533C70.6201 83.6082 66.3301 83.6082 66.3301 83.6082L66.0001 83.7902L64.3501 84.9729C64.1026 85.1548 63.7726 85.1548 63.4426 84.9729L62.7001 84.336C61.8751 83.6992 60.9676 82.7894 60.2251 81.7887C59.4826 80.7879 58.7401 79.7872 58.1626 78.6954C57.5851 77.6037 57.1726 76.33 56.7601 74.9654C56.4301 73.6007 56.1826 72.0541 56.0176 70.7804L56.1826 70.1435C56.1826 69.7796 56.3476 69.5067 56.5951 69.3247L63.9376 64.5939L63.8551 64.5029C63.7726 64.321 63.6901 64.23 63.6901 64.0481V54.5864C63.6901 54.3135 63.8551 53.9496 64.1026 53.8586L67.6501 51.5841Z" fill="#240347"/>
<path d="M66.6599 54.8594V61.1368L65.6699 61.7737V55.4962L66.6599 54.8594ZM73.7549 57.0429L74.2499 58.0436L73.4249 59.4992L66.1649 63.9571L65.9174 62.5925L73.7549 57.0429ZM85.7174 49.2188L86.7074 51.1293L86.2124 51.4022L85.6349 50.5834L85.0574 50.7654C85.0574 50.7654 85.3049 51.2203 85.6349 51.7662L84.8924 52.312L84.4799 51.4932L84.0674 51.7662L84.4799 52.585L83.7374 53.1308L83.4899 52.403L82.9124 52.585L83.2424 53.4947L74.2499 59.7722L75.1574 58.4985L74.4974 57.0429L85.7174 49.2188ZM92.6474 44.1241L93.2249 45.5797L87.2024 49.4917L86.6249 48.8549L92.3999 45.1248L92.0699 44.488L92.6474 44.1241ZM89.9249 39.0293L89.0999 38.0286L85.7174 39.9391L89.0174 38.8474L89.4299 39.3932L89.9249 39.0293ZM93.1424 39.3932L94.0499 40.9398L79.7774 50.0376V51.9481L78.9524 52.585V49.1278L93.1424 39.3932ZM78.8699 46.8534L79.0349 48.4L92.3999 39.5752L91.0799 38.9383L78.8699 46.8534ZM72.9299 50.7654V56.7699L78.5399 52.9489L78.2924 47.3083L72.9299 50.7654ZM72.5999 51.0383V57.0429L71.6099 57.6797V51.6752L72.5999 51.0383ZM71.3624 51.7662V57.7707L70.3724 58.4075V52.312L71.3624 51.7662ZM70.2074 52.585V58.6804L69.2999 59.3173V53.2218L70.2074 52.585ZM68.9699 53.3128V59.4083L68.0624 60.0451V53.8586L68.9699 53.3128ZM67.8149 54.1316V60.318L66.9074 60.9549V54.7684L67.8149 54.1316Z" fill="#55526F"/>
<path d="M66.6599 59.2262V61.1367L65.6699 61.7736V59.8631L66.6599 59.2262ZM93.8024 40.4849L78.9524 50.0375V52.5849L79.7774 51.948V50.0375L94.0499 40.8488L93.8024 40.4849ZM78.4574 51.2202L72.9299 55.1322V56.6788L78.5399 52.8578L78.4574 51.2202ZM72.5999 55.3142L71.6099 55.951V57.6796L72.5999 57.0428V55.3142ZM71.3624 56.133L70.3724 56.7698V58.4984L71.3624 57.8616V56.133ZM70.2074 56.9518L69.2999 57.5886V59.4082L70.2899 58.7713V56.9518H70.2074ZM68.9699 57.6796L67.9799 58.3164V60.136L68.9699 59.4992V57.6796ZM67.8149 58.4984L66.8249 59.1352V60.9548L67.8149 60.3179V58.4984ZM73.3424 57.3157L73.5074 57.9525L73.1774 58.6804L66.1649 62.9563L66.3299 63.6841L73.5899 59.2262L74.4149 57.7706L73.9199 56.7698L73.3424 57.3157ZM93.2249 45.3067L87.0374 49.1277L87.2849 49.4007L93.3074 45.4886L93.2249 45.3067ZM86.1299 49.9465L74.8274 57.5886L75.1574 58.3164L74.2499 59.6811L83.2424 53.4946L82.9124 52.5849L83.4899 52.4029L83.7374 53.1307L84.4799 52.5849L84.0674 51.7661L84.4799 51.4931L84.8924 52.3119L85.6349 51.7661C85.3049 51.2202 85.0574 50.7653 85.0574 50.7653L85.6349 50.5834L86.2124 51.4022L86.7074 51.1292L86.1299 49.9465Z" fill="#2D2846"/>
<path d="M66.6599 54.8594V55.5872L65.6699 56.2241V55.4962L66.6599 54.8594ZM66.9899 55.4053L67.9799 54.7684V54.0406L66.9899 54.6774V55.4053ZM68.1449 54.6774L69.1349 54.0406V53.4038L68.1449 54.0406V54.6774ZM69.2999 53.9496L70.2899 53.3128V52.6759L69.2999 53.2218V53.9496ZM70.4549 53.1308L71.4449 52.494V51.8571L70.4549 52.494V53.1308ZM71.6924 52.312L72.6824 51.6752V51.0383L71.6924 51.6752V52.312ZM72.9299 51.4932L78.2924 47.9451V47.3992L72.9299 50.7654V51.4932ZM78.9524 47.4902L91.5749 39.1203L91.0799 38.9383L78.8699 46.9444L78.9524 47.4902ZM89.9249 39.0293L89.0999 38.0286L85.7174 39.9391L89.0174 38.8474L89.4299 39.3932L89.9249 39.0293Z" fill="#7E7F9D"/>
<path d="M75.5703 59.9541L76.8078 62.8654C76.8078 62.8654 80.0253 62.1376 80.0253 61.9556C80.0253 61.7736 79.3653 61.5917 79.4478 61.5917C79.5303 61.5917 81.4278 61.8646 81.6753 61.7736C81.9228 61.5917 81.5103 60.0451 81.0978 59.8631C80.8503 59.7721 75.5703 59.9541 75.5703 59.9541Z" fill="#55526F"/>
<path d="M66.1652 65.3217C66.1652 65.3217 70.2902 61.9555 71.8577 61.0458C73.3427 60.227 74.4152 60.3179 74.4152 60.3179C74.4152 60.3179 75.8177 62.8653 75.8177 63.1382C75.7352 63.3202 75.1577 63.5022 75.1577 63.5022L74.7452 62.7743L74.6627 63.3202L72.0227 64.7758C72.0227 64.7758 69.6302 64.9578 67.8152 65.2307C65.8352 65.5946 66.1652 65.3217 66.1652 65.3217Z" fill="#FEC013"/>
<path d="M66.9902 66.4136L69.7952 69.3249C69.7952 69.3249 74.5802 68.1421 75.9002 68.1421C77.2202 68.1421 78.1277 68.688 78.2102 68.4151C78.2927 68.2331 77.0552 67.5053 76.4777 67.3234C75.9002 67.1414 75.6527 66.9594 75.6527 66.9594C75.6527 66.9594 76.4777 66.9594 76.6427 66.9594C76.8077 66.8685 76.2302 65.8677 75.2402 65.8677C74.3327 65.5948 66.9902 66.4136 66.9902 66.4136Z" fill="#FEC013"/>
<path d="M70.29 70.3255C70.455 70.5074 72.6 72.7818 72.6 72.7818C72.6 72.7818 75.9825 72.145 77.715 72.236C79.4475 72.327 80.2725 72.4179 80.1075 72.4179C79.9425 72.327 79.4475 71.8721 78.705 71.4172C77.9625 71.0533 77.6325 70.8713 77.6325 70.8713L79.2 70.5984C79.2 70.5984 78.54 69.6886 76.725 69.5976C74.9925 69.5067 70.29 70.3255 70.29 70.3255Z" fill="#FEC013"/>
<path d="M72.9301 73.6916C72.8476 74.0555 73.7551 77.8765 73.7551 77.8765C73.7551 77.8765 74.9101 76.4209 75.0751 76.4209C75.2401 76.3299 77.9626 76.2389 77.9626 76.2389L77.2201 77.4216L79.6126 76.148L79.7776 73.9645C79.7776 73.9645 79.3651 73.6006 77.7151 73.6006C75.9001 73.6006 72.9301 73.6916 72.9301 73.6916Z" fill="#FEC013"/>
<path d="M72.1876 74.2374C72.0226 73.8735 65.3401 65.9585 65.3401 65.9585L58.2451 71.1442C58.2451 71.1442 58.4926 74.9653 60.0601 77.9675C61.6276 80.9698 64.0201 82.9713 64.0201 82.9713C64.0201 82.9713 68.0626 79.969 68.5576 79.6051C69.0526 79.3322 67.4026 81.4247 67.4026 81.4247H68.3926C68.3101 81.3337 72.4351 74.6014 72.1876 74.2374ZM66.1651 79.1502C64.7626 80.242 64.1026 80.4239 64.1026 80.4239C64.1026 80.4239 66.9076 76.9668 67.4026 76.148C67.8151 75.4201 63.3601 68.9608 63.3601 68.9608L64.7626 67.5051L69.7126 75.4202C69.7951 75.5111 67.4851 78.1495 66.1651 79.1502Z" fill="#FEC013"/>
<path d="M71.3627 73.5098C71.7752 73.9647 72.0227 74.1466 72.1052 74.2376C72.2702 74.6015 68.3102 81.2429 68.3102 81.2429H67.3202C67.3202 81.2429 68.9702 79.1504 68.4752 79.4233C67.9802 79.6962 63.9377 82.7895 63.9377 82.7895C63.9377 82.7895 63.5252 82.5165 62.9477 81.8797L63.8552 81.2429C63.8552 81.2429 64.4327 81.0609 65.3402 80.515C66.3302 79.9692 69.0527 77.2399 69.0527 77.2399V77.6038C69.0527 77.6038 69.7127 77.3308 69.9602 76.603C70.2077 76.2391 70.9502 74.4196 71.3627 73.5098ZM68.8877 65.1398C70.2077 64.412 73.1777 62.6835 73.4252 62.4105C73.6727 62.0466 73.5902 61.3188 73.5902 61.3188L73.1777 60.682C74.0027 60.5 74.4977 60.5 74.4977 60.5C74.4977 60.5 75.9002 63.0474 75.9002 63.3203C75.8177 63.5023 75.2402 63.6842 75.2402 63.6842L74.7452 62.9564L74.6627 63.5023L72.0227 64.9579C72.0227 64.7759 70.4552 64.8669 68.8877 65.1398ZM75.3227 65.6857H75.1577C75.1577 65.6857 75.7352 66.1406 75.5702 66.3226C75.4052 66.5045 74.6627 66.7774 74.6627 66.7774C74.6627 66.7774 75.6527 67.4143 75.4877 67.5053C75.3227 67.5053 70.1252 67.8692 68.7227 68.1421L69.7952 69.2338C69.7952 69.2338 74.5802 68.0511 75.9002 68.0511C77.2202 68.0511 78.1277 68.597 78.2102 68.3241C78.2927 68.1421 77.0552 67.4143 76.4777 67.2323C75.9002 67.0504 75.6527 66.8684 75.6527 66.8684C75.6527 66.8684 76.4777 66.8684 76.6427 66.8684C76.8077 66.7774 76.2302 65.7767 75.3227 65.6857ZM77.3852 69.5977C77.4677 70.3256 76.4777 70.7805 76.4777 70.7805C76.4777 70.7805 77.1377 71.1444 77.0552 71.2353C76.8902 71.3263 73.6727 71.8722 72.1877 71.8722C72.3527 72.2361 72.6002 72.509 72.6002 72.509C72.6002 72.509 75.9827 71.8722 77.7152 71.9632C79.4477 72.0541 80.2727 72.1451 80.1077 72.1451C79.9427 72.0541 79.4477 71.5992 78.7052 71.1444C77.9627 70.7804 77.6327 70.5985 77.6327 70.5985L79.2002 70.3256C79.2002 70.5985 78.6227 69.8707 77.3852 69.5977ZM78.5402 73.6008C78.7877 73.8737 79.0352 74.2376 78.9527 74.4196C78.8702 74.7835 78.2102 75.5113 78.2102 75.5113C78.2102 75.5113 74.8277 75.6023 74.4977 75.6932C74.3327 75.6932 74.0852 75.6932 73.8377 75.6023C73.7552 76.694 73.6727 77.8767 73.6727 77.8767C73.6727 77.8767 74.8277 76.4211 74.9927 76.4211C75.1577 76.3301 77.8802 76.2391 77.8802 76.2391L77.0552 77.3308L79.4477 76.0571L79.6127 73.8737C79.6952 73.9647 79.4477 73.6917 78.5402 73.6008ZM63.1952 69.0519L62.7827 69.6887C62.7827 69.6887 65.0102 73.7827 65.0927 74.6015C65.1752 75.4203 62.6177 79.7872 62.6177 79.7872L64.0202 80.515C64.0202 80.515 66.8252 77.0579 67.3202 76.2391C67.8152 75.5113 63.1952 69.0519 63.1952 69.0519Z" fill="#FA6F19"/>
<path d="M44.88 106.626H9.73502L8.33252 101.531L9.65252 101.258V86.7926L9.07502 86.7016L8.74502 81.7888H64.515H89.6775L90.9975 86.7016L89.6775 87.0655V101.531L90.1725 101.622L90.6675 106.626H76.56H61.4625H44.88Z" fill="#240347"/>
<path d="M14.7677 103.168V94.7985L17.6552 96.2542V103.168C17.5727 103.532 17.3252 103.805 16.9952 103.805H21.1202C20.7077 103.714 20.5427 103.532 20.3777 103.168V85.1549C20.5427 84.882 20.7077 84.609 21.1202 84.5181H11.3027C11.7152 84.7 11.8802 84.791 12.0452 85.1549V103.077C11.8802 103.441 11.7152 103.714 11.3027 103.714H15.4277C15.0977 103.714 14.8502 103.532 14.7677 103.168ZM22.4402 96.1632V103.259C22.3577 103.623 22.1102 103.896 21.7802 103.896H31.5152C31.1027 103.805 30.9377 103.623 30.7727 103.259V95.0714C28.5452 93.9797 32.0927 95.7083 25.2452 92.2511V86.9745H28.0502V91.0684C30.2777 92.1602 27.0602 90.5226 30.6902 92.4331V85.3369C30.8552 85.0639 31.0202 84.791 31.4327 84.7H21.6977C22.1102 84.791 22.2752 84.973 22.3577 85.3369V93.5248C23.3477 94.0707 22.6877 93.7068 27.8852 96.3451V101.622H24.9977V97.5278C24.0077 96.982 24.0077 96.982 24.0077 96.982C23.9252 96.891 23.5127 96.6181 22.4402 96.1632ZM63.8552 96.1632V103.259C63.7727 103.623 63.5252 103.896 63.1952 103.896H72.9302C72.5177 103.805 72.3527 103.623 72.1877 103.259V95.0714L71.5277 94.7985C71.3627 94.7075 72.2702 95.1624 66.5777 92.3421V87.0654H69.4652V91.1594C71.6927 92.2511 68.4752 90.6136 72.1052 92.5241V85.4278C72.2702 85.0639 72.4352 84.882 72.8477 84.791H63.0302C63.4427 84.882 63.6902 85.0639 63.6902 85.4278V93.6158L69.2177 96.4361V101.713H66.3302V97.6188C65.3402 97.073 65.3402 97.0729 65.3402 97.0729C65.3402 96.891 64.9277 96.6181 63.8552 96.1632ZM78.9527 85.2459V103.168C78.8702 103.532 78.6227 103.805 78.2927 103.805H82.4177C82.0052 103.714 81.8402 103.532 81.6752 103.168V87.1564L84.5627 88.703V103.168C84.4802 103.532 84.2327 103.805 83.9027 103.805H88.0277C87.6152 103.714 87.4502 103.532 87.2852 103.168V85.2459C87.4502 84.9729 87.6152 84.7 88.0277 84.609H83.9027C84.3152 84.7 84.4802 84.882 84.5627 85.2459V86.0647L81.6752 84.5181H78.2927C78.7052 84.609 78.9527 84.882 78.9527 85.2459ZM74.1677 85.2459V103.168C74.0852 103.532 73.8377 103.805 73.5077 103.805H77.6327C77.2202 103.714 77.0552 103.532 76.8902 103.168V86.7925V85.2459C77.0552 84.9729 77.2202 84.7 77.6327 84.609H73.5077C73.8377 84.7 74.1677 84.882 74.1677 85.2459ZM53.8727 96.0722V103.168C53.7902 103.532 53.5427 103.805 53.2127 103.805H62.9477C62.5352 103.714 62.3702 103.532 62.2052 103.168V94.9805L61.5452 94.7075C61.3802 94.6166 62.2877 95.0714 56.5952 92.2511V86.9745H59.4827V91.0684C61.7102 92.1602 58.4927 90.5226 62.1227 92.4331V85.3369C62.2877 84.973 62.4527 84.791 62.8652 84.7H53.1302C53.5427 84.791 53.7902 84.973 53.7902 85.3369V93.5248L59.3177 96.3451V101.622H56.4302V97.5278C55.4402 96.982 55.4402 96.982 55.4402 96.982C55.4402 96.891 55.0277 96.6181 53.8727 96.0722ZM43.5602 85.2459V103.168C43.3952 103.532 43.2302 103.805 42.8177 103.805H46.9427C46.5302 103.714 46.3652 103.532 46.2827 103.168V94.7985L49.1702 96.2542V103.168C49.0877 103.532 48.8402 103.805 48.5102 103.805H52.6352C52.2227 103.714 52.0577 103.532 51.8927 103.168V85.1549C52.0577 84.882 52.2227 84.609 52.6352 84.5181H42.8177C43.2302 84.609 43.5602 84.882 43.5602 85.2459ZM46.2827 92.0692V86.7925H49.1702V93.5248L46.2827 92.0692ZM33.2477 96.1632V103.259C33.1652 103.623 32.9177 103.896 32.5877 103.896H42.3227C41.9102 103.805 41.7452 103.623 41.5802 103.259V95.0714C39.3527 93.9797 42.9002 95.7083 36.0527 92.2511V86.9745H38.9402V91.0684C41.1677 92.1602 37.9502 90.5226 41.5802 92.4331V85.3369C41.7452 85.0639 41.9102 84.791 42.3227 84.7H32.5052C32.9177 84.791 33.0827 84.973 33.1652 85.3369V93.5248C34.1552 94.0707 33.4952 93.7068 38.6927 96.3451V101.622H35.8052V97.5278C34.8152 96.982 34.8152 96.982 34.8152 96.982C34.8152 96.891 34.3202 96.6181 33.2477 96.1632ZM14.7677 92.1602V86.8835H17.6552V93.6158L14.7677 92.1602Z" fill="white"/>
<path d="M18.8102 85.8827V102.532H19.1402V85.8827H18.8102ZM13.6127 85.8827H13.2827V102.532H13.6127V85.8827ZM23.5952 97.9827V102.441H23.9252V98.1647C23.9252 98.1647 23.8427 98.1647 23.8427 98.0737C23.7602 98.0737 23.6777 98.0737 23.5952 97.9827ZM29.1227 102.441H29.4527V95.6173C29.2877 95.5263 29.2877 95.5263 29.1227 95.4354V102.441ZM23.9252 92.888V85.9737H23.5952V92.797C23.6777 92.706 23.7602 92.797 23.9252 92.888ZM29.1227 85.8827V90.1587C29.2052 90.2496 29.2877 90.2496 29.2877 90.3406C29.2877 90.3406 29.3702 90.3406 29.3702 90.4316V85.9737L29.1227 85.8827ZM65.0102 97.9827V102.441H65.3402V98.1647C65.3402 98.1647 65.2577 98.1647 65.2577 98.0737H65.1752C65.0927 98.0737 65.0102 98.0737 65.0102 97.9827ZM70.5377 102.441H70.9502V95.6173C70.8677 95.5263 70.7852 95.5263 70.6202 95.4354V102.441H70.5377ZM65.3402 92.888V85.9737H65.0102V92.797L65.3402 92.888ZM70.5377 85.8827V90.1587C70.6202 90.2496 70.7027 90.2496 70.7027 90.3406C70.7027 90.3406 70.7852 90.3406 70.7852 90.4316V85.9737L70.5377 85.8827ZM80.1902 102.441H80.5202V85.7917H80.1902V102.441ZM85.7177 87.9752V102.532H86.0477V85.7917H85.7177V87.9752ZM75.3227 102.441H75.6527V85.7917H75.3227V102.441ZM55.0277 97.9827V102.441H55.3577V98.1647C55.3577 98.1647 55.2752 98.1647 55.2752 98.0737V98.0737C55.1927 98.0737 55.1102 97.9827 55.0277 97.9827ZM60.6377 102.441H60.9677V95.6173C60.8027 95.5263 60.8027 95.5263 60.6377 95.4354V102.441ZM55.4402 92.797V85.8827H55.1102V92.706L55.4402 92.797ZM60.6377 85.7917V90.0677C60.7202 90.1587 60.8027 90.1587 60.8027 90.2496C60.8027 90.2496 60.8852 90.2496 60.8852 90.3406V85.8827L60.6377 85.7917ZM45.1277 92.888V85.9737H44.7977V102.623H45.1277V92.888ZM50.3252 95.5263V102.441H50.6552V85.7917H50.3252V95.5263ZM34.4027 97.9827V102.441H34.7327V98.1647C34.7327 98.1647 34.6502 98.1647 34.6502 98.0737C34.4852 98.0737 34.4852 97.9827 34.4027 97.9827ZM39.9302 102.441H40.2602V95.6173C40.0952 95.5263 40.0952 95.5263 39.9302 95.4354V102.441ZM34.7327 92.888V85.9737H34.4027V92.797C34.4852 92.706 34.6502 92.797 34.7327 92.888ZM39.9302 85.8827V90.1587C40.0127 90.2496 40.0952 90.2496 40.0952 90.3406C40.0952 90.3406 40.1777 90.3406 40.1777 90.4316V85.9737L39.9302 85.8827Z" fill="#02344D"/>
<path d="M14.7678 103.168V94.7985L13.9428 94.3436V103.077C14.0253 103.441 14.2728 103.714 14.6028 103.714H15.4278C15.0978 103.714 14.8503 103.532 14.7678 103.168ZM20.2128 103.805H20.8728H20.9553C20.6253 103.714 20.3778 103.532 20.2953 103.168V85.3369C20.3778 85.0639 20.6253 84.791 20.9553 84.7H20.8728H11.3853H20.2953C19.8828 84.791 19.7178 84.973 19.5528 85.3369V103.259C19.5528 103.532 19.8003 103.714 20.2128 103.805ZM21.0378 84.5181H20.8728H21.0378ZM22.4403 96.1632V96.6181C22.9353 96.8 23.1828 96.982 23.3478 97.0729C23.2653 97.0729 23.3478 97.073 24.3378 97.6188V101.713H27.2253H25.1628V97.6188C24.1728 97.073 24.1728 97.0729 24.1728 97.0729C23.9253 96.891 23.5128 96.6181 22.4403 96.1632ZM30.5253 103.805H31.3503C30.9378 103.714 30.7728 103.532 30.6078 103.168V94.9805C28.3803 93.8887 31.9278 95.6173 25.0803 92.1602V86.8835H24.2553V92.1602C31.1853 95.6173 27.6378 93.7978 29.7828 94.9805V103.168C29.9478 103.532 30.1128 103.714 30.5253 103.805ZM29.7828 91.8872C29.9478 92.0692 30.2778 92.0692 30.6078 92.3421V85.2459C30.7728 84.9729 30.9378 84.7 31.3503 84.609H21.6978H30.5253C30.1128 84.791 29.9478 84.9729 29.7828 85.2459V91.8872ZM63.8553 96.1632V96.6181C64.3503 96.8 64.5978 96.982 64.7628 97.0729C64.6803 97.0729 64.7627 97.073 65.7527 97.6188V101.713H68.6402H66.5777V97.6188C65.5877 97.073 65.5878 97.0729 65.5878 97.0729C65.3403 96.891 64.9278 96.6181 63.8553 96.1632ZM72.0228 103.805H72.6827C72.7652 103.805 72.7652 103.805 72.7652 103.805C72.4352 103.714 72.1878 103.532 72.1053 103.168V94.9805L71.4452 94.7075C71.2802 94.6166 72.1877 95.0714 66.4952 92.2511V86.9745H65.5878V92.2511C71.1978 95.1624 70.2903 94.7075 70.5378 94.7075L71.1978 94.9805V103.168C71.3628 103.532 71.6103 103.714 72.0228 103.805ZM71.2803 91.8872C71.4453 92.0692 71.7753 92.0692 72.1053 92.3421V85.2459C72.1878 84.9729 72.4352 84.7 72.7652 84.609H72.6827H72.8478H72.0228H63.1953H72.0228C71.6103 84.7 71.4453 84.882 71.2803 85.2459V91.8872V91.8872ZM81.5928 103.805H82.4178C82.0053 103.714 81.8403 103.532 81.6753 103.168V87.1564L80.8503 86.7015V103.077C80.9328 103.532 81.1803 103.714 81.5928 103.805ZM87.1202 103.805H87.9452C87.5327 103.714 87.3677 103.532 87.2027 103.168V85.2459C87.3677 84.9729 87.5327 84.7 87.9452 84.609H87.1202H83.8202H87.1202C86.7077 84.791 86.5427 84.882 86.3777 85.2459V103.168C86.4602 103.532 86.7902 103.714 87.1202 103.805ZM84.5628 86.0647L81.6753 84.5181H78.3753H80.9327L84.6452 86.4286V86.0647H84.5628ZM76.8077 103.805H77.4678H77.5503C77.2203 103.714 76.9727 103.532 76.8902 103.168V86.7925V85.2459C76.9727 84.9729 77.2203 84.7 77.5503 84.609H77.4678H77.6327H76.8077H73.5077H76.8077C76.3952 84.7 76.2302 84.882 76.0652 85.2459V86.7925V103.168C76.1477 103.532 76.3952 103.714 76.8077 103.805ZM53.8728 96.0722V96.5271C54.3678 96.709 54.6153 96.891 54.7803 96.982C54.6978 96.982 54.7803 96.982 55.7703 97.5278V101.622H58.6578H56.5953V97.5278C55.6053 96.982 55.6053 96.982 55.6053 96.982C55.4403 96.891 55.0278 96.6181 53.8728 96.0722ZM62.0403 103.805H62.3703C62.4528 103.805 62.5353 103.714 62.5353 103.714C62.3703 103.532 62.1228 103.441 62.0403 103.077V94.8895L61.3803 94.6166C61.2153 94.5256 62.1228 94.9805 56.4303 92.1602V86.8835H55.6053V92.1602C61.2153 95.0715 60.3078 94.6166 60.5553 94.6166L61.2153 94.8895V103.077C61.4628 103.532 61.6278 103.714 62.0403 103.805ZM61.2978 91.8872C61.4628 92.0692 61.7928 92.0692 62.1228 92.3421V85.2459C62.2053 85.0639 62.2878 84.882 62.5353 84.7C62.4528 84.609 62.2878 84.609 62.2053 84.609H62.7828H62.8653H62.0403H53.1303H62.0403C61.6278 84.7 61.4628 84.882 61.2978 85.2459C61.2978 85.3369 61.2978 91.8872 61.2978 91.8872ZM46.1178 103.805H46.9428C46.5303 103.714 46.3653 103.532 46.2828 103.168V94.7985L45.4578 94.3436V103.077C45.5403 103.532 45.7878 103.714 46.1178 103.805ZM51.7278 103.805H52.3053C52.3878 103.805 52.3878 103.805 52.3878 103.805C52.0578 103.714 51.8103 103.532 51.7278 103.168V85.3369C51.8103 85.0639 52.0578 84.791 52.3878 84.7H52.3053H52.4703H42.8178H51.7278C51.3153 84.882 51.1503 84.973 50.9853 85.3369V103.259C51.0678 103.532 51.3153 103.714 51.7278 103.805ZM46.2828 92.0692V86.7925H45.4578V92.0692L49.1703 93.9797V93.5248L46.2828 92.0692ZM33.2478 96.1632V96.6181C33.7428 96.8 33.9903 96.982 34.1553 97.0729C34.0728 97.0729 34.1553 97.073 35.1453 97.6188V101.713H37.9503H35.8878V97.6188C34.8978 97.073 34.8978 97.0729 34.8978 97.0729C34.8153 96.891 34.3203 96.6181 33.2478 96.1632ZM41.4153 103.805H42.2403H42.0753C41.7453 103.714 41.4978 103.532 41.4153 103.168V94.9805C39.1878 93.8887 42.7353 95.6173 35.8878 92.1602V86.8835H35.0628V92.1602C41.9928 95.6173 38.4453 93.7978 40.5903 94.9805V103.168C40.7553 103.532 41.0028 103.714 41.4153 103.805ZM40.6728 91.8872C40.8378 92.0692 41.1678 92.0692 41.4978 92.3421V85.2459C41.5803 84.9729 41.8278 84.7 42.1578 84.609H42.0753H41.4153H32.5053H41.4153C41.0028 84.7 40.8378 84.882 40.6728 85.2459C40.6728 85.3369 40.6728 91.8872 40.6728 91.8872ZM14.7678 92.1602V86.8835H13.9428V92.1602L17.6553 94.0707V93.6158L14.7678 92.1602Z" fill="#A9C0DE"/>
</g>
<defs>
<linearGradient id="paint0_linear_97_2900" x1="48.7729" y1="7.69566" x2="51.3855" y2="109.157" gradientUnits="userSpaceOnUse">
<stop stop-color="#FDE32B"/>
<stop offset="1" stop-color="#EE563C"/>
</linearGradient>
<clipPath id="clip0_97_2900">
<rect width="99" height="121" fill="white"/>
</clipPath>
</defs>
</svg>
