<svg width="68" height="80" viewBox="0 0 68 80" fill="none" xmlns="http://www.w3.org/2000/svg">
<g clip-path="url(#clip0_98_3164)">
<path d="M33.6717 79.85C28.1848 77.25 23.3545 73.45 19.3214 68.55L6.00276 70.05L7.87862 57.25L0 44.55L0.984828 44.15C3.70483 43 6.51862 42.25 7.22207 42.05C4.97103 32.1 5.01793 24.35 5.01793 24.05V23.35L5.67448 23.15C9.5669 22.05 14.8193 19.85 21.3379 16.5C21.4786 16.2 21.6193 15.95 21.76 15.75C21.76 15.7 21.76 15.65 21.76 15.6C21.76 15.45 21.76 15.25 21.76 15.1C21.76 14.75 21.8069 14.35 21.8538 13.95C21.9476 13.2 22.1352 12.5 22.3228 11.8C22.4166 11.45 22.5572 11.15 22.651 10.9C22.7917 10.55 22.9324 10.25 23.12 9.95C23.2607 9.65 23.4483 9.4 23.6359 9.15C24.1986 8.4 24.8083 7.9 25.2772 7.6C25.9807 4.7 27.9503 3.5 29.0759 3.05C29.4041 2.6 29.7793 2.15 30.2014 1.75C30.5297 1.45 30.9048 1.2 31.3269 1C31.5614 0.85 31.7959 0.75 32.0303 0.65C32.4055 0.5 32.7338 0.4 33.0621 0.3L34 0L34.9848 0.25C36.0634 0.55 37.8455 1.3 38.9241 2.95C40.0497 3.4 42.0193 4.6 42.7228 7.5C43.4262 7.95 44.5517 8.9 45.349 10.8C45.7241 11.7 46.0055 12.75 46.1462 13.85C46.1931 14.25 46.24 14.65 46.24 15C46.24 15.2 46.24 15.35 46.24 15.5C46.24 15.55 46.24 15.6 46.24 15.65C46.3807 15.85 46.5214 16.1 46.6621 16.4C53.1807 19.75 58.4331 21.95 62.3255 23.05L62.9821 23.25V23.95C62.9821 24.3 63.029 32 60.7779 41.95C61.4814 42.15 64.2952 42.9 67.0152 44.05L68 44.45L60.1214 57.15L61.9972 69.95L48.6786 68.45C44.6455 73.35 39.8152 77.15 34.3283 79.75L34 79.9L33.6717 79.85Z" fill="#00E7FF"/>
<path d="M59.6054 56.45L66.6868 45C63.6854 43.75 60.4495 42.9 60.4495 42.9C60.4495 42.9 60.1682 42.85 59.7461 42.75C62.2316 32.35 62.1378 24.0499 62.1378 24.0499C57.4482 22.7499 51.3516 19.95 46.0523 17.2C45.8178 16.7 45.5833 16.3 45.3957 16C45.3957 15.85 45.3957 15.7 45.3957 15.55C45.3957 15.4 45.3957 15.25 45.3957 15.05C45.3957 14.7 45.3488 14.35 45.302 13.95C45.1613 12.85 44.8799 11.95 44.5516 11.15C43.8013 9.44995 42.7695 8.49995 41.9254 8.09995C41.3626 5.04995 39.2992 3.99995 38.3144 3.69995C37.0951 1.54995 34.4688 0.999951 33.9999 0.949951C33.9999 0.949951 33.9999 0.949951 33.953 0.949951H33.9061C33.8592 0.949951 33.8592 0.949951 33.8123 0.949951C33.5309 0.999951 33.0151 1.14995 32.3585 1.39995C32.1709 1.49995 31.9364 1.59995 31.702 1.69995C31.3737 1.89995 31.0454 2.09995 30.7171 2.34995C30.2951 2.69995 29.9199 3.14995 29.5916 3.64995C28.6068 3.99995 26.5433 5.04995 25.9806 8.04995C25.4647 8.29995 24.8551 8.79995 24.2454 9.54995C24.1047 9.74995 23.9171 9.99995 23.7764 10.25C23.6357 10.5 23.4951 10.8 23.3544 11.1C23.2606 11.35 23.1668 11.65 23.073 11.9C22.8854 12.5 22.7447 13.15 22.6509 13.85C22.604 14.25 22.5571 14.6 22.5571 14.95C22.5571 15.1 22.5571 15.25 22.5571 15.45C22.5571 15.6 22.5571 15.75 22.5571 15.9C22.3695 16.2 22.1351 16.6 21.9006 17.1C16.6482 19.9 10.5516 22.7 5.86195 24C5.86195 24 5.76816 32.3 8.25368 42.7L7.55023 42.8499C7.55023 42.8499 4.31437 43.7 1.31299 44.95L8.44126 56.4L8.81644 57L7.03437 69L19.6495 67.55C23.3544 72.15 28.044 76.2 33.9999 78.95C39.9557 76.15 44.6454 72.15 48.3033 67.55L60.9654 69L59.2302 57.0499L59.6054 56.45Z" fill="#1B1464"/>
<path d="M7.50355 53.45L7.22217 54.5L9.42631 58.0999L13.2249 55.3499L12.287 53.7L7.50355 53.45Z" fill="black"/>
<path d="M60.4968 53.45L60.7782 54.5L58.574 58.0999L54.7754 55.3499L55.7133 53.7L60.4968 53.45Z" fill="black"/>
<path d="M6.9873 24.65C6.9873 24.65 22.3225 18.6 34.1404 12C34.1404 12 55.197 23.15 60.9652 24.65C60.9652 24.65 63.5445 60.5 33.9528 77.45C33.9528 77.45 9.09765 67.1 6.9873 24.65Z" fill="#357584"/>
<path d="M55.5724 55.35C62.2786 40 62.1379 24.05 62.1379 24.05C51.5393 21.1 34 10.5 34 10.5C34 10.5 16.4607 21.05 5.86204 24C5.86204 24 5.72135 39.95 12.4276 55.3L8.86342 56.4L7.03446 69L19.6496 67.55C23.3545 72.15 28.0441 76.2 34 78.95C39.9558 76.15 44.6455 72.15 48.3034 67.55L60.9655 69L59.1365 56.45L55.5724 55.35ZM10.3641 36.3L9.05101 36.4C9.05101 36.4 7.8786 29.3 8.11308 25.5C8.11308 25.5 24.0579 19.55 32.8745 13.9C33.2496 13.65 33.6717 13.4 34 13.15C34.3751 13.4 34.7503 13.65 35.1255 13.9C43.942 19.55 59.8869 25.5 59.8869 25.5C60.1214 29.3 58.9489 36.4 58.9489 36.4L57.6358 36.3C58.7145 32.25 58.7145 26.35 58.7145 26.35C49.1476 23.35 36.3448 15.95 34.3752 14.8C34.3283 14.75 34.2345 14.75 34.2345 14.7L34.1407 14.65L34 14.55L33.8593 14.65L33.7655 14.75C33.7186 14.75 33.6717 14.8 33.6248 14.85C31.6551 16 18.8524 23.4 9.28549 26.4C9.28549 26.4 9.33239 32.25 10.3641 36.3ZM9.1917 66.7L10.2703 58.1L12.1462 57.9L11.4896 64.55L17.4924 66L9.1917 66.7ZM34 75.9C34 75.9 27.2469 73 22.9324 68.05C23.1669 68.2 30.342 72.55 34 73.6C37.6579 72.6 44.8331 68.2 45.0676 68.05C40.7531 72.95 34 75.9 34 75.9ZM34 60.95C24.1517 60.95 13.5531 62.6 13.5531 62.6L14.1158 56C26.3089 54.7 34 54.7 34 54.7C34 54.7 41.691 54.7 53.8841 56L54.4469 62.6C54.4469 62.6 43.8483 60.95 34 60.95ZM50.5545 66L56.5572 64.55L55.9007 57.9L57.7765 58.1L58.8552 66.7L50.5545 66Z" fill="black"/>
<path d="M33.9997 65L34.75 66.7L36.4852 67L35.2659 68.3L35.5473 70.15L33.9997 69.3L32.4521 70.15L32.7335 68.3L31.5142 67L33.2493 66.7L33.9997 65Z" fill="#E6E6E6"/>
<path d="M48.5845 66.7001C47.3652 65.9001 40.1432 61.4001 33.9997 61.4001C27.8563 61.4001 20.6342 65.9501 19.4149 66.7001L8.06592 68.0001L9.6135 57.2001L13.1776 56.0501L13.3183 54.9501C15.1942 54.5501 21.9473 53.4001 33.9997 53.4001C46.0521 53.4001 52.8052 54.6001 54.6811 54.9501L54.8218 56.0501L58.3859 57.2001L59.9335 68.0001L48.5845 66.7001Z" fill="#357584"/>
<path d="M59.1362 56.4501L55.5721 55.35L55.4314 54.2001C55.4314 54.2001 48.4907 51.8 33.859 51.8C19.1804 51.8 12.568 54.2001 12.568 54.2001L12.4273 55.35L8.86314 56.4501L7.03418 69L19.6494 67.5501C19.6494 67.5501 27.528 62.25 33.9997 62.25C40.4245 62.25 48.35 67.5501 48.35 67.5501L60.9652 69L59.1362 56.4501ZM9.19142 66.7L10.27 58.1L12.1459 57.9001L11.4894 64.5501L17.4921 66L9.19142 66.7ZM33.9997 60.6C24.1514 60.6 13.5528 62.55 13.5528 62.55L14.1156 55.9501C25.4176 54.0001 28.9818 54.05 33.9997 54.1C38.9707 54.15 41.6438 54.2001 53.8838 55.9501L54.4466 62.55C54.4466 62.6 43.848 60.6 33.9997 60.6ZM50.5542 66L56.5569 64.5501L55.9004 57.9001L57.7762 58.1L58.8549 66.7L50.5542 66Z" fill="black"/>
<path d="M23.823 57.1501C23.823 57.0001 23.7762 56.8001 23.7762 56.6501C22.8851 56.7501 21.9472 56.8501 21.0562 56.9501C21.1499 57.7001 21.1968 58.4501 21.2906 59.1501C22.1817 59.0501 23.0727 58.9501 23.9637 58.8501C23.9637 58.7001 23.9168 58.5001 23.9168 58.3501C23.2134 58.4001 22.5099 58.5001 21.8065 58.5501C21.8065 58.4001 21.7596 58.3001 21.7596 58.1501C22.3693 58.1001 22.9789 58.0001 23.5886 57.9501C23.5886 57.8001 23.5417 57.6501 23.5417 57.4501C22.932 57.5001 22.3224 57.5501 21.7127 57.6501C21.7127 57.5501 21.7127 57.4001 21.6658 57.3001C22.4162 57.3001 23.1196 57.2001 23.823 57.1501Z" fill="white"/>
<path d="M28.2313 57.4003C28.0906 57.2503 27.903 57.2003 27.6685 57.2003C27.5278 57.2003 27.2933 57.2003 26.965 57.2503C26.6368 57.2503 26.4492 57.3003 26.2616 57.3003C26.2147 57.3003 26.1678 57.3003 26.1209 57.2503C26.074 57.2003 26.074 57.2003 26.074 57.1503C26.074 57.1003 26.074 57.0503 26.1209 57.0503C26.1678 57.0003 26.2147 57.0003 26.2616 57.0003C26.6837 56.9503 27.1057 56.9503 27.5278 56.9003C27.5747 56.9003 27.6216 56.9003 27.6685 56.9503C27.7154 57.0003 27.7154 57.0003 27.7154 57.0503C27.903 57.0503 28.0906 57.0503 28.325 57.0003C28.325 56.8003 28.2313 56.6503 28.0906 56.5503C27.9499 56.4503 27.7623 56.3503 27.5747 56.4003C27.1057 56.4503 26.6368 56.4503 26.1678 56.5003C25.9802 56.5003 25.7926 56.6003 25.6519 56.7503C25.5113 56.9003 25.4644 57.0503 25.4644 57.2503C25.4644 57.4503 25.5581 57.6003 25.6988 57.7003C25.8395 57.8003 26.0271 57.8503 26.2147 57.8503C26.6837 57.8003 27.1526 57.8003 27.6216 57.7503C27.6685 57.7503 27.7154 57.7503 27.7623 57.8003C27.8092 57.8503 27.8092 57.9003 27.8092 57.9503C27.8092 58.0003 27.8092 58.0503 27.7623 58.1003C27.7154 58.1503 27.6685 58.1503 27.6216 58.1503C27.1526 58.2003 26.7306 58.2003 26.2616 58.2503C26.2147 58.2503 26.1678 58.2503 26.1209 58.2003C26.074 58.1503 26.074 58.1003 26.0271 58.0503C25.8395 58.0503 25.6519 58.1003 25.4644 58.1003C25.4644 58.3003 25.5581 58.4503 25.6988 58.5503C25.8395 58.6503 26.0271 58.7503 26.2147 58.7003C26.6837 58.6503 27.1995 58.6503 27.6685 58.6003C27.8561 58.6003 28.0437 58.5003 28.1844 58.3503C28.325 58.2003 28.3719 58.0503 28.3719 57.8503C28.4657 57.6503 28.3719 57.5003 28.2313 57.4003Z" fill="white"/>
<path d="M32.9208 56.5501C32.827 56.4501 32.7332 56.3501 32.5925 56.2501C32.4518 56.2001 32.3111 56.1501 32.1704 56.1501C31.4201 56.1501 30.7167 56.2001 29.9663 56.2001C29.9663 56.9501 30.0132 57.7001 30.0132 58.4501C30.2008 58.4501 30.3884 58.4501 30.6229 58.4501C30.6229 57.8501 30.576 57.3001 30.576 56.7001C31.0918 56.7001 31.6077 56.6501 32.1235 56.6501C32.2173 56.6501 32.2642 56.6501 32.358 56.7001C32.4049 56.7501 32.4518 56.8001 32.4518 56.9001C32.4518 57.0001 32.4049 57.0501 32.358 57.1001C32.3111 57.1501 32.2173 57.2001 32.1704 57.2001C31.8422 57.2001 31.5139 57.2001 31.1856 57.2001C31.1856 57.3501 31.1856 57.5501 31.1856 57.7001C31.5139 57.7001 31.8422 57.7001 32.2173 57.7001C32.358 57.7001 32.4987 57.6501 32.6394 57.6001C32.7801 57.5501 32.8739 57.4501 32.9208 57.3001C33.0146 57.2001 33.0146 57.0501 33.0146 56.9001C33.0615 56.8001 33.0146 56.7001 32.9208 56.5501Z" fill="white"/>
<path d="M37.6107 56.4502C37.47 56.3002 37.3294 56.2502 37.0949 56.2502C36.5321 56.2502 35.9225 56.2002 35.3597 56.2002C35.1721 56.2002 34.9845 56.2502 34.8438 56.4002C34.7031 56.5502 34.6562 56.7002 34.6562 56.8502C34.6562 57.1502 34.6562 57.4502 34.6562 57.8002C34.6562 58.0002 34.7031 58.1502 34.8438 58.2502C34.9845 58.4002 35.1252 58.4502 35.3597 58.4502C35.9225 58.4502 36.4852 58.4502 37.048 58.5002C37.2356 58.5002 37.4231 58.4502 37.5638 58.3002C37.7045 58.2002 37.7983 58.0502 37.7983 57.8502C37.7983 57.5502 37.7983 57.2502 37.8452 56.9002C37.7983 56.7002 37.7514 56.5502 37.6107 56.4502ZM37.1887 57.7002C37.1887 57.7502 37.1418 57.8502 37.0949 57.9002C37.048 57.9502 36.9542 57.9502 36.9073 57.9502C36.4383 57.9502 36.0163 57.9502 35.5473 57.9002C35.4535 57.9002 35.4066 57.8502 35.3597 57.8002C35.3128 57.7502 35.2659 57.7002 35.2659 57.6002C35.2659 57.3502 35.2659 57.1002 35.2659 56.9002C35.2659 56.8002 35.3128 56.7502 35.3597 56.7002C35.4066 56.6502 35.5004 56.6002 35.5473 56.6002C36.0163 56.6002 36.4852 56.6002 36.9073 56.6502C37.0011 56.6502 37.048 56.7002 37.0949 56.7502C37.1418 56.8002 37.1887 56.8502 37.1887 56.9502C37.1887 57.2002 37.1887 57.4502 37.1887 57.7002Z" fill="white"/>
<path d="M41.6436 57.85C41.8312 57.85 42.0188 57.8001 42.1595 57.6501C42.3001 57.5501 42.3939 57.4001 42.3939 57.2001C42.3939 57.0001 42.347 56.8501 42.2064 56.7001C42.0657 56.5501 41.8781 56.4501 41.6905 56.4501C40.987 56.4001 40.2367 56.35 39.5332 56.3C39.4864 57.05 39.4863 57.8 39.4395 58.55C39.627 58.55 39.8146 58.55 40.0491 58.6C40.096 58 40.096 57.45 40.1429 56.85C40.6588 56.9 41.1277 56.9001 41.6436 56.9501C41.6905 56.9501 41.7843 57 41.8312 57C41.8781 57.05 41.8781 57.1001 41.8781 57.1501C41.8781 57.2001 41.8312 57.25 41.7843 57.3C41.7374 57.35 41.6905 57.35 41.5967 57.35C41.2684 57.35 40.9401 57.3 40.6588 57.3C40.6588 57.45 40.6588 57.65 40.6119 57.8C40.7526 57.8 40.8932 57.8 41.0808 57.85C41.2684 58.15 41.5029 58.4001 41.6905 58.7001C41.925 58.7001 42.1595 58.75 42.3939 58.75C42.0657 58.45 41.8312 58.15 41.6436 57.85Z" fill="white"/>
<path d="M44.0357 56.6501C44.0357 56.8001 43.9888 57.0001 43.9888 57.1501C44.3639 57.2001 44.7391 57.2001 45.1143 57.2501C45.0674 57.8501 45.0205 58.4001 44.9736 59.0001C45.1612 59.0001 45.3488 59.0501 45.5832 59.0501C45.6301 58.5001 45.677 57.9001 45.7239 57.3501C46.0991 57.4001 46.4743 57.4501 46.8495 57.5001C46.8495 57.3501 46.8964 57.1501 46.8964 57.0001C45.9584 56.8501 45.0205 56.7501 44.0357 56.6501Z" fill="white"/>
<path d="M16.7888 57.75L13.1309 58.3L13.0371 57.35L16.8826 56.8L16.7888 57.75Z" fill="black"/>
<path d="M16.7888 59.3501L13.1309 59.8501L13.0371 58.9001L16.8826 58.3501L16.7888 59.3501Z" fill="black"/>
<path d="M16.7888 60.9001L13.1309 61.4001L13.0371 60.4501L16.8826 59.9001L16.7888 60.9001Z" fill="black"/>
<path d="M51.211 57.75L54.8689 58.3L54.9627 57.35L51.1172 56.8L51.211 57.75Z" fill="black"/>
<path d="M51.211 59.3501L54.8689 59.8501L54.9627 58.9001L51.1172 58.3501L51.211 59.3501Z" fill="black"/>
<path d="M51.211 60.9001L54.8689 61.4001L54.9627 60.4501L51.1172 59.9001L51.211 60.9001Z" fill="black"/>
<path d="M34 62.1501C25.371 62.2001 19.2275 63.8501 19.2275 63.8501C24.2455 62.9501 29.4041 62.7001 34 62.7001C38.5958 62.6501 43.7544 62.9501 48.7724 63.8501C48.7724 63.8001 42.6289 62.1501 34 62.1501Z" fill="#00E7FF"/>
<path d="M66.6868 45C63.6854 43.75 60.4495 42.9001 60.4495 42.9001C60.4495 42.9001 55.0095 41.55 52.1957 41.3C52.0081 41.25 51.8674 41.2501 51.6799 41.2001L51.2578 41.1501L50.6012 41.05L49.9916 40.9501L49.5695 40.9001C47.8343 40.6501 46.0992 40.45 44.364 40.3V40.25L42.8164 40.1501L42.0192 40.1H41.8785C40.9874 40.05 40.1433 40.0001 39.2523 39.9501H39.0647H38.3143H37.9392H37.3295C36.5792 39.9501 35.7819 39.9001 35.0316 39.9001H33.3433V40.2001C32.3585 39.9501 31.3737 39.8 30.4826 39.8C30.3888 39.8 30.295 39.8 30.2012 39.8C29.0757 39.85 28.2316 40.05 27.5281 40.5C27.0123 40.8 26.3088 41.45 25.8868 42.6C25.793 42.3 25.7461 42.0001 25.6523 41.7001L25.2771 40.25L23.8702 40.35C22.4633 40.45 21.0564 40.65 19.6964 40.8L18.2895 40.85L18.1488 42.35C18.1488 42.45 18.1488 42.5 18.1488 42.6L17.9143 40.9001L16.2261 41.1501C15.4757 41.2501 14.6785 41.4 13.9281 41.55L13.2247 41.7001L12.7557 41.8L12.2868 41.9001L11.5833 42.05C10.833 42.2 10.0826 42.35 9.28538 42.55L7.5971 42.9501C7.5971 42.9501 4.36124 43.8 1.35986 45.05L8.48814 56.5L9.94193 55L11.6302 54.6C12.3337 54.45 12.9902 54.3001 13.6937 54.1501L14.7723 53.9501L15.8509 53.75C16.5543 53.6 17.2578 53.5001 17.9612 53.4001L18.7585 53.25L19.5557 53.1501C20.2592 53.0501 20.9626 52.95 21.6661 52.85L22.9323 52.7001L24.2454 52.55C24.9488 52.5 25.6523 52.4 26.3557 52.35L28.4192 52.2001L28.3254 51.9001C28.935 52.1501 29.6385 52.3 30.4826 52.3C30.5764 52.3 30.6702 52.3 30.764 52.3C31.5143 52.3 32.3585 52.1501 33.2964 51.9501V52.1H34.9847C35.6881 52.1 36.3916 52.1001 37.095 52.1501L37.8923 52.2001L38.7833 52.25C39.5805 52.3 40.3778 52.3501 41.175 52.4001L42.0192 52.4501L42.8633 52.5C44.6454 52.65 46.3805 52.85 48.1626 53.1L49.1474 53.25L50.0854 53.4001C50.7888 53.5001 51.4454 53.65 52.1488 53.75L52.9461 53.9001L53.7433 54.05C54.4937 54.2 55.244 54.35 55.9943 54.55L58.2454 55.05V55L59.6054 56.4001L66.6868 45Z" fill="black"/>
<path d="M33.9997 52.1501C23.2604 52.2001 15.5693 53.8501 15.5693 53.8501C21.8535 52.9501 28.2783 52.7001 33.9997 52.7001C39.7211 52.6501 46.1459 52.9501 52.43 53.8501C52.43 53.8001 44.739 52.1501 33.9997 52.1501Z" fill="#E6E6E6"/>
<path d="M58.2922 40.35C57.7294 41.15 55.2908 41.7001 53.837 41.9501C52.3832 42.2001 50.9294 41.95 49.757 42.3C48.6315 42.6 45.8646 43.2 44.9736 43.05C44.1294 42.9 43.6136 42.6 43.6136 42.6C43.6136 42.6 41.1749 42.9 40.6122 42.8C40.0494 42.7 33.9529 42.8 33.9529 42.8C33.9529 42.8 27.9032 42.7 27.2936 42.8C26.7308 42.9 24.2922 42.6 24.2922 42.6C24.2922 42.6 23.7763 42.9 22.9322 43.05C22.088 43.2 19.3211 42.6 18.1487 42.3C17.0232 42 15.5694 42.2001 14.0687 41.9501C12.6149 41.7001 10.1763 41.15 9.61355 40.35C9.05079 39.55 8.53493 37 8.76941 35.6C9.0039 34.2 10.9736 30.85 11.2549 30.25C11.5363 29.65 12.0522 28.8001 12.6149 27.4501C12.9901 26.5001 14.1156 25.7 14.7722 25.3C14.7722 24.9 14.8191 24.5001 14.9129 24.2001C15.4756 22.2501 20.7749 20.9 20.7749 20.9C20.9156 18.8 21.9473 16.95 22.5101 16.05C22.4632 15.5 22.5101 14.85 22.6039 14.05C23.0729 10.55 24.7611 8.80005 25.9804 8.20005C26.5432 5.15005 28.6067 4.10005 29.5915 3.80005C30.8108 1.65005 33.437 1.10005 33.906 1.05005C33.906 1.05005 33.906 1.05005 33.9529 1.05005C33.9998 1.05005 33.9998 1.05005 33.9998 1.05005C34.4687 1.15005 37.0949 1.70005 38.3142 3.80005C39.2991 4.15005 41.3625 5.20005 41.9253 8.20005C43.1446 8.75005 44.8329 10.5 45.3018 14C45.3956 14.75 45.4425 15.45 45.3956 16C45.9584 16.9 46.9901 18.7501 47.1308 20.85C47.1308 20.85 52.4301 22.2 52.9929 24.15C53.0867 24.5 53.1336 24.85 53.1336 25.25C53.7901 25.65 54.9156 26.45 55.2908 27.4C55.8067 28.75 56.3225 29.6501 56.6039 30.2001C56.8853 30.7501 58.8549 34.15 59.0894 35.55C59.3708 36.95 58.9018 39.55 58.2922 40.35Z" fill="#357584"/>
<path d="M33.8592 11.6001C33.8592 11.6001 32.2178 14.7501 31.4206 15.5001C30.6234 16.3001 27.8096 18.8501 28.1378 20.5501C28.4661 22.2501 29.873 26.3001 30.0137 26.8001C30.1544 27.3001 33.8592 29.7501 33.8592 29.7501C33.8592 29.7501 37.6109 28.0501 38.0799 26.7001C38.5958 25.3501 40.0027 20.5501 40.0027 20.5501C40.0027 20.5501 38.8771 17.1501 37.7985 16.4001C36.7199 15.6501 33.8592 11.6001 33.8592 11.6001Z" fill="#38484C"/>
<path d="M29.2633 28.6C29.2633 28.6 26.4026 26.85 25.9805 25.25C25.5585 23.6 26.684 16.2 26.9185 15.55C27.1998 14.9 28.1378 12.2 29.3102 11.6C30.4826 11 32.9212 10.25 32.9212 10.25C32.9212 10.25 33.484 11.3 33.1088 12.6C32.7336 13.9 31.3736 15.4 30.0136 16.55C28.7005 17.75 27.4812 19.9 28.3253 21.7C29.1226 23.5 29.3102 23.7 29.404 24.85C29.5447 26 29.2633 28.6 29.2633 28.6Z" fill="#024C4A"/>
<path d="M38.8768 28.6C38.8768 28.6 41.7375 26.85 42.1596 25.25C42.5817 23.6 41.4561 16.2 41.2217 15.55C40.9403 14.9 40.0023 12.2 38.8299 11.6C37.6575 11 35.2189 10.25 35.2189 10.25C35.2189 10.25 34.6561 11.3 35.0313 12.6C35.4065 13.9 36.7665 15.4 38.1265 16.55C39.4396 17.75 40.6589 19.9 39.8148 21.7C39.0175 23.5 38.8299 23.7 38.7361 24.85C38.5954 26 38.8768 28.6 38.8768 28.6Z" fill="#024C4A"/>
<path d="M25.4648 32.4501C25.4648 32.4501 24.7145 31.9001 24.3862 32.0501C24.0579 32.2001 23.9641 33.4001 23.6827 33.9501C23.4483 34.4501 22.3227 34.2001 21.7131 35.4501C21.1034 36.7001 20.6814 40.3001 22.0414 40.9001C23.4014 41.5001 26.8717 42.1501 27.5283 42.0001C28.1848 41.8501 29.5917 40.0001 29.7324 39.1501C29.8731 38.3001 29.9669 36.4501 29.3572 36.1001C28.7476 35.7501 25.8869 36.1501 25.6524 35.4501C25.4179 34.7501 25.5586 32.8001 25.4648 32.4501Z" fill="#0C343D"/>
<path d="M42.535 32.4501C42.535 32.4501 43.2853 31.9001 43.6136 32.0501C43.9419 32.2001 44.0357 33.4001 44.317 33.9501C44.5515 34.4501 45.677 34.2001 46.2867 35.4501C46.8964 36.7001 47.3184 40.3001 45.9584 40.9001C44.5984 41.5001 41.1281 42.1501 40.4715 42.0001C39.815 41.8501 38.4081 40.0001 38.2674 39.1501C38.1267 38.3001 38.0329 36.4501 38.6426 36.1001C39.2522 35.7501 42.1129 36.1501 42.3474 35.4501C42.5819 34.7501 42.4412 32.8001 42.535 32.4501Z" fill="#0C343D"/>
<path d="M46.9899 21.8001C46.8023 20.1501 45.7706 18.7501 45.3017 17.2001C44.692 15.0501 45.0672 12.5001 43.7541 10.7501C43.1913 10.0001 42.3003 9.50015 41.8313 8.65015C41.2685 7.75015 41.1748 6.60015 40.5651 5.75015C40.143 5.20015 39.5334 4.85015 38.9237 4.65015C38.5017 4.50015 38.0796 4.35015 37.892 4.00015C37.7513 3.75015 37.7044 3.45015 37.6106 3.20015C37.3761 2.55015 36.7196 2.20015 36.1099 1.95015C36.0161 1.90015 35.8754 1.85015 35.7817 1.80015C35.3596 1.55015 34.8437 1.40015 34.3279 1.40015C34.2341 1.40015 34.1403 1.40015 33.9996 1.40015C33.9058 1.40015 33.812 1.40015 33.6713 1.40015C33.1554 1.40015 32.6865 1.55015 32.2175 1.80015C32.1237 1.85015 31.983 1.90015 31.8892 1.95015C31.2796 2.20015 30.623 2.55015 30.3886 3.20015C30.2948 3.45015 30.2479 3.80015 30.1072 4.00015C29.8727 4.35015 29.4506 4.50015 29.0754 4.65015C28.4658 4.90015 27.8561 5.20015 27.4341 5.75015C26.8244 6.60015 26.6837 7.75015 26.1679 8.65015C25.652 9.45015 24.8079 9.95015 24.2451 10.7501C22.932 12.5001 23.3541 15.0501 22.6975 17.2001C22.2285 18.8001 21.1968 20.1501 21.0092 21.8001C20.8685 22.9001 21.1499 23.9501 21.6658 24.9001C22.041 25.6001 23.0727 27.2001 23.9168 27.3501C24.9954 27.5001 23.9168 25.7501 23.7292 25.2001C23.2603 23.9501 23.0258 22.6001 22.932 21.3001C22.932 20.9501 22.9789 20.4501 23.3072 20.4001C23.4479 20.4001 23.5885 20.4501 23.7292 20.4001C24.0575 20.3501 24.1513 19.8001 24.1044 19.4501C24.0106 17.3001 24.292 15.1501 24.9954 13.1501C25.0423 13.0501 25.0892 12.9501 25.183 12.9001C25.4175 12.8001 25.5582 13.1501 25.652 13.4001C25.6989 13.6501 26.0272 13.9501 26.1679 13.7501C26.6837 11.7501 27.2934 9.80015 28.0906 7.90015C28.1844 7.80015 28.372 7.90015 28.4658 8.05015C28.5596 8.20015 28.5596 8.35015 28.6065 8.50015C28.7472 8.75015 29.0754 8.85015 29.3568 8.75015C29.6382 8.65015 29.8258 8.40015 30.0134 8.20015C30.8106 7.35015 31.6079 6.40015 32.4989 5.70015C33.3899 5.00015 34.6092 5.00015 35.5472 5.70015C36.4382 6.40015 37.2823 7.30015 38.0327 8.20015C38.2203 8.40015 38.4548 8.65015 38.6892 8.75015C38.9706 8.85015 39.2989 8.80015 39.4396 8.50015C39.5334 8.35015 39.5334 8.20015 39.5803 8.05015C39.6741 7.90015 39.8617 7.80015 39.9554 7.90015C40.7058 9.80015 41.3623 11.7501 41.8782 13.7501C42.0189 13.9501 42.3003 13.6501 42.3941 13.4001C42.441 13.1501 42.6285 12.8001 42.863 12.9001C42.9568 12.9501 43.0037 13.0501 43.0506 13.1501C43.7541 15.1501 44.0354 17.3001 43.9417 19.4501C43.9417 19.8501 43.9885 20.3501 44.3168 20.4001C44.4575 20.4001 44.5982 20.3501 44.7389 20.4001C45.0672 20.4501 45.161 20.9501 45.1141 21.3001C45.0203 22.6501 44.7858 23.9501 44.3168 25.2001C44.1292 25.7501 43.0506 27.5001 44.1292 27.3501C44.9734 27.2001 46.0051 25.6001 46.3803 24.9001C46.8023 23.9501 47.0837 22.8501 46.9899 21.8001Z" fill="#0C343D"/>
<path d="M21.9006 42.1C21.8537 41.45 21.4316 40.85 20.9158 40.65C20.5875 40.55 20.2592 40.5 19.9778 40.3C19.6496 40.05 19.5089 39.6 19.2744 39.25C19.2275 39.15 19.0868 39 18.993 39.05C18.9461 39.05 18.8992 39.1 18.8992 39.15C18.6647 39.45 18.8523 39.9 18.993 40.25C19.1337 40.6 19.1806 41.1 18.8992 41.3C18.6647 40.6 18.1958 40 17.5861 39.7C17.2578 39.55 16.7889 39.4 16.6951 39C16.6013 38.7 16.742 38.35 16.9296 38.1C17.1172 37.85 17.3047 37.55 17.3516 37.25C17.3516 37.15 17.3516 37.05 17.3047 37C17.2578 36.95 17.1641 36.95 17.0703 36.95C16.0854 36.95 15.0537 37 14.0689 37C13.7875 37 13.5061 37 13.2716 36.9C13.0372 36.8 12.8027 36.5 12.8496 36.2C12.8496 36.05 12.9434 35.85 12.8496 35.7C12.8027 35.65 12.7089 35.65 12.662 35.6C12.4275 35.6 12.193 35.6 12.0054 35.6C11.9116 35.45 11.8647 35.2 11.8647 35C11.8647 34.55 12.0054 34.1 12.1461 33.65C12.2868 33.25 12.4275 32.9 12.6151 32.5C12.7089 32.3 12.8027 32.1 12.9434 32C13.2716 31.7 13.6937 31.75 14.1158 31.7C14.3503 31.65 14.5847 31.6 14.7723 31.55C15.1475 31.45 16.0385 31.5 16.4137 31.35C16.1323 31.15 15.4289 30.6 15.7572 29.6C15.9447 28.9 16.742 28.85 17.0703 28.8C17.1641 28.65 17.0703 28.4 16.9296 28.3C16.8358 28.25 16.6013 27.8 16.3199 27.3C16.4137 26.9 16.6951 25.25 17.0703 24.75C17.4454 24.2 18.2896 24.45 18.6647 24.7C19.0868 25 21.0565 22 21.0565 22C21.0565 22 16.8827 23.1 16.4137 23.6C15.8978 24.1 15.4289 25.95 15.4289 25.95C15.4289 25.95 15.382 26 15.2413 26.05C14.8661 26.15 14.5847 26.45 14.3034 26.8C14.1158 27 13.9282 27.2 13.8813 27.35C13.8813 27.4 13.8344 27.45 13.8344 27.5C13.3185 28.35 12.8496 29.4 12.2868 30C11.7241 30.6 11.2551 31.35 10.8799 32.1C10.7392 32.4 10.5516 32.7 10.4109 33C9.89508 33.6 9.75439 34.5 9.75439 35.3C9.75439 36 9.80129 36.65 9.89508 37.3C9.98888 38.05 10.2234 38.8 10.5985 39.45C10.6923 39.3 10.9268 39.15 11.1144 39.15C11.5365 39.15 13.7875 39.8 15.382 39.25C15.382 39.25 13.8813 41.05 11.8647 40.45C11.5834 40.35 11.3489 40.25 11.1613 40.2C11.2082 40.25 11.2551 40.3 11.302 40.3C11.6772 40.65 12.1461 40.85 12.662 41.05C13.8344 41.5 15.0068 41.7 16.2261 41.75C16.9296 41.75 17.5861 41.7 18.2896 41.8C19.462 41.95 20.5875 42.55 21.7599 42.45C21.9006 42.45 22.0413 42.4 22.0882 42.25C21.9006 42.25 21.9006 42.15 21.9006 42.1Z" fill="#0C343D"/>
<path d="M46.0992 42.1C46.1461 41.45 46.5682 40.85 47.084 40.65C47.4123 40.55 47.7406 40.5 48.022 40.3C48.3502 40.05 48.4909 39.6 48.7254 39.25C48.7723 39.15 48.913 39 49.0068 39.05C49.0537 39.05 49.1006 39.1 49.1006 39.15C49.3351 39.45 49.1475 39.9 49.0068 40.25C48.8661 40.6 48.8192 41.1 49.1006 41.3C49.3351 40.6 49.804 40 50.4137 39.7C50.742 39.55 51.2109 39.4 51.3047 39C51.3985 38.7 51.2578 38.35 51.0702 38.1C50.8827 37.85 50.6951 37.55 50.6482 37.25C50.6482 37.15 50.6482 37.05 50.6951 37C50.742 36.95 50.8358 36.95 50.9296 36.95C51.9144 36.95 52.9461 37 53.9309 37C54.2123 37 54.4937 37 54.7282 36.9C54.9627 36.8 55.1971 36.5 55.1502 36.2C55.1502 36.05 55.0564 35.85 55.1502 35.7C55.1971 35.65 55.2909 35.65 55.3378 35.6C55.5723 35.6 55.8068 35.6 55.9944 35.6C56.0882 35.45 56.1351 35.2 56.1351 35C56.1351 34.55 55.9944 34.1 55.8537 33.65C55.713 33.25 55.5723 32.9 55.3847 32.5C55.2909 32.3 55.1971 32.1 55.0564 32C54.7282 31.7 54.3061 31.75 53.884 31.7C53.6496 31.65 53.4151 31.6 53.2275 31.55C52.8523 31.45 51.9613 31.5 51.5861 31.35C51.8675 31.15 52.5709 30.6 52.2427 29.6C52.0551 28.9 51.2578 28.85 50.9296 28.8C50.8358 28.65 50.9296 28.4 51.0702 28.3C51.164 28.25 51.3985 27.8 51.6799 27.3C51.5861 26.9 51.3047 25.25 50.9296 24.75C50.5544 24.2 49.7102 24.45 49.3351 24.7C48.913 25 46.9433 22 46.9433 22C46.9433 22 51.1171 23.1 51.5861 23.6C52.102 24.1 52.5709 25.95 52.5709 25.95C52.5709 25.95 52.6178 26 52.7585 26.05C53.1337 26.15 53.4151 26.45 53.6964 26.8C53.884 27 54.0716 27.2 54.1185 27.35C54.1185 27.4 54.1654 27.45 54.1654 27.5C54.6813 28.35 55.1502 29.4 55.713 30C56.2758 30.6 56.7447 31.35 57.1199 32.1C57.2606 32.4 57.4482 32.7 57.5889 33C58.1047 33.6 58.2454 34.5 58.2454 35.3C58.2454 36 58.1985 36.65 58.1047 37.3C58.0109 38.05 57.7764 38.8 57.4013 39.45C57.3075 39.3 57.073 39.15 56.8854 39.15C56.4633 39.15 54.2123 39.8 52.6178 39.25C52.6178 39.25 54.1185 41.05 56.1351 40.45C56.4164 40.35 56.6509 40.25 56.8385 40.2C56.7916 40.25 56.7447 40.3 56.6978 40.3C56.3227 40.65 55.8537 40.85 55.3378 41.05C54.1654 41.5 52.993 41.7 51.7737 41.75C51.0702 41.75 50.4137 41.7 49.7102 41.8C48.5378 41.95 47.4123 42.55 46.2399 42.45C46.0992 42.45 45.9585 42.4 45.9116 42.25C46.0992 42.25 46.0992 42.15 46.0992 42.1Z" fill="#0C343D"/>
<path d="M43.4727 20.6001C42.2534 15.3001 40.19 11.5001 39.3459 10.5001C38.5486 9.45015 34.5624 8.50015 34.0465 8.40015C33.5307 8.50015 29.5445 9.45015 28.7472 10.5001C27.9031 11.5501 25.7928 15.3001 24.6203 20.6001C23.401 25.9001 26.2148 27.2501 26.2148 27.2501C26.2148 27.2501 25.1831 24.0501 25.5583 21.5501C25.9334 19.0501 27.8093 13.9501 28.9348 12.4001C29.9665 11.0001 33.5776 9.45015 34.0934 9.25015C34.6093 9.45015 38.1734 11.0001 39.2521 12.4001C40.3776 13.9001 42.2534 19.0501 42.6286 21.5001C43.0038 23.9501 41.9721 27.2001 41.9721 27.2001C41.9721 27.2001 44.6452 25.9001 43.4727 20.6001Z" fill="#00E7FF"/>
<path d="M21.6189 37.3C21.6189 37.3 21.9941 35.95 23.0258 35.55C24.0575 35.15 24.5734 34.55 24.6203 33.7C24.6672 32.85 24.9955 33.15 25.2299 33.3C25.2299 33.3 25.1361 32.6 24.6672 32.4C24.1982 32.2 23.9168 32.3 23.8699 32.85C23.823 33.4 23.6355 34.45 22.8851 34.65C22.1348 34.85 21.2437 35.9 21.6189 37.3Z" fill="#00E7FF"/>
<path d="M46.3801 37.3C46.3801 37.3 46.0049 35.95 44.9732 35.55C43.9415 35.15 43.4256 34.55 43.3787 33.7C43.3318 32.85 43.0035 33.15 42.769 33.3C42.769 33.3 42.8628 32.6 43.3318 32.4C43.8008 32.2 44.0821 32.3 44.129 32.85C44.1759 33.4 44.3635 34.45 45.1139 34.65C45.8642 34.8 46.7553 35.9 46.3801 37.3Z" fill="#00E7FF"/>
<path d="M36.4854 24.6001C36.0633 23.6001 32.6399 25.8501 32.7337 23.2001C32.7337 23.0001 32.6399 21.9001 33.9061 21.0501C33.7185 18.0001 30.4826 18.4501 29.3102 19.0001C29.0757 19.0501 28.9819 18.4001 29.0757 18.1501C27.9033 18.9001 28.2785 21.7501 29.5916 22.8001C29.4509 23.2501 29.5916 23.8501 30.1075 24.0501C30.295 24.1001 30.5295 24.5001 30.764 24.6001C31.1392 24.8001 31.5612 24.8501 32.0302 24.8501C33.2964 24.9001 34.1875 25.3501 35.4068 25.3501C36.5323 25.3501 37.564 24.5501 36.4854 24.6001Z" fill="#00E7FF"/>
<path d="M34.8911 20.1001C34.8911 20.1001 34.938 19.0501 36.1104 18.7501C37.2828 18.4501 38.1739 18.8501 38.6897 19.1001L38.0801 19.3001C38.0801 19.3001 38.8773 20.2001 38.0801 21.1001C37.6111 21.3001 34.8911 20.1001 34.8911 20.1001Z" fill="#00E7FF"/>
<path d="M29.9198 25.4502C29.9198 25.9502 29.7791 26.3502 30.0136 26.8502C30.2481 27.3002 30.6701 27.5002 31.0453 27.7002C32.1239 28.3002 33.2025 28.9002 34.2812 29.5502C35.266 30.1002 36.9074 28.3502 35.9225 27.8002C33.1556 28.7502 30.7639 26.4502 31.5143 25.3002C31.4674 24.1002 29.8729 24.2502 29.9198 25.4502Z" fill="#00E7FF"/>
<path d="M34.0938 21.6001C34.0938 21.6001 34.6096 21.4501 34.7972 21.8001C35.1255 22.6501 34.6096 22.8501 34.6096 22.8501L34.0938 21.6001Z" fill="#00E7FF"/>
<path d="M31.186 25.4002C31.186 25.4002 34.3281 28.2002 37.3295 24.7002L37.1888 24.4502C37.1888 24.4502 35.8288 25.1502 34.5157 25.1502C33.2026 25.1502 31.3736 24.7502 31.3736 24.7502L31.186 25.4002Z" fill="#00E7FF"/>
<path d="M24.902 29.9001C24.6206 29.6501 24.2454 29.5501 23.8703 29.3501C23.7765 29.3001 23.6358 29.2001 23.5889 29.1001C23.5889 28.8501 23.9641 28.8001 24.0578 28.5501C24.1516 28.3501 24.011 28.1501 23.8703 28.0501C23.2137 27.3001 22.2758 26.9501 21.4316 26.6001C20.9627 26.4501 20.5406 26.2501 20.1185 26.0501C19.6965 25.8501 19.3682 25.5501 18.9461 25.3001C18.6179 25.1001 17.8206 25.0001 17.8206 25.6501C17.8206 25.8001 17.9144 26.0001 18.0082 26.1001C18.6647 27.0001 19.6496 27.6001 20.5875 28.1501C20.353 28.3001 20.0247 28.3001 19.7903 28.2501C19.6965 28.6001 19.9779 28.9501 20.2592 29.2001C20.6813 29.5501 21.0565 29.9001 21.4785 30.2501C21.5254 30.3001 21.6192 30.3501 21.6661 30.4501C21.7599 30.6001 21.713 30.8001 21.6192 30.9501C21.4785 31.2001 21.1972 31.3501 20.9158 31.4001C20.6344 31.4501 20.353 31.4501 20.0716 31.4001C19.6027 31.3501 19.0868 31.3001 18.6179 31.2501C18.2896 31.2001 17.9144 31.2001 17.6799 31.4501C17.4454 31.7501 17.4923 32.2501 17.7737 32.5501C17.8675 32.6501 17.9613 32.7501 18.102 32.8001L18.8992 34.4501L20.9158 34.7001L21.6192 32.4501C21.8068 33.1001 21.3847 33.8001 21.4785 34.4501C21.4785 34.5001 21.4785 34.5501 21.5254 34.5501C21.5723 34.6001 21.6192 34.6001 21.6661 34.6001C22.0882 34.6001 22.4634 34.5501 22.8385 34.4501C23.2137 34.3001 23.5889 34.0501 23.7296 33.6501C23.8703 33.3001 23.8703 32.9501 23.8703 32.6001C23.9172 32.2501 23.9641 31.8501 24.2454 31.6501C24.4799 31.4001 24.902 31.4001 25.0896 31.1001C25.371 30.6501 25.2303 30.2001 24.902 29.9001Z" fill="#00E7FF"/>
<path d="M50.2732 31.4501C50.0387 31.2001 49.6636 31.2001 49.3353 31.2501C48.8663 31.3001 48.3505 31.3501 47.8815 31.4001C47.6001 31.4001 47.3187 31.4501 47.0373 31.4001C46.756 31.3501 46.5215 31.2001 46.3339 30.9501C46.2401 30.8001 46.1932 30.6001 46.287 30.4501C46.3339 30.3501 46.3808 30.3001 46.4746 30.2501C46.8967 29.9001 47.2718 29.5501 47.6939 29.2001C47.9753 28.9501 48.2567 28.6501 48.1629 28.2501C47.8815 28.3501 47.6001 28.3001 47.3656 28.1501C48.3036 27.6001 49.2884 27.0001 49.9449 26.1001C50.0387 25.9501 50.1325 25.8001 50.1325 25.6501C50.1325 25.0501 49.3353 25.1001 49.007 25.3001C48.6318 25.5501 48.2567 25.8501 47.8346 26.0501C47.4125 26.2501 46.9436 26.4501 46.5215 26.6001C45.6305 26.9501 44.7394 27.3001 44.0829 28.0501C43.9422 28.2001 43.8484 28.4001 43.8953 28.5501C43.9891 28.8001 44.4111 28.8501 44.3642 29.1001C44.3642 29.2501 44.2236 29.3001 44.0829 29.3501C43.7546 29.5001 43.3325 29.6001 43.0511 29.9001C42.7698 30.1501 42.5822 30.6501 42.8167 31.0001C43.0042 31.3001 43.3794 31.3501 43.6608 31.5501C43.8953 31.8001 43.9891 32.1501 44.036 32.5001C44.0829 32.8501 44.036 33.2501 44.1767 33.5501C44.3173 33.9501 44.6925 34.2001 45.0677 34.3501C45.4429 34.5001 45.8649 34.5001 46.2401 34.5001C46.287 34.5001 46.3808 34.5001 46.3808 34.4501C46.4277 34.4001 46.4277 34.4001 46.4277 34.3501C46.5215 33.7001 46.0994 33.0001 46.287 32.3501L46.9904 34.6001L49.007 34.3501L49.8042 32.7001C49.9449 32.6501 50.0387 32.5501 50.1325 32.4501C50.4608 32.2501 50.5077 31.7501 50.2732 31.4501Z" fill="#00E7FF"/>
<path d="M26.5903 20.6C26.5903 20.6 26.5903 16.9 29.2165 15.7L29.1227 16.25C29.1227 16.25 29.3103 15.85 29.92 15.4C30.5296 15 31.7958 14.05 32.3117 11.85L32.7338 11.2C32.7338 11.2 33.1558 11.75 33.0621 12.1C32.9683 12.45 32.0772 14.75 31.5614 15.25C31.0455 15.7 26.5903 20.6 26.5903 20.6Z" fill="#00E7FF"/>
<path d="M28.1846 13.85C28.1846 13.85 28.4191 13 29.5915 12.55C30.8108 12.1 31.2328 11.85 31.7018 11.05L32.1708 10.95C32.1708 10.95 31.9363 12.25 31.3266 12.6C30.7639 12.95 28.1846 13.85 28.1846 13.85Z" fill="#00E7FF"/>
<path d="M27.4813 19.8499C27.4813 19.8499 27.0123 22.6499 27.4813 24.2999L26.7778 24.0499C26.7778 24.0499 27.2937 26.3499 28.5599 27.4499L28.4661 23.7999L27.4813 19.8499Z" fill="#00E7FF"/>
<path d="M41.4096 20.6C41.4096 20.6 41.4096 16.9 38.7834 15.7L38.8772 16.25C38.8772 16.25 38.6896 15.85 38.08 15.4C37.4703 15 36.2041 14.05 35.6883 11.85L35.2662 11.2C35.2662 11.2 34.8441 11.75 34.9379 12.1C35.0317 12.45 35.9227 14.75 36.4386 15.25C36.9545 15.7 41.4096 20.6 41.4096 20.6Z" fill="#00E7FF"/>
<path d="M39.8153 13.85C39.8153 13.85 39.5808 13 38.4084 12.55C37.1891 12.1 36.767 11.85 36.2981 11.05L35.8291 10.95C35.8291 10.95 36.0636 12.25 36.6732 12.6C37.236 12.95 39.8153 13.85 39.8153 13.85Z" fill="#00E7FF"/>
<path d="M40.5186 19.8499C40.5186 19.8499 40.9875 22.6499 40.5186 24.2999L41.222 24.0499C41.222 24.0499 40.7061 26.3499 39.4399 27.4499L39.5337 23.7999L40.5186 19.8499Z" fill="#00E7FF"/>
<path d="M29.2632 19.1001C29.2632 19.1001 29.8259 19.3001 29.9666 19.4501C29.7321 19.9001 29.357 20.5501 30.0135 21.2501C30.4825 21.7001 31.0453 21.9001 32.077 21.5501C33.1087 21.2001 33.1556 20.3001 33.0618 19.9501C32.9211 19.3501 31.5611 18.4001 29.2632 19.1001Z" fill="black"/>
<path d="M34.9379 19.9501C34.8442 20.3501 34.8911 21.2001 35.9228 21.5501C36.9545 21.9001 37.5173 21.7001 37.9862 21.2501C38.6428 20.6001 38.2676 19.9001 38.0331 19.4501C38.1738 19.3001 38.7366 19.1001 38.7366 19.1001C36.4386 18.4001 35.0786 19.3501 34.9379 19.9501Z" fill="black"/>
<path d="M59.1364 35.6C58.9019 34.2 56.9323 30.85 56.6509 30.25C56.3695 29.65 55.8536 28.8001 55.3378 27.4501C54.9626 26.5001 53.8371 25.7 53.1805 25.3C53.1805 24.9 53.1336 24.5001 53.0398 24.2001C52.4771 22.2501 47.1778 20.9 47.1778 20.9C47.0371 18.8 46.0054 16.95 45.4426 16.05C45.4426 15.5 45.4426 14.85 45.3488 14.05C44.8798 10.55 43.1916 8.80005 41.9723 8.20005C41.4095 5.15005 39.346 4.10005 38.3612 3.80005C37.1419 1.65005 34.5157 1.10005 34.0467 1.05005C34.0467 1.05005 34.0467 1.05005 33.9998 1.05005H33.9529C33.484 1.15005 30.8578 1.70005 29.6385 3.80005C28.6536 4.15005 26.5902 5.20005 26.0274 8.20005C24.855 8.75005 23.1667 10.5 22.6978 14C22.604 14.75 22.5571 15.45 22.604 16C22.0412 16.9 21.0095 18.7501 20.8688 20.85C20.8688 20.85 15.5695 22.2 15.0067 24.15C14.9129 24.5 14.866 24.85 14.866 25.25C14.2095 25.65 13.084 26.45 12.7088 27.4C12.1929 28.75 11.6771 29.6501 11.3488 30.2001C11.0674 30.8001 9.09777 34.15 8.86329 35.55C8.6288 36.95 9.09777 39.5 9.70742 40.3C10.2702 41.1 12.7088 41.6501 14.1626 41.9001C15.6164 42.1501 17.0702 41.9 18.2426 42.25C19.415 42.55 22.1819 43.15 23.026 43C23.8702 42.85 24.386 42.55 24.386 42.55C24.386 42.55 26.8247 42.85 27.3874 42.75C27.9502 42.65 34.0467 42.75 34.0467 42.75C34.0467 42.75 40.0964 42.65 40.706 42.75C41.2688 42.85 43.7074 42.55 43.7074 42.55C43.7074 42.55 44.2233 42.85 45.0674 43C45.9116 43.15 48.6785 42.55 49.8509 42.25C51.0233 41.95 52.4302 42.1501 53.9309 41.9001C55.3847 41.6501 57.8233 41.1 58.386 40.3C58.9019 39.55 59.3709 36.95 59.1364 35.6ZM22.8854 17.7001C23.1667 18.5501 23.5888 18.85 23.5888 18.85C23.2605 16.7501 23.4481 15.55 24.0109 13.55C24.4329 12 25.5116 10.55 25.9805 10C25.9805 10.5 26.0274 11.05 26.1212 11.65C26.1212 11.65 26.3088 6.65005 29.1695 5.30005C29.0757 5.85005 29.0757 6.45005 29.1695 7.10005C29.1695 7.10005 29.5916 3.15005 34.0467 2.40005C38.5019 3.15005 38.924 7.10005 38.924 7.10005C39.0178 6.45005 39.0178 5.85005 38.924 5.30005C41.7847 6.70005 41.9723 11.65 41.9723 11.65C42.066 11.05 42.1129 10.55 42.1129 10C42.535 10.55 43.6136 12 44.0826 13.55C44.6454 15.5 44.786 16.7 44.5047 18.85C44.5047 18.85 44.8798 18.5501 45.2081 17.7001C45.5833 18.6501 46.3805 20.85 45.8178 23.05C45.0674 25.9 41.7378 27.25 41.7378 27.25C43.1447 25.9 43.6136 23.75 43.4729 21.65C43.3323 19.55 41.5502 14.4 40.0495 11.95C38.6426 9.65005 34.7502 9.05005 34.1874 9.00005C34.1874 9.00005 34.1874 9.00005 34.1405 9.00005H34.0936C33.5309 9.10005 29.6385 9.70005 28.2316 11.95C26.7309 14.4 24.9488 19.6 24.8081 21.65C24.6674 23.7 25.0895 25.9 26.5433 27.25C26.5433 27.25 23.2136 25.9 22.4633 23.05C21.7129 20.85 22.5102 18.6501 22.8854 17.7001ZM28.044 25.05L27.1998 24.55C27.575 26.25 28.466 27.4 28.6067 27.55C25.9336 25.3 26.1681 22.4501 26.1681 22.4501C26.4495 23.1501 27.0123 23.65 27.0123 23.65C26.9654 21 27.4812 19.85 27.4812 19.85C27.3405 22.95 27.9971 24.95 28.044 25.05ZM28.0909 18.65C28.2785 17.35 28.9819 16.15 28.9819 16.15C27.106 17.35 26.684 20.4 26.684 20.4C26.4026 16.1 28.7005 14.65 30.3888 13.8C32.0771 12.95 32.5929 11.6 32.5929 11.6C32.3585 12.95 32.0302 14.5 30.4826 15.5C28.9819 16.5 28.0909 18.65 28.0909 18.65ZM28.1847 13.85C28.7005 11.7 30.295 12.35 31.7019 11C31.3267 12.15 30.764 12.3 29.5916 12.75C28.5129 13.3 28.2316 13.8 28.1847 13.85ZM35.3598 11.6C35.3598 11.6 35.8757 13 37.564 13.8C39.2523 14.65 41.5502 16.05 41.2688 20.4C41.2688 20.4 40.8467 17.35 38.9709 16.15C38.9709 16.15 39.6743 17.3 39.8619 18.65C39.8619 18.65 38.9709 16.5 37.4233 15.5C35.9695 14.5 35.5943 12.95 35.3598 11.6ZM36.2978 11.05C37.7047 12.35 39.2992 11.75 39.815 13.9C39.7681 13.85 39.4867 13.3 38.4081 12.85C37.2357 12.3 36.6729 12.2 36.2978 11.05ZM40.7998 24.55L40.0026 25.05C40.0495 24.95 40.706 22.95 40.5654 19.85C40.5654 19.85 41.0812 21 41.0343 23.65C41.0343 23.65 41.5971 23.1501 41.8785 22.4501C41.8785 22.4501 42.066 25.3 39.4398 27.55C39.4867 27.4 40.4247 26.3 40.7998 24.55ZM17.7736 33.4501C16.7419 33.2001 15.4757 32.9 14.8191 33C13.6467 33.15 12.7557 34.65 12.7088 34.75C12.8026 34.7 14.5847 33.85 15.9916 34.35C15.9916 34.35 15.2412 35.3 13.975 35.6C13.975 35.6 14.7254 36.1001 15.5695 35.9001C16.4136 35.7001 17.6329 35.0001 18.524 34.9501C18.524 34.9501 18.4771 35.5501 18.7585 36.1501C18.7585 36.1501 19.6495 35.5 20.6343 35.35C20.6343 35.35 19.6964 39.4501 21.0564 41.9501C21.0564 41.9501 18.524 41.75 18.9929 38.1C18.9929 38.1 17.8674 39.3501 17.6798 40.9501C17.6798 40.9501 14.2095 41.1001 12.8964 40.7001C11.5833 40.3001 11.1143 39.6501 11.1143 39.6501C11.1143 39.6501 13.2716 40.5 15.2412 39.35C15.2412 39.35 11.9585 39.35 10.8798 38.55C9.80122 37.8 10.5516 35.45 10.9267 34.35C11.3019 33.2 12.2867 30.85 12.6619 30.5C13.084 30.2 14.444 29.75 14.444 29.75C14.444 29.75 14.0219 28.35 14.2095 27.85C14.3502 27.5 15.0067 27.1 15.2881 26.9C15.8978 28.35 17.3985 29.6 20.0716 29.25C20.0716 29.25 17.7267 28.5 16.9295 26.65C16.1323 24.8 16.695 24.45 16.9764 23.9C17.2578 23.35 19.7902 22.85 19.9309 22.8C19.8371 22.85 18.7116 23.4 18.524 24.25C18.3364 25.1 18.2426 26 19.884 26.85C21.4785 27.7 23.7764 28.05 23.2136 28.55C22.6509 29.05 21.4785 28.4 21.9005 29.25C22.3226 30.15 24.0109 30.15 24.6674 30.75C24.6674 30.75 23.9171 30.85 23.7295 31.25C23.5419 31.65 23.8233 32.1 23.6357 33.1C23.4481 34.15 21.9943 33.9501 21.9943 33.9501C21.9943 33.9501 22.135 32.6 22.8385 31.1C22.7447 31.15 21.1502 31.9 20.5405 33.75L19.5088 33.8C19.5088 33.8 19.4619 33.8 19.3681 33.75C18.9929 32.85 17.5391 30.1001 14.0688 31.7001C14.0688 31.7501 16.0854 31.2001 17.7736 33.4501ZM28.935 38.75C28.6536 38.95 26.7309 38.75 26.0743 38.6C25.4178 38.45 24.9957 38.3501 24.855 38.4001C24.7143 38.4501 24.6674 38.7001 24.9488 38.9001C25.2302 39.1001 26.5902 39.5 27.7157 39.55C28.8412 39.6 28.6536 39.85 28.6067 40C28.6067 40.2 28.044 40.4 27.0591 40.3C26.0743 40.2 25.2302 39.7001 25.0895 39.7001C24.9488 39.7001 24.7143 39.9501 24.9488 40.2001C25.1833 40.5001 26.5433 40.9 26.8716 41C27.1998 41.05 27.1998 41.3001 27.0591 41.4501C26.9185 41.6001 25.9336 41.55 25.1364 41.3C24.3391 41.05 23.8702 40.6001 23.5888 40.4001C23.2605 40.2001 22.7447 40.45 22.2288 39.75C21.7129 39.05 21.7598 37.2001 21.8536 36.6501C21.9474 36.1001 22.2757 35.4001 22.8385 35.2001C23.3543 35.0001 23.8702 34.9001 24.1047 34.4001C24.3391 33.9001 24.386 32.8001 24.4329 32.7001C24.5267 32.5501 24.6205 32.6 24.6205 32.6C25.3709 33.25 25.2771 33.8 25.2302 34.3C25.1833 34.8 24.7143 35.35 24.9957 35.6C25.2771 35.85 27.106 36.45 27.9033 36.5C28.7005 36.55 28.935 36.6 28.8881 36.8C28.8881 37 28.7943 37.25 27.8095 37.25C26.8247 37.25 25.9336 36.9 25.6054 36.8C25.2771 36.75 25.1364 36.9501 25.1364 37.1501C25.1833 37.3501 25.5116 37.55 26.3088 37.75C27.106 38 27.9971 37.9 28.5598 38C29.1226 38.05 29.2164 38.55 28.935 38.75ZM33.9998 28.75C33.9998 28.75 31.5612 28 30.4357 26.15C30.4357 26.15 30.7171 25.5 30.764 24.65C31.655 25.55 32.7805 26.1 33.9998 26.1C35.2191 26.1 36.3447 25.55 37.2357 24.65C37.2826 25.5 37.564 26.15 37.564 26.15C36.4385 28 33.9998 28.75 33.9998 28.75ZM37.2357 24.1C36.2509 24.6 35.1723 24.85 33.9998 24.85C32.8274 24.85 31.7019 24.55 30.764 24.1C30.7171 23.0501 30.2481 21.8501 28.7943 20.9501C28.7943 20.9501 28.2785 18.95 30.1074 17.15C30.5764 16.7 31.0454 16.25 31.4674 15.85C31.4674 15.85 33.8591 14.2 36.5791 15.85C37.0012 16.25 37.4702 16.7 37.9392 17.15C39.7681 19 39.2523 20.9501 39.2523 20.9501C37.7516 21.9001 37.3295 23.1 37.2357 24.1ZM45.7709 39.8C45.255 40.5 44.7391 40.2501 44.4109 40.4501C44.0826 40.6501 43.6136 41.1 42.8633 41.35C42.066 41.6 41.1281 41.65 40.9405 41.5C40.7998 41.35 40.7529 41.1 41.1281 41.05C41.5033 41 42.8164 40.55 43.0509 40.25C43.2854 39.95 43.0978 39.75 42.9571 39.75C42.8164 39.75 41.9723 40.25 40.9874 40.35C40.0026 40.45 39.4398 40.25 39.4398 40.05C39.4398 39.85 39.2054 39.6 40.3309 39.6C41.4564 39.6 42.8164 39.2001 43.0978 38.9501C43.3792 38.7001 43.3323 38.4501 43.1916 38.4501C43.0509 38.4001 42.6288 38.5001 41.9723 38.6501C41.3157 38.8001 39.3929 39 39.1116 38.8C38.8302 38.6 38.924 38.05 39.4867 38C40.0495 37.95 40.9405 38 41.7378 37.75C42.535 37.5 42.8633 37.3501 42.9102 37.1501C42.9571 36.9501 42.8164 36.75 42.4412 36.8C42.1129 36.85 41.2219 37.25 40.2371 37.25C39.2523 37.25 39.1585 37 39.1585 36.8C39.1585 36.6 39.346 36.55 40.1902 36.5C40.9874 36.45 42.8164 35.85 43.0978 35.6C43.3792 35.35 42.9571 34.8 42.8633 34.3C42.8164 33.8 42.6757 33.25 43.4729 32.6C43.4729 32.6 43.6136 32.6001 43.6605 32.7001C43.7543 32.8501 43.7543 33.9001 43.9888 34.4001C44.2233 34.9001 44.7391 35.0501 45.255 35.2001C45.7709 35.4001 46.146 36.0501 46.2398 36.6501C46.2398 37.2501 46.2867 39.1 45.7709 39.8ZM57.1667 38.55C56.0881 39.3 52.8054 39.35 52.8054 39.35C54.775 40.5 56.9323 39.6501 56.9323 39.6501C56.9323 39.6501 56.4633 40.3001 55.1502 40.7001C53.8371 41.1001 50.3667 40.9501 50.3667 40.9501C50.1792 39.3501 49.0536 38.1 49.0536 38.1C49.5695 41.7 46.9902 41.9501 46.9902 41.9501C48.3502 39.4501 47.4123 35.35 47.4123 35.35C48.3502 35.55 49.2412 36.1501 49.2412 36.1501C49.5226 35.5001 49.4757 34.9501 49.4757 34.9501C50.3667 35.0501 51.586 35.7501 52.4302 35.9001C53.2743 36.1001 54.0247 35.6 54.0247 35.6C52.7585 35.3 52.0081 34.35 52.0081 34.35C53.415 33.85 55.1971 34.7 55.2909 34.75C55.244 34.65 54.3529 33.15 53.1805 33C52.524 32.9 51.2578 33.2001 50.226 33.4501C51.8674 31.2001 53.9309 31.75 54.1185 31.8C50.6012 30.2 49.1474 33 48.7723 33.85C48.6785 33.9 48.6316 33.9001 48.6316 33.9001L47.5998 33.85C46.9433 32 45.3957 31.2501 45.3019 31.2001C46.0054 32.7001 46.146 34.05 46.146 34.05C46.146 34.05 44.6923 34.2001 44.5047 33.2001C44.3171 32.1501 44.5985 31.75 44.4109 31.35C44.2233 30.95 43.4729 30.85 43.4729 30.85C44.1295 30.2 45.8178 30.2 46.2398 29.35C46.6619 28.45 45.4895 29.15 44.9267 28.65C44.364 28.15 46.6619 27.8001 48.3033 26.9501C49.8978 26.1001 49.8509 25.2 49.6633 24.35C49.4757 23.5 48.3502 22.95 48.2564 22.9C48.3971 22.95 50.9295 23.45 51.2109 24C51.4923 24.55 52.055 24.9 51.2578 26.75C50.4605 28.6 48.1157 29.35 48.1157 29.35C50.7888 29.7 52.2426 28.45 52.8992 27C53.1805 27.15 53.8371 27.5501 53.9778 27.9501C54.1654 28.4001 53.7433 29.85 53.7433 29.85C53.7433 29.85 55.1033 30.3 55.5254 30.6C55.9474 30.9 56.8854 33.3001 57.2605 34.4501C57.495 35.4501 58.2454 37.75 57.1667 38.55Z" fill="black"/>
<path d="M33.2964 22.2501V22.6501C33.2964 22.8001 33.4371 22.9001 33.5778 22.8501L33.9529 22.7001V21.6001C33.5778 21.6001 33.2964 21.9001 33.2964 22.2501Z" fill="black"/>
<path d="M34.0938 21.6001V22.7001L34.4689 22.8501C34.6096 22.9001 34.7503 22.8001 34.7503 22.6501V22.2501C34.7034 21.9001 34.422 21.6001 34.0938 21.6001Z" fill="black"/>
<path d="M42.5816 31.45H25.4175V31.7H42.5816V31.45Z" fill="#00E7FF"/>
<path d="M36.5792 34.45C36.4854 34.35 36.2978 34.3 36.204 34.4C36.2509 34.25 36.2509 34.1 36.1571 34C36.0164 33.85 35.8288 33.85 35.6881 34C35.5474 34.15 35.5474 34.35 35.6881 34.5C35.735 34.55 35.735 34.55 35.7819 34.55L35.4067 34.95C35.5474 35 35.6412 35.1 35.735 35.2L36.0633 34.8499C36.0633 34.8999 36.1102 34.9 36.1102 34.95C36.2509 35.1 36.4385 35.1 36.5792 34.95C36.6729 34.8 36.6729 34.6 36.5792 34.45Z" fill="#164956"/>
<path d="M32.1238 38.4999C32.1238 38.4499 32.0769 38.4499 32.0769 38.3999C31.9362 38.2499 31.7486 38.2499 31.608 38.3999C31.4673 38.5499 31.4673 38.7499 31.608 38.8999C31.7018 38.9999 31.8893 39.0499 31.9831 38.9499C31.9362 39.0999 31.9362 39.2499 32.03 39.3499C32.1707 39.4999 32.3583 39.4999 32.499 39.3499C32.6397 39.1999 32.6397 38.9999 32.499 38.8499C32.4521 38.7999 32.4521 38.7999 32.4052 38.7999L32.968 38.1999V38.0499C32.8742 37.9999 32.7804 37.9499 32.6866 37.8999L32.1238 38.4999ZM32.0769 38.8499C32.0769 38.7999 32.1238 38.7999 32.0769 38.8499C32.1238 38.7999 32.1238 38.7999 32.0769 38.8499C32.1238 38.8499 32.1238 38.7999 32.0769 38.8499Z" fill="#164956"/>
<path d="M35.9696 38.3999C35.9227 38.4499 35.9227 38.4499 35.9227 38.4999L35.36 37.8999C35.2662 37.9499 35.1724 37.9999 35.0786 38.0499V38.1999L35.6414 38.7999C35.5945 38.7999 35.5945 38.8499 35.5476 38.8499C35.4069 38.9999 35.4069 39.1999 35.5476 39.3499C35.6883 39.4999 35.8759 39.4999 36.0165 39.3499C36.1103 39.2499 36.1572 39.0499 36.0634 38.9499C36.2041 38.9999 36.3448 38.9999 36.4386 38.8999C36.5793 38.7499 36.5793 38.5499 36.4386 38.3999C36.2979 38.2999 36.0634 38.2999 35.9696 38.3999ZM35.8759 38.7999C35.8759 38.7999 35.9227 38.7999 35.8759 38.7999C35.8759 38.8499 35.8759 38.7999 35.8759 38.7999Z" fill="#164956"/>
<path d="M31.8894 34.95C31.9363 34.9 31.9363 34.8999 31.9363 34.8499L32.2646 35.2C32.3584 35.1 32.4991 35 32.5929 34.95L32.2177 34.55C32.2646 34.55 32.2646 34.5 32.3115 34.5C32.4522 34.35 32.4522 34.15 32.3115 34C32.1708 33.85 31.9832 33.85 31.8425 34C31.7487 34.1 31.7018 34.3 31.7956 34.4C31.6549 34.35 31.5143 34.35 31.4205 34.45C31.2798 34.6 31.2798 34.8 31.4205 34.95C31.5611 35.1 31.7487 35.1 31.8894 34.95Z" fill="#164956"/>
<path d="M35.9227 36.4C35.9227 35.6 35.0785 35 33.9999 35C32.9213 35 32.0771 35.65 32.0771 36.4C32.0771 37 32.593 37.55 33.3434 37.75V38.8C33.3434 38.9 33.4371 39 33.5309 39C33.6247 39 33.7185 38.9 33.7185 38.8C33.7185 38.9 33.8123 39 33.9061 39C33.9999 39 34.0937 38.9 34.0937 38.8C34.0937 38.9 34.1875 39 34.2813 39C34.3751 39 34.4689 38.9 34.4689 38.8C34.4689 38.9 34.5627 39 34.6565 39C34.7503 39 34.844 38.9 34.844 38.8V37.75C35.4068 37.55 35.9227 37.05 35.9227 36.4ZM33.2027 37.1C32.9213 37.1 32.6399 36.9 32.6399 36.7C32.6399 36.5 32.8744 36.3 33.2027 36.3C33.484 36.3 33.7185 36.5 33.7185 36.7C33.7185 36.95 33.484 37.1 33.2027 37.1ZM34.2344 37.35C34.1875 37.4 34.0937 37.35 33.9999 37.25C33.9999 37.25 33.9999 37.2 33.953 37.2C33.953 37.2 33.953 37.25 33.9061 37.25C33.8123 37.35 33.7185 37.35 33.6716 37.35C33.6247 37.3 33.6716 37.2 33.7654 37.1C33.8123 37.05 33.9061 37 33.953 37C33.9999 37 34.0468 37 34.1406 37.1C34.2344 37.2 34.2813 37.3 34.2344 37.35ZM34.844 37.1C34.5627 37.1 34.2813 36.9 34.2813 36.7C34.2813 36.5 34.5158 36.3 34.844 36.3C35.1254 36.3 35.3599 36.5 35.3599 36.7C35.3599 36.95 35.1254 37.1 34.844 37.1Z" fill="#164956"/>
<path d="M14.6315 43.4C14.8191 44.5 14.9598 45.55 15.1474 46.65C14.397 46.8 13.5998 46.95 12.8494 47.1C12.6619 46 12.4743 44.95 12.2867 43.85C11.5363 44 10.786 44.15 10.0356 44.35C10.5515 47.15 11.1143 50 11.6301 52.8C12.3336 52.65 13.037 52.5 13.7405 52.35C13.5529 51.25 13.3653 50.15 13.1777 49.05C13.9281 48.9 14.6784 48.75 15.4287 48.6C15.6163 49.7 15.757 50.8 15.9446 51.9C16.6481 51.75 17.3515 51.65 18.055 51.55C17.6798 48.7 17.3046 45.85 16.8825 43C16.1322 43.15 15.3819 43.25 14.6315 43.4Z" fill="#E6E6E6"/>
<path d="M20.3059 42.5C20.0715 45.45 19.8839 48.35 19.6963 51.3C20.3997 51.2 21.1032 51.1 21.8535 51C21.8535 50.65 21.9004 50.2501 21.9004 49.9001C22.6977 49.8001 23.448 49.7001 24.2453 49.6501C24.339 50.0001 24.3859 50.35 24.4797 50.75C25.1832 50.7 25.8866 50.6 26.637 50.55C25.9335 47.7 25.2301 44.9 24.4328 42.05C23.0728 42.2 21.6659 42.35 20.3059 42.5ZM22.0411 47.9001C22.088 46.6501 22.1818 45.4001 22.2756 44.2001C22.4632 44.2001 22.6508 44.1501 22.8384 44.1501C23.1197 45.3501 23.448 46.55 23.7294 47.75C23.1666 47.8 22.6039 47.8501 22.0411 47.9001Z" fill="#E6E6E6"/>
<path d="M31.4205 48.45C30.9984 48.45 30.7171 48.4 30.5295 48.3C30.3419 48.2 30.2012 48 30.1074 47.75C30.0136 47.45 29.9667 47 29.9198 46.4C29.9198 46.25 29.8729 46.05 29.8729 45.75C29.8729 45.2 29.8729 44.75 29.9667 44.45C30.0605 44.15 30.2012 43.9 30.4357 43.75C30.6702 43.6 30.9984 43.5 31.4674 43.5C31.9364 43.5 32.5929 43.55 33.3902 43.65C33.3902 43.05 33.4371 42.45 33.4371 41.85C32.4522 41.6 31.5143 41.5 30.6702 41.5C29.8729 41.55 29.2164 41.7 28.7474 41.95C28.2784 42.2 27.9971 42.7 27.8095 43.35C27.6219 44 27.575 44.95 27.6219 46.2C27.6688 47.25 27.8095 48.1 28.044 48.7C28.2315 49.3 28.6067 49.75 29.0757 50.05C29.5447 50.35 30.2481 50.45 31.0922 50.45C31.7957 50.45 32.5929 50.3 33.4371 50.1C33.4371 49.5 33.3902 48.85 33.3902 48.25C32.6398 48.4 31.9833 48.45 31.4205 48.45Z" fill="#E6E6E6"/>
<path d="M39.6274 41.7499C39.2523 42.8999 38.924 44.0499 38.5957 45.1999C38.2675 45.2499 37.9861 45.2499 37.6578 45.2999C37.7047 44.0999 37.7047 42.8999 37.7516 41.6999C37.0012 41.6999 36.2509 41.6499 35.4537 41.6499C35.4068 44.5499 35.4068 47.3999 35.3599 50.2999C36.0633 50.2999 36.7668 50.2999 37.4702 50.3499C37.5171 49.3499 37.5171 48.2999 37.564 47.2999C37.8454 47.2999 38.1737 47.2499 38.455 47.2499C38.6895 48.2999 38.9709 49.3999 39.2054 50.4499C40.0026 50.4999 40.8468 50.5499 41.644 50.5999C41.2688 49.0999 40.8468 47.6499 40.4716 46.1999C41.0343 44.7999 41.5971 43.3999 42.2068 41.9999C41.3626 41.8499 40.4716 41.7999 39.6274 41.7499Z" fill="#E6E6E6"/>
<path d="M43.3789 50.7C45.161 50.85 46.943 51.05 48.772 51.3C48.8658 50.65 48.9127 50 49.0065 49.3C47.9279 49.15 46.8024 49 45.6768 48.9C45.7237 48.45 45.7706 48 45.8175 47.55C46.7086 47.65 47.5527 47.75 48.4437 47.85C48.5375 47.2 48.5844 46.55 48.6782 45.9C47.7872 45.8 46.8961 45.65 46.0051 45.55C46.052 45.1 46.0989 44.65 46.1458 44.2C47.2713 44.35 48.4437 44.45 49.5692 44.65C49.663 44 49.7099 43.35 49.8037 42.65C47.881 42.4 45.9582 42.15 44.0355 42C43.801 44.95 43.5665 47.8 43.3789 50.7Z" fill="#E6E6E6"/>
<path d="M57.4948 44.9001C57.0728 44.3001 56.3224 43.8501 55.2438 43.6501C54.1183 43.4501 52.9928 43.25 51.8204 43.05C51.4452 45.9 51.0231 48.75 50.6479 51.6C51.3514 51.7 52.0548 51.8501 52.7583 51.9501C52.899 51.1001 53.0397 50.2501 53.1804 49.4001C53.5555 49.4501 53.9307 49.55 54.259 49.6C54.3059 50.5 54.3528 51.4 54.3997 52.3C55.15 52.45 55.9473 52.6 56.6976 52.8C56.6038 51.7 56.51 50.6 56.4162 49.5C57.2135 49 57.6824 48.25 57.87 47.3C58.0576 46.3 57.9638 45.5001 57.4948 44.9001ZM55.619 46.8C55.5721 47.1 55.4314 47.35 55.2907 47.5C55.1031 47.7 54.9155 47.7501 54.6342 47.7001C54.259 47.6501 53.8838 47.55 53.4617 47.5C53.5555 46.8 53.6962 46.1001 53.79 45.4001C54.1652 45.4501 54.5404 45.55 54.9155 45.6C55.15 45.65 55.3845 45.8 55.4783 46.05C55.6659 46.25 55.6659 46.5 55.619 46.8Z" fill="#E6E6E6"/>
<path d="M58.1514 44.4001C58.1514 44.4001 56.4162 43.9001 54.9624 43.6001L56.4631 45.2501L56.4162 45.3001L56.4631 46.6501C58.1045 45.8501 63.4507 45.9001 63.4507 45.9001C62.1376 45.4001 58.1514 44.4001 58.1514 44.4001Z" fill="#E6E6E6"/>
<path d="M10.364 44.4501L10.0357 44.3501L9.84814 44.4001C9.84814 44.4001 5.86193 45.4501 4.54883 45.9001C4.54883 45.9001 9.89504 45.8501 11.5364 46.6501L11.5833 45.3001L10.3171 44.7001V44.4501H10.364Z" fill="#E6E6E6"/>
<path d="M5.95557 48.6501L9.5197 47.4001L9.80108 48.9501L5.95557 48.6501Z" fill="#E6E6E6"/>
<path d="M7.26855 50.9502L10.0355 50.0002L10.2699 51.3502L7.26855 50.9502Z" fill="#E6E6E6"/>
<path d="M62.0438 48.6501L58.4796 47.4001L58.1982 48.9501L62.0438 48.6501Z" fill="#E6E6E6"/>
<path d="M60.7309 50.9502L57.964 50.0002L57.7295 51.3502L60.7309 50.9502Z" fill="#E6E6E6"/>
<path d="M21.291 16.45C21.291 16.45 20.0248 19.2 20.8221 20.8C20.8221 20.8 21.0566 18.25 22.5572 15.95L21.291 16.45Z" fill="#00E7FF"/>
<path d="M46.7091 16.45C46.7091 16.45 47.9753 19.2 47.178 20.8C47.178 20.8 46.9436 18.25 45.4429 15.95L46.7091 16.45Z" fill="#00E7FF"/>
<path d="M8.25391 42.7501C8.25391 42.7501 10.8332 42.2001 13.6001 41.9001C13.6001 41.9001 11.7243 41.3001 7.17529 42.0501L8.25391 42.7501Z" fill="#00E7FF"/>
<path d="M59.7461 42.7501C59.7461 42.7501 57.1668 42.2001 54.3999 41.9001C54.3999 41.9001 56.2758 41.3001 60.8247 42.0501L59.7461 42.7501Z" fill="#00E7FF"/>
</g>
<defs>
<clipPath id="clip0_98_3164">
<rect width="68" height="80" fill="white"/>
</clipPath>
</defs>
</svg>
