<svg xmlns="http://www.w3.org/2000/svg" width="25" height="24" viewBox="0 0 25 24"><path d="M1269.562,124.229a1.994,1.994,0,0,0-1.463-.688h-1.524l-5.882-7.12a1.11,1.11,0,0,0-1.493-.209,1.063,1.063,0,0,0-.213,1.466c0,.029.03.029.03.059l4.845,5.8H1250.82l4.815-5.8a1.026,1.026,0,0,0-.061-1.466,1.073,1.073,0,0,0-1.493.059l-.091.09-5.881,7.15h-1.219a1.883,1.883,0,0,0-1.889,1.856,1.424,1.424,0,0,0,.031.359l2.438,12.057A2.7,2.7,0,0,0,1250.15,140h14.688a2.7,2.7,0,0,0,2.682-2.155l2.438-12.057A1.829,1.829,0,0,0,1269.562,124.229Zm-15.237,9.784a1.067,1.067,0,0,1-2.133,0v-4.249a1.067,1.067,0,0,1,2.133,0Zm4.236,0a1.067,1.067,0,0,1-2.133,0v-4.249a1.067,1.067,0,0,1,2.133,0Zm4.205,0a1.067,1.067,0,0,1-2.133,0v-4.249a1.067,1.067,0,0,1,2.133,0Z" transform="translate(-1244.999 -115.997)"/></svg>