<svg xmlns="http://www.w3.org/2000/svg" width="30.99" height="41.011" viewBox="0 0 30.99 41.011"><defs><style>.a{fill:#fff;}</style></defs><path class="a" d="M1172.646,921.984a2.544,2.544,0,0,1-2.657-2.4v-36.2a2.541,2.541,0,0,1,2.657-2.4h25.677a2.541,2.541,0,0,1,2.656,2.4v36.2a2.544,2.544,0,0,1-2.656,2.4Zm0-2.4h25.679v-4.887h-25.678Zm0-7.29h25.677V890.663h-25.677Zm0-24.03h25.677v-4.884h-25.677Zm11.5,28.911a1.337,1.337,0,1,1,1.33,1.2A1.27,1.27,0,0,1,1184.15,917.17Zm-2.207-30.11a1.208,1.208,0,1,1,0-2.4h7.083a1.208,1.208,0,1,1,0,2.4Z" transform="translate(-1169.989 -880.973)"/></svg>