<svg xmlns="http://www.w3.org/2000/svg" width="37" height="27.001" viewBox="0 0 37 27.001"><defs><style>.a{fill:#fff;}</style></defs><path class="a" d="M1204.989,1053.425a1.376,1.376,0,0,0-.034-.219,1.473,1.473,0,0,0-.056-.217c-.009-.023-.008-.046-.017-.069-.019-.042-.052-.078-.075-.121a1.372,1.372,0,0,0-.121-.194,1.188,1.188,0,0,0-.149-.162,1.545,1.545,0,0,0-.164-.144,1.339,1.339,0,0,0-.2-.116,1.087,1.087,0,0,0-.125-.075.683.683,0,0,0-.069-.017,2.138,2.138,0,0,0-.22-.056,1.731,1.731,0,0,0-.23-.031c-.024,0-.046-.012-.07-.012h-33.917c-.025,0-.048.012-.073.012a1.553,1.553,0,0,0-.225.031,2.04,2.04,0,0,0-.224.057.42.42,0,0,0-.069.016,1.3,1.3,0,0,0-.125.075,1.352,1.352,0,0,0-.2.116,1.478,1.478,0,0,0-.164.144,1.309,1.309,0,0,0-.149.162,1.349,1.349,0,0,0-.121.194c-.023.043-.056.079-.075.121-.009.024-.009.046-.017.069a1.428,1.428,0,0,0-.055.217,1.465,1.465,0,0,0-.034.219c0,.024-.01.045-.01.068v24a1.485,1.485,0,0,0,.03.294,1.305,1.305,0,0,0,.039.128,1.485,1.485,0,0,0,.049.152,1.356,1.356,0,0,0,.078.142c.022.04.038.079.064.117a1.519,1.519,0,0,0,.427.414c.038.024.08.042.12.065s.095.052.146.073.1.033.156.05.086.028.132.037a1.7,1.7,0,0,0,.3.027h33.917a1.671,1.671,0,0,0,.3-.028c.045-.01.088-.026.132-.04a1.032,1.032,0,0,0,.156-.048c.051-.021.1-.049.146-.073s.081-.041.12-.063a1.52,1.52,0,0,0,.427-.415,1.259,1.259,0,0,0,.064-.115,1.333,1.333,0,0,0,.078-.142c.021-.051.033-.1.049-.153a1.242,1.242,0,0,0,.039-.129,1.6,1.6,0,0,0,.029-.292v-24C1205,1053.469,1204.99,1053.448,1204.989,1053.425Zm-5.253,1.569-11.688,11.373a2.236,2.236,0,0,1-3.1,0l-11.688-11.373Zm-28.653,2.123,8.612,8.377-8.612,8.378Zm2.18,18.877,8.612-8.38.9.875c.129.126.262.24.4.351a5.393,5.393,0,0,0,6.656,0c.138-.111.271-.225.4-.351l.9-.875,8.612,8.38Zm28.653-2.121-8.612-8.378,8.612-8.377Z" transform="translate(-1168 -1051.992)"/></svg>