<svg xmlns="http://www.w3.org/2000/svg" width="29" height="29" viewBox="0 0 29 29">
  <path id="cup-1-1" d="M1258.55,4266.45h-4.35V4265h-17.4v1.45h-4.35a1.37,1.37,0,0,0-1.45,1.45v3.479a6.577,6.577,0,0,0,5.8,6.525v.145a8.72,8.72,0,0,0,6.815,8.555l-1.015,3.045h-3.335a1.393,1.393,0,0,0-1.3,1.015L1236.8,4294h17.4l-1.16-3.335a1.393,1.393,0,0,0-1.3-1.015H1248.4l-1.015-3.045a8.72,8.72,0,0,0,6.815-8.555v-.145a6.577,6.577,0,0,0,5.8-6.525V4267.9A1.37,1.37,0,0,0,1258.55,4266.45ZM1236.8,4275a3.872,3.872,0,0,1-2.9-3.625v-2.029h2.9Zm11.6,4.5-2.9-1.6-2.9,1.6.725-2.9-2.175-2.9h3.045l1.305-2.9,1.305,2.9h3.045l-2.175,2.9Zm8.7-8.121a3.741,3.741,0,0,1-2.9,3.625v-5.655h2.9Z" transform="translate(-1231 -4265)"/>
</svg>
