<svg xmlns="http://www.w3.org/2000/svg" width="74" height="73.967" viewBox="0 0 74 73.967"><defs><style>.a{fill:#fff;}</style></defs><g transform="translate(0 -0.016)"><path class="a" d="M73.617,57.979,67.487,31.962,62.308,20.276l-13.45-.711L44.5,25.645h-1V23.358a6.522,6.522,0,0,0-4.346-6.14V.016H34.819v17.2a6.523,6.523,0,0,0-4.346,6.14v2.286h-1l-4.357-6.08-13.45.711L6.485,31.962.356,57.979a13.016,13.016,0,0,0,24.311,8.806l2.947-5.894a6.521,6.521,0,0,0,6.758-4.167H39.6a6.518,6.518,0,0,0,6.763,4.167l2.947,5.895a12.945,12.945,0,0,0,11.642,7.195C69.05,74.2,75.69,65.877,73.617,57.979ZM51,24.018l8.425.445,2.234,5.04L49.243,26.468Zm-16.191-.66a2.179,2.179,0,1,1,4.357,0v2.286H34.808ZM14.549,24.463l8.425-.445,1.756,2.45L12.315,29.5ZM28.28,56.59a2.185,2.185,0,1,1,2.185-2.185A2.187,2.187,0,0,1,28.28,56.59Zm17.407,0a2.185,2.185,0,1,1,2.185-2.185A2.187,2.187,0,0,1,45.687,56.59ZM60.948,69.645a8.635,8.635,0,0,1-7.766-4.8l-2.908-5.815a6.517,6.517,0,1,0-10.786-6.642H34.478A6.517,6.517,0,1,0,23.7,59.035L20.79,64.846a8.635,8.635,0,0,1-7.766,4.8A8.755,8.755,0,0,1,4.574,58.972l5.778-24.527,18.267-4.467H45.353L63.62,34.445,69.4,58.972a8.755,8.755,0,0,1-8.451,10.673Z"/><path class="a" d="M21.743,34.831H17.409v4.352H13.057v4.334h4.352v4.352h4.334V43.517H26.1V39.183H21.743Z"/><path class="a" d="M30.465,39.183H43.5v4.334H30.465Z"/><path class="a" d="M56.558,34.831H52.224v4.352H47.872v4.334h4.352v4.352h4.334V43.517H60.91V39.183H56.558Z"/></g></svg>