<svg xmlns="http://www.w3.org/2000/svg" xmlns:xlink="http://www.w3.org/1999/xlink" width="71" height="90" viewBox="0 0 71 90"><defs><style>.a,.c{fill:#fff;}.a{stroke:#2f2c43;stroke-linejoin:round;stroke-width:3px;}.b{clip-path:url(#a);}</style><clipPath id="a"><rect class="a" width="71" height="90" transform="translate(646.5 2009.155)"/></clipPath></defs><g class="b" transform="translate(-646.5 -2009.155)"><g transform="translate(646.162 2013.345)"><path class="c" d="M68.609,9.652c-8.969,0-25.288-1.826-30.4-8.557A2.314,2.314,0,0,0,34.4.911c-6.018,6.73-22.375,8.741-32.01,8.741A2.4,2.4,0,0,0,0,12.052v38.4C0,67.752,19.91,78.318,34.994,81.6,36.941,82.027,71,73.4,71,50.455v-38.4a2.4,2.4,0,0,0-2.391-2.4Zm-2.391,40.8c0,18.025-26.677,25.334-30.718,26.336-4.041-1-30.717-8.311-30.717-26.336V14.425C23.248,14,32.456,8.68,36.117,5.8c7.377,6.524,20.276,8.405,30.1,8.629Zm0,0" transform="translate(0 0.001)"/><path class="c" d="M84.064,93.273v7.281h-2.4a2.4,2.4,0,0,0-2.391,2.4v19.2a2.4,2.4,0,0,0,2.391,2.4h28.694a2.4,2.4,0,0,0,2.391-2.4v-19.2a2.4,2.4,0,0,0-2.391-2.4H88.846V93.273a7.166,7.166,0,0,1,14.331,0,2.391,2.391,0,1,0,4.782,0,11.948,11.948,0,0,0-23.9,0Zm23.9,26.482H84.056v-14.4h23.912Zm0,0" transform="translate(-60.512 -62.099)"/><path class="c" d="M144.677,205.453a2.391,2.391,0,1,0-2.391,2.4A2.4,2.4,0,0,0,144.677,205.453Zm0,0" transform="translate(-106.786 -154.997)"/></g></g></svg>