<svg xmlns="http://www.w3.org/2000/svg" xmlns:xlink="http://www.w3.org/1999/xlink" width="85" height="108" viewBox="0 0 85 108"><defs><style>.a,.c{fill:#fff;}.a{stroke:#f2003a;stroke-linejoin:round;stroke-width:3px;}.b{clip-path:url(#a);}</style><clipPath id="a"><rect class="a" width="85" height="108" transform="translate(975 2009.798)"/></clipPath></defs><g class="b" transform="translate(-975 -2009.798)"><g transform="translate(974.926 2020.798)"><path class="c" d="M7.613,154.839H4.839a43.047,43.047,0,0,0,43,43v-2.774A40.273,40.273,0,0,1,7.613,154.839Z" transform="translate(-4.839 -111.839)"/><path class="c" d="M154.839,4.839V7.613a40.273,40.273,0,0,1,40.226,40.226h2.774a43.047,43.047,0,0,0-43-43Z" transform="translate(-111.839 -4.839)"/><path class="c" d="M104.558,77.723a33.329,33.329,0,1,0-26.835,26.835,19.405,19.405,0,1,0,26.835-26.835ZM94,74.579a19.268,19.268,0,0,0-9.893,2.74q.122-2.046.151-4.127h18.032a30.9,30.9,0,0,1-.3,3.125A19.266,19.266,0,0,0,94,74.579ZM64.08,89.837H75.038a19.281,19.281,0,0,0,.416,9.948,5.141,5.141,0,0,1-3.649,2.536C68.993,102.321,65.99,97.6,64.08,89.837Zm11.8-2.774H63.467A79.584,79.584,0,0,1,62.12,73.192H81.482c-.032,2.121-.128,4.218-.307,6.26A19.489,19.489,0,0,0,75.881,87.063ZM41.323,73.192H59.347A83.009,83.009,0,0,0,60.6,87.063h-15.2a30.307,30.307,0,0,1-4.071-13.871ZM71.8,41.288c2.812,0,5.815,4.716,7.725,12.484H64.08C65.99,46,68.993,41.288,71.8,41.288Zm8.338,15.258a79.584,79.584,0,0,1,1.347,13.871H62.12a79.585,79.585,0,0,1,1.347-13.871Zm22.144,13.871H84.262a83.011,83.011,0,0,0-1.248-13.871h15.2A30.307,30.307,0,0,1,102.286,70.417Zm-42.939,0H41.323a30.307,30.307,0,0,1,4.071-13.871H60.6a83.01,83.01,0,0,0-1.254,13.871ZM96.4,53.772H82.431a30.612,30.612,0,0,0-5.125-11.978A30.558,30.558,0,0,1,96.4,53.772ZM66.3,41.795a30.612,30.612,0,0,0-5.125,11.978H47.206A30.558,30.558,0,0,1,66.3,41.795Zm-19.1,48.042H61.178a30.612,30.612,0,0,0,5.132,11.978A30.558,30.558,0,0,1,47.206,89.837ZM94,110.643A16.645,16.645,0,1,1,110.643,94,16.645,16.645,0,0,1,94,110.643Z" transform="translate(-28.804 -28.804)"/><path class="c" d="M207.149,198.794l-8.729,8.729-3.181-3.181a1.387,1.387,0,0,0-1.961,0l-4.161,4.161a1.387,1.387,0,0,0,0,1.961l8.323,8.323a1.387,1.387,0,0,0,1.961,0l13.871-13.871a1.387,1.387,0,0,0,0-1.961l-4.161-4.161A1.387,1.387,0,0,0,207.149,198.794Zm-8.729,17.052-6.361-6.361,2.2-2.2,3.181,3.181a1.387,1.387,0,0,0,1.961,0l8.729-8.729,2.2,2.2Z" transform="translate(-136.001 -142.904)"/></g></g></svg>