<svg xmlns="http://www.w3.org/2000/svg" width="69.11" height="69.257" viewBox="0 0 69.11 69.257"><defs><style>.a{fill:#fff;}</style></defs><path class="a" d="M80.488,0c-11.33,0-20.9,9.457-20.9,20.651a20.684,20.684,0,0,0,7.671,15.639,9.619,9.619,0,0,1,3.411,7.364v.874s0,.006,0,.009a3.514,3.514,0,0,0-.878,6.055,3.515,3.515,0,0,0,2.153,6.3h1.363a7.31,7.31,0,0,0,14.361,0h1.363a3.515,3.515,0,0,0,2.153-6.3,3.515,3.515,0,0,0-2.153-6.3H72.146v-.642a11.094,11.094,0,0,0-3.935-8.493,19.211,19.211,0,0,1-7.147-14.509c0-10.393,8.895-19.172,19.424-19.172s19.423,8.78,19.423,19.172a19.21,19.21,0,0,1-7.147,14.51,11.076,11.076,0,0,0-1.852,2.006c-.88.975.569,2.016,1.2.861a9.6,9.6,0,0,1,1.6-1.738,20.684,20.684,0,0,0,7.672-15.639C101.389,9.457,91.818,0,80.488,0ZM91.07,53.369a2.041,2.041,0,0,1-2.039,2.039H71.944a2.039,2.039,0,0,1,0-4.078H89.031A2.041,2.041,0,0,1,91.07,53.369Z" transform="translate(-45.933)"/><path class="a" d="M117.608,46.263V42.527a.739.739,0,0,0-.633-.731l-2.176-.317a.736.736,0,0,1-.595-.5,11.058,11.058,0,0,0-.684-1.654.736.736,0,0,1,.065-.775l1.317-1.77a.739.739,0,0,0-.07-.963l-2.635-2.64a.739.739,0,0,0-.966-.07l-1.762,1.317a.736.736,0,0,1-.777.066,11.026,11.026,0,0,0-1.648-.684.735.735,0,0,1-.5-.595l-.317-2.183a.739.739,0,0,0-.731-.633h-3.724a.739.739,0,0,0-.731.633l-.317,2.183a.736.736,0,0,1-.5.595,11.011,11.011,0,0,0-1.648.684.736.736,0,0,1-.777-.066L96.037,33.1a.739.739,0,0,0-.966.07l-2.635,2.64a.739.739,0,0,0-.07.963l1.317,1.77a.736.736,0,0,1,.065.775,11.073,11.073,0,0,0-.684,1.654.736.736,0,0,1-.595.5l-2.176.317a.739.739,0,0,0-.633.731v3.736a.739.739,0,0,0,.633.731l2.176.317a.736.736,0,0,1,.595.5,11.074,11.074,0,0,0,.684,1.654.736.736,0,0,1-.065.775l-1.317,1.77a.739.739,0,0,0,.07.963l2.635,2.64a.739.739,0,0,0,.966.07L97.8,54.369a.736.736,0,0,1,.777-.066,11.026,11.026,0,0,0,1.648.684.735.735,0,0,1,.5.595l.317,2.183a.739.739,0,0,0,.731.633H105.5a.739.739,0,0,0,.731-.633l.317-2.183a.736.736,0,0,1,.5-.595,11.009,11.009,0,0,0,1.648-.684.736.736,0,0,1,.777.066l1.762,1.317a.739.739,0,0,0,.966-.07l2.635-2.64a.739.739,0,0,0,.07-.963l-1.317-1.77a.736.736,0,0,1-.065-.775,11.072,11.072,0,0,0,.684-1.654.736.736,0,0,1,.595-.5l2.176-.317A.739.739,0,0,0,117.608,46.263Zm-13.973,5.478a6.974,6.974,0,1,1,6.986-6.974A6.98,6.98,0,0,1,103.635,51.741Z" transform="translate(-69.08 -23.391)"/><g transform="translate(0 51.517)"><path class="a" d="M18.51,231.262l-.8-2.5a1.29,1.29,0,0,0-1.63-.843l-1.959.646a6.336,6.336,0,0,0-2.089-1.539v-2.089a1.3,1.3,0,0,0-1.294-1.312H8.153a1.3,1.3,0,0,0-1.294,1.312v2.089a6.33,6.33,0,0,0-2.089,1.539l-1.959-.646a1.29,1.29,0,0,0-1.63.843l-.8,2.5a1.316,1.316,0,0,0,.831,1.654l1.959.646a6.423,6.423,0,0,0,.8,2.49l-1.211,1.691a1.324,1.324,0,0,0,.286,1.833l2.093,1.543a1.282,1.282,0,0,0,1.807-.29l1.21-1.689a6.26,6.26,0,0,0,2.583,0l1.21,1.689a1.282,1.282,0,0,0,1.807.29l2.093-1.543a1.324,1.324,0,0,0,.286-1.833l-1.211-1.691a6.424,6.424,0,0,0,.8-2.49l1.959-.646A1.316,1.316,0,0,0,18.51,231.262Zm-9.064,4.888a3.281,3.281,0,1,1,3.234-3.281A3.257,3.257,0,0,1,9.446,236.151Z" transform="translate(-0.319 -223.629)"/><path class="a" d="M239.266,231.262l-.8-2.5a1.29,1.29,0,0,0-1.63-.843l-1.959.646a6.336,6.336,0,0,0-2.089-1.539v-2.089a1.3,1.3,0,0,0-1.294-1.312h-2.587a1.3,1.3,0,0,0-1.294,1.312v2.089a6.33,6.33,0,0,0-2.089,1.539l-1.959-.646a1.29,1.29,0,0,0-1.63.843l-.8,2.5a1.316,1.316,0,0,0,.831,1.654l1.959.646a6.423,6.423,0,0,0,.8,2.49l-1.211,1.691a1.324,1.324,0,0,0,.286,1.833l2.093,1.543a1.282,1.282,0,0,0,1.807-.29l1.21-1.689a6.26,6.26,0,0,0,2.583,0l1.21,1.689a1.282,1.282,0,0,0,1.807.29l2.093-1.543a1.324,1.324,0,0,0,.286-1.833l-1.211-1.691a6.424,6.424,0,0,0,.8-2.49l1.959-.646A1.316,1.316,0,0,0,239.266,231.262Zm-9.064,4.888a3.281,3.281,0,1,1,3.234-3.281A3.257,3.257,0,0,1,230.2,236.151Z" transform="translate(-170.22 -223.629)"/></g><circle class="a" cx="0.961" cy="0.961" r="0.961" transform="translate(43.172 39.982)"/><path class="a" d="M26.874,47.318l3.363,1.332a.739.739,0,1,0,.544-1.374l-3.363-1.332a.739.739,0,1,0-.544,1.374Z" transform="translate(-20.397 -35.319)"/><path class="a" d="M32.051,136.422l-3.363,1.332a.739.739,0,1,0,.544,1.374L32.6,137.8a.739.739,0,1,0-.544-1.374Z" transform="translate(-21.793 -104.955)"/><path class="a" d="M2.236,95.672H9.517a.739.739,0,0,0,0-1.478H2.236a.739.739,0,0,0,0,1.478Z" transform="translate(-1.226 -72.495)"/><path class="a" d="M254.222,133.2a.739.739,0,1,0-.544,1.374l3.363,1.332a.739.739,0,1,0,.544-1.374Z" transform="translate(-194.953 -102.477)"/><path class="a" d="M252.137,45.482a.736.736,0,0,0,.272-.052l3.363-1.332a.739.739,0,1,0-.544-1.374l-3.363,1.332a.739.739,0,0,0,.272,1.427Z" transform="translate(-193.557 -32.842)"/><path class="a" d="M261.116,91.37a.739.739,0,0,0,.739.739h7.281a.739.739,0,0,0,0-1.478h-7.281A.739.739,0,0,0,261.116,91.37Z" transform="translate(-201.037 -69.752)"/></svg>